<svg xmlns="http://www.w3.org/2000/svg" xmlns:xlink="http://www.w3.org/1999/xlink" viewBox="0 0 2440.66 300"><defs><style>.cls-1{fill:url(#New_Gradient_Swatch_9);}.cls-2{fill:#fff;stroke-linejoin:round;stroke-width:1.26px;}.cls-10,.cls-11,.cls-19,.cls-2,.cls-20,.cls-21,.cls-22,.cls-5,.cls-8,.cls-9{stroke:#000;}.cls-2,.cls-5{stroke-linecap:round;}.cls-3{fill:url(#New_Gradient_Swatch_10);}.cls-4{fill:#f4f4f4;}.cls-5{fill:none;stroke-width:1.26px;}.cls-10,.cls-11,.cls-19,.cls-20,.cls-21,.cls-22,.cls-5,.cls-8,.cls-9{stroke-miterlimit:10;}.cls-6{fill:url(#New_Gradient_Swatch_12);}.cls-7{fill:url(#New_Gradient_Swatch_11);}.cls-8{fill:url(#New_Gradient_Swatch_9-2);}.cls-9{fill:url(#New_Gradient_Swatch_10-2);}.cls-10{fill:url(#New_Gradient_Swatch_11-2);}.cls-11{fill:url(#New_Gradient_Swatch_12-2);}.cls-12{font-size:25.53px;font-family:ArialMT, Arial;}.cls-13{letter-spacing:-0.02em;}.cls-14{letter-spacing:0em;}.cls-15{letter-spacing:-0.02em;}.cls-16{letter-spacing:-0.11em;}.cls-17{letter-spacing:-0.06em;}.cls-18{font-size:37.93px;font-family:MyriadPro-Regular, Myriad Pro;}.cls-19{fill:#53cea0;}.cls-20{fill:url(#radial-gradient);}.cls-21{fill:#41826c;}.cls-22{fill:#c5fae8;}</style><radialGradient id="New_Gradient_Swatch_9" cx="33.72" cy="232.2" r="37.96" gradientTransform="translate(25.5 10.47)" gradientUnits="userSpaceOnUse"><stop offset="0.12" stop-color="#339dd4"/><stop offset="0.32" stop-color="#3199d4"/><stop offset="0.5" stop-color="#2a8ed6"/><stop offset="0.68" stop-color="#1f7cd8"/><stop offset="0.86" stop-color="#1062db"/><stop offset="1" stop-color="#0046de"/></radialGradient><radialGradient id="New_Gradient_Swatch_10" cx="-189.9" cy="-53.09" r="42.99" gradientTransform="translate(320.35 293.38) scale(0.88)" gradientUnits="userSpaceOnUse"><stop offset="0.41" stop-color="#e7f6fd"/><stop offset="0.52" stop-color="#dff2fb"/><stop offset="0.68" stop-color="#cae7f5"/><stop offset="0.88" stop-color="#a8d6eb"/><stop offset="0.94" stop-color="#9bcfe7"/></radialGradient><radialGradient id="New_Gradient_Swatch_12" cx="310.22" cy="233.88" r="37.96" gradientTransform="translate(25.5 10.47)" gradientUnits="userSpaceOnUse"><stop offset="0.09" stop-color="#ff54b5"/><stop offset="0.38" stop-color="#fd53b4"/><stop offset="0.54" stop-color="#f54fb2"/><stop offset="0.66" stop-color="#e748ae"/><stop offset="0.77" stop-color="#d33ea8"/><stop offset="0.87" stop-color="#ba31a1"/><stop offset="0.96" stop-color="#9b2298"/><stop offset="0.98" stop-color="#961f96"/></radialGradient><radialGradient id="New_Gradient_Swatch_11" cx="-81.56" cy="-57.26" r="42.99" gradientTransform="translate(320.35 293.38) scale(0.88)" gradientUnits="userSpaceOnUse"><stop offset="0.32" stop-color="#fefbdb"/><stop offset="0.46" stop-color="#fbf7d5"/><stop offset="0.65" stop-color="#f4eac4"/><stop offset="0.87" stop-color="#e8d6a7"/><stop offset="1" stop-color="#dfc793"/></radialGradient><radialGradient id="New_Gradient_Swatch_9-2" cx="430.83" cy="254.97" r="26.31" gradientTransform="matrix(1, 0, 0, 1, 0, 0)" xlink:href="#New_Gradient_Swatch_9"/><radialGradient id="New_Gradient_Swatch_10-2" cx="486.97" cy="254.97" r="26.31" gradientTransform="matrix(1, 0, 0, 1, 0, 0)" xlink:href="#New_Gradient_Swatch_10"/><radialGradient id="New_Gradient_Swatch_11-2" cx="543.11" cy="254.97" r="26.31" gradientTransform="matrix(1, 0, 0, 1, 0, 0)" xlink:href="#New_Gradient_Swatch_11"/><radialGradient id="New_Gradient_Swatch_12-2" cx="599.26" cy="254.97" r="26.31" gradientTransform="matrix(1, 0, 0, 1, 0, 0)" xlink:href="#New_Gradient_Swatch_12"/><radialGradient id="radial-gradient" cx="662.51" cy="256.31" r="24" gradientUnits="userSpaceOnUse"><stop offset="0.07" stop-color="#7eebc2"/><stop offset="0.15" stop-color="#78e7bd"/><stop offset="0.25" stop-color="#67dbb0"/><stop offset="0.36" stop-color="#4bc899"/><stop offset="0.49" stop-color="#24ae7a"/><stop offset="0.52" stop-color="#1ba873"/></radialGradient></defs><g id="Birds"><circle id="SVGID" class="cls-1" cx="59.06" cy="241.52" r="37.77"/><path class="cls-2" d="M30.16,235.69c.7,4.59,6.57,8.17,13.69,8.17s13-3.58,13.7-8.17Z"/><path d="M32.79,236.32a3.58,3.58,0,0,0,0,.48,2.82,2.82,0,1,0,5.63,0,2.44,2.44,0,0,0-.05-.48Z"/><path class="cls-2" d="M60.57,235.69c.7,4.59,6.57,8.17,13.69,8.17s13-3.58,13.7-8.17Z"/><path d="M63.6,236.32a2.45,2.45,0,0,0,0,.48,2.81,2.81,0,1,0,5.62,0,2.45,2.45,0,0,0,0-.48Z"/><circle class="cls-3" cx="153.51" cy="246.74" r="37.77"/><ellipse cx="139.78" cy="241.02" rx="5.51" ry="9.92"/><ellipse class="cls-4" cx="140.59" cy="237.34" rx="2.65" ry="4.78"/><ellipse cx="167.25" cy="241.02" rx="5.51" ry="9.92"/><ellipse class="cls-4" cx="168.07" cy="237.34" rx="2.65" ry="4.78"/><ellipse cx="153.51" cy="266.19" rx="4.46" ry="5.34"/><ellipse class="cls-4" cx="153.51" cy="268.48" rx="2.86" ry="1.53"/><path class="cls-5" d="M144,221.18a24.15,24.15,0,0,0-11.4,5"/><path class="cls-5" d="M163.05,221.18a24.18,24.18,0,0,1,11.41,5"/><circle id="SVGID-2" data-name="SVGID" class="cls-6" cx="334.18" cy="243.19" r="37.77"/><ellipse cx="320.97" cy="240.28" rx="5.3" ry="9.54"/><ellipse class="cls-4" cx="321.76" cy="236.75" rx="2.55" ry="4.59"/><ellipse cx="347.39" cy="240.28" rx="5.3" ry="9.54"/><ellipse class="cls-4" cx="348.17" cy="236.75" rx="2.55" ry="4.59"/><path class="cls-5" d="M325.07,219.54a24.05,24.05,0,0,0-9.36,2.07"/><path class="cls-5" d="M343.29,219.54a24.09,24.09,0,0,1,9.36,2.07"/><path class="cls-5" d="M340.52,265a12.69,12.69,0,0,1-6.34,1.61,13,13,0,0,1-5.57-1.2"/><circle class="cls-7" cx="248.7" cy="243.08" r="37.77"/><ellipse cx="234.97" cy="237.36" rx="5.51" ry="9.92"/><ellipse class="cls-4" cx="235.78" cy="233.68" rx="2.65" ry="4.78"/><ellipse cx="262.44" cy="237.36" rx="5.51" ry="9.92"/><ellipse class="cls-4" cx="263.26" cy="233.68" rx="2.65" ry="4.78"/><ellipse cx="248.7" cy="262.53" rx="4.46" ry="5.34"/><ellipse class="cls-4" cx="248.7" cy="264.82" rx="2.86" ry="1.53"/><path class="cls-5" d="M239.16,217.52a24.15,24.15,0,0,0-11.4,5"/><path class="cls-5" d="M258.24,217.52a24.18,24.18,0,0,1,11.41,5"/><rect class="cls-8" x="409.92" y="232.16" width="48.15" height="48.15"/><rect class="cls-9" x="466.07" y="232.16" width="48.15" height="48.15"/><rect class="cls-10" x="522.21" y="232.16" width="48.15" height="48.15"/><rect class="cls-11" x="578.35" y="232.16" width="48.15" height="48.15"/></g><g id="TXT_etc" data-name="TXT, etc"><text class="cls-12" transform="translate(15.58 32.23)">Kid<tspan class="cls-13" x="36.9" y="0">’</tspan><tspan class="cls-14" x="42.11" y="0">s Go Server // Character Designs // 20210529</tspan></text><text class="cls-12" transform="translate(1550.42 32.23)">Milk<tspan class="cls-15" x="45.37" y="0"> </tspan><tspan class="cls-16" x="52" y="0">T</tspan><tspan x="64.77" y="0">eeth LLC // nicksnyde</tspan><tspan class="cls-17" x="310.26" y="0">r</tspan><tspan class="cls-14" x="317.35" y="0">.tv</tspan></text><text class="cls-18" transform="translate(16.41 81.85)">BIRD SPECIES</text><rect class="cls-19" x="692.85" y="232.31" width="47.99" height="47.99"/><rect class="cls-20" x="638.51" y="232.31" width="47.99" height="47.99"/><rect class="cls-21" x="747.59" y="232.31" width="47.99" height="47.99"/><rect class="cls-22" x="801.23" y="232.31" width="47.99" height="47.99"/></g></svg>