<svg xmlns="http://www.w3.org/2000/svg" xmlns:xlink="http://www.w3.org/1999/xlink" viewBox="0 0 300 300"><defs><style>.cls-1{fill:#ffc4e6;}.cls-2{fill:url(#radial-gradient);}.cls-10,.cls-11,.cls-13,.cls-17,.cls-26,.cls-3{fill:#fff;}.cls-12,.cls-13,.cls-14,.cls-17,.cls-20,.cls-28,.cls-29,.cls-3{stroke:#000;}.cls-11,.cls-12,.cls-13,.cls-14,.cls-17,.cls-3{stroke-linecap:round;}.cls-11,.cls-12,.cls-13,.cls-14,.cls-17,.cls-20,.cls-26,.cls-28,.cls-29,.cls-3{stroke-miterlimit:10;}.cls-4{fill:url(#radial-gradient-2);}.cls-5{fill:url(#radial-gradient-3);}.cls-6{fill:url(#radial-gradient-4);}.cls-7{fill:url(#New_Gradient_Swatch_1);}.cls-8{fill:url(#New_Gradient_Swatch_1-2);}.cls-9{fill:url(#New_Gradient_Swatch_1-3);}.cls-11,.cls-26{stroke:#231f20;}.cls-11{stroke-width:0.56px;}.cls-12,.cls-14,.cls-20,.cls-29{fill:none;}.cls-12,.cls-13,.cls-29{stroke-width:1.25px;}.cls-14{stroke-width:0.85px;}.cls-15{fill:url(#radial-gradient-5);}.cls-16{fill:url(#radial-gradient-6);}.cls-17{stroke-width:0.71px;}.cls-18{fill:url(#radial-gradient-7);}.cls-19{fill:url(#radial-gradient-8);}.cls-20{stroke-width:1.38px;}.cls-21{fill:url(#radial-gradient-9);}.cls-22{fill:#202020;}.cls-23{fill:url(#radial-gradient-10);}.cls-24{fill:url(#radial-gradient-11);}.cls-25{fill:#ff54b5;}.cls-26{stroke-width:1.41px;}.cls-27{fill:#231f20;}.cls-28{fill:#961f96;}</style><radialGradient id="radial-gradient" cx="45.52" cy="41.21" fy="12.103707588823642" r="75.31" gradientUnits="userSpaceOnUse"><stop offset="0.16" stop-color="#ff54b5"/><stop offset="0.28" stop-color="#f34eb1"/><stop offset="0.49" stop-color="#d23da8"/><stop offset="0.77" stop-color="#9e2398"/><stop offset="0.81" stop-color="#961f96"/></radialGradient><radialGradient id="radial-gradient-2" cx="-24499.13" cy="-13169.01" r="14.12" gradientTransform="matrix(0.2, 0.04, -0.04, 0.2, 4567.04, 3573.29)" gradientUnits="userSpaceOnUse"><stop offset="0.28" stop-color="#fff"/><stop offset="0.41" stop-color="#fbfbfb"/><stop offset="0.54" stop-color="#efefef"/><stop offset="0.67" stop-color="#dadada"/><stop offset="0.8" stop-color="#bebebe"/><stop offset="0.93" stop-color="#9a9a9a"/><stop offset="0.95" stop-color="#949494"/></radialGradient><radialGradient id="radial-gradient-3" cx="-24434.3" cy="-13202.89" r="14.12" xlink:href="#radial-gradient-2"/><radialGradient id="radial-gradient-4" cx="-24383.17" cy="-13242.24" r="14.12" xlink:href="#radial-gradient-2"/><radialGradient id="New_Gradient_Swatch_1" cx="-520.99" cy="2199.29" r="2.88" gradientTransform="matrix(1, 0.17, -0.17, 0.99, 943.98, -2013.25)" gradientUnits="userSpaceOnUse"><stop offset="0.07" stop-color="#919191"/><stop offset="0.21" stop-color="#828283"/><stop offset="0.47" stop-color="#5c5c60"/><stop offset="0.83" stop-color="#1f1f27"/><stop offset="1" stop-color="#00000a"/></radialGradient><radialGradient id="New_Gradient_Swatch_1-2" cx="-507.4" cy="2194.05" r="2.88" xlink:href="#New_Gradient_Swatch_1"/><radialGradient id="New_Gradient_Swatch_1-3" cx="-495.3" cy="2186.21" r="2.88" xlink:href="#New_Gradient_Swatch_1"/><radialGradient id="radial-gradient-5" cx="21.77" cy="29.27" fy="4.7292750409253514" r="43.04" gradientUnits="userSpaceOnUse"><stop offset="0.21" stop-color="#fff"/><stop offset="0.28" stop-color="#f7feff"/><stop offset="0.38" stop-color="#e3fdff"/><stop offset="0.51" stop-color="#c1faff"/><stop offset="0.66" stop-color="#92f5ff"/><stop offset="0.71" stop-color="#81f4ff"/></radialGradient><radialGradient id="radial-gradient-6" cx="68.75" cy="29.27" fy="-12.6772803234714" r="71.76" gradientUnits="userSpaceOnUse"><stop offset="0.27" stop-color="#fff"/><stop offset="0.31" stop-color="#f7feff"/><stop offset="0.37" stop-color="#e3fdff"/><stop offset="0.44" stop-color="#c1faff"/><stop offset="0.53" stop-color="#92f5ff"/><stop offset="0.55" stop-color="#81f4ff"/></radialGradient><radialGradient id="radial-gradient-7" cx="20.06" cy="12.32" fy="4.465994859433895" r="21.14" gradientTransform="translate(0 -2.07) scale(1 1.17)" gradientUnits="userSpaceOnUse"><stop offset="0.34" stop-color="#fff"/><stop offset="0.43" stop-color="#f7feff"/><stop offset="0.57" stop-color="#e3fdff"/><stop offset="0.74" stop-color="#c1faff"/><stop offset="0.94" stop-color="#92f5ff"/><stop offset="1" stop-color="#81f4ff"/></radialGradient><radialGradient id="radial-gradient-8" cx="70.46" cy="12.32" fy="2.7217094565599123" r="34.01" gradientTransform="translate(0 -1.22) scale(1 1.1)" gradientUnits="userSpaceOnUse"><stop offset="0.15" stop-color="#fff"/><stop offset="0.2" stop-color="#f7feff"/><stop offset="0.29" stop-color="#e3fdff"/><stop offset="0.4" stop-color="#c1faff"/><stop offset="0.52" stop-color="#92f5ff"/><stop offset="0.55" stop-color="#81f4ff"/></radialGradient><radialGradient id="radial-gradient-9" cx="24448.14" cy="74.49" fx="24432.20458005044" fy="-4.542988889198313" r="89.42" gradientTransform="matrix(-1, 0, 0, 1, 24482.75, 0)" gradientUnits="userSpaceOnUse"><stop offset="0.25" stop-color="#961f96"/><stop offset="0.61" stop-color="#d840a9"/><stop offset="0.85" stop-color="#ff54b5"/></radialGradient><radialGradient id="radial-gradient-10" cx="-2025.09" cy="1349.18" fx="-2062.849198582872" fy="1299.2268089478355" r="72.23" gradientTransform="translate(1855.85 -1329.65) scale(0.85 1.03)" gradientUnits="userSpaceOnUse"><stop offset="0.12" stop-color="#961f96"/><stop offset="0.52" stop-color="#d840a9"/><stop offset="0.79" stop-color="#ff54b5"/></radialGradient><radialGradient id="radial-gradient-11" cx="51.75" cy="78.44" fy="3.726632580327319" r="122.67" gradientUnits="userSpaceOnUse"><stop offset="0.14" stop-color="#ff54b5"/><stop offset="0.28" stop-color="#ef4cb0"/><stop offset="0.54" stop-color="#c637a4"/><stop offset="0.8" stop-color="#961f96"/></radialGradient><symbol id="Bird_Body_MASTER_1_9" data-name="Bird_Body_MASTER_1 9" viewBox="0 0 185.53 142.13"><path class="cls-20" d="M7.21,71.38"/><path class="cls-20" d="M132.92,66"/><path class="cls-21" d="M39.31,63.26c0,15.3,4.13,22.57,14.13,33.57-4.54.47-10.81-2.63-12.81-6.63a43.16,43.16,0,0,1,.5,6.66,44.49,44.49,0,0,1-.52,6.8A55.52,55.52,0,0,1,36,117.74,37,37,0,0,1,32,124a33,33,0,0,1-5.25,5.33c.74-2.6,1.35-5.14,1.89-7.65s1-5,1.45-7.51c.88-5,.43-10.5-.54-8.08s-1.89,4.91-2.83,7.41c-4,9.67-8,20.67-18,26.67,4-9,6-18,8.74-26.74.63-2.08,1.27-4.14,2-6.19s.22-1.63-.93.49a71,71,0,0,1-3.78,6.19c-3,4.25-5,9.25-10,11.25,1-4,2-9,3.75-13.38.75-2.18,1.56-4.34,2.43-6.45s1.82-4.17,2.82-6.17c-4,2-6,6-11,7,1-6,3-12,7-16A11.53,11.53,0,0,1,.88,95.06c1-6,4.86-13.88,9.86-16.88-3,0-5,3-8,4-2-6,3-13,8-17-2,0-5,0-4-1,1.5-2.75,2.93-5.38,4.31-8s2.71-5.17,4-7.82C21.74,34.18,22,13.88,38,3.19c5.32-3.57,20.18,1.22,21.2,9.27,3.54,27.83-9.27,12.81-16.74,35.23A56.52,56.52,0,0,0,39.31,63.26Z"/><path class="cls-22" d="M39.31,63.26a26.71,26.71,0,0,0-.5,2.63,17.52,17.52,0,0,0,0,2.94c0,.28.07.7.12,1.21,0,.25.06.53.09.83l0,.22v.06l.07.51c.13.77.21,1.55.38,2.33a36.36,36.36,0,0,0,3.11,9.28,46.43,46.43,0,0,0,5.57,8.53c1.07,1.34,2.2,2.67,3.35,4l.29.32h-.13c-.41,0-.82-.08-1.22-.17a15.44,15.44,0,0,1-4.73-1.79,13.31,13.31,0,0,1-2.09-1.47,4.81,4.81,0,0,1-.48-.42L42.91,92l-.12-.11-.11-.12a.53.53,0,0,1-.11-.14l-.93-1.28L41.41,90l-.29-.49-.58-1-1-1.85-.12-.2c0-.08-.09-.15-.06-.06l0,.3.1.65.44,3c.14,1,.26,2,.33,2.74l.09,1.38a42.49,42.49,0,0,1,0,5.41,32.54,32.54,0,0,1-.76,5.39c-.41,1.79-.88,3.57-1.45,5.33a44.08,44.08,0,0,1-4.58,10,34.73,34.73,0,0,1-3.31,4.43c-.61.69-1.25,1.35-1.92,2l-.19.18h0l.15-.63.68-2.76c.5-1.83.82-3.69,1.18-5.54s.77-3.66,1-5.58c.11-1,.19-1.9.22-2.86,0-.47,0-1,0-1.43l0-.72c0-.28,0-.71-.11-1.18-.12-.92-.41-1.53-.79-1.68a.69.69,0,0,0-.38-.1.83.83,0,0,0-.34.06,1,1,0,0,0-.27.16,1.87,1.87,0,0,0-.16.35l-1.17,2.88-2.3,5.64c-2.76,6.74-5.46,13.42-9.69,18.77a31.48,31.48,0,0,1-3.43,3.67l-.93.83-1,.76-.37.28h0s0,0,0-.11l.24-.58.45-1.15c.59-1.54,1.13-3.08,1.64-4.6,2-6.1,3.53-12,5.2-17.38.2-.58.46-1.59.69-2.45s.48-1.76.71-2.63.47-1.73.7-2.58c.11-.43.23-.85.34-1.27a.2.2,0,0,0-.19-.12.75.75,0,0,1-.24-.08,1,1,0,0,0-.17,0,.51.51,0,0,0-.25,0c-.2.1-.49.2-1.11,1.23l-1.9,3.32-.67,1.12-.47.75c-.64,1-1.28,1.93-1.93,2.89s-1.21,1.89-1.78,2.79a27.77,27.77,0,0,1-3.45,4.66,11.24,11.24,0,0,1-1.92,1.6,3.84,3.84,0,0,1-.5.32h0l0-.22c.05-.17.09-.35.13-.52l.45-1.9c.57-2.38,1-4.08,1.34-5.06.44-1.5.9-2.86,1.43-4.17l1.38-3.67c.46-1.14.81-2.25,1.26-3.21s.86-1.88,1.24-2.73c.31-.66.59-1.29.87-1.9.17-.38.4-.83.5-1.13l.36-.94.17-.46.09-.22,0-.11-.12.06-.9.49L12.52,99l-.79.53-.38.26A3.54,3.54,0,0,0,11,100c-.25.2-.49.38-.71.57l-1.18,1a24.68,24.68,0,0,1-2.62,2.12,3.58,3.58,0,0,1-.57.37,4.61,4.61,0,0,1-.8.45,8,8,0,0,1-1.41.59l-.07,0h0l.06-.32a34.38,34.38,0,0,1,3.14-9.43,19.52,19.52,0,0,1,1.91-3,16.17,16.17,0,0,1,1.29-1.49l.17-.19h0c-2.29-1.89-.64-.52-1.15-.93l0,0,0,0L9,90c-.1.13-.19.27-.3.4a8.27,8.27,0,0,1-.69.77,11.35,11.35,0,0,1-3.74,2.47,9.68,9.68,0,0,1-2.36.65h-.1s0,0,0,0,0,0,.14-.61h0c.14-.57.32-1.29.69-2.4a30.27,30.27,0,0,1,1.94-4.6,26,26,0,0,1,2-3.33A17.68,17.68,0,0,1,10,79.6a3.93,3.93,0,0,1,.57-.41l.3-.2.15-.11.07,0h0c-.77-2.78-.22-.77-.4-1.39h-.07a5.74,5.74,0,0,0-1.82.34,14.27,14.27,0,0,0-3.2,1.89c-.51.36-1,.72-1.54,1-.26.15-.53.31-.81.44-.07,0,0,0,0,0h0l-.06-.23c0-.32-.09-.65-.13-1a11.19,11.19,0,0,1,.09-2.07h0a16.23,16.23,0,0,1,3-6.77,27.12,27.12,0,0,1,3.1-3.61l.47-.44.4-.36c.15-.15.33-.3.51-.45l2.13-1.79c.08,0,0,0-.06,0H10l-1.29,0L8,64.35a5,5,0,0,1-.62-.1l-.23-.06s0,0,0,0c-.17.19-.18.26-.28.31s0,0,0,0,0,0,0,0a.34.34,0,0,1,.17,0l.07,0,.14.08s0,0,0,0l.12-.14.1-.2.36-.66L9.32,61c1-1.87,2.08-3.76,3.09-5.81l3.2-6.29a64.29,64.29,0,0,0,2.77-7C20,37,21.35,31.83,23.1,26.61a79,79,0,0,1,3-7.78c.31-.63.63-1.26.95-1.89a18.78,18.78,0,0,1,1-1.87c.36-.61.73-1.22,1.1-1.83l1.24-1.74.63-.88.71-.81,1.42-1.63,1.58-1.49.8-.74c.28-.24.58-.44.87-.67L38.19,4A5.56,5.56,0,0,1,40,3.1a12.33,12.33,0,0,1,4.22-.3,21.34,21.34,0,0,1,8.34,2.61c2.53,1.42,4.88,3.5,5.68,6.18a6.7,6.7,0,0,1,.21,1l.13,1.13c.09.76.18,1.51.23,2.27.14,1.51.23,3,.23,4.52A25.1,25.1,0,0,1,58.7,25a10.3,10.3,0,0,1-1.49,4c-1.53,2.33-4.48,3.47-6.94,5.38a21.21,21.21,0,0,0-5.93,7A41.62,41.62,0,0,0,41,49.65c-.41,1.4-.79,2.81-1.12,4.22l-.14.59c-.06.28-.12.55-.17.81-.22,1-.38,1.9-.46,2.38a12.92,12.92,0,0,0,.17,5.61,47.19,47.19,0,0,0,1.3-5.35c.09-.47.24-1.31.46-2.33,0-.25.11-.52.17-.79l.14-.58c.32-1.38.69-2.76,1.1-4.13a39.3,39.3,0,0,1,3.18-8,19.72,19.72,0,0,1,5.52-6.56c1.16-.88,2.43-1.63,3.73-2.48a11.92,11.92,0,0,0,3.55-3.26,11.78,11.78,0,0,0,1.72-4.53,25.9,25.9,0,0,0,.35-4.71c0-1.56-.09-3.11-.23-4.65-.06-.78-.14-1.54-.23-2.31l-.13-1.15a8.85,8.85,0,0,0-.27-1.24A9.93,9.93,0,0,0,57.11,7,16.6,16.6,0,0,0,53.29,4.1a22.9,22.9,0,0,0-8.95-2.8,13.72,13.72,0,0,0-4.76.36,7,7,0,0,0-2.24,1.07L35.51,4.1c-.3.24-.62.45-.91.7l-.83.78L32.11,7.13,30.62,8.84l-.74.85-.65.91-1.3,1.82-1.14,1.9a18.1,18.1,0,0,0-1.06,1.93l-1,1.95a80.12,80.12,0,0,0-3.08,7.94C19.91,31.43,18.58,36.61,17,41.4a62.84,62.84,0,0,1-2.71,6.84c-1.09,2.15-2.14,4.24-3.17,6.25S9,58.42,8,60.27L6.53,63l-.36.67-.08.13h0a.63.63,0,0,0-.1.12,1.63,1.63,0,0,0-.19.47,1.12,1.12,0,0,0,.14.68,1.26,1.26,0,0,0,.35.35,1.5,1.5,0,0,0,.3.16,3,3,0,0,0,.47.14,6.46,6.46,0,0,0,.81.13l.76,0h.13L8.68,66c-.17.15-.34.3-.49.46a28.11,28.11,0,0,0-3.28,3.81,17.81,17.81,0,0,0-3.24,7.43h0a12,12,0,0,0-.1,2.39c.05.39.09.77.15,1.15s.13.53.2.79l.28,1c0,.26.21.07.36,0L3,82.87a8.56,8.56,0,0,0,.89-.37A8.4,8.4,0,0,0,4.86,82c.6-.35,1.13-.74,1.64-1.1a12.67,12.67,0,0,1,2.84-1.7,4.3,4.3,0,0,1,1.34-.26h.05c-.17-.62.39,1.38-.38-1.39h0l-.09.06-.17.11L9.73,78a6.21,6.21,0,0,0-.64.47,19.24,19.24,0,0,0-3.71,4,29.38,29.38,0,0,0-2.14,3.51,33.26,33.26,0,0,0-2,4.82,25.68,25.68,0,0,0-.72,2.53c-.1.31-.27,1.33-.41,2.13L0,95.7s0,.12,0,.14H.18l.68,0,.66,0,.58-.06A12.13,12.13,0,0,0,4.81,95a12.92,12.92,0,0,0,4.24-2.81,9.59,9.59,0,0,0,.8-.89c.13-.15.23-.31.35-.47l.09-.11,0-.06,0,0c-.51-.43,1.16.93-1.14-1h0l-.2.21a20.21,20.21,0,0,0-1.39,1.61,22,22,0,0,0-2.06,3.24,36.47,36.47,0,0,0-3.28,9.83q0,.27-.09.51c-.05.27-.09.53-.13.78s-.09.5-.13.74l-.06.35c0,.09-.11.31.06.22l1.26-.31a8.71,8.71,0,0,0,1-.29,10.72,10.72,0,0,0,1.63-.67,6.65,6.65,0,0,0,.9-.51,5.42,5.42,0,0,0,.63-.42,25.58,25.58,0,0,0,2.77-2.23l1.14-1c.21-.18.44-.35.67-.53l.07,0h0c-.08.18-.17.36-.25.55l-1.26,2.77c-.47,1-.82,2.08-1.27,3.24s-.91,2.39-1.4,3.7-1,2.75-1.47,4.26c-.3,1-.78,2.74-1.35,5.14-.39,1.61-.83,3.44-1.33,5.47l0,.14,0,.07.06,0,.26-.12.52-.23,1.06-.48a10.79,10.79,0,0,0,1.06-.55c.2-.11.38-.23.57-.36a13.4,13.4,0,0,0,2.16-1.8A28.74,28.74,0,0,0,13,118c.57-.91,1.14-1.84,1.76-2.76s1.3-1.9,1.94-2.91l.75-1.21h0l-.87,2.75c-1.69,5.43-3.18,11.32-5.19,17.35-.51,1.5-1,3-1.62,4.53l-.45,1.14-.66,1.6c-.31.75-.62,1.5-.94,2.25l-.47,1.12-.06.14s-.07.14,0,.07l.26-.16.52-.34L10,140.24l1-.67.64-.5,1-.79,1-.87a33,33,0,0,0,3.6-3.86c4.41-5.59,7.14-12.4,9.9-19.14l.26-.64.21-.53.41-1.08.82-2.15.82-2.16.1-.25h0s0,0,0,.2l0,.67c0,.45,0,.9,0,1.36,0,.91-.11,1.82-.22,2.72-.21,1.8-.66,3.65-1,5.48s-.67,3.68-1.16,5.49l-.67,2.73-.53,2.12c-.25,1-.39,1.74-.58,2.61l-.07.31.26-.22.53-.42,1-.84c.34-.27.69-.58,1-.88l.85-.78c.7-.67,1.37-1.37,2-2.09a34.55,34.55,0,0,0,3.46-4.62A46,46,0,0,0,39.5,111c.57-1.8,1.06-3.63,1.48-5.46a35.93,35.93,0,0,0,.8-5.61,45.52,45.52,0,0,0,0-5.6L41.72,93c0-.13,0,0,0-.06h0l.39.38a5.89,5.89,0,0,0,.53.48,15.76,15.76,0,0,0,2.31,1.62,16.65,16.65,0,0,0,5.2,2,10.82,10.82,0,0,0,1.39.2h1.16c.4,0,.82,0,1.24,0l.63,0h.32c.07,0,.1,0,0-.06l-.09-.12-.77-.93-1.44-1.62c-1.14-1.29-2.25-2.6-3.31-3.92a45.33,45.33,0,0,1-5.39-8.26,34.36,34.36,0,0,1-3-8.89c-.16-.75-.24-1.51-.37-2.26L40.5,71v0l0-.22q0-.43-.09-.81c-.05-.49-.09-.9-.12-1.17a23.67,23.67,0,0,0-.36-2.85C39.76,65,39.56,64.22,39.31,63.26Z"/><path class="cls-23" d="M92.13,28.47c-1.5,13.58-4.7,40.88,10.9,30.4-7.91,24.12,5.38,28.36,6.8,26.51a37.78,37.78,0,0,0-1.51,12s4.93-3.1,7-6.29c.24,2.34-2.09,11.53-2.09,11.53s9.49-6.5,12.94-13.17c-2.35,6-1.81,12.32-2.69,19.11,0,.41.26.71.49.47,4.29-4.44,7.6-11.09,9.26-18.64a105.76,105.76,0,0,1-2.25,19c6.45-7.38,9.65-25.11,9.15-32.61a87.56,87.56,0,0,1,3.67,18.26A72.51,72.51,0,0,0,145,65.68a57.63,57.63,0,0,1,15.21,17.71,62.83,62.83,0,0,0-5.7-27.12,64.48,64.48,0,0,1,18.43,15.48,58.56,58.56,0,0,0-10.67-21.94A66.5,66.5,0,0,1,184,55.59C178.14,40.71,166.37,34,155.18,31.91c6.83-3.37,17.89-6,25-7.29-3.12-5.7-11.45-9-16.27-9-7,.08-17.18,8-20.92,10.71a41.86,41.86,0,0,0,5.35-20.16c-6.56,11.4-16.55,15.39-17.91,24.61-1.28,8.65-3,11.18-11.8,15.66.23-17.2,9.17-44.87-6.46-45.67C99.2.11,93.62,14.9,92.13,28.47Z"/><path class="cls-22" d="M92.13,28.47a20.51,20.51,0,0,0-1.41,5.71c0,.57-.14,1.58-.26,2.8C90.18,40.4,90,43.9,90,47.5A48.33,48.33,0,0,0,90.4,53a18.72,18.72,0,0,0,1.52,5.48,7,7,0,0,0,1.88,2.44,5.07,5.07,0,0,0,3,1.12,7.78,7.78,0,0,0,3-.56,8.84,8.84,0,0,0,1.37-.59l.33-.17.14-.07h0a1.27,1.27,0,0,0-.06.18c-.2.76-.4,1.52-.61,2.28a47,47,0,0,0-1,5.73,22.68,22.68,0,0,0,1.38,11.81,11.43,11.43,0,0,0,4,4.78,6.83,6.83,0,0,0,3.09,1.15h.26s0,0,0,0a34.54,34.54,0,0,0-1,6c-.08,1-.13,2-.15,3v1.12l0,1.44a6.77,6.77,0,0,0,0,.68l.6-.38c.4-.26.8-.51,1.21-.79l.6-.41.3-.22.61-.45c.4-.31.8-.62,1.19-.94a25.54,25.54,0,0,0,2.24-2.06h0l0,.17-.12.71c-.25,1.5-.57,3-.89,4.4-.2.88-.4,1.74-.59,2.55-.16.65-.32,1.28-.47,1.9-.08.31-.16.62-.23.92l-.06.23s0,.11,0,.07l.09-.06.35-.24,1.32-.92,1.22-.89,1.28-1,1-.78c3.93-3.19,7.51-6.89,9.39-10.27l.18-.31.08-.15,0,0h0l-1.44-.65h0v0l0,.08c-.08.22-.15.43-.23.63-.15.4-.26.79-.37,1.16-.23.72-.37,1.36-.49,1.87-.22,1-.3,1.56-.28,1.44h0a70.13,70.13,0,0,0-.79,7.94c-.08,1.24-.16,2.43-.26,3.53,0,.28,0,.55-.08.82s-.07.69-.11,1l-.09.77c0,.18.07.34.1.51s0,.38.12.45a1.11,1.11,0,0,0,.28.3,1.05,1.05,0,0,0,.44.18c.1.06.23-.08.37-.16s.51-.36.76-.52l.36-.26c.14-.15.27-.29.39-.44l.43-.5c.47-.57.84-1.05,1.11-1.42l.43-.6a40.07,40.07,0,0,0,4.72-9.22c.55-1.52,1-3,1.37-4.38.09-.35.17-.69.25-1l.12-.5.05-.25,0-.06a13.74,13.74,0,1,0-1.57-.18h0v.15c0,.64,0,1.25-.07,1.83-.24,4.6-.57,7-.36,5h0c-.29,3.19-.74,6.33-1.26,9.14l-.4,2-.1.49,0,.12v.06h0l1.37.69h0l0,0,.16-.21.62-.79a17,17,0,0,0,1.06-1.54,14.69,14.69,0,0,0,.84-1.43c.24-.46.47-.88.68-1.27s.35-.76.5-1.08c.29-.65.52-1.13.63-1.43.22-.6.18-.4-.34.79h0a68.81,68.81,0,0,0,4.6-17A52.43,52.43,0,0,0,141,78.4l0-.88v-.74c-.69.12,1.54-.31-1.54.28h0v.07l.46,1.51c.29,1,.54,1.9.77,2.76.88,3.44,1.29,5.89,1.46,6.83s.09.38-.39-2.1c.36,1.8.65,3.59.89,5.32.11.87.22,1.72.31,2.55l.06.62,0,.31v.21l1.56.12h0l0-.08c.09-.4.19-.8.28-1.19a68.39,68.39,0,0,0,1.38-8c.22-2,.29-3.37.32-3.64s0,.5-.22,2.63h0a74.67,74.67,0,0,0,.1-13.68c-.1-1.08-.21-2.15-.35-3.2l-.08-.62h0s0,0,0,0c.39.31.76.63,1.13,1,.74.64,1.45,1.3,2.13,2a57.62,57.62,0,0,1,7,8.33c.49.7,1,1.41,1.41,2.12l2.35,3.83.61,1,.15.25.08.12s.06.12.05,0v-.6c0-.79,0-1.58,0-2.37s0-1.52,0-2.33l0-.8,0-.59A65.37,65.37,0,0,0,158,63.09c-.37-1.16-.75-2.27-1.16-3.32-.2-.53-.41-1.05-.63-1.55,0-.11,0,0,0,0h0l.3.18.58.36c.39.24.76.48,1.12.73a64.76,64.76,0,0,1,11.05,9.38c2,2.12,2.7,3,2.7,3l.2.23.08.09,0,0v0h0l1.37-.71v0l-.1-.36c-.08-.29-.18-.66-.32-1.15-.29-1-.7-2.4-1.45-4.45a60.91,60.91,0,0,0-3.58-8.1c-.26-.47-.9-1.7-2.08-3.58-.31-.46-.63-1-1-1.52l-.59-.84-.54-.73h0l.22,0,1.36.17a64.33,64.33,0,0,1,13.17,3.31q.93.33,1.89.72c.7.28,1,.39,2.62,1.1l2,.87.26.11s.05,0,0,0l0-.06-.06-.13-.22-.5-.44-1-.87-2c-.16-.34-.29-.71-.48-1A39.86,39.86,0,0,0,178,44a37.77,37.77,0,0,0-19.56-12.12l-.77-.2s0,0,0,0h0l.73-.31c2-.8,4.09-1.51,6.25-2.17,4.31-1.31,8.89-2.42,13.67-3.38l2.78-.54.2,0c.05,0,.2,0,.11-.09l-.24-.38L180.7,24l-.48-.79c-.12-.17-.21-.27-.31-.41a15.41,15.41,0,0,0-2.75-2.84,23.35,23.35,0,0,0-7-3.87,20.93,20.93,0,0,0-4-1,14.79,14.79,0,0,0-2.12-.18c-.36,0-.72,0-1.08.06a6.41,6.41,0,0,0-1.07.15,27.05,27.05,0,0,0-7.91,3,71.55,71.55,0,0,0-7.28,4.59c-1.19.83-2.37,1.69-3.55,2.55l-.44.32-.11.08,0,0c.49.48-1.19-1,1.09,1.08l.14-.24c.19-.33.38-.65.56-1,.35-.66.69-1.34,1-2a42.26,42.26,0,0,0,2.8-8.74c.31-1.52.54-3.06.71-4.63l0-.58,0-.35c0-.19,0-.39,0-.57l.11-2.25.08-2.26,0-.56V3.39a.49.49,0,0,1-.07.11l-.15.23-.6.95h0c-.54.82-1.07,1.65-1.61,2.49l-.42.68-.37.52-.45.64c-.57.86-1.25,1.65-1.9,2.49-1.35,1.63-2.84,3.22-4.4,4.82s-3.21,3.2-4.77,5a20.9,20.9,0,0,0-4,6.16,16.06,16.06,0,0,0-.58,1.82c-.12.61-.29,1.27-.37,1.85-.18,1.19-.39,2.38-.67,3.54A18.94,18.94,0,0,1,127.75,38a11,11,0,0,1-2,2.84,16.19,16.19,0,0,1-2.83,2.27c-.51.35-1.06.66-1.59,1l-1.51.84-.19.1-.1,0s0,0,0,0l0-.89c.06-1.28.17-2.57.29-3.87.48-5.17,1.27-10.42,1.82-15.76.28-2.67.5-5.36.55-8.09a33.31,33.31,0,0,0-.72-8.23,14.54,14.54,0,0,0-1.59-4,8.51,8.51,0,0,0-3.16-3.06A10.14,10.14,0,0,0,112.51,0a16.65,16.65,0,0,0-4.23.28,15.13,15.13,0,0,0-7.39,3.91,24.06,24.06,0,0,0-4.82,6.66,44.87,44.87,0,0,0-2.84,7.53l-.24.9-.15.58c-.09.39-.2.75-.26,1.09-.14.68-.26,1.24-.33,1.6a16.16,16.16,0,0,0-.12,5.9,30.67,30.67,0,0,0,1.66-5.59c.08-.35.19-.9.33-1.56.07-.33.17-.68.26-1.05l.15-.57c.07-.29.15-.58.23-.88a42.09,42.09,0,0,1,2.73-7.23A22.08,22.08,0,0,1,102,5.37a13.48,13.48,0,0,1,6.61-3.51c2.47-.47,5.22-.46,7.33.72a6.78,6.78,0,0,1,2.59,2.51,13,13,0,0,1,1.4,3.51,31.85,31.85,0,0,1,.67,7.83c0,2.65-.26,5.31-.54,8-.55,5.29-1.33,10.54-1.82,15.78-.12,1.31-.23,2.61-.29,3.93l0,.49,0,.72,0,1.77,0,.45v.22c0,.06,0,0,0,0l.1,0,.76-.4,1.51-.79.58-.31.43-.24.85-.48c.56-.35,1.12-.66,1.66-1A17,17,0,0,0,126.84,42a12.64,12.64,0,0,0,2.33-3.25,19.76,19.76,0,0,0,1.28-3.67c.29-1.23.52-2.46.7-3.68.09-.63.23-1.14.34-1.71A15.22,15.22,0,0,1,132,28a19.67,19.67,0,0,1,3.69-5.69c1.5-1.72,3.14-3.31,4.71-4.92s3.1-3.24,4.5-4.92c.66-.87,1.37-1.69,2-2.58l.46-.66.09-.12h0l-.08.8q-.24,2.27-.69,4.47a40,40,0,0,1-2.69,8.4c-.3.66-.62,1.31-1,1.94-.16.32-.35.62-.53.94l-.13.23c2.29,2.1.67.56,1.19,1l.06,0,.11-.09.45-.32c1.18-.87,2.34-1.72,3.52-2.54a71.45,71.45,0,0,1,7.12-4.48,25.5,25.5,0,0,1,7.44-2.87,4.26,4.26,0,0,1,.94-.13c.31,0,.62-.06.93-.06a15.06,15.06,0,0,1,1.88.16,20.19,20.19,0,0,1,3.69,1,22.07,22.07,0,0,1,6.51,3.6,14,14,0,0,1,2.48,2.56l.25.34h0s0,0,0,0l-.85.17c-4.83,1-9.44,2.09-13.82,3.42-2.19.67-4.32,1.39-6.38,2.22-.26.09-.5.21-.77.32-.5.21-1,.42-1.46.65-.93.44-2,.9-2.82,1.33l3.05.67c.5.11,1,.21,1.51.34l.74.19A36.2,36.2,0,0,1,176.83,45,38,38,0,0,1,182,53c.18.33.3.69.46,1,0,.06,0,.07,0,.06h0c.29.13-.7-.3-1.3-.53s-1.29-.5-1.93-.74a66.54,66.54,0,0,0-13.49-3.38l-1.39-.18-1.1-.12L162,49l-1.24-.12c-.08,0-.25-.05-.26,0l.19.24.37.47,1.42,1.82.75,1c.2.28.39.55.57.82.37.51.68,1,1,1.47,1.15,1.81,1.77,3,2,3.47h0a60.86,60.86,0,0,1,3.49,7.9c.73,2,1.13,3.4,1.42,4.35l.31,1.12c0,.14.07.26.09.36v0c.61-.31-1.36.71,1.37-.7h0l-.05,0-.07-.09-.21-.24s-.73-.92-2.76-3.09a65.86,65.86,0,0,0-11.32-9.62c-.37-.25-.75-.49-1.15-.74l-.6-.38-.9-.53c-.82-.49-1.64-.93-2.51-1.42l-.64-.36-.33-.18-.08-.05s-.06,0,0,0l.08.16.6,1.37c.2.46.41.92.62,1.39s.47,1.05.63,1.43.41,1,.6,1.5c.4,1,.78,2.11,1.13,3.24a64.13,64.13,0,0,1,2.82,16l0,.57a2.49,2.49,0,0,1,0,.37h0l-.05-.08-.22-.34q-.69-1.08-1.44-2.16a59.92,59.92,0,0,0-7.19-8.56c-.71-.69-1.44-1.37-2.2-2-.39-.34-.77-.67-1.18-1-.72-.6-1.56-1.2-2.35-1.82-1.23-1.33-.56.54-.51,1.38l.23,1.53.12.93c.15,1,.25,2.08.35,3.14a73.18,73.18,0,0,1-.1,13.38h0c.19-2.08.22-2.84.21-2.57s-.09,1.56-.31,3.56a68.19,68.19,0,0,1-1.35,7.78c-.09.38-.18.77-.28,1.16v.07h0c-1.38-.1,1.89.16,1.55.13v-.06l0-.16,0-.31-.06-.63c-.09-.84-.2-1.71-.32-2.59-.24-1.76-.54-3.58-.9-5.42h0c.49,2.53.55,3.1.4,2.14s-.59-3.45-1.49-7c-.23-.88-.48-1.82-.78-2.81-.15-.5-.31-1-.47-1.53l0,0v0h0c-3.08.58-.85.17-1.54.3v.7l0,.82a53,53,0,0,1-.59,7.31,68.09,68.09,0,0,1-4.49,16.62h0c.5-1.16.54-1.35.32-.77-.1.3-.32.76-.6,1.38l-.48,1c-.2.37-.41.77-.65,1.2a12.75,12.75,0,0,1-.79,1.35,13,13,0,0,1-1,1.43l-.57.73-.15.19v0h0c2.74,1.37.76.38,1.37.68h0v-.06l0-.12.1-.5c.13-.67.27-1.37.41-2.08.53-2.86,1-6,1.28-9.29h0c-.22,2,.12-.4.36-5.08,0-.58,0-1.2.07-1.85v-.17h0l-1.57-.2v.06l-.06.24c0,.16-.07.32-.11.48-.08.32-.15.65-.25,1a43.14,43.14,0,0,1-1.32,4.24,38.64,38.64,0,0,1-4.53,8.85l-.41.57c-.25.35-.61.81-1,1.35l-.31.36h0c0-.45.09-.91.13-1.39.1-1.12.18-2.32.26-3.57a70.74,70.74,0,0,1,.77-7.76c0,.11.06-.4.27-1.37.11-.49.25-1.09.46-1.77.1-.34.21-.71.35-1.08l.21-.59,0-.07v0h0l-1.45-.65h0l0,0-.08.14-.17.29c-1.71,3.08-5.16,6.7-9,9.81l-1,.76-.74.58h0s0,0,0,0l.35-1.54c.32-1.42.64-2.94.91-4.48l.12-.74.08-.57c0-.25.06-.49.09-.73,0-.45,0-.87.05-1.31s0-.78,0-1.17l0-1.2V88.7l-.25.35-.52.73a25.12,25.12,0,0,1-2.06,2.65,27.87,27.87,0,0,1-2.11,1.94c-.38.3-.75.6-1.14.89l-.88.65h0v-.35c0-1,.06-1.93.14-2.9a33.55,33.55,0,0,1,.94-5.67c.09-.39.3-1,.39-1.37l-.64-.34-.35-.19-.25-.13s-.08-.06-.14-.06l-.2,0a1.08,1.08,0,0,1-.19,0h-.28a5.34,5.34,0,0,1-2.35-.9,9.79,9.79,0,0,1-3.39-4.12,21.22,21.22,0,0,1-1.26-11,48.91,48.91,0,0,1,1-5.53l.36-1.36.19-.68.35-1.17.79-2.56.1-.32.05-.16,0-.08-.08,0-.6.37-1.2.73L101.3,59l-.79.42a8.48,8.48,0,0,1-1.21.52,6.4,6.4,0,0,1-2.42.46,4.12,4.12,0,0,1-3.54-2.68,16.68,16.68,0,0,1-1.36-5,44.28,44.28,0,0,1-.37-5.26c-.06-3.51.15-7,.43-10.36.11-1.2.2-2.21.25-2.77A22.22,22.22,0,0,0,92.13,28.47Z"/></symbol><symbol id="Bird_Head_1" data-name="Bird_Head_1" viewBox="0 0 103.44 156.8"><path class="cls-24" d="M102.5,94.41c1.89-5.88-3-33.3-37.78-56.62l-1.82-1.4a17.47,17.47,0,0,1,9-9.38c-4.36.6-9.84,4-13.06,7.07l-.33.22c6.61-5.74,9.68-14.09,9.68-24.18C65.68,20,53.55,33.63,53.55,33.63a49.59,49.59,0,0,0,5.19-16.88c.69-5.95-1.12-12.58-6-16C57,7,55.87,15.83,51.79,22.2S41.35,33,35.56,37.79c-19,15.75-37.92,40.69-34.51,57,2.34,11.18,23.52,27.5,30,50.06,4.72,16.54,34.51,13.71,40.58-.76C79.94,124.18,99.09,105,102.5,94.41Z"/><path class="cls-22" d="M102.5,94.41c.19-.38.36-.76.52-1.13a7.58,7.58,0,0,0,.28-1.14,9.06,9.06,0,0,0,.09-2.65,7.17,7.17,0,0,0-.11-1.06c0-.22-.07-.46-.11-.71-.07-.48-.15-1-.23-1.47-.35-1.38-.59-2.82-1.07-4.19L101.21,80c-.25-.69-.53-1.37-.79-2.06a71.55,71.55,0,0,0-8.87-15.86c-.92-1.24-1.82-2.52-2.85-3.69s-2-2.42-3-3.57L82.4,51.38c-1.07-1.15-2.29-2.15-3.43-3.24-2.26-2.2-4.79-4.08-7.2-6.08s-5.09-3.62-7.53-5.48l-.45-.35-.09-.07h0s0,0,0,0a5.32,5.32,0,0,1,.21-.5A15.06,15.06,0,0,1,65,33.73a17.71,17.71,0,0,1,2.88-3.29A17,17,0,0,1,71.43,28c.16-.09.32-.16.48-.24l.24-.11h0c.33,1.13-.41-1.56-.35-1.28h-.07l-.15,0a11,11,0,0,0-1.14.23,19.74,19.74,0,0,0-2.18.69,29.85,29.85,0,0,0-5.75,3.05c-.85.56-1.64,1.15-2.37,1.73-.36.29-.7.58-1,.86l-.47.43-.2.18-.18.12-.06,0,0,0h0L59,34.81v0l.11-.09.21-.2.4-.37c.26-.24.51-.46.72-.69.42-.44.78-.81,1-1.11.52-.61.72-.86.53-.62h0a28.73,28.73,0,0,0,5.52-10.77,40.28,40.28,0,0,0,1.35-9.86c0-.17,0-.34,0-.51v-.44h0c1.17.14-1.6-.21-1.32-.17h0v0c-.09.3-.18.58-.27.86a12.25,12.25,0,0,1-.52,1.52,23.2,23.2,0,0,1-.92,2.16c-.49,1-.58,1.23-.17.35h0a74.12,74.12,0,0,1-7.26,11.6c-1.25,1.68-2.48,3.23-3.63,4.63-.57.69-1.13,1.36-1.66,2l0,.06,0,0h0c-.24-.15,2.07,1.41,1.1.74h0l.07-.13.13-.28.27-.53q.26-.53.48-1a53.5,53.5,0,0,0,2.16-5.45c.25-.83.19-.51-.43,1.24h0a49.45,49.45,0,0,0,2.45-9.93,22,22,0,0,0-.52-9.25,15.93,15.93,0,0,0-3.95-7A13.21,13.21,0,0,0,53.45.43L53.27.3,53.19.23l0,0h0c.83-.82-1.15,1.11-.94.92l0,0,.2.33.4.64c.24.43.43.87.64,1.28s.33.84.48,1.24a17.18,17.18,0,0,1,.8,6.36c0,.38,0,.4,0,0,0-.2,0-.5,0-.92s0-.93-.06-1.57h0a22,22,0,0,1-3,12.47,36.12,36.12,0,0,1-6.61,8C42.9,31,40.81,32.68,39,34.13s-3.32,2.67-4.57,3.73c-2.51,2.12-4,3.5-4.89,4.32l-1.16,1.1-1.94,1.86c-1.24,1.24-3.07,3.06-5.3,5.5s-4.85,5.5-7.65,9.2A92,92,0,0,0,5.08,73.06a53.87,53.87,0,0,0-3.5,8.38A31,31,0,0,0,0,91.15a16.55,16.55,0,0,0,.82,5.16,14.45,14.45,0,0,0,1,2.48,21.44,21.44,0,0,0,1.27,2.36A93.54,93.54,0,0,0,9.36,110a209.26,209.26,0,0,1,13.41,18.43,72.57,72.57,0,0,1,5.42,10.48,59.58,59.58,0,0,1,2,5.62,20.34,20.34,0,0,0,1.12,2.94,9.5,9.5,0,0,0,.78,1.39,9.92,9.92,0,0,0,.93,1.3,18.21,18.21,0,0,0,10.88,6.1A30,30,0,0,0,56.45,156a26.39,26.39,0,0,0,11.24-5.51,17,17,0,0,0,4-4.95c.48-1,.89-1.89,1.3-2.8s.8-1.85,1.28-2.73a116.46,116.46,0,0,1,5.93-10.4c2.14-3.33,4.36-6.57,6.61-9.72l6.73-9.28c1.1-1.53,2.2-3,3.24-4.57.52-.77,1.06-1.51,1.55-2.29l1.23-1.9c.7-1.17,1.25-2.14,1.54-2.62a17,17,0,0,0,1-2.42,18.09,18.09,0,0,0,.41-2.36c-.51.73-.91,1.32-1.29,2a17.66,17.66,0,0,0-1.3,2.18l-1.52,2.55c-.4.62-.8,1.25-1.21,1.87s-1,1.51-1.53,2.27c-1,1.52-2.13,3-3.22,4.54l-6.73,9.29c-2.26,3.16-4.5,6.42-6.66,9.78s-4.2,6.86-6,10.52c-.49.9-.86,1.86-1.3,2.78s-.85,1.88-1.27,2.73a15.6,15.6,0,0,1-3.66,4.56,25.05,25.05,0,0,1-10.67,5.22,28.67,28.67,0,0,1-12,.32,16.9,16.9,0,0,1-10.1-5.62,14.51,14.51,0,0,1-2.59-5.18,59.59,59.59,0,0,0-2.08-5.75,71.57,71.57,0,0,0-5.52-10.66c-4.15-6.75-9-12.75-13.49-18.55a93.14,93.14,0,0,1-6.17-8.75A19.69,19.69,0,0,1,3,98.22a13.29,13.29,0,0,1-.93-2.31,15.28,15.28,0,0,1-.76-4.79,29.4,29.4,0,0,1,1.52-9.28,51.84,51.84,0,0,1,3.41-8.17,91,91,0,0,1,8.31-13c2.77-3.66,5.37-6.69,7.57-9.1s4-4.22,5.25-5.45l1.92-1.85,1.15-1.08c.89-.81,2.36-2.19,4.84-4.28,1.24-1.06,2.75-2.26,4.55-3.71S43.75,32,46,29.91a37.3,37.3,0,0,0,6.86-8.27A23.31,23.31,0,0,0,56.06,8.41h0c0,.68,0,1.24.06,1.68s0,.77,0,1c0,.43,0,.42,0,0a18.69,18.69,0,0,0-.87-6.85L54.7,2.88c-.23-.45-.44-.93-.7-1.4-.15-.23-.29-.47-.44-.71L53.34.41l0,0c.19-.21-1.77,1.74-.93.92h0l.07.06.16.12a13.07,13.07,0,0,1,1.22,1.05,14.55,14.55,0,0,1,3.61,6.38A20.58,20.58,0,0,1,58,17.63a47.43,47.43,0,0,1-2.38,9.66h0c.6-1.71.66-2,.41-1.21a51.94,51.94,0,0,1-2.09,5.31c-.16.32-.32.65-.48,1-.08.17-.17.34-.26.52l-.13.27-.07.13h0l1.09.75v0l0,0,0-.06c.55-.62,1.11-1.29,1.69-2,1.16-1.41,2.4-3,3.67-4.68a74.64,74.64,0,0,0,7.39-11.81c-.43.9-.33.69.17-.37a20.88,20.88,0,0,0,1-2.25,14.08,14.08,0,0,0,.56-1.6c.09-.29.18-.6.28-.91v-.05c.29,0-2.48-.32-1.31-.16h0v.43c0,.16,0,.32,0,.49a38.94,38.94,0,0,1-1.29,9.53A27.49,27.49,0,0,1,61,30.85h0l-.5.6c-.24.28-.59.63-1,1.05-.2.22-.44.43-.68.66l-.38.35-.2.18-.1.1h0l.81,1.06h0l0,0,.06,0,.12-.08.18-.12.25-.23L60,34c.31-.27.64-.55,1-.83.69-.55,1.45-1.12,2.28-1.66a28.54,28.54,0,0,1,5.48-2.91h0a15.8,15.8,0,0,1,2-.64,9.46,9.46,0,0,1,1-.22l.13,0H72c.09.27-.68-2.41-.37-1.27l0,0-.27.12c-.17.09-.35.16-.52.26A17.69,17.69,0,0,0,67,29.45,18.41,18.41,0,0,0,63.9,33a15.35,15.35,0,0,0-1.18,2.09,5.55,5.55,0,0,0-.24.56l-.2.51-.11.26c0,.09-.14.2,0,.25l1.29,1c2.46,1.88,5,3.58,7.5,5.47s4.89,3.83,7.12,6c1.12,1.07,2.33,2.06,3.38,3.2l3.21,3.36c1,1.13,2,2.35,3,3.51s1.9,2.41,2.81,3.64a70.12,70.12,0,0,1,8.71,15.55c.25.68.53,1.34.77,2s.43,1.36.64,2c.47,1.34.7,2.73,1,4.07.08.48.15.95.22,1.41,0,.24.08.47.11.68a6.75,6.75,0,0,1,.11,1c.08,1,.21,1.76.26,2.49,0,.36.12.73.13,1.1S102.49,94,102.5,94.41Z"/><path class="cls-25" d="M99.66,96c-3.54.5-5.43-.64-8.63.84,2.65-2.29,4.32-4.35,7-6.64l-6.35,1s3.7-4.65,4.71-8.72c1.85-7.4-9.74-22.59-28-31C69.83,73,53.42,77.3,55.7,92.09c.43,2.79-8.22-2-9.13,1.77,3.41-18-10.9-19.73-14.73-42.41-18.25,8.43-25.92,23.62-24.08,31,1,4.07,4.72,8.72,4.72,8.72l-6.36-1c2.66,2.29,4.32,4.35,7,6.64C9.9,95.4,8,96.54,4.47,96c10.18,8.11,23,22.15,32.85,33.4,7.67,8.79,22.16,8.78,29.82,0C77.18,117.9,90.25,103.53,99.66,96Z"/><path class="cls-22" d="M99.66,96c-1.22-.15-2-.29-3.4-.37-.28,0-.77,0-1.38,0H94.1a8.57,8.57,0,0,0-2.92.68l-.34.14c1,1.55.3.41.53.75l0,0,.07-.06.14-.12.55-.49,1.07-1c.69-.7,1.39-1.39,2.1-2.09l1.06-1,.54-.51.29-.28.57-.51L99,90l.29-.26.15-.13.07-.06s0,0,0,0l-.76.11-2.66.4-3,.45-.31,0h0l.1-.14L93,90.1a29.07,29.07,0,0,0,3.15-5.59A10.11,10.11,0,0,0,97,81.28,10.57,10.57,0,0,0,96.61,78a22.23,22.23,0,0,0-2.73-6,39.79,39.79,0,0,0-3.95-5.27,59.52,59.52,0,0,0-9.71-8.8Q77.58,56,74.8,54.31c-.93-.55-1.87-1.07-2.81-1.58L70.57,52l-.72-.35L69,51.26l-.72-.34L68,50.75l-.08,0V51l0,1.41,0,1.55c0,.51,0,1,0,1.54L67.82,57l-.13,1.52c-.06.5-.18,1-.26,1.48a18.94,18.94,0,0,1-.68,2.91,39.31,39.31,0,0,1-5,10.38c-2,3.15-4.13,6.11-5.42,9.37a18.24,18.24,0,0,0-1.23,4.91c0,.41-.06.82-.08,1.22l0,.6,0,.6c.06.76.12,1.52.18,2.25,0,.12,0,.15,0,.16s-.12.08-.26.1a3.77,3.77,0,0,1-.95,0c-.68-.07-1.36-.2-2-.31A10.33,10.33,0,0,0,47.88,92a2.21,2.21,0,0,0-.51.18c-.12,0-.08,0-.1,0h0c.07-.47.13-.92.19-1.35s0-1,.06-1.5,0-.79,0-.51c.09-1.26-.14-2.49,0-1.62a20.19,20.19,0,0,0-2.27-8.2,61.42,61.42,0,0,0-4-6.57A58.5,58.5,0,0,1,35,61.17c-.33-.91-.7-1.77-1-2.65s-.5-1.72-.74-2.54-.37-1.65-.56-2.43q-.12-.6-.24-1.17l-.15-.73-.12-.57-.06-.28s-.16.06-.23.08l-2.41,1.21c-.64.32-1.26.61-1.83,1-1.14.7-2.25,1.26-3.18,1.93s-1.84,1.21-2.6,1.82l-2.08,1.62C18.67,59.51,17.68,60.31,17,61l-1.49,1.52c-.31.33-.44.49-.44.49l-1,1.16A21.38,21.38,0,0,0,12.66,66c-.61.77-1.27,1.81-2.07,3.08-.38.65-.75,1.38-1.17,2.17S8.62,73,8.27,74c-.17.5-.35,1-.53,1.56l-.41,1.74c-.12.6-.17,1.25-.26,1.9a18.17,18.17,0,0,0,0,2.08A13.09,13.09,0,0,0,8.44,85.6,32.81,32.81,0,0,0,11,90l.39.55,0,0h0l-2.59-.38L7,89.9l-1.51-.23-.77-.11s-.09,0-.06,0l.07.06.15.14.3.26,1.21,1.06.59.54.29.27L8.4,93l1.28,1.28L11,95.63l1,.93.6.54.09.07,0,0,0,0h0c1-1.55.28-.43.5-.78h0l-.21-.09-.44-.19a8.86,8.86,0,0,0-3-.55c-.76,0-1.68.07-2.81.09H6.34l-.54,0c-.65,0-1.42-.13-2.15-.22l-.57-.07c-.05,0-.11,0-.13,0l.1.09.22.17.89.73L5.7,97.65c1.16,1,2.55,2.08,6.76,6,5.76,5.42,14.38,14.43,24,25.47A20.32,20.32,0,0,0,46,135.55a23,23,0,0,0,6,.93,21.23,21.23,0,0,0,6.11-.82A19.63,19.63,0,0,0,63.72,133a10.8,10.8,0,0,0,1.28-.94,11.93,11.93,0,0,0,1.2-1c.75-.75,1.5-1.52,2.16-2.31,2.73-3.12,5.51-6.25,8.31-9.34,5.62-6.17,11.33-12.22,17.15-17.66.89-.81,1.75-1.58,2.53-2.3l1-.85A14.33,14.33,0,0,0,99.66,96a11.2,11.2,0,0,0-2.93,1.84l-1,.86-2.54,2.32c-5.86,5.47-11.58,11.53-17.21,17.71-2.81,3.09-5.59,6.23-8.33,9.36-.67.81-1.38,1.53-2.09,2.24a12,12,0,0,1-1.15,1,8.76,8.76,0,0,1-1.21.89,18.66,18.66,0,0,1-5.41,2.52,21.07,21.07,0,0,1-5.84.78,22.16,22.16,0,0,1-5.7-.89,19.31,19.31,0,0,1-9.09-6.11C27.53,117.49,18.89,108.46,13.1,103c-4.23-4-5.63-5.08-6.8-6.08h0l-.38-.3h.86c1.19,0,2.08-.11,2.79-.09a7.81,7.81,0,0,1,2.72.49l.4.17.19.08h0c.22-.35-.5.77.5-.77h0l0,0,0,0-.07-.07-.6-.53-1-.91-1.34-1.33L9.06,92.35,7.89,91.21l-.3-.28s0,0,0,0h0l1.12.16,3.1.47,1.38.2.34,0c.1,0,0,0,0-.09l-.11-.14L12.94,91l-.42-.56L12.15,90l-.38-.54A31,31,0,0,1,9.28,85.2a12.36,12.36,0,0,1-1.26-4,17.67,17.67,0,0,1,0-1.92c.09-.62.13-1.22.24-1.8s.27-1.12.39-1.65l.51-1.5c.34-1,.76-1.81,1.11-2.6s.77-1.48,1.14-2.11c.78-1.24,1.42-2.24,2-3a19.61,19.61,0,0,1,1.4-1.78l1-1.14a4.37,4.37,0,0,1,.42-.48l1.46-1.49c.66-.7,1.63-1.49,2.78-2.54l2-1.6c.74-.6,1.63-1.13,2.55-1.78s2-1.21,3.12-1.9c.56-.35,1.18-.64,1.81-1l1.54-.77h0l0,.13.06.29.24,1.19c.19.8.29,1.64.57,2.47s.49,1.71.75,2.6.65,1.77,1,2.7A59.28,59.28,0,0,0,40.46,73a62,62,0,0,1,3.93,6.47,19.49,19.49,0,0,1,2.17,7.85c-.11-.83.11.34,0,1.55,0-.27,0,.11,0,.5s0,.94-.06,1.44-.16,1.18-.25,1.8c0,.27-.07.54-.11.82l0,.21v.1h0l.11,0,.28.06.06,0,.13,0,.15,0L47,94h0s0,0,0-.06a1.05,1.05,0,0,1,.41-.61c.12-.09.28-.25.31-.23a1.81,1.81,0,0,1,.35-.13,10,10,0,0,1,3.68.18c.67.12,1.37.25,2.11.33a4.92,4.92,0,0,0,1.21,0,1.34,1.34,0,0,0,.73-.34,1,1,0,0,0,.33-.84c-.06-.75-.12-1.51-.18-2.29l0-.56,0-.57c0-.38,0-.77.08-1.15A17.39,17.39,0,0,1,57.24,83c1.22-3.11,3.34-6,5.34-9.21a40.24,40.24,0,0,0,5.07-10.62,21.44,21.44,0,0,0,.7-3c.09-.51.21-1,.27-1.53l.13-1.56.13-1.57c0-.52,0-1.05,0-1.57l0-1.59v-.19h0l.6.29.71.35,1.4.72c.93.5,1.86,1,2.77,1.56q2.75,1.62,5.35,3.52a59,59,0,0,1,9.56,8.65,40,40,0,0,1,3.86,5.15,21.59,21.59,0,0,1,2.62,5.75,9.92,9.92,0,0,1,.36,3,9.15,9.15,0,0,1-.77,2.93,29.32,29.32,0,0,1-3,5.41l-.23.31-.36.5c-.31.42-.65.86-1,1.29l-.13.15.2,0,.38-.06.78-.12,1.23-.18,3-.46.36,0h0l-.26.23-.54.53-1.07,1.06-2.09,2.07-1,1-.54.48-.13.12-.07.06,0,0c.21.35-.53-.76.47.8l.31-.13a7.46,7.46,0,0,1,2.61-.6l.67,0h.05c.58,0,1.07,0,1.35,0A7.58,7.58,0,0,0,99.66,96Z"/><ellipse class="cls-26" cx="30.89" cy="84.73" rx="10.84" ry="10.29" transform="translate(-58.84 75.77) rotate(-64.27)"/><ellipse class="cls-27" cx="30.87" cy="85.47" rx="7.61" ry="7.56" transform="translate(-44.67 34.95) rotate(-36.36)"/><ellipse class="cls-10" cx="26.8" cy="81.29" rx="3.76" ry="3.81"/><ellipse class="cls-26" cx="71.64" cy="84.73" rx="10.84" ry="10.29" transform="translate(-35.79 112.47) rotate(-64.27)"/><ellipse class="cls-27" cx="71.62" cy="85.47" rx="7.61" ry="7.56" transform="translate(-36.73 59.11) rotate(-36.36)"/><ellipse class="cls-10" cx="67.55" cy="81.29" rx="3.76" ry="3.81"/><path class="cls-28" d="M34.2,102.8c-.9-.58-2-1.44.36-2.64S45.24,91,45.24,91c3.6-3.41,7.57-2.69,10.24-.19,0,0,8.79,7.71,11.32,9.35s1.3,2.13.36,2.64c-6.25,3.37-11.45,10.45-14.23,14.82a2.64,2.64,0,0,1-4.43,0C45.82,113.58,40.85,107.07,34.2,102.8Z"/><path class="cls-29" d="M34.2,102.8c-1-.32-2-1.44.36-2.64S45.24,91,45.24,91c3.6-3.41,7.57-2.69,10.24-.19,0,0,8.79,7.71,11.32,9.35s1.37,2.32.36,2.64c-12,3.77-16.42,9.5-16.42,9.5S46.15,106.57,34.2,102.8Z"/></symbol><symbol id="Bird_Body_MASTER_1_4" data-name="Bird_Body_MASTER_1 4" viewBox="0 0 90.52 160.76"><path class="cls-1" d="M40.78,120.78l-.21.51c-1.42-5.47-2.25-21.71-2.28-26.38l-6,1.14a244.38,244.38,0,0,0,5.26,25.38s0,.93,0,.94c-3.84,4.57-12.41,17.54-13.68,19-1.86,2.13-3.57,6.1-4.45,8.89a6,6,0,0,0-.31,3.19c.26,1,1.2,2,2.16,1.72l.41-.81a17.39,17.39,0,0,0-.2,2.4,3.79,3.79,0,0,0,1,3,2.21,2.21,0,0,0,2.55,0,7.35,7.35,0,0,0,1.91-2.08l.33-.82c.61,1.82,2.28,3.28,3.9,2.66,2.15-.83,2.3-4.08,2.22-6.61a57.35,57.35,0,0,1,3.1-20.67c.59-1.71,1.42-3.55,3-4.14.63-.23,1.33-.24,2-.51C45.44,125.83,44.86,121.75,40.78,120.78Z"/><path class="cls-1" d="M71.46,150.39c-.88-2.8-2.59-6.77-4.44-8.89-1.28-1.47-9.85-14.43-13.69-19,0,0,0-1,0-1a241.06,241.06,0,0,0,5.26-25.37l-6-1.15c0,4.68-.86,20.92-2.28,26.38l-.21-.51c-4.08,1-4.66,5-.66,6.76.63.27,1.33.27,2,.51,1.56.58,2.39,2.43,3,4.14A57.32,57.32,0,0,1,57.52,153c-.08,2.53.07,5.78,2.22,6.6,1.63.63,3.29-.83,3.9-2.65l.33.82a7.63,7.63,0,0,0,1.91,2.08,2.21,2.21,0,0,0,2.55,0,3.82,3.82,0,0,0,1-3,17.37,17.37,0,0,0-.19-2.39l.4.81c1,.22,1.9-.68,2.16-1.73A6,6,0,0,0,71.46,150.39Z"/><path d="M40.49,121.27c1.28.32,2.71,1.09,3,2.51a3,3,0,0,1-1.86,3c-.88.48-1.88.46-2.76.88a4.61,4.61,0,0,0-1.72,1.59,18.55,18.55,0,0,0-2.09,5.3,57.67,57.67,0,0,0-2.24,13.11c-.12,2.08,0,4.15,0,6.23,0,1.46-.05,3.36-1.1,4.5-1.55,1.69-3.56-.21-4.07-1.84-.74-2.38.58-4.92,1.64-7,.3-.58-.58-1.09-.88-.51-1.06,2.06-2.18,4.34-1.95,6.73a4.83,4.83,0,0,0,3.1,4.19,3.16,3.16,0,0,0,3.66-2.12,13.08,13.08,0,0,0,.6-5.39,57.4,57.4,0,0,1,1.58-15.06,31.4,31.4,0,0,1,2.19-6.78,4,4,0,0,1,2-2.12,15.08,15.08,0,0,1,1.64-.4,5.74,5.74,0,0,0,1.37-.65,3.9,3.9,0,0,0,2-4c-.36-1.76-2-2.81-3.68-3.23a.51.51,0,0,0-.27,1Z"/><path d="M26.58,157.49c-.71,1-2.07,2.91-3.53,2.09-1.23-.68-1-2.81-.9-4a16.1,16.1,0,0,1,3.2-8.39c.39-.52-.49-1-.88-.51a16.81,16.81,0,0,0-3.38,10.54c.05,1.49.57,3.26,2.28,3.49,1.88.25,3.13-1.38,4.09-2.73.38-.54-.5-1-.88-.52Z"/><path d="M21,154.59c-.73.12-1.26-.71-1.42-1.3a5,5,0,0,1,.24-2.65,13.59,13.59,0,0,1,.57-1.5,47,47,0,0,1,3-5.54c1.63-2.69,3.49-5.22,5.31-7.79q4.35-6.13,8.71-12.28a5.17,5.17,0,0,0,.91-1.35,2.82,2.82,0,0,0-.24-1.19c-.24-.87-.46-1.76-.68-2.64-.54-2.22-1-4.45-1.51-6.68-1.08-5-2.13-10.15-2.81-15.28l-.44.59,5.67-1.49-.77-.58c0,3.25.21,6.52.41,9.77.25,4.1.56,8.21,1.1,12.29a34.76,34.76,0,0,0,.89,4.85.61.61,0,0,0,1.17-.33,52.27,52.27,0,0,1-1.42-9.81c-.37-4-.62-8.06-.8-12.1-.07-1.55-.13-3.11-.14-4.67a.61.61,0,0,0-.76-.59l-5.67,1.49a.62.62,0,0,0-.45.58A214.26,214.26,0,0,0,36,117.7c.36,1.5.72,3,1.15,4.48l.07-.46L26.29,137.11a68,68,0,0,0-6.9,11.29,12.13,12.13,0,0,0-1.06,3.37c-.24,1.84.71,4.36,3,4,.76-.12.44-1.29-.32-1.16Z"/><path d="M50.15,120.41a4.9,4.9,0,0,0-3.53,2.72,3.54,3.54,0,0,0,.88,3.73,5.68,5.68,0,0,0,2.2,1.37c.57.19,1.19.21,1.75.43a3,3,0,0,1,1.12.82A8.6,8.6,0,0,1,54,132.19c.41,1.14.76,2.3,1.09,3.47a57.38,57.38,0,0,1,2.11,15,32,32,0,0,0,.18,6.11c.31,1.53,1.16,3.17,2.85,3.46,2.06.35,3.72-1.68,4.17-3.48.64-2.61-.66-5.25-1.82-7.5-.3-.59-1.18-.07-.88.51,1,1.91,2.13,4.13,1.79,6.35-.22,1.46-1.62,3.66-3.38,3-1.47-.52-1.79-2.43-1.89-3.77-.16-1.92,0-3.85,0-5.77a58.84,58.84,0,0,0-1.86-13.19,33.81,33.81,0,0,0-1.9-5.79,6.6,6.6,0,0,0-1.39-2.08,4.42,4.42,0,0,0-2.31-1.08c-1.51-.3-3.34-1.39-3.32-3.14s1.61-2.56,3-2.91a.51.51,0,0,0-.27-1Z"/><path d="M63.73,158c1,1.35,2.21,3,4.09,2.73,1.71-.23,2.23-2,2.28-3.49a16.81,16.81,0,0,0-3.38-10.54c-.39-.52-1.27,0-.88.51a16.13,16.13,0,0,1,3.2,8.39c.09,1.14.32,3.19-.82,3.93-1.47.94-2.9-1-3.61-2-.38-.53-1.26,0-.88.52Z"/><path d="M69.6,155.88c1.89.32,3-1.54,3-3.21a9.22,9.22,0,0,0-.84-3.5,50.37,50.37,0,0,0-4-7.35c-2.35-3.74-5.07-7.27-7.62-10.87-2.15-3-4.31-6.07-6.45-9.11l.06.47c.87-3,1.53-6,2.19-9.1q1.24-5.68,2.26-11.41c.31-1.76.6-3.51.83-5.28a.6.6,0,0,0-.44-.58l-5.67-1.49a.61.61,0,0,0-.77.58c0,3.21-.2,6.42-.4,9.62-.25,4.07-.55,8.14-1.07,12.18a32.57,32.57,0,0,1-.89,4.79.61.61,0,0,0,1.17.32,54,54,0,0,0,1.45-10c.37-4.07.63-8.16.81-12.25.07-1.56.13-3.12.14-4.68l-.77.59,5.67,1.48-.44-.58c-.59,4.52-1.5,9-2.43,13.48-.49,2.36-1,4.72-1.55,7.07-.22.94-.45,1.88-.69,2.81-.1.4-.21.8-.31,1.19a2.85,2.85,0,0,0-.26,1.24,5.35,5.35,0,0,0,.91,1.35l1.1,1.54,2.29,3.24,4.41,6.21c1.66,2.35,3.43,4.66,5,7.09a61.83,61.83,0,0,1,4,7,17.44,17.44,0,0,1,.69,1.68,6.24,6.24,0,0,1,.41,2.59c-.09.7-.6,1.82-1.48,1.68s-1.09,1-.33,1.16Z"/><path class="cls-2" d="M15.63,11.08,12.1,44.65c-1,22.38,8.83,40.63,16.82,53.67.89,1.46,1.38,3.18,2.61,4.38a4.51,4.51,0,0,0,4.69,1.22c1.86-.77,2.59-3,3.1-4.92,1.44-5.4,3.7-16,4.92-21a.94.94,0,0,1,1.82,0c1.86,6.54,4,14.5,5.73,21,.52,1.94,1.25,4.15,3.11,4.92a4.51,4.51,0,0,0,4.69-1.22,13,13,0,0,0,2.61-4.38C68.82,83,79.68,67.62,78.8,47.74L73.94,10.63"/><path d="M14.94,11.08,13.45,25.27,11.52,43.6a55.64,55.64,0,0,0,.22,11.68,81.37,81.37,0,0,0,4.11,18.14A112.11,112.11,0,0,0,22.73,89c1.21,2.28,2.49,4.54,3.81,6.76.62,1,1.27,2.07,1.88,3.12a27.35,27.35,0,0,0,2.22,3.91c1.78,2.15,5.2,3,7.29.81,1.7-1.77,2.12-4.53,2.68-6.82,1.27-5.18,2.4-10.4,3.6-15.6l.36-1.59.18-.72a2.13,2.13,0,0,1,.19-.76c.33-.38.5.22.57.47l.66,2.35q1.36,4.92,2.7,9.86c.83,3.09,1.57,6.21,2.49,9.28.79,2.59,2.45,5.25,5.56,4.78s4.73-3.48,5.88-6.14,2.33-5.12,3.56-7.64c2.59-5.28,5.28-10.51,7.55-15.94A71.73,71.73,0,0,0,79,57.64a40.68,40.68,0,0,0,.38-10.85l-2.31-17.6-2.3-17.56-.13-1c-.11-.87-1.5-.88-1.38,0l1.69,12.95,2.64,20.14c.18,1.34.41,2.68.53,4a42,42,0,0,1-.4,9.1,59.1,59.1,0,0,1-1.87,8.74c-3.24,11.19-9.33,21.18-14,31.8-1.07,2.43-2.44,6.15-5.68,6.1-3,0-3.57-4.1-4.15-6.28-1.7-6.39-3.42-12.77-5.22-19.13a1.94,1.94,0,0,0-.87-1.3,1.67,1.67,0,0,0-1.61,0c-.88.51-.95,1.78-1.16,2.68q-.86,3.71-1.69,7.43c-.6,2.66-1.2,5.33-1.84,8q-.39,1.65-.81,3.3a14.66,14.66,0,0,1-1.24,3.53,3.11,3.11,0,0,1-3.21,1.75,4.87,4.87,0,0,1-3.31-2.5c-.73-1.24-1.3-2.55-2.05-3.79-.61-1-1.22-2-1.82-3.06a133,133,0,0,1-7.32-14.19A88.94,88.94,0,0,1,14.37,63,73.82,73.82,0,0,1,13,53.55a57.73,57.73,0,0,1-.17-8.92c.39-4.79,1-9.57,1.52-14.36l1.9-18.12.12-1.07c.09-.89-1.3-.88-1.39,0Z"/><path class="cls-3" d="M13,67.64c21.61,8,48.41,2.59,66.8-11.17a1.16,1.16,0,0,0,.46-.82V48.1a1.17,1.17,0,0,0-1.85-1.05C60.21,59.81,34,66.18,13.12,58.59a1.18,1.18,0,0,0-1.55.84l.67,6.88A1.16,1.16,0,0,0,13,67.64Z"/><ellipse id="SVGID" class="cls-4" cx="48.31" cy="65.05" rx="2.92" ry="2.88"/><ellipse id="SVGID-2" data-name="SVGID" class="cls-5" cx="62.71" cy="60.51" rx="2.92" ry="2.88"/><ellipse id="SVGID-3" data-name="SVGID" class="cls-6" cx="74.51" cy="54.39" rx="2.92" ry="2.88"/><ellipse id="SVGID-4" data-name="SVGID" class="cls-7" cx="40.91" cy="66.31" rx="2.92" ry="2.88"/><ellipse id="SVGID-5" data-name="SVGID" class="cls-8" cx="55.39" cy="63.48" rx="2.92" ry="2.88"/><ellipse id="SVGID-6" data-name="SVGID" class="cls-9" cx="68.84" cy="57.84" rx="2.92" ry="2.88"/><path class="cls-10" d="M6.05,69.81c0-3.57,5.49-6.47,12.26-6.47s12.49,2.9,12.49,6.47-5.71,6.47-12.49,6.47S6.05,73.38,6.05,69.81Z"/><path class="cls-11" d="M6.05,69.81c0-3.57,5.49-6.47,12.26-6.47s12.49,2.9,12.49,6.47-5.71,6.47-12.49,6.47S6.05,73.38,6.05,69.81Z"/><path class="cls-12" d="M6.05,69.81c0-3.57,5.49-6.47,12.26-6.47s12.49,2.9,12.49,6.47-5.71,6.47-12.49,6.47S6.05,73.38,6.05,69.81Z"/><path class="cls-13" d="M5.74,69.44a11.73,11.73,0,0,0-.07,1.2c0,6.69,5.72,12.12,12.78,12.12s12.77-5.43,12.77-12.12a11.76,11.76,0,0,0-.06-1.2Z"/><line class="cls-14" x1="31.18" y1="71.28" x2="5.72" y2="71.28"/><path class="cls-15" d="M38.67,6.52C37,15.23,37.53,23.33,38,32.18c.29,5.13.92,10.32-.13,15.35A5.56,5.56,0,0,1,36.09,51a5.81,5.81,0,0,1-2.71.86c-5.14.66-16.22-.72-22.19-1.57a2,2,0,0,1-1.6-2.88c1.43-3-7.36-12.65-3.91-39.68-.22.11,7.57,3.07,12.88,2.86C28.42,10.19,38.67,6.52,38.67,6.52Z"/><path d="M38.05,6.35a78.66,78.66,0,0,0-1.11,16c.12,5.46.61,10.89.84,16.34a36.2,36.2,0,0,1-.41,8.19A6.79,6.79,0,0,1,36.19,50a4.47,4.47,0,0,1-3,1.21,54.22,54.22,0,0,1-11.1-.3c-2.07-.19-4.14-.42-6.2-.67l-2.76-.36a5.9,5.9,0,0,1-2.48-.52,1.48,1.48,0,0,1-.36-1.9,2.51,2.51,0,0,0,.14-.66,5.28,5.28,0,0,0-.15-1.48c-.32-1.43-.86-2.82-1.32-4.21A67.59,67.59,0,0,1,7,34.46,74.18,74.18,0,0,1,5.89,11.62c.12-1.3.27-2.6.43-3.9.07-.58-.73-.81-1.09-.45-1.11,1.09,2.6,2,3.07,2.14a38.25,38.25,0,0,0,7.77,1.71,37.15,37.15,0,0,0,9.58-.66,83.38,83.38,0,0,0,8.86-2c1.45-.41,2.91-.84,4.33-1.35.77-.27.43-1.5-.34-1.23A74.4,74.4,0,0,1,27.85,8.76,53.61,53.61,0,0,1,18.24,10a27.35,27.35,0,0,1-7.4-1.12c-1.12-.3-2.24-.64-3.34-1L6.44,7.4a1.23,1.23,0,0,0-.24-.1c-.38-.09.06-.43.12.42l-.19.45h0L5,7.72A80.65,80.65,0,0,0,5.43,33a63.4,63.4,0,0,0,1.91,7.44C7.85,42,8.45,43.6,8.88,45.21c.07.26.13.53.18.8s0,0,0,.24,0,.23,0,.34,0,.18,0,.27c0-.22,0,.08,0,.16a.21.21,0,0,1,0,.11c.08-.24-.08.19-.1.25a2.63,2.63,0,0,0,1.54,3.36,11.32,11.32,0,0,0,2.59.44q3,.41,6,.74a87.67,87.67,0,0,0,12.23.72c1.85-.06,4.1-.12,5.53-1.44,1.76-1.63,2-4.65,2.16-6.87a57.73,57.73,0,0,0-.09-8.42c-.18-2.82-.36-5.64-.49-8.46a102.47,102.47,0,0,1,.25-16.62c.16-1.39.37-2.77.62-4.14C39.43,5.89,38.2,5.54,38.05,6.35Z"/><path class="cls-16" d="M51.85,6.52c1.63,8.71,1.14,16.81.65,25.66-.28,5.13-.92,10.32.14,15.35A5.47,5.47,0,0,0,54.44,51a5.77,5.77,0,0,0,2.71.86c5.13.66,16.21-.72,22.19-1.57a2,2,0,0,0,1.59-2.88c-1.43-3,7.37-12.65,3.91-39.68.22.11-7.57,3.07-12.88,2.86C62.1,10.19,51.85,6.52,51.85,6.52Z"/><path d="M51.24,6.69a78.89,78.89,0,0,1,1,16.6c-.08,2.85-.24,5.68-.4,8.52s-.41,5.62-.46,8.44a29.43,29.43,0,0,0,.76,8.1,5.81,5.81,0,0,0,1.51,2.85,5.63,5.63,0,0,0,3.17,1.25,51.51,51.51,0,0,0,11.44-.21q3.2-.3,6.38-.7l2.87-.37a10.35,10.35,0,0,0,2.6-.46,2.62,2.62,0,0,0,1.46-3.33c0-.08-.18-.49-.1-.23,0,0,0-.1-.05-.14s0-.3,0-.2,0-.17,0-.24,0-.21,0-.32,0,0,0-.24a33,33,0,0,1,1.26-4.14c.74-2.23,1.41-4.48,1.94-6.77a75.56,75.56,0,0,0,1.25-23.48c-.12-1.3-.27-2.6-.43-3.9l-1.09.45h0l-.18-.45c.05-.81.49-.54.15-.44a1.28,1.28,0,0,0-.24.11l-.79.3c-.92.33-1.85.63-2.8.9A31.28,31.28,0,0,1,73.1,9.94a43.66,43.66,0,0,1-9.39-1c-2.65-.49-5.28-1.12-7.87-1.86-1.28-.37-2.56-.75-3.82-1.2-.77-.27-1.1,1-.33,1.23A75.33,75.33,0,0,0,63.8,10.27a41.39,41.39,0,0,0,9.8.92,35.63,35.63,0,0,0,7.86-1.54c1-.3,2-.61,2.9-1,.49-.2,1.67-.67.93-1.39-.35-.35-1.16-.13-1.09.45a80.09,80.09,0,0,1-.27,24.63,64.57,64.57,0,0,1-1.85,7.37c-.51,1.6-1.1,3.17-1.56,4.78a5,5,0,0,0-.24,3,1.47,1.47,0,0,1-.36,1.9,5.85,5.85,0,0,1-2.47.52c-1.94.26-3.87.5-5.81.71a90.57,90.57,0,0,1-12,.75c-1.69,0-4.15.06-5.32-1.34a6.64,6.64,0,0,1-1.18-3.15,26.9,26.9,0,0,1-.44-4.11A77,77,0,0,1,53,34.59c.18-2.74.33-5.47.45-8.21a96.43,96.43,0,0,0-.36-16c-.16-1.34-.37-2.67-.61-4C52.32,5.54,51.09,5.88,51.24,6.69Z"/><rect class="cls-17" x="29.89" y="5.75" width="31.66" height="12.14"/><rect class="cls-17" x="29.89" y="9.2" width="31.66" height="5.23"/><path class="cls-18" d="M3.85,1.55C3.44,7.7,2.71,13.48.65,19.14c11.82,4.67,20.52,4.34,32.5,4.87.12-1.64,1.32-13.59,6.32-20.78C24.53,5.26,10.21,2.07,3.89.63"/><path d="M3.21,1.55A63.24,63.24,0,0,1,0,19a.65.65,0,0,0,.45.78,61.2,61.2,0,0,0,12.9,3.55,105.7,105.7,0,0,0,12.19,1.06c2.52.1,5.05.18,7.58.29a.65.65,0,0,0,.64-.64A51.66,51.66,0,0,1,37.26,8.79,27,27,0,0,1,40,3.55a.64.64,0,0,0-.55-1c-10,1.35-20.25.51-30.15-1.44C7.56.8,5.81.41,4.06,0c-.8-.18-1.14,1.05-.34,1.23A115.19,115.19,0,0,0,29.66,4.52a76.6,76.6,0,0,0,9.81-.65l-.55-1a33.25,33.25,0,0,0-4.33,9.78,61.7,61.7,0,0,0-1.8,8.83c-.12.83-.22,1.66-.28,2.49l.64-.63C24.79,23,16.37,23,8.21,20.94A63.8,63.8,0,0,1,.82,18.52l.44.79A64.64,64.64,0,0,0,4.49,1.55c0-.82-1.22-.81-1.28,0Z"/><path class="cls-19" d="M86.67,1.55c.42,6.15,1.14,11.93,3.21,17.59C78.05,23.81,69.35,23.48,57.38,24c-.13-1.64-1.33-13.59-6.33-20.78C66,5.26,80.31,2.07,86.64.63"/><path d="M86,1.55a64.62,64.62,0,0,0,3.22,17.76l.45-.79A61.08,61.08,0,0,1,77,22a103,103,0,0,1-12.16,1.05c-2.49.1-5,.18-7.47.29L58,24A52.84,52.84,0,0,0,54.42,8.28,27.23,27.23,0,0,0,51.6,2.91l-.55,1c10.13,1.35,20.43.48,30.42-1.48C83.25,2,85,1.65,86.8,1.25c.81-.18.47-1.41-.33-1.23A114.44,114.44,0,0,1,60.75,3.25a76.85,76.85,0,0,1-9.7-.66.64.64,0,0,0-.55,1,32.17,32.17,0,0,1,4.22,9.57,61.48,61.48,0,0,1,1.76,8.51c.1.79.2,1.59.26,2.38a.64.64,0,0,0,.64.64c8.43-.37,16.93-.36,25.16-2.46a59.82,59.82,0,0,0,7.51-2.44.64.64,0,0,0,.44-.78A63.61,63.61,0,0,1,87.31,1.55c0-.81-1.33-.82-1.27,0Z"/></symbol></defs><g id="Birds"><use width="185.52" height="142.13" transform="translate(78.6 146.74) scale(0.96)" xlink:href="#Bird_Body_MASTER_1_9"/><use width="103.44" height="156.8" transform="translate(99.58 23.28) scale(0.96)" xlink:href="#Bird_Head_1"/><use width="90.52" height="160.76" transform="translate(106.09 139.65) scale(0.96)" xlink:href="#Bird_Body_MASTER_1_4"/></g></svg>