<svg xmlns="http://www.w3.org/2000/svg" xmlns:xlink="http://www.w3.org/1999/xlink" viewBox="0 0 300 300"><defs><style>.cls-1{fill:url(#radial-gradient);}.cls-2{fill:#202020;}.cls-3{fill:url(#radial-gradient-2);}.cls-17,.cls-19,.cls-30,.cls-4,.cls-5{fill:none;}.cls-17,.cls-18,.cls-19,.cls-22,.cls-29,.cls-30,.cls-4,.cls-5,.cls-8{stroke:#000;}.cls-16,.cls-17,.cls-18,.cls-19,.cls-22,.cls-27,.cls-29,.cls-30,.cls-4,.cls-5,.cls-8{stroke-miterlimit:10;}.cls-4{stroke-width:1.38px;}.cls-5{stroke-width:1.13px;}.cls-6{fill:#ffc4e6;}.cls-7{fill:url(#radial-gradient-3);}.cls-15,.cls-16,.cls-18,.cls-22,.cls-27,.cls-8{fill:#fff;}.cls-16,.cls-17,.cls-18,.cls-19,.cls-22,.cls-8{stroke-linecap:round;}.cls-9{fill:url(#radial-gradient-4);}.cls-10{fill:url(#radial-gradient-5);}.cls-11{fill:url(#radial-gradient-6);}.cls-12{fill:url(#New_Gradient_Swatch_1);}.cls-13{fill:url(#New_Gradient_Swatch_1-2);}.cls-14{fill:url(#New_Gradient_Swatch_1-3);}.cls-16,.cls-27{stroke:#231f20;}.cls-16{stroke-width:0.56px;}.cls-17,.cls-18,.cls-30{stroke-width:1.25px;}.cls-19{stroke-width:0.85px;}.cls-20{fill:url(#radial-gradient-7);}.cls-21{fill:url(#radial-gradient-8);}.cls-22{stroke-width:0.71px;}.cls-23{fill:url(#radial-gradient-9);}.cls-24{fill:url(#radial-gradient-10);}.cls-25{fill:url(#radial-gradient-11);}.cls-26{fill:#ff54b5;}.cls-27{stroke-width:1.41px;}.cls-28{fill:#231f20;}.cls-29{fill:#961f96;}</style><radialGradient id="radial-gradient" cx="124.4" cy="73.25" fx="108.4655083830307" fy="-5.785311609377175" r="89.42" gradientUnits="userSpaceOnUse"><stop offset="0.25" stop-color="#961f96"/><stop offset="0.61" stop-color="#d840a9"/><stop offset="0.85" stop-color="#ff54b5"/></radialGradient><radialGradient id="radial-gradient-2" cx="24458.2" cy="73.25" fx="24442.262390992222" fy="-5.785311063115586" r="89.42" gradientTransform="matrix(-1, 0, 0, 1, 24492.8, 0)" xlink:href="#radial-gradient"/><radialGradient id="radial-gradient-3" cx="45.52" cy="41.21" fy="12.103707588823642" r="75.31" gradientUnits="userSpaceOnUse"><stop offset="0.16" stop-color="#ff54b5"/><stop offset="0.28" stop-color="#f34eb1"/><stop offset="0.49" stop-color="#d23da8"/><stop offset="0.77" stop-color="#9e2398"/><stop offset="0.81" stop-color="#961f96"/></radialGradient><radialGradient id="radial-gradient-4" cx="-24499.13" cy="-13169.01" r="14.12" gradientTransform="matrix(0.2, 0.04, -0.04, 0.2, 4567.04, 3573.29)" gradientUnits="userSpaceOnUse"><stop offset="0.28" stop-color="#fff"/><stop offset="0.41" stop-color="#fbfbfb"/><stop offset="0.54" stop-color="#efefef"/><stop offset="0.67" stop-color="#dadada"/><stop offset="0.8" stop-color="#bebebe"/><stop offset="0.93" stop-color="#9a9a9a"/><stop offset="0.95" stop-color="#949494"/></radialGradient><radialGradient id="radial-gradient-5" cx="-24434.3" cy="-13202.89" r="14.12" xlink:href="#radial-gradient-4"/><radialGradient id="radial-gradient-6" cx="-24383.17" cy="-13242.24" r="14.12" xlink:href="#radial-gradient-4"/><radialGradient id="New_Gradient_Swatch_1" cx="-520.99" cy="2199.29" r="2.88" gradientTransform="matrix(1, 0.17, -0.17, 0.99, 943.98, -2013.25)" gradientUnits="userSpaceOnUse"><stop offset="0.07" stop-color="#919191"/><stop offset="0.21" stop-color="#828283"/><stop offset="0.47" stop-color="#5c5c60"/><stop offset="0.83" stop-color="#1f1f27"/><stop offset="1" stop-color="#00000a"/></radialGradient><radialGradient id="New_Gradient_Swatch_1-2" cx="-507.4" cy="2194.05" r="2.88" xlink:href="#New_Gradient_Swatch_1"/><radialGradient id="New_Gradient_Swatch_1-3" cx="-495.3" cy="2186.21" r="2.88" xlink:href="#New_Gradient_Swatch_1"/><radialGradient id="radial-gradient-7" cx="21.77" cy="29.27" fy="4.7292750409253514" r="43.04" gradientUnits="userSpaceOnUse"><stop offset="0.21" stop-color="#fff"/><stop offset="0.28" stop-color="#f7feff"/><stop offset="0.38" stop-color="#e3fdff"/><stop offset="0.51" stop-color="#c1faff"/><stop offset="0.66" stop-color="#92f5ff"/><stop offset="0.71" stop-color="#81f4ff"/></radialGradient><radialGradient id="radial-gradient-8" cx="68.75" cy="29.27" fy="-12.6772803234714" r="71.76" gradientUnits="userSpaceOnUse"><stop offset="0.27" stop-color="#fff"/><stop offset="0.31" stop-color="#f7feff"/><stop offset="0.37" stop-color="#e3fdff"/><stop offset="0.44" stop-color="#c1faff"/><stop offset="0.53" stop-color="#92f5ff"/><stop offset="0.55" stop-color="#81f4ff"/></radialGradient><radialGradient id="radial-gradient-9" cx="20.06" cy="12.32" fy="4.465994859433895" r="21.14" gradientTransform="translate(0 -2.07) scale(1 1.17)" gradientUnits="userSpaceOnUse"><stop offset="0.34" stop-color="#fff"/><stop offset="0.43" stop-color="#f7feff"/><stop offset="0.57" stop-color="#e3fdff"/><stop offset="0.74" stop-color="#c1faff"/><stop offset="0.94" stop-color="#92f5ff"/><stop offset="1" stop-color="#81f4ff"/></radialGradient><radialGradient id="radial-gradient-10" cx="70.46" cy="12.32" fy="2.7217094565599123" r="34.01" gradientTransform="translate(0 -1.22) scale(1 1.1)" gradientUnits="userSpaceOnUse"><stop offset="0.15" stop-color="#fff"/><stop offset="0.2" stop-color="#f7feff"/><stop offset="0.29" stop-color="#e3fdff"/><stop offset="0.4" stop-color="#c1faff"/><stop offset="0.52" stop-color="#92f5ff"/><stop offset="0.55" stop-color="#81f4ff"/></radialGradient><radialGradient id="radial-gradient-11" cx="51.75" cy="78.44" fy="3.726632580327319" r="122.67" gradientUnits="userSpaceOnUse"><stop offset="0.14" stop-color="#ff54b5"/><stop offset="0.28" stop-color="#ef4cb0"/><stop offset="0.54" stop-color="#c637a4"/><stop offset="0.8" stop-color="#961f96"/></radialGradient><symbol id="Bird_Head_1" data-name="Bird_Head_1" viewBox="0 0 103.44 156.8"><path class="cls-25" d="M102.5,94.41c1.89-5.88-3-33.3-37.78-56.62l-1.82-1.4a17.47,17.47,0,0,1,9-9.38c-4.36.6-9.84,4-13.06,7.07l-.33.22c6.61-5.74,9.68-14.09,9.68-24.18C65.68,20,53.55,33.63,53.55,33.63a49.59,49.59,0,0,0,5.19-16.88c.69-5.95-1.12-12.58-6-16C57,7,55.87,15.83,51.79,22.2S41.35,33,35.56,37.79c-19,15.75-37.92,40.69-34.51,57,2.34,11.18,23.52,27.5,30,50.06,4.72,16.54,34.51,13.71,40.58-.76C79.94,124.18,99.09,105,102.5,94.41Z"/><path class="cls-2" d="M102.5,94.41c.19-.38.36-.76.52-1.13a7.58,7.58,0,0,0,.28-1.14,9.06,9.06,0,0,0,.09-2.65,7.17,7.17,0,0,0-.11-1.06c0-.22-.07-.46-.11-.71-.07-.48-.15-1-.23-1.47-.35-1.38-.59-2.82-1.07-4.19L101.21,80c-.25-.69-.53-1.37-.79-2.06a71.55,71.55,0,0,0-8.87-15.86c-.92-1.24-1.82-2.52-2.85-3.69s-2-2.42-3-3.57L82.4,51.38c-1.07-1.15-2.29-2.15-3.43-3.24-2.26-2.2-4.79-4.08-7.2-6.08s-5.09-3.62-7.53-5.48l-.45-.35-.09-.07h0s0,0,0,0a5.32,5.32,0,0,1,.21-.5A15.06,15.06,0,0,1,65,33.73a17.71,17.71,0,0,1,2.88-3.29A17,17,0,0,1,71.43,28c.16-.09.32-.16.48-.24l.24-.11h0c.33,1.13-.41-1.56-.35-1.28h-.07l-.15,0a11,11,0,0,0-1.14.23,19.74,19.74,0,0,0-2.18.69,29.85,29.85,0,0,0-5.75,3.05c-.85.56-1.64,1.15-2.37,1.73-.36.29-.7.58-1,.86l-.47.43-.2.18-.18.12-.06,0,0,0h0L59,34.81v0l.11-.09.21-.2.4-.37c.26-.24.51-.46.72-.69.42-.44.78-.81,1-1.11.52-.61.72-.86.53-.62h0a28.73,28.73,0,0,0,5.52-10.77,40.28,40.28,0,0,0,1.35-9.86c0-.17,0-.34,0-.51v-.44h0c1.17.14-1.6-.21-1.32-.17h0v0c-.09.3-.18.58-.27.86a12.25,12.25,0,0,1-.52,1.52,23.2,23.2,0,0,1-.92,2.16c-.49,1-.58,1.23-.17.35h0a74.12,74.12,0,0,1-7.26,11.6c-1.25,1.68-2.48,3.23-3.63,4.63-.57.69-1.13,1.36-1.66,2l0,.06,0,0h0c-.24-.15,2.07,1.41,1.1.74h0l.07-.13.13-.28.27-.53q.26-.53.48-1a53.5,53.5,0,0,0,2.16-5.45c.25-.83.19-.51-.43,1.24h0a49.45,49.45,0,0,0,2.45-9.93,22,22,0,0,0-.52-9.25,15.93,15.93,0,0,0-3.95-7A13.21,13.21,0,0,0,53.45.43L53.27.3,53.19.23l0,0h0c.83-.82-1.15,1.11-.94.92l0,0,.2.33.4.64c.24.43.43.87.64,1.28s.33.84.48,1.24a17.18,17.18,0,0,1,.8,6.36c0,.38,0,.4,0,0,0-.2,0-.5,0-.92s0-.93-.06-1.57h0a22,22,0,0,1-3,12.47,36.12,36.12,0,0,1-6.61,8C42.9,31,40.81,32.68,39,34.13s-3.32,2.67-4.57,3.73c-2.51,2.12-4,3.5-4.89,4.32l-1.16,1.1-1.94,1.86c-1.24,1.24-3.07,3.06-5.3,5.5s-4.85,5.5-7.65,9.2A92,92,0,0,0,5.08,73.06a53.87,53.87,0,0,0-3.5,8.38A31,31,0,0,0,0,91.15a16.55,16.55,0,0,0,.82,5.16,14.45,14.45,0,0,0,1,2.48,21.44,21.44,0,0,0,1.27,2.36A93.54,93.54,0,0,0,9.36,110a209.26,209.26,0,0,1,13.41,18.43,72.57,72.57,0,0,1,5.42,10.48,59.58,59.58,0,0,1,2,5.62,20.34,20.34,0,0,0,1.12,2.94,9.5,9.5,0,0,0,.78,1.39,9.92,9.92,0,0,0,.93,1.3,18.21,18.21,0,0,0,10.88,6.1A30,30,0,0,0,56.45,156a26.39,26.39,0,0,0,11.24-5.51,17,17,0,0,0,4-4.95c.48-1,.89-1.89,1.3-2.8s.8-1.85,1.28-2.73a116.46,116.46,0,0,1,5.93-10.4c2.14-3.33,4.36-6.57,6.61-9.72l6.73-9.28c1.1-1.53,2.2-3,3.24-4.57.52-.77,1.06-1.51,1.55-2.29l1.23-1.9c.7-1.17,1.25-2.14,1.54-2.62a17,17,0,0,0,1-2.42,18.09,18.09,0,0,0,.41-2.36c-.51.73-.91,1.32-1.29,2a17.66,17.66,0,0,0-1.3,2.18l-1.52,2.55c-.4.62-.8,1.25-1.21,1.87s-1,1.51-1.53,2.27c-1,1.52-2.13,3-3.22,4.54l-6.73,9.29c-2.26,3.16-4.5,6.42-6.66,9.78s-4.2,6.86-6,10.52c-.49.9-.86,1.86-1.3,2.78s-.85,1.88-1.27,2.73a15.6,15.6,0,0,1-3.66,4.56,25.05,25.05,0,0,1-10.67,5.22,28.67,28.67,0,0,1-12,.32,16.9,16.9,0,0,1-10.1-5.62,14.51,14.51,0,0,1-2.59-5.18,59.59,59.59,0,0,0-2.08-5.75,71.57,71.57,0,0,0-5.52-10.66c-4.15-6.75-9-12.75-13.49-18.55a93.14,93.14,0,0,1-6.17-8.75A19.69,19.69,0,0,1,3,98.22a13.29,13.29,0,0,1-.93-2.31,15.28,15.28,0,0,1-.76-4.79,29.4,29.4,0,0,1,1.52-9.28,51.84,51.84,0,0,1,3.41-8.17,91,91,0,0,1,8.31-13c2.77-3.66,5.37-6.69,7.57-9.1s4-4.22,5.25-5.45l1.92-1.85,1.15-1.08c.89-.81,2.36-2.19,4.84-4.28,1.24-1.06,2.75-2.26,4.55-3.71S43.75,32,46,29.91a37.3,37.3,0,0,0,6.86-8.27A23.31,23.31,0,0,0,56.06,8.41h0c0,.68,0,1.24.06,1.68s0,.77,0,1c0,.43,0,.42,0,0a18.69,18.69,0,0,0-.87-6.85L54.7,2.88c-.23-.45-.44-.93-.7-1.4-.15-.23-.29-.47-.44-.71L53.34.41l0,0c.19-.21-1.77,1.74-.93.92h0l.07.06.16.12a13.07,13.07,0,0,1,1.22,1.05,14.55,14.55,0,0,1,3.61,6.38A20.58,20.58,0,0,1,58,17.63a47.43,47.43,0,0,1-2.38,9.66h0c.6-1.71.66-2,.41-1.21a51.94,51.94,0,0,1-2.09,5.31c-.16.32-.32.65-.48,1-.08.17-.17.34-.26.52l-.13.27-.07.13h0l1.09.75v0l0,0,0-.06c.55-.62,1.11-1.29,1.69-2,1.16-1.41,2.4-3,3.67-4.68a74.64,74.64,0,0,0,7.39-11.81c-.43.9-.33.69.17-.37a20.88,20.88,0,0,0,1-2.25,14.08,14.08,0,0,0,.56-1.6c.09-.29.18-.6.28-.91v-.05c.29,0-2.48-.32-1.31-.16h0v.43c0,.16,0,.32,0,.49a38.94,38.94,0,0,1-1.29,9.53A27.49,27.49,0,0,1,61,30.85h0l-.5.6c-.24.28-.59.63-1,1.05-.2.22-.44.43-.68.66l-.38.35-.2.18-.1.1h0l.81,1.06h0l0,0,.06,0,.12-.08.18-.12.25-.23L60,34c.31-.27.64-.55,1-.83.69-.55,1.45-1.12,2.28-1.66a28.54,28.54,0,0,1,5.48-2.91h0a15.8,15.8,0,0,1,2-.64,9.46,9.46,0,0,1,1-.22l.13,0H72c.09.27-.68-2.41-.37-1.27l0,0-.27.12c-.17.09-.35.16-.52.26A17.69,17.69,0,0,0,67,29.45,18.41,18.41,0,0,0,63.9,33a15.35,15.35,0,0,0-1.18,2.09,5.55,5.55,0,0,0-.24.56l-.2.51-.11.26c0,.09-.14.2,0,.25l1.29,1c2.46,1.88,5,3.58,7.5,5.47s4.89,3.83,7.12,6c1.12,1.07,2.33,2.06,3.38,3.2l3.21,3.36c1,1.13,2,2.35,3,3.51s1.9,2.41,2.81,3.64a70.12,70.12,0,0,1,8.71,15.55c.25.68.53,1.34.77,2s.43,1.36.64,2c.47,1.34.7,2.73,1,4.07.08.48.15.95.22,1.41,0,.24.08.47.11.68a6.75,6.75,0,0,1,.11,1c.08,1,.21,1.76.26,2.49,0,.36.12.73.13,1.1S102.49,94,102.5,94.41Z"/><path class="cls-26" d="M99.66,96c-3.54.5-5.43-.64-8.63.84,2.65-2.29,4.32-4.35,7-6.64l-6.35,1s3.7-4.65,4.71-8.72c1.85-7.4-9.74-22.59-28-31C69.83,73,53.42,77.3,55.7,92.09c.43,2.79-8.22-2-9.13,1.77,3.41-18-10.9-19.73-14.73-42.41-18.25,8.43-25.92,23.62-24.08,31,1,4.07,4.72,8.72,4.72,8.72l-6.36-1c2.66,2.29,4.32,4.35,7,6.64C9.9,95.4,8,96.54,4.47,96c10.18,8.11,23,22.15,32.85,33.4,7.67,8.79,22.16,8.78,29.82,0C77.18,117.9,90.25,103.53,99.66,96Z"/><path class="cls-2" d="M99.66,96c-1.22-.15-2-.29-3.4-.37-.28,0-.77,0-1.38,0H94.1a8.57,8.57,0,0,0-2.92.68l-.34.14c1,1.55.3.41.53.75l0,0,.07-.06.14-.12.55-.49,1.07-1c.69-.7,1.39-1.39,2.1-2.09l1.06-1,.54-.51.29-.28.57-.51L99,90l.29-.26.15-.13.07-.06s0,0,0,0l-.76.11-2.66.4-3,.45-.31,0h0l.1-.14L93,90.1a29.07,29.07,0,0,0,3.15-5.59A10.11,10.11,0,0,0,97,81.28,10.57,10.57,0,0,0,96.61,78a22.23,22.23,0,0,0-2.73-6,39.79,39.79,0,0,0-3.95-5.27,59.52,59.52,0,0,0-9.71-8.8Q77.58,56,74.8,54.31c-.93-.55-1.87-1.07-2.81-1.58L70.57,52l-.72-.35L69,51.26l-.72-.34L68,50.75l-.08,0V51l0,1.41,0,1.55c0,.51,0,1,0,1.54L67.82,57l-.13,1.52c-.06.5-.18,1-.26,1.48a18.94,18.94,0,0,1-.68,2.91,39.31,39.31,0,0,1-5,10.38c-2,3.15-4.13,6.11-5.42,9.37a18.24,18.24,0,0,0-1.23,4.91c0,.41-.06.82-.08,1.22l0,.6,0,.6c.06.76.12,1.52.18,2.25,0,.12,0,.15,0,.16s-.12.08-.26.1a3.77,3.77,0,0,1-.95,0c-.68-.07-1.36-.2-2-.31A10.33,10.33,0,0,0,47.88,92a2.21,2.21,0,0,0-.51.18c-.12,0-.08,0-.1,0h0c.07-.47.13-.92.19-1.35s0-1,.06-1.5,0-.79,0-.51c.09-1.26-.14-2.49,0-1.62a20.19,20.19,0,0,0-2.27-8.2,61.42,61.42,0,0,0-4-6.57A58.5,58.5,0,0,1,35,61.17c-.33-.91-.7-1.77-1-2.65s-.5-1.72-.74-2.54-.37-1.65-.56-2.43q-.12-.6-.24-1.17l-.15-.73-.12-.57-.06-.28s-.16.06-.23.08l-2.41,1.21c-.64.32-1.26.61-1.83,1-1.14.7-2.25,1.26-3.18,1.93s-1.84,1.21-2.6,1.82l-2.08,1.62C18.67,59.51,17.68,60.31,17,61l-1.49,1.52c-.31.33-.44.49-.44.49l-1,1.16A21.38,21.38,0,0,0,12.66,66c-.61.77-1.27,1.81-2.07,3.08-.38.65-.75,1.38-1.17,2.17S8.62,73,8.27,74c-.17.5-.35,1-.53,1.56l-.41,1.74c-.12.6-.17,1.25-.26,1.9a18.17,18.17,0,0,0,0,2.08A13.09,13.09,0,0,0,8.44,85.6,32.81,32.81,0,0,0,11,90l.39.55,0,0h0l-2.59-.38L7,89.9l-1.51-.23-.77-.11s-.09,0-.06,0l.07.06.15.14.3.26,1.21,1.06.59.54.29.27L8.4,93l1.28,1.28L11,95.63l1,.93.6.54.09.07,0,0,0,0h0c1-1.55.28-.43.5-.78h0l-.21-.09-.44-.19a8.86,8.86,0,0,0-3-.55c-.76,0-1.68.07-2.81.09H6.34l-.54,0c-.65,0-1.42-.13-2.15-.22l-.57-.07c-.05,0-.11,0-.13,0l.1.09.22.17.89.73L5.7,97.65c1.16,1,2.55,2.08,6.76,6,5.76,5.42,14.38,14.43,24,25.47A20.32,20.32,0,0,0,46,135.55a23,23,0,0,0,6,.93,21.23,21.23,0,0,0,6.11-.82A19.63,19.63,0,0,0,63.72,133a10.8,10.8,0,0,0,1.28-.94,11.93,11.93,0,0,0,1.2-1c.75-.75,1.5-1.52,2.16-2.31,2.73-3.12,5.51-6.25,8.31-9.34,5.62-6.17,11.33-12.22,17.15-17.66.89-.81,1.75-1.58,2.53-2.3l1-.85A14.33,14.33,0,0,0,99.66,96a11.2,11.2,0,0,0-2.93,1.84l-1,.86-2.54,2.32c-5.86,5.47-11.58,11.53-17.21,17.71-2.81,3.09-5.59,6.23-8.33,9.36-.67.81-1.38,1.53-2.09,2.24a12,12,0,0,1-1.15,1,8.76,8.76,0,0,1-1.21.89,18.66,18.66,0,0,1-5.41,2.52,21.07,21.07,0,0,1-5.84.78,22.16,22.16,0,0,1-5.7-.89,19.31,19.31,0,0,1-9.09-6.11C27.53,117.49,18.89,108.46,13.1,103c-4.23-4-5.63-5.08-6.8-6.08h0l-.38-.3h.86c1.19,0,2.08-.11,2.79-.09a7.81,7.81,0,0,1,2.72.49l.4.17.19.08h0c.22-.35-.5.77.5-.77h0l0,0,0,0-.07-.07-.6-.53-1-.91-1.34-1.33L9.06,92.35,7.89,91.21l-.3-.28s0,0,0,0h0l1.12.16,3.1.47,1.38.2.34,0c.1,0,0,0,0-.09l-.11-.14L12.94,91l-.42-.56L12.15,90l-.38-.54A31,31,0,0,1,9.28,85.2a12.36,12.36,0,0,1-1.26-4,17.67,17.67,0,0,1,0-1.92c.09-.62.13-1.22.24-1.8s.27-1.12.39-1.65l.51-1.5c.34-1,.76-1.81,1.11-2.6s.77-1.48,1.14-2.11c.78-1.24,1.42-2.24,2-3a19.61,19.61,0,0,1,1.4-1.78l1-1.14a4.37,4.37,0,0,1,.42-.48l1.46-1.49c.66-.7,1.63-1.49,2.78-2.54l2-1.6c.74-.6,1.63-1.13,2.55-1.78s2-1.21,3.12-1.9c.56-.35,1.18-.64,1.81-1l1.54-.77h0l0,.13.06.29.24,1.19c.19.8.29,1.64.57,2.47s.49,1.71.75,2.6.65,1.77,1,2.7A59.28,59.28,0,0,0,40.46,73a62,62,0,0,1,3.93,6.47,19.49,19.49,0,0,1,2.17,7.85c-.11-.83.11.34,0,1.55,0-.27,0,.11,0,.5s0,.94-.06,1.44-.16,1.18-.25,1.8c0,.27-.07.54-.11.82l0,.21v.1h0l.11,0,.28.06.06,0,.13,0,.15,0L47,94h0s0,0,0-.06a1.05,1.05,0,0,1,.41-.61c.12-.09.28-.25.31-.23a1.81,1.81,0,0,1,.35-.13,10,10,0,0,1,3.68.18c.67.12,1.37.25,2.11.33a4.92,4.92,0,0,0,1.21,0,1.34,1.34,0,0,0,.73-.34,1,1,0,0,0,.33-.84c-.06-.75-.12-1.51-.18-2.29l0-.56,0-.57c0-.38,0-.77.08-1.15A17.39,17.39,0,0,1,57.24,83c1.22-3.11,3.34-6,5.34-9.21a40.24,40.24,0,0,0,5.07-10.62,21.44,21.44,0,0,0,.7-3c.09-.51.21-1,.27-1.53l.13-1.56.13-1.57c0-.52,0-1.05,0-1.57l0-1.59v-.19h0l.6.29.71.35,1.4.72c.93.5,1.86,1,2.77,1.56q2.75,1.62,5.35,3.52a59,59,0,0,1,9.56,8.65,40,40,0,0,1,3.86,5.15,21.59,21.59,0,0,1,2.62,5.75,9.92,9.92,0,0,1,.36,3,9.15,9.15,0,0,1-.77,2.93,29.32,29.32,0,0,1-3,5.41l-.23.31-.36.5c-.31.42-.65.86-1,1.29l-.13.15.2,0,.38-.06.78-.12,1.23-.18,3-.46.36,0h0l-.26.23-.54.53-1.07,1.06-2.09,2.07-1,1-.54.48-.13.12-.07.06,0,0c.21.35-.53-.76.47.8l.31-.13a7.46,7.46,0,0,1,2.61-.6l.67,0h.05c.58,0,1.07,0,1.35,0A7.58,7.58,0,0,0,99.66,96Z"/><ellipse class="cls-27" cx="30.89" cy="84.73" rx="10.84" ry="10.29" transform="translate(-58.84 75.77) rotate(-64.27)"/><ellipse class="cls-28" cx="30.87" cy="85.47" rx="7.61" ry="7.56" transform="translate(-44.67 34.95) rotate(-36.36)"/><ellipse class="cls-15" cx="26.8" cy="81.29" rx="3.76" ry="3.81"/><ellipse class="cls-27" cx="71.64" cy="84.73" rx="10.84" ry="10.29" transform="translate(-35.79 112.47) rotate(-64.27)"/><ellipse class="cls-28" cx="71.62" cy="85.47" rx="7.61" ry="7.56" transform="translate(-36.73 59.11) rotate(-36.36)"/><ellipse class="cls-15" cx="67.55" cy="81.29" rx="3.76" ry="3.81"/><path class="cls-29" d="M34.2,102.8c-.9-.58-2-1.44.36-2.64S45.24,91,45.24,91c3.6-3.41,7.57-2.69,10.24-.19,0,0,8.79,7.71,11.32,9.35s1.3,2.13.36,2.64c-6.25,3.37-11.45,10.45-14.23,14.82a2.64,2.64,0,0,1-4.43,0C45.82,113.58,40.85,107.07,34.2,102.8Z"/><path class="cls-30" d="M34.2,102.8c-1-.32-2-1.44.36-2.64S45.24,91,45.24,91c3.6-3.41,7.57-2.69,10.24-.19,0,0,8.79,7.71,11.32,9.35s1.37,2.32.36,2.64c-12,3.77-16.42,9.5-16.42,9.5S46.15,106.57,34.2,102.8Z"/></symbol><symbol id="Bird_Body_MASTER_1_2" data-name="Bird_Body_MASTER_1 2" viewBox="0 0 174.03 140.88"><path class="cls-1" d="M119.7,62c0,15.3-4.14,22.57-14.14,33.57,4.55.46,10.81-2.63,12.81-6.63a43.06,43.06,0,0,0-.49,6.66,44.49,44.49,0,0,0,.52,6.8A54.74,54.74,0,0,0,123,116.5a35.91,35.91,0,0,0,3.95,6.26,33,33,0,0,0,5.24,5.34c-.73-2.6-1.34-5.15-1.89-7.66s-1-5-1.44-7.5c-.88-5-.44-10.5.54-8.09s1.89,4.92,2.83,7.42c4,9.67,8,20.67,18,26.67-4-9-6-18-8.74-26.74-.63-2.08-1.28-4.14-2-6.19s-.22-1.64.94.49,2.41,4.19,3.78,6.19c3,4.25,5,9.25,10,11.25-1-4-2-9-3.75-13.38q-1.12-3.28-2.44-6.45t-2.81-6.17c4,2,6,6,11,7-1-6-3-12-7-16a11.53,11.53,0,0,0,8.86,4.88c-1-6-4.86-13.88-9.86-16.88,3,0,5,3,8,4,2-6-3-13-8-17,2,0,5,0,4-1-1.5-2.75-2.94-5.38-4.32-8s-2.7-5.17-4-7.82c-6.71-14.2-7-34.5-23-45.2-5.32-3.56-20.17,1.22-21.2,9.28C96.29,39.05,109.1,24,116.57,46.45,118.71,52.88,119.7,58.92,119.7,62Z"/><path class="cls-2" d="M119.7,62a25.39,25.39,0,0,0-.59,2.59,20.37,20.37,0,0,0-.36,2.86c0,.27-.08.67-.13,1.17,0,.25-.05.52-.08.81l0,.22v0l-.07.49c-.13.75-.21,1.51-.37,2.25a34.61,34.61,0,0,1-3,8.89,45.12,45.12,0,0,1-5.4,8.27c-1,1.32-2.16,2.62-3.3,3.92l-1.45,1.62-.76.93-.09.12c-.07.05,0,.06,0,.05l.31,0,.63,0c.43,0,.84,0,1.25,0h1.16a12.74,12.74,0,0,0,1.38-.2,16.71,16.71,0,0,0,5.2-2,14.76,14.76,0,0,0,2.31-1.62,6.17,6.17,0,0,0,.54-.48l.39-.38h0s0-.06,0,.07l-.09,1.35a45.69,45.69,0,0,0,0,5.61,33.43,33.43,0,0,0,.8,5.6q.61,2.76,1.48,5.47a45.74,45.74,0,0,0,4.75,10.39,35.35,35.35,0,0,0,3.45,4.62c.64.72,1.31,1.42,2,2.08l.85.78c.34.3.7.62,1,.89l1,.83.52.43.27.22-.07-.32c-.19-.86-.34-1.64-.58-2.6l-.53-2.13-.67-2.72c-.49-1.81-.81-3.66-1.17-5.49s-.77-3.69-1-5.48c-.11-.9-.18-1.81-.21-2.72,0-.46,0-.91,0-1.36l0-.67c0-.19,0-.22,0-.2h0l.09.26.83,2.16.82,2.15.41,1.08.21.53.26.63c2.76,6.75,5.48,13.56,9.9,19.15a32,32,0,0,0,3.6,3.85l1,.87,1,.8.64.49,1,.68,2.07,1.36.52.33.25.17c.07.06,0,0,0-.07l-.06-.14-.46-1.12-.95-2.25-.66-1.61-.44-1.13c-.59-1.51-1.12-3-1.62-4.54-2-6-3.51-11.91-5.19-17.34-.31-1-.6-1.87-.88-2.75h0c.25.41.5.82.75,1.21.64,1,1.32,2,1.94,2.91s1.18,1.86,1.76,2.77a29,29,0,0,0,3.65,4.9,12.58,12.58,0,0,0,2.16,1.81,4.15,4.15,0,0,0,.57.35,7.69,7.69,0,0,0,1.06.55l1.06.48.52.24.26.12.05,0v-.07l0-.14L154,119.56c-.58-2.39-1.06-4.13-1.36-5.13-.45-1.52-.94-3-1.46-4.26s-1-2.55-1.4-3.71-.81-2.25-1.27-3.24l-1.26-2.76-.25-.55h0l.07,0c.23.19.46.36.67.54l1.14,1a27.23,27.23,0,0,0,2.76,2.23,4.28,4.28,0,0,0,.64.41,5.35,5.35,0,0,0,.9.51,10.36,10.36,0,0,0,1.62.68,9,9,0,0,0,1,.29l1.25.3c.18.1.06-.13.06-.21l-.06-.36-.12-.73c0-.26-.09-.52-.13-.78s-.06-.34-.1-.51a35.77,35.77,0,0,0-3.28-9.83,21.12,21.12,0,0,0-2-3.24,18.6,18.6,0,0,0-1.4-1.62l-.19-.2h0c-2.3,1.88-.63.53-1.14,1l0,0,0,.06.09.12a5.2,5.2,0,0,0,.35.47,9.48,9.48,0,0,0,.79.89,12.79,12.79,0,0,0,4.25,2.8,11.49,11.49,0,0,0,2.71.75l.57.06.67,0,.67,0H159s0-.09,0-.14l-.06-.31c-.15-.81-.31-1.82-.41-2.13-.14-.61-.34-1.37-.72-2.53a32,32,0,0,0-2-4.82,28.42,28.42,0,0,0-2.13-3.51,19.26,19.26,0,0,0-3.71-4,7.52,7.52,0,0,0-.64-.47l-.34-.23-.18-.11-.08-.06h0c-.77,2.77-.21.77-.38,1.39h.05a4.35,4.35,0,0,1,1.34.26,12.51,12.51,0,0,1,2.84,1.7c.51.36,1,.74,1.64,1.1.29.17.6.35.93.51s.59.25.89.36l.48.18c.14,0,.36.22.36,0s.18-.66.28-1,.13-.53.2-.79.1-.77.15-1.16a11.36,11.36,0,0,0-.11-2.39h0A17.56,17.56,0,0,0,154.1,69a27.62,27.62,0,0,0-3.28-3.81l-.49-.46-.09-.09h.14l.75-.05a6.6,6.6,0,0,0,.82-.13,3,3,0,0,0,.47-.14,1.77,1.77,0,0,0,.29-.16,1,1,0,0,0,.35-.36,1,1,0,0,0,.14-.67,1.21,1.21,0,0,0-.19-.47.63.63,0,0,0-.1-.12h0l-.07-.14-.36-.66L151,59c-1-1.86-2.08-3.76-3.09-5.78L144.75,47a64.92,64.92,0,0,1-2.7-6.84c-1.63-4.79-3-10-4.72-15.26A77.88,77.88,0,0,0,134.25,17l-1-1.95a18.89,18.89,0,0,0-1.05-1.92l-1.14-1.9-1.3-1.82-.65-.91-.74-.85L126.9,5.89l-1.66-1.55-.83-.78c-.29-.25-.61-.47-.91-.7l-1.84-1.38A7.16,7.16,0,0,0,119.43.42a13.72,13.72,0,0,0-4.76-.36,22.85,22.85,0,0,0-9,2.8,17.13,17.13,0,0,0-3.83,2.87,10.07,10.07,0,0,0-2.56,4.2,10.5,10.5,0,0,0-.26,1.24l-.13,1.15c-.09.76-.18,1.53-.24,2.31-.14,1.54-.22,3.09-.23,4.65a26.65,26.65,0,0,0,.36,4.7,11.66,11.66,0,0,0,1.72,4.54,11.89,11.89,0,0,0,3.54,3.26c1.3.85,2.58,1.6,3.74,2.48a19.63,19.63,0,0,1,5.52,6.56,40.64,40.64,0,0,1,3.18,8c.41,1.38.78,2.76,1.1,4.14l.14.58c.06.27.11.54.17.79.22,1,.37,1.85.45,2.32A47.32,47.32,0,0,0,119.7,62a13.1,13.1,0,0,0,.16-5.61c-.08-.48-.23-1.34-.45-2.38q-.09-.39-.18-.81l-.13-.6c-.33-1.41-.71-2.81-1.13-4.22a41.49,41.49,0,0,0-3.3-8.3,21,21,0,0,0-5.94-7c-2.45-1.91-5.4-3.05-6.94-5.38a10.29,10.29,0,0,1-1.48-4,24.19,24.19,0,0,1-.33-4.44c0-1.5.08-3,.22-4.52.06-.76.14-1.52.23-2.27l.13-1.14a8.07,8.07,0,0,1,.22-1c.79-2.68,3.14-4.76,5.67-6.18a21.44,21.44,0,0,1,8.35-2.61,12,12,0,0,1,4.21.3,5.61,5.61,0,0,1,1.81.87L122.57,4c.29.22.59.43.87.67l.79.74,1.59,1.48,1.42,1.63.7.82.63.87L129.82,12l1.1,1.83a18.78,18.78,0,0,1,1,1.87l.95,1.89a78,78,0,0,1,3,7.78c1.74,5.22,3.07,10.41,4.72,15.27a65.11,65.11,0,0,0,2.77,7l3.19,6.29c1,2,2.11,3.94,3.1,5.8l1.47,2.73.36.66.11.19.11.15s0,0,0,0l.14-.08a.18.18,0,0,1,.07,0,.31.31,0,0,1,.17-.05c.08,0,0,0,0,0s0,0,0,0-.12-.12-.28-.32c0,0,0,0,0,0a.9.9,0,0,1-.23.07l-.63.1-.67,0-1.3,0h-2.68c-.06,0-.15,0-.06,0L148.39,65c.18.15.36.3.52.45l.4.36c.16.15.32.29.46.44a26.6,26.6,0,0,1,3.11,3.61,16.19,16.19,0,0,1,3,6.77h0a9.69,9.69,0,0,1,.09,2.07l-.12,1-.06.23h0l0,0a7.82,7.82,0,0,1-.81-.43c-.53-.32-1-.68-1.54-1a14.27,14.27,0,0,0-3.2-1.89,5.76,5.76,0,0,0-1.82-.35h-.08c-.17.62.38-1.39-.39,1.39h0l.08,0,.15.1.3.2a6,6,0,0,1,.57.42A17.7,17.7,0,0,1,152.41,82a27.14,27.14,0,0,1,2,3.33,31.35,31.35,0,0,1,1.94,4.6,24,24,0,0,1,.68,2.4h0a4.16,4.16,0,0,1,.14.61v0h-.1a10.21,10.21,0,0,1-2.35-.65A11.39,11.39,0,0,1,151,89.88a9.62,9.62,0,0,1-.68-.77c-.12-.13-.2-.27-.3-.4l-.08-.1,0,0,0,0c-.51.42,1.14-1-1.16.94h0l.18.18a19.15,19.15,0,0,1,1.28,1.49,19.68,19.68,0,0,1,1.92,3,35,35,0,0,1,3.14,9.43l.06.32h0l-.07,0a8,8,0,0,1-1.41-.59,5.85,5.85,0,0,1-.8-.45,5.31,5.31,0,0,1-.57-.37,26.14,26.14,0,0,1-2.63-2.13l-1.17-1c-.22-.19-.46-.37-.71-.57l-.31-.23-.38-.26-.8-.53c-.52-.31-1-.56-1.6-.89l-.91-.49-.11-.06,0,.11.09.22.17.46.36.94c.1.3.33.75.49,1.12l.87,1.91c.39.85.8,1.75,1.24,2.73s.81,2.06,1.26,3.2.9,2.38,1.39,3.68,1,2.67,1.43,4.17c.29,1,.76,2.68,1.33,5.06.15.59.3,1.23.46,1.9l.12.52,0,.22h0s0,0,0,0a3.66,3.66,0,0,1-.49-.31,11.32,11.32,0,0,1-1.92-1.6,27.79,27.79,0,0,1-3.46-4.66c-.56-.9-1.14-1.84-1.77-2.79s-1.3-1.88-1.93-2.89l-.47-.75-.68-1.13-1.89-3.31c-.63-1-.91-1.14-1.12-1.23a.43.43,0,0,0-.25,0,1.26,1.26,0,0,0-.16,0,.84.84,0,0,1-.24.08.2.2,0,0,0-.19.11c.11.43.22.85.34,1.27.23.86.46,1.72.7,2.58s.47,1.75.71,2.64.49,1.87.68,2.45c1.68,5.39,3.17,11.28,5.2,17.38.52,1.52,1.05,3.06,1.65,4.6l.45,1.15.23.58c.06.13,0,.12,0,.11h0s0,0,0,0h0l-.36-.27-1-.76-.92-.83a30,30,0,0,1-3.43-3.68c-4.24-5.35-6.94-12-9.69-18.76q-1.14-2.82-2.3-5.65-.58-1.42-1.17-2.88a3.73,3.73,0,0,0-.16-.35.91.91,0,0,0-.27-.15.69.69,0,0,0-.34-.06.83.83,0,0,0-.39.09c-.38.15-.67.76-.79,1.69,0,.47-.09.89-.1,1.17l0,.73c0,.48,0,1,0,1.43,0,1,.12,1.91.23,2.85.24,1.93.67,3.72,1,5.59s.68,3.71,1.17,5.54l.68,2.76.16.63h0v0h0l-.19-.18c-.67-.63-1.31-1.3-1.92-2a33.94,33.94,0,0,1-3.31-4.42,44.31,44.31,0,0,1-4.59-10q-.84-2.64-1.44-5.33a32.71,32.71,0,0,1-.77-5.39,46.69,46.69,0,0,1,0-5.42l.1-1.37c.06-.78.18-1.78.33-2.74l.44-3,.09-.64,0-.3c0-.09,0,0-.06.06l-.12.2-1.06,1.85-.58,1-.28.49-.23.32-.93,1.27-.11.15-.12.12-.11.11-.23.22a4.69,4.69,0,0,1-.47.42,14.54,14.54,0,0,1-2.09,1.47,15.26,15.26,0,0,1-4.73,1.78,10.42,10.42,0,0,1-1.23.18h-.12s-.14.15.28-.33c1.16-1.3,2.29-2.63,3.36-4A47.14,47.14,0,0,0,116.44,82a35.88,35.88,0,0,0,3.1-9.27c.17-.78.26-1.56.39-2.34l.07-.5v-.06l0-.22c0-.3.06-.58.08-.83,0-.51.1-.93.12-1.21a17.6,17.6,0,0,0,0-2.94A26.71,26.71,0,0,0,119.7,62Z"/><path class="cls-3" d="M39.31,62c0,15.3,4.13,22.57,14.13,33.57C48.9,96.05,42.63,93,40.63,89a43.06,43.06,0,0,1,.5,6.66,44.49,44.49,0,0,1-.52,6.8A55.52,55.52,0,0,1,36,116.5,36.51,36.51,0,0,1,32,122.76a33.11,33.11,0,0,1-5.25,5.34c.74-2.6,1.35-5.15,1.89-7.66s1-5,1.45-7.5c.88-5,.43-10.5-.54-8.09s-1.89,4.92-2.83,7.42c-4,9.67-8,20.67-18,26.67,4-9,6-18,8.74-26.74.63-2.08,1.28-4.14,2-6.19s.22-1.64-.93.49-2.41,4.19-3.78,6.19c-3,4.25-5,9.25-10,11.25,1-4,2-9,3.75-13.38q1.13-3.28,2.43-6.45t2.82-6.17c-4,2-6,6-11,7,1-6,3-12,7-16A11.53,11.53,0,0,1,.88,93.82c1-6,4.86-13.88,9.86-16.88-3,0-5,3-8,4-2-6,3-13,8-17-2,0-5,0-4-1,1.5-2.75,2.93-5.38,4.31-8s2.71-5.17,4-7.82c6.71-14.2,7-34.5,22.95-45.2,5.32-3.56,20.18,1.22,21.2,9.28C62.72,39.05,49.91,24,42.44,46.45A56.45,56.45,0,0,0,39.31,62Z"/><path class="cls-2" d="M39.31,62a26.71,26.71,0,0,0-.5,2.63,17.49,17.49,0,0,0,0,2.94c0,.28.07.7.12,1.21,0,.25.06.53.09.83l0,.22v.06l.07.5c.13.78.21,1.56.38,2.34A36.29,36.29,0,0,0,42.57,82a46.1,46.1,0,0,0,5.57,8.53c1.07,1.35,2.2,2.68,3.35,4l.29.33h-.13a10,10,0,0,1-1.22-.18,15.17,15.17,0,0,1-4.73-1.78,14,14,0,0,1-2.09-1.47,4.81,4.81,0,0,1-.48-.42l-.22-.22-.12-.11-.11-.12a.76.76,0,0,1-.11-.14l-.93-1.28-.23-.32-.29-.49-.58-1-1-1.85-.12-.2c0-.09-.09-.15-.06-.06l0,.3.1.64.44,3c.14,1,.26,2,.33,2.74l.09,1.37a42.63,42.63,0,0,1,0,5.42,32.69,32.69,0,0,1-.76,5.39c-.41,1.79-.88,3.57-1.45,5.33a44.27,44.27,0,0,1-4.58,10,33.94,33.94,0,0,1-3.31,4.42c-.61.69-1.25,1.36-1.92,2l-.19.18h0v0h0l.15-.63.68-2.76c.5-1.83.82-3.69,1.18-5.54s.77-3.66,1-5.59c.11-.94.19-1.89.22-2.85,0-.48,0-.95,0-1.43l0-.73c0-.28,0-.7-.11-1.17-.12-.93-.41-1.54-.79-1.69a.79.79,0,0,0-.38-.09.69.69,0,0,0-.34.06.91.91,0,0,0-.27.15,2.21,2.21,0,0,0-.16.35q-.59,1.45-1.17,2.88-1.15,2.83-2.3,5.65C23,119.35,20.33,126,16.1,131.37a30.8,30.8,0,0,1-3.43,3.68l-.93.83-1,.76-.37.27h0s0,0,0-.11l.24-.58.45-1.15c.59-1.54,1.13-3.08,1.64-4.6,2-6.1,3.53-12,5.2-17.38.2-.58.46-1.59.69-2.45s.48-1.77.71-2.64.47-1.72.7-2.58c.11-.42.23-.84.34-1.27a.2.2,0,0,0-.19-.11A.75.75,0,0,1,20,104a1,1,0,0,0-.17,0,.42.42,0,0,0-.25,0c-.2.09-.49.19-1.11,1.23l-1.9,3.31-.67,1.13-.47.75c-.64,1-1.28,1.93-1.93,2.89s-1.21,1.89-1.78,2.79a27.77,27.77,0,0,1-3.45,4.66,11.73,11.73,0,0,1-1.92,1.6,3.76,3.76,0,0,1-.5.31s0,0,0,0h0l0-.22c.05-.18.09-.35.13-.52l.45-1.9c.57-2.38,1-4.09,1.34-5.06.44-1.5.9-2.86,1.43-4.17L10.62,107c.46-1.14.81-2.24,1.26-3.2s.86-1.88,1.24-2.73c.31-.66.59-1.29.87-1.91.17-.37.4-.82.5-1.12l.36-.94.17-.46.09-.22,0-.11-.12.06-.9.49c-.59.33-1.08.58-1.61.89l-.79.53-.38.26a3.54,3.54,0,0,0-.31.23c-.25.2-.49.38-.71.57l-1.18,1a25.3,25.3,0,0,1-2.62,2.13,5.31,5.31,0,0,1-.57.37,5.85,5.85,0,0,1-.8.45,8,8,0,0,1-1.41.59l-.07,0h0l.06-.32a34.27,34.27,0,0,1,3.14-9.43,19.59,19.59,0,0,1,1.91-3,19.32,19.32,0,0,1,1.29-1.49l.17-.18h0C8,87.58,9.62,89,9.11,88.53l0,0,0,0-.07.1c-.1.13-.19.27-.3.4a9.78,9.78,0,0,1-.69.77,11.35,11.35,0,0,1-3.74,2.47A10.15,10.15,0,0,1,1.89,93h-.1v0c0-.09,0,0,.14-.61s.32-1.29.69-2.4a30.27,30.27,0,0,1,1.94-4.6A26,26,0,0,1,6.6,82,17.43,17.43,0,0,1,10,78.36a4.94,4.94,0,0,1,.57-.42l.3-.2.15-.1.07,0h0c-.77-2.78-.22-.77-.4-1.39h-.07a5.76,5.76,0,0,0-1.82.35,14.27,14.27,0,0,0-3.2,1.89c-.51.36-1,.72-1.54,1a7.82,7.82,0,0,1-.81.43l0,0h0l-.06-.23c0-.33-.09-.65-.13-1a11.19,11.19,0,0,1,.09-2.07h0a16.23,16.23,0,0,1,3-6.77,26.5,26.5,0,0,1,3.1-3.61l.47-.44.4-.36c.15-.15.33-.3.51-.45l2.13-1.79c.08,0,0,0-.06,0H10l-1.29,0-.68,0c-.22,0-.44-.06-.62-.1a.79.79,0,0,1-.23-.07s0,0,0,0c-.17.2-.18.26-.28.32s0,0,0,0,0,0,0,0a.34.34,0,0,1,.17.05l.07,0,.14.08s0,0,0,0l.12-.15.1-.19.36-.66,1.48-2.73c1-1.86,2.08-3.76,3.09-5.8l3.2-6.29a65.11,65.11,0,0,0,2.77-7c1.65-4.86,3-10,4.72-15.27a78,78,0,0,1,3-7.78c.31-.63.63-1.26.95-1.89a18.78,18.78,0,0,1,1-1.87c.36-.61.73-1.22,1.1-1.83s.83-1.16,1.24-1.75l.63-.87.71-.82,1.42-1.63,1.58-1.48.8-.74c.28-.24.58-.45.87-.67l1.75-1.31A5.56,5.56,0,0,1,40,1.86a12.09,12.09,0,0,1,4.22-.3,21.34,21.34,0,0,1,8.34,2.61c2.53,1.42,4.88,3.5,5.68,6.18a6.57,6.57,0,0,1,.21,1l.13,1.14c.09.75.18,1.51.23,2.27.14,1.51.23,3,.23,4.52a25.1,25.1,0,0,1-.33,4.44,10.3,10.3,0,0,1-1.49,4c-1.53,2.33-4.48,3.47-6.94,5.38a21.21,21.21,0,0,0-5.93,7A41.53,41.53,0,0,0,41,48.4c-.41,1.41-.79,2.81-1.12,4.22l-.14.6c-.06.28-.12.55-.17.81-.22,1-.38,1.9-.46,2.38A12.93,12.93,0,0,0,39.31,62a47.39,47.39,0,0,0,1.3-5.36c.09-.47.24-1.31.46-2.32,0-.25.11-.52.17-.79l.14-.58c.32-1.38.69-2.76,1.1-4.14a39.44,39.44,0,0,1,3.18-8,19.63,19.63,0,0,1,5.52-6.56c1.16-.88,2.43-1.63,3.73-2.48a11.92,11.92,0,0,0,3.55-3.26A11.82,11.82,0,0,0,60.18,24a25.72,25.72,0,0,0,.35-4.7c0-1.56-.09-3.11-.23-4.65-.06-.78-.14-1.55-.23-2.31l-.13-1.15a8.85,8.85,0,0,0-.27-1.24,10,10,0,0,0-2.56-4.2,16.85,16.85,0,0,0-3.82-2.87A22.9,22.9,0,0,0,44.34.06a13.72,13.72,0,0,0-4.76.36,7.21,7.21,0,0,0-2.24,1.06L35.51,2.86c-.3.23-.62.45-.91.7l-.83.78L32.11,5.89,30.62,7.6l-.74.85-.65.91-1.3,1.82-1.14,1.9A19,19,0,0,0,25.73,15c-.33.66-.65,1.31-1,1.95a80.28,80.28,0,0,0-3.08,8C19.91,30.18,18.58,35.37,17,40.16A62.84,62.84,0,0,1,14.25,47c-1.09,2.15-2.14,4.23-3.17,6.25S9,57.17,8,59L6.53,61.75l-.36.66-.08.14h0a.63.63,0,0,0-.1.12,1.63,1.63,0,0,0-.19.47,1.09,1.09,0,0,0,.14.67,1.19,1.19,0,0,0,.35.36,2.31,2.31,0,0,0,.3.16,3,3,0,0,0,.47.14,6.46,6.46,0,0,0,.81.13l.76.05h.13l-.08.09c-.17.15-.34.3-.49.46A27,27,0,0,0,4.91,69a17.72,17.72,0,0,0-3.24,7.42h0a12.05,12.05,0,0,0-.1,2.39c.05.39.09.78.15,1.16s.13.53.2.79.19.66.28,1,.21.08.36,0L3,81.62c.3-.11.66-.25.89-.36s.64-.34.94-.51c.6-.36,1.13-.74,1.64-1.1A12.3,12.3,0,0,1,9.34,78a4.3,4.3,0,0,1,1.34-.26h.05c-.17-.62.39,1.38-.38-1.39h0l-.09.06-.17.11-.34.23a6.21,6.21,0,0,0-.64.47,19,19,0,0,0-3.71,4,28.61,28.61,0,0,0-2.14,3.51,32.8,32.8,0,0,0-2,4.82A24.93,24.93,0,0,0,.49,92c-.1.31-.27,1.32-.41,2.13L0,94.46c0,.05,0,.12,0,.14H.18l.68,0,.66,0,.58-.06a11.63,11.63,0,0,0,2.71-.75,12.75,12.75,0,0,0,4.24-2.8,9.59,9.59,0,0,0,.8-.89c.13-.15.23-.31.35-.47l.09-.12,0-.06,0,0c-.51-.42,1.16.93-1.14-1h0l-.2.2a20.31,20.31,0,0,0-1.39,1.62,22,22,0,0,0-2.06,3.24,36.47,36.47,0,0,0-3.28,9.83l-.09.51c-.05.26-.09.52-.13.78s-.09.49-.13.73l-.06.36c0,.08-.11.31.06.21l1.26-.3a8.71,8.71,0,0,0,1-.29,10.56,10.56,0,0,0,1.63-.68,5.35,5.35,0,0,0,.9-.51,4.06,4.06,0,0,0,.63-.41,27,27,0,0,0,2.77-2.23l1.14-1c.21-.18.44-.35.67-.54l.07,0h0c-.08.18-.17.36-.25.55l-1.26,2.76c-.47,1-.82,2.09-1.27,3.24s-.91,2.4-1.4,3.71-1,2.74-1.47,4.26c-.3,1-.78,2.74-1.35,5.13Q4.44,122,3.69,125l0,.14,0,.07.06,0,.26-.12.52-.24,1.06-.48a7.69,7.69,0,0,0,1.06-.55,4.85,4.85,0,0,0,.57-.35,13,13,0,0,0,2.16-1.81,29,29,0,0,0,3.65-4.9c.57-.91,1.14-1.84,1.76-2.77s1.3-1.89,1.94-2.91c.25-.39.5-.8.75-1.21h0l-.87,2.75C14.86,118.09,13.37,124,11.36,130c-.51,1.51-1,3-1.62,4.54l-.45,1.13-.66,1.61c-.31.75-.62,1.5-.94,2.25l-.47,1.12-.06.14s-.07.13,0,.07l.26-.17.52-.33L10,139l1-.68.64-.49,1-.8,1-.87a32.87,32.87,0,0,0,3.6-3.85c4.41-5.59,7.14-12.4,9.9-19.15l.26-.63.21-.53.41-1.08.82-2.15.82-2.16.1-.26h0s0,0,0,.2l0,.67c0,.45,0,.9,0,1.36,0,.91-.11,1.82-.22,2.72-.21,1.79-.66,3.65-1,5.48s-.67,3.68-1.16,5.49L26.77,125l-.53,2.13c-.25,1-.39,1.74-.58,2.6l-.07.32.26-.22.53-.43,1-.83c.34-.27.69-.59,1-.89l.85-.78c.7-.66,1.37-1.36,2-2.08a34.55,34.55,0,0,0,3.46-4.62A46.17,46.17,0,0,0,39.5,109.8q.86-2.72,1.48-5.47a35.63,35.63,0,0,0,.8-5.6,45.69,45.69,0,0,0,0-5.61l-.1-1.35c0-.13,0,0,0-.07s0,0,0,0h0l.39.38c.17.17.35.33.53.48a15.76,15.76,0,0,0,2.31,1.62,16.9,16.9,0,0,0,5.2,2,12.92,12.92,0,0,0,1.39.2h1.16c.4,0,.82,0,1.24,0l.63,0,.32,0c.07,0,.1,0,0-.05l-.09-.12-.77-.93-1.44-1.62c-1.14-1.3-2.25-2.6-3.31-3.92a45.06,45.06,0,0,1-5.39-8.27,34.24,34.24,0,0,1-3-8.89c-.16-.74-.24-1.5-.37-2.25l-.07-.49v0l0-.22q0-.44-.09-.81c-.05-.5-.09-.9-.12-1.17a23.86,23.86,0,0,0-.36-2.86C39.76,63.77,39.56,63,39.31,62Z"/><path class="cls-4" d="M12.24,71.35"/><path class="cls-5" d="M174,39.49"/></symbol><symbol id="Bird_Body_MASTER_1_4" data-name="Bird_Body_MASTER_1 4" viewBox="0 0 90.52 160.76"><path class="cls-6" d="M40.78,120.78l-.21.51c-1.42-5.47-2.25-21.71-2.28-26.38l-6,1.14a244.38,244.38,0,0,0,5.26,25.38s0,.93,0,.94c-3.84,4.57-12.41,17.54-13.68,19-1.86,2.13-3.57,6.1-4.45,8.89a6,6,0,0,0-.31,3.19c.26,1,1.2,2,2.16,1.72l.41-.81a17.39,17.39,0,0,0-.2,2.4,3.79,3.79,0,0,0,1,3,2.21,2.21,0,0,0,2.55,0,7.35,7.35,0,0,0,1.91-2.08l.33-.82c.61,1.82,2.28,3.28,3.9,2.66,2.15-.83,2.3-4.08,2.22-6.61a57.35,57.35,0,0,1,3.1-20.67c.59-1.71,1.42-3.55,3-4.14.63-.23,1.33-.24,2-.51C45.44,125.83,44.86,121.75,40.78,120.78Z"/><path class="cls-6" d="M71.46,150.39c-.88-2.8-2.59-6.77-4.44-8.89-1.28-1.47-9.85-14.43-13.69-19,0,0,0-1,0-1a241.06,241.06,0,0,0,5.26-25.37l-6-1.15c0,4.68-.86,20.92-2.28,26.38l-.21-.51c-4.08,1-4.66,5-.66,6.76.63.27,1.33.27,2,.51,1.56.58,2.39,2.43,3,4.14A57.32,57.32,0,0,1,57.52,153c-.08,2.53.07,5.78,2.22,6.6,1.63.63,3.29-.83,3.9-2.65l.33.82a7.63,7.63,0,0,0,1.91,2.08,2.21,2.21,0,0,0,2.55,0,3.82,3.82,0,0,0,1-3,17.37,17.37,0,0,0-.19-2.39l.4.81c1,.22,1.9-.68,2.16-1.73A6,6,0,0,0,71.46,150.39Z"/><path d="M40.49,121.27c1.28.32,2.71,1.09,3,2.51a3,3,0,0,1-1.86,3c-.88.48-1.88.46-2.76.88a4.61,4.61,0,0,0-1.72,1.59,18.55,18.55,0,0,0-2.09,5.3,57.67,57.67,0,0,0-2.24,13.11c-.12,2.08,0,4.15,0,6.23,0,1.46-.05,3.36-1.1,4.5-1.55,1.69-3.56-.21-4.07-1.84-.74-2.38.58-4.92,1.64-7,.3-.58-.58-1.09-.88-.51-1.06,2.06-2.18,4.34-1.95,6.73a4.83,4.83,0,0,0,3.1,4.19,3.16,3.16,0,0,0,3.66-2.12,13.08,13.08,0,0,0,.6-5.39,57.4,57.4,0,0,1,1.58-15.06,31.4,31.4,0,0,1,2.19-6.78,4,4,0,0,1,2-2.12,15.08,15.08,0,0,1,1.64-.4,5.74,5.74,0,0,0,1.37-.65,3.9,3.9,0,0,0,2-4c-.36-1.76-2-2.81-3.68-3.23a.51.51,0,0,0-.27,1Z"/><path d="M26.58,157.49c-.71,1-2.07,2.91-3.53,2.09-1.23-.68-1-2.81-.9-4a16.1,16.1,0,0,1,3.2-8.39c.39-.52-.49-1-.88-.51a16.81,16.81,0,0,0-3.38,10.54c.05,1.49.57,3.26,2.28,3.49,1.88.25,3.13-1.38,4.09-2.73.38-.54-.5-1-.88-.52Z"/><path d="M21,154.59c-.73.12-1.26-.71-1.42-1.3a5,5,0,0,1,.24-2.65,13.59,13.59,0,0,1,.57-1.5,47,47,0,0,1,3-5.54c1.63-2.69,3.49-5.22,5.31-7.79q4.35-6.13,8.71-12.28a5.17,5.17,0,0,0,.91-1.35,2.82,2.82,0,0,0-.24-1.19c-.24-.87-.46-1.76-.68-2.64-.54-2.22-1-4.45-1.51-6.68-1.08-5-2.13-10.15-2.81-15.28l-.44.59,5.67-1.49-.77-.58c0,3.25.21,6.52.41,9.77.25,4.1.56,8.21,1.1,12.29a34.76,34.76,0,0,0,.89,4.85.61.61,0,0,0,1.17-.33,52.27,52.27,0,0,1-1.42-9.81c-.37-4-.62-8.06-.8-12.1-.07-1.55-.13-3.11-.14-4.67a.61.61,0,0,0-.76-.59l-5.67,1.49a.62.62,0,0,0-.45.58A214.26,214.26,0,0,0,36,117.7c.36,1.5.72,3,1.15,4.48l.07-.46L26.29,137.11a68,68,0,0,0-6.9,11.29,12.13,12.13,0,0,0-1.06,3.37c-.24,1.84.71,4.36,3,4,.76-.12.44-1.29-.32-1.16Z"/><path d="M50.15,120.41a4.9,4.9,0,0,0-3.53,2.72,3.54,3.54,0,0,0,.88,3.73,5.68,5.68,0,0,0,2.2,1.37c.57.19,1.19.21,1.75.43a3,3,0,0,1,1.12.82A8.6,8.6,0,0,1,54,132.19c.41,1.14.76,2.3,1.09,3.47a57.38,57.38,0,0,1,2.11,15,32,32,0,0,0,.18,6.11c.31,1.53,1.16,3.17,2.85,3.46,2.06.35,3.72-1.68,4.17-3.48.64-2.61-.66-5.25-1.82-7.5-.3-.59-1.18-.07-.88.51,1,1.91,2.13,4.13,1.79,6.35-.22,1.46-1.62,3.66-3.38,3-1.47-.52-1.79-2.43-1.89-3.77-.16-1.92,0-3.85,0-5.77a58.84,58.84,0,0,0-1.86-13.19,33.81,33.81,0,0,0-1.9-5.79,6.6,6.6,0,0,0-1.39-2.08,4.42,4.42,0,0,0-2.31-1.08c-1.51-.3-3.34-1.39-3.32-3.14s1.61-2.56,3-2.91a.51.51,0,0,0-.27-1Z"/><path d="M63.73,158c1,1.35,2.21,3,4.09,2.73,1.71-.23,2.23-2,2.28-3.49a16.81,16.81,0,0,0-3.38-10.54c-.39-.52-1.27,0-.88.51a16.13,16.13,0,0,1,3.2,8.39c.09,1.14.32,3.19-.82,3.93-1.47.94-2.9-1-3.61-2-.38-.53-1.26,0-.88.52Z"/><path d="M69.6,155.88c1.89.32,3-1.54,3-3.21a9.22,9.22,0,0,0-.84-3.5,50.37,50.37,0,0,0-4-7.35c-2.35-3.74-5.07-7.27-7.62-10.87-2.15-3-4.31-6.07-6.45-9.11l.06.47c.87-3,1.53-6,2.19-9.1q1.24-5.68,2.26-11.41c.31-1.76.6-3.51.83-5.28a.6.6,0,0,0-.44-.58l-5.67-1.49a.61.61,0,0,0-.77.58c0,3.21-.2,6.42-.4,9.62-.25,4.07-.55,8.14-1.07,12.18a32.57,32.57,0,0,1-.89,4.79.61.61,0,0,0,1.17.32,54,54,0,0,0,1.45-10c.37-4.07.63-8.16.81-12.25.07-1.56.13-3.12.14-4.68l-.77.59,5.67,1.48-.44-.58c-.59,4.52-1.5,9-2.43,13.48-.49,2.36-1,4.72-1.55,7.07-.22.94-.45,1.88-.69,2.81-.1.4-.21.8-.31,1.19a2.85,2.85,0,0,0-.26,1.24,5.35,5.35,0,0,0,.91,1.35l1.1,1.54,2.29,3.24,4.41,6.21c1.66,2.35,3.43,4.66,5,7.09a61.83,61.83,0,0,1,4,7,17.44,17.44,0,0,1,.69,1.68,6.24,6.24,0,0,1,.41,2.59c-.09.7-.6,1.82-1.48,1.68s-1.09,1-.33,1.16Z"/><path class="cls-7" d="M15.63,11.08,12.1,44.65c-1,22.38,8.83,40.63,16.82,53.67.89,1.46,1.38,3.18,2.61,4.38a4.51,4.51,0,0,0,4.69,1.22c1.86-.77,2.59-3,3.1-4.92,1.44-5.4,3.7-16,4.92-21a.94.94,0,0,1,1.82,0c1.86,6.54,4,14.5,5.73,21,.52,1.94,1.25,4.15,3.11,4.92a4.51,4.51,0,0,0,4.69-1.22,13,13,0,0,0,2.61-4.38C68.82,83,79.68,67.62,78.8,47.74L73.94,10.63"/><path d="M14.94,11.08,13.45,25.27,11.52,43.6a55.64,55.64,0,0,0,.22,11.68,81.37,81.37,0,0,0,4.11,18.14A112.11,112.11,0,0,0,22.73,89c1.21,2.28,2.49,4.54,3.81,6.76.62,1,1.27,2.07,1.88,3.12a27.35,27.35,0,0,0,2.22,3.91c1.78,2.15,5.2,3,7.29.81,1.7-1.77,2.12-4.53,2.68-6.82,1.27-5.18,2.4-10.4,3.6-15.6l.36-1.59.18-.72a2.13,2.13,0,0,1,.19-.76c.33-.38.5.22.57.47l.66,2.35q1.36,4.92,2.7,9.86c.83,3.09,1.57,6.21,2.49,9.28.79,2.59,2.45,5.25,5.56,4.78s4.73-3.48,5.88-6.14,2.33-5.12,3.56-7.64c2.59-5.28,5.28-10.51,7.55-15.94A71.73,71.73,0,0,0,79,57.64a40.68,40.68,0,0,0,.38-10.85l-2.31-17.6-2.3-17.56-.13-1c-.11-.87-1.5-.88-1.38,0l1.69,12.95,2.64,20.14c.18,1.34.41,2.68.53,4a42,42,0,0,1-.4,9.1,59.1,59.1,0,0,1-1.87,8.74c-3.24,11.19-9.33,21.18-14,31.8-1.07,2.43-2.44,6.15-5.68,6.1-3,0-3.57-4.1-4.15-6.28-1.7-6.39-3.42-12.77-5.22-19.13a1.94,1.94,0,0,0-.87-1.3,1.67,1.67,0,0,0-1.61,0c-.88.51-.95,1.78-1.16,2.68q-.86,3.71-1.69,7.43c-.6,2.66-1.2,5.33-1.84,8q-.39,1.65-.81,3.3a14.66,14.66,0,0,1-1.24,3.53,3.11,3.11,0,0,1-3.21,1.75,4.87,4.87,0,0,1-3.31-2.5c-.73-1.24-1.3-2.55-2.05-3.79-.61-1-1.22-2-1.82-3.06a133,133,0,0,1-7.32-14.19A88.94,88.94,0,0,1,14.37,63,73.82,73.82,0,0,1,13,53.55a57.73,57.73,0,0,1-.17-8.92c.39-4.79,1-9.57,1.52-14.36l1.9-18.12.12-1.07c.09-.89-1.3-.88-1.39,0Z"/><path class="cls-8" d="M13,67.64c21.61,8,48.41,2.59,66.8-11.17a1.16,1.16,0,0,0,.46-.82V48.1a1.17,1.17,0,0,0-1.85-1.05C60.21,59.81,34,66.18,13.12,58.59a1.18,1.18,0,0,0-1.55.84l.67,6.88A1.16,1.16,0,0,0,13,67.64Z"/><ellipse id="SVGID" class="cls-9" cx="48.31" cy="65.05" rx="2.92" ry="2.88"/><ellipse id="SVGID-2" data-name="SVGID" class="cls-10" cx="62.71" cy="60.51" rx="2.92" ry="2.88"/><ellipse id="SVGID-3" data-name="SVGID" class="cls-11" cx="74.51" cy="54.39" rx="2.92" ry="2.88"/><ellipse id="SVGID-4" data-name="SVGID" class="cls-12" cx="40.91" cy="66.31" rx="2.92" ry="2.88"/><ellipse id="SVGID-5" data-name="SVGID" class="cls-13" cx="55.39" cy="63.48" rx="2.92" ry="2.88"/><ellipse id="SVGID-6" data-name="SVGID" class="cls-14" cx="68.84" cy="57.84" rx="2.92" ry="2.88"/><path class="cls-15" d="M6.05,69.81c0-3.57,5.49-6.47,12.26-6.47s12.49,2.9,12.49,6.47-5.71,6.47-12.49,6.47S6.05,73.38,6.05,69.81Z"/><path class="cls-16" d="M6.05,69.81c0-3.57,5.49-6.47,12.26-6.47s12.49,2.9,12.49,6.47-5.71,6.47-12.49,6.47S6.05,73.38,6.05,69.81Z"/><path class="cls-17" d="M6.05,69.81c0-3.57,5.49-6.47,12.26-6.47s12.49,2.9,12.49,6.47-5.71,6.47-12.49,6.47S6.05,73.38,6.05,69.81Z"/><path class="cls-18" d="M5.74,69.44a11.73,11.73,0,0,0-.07,1.2c0,6.69,5.72,12.12,12.78,12.12s12.77-5.43,12.77-12.12a11.76,11.76,0,0,0-.06-1.2Z"/><line class="cls-19" x1="31.18" y1="71.28" x2="5.72" y2="71.28"/><path class="cls-20" d="M38.67,6.52C37,15.23,37.53,23.33,38,32.18c.29,5.13.92,10.32-.13,15.35A5.56,5.56,0,0,1,36.09,51a5.81,5.81,0,0,1-2.71.86c-5.14.66-16.22-.72-22.19-1.57a2,2,0,0,1-1.6-2.88c1.43-3-7.36-12.65-3.91-39.68-.22.11,7.57,3.07,12.88,2.86C28.42,10.19,38.67,6.52,38.67,6.52Z"/><path d="M38.05,6.35a78.66,78.66,0,0,0-1.11,16c.12,5.46.61,10.89.84,16.34a36.2,36.2,0,0,1-.41,8.19A6.79,6.79,0,0,1,36.19,50a4.47,4.47,0,0,1-3,1.21,54.22,54.22,0,0,1-11.1-.3c-2.07-.19-4.14-.42-6.2-.67l-2.76-.36a5.9,5.9,0,0,1-2.48-.52,1.48,1.48,0,0,1-.36-1.9,2.51,2.51,0,0,0,.14-.66,5.28,5.28,0,0,0-.15-1.48c-.32-1.43-.86-2.82-1.32-4.21A67.59,67.59,0,0,1,7,34.46,74.18,74.18,0,0,1,5.89,11.62c.12-1.3.27-2.6.43-3.9.07-.58-.73-.81-1.09-.45-1.11,1.09,2.6,2,3.07,2.14a38.25,38.25,0,0,0,7.77,1.71,37.15,37.15,0,0,0,9.58-.66,83.38,83.38,0,0,0,8.86-2c1.45-.41,2.91-.84,4.33-1.35.77-.27.43-1.5-.34-1.23A74.4,74.4,0,0,1,27.85,8.76,53.61,53.61,0,0,1,18.24,10a27.35,27.35,0,0,1-7.4-1.12c-1.12-.3-2.24-.64-3.34-1L6.44,7.4a1.23,1.23,0,0,0-.24-.1c-.38-.09.06-.43.12.42l-.19.45h0L5,7.72A80.65,80.65,0,0,0,5.43,33a63.4,63.4,0,0,0,1.91,7.44C7.85,42,8.45,43.6,8.88,45.21c.07.26.13.53.18.8s0,0,0,.24,0,.23,0,.34,0,.18,0,.27c0-.22,0,.08,0,.16a.21.21,0,0,1,0,.11c.08-.24-.08.19-.1.25a2.63,2.63,0,0,0,1.54,3.36,11.32,11.32,0,0,0,2.59.44q3,.41,6,.74a87.67,87.67,0,0,0,12.23.72c1.85-.06,4.1-.12,5.53-1.44,1.76-1.63,2-4.65,2.16-6.87a57.73,57.73,0,0,0-.09-8.42c-.18-2.82-.36-5.64-.49-8.46a102.47,102.47,0,0,1,.25-16.62c.16-1.39.37-2.77.62-4.14C39.43,5.89,38.2,5.54,38.05,6.35Z"/><path class="cls-21" d="M51.85,6.52c1.63,8.71,1.14,16.81.65,25.66-.28,5.13-.92,10.32.14,15.35A5.47,5.47,0,0,0,54.44,51a5.77,5.77,0,0,0,2.71.86c5.13.66,16.21-.72,22.19-1.57a2,2,0,0,0,1.59-2.88c-1.43-3,7.37-12.65,3.91-39.68.22.11-7.57,3.07-12.88,2.86C62.1,10.19,51.85,6.52,51.85,6.52Z"/><path d="M51.24,6.69a78.89,78.89,0,0,1,1,16.6c-.08,2.85-.24,5.68-.4,8.52s-.41,5.62-.46,8.44a29.43,29.43,0,0,0,.76,8.1,5.81,5.81,0,0,0,1.51,2.85,5.63,5.63,0,0,0,3.17,1.25,51.51,51.51,0,0,0,11.44-.21q3.2-.3,6.38-.7l2.87-.37a10.35,10.35,0,0,0,2.6-.46,2.62,2.62,0,0,0,1.46-3.33c0-.08-.18-.49-.1-.23,0,0,0-.1-.05-.14s0-.3,0-.2,0-.17,0-.24,0-.21,0-.32,0,0,0-.24a33,33,0,0,1,1.26-4.14c.74-2.23,1.41-4.48,1.94-6.77a75.56,75.56,0,0,0,1.25-23.48c-.12-1.3-.27-2.6-.43-3.9l-1.09.45h0l-.18-.45c.05-.81.49-.54.15-.44a1.28,1.28,0,0,0-.24.11l-.79.3c-.92.33-1.85.63-2.8.9A31.28,31.28,0,0,1,73.1,9.94a43.66,43.66,0,0,1-9.39-1c-2.65-.49-5.28-1.12-7.87-1.86-1.28-.37-2.56-.75-3.82-1.2-.77-.27-1.1,1-.33,1.23A75.33,75.33,0,0,0,63.8,10.27a41.39,41.39,0,0,0,9.8.92,35.63,35.63,0,0,0,7.86-1.54c1-.3,2-.61,2.9-1,.49-.2,1.67-.67.93-1.39-.35-.35-1.16-.13-1.09.45a80.09,80.09,0,0,1-.27,24.63,64.57,64.57,0,0,1-1.85,7.37c-.51,1.6-1.1,3.17-1.56,4.78a5,5,0,0,0-.24,3,1.47,1.47,0,0,1-.36,1.9,5.85,5.85,0,0,1-2.47.52c-1.94.26-3.87.5-5.81.71a90.57,90.57,0,0,1-12,.75c-1.69,0-4.15.06-5.32-1.34a6.64,6.64,0,0,1-1.18-3.15,26.9,26.9,0,0,1-.44-4.11A77,77,0,0,1,53,34.59c.18-2.74.33-5.47.45-8.21a96.43,96.43,0,0,0-.36-16c-.16-1.34-.37-2.67-.61-4C52.32,5.54,51.09,5.88,51.24,6.69Z"/><rect class="cls-22" x="29.89" y="5.75" width="31.66" height="12.14"/><rect class="cls-22" x="29.89" y="9.2" width="31.66" height="5.23"/><path class="cls-23" d="M3.85,1.55C3.44,7.7,2.71,13.48.65,19.14c11.82,4.67,20.52,4.34,32.5,4.87.12-1.64,1.32-13.59,6.32-20.78C24.53,5.26,10.21,2.07,3.89.63"/><path d="M3.21,1.55A63.24,63.24,0,0,1,0,19a.65.65,0,0,0,.45.78,61.2,61.2,0,0,0,12.9,3.55,105.7,105.7,0,0,0,12.19,1.06c2.52.1,5.05.18,7.58.29a.65.65,0,0,0,.64-.64A51.66,51.66,0,0,1,37.26,8.79,27,27,0,0,1,40,3.55a.64.64,0,0,0-.55-1c-10,1.35-20.25.51-30.15-1.44C7.56.8,5.81.41,4.06,0c-.8-.18-1.14,1.05-.34,1.23A115.19,115.19,0,0,0,29.66,4.52a76.6,76.6,0,0,0,9.81-.65l-.55-1a33.25,33.25,0,0,0-4.33,9.78,61.7,61.7,0,0,0-1.8,8.83c-.12.83-.22,1.66-.28,2.49l.64-.63C24.79,23,16.37,23,8.21,20.94A63.8,63.8,0,0,1,.82,18.52l.44.79A64.64,64.64,0,0,0,4.49,1.55c0-.82-1.22-.81-1.28,0Z"/><path class="cls-24" d="M86.67,1.55c.42,6.15,1.14,11.93,3.21,17.59C78.05,23.81,69.35,23.48,57.38,24c-.13-1.64-1.33-13.59-6.33-20.78C66,5.26,80.31,2.07,86.64.63"/><path d="M86,1.55a64.62,64.62,0,0,0,3.22,17.76l.45-.79A61.08,61.08,0,0,1,77,22a103,103,0,0,1-12.16,1.05c-2.49.1-5,.18-7.47.29L58,24A52.84,52.84,0,0,0,54.42,8.28,27.23,27.23,0,0,0,51.6,2.91l-.55,1c10.13,1.35,20.43.48,30.42-1.48C83.25,2,85,1.65,86.8,1.25c.81-.18.47-1.41-.33-1.23A114.44,114.44,0,0,1,60.75,3.25a76.85,76.85,0,0,1-9.7-.66.64.64,0,0,0-.55,1,32.17,32.17,0,0,1,4.22,9.57,61.48,61.48,0,0,1,1.76,8.51c.1.79.2,1.59.26,2.38a.64.64,0,0,0,.64.64c8.43-.37,16.93-.36,25.16-2.46a59.82,59.82,0,0,0,7.51-2.44.64.64,0,0,0,.44-.78A63.61,63.61,0,0,1,87.31,1.55c0-.81-1.33-.82-1.27,0Z"/></symbol></defs><g id="Birds"><use width="103.44" height="156.8" transform="translate(99.58 23.28) scale(0.96)" xlink:href="#Bird_Head_1"/><use width="174.03" height="140.88" transform="translate(71.62 147.98) scale(0.96)" xlink:href="#Bird_Body_MASTER_1_2"/><use width="90.52" height="160.76" transform="translate(106.09 139.65) scale(0.96)" xlink:href="#Bird_Body_MASTER_1_4"/></g></svg>