<svg xmlns="http://www.w3.org/2000/svg" xmlns:xlink="http://www.w3.org/1999/xlink" viewBox="0 0 300 300"><defs><style>.cls-1{fill:#c0f3ff;}.cls-2{fill:url(#radial-gradient);}.cls-10,.cls-11,.cls-13,.cls-17,.cls-27,.cls-3{fill:#fff;}.cls-12,.cls-13,.cls-14,.cls-17,.cls-23,.cls-24,.cls-29,.cls-3{stroke:#000;}.cls-11,.cls-12,.cls-13,.cls-14,.cls-17,.cls-3{stroke-linecap:round;}.cls-11,.cls-12,.cls-13,.cls-14,.cls-17,.cls-23,.cls-24,.cls-26,.cls-27,.cls-29,.cls-3{stroke-miterlimit:10;}.cls-4{fill:url(#radial-gradient-2);}.cls-5{fill:url(#radial-gradient-3);}.cls-6{fill:url(#radial-gradient-4);}.cls-7{fill:url(#New_Gradient_Swatch_1);}.cls-8{fill:url(#New_Gradient_Swatch_1-2);}.cls-9{fill:url(#New_Gradient_Swatch_1-3);}.cls-11,.cls-26,.cls-27{stroke:#231f20;}.cls-11{stroke-width:0.56px;}.cls-12,.cls-14,.cls-23,.cls-24,.cls-26{fill:none;}.cls-12,.cls-13{stroke-width:1.25px;}.cls-14{stroke-width:0.85px;}.cls-15{fill:url(#radial-gradient-5);}.cls-16{fill:url(#radial-gradient-6);}.cls-17{stroke-width:0.71px;}.cls-18{fill:url(#radial-gradient-7);}.cls-19{fill:url(#radial-gradient-8);}.cls-20{fill:url(#radial-gradient-9);}.cls-21{fill:#202020;}.cls-22{fill:url(#radial-gradient-10);}.cls-23{stroke-width:1.38px;}.cls-24{stroke-width:1.13px;}.cls-25{fill:url(#radial-gradient-11);}.cls-26{stroke-width:2.96px;}.cls-27{stroke-width:1.27px;}.cls-28{fill:#231f20;}.cls-29{fill:#9fe8ff;stroke-width:1.38px;}</style><radialGradient id="radial-gradient" cx="45.52" cy="41.21" fy="12.103707588823642" r="75.31" gradientUnits="userSpaceOnUse"><stop offset="0.19" stop-color="#0046de"/><stop offset="0.7" stop-color="#339dd4"/></radialGradient><radialGradient id="radial-gradient-2" cx="81722.26" cy="-31709.67" r="14.12" gradientTransform="matrix(-0.2, 0.04, 0.04, 0.2, 17802.03, 3573.29)" gradientUnits="userSpaceOnUse"><stop offset="0.28" stop-color="#fff"/><stop offset="0.41" stop-color="#fbfbfb"/><stop offset="0.54" stop-color="#efefef"/><stop offset="0.67" stop-color="#dadada"/><stop offset="0.8" stop-color="#bebebe"/><stop offset="0.93" stop-color="#9a9a9a"/><stop offset="0.95" stop-color="#949494"/></radialGradient><radialGradient id="radial-gradient-3" cx="81787.1" cy="-31743.56" r="14.12" xlink:href="#radial-gradient-2"/><radialGradient id="radial-gradient-4" cx="81838.22" cy="-31782.91" r="14.12" xlink:href="#radial-gradient-2"/><radialGradient id="New_Gradient_Swatch_1" cx="21138.27" cy="-1581.28" r="2.88" gradientTransform="matrix(-1, 0.17, 0.17, 0.99, 21425.09, -2013.25)" gradientUnits="userSpaceOnUse"><stop offset="0.07" stop-color="#919191"/><stop offset="0.21" stop-color="#828283"/><stop offset="0.47" stop-color="#5c5c60"/><stop offset="0.83" stop-color="#1f1f27"/><stop offset="1" stop-color="#00000a"/></radialGradient><radialGradient id="New_Gradient_Swatch_1-2" cx="21151.86" cy="-1586.51" r="2.88" xlink:href="#New_Gradient_Swatch_1"/><radialGradient id="New_Gradient_Swatch_1-3" cx="21163.97" cy="-1594.35" r="2.88" xlink:href="#New_Gradient_Swatch_1"/><radialGradient id="radial-gradient-5" cx="21.77" cy="29.27" fy="4.7292750409253514" r="43.04" gradientUnits="userSpaceOnUse"><stop offset="0.21" stop-color="#fff"/><stop offset="0.28" stop-color="#f7feff"/><stop offset="0.38" stop-color="#e3fdff"/><stop offset="0.51" stop-color="#c1faff"/><stop offset="0.66" stop-color="#92f5ff"/><stop offset="0.71" stop-color="#81f4ff"/></radialGradient><radialGradient id="radial-gradient-6" cx="68.75" cy="29.27" fy="-12.6772803234714" r="71.76" gradientUnits="userSpaceOnUse"><stop offset="0.27" stop-color="#fff"/><stop offset="0.31" stop-color="#f7feff"/><stop offset="0.37" stop-color="#e3fdff"/><stop offset="0.44" stop-color="#c1faff"/><stop offset="0.53" stop-color="#92f5ff"/><stop offset="0.55" stop-color="#81f4ff"/></radialGradient><radialGradient id="radial-gradient-7" cx="20.06" cy="12.32" fy="4.465994859433895" r="21.14" gradientTransform="translate(0 -2.07) scale(1 1.17)" gradientUnits="userSpaceOnUse"><stop offset="0.34" stop-color="#fff"/><stop offset="0.43" stop-color="#f7feff"/><stop offset="0.57" stop-color="#e3fdff"/><stop offset="0.74" stop-color="#c1faff"/><stop offset="0.94" stop-color="#92f5ff"/><stop offset="1" stop-color="#81f4ff"/></radialGradient><radialGradient id="radial-gradient-8" cx="70.46" cy="12.32" fy="2.7217094565599123" r="34.01" gradientTransform="translate(0 -1.22) scale(1 1.1)" gradientUnits="userSpaceOnUse"><stop offset="0.15" stop-color="#fff"/><stop offset="0.2" stop-color="#f7feff"/><stop offset="0.29" stop-color="#e3fdff"/><stop offset="0.4" stop-color="#c1faff"/><stop offset="0.52" stop-color="#92f5ff"/><stop offset="0.55" stop-color="#81f4ff"/></radialGradient><radialGradient id="radial-gradient-9" cx="124.4" cy="73.25" fx="108.46545870138512" fy="-5.785245176239812" r="89.42" gradientUnits="userSpaceOnUse"><stop offset="0.12" stop-color="#0046de"/><stop offset="0.69" stop-color="#339dd4"/></radialGradient><radialGradient id="radial-gradient-10" cx="24458.2" cy="73.25" fx="24442.26234130955" fy="-5.785245178927568" r="89.42" gradientTransform="matrix(-1, 0, 0, 1, 24492.8, 0)" gradientUnits="userSpaceOnUse"><stop offset="0.12" stop-color="#0046de"/><stop offset="0.8" stop-color="#339dd4"/></radialGradient><radialGradient id="radial-gradient-11" cx="53.17" cy="63.01" fy="28.324490450034098" r="102.05" gradientTransform="translate(0 -7.27) scale(1 1.12)" gradientUnits="userSpaceOnUse"><stop offset="0.31" stop-color="#339dd4"/><stop offset="0.43" stop-color="#319ad4"/><stop offset="0.53" stop-color="#2b90d6"/><stop offset="0.63" stop-color="#217ed8"/><stop offset="0.71" stop-color="#1366da"/><stop offset="0.8" stop-color="#0147de"/><stop offset="0.8" stop-color="#0046de"/></radialGradient><symbol id="Bird_Body_MASTER_1_7" data-name="Bird_Body_MASTER_1 7" viewBox="0 0 174.03 140.88"><path class="cls-20" d="M119.7,62c0,15.3-4.14,22.57-14.14,33.57,4.55.46,10.81-2.63,12.81-6.63a43.06,43.06,0,0,0-.49,6.66,44.49,44.49,0,0,0,.52,6.8A54.74,54.74,0,0,0,123,116.5a35.91,35.91,0,0,0,3.95,6.26,33,33,0,0,0,5.24,5.34c-.73-2.6-1.34-5.15-1.89-7.66s-1-5-1.44-7.5c-.88-5-.44-10.5.54-8.09s1.89,4.92,2.83,7.42c4,9.67,8,20.67,18,26.67-4-9-6-18-8.74-26.74-.63-2.08-1.28-4.14-2-6.19s-.22-1.64.94.49,2.41,4.19,3.78,6.19c3,4.25,5,9.25,10,11.25-1-4-2-9-3.75-13.38q-1.12-3.28-2.44-6.45t-2.81-6.17c4,2,6,6,11,7-1-6-3-12-7-16a11.53,11.53,0,0,0,8.86,4.88c-1-6-4.86-13.88-9.86-16.88,3,0,5,3,8,4,2-6-3-13-8-17,2,0,5,0,4-1-1.5-2.75-2.94-5.38-4.32-8s-2.7-5.17-4-7.82c-6.71-14.2-7-34.5-23-45.2-5.32-3.56-20.17,1.22-21.2,9.28C96.29,39.05,109.1,24,116.57,46.45,118.71,52.88,119.7,58.92,119.7,62Z"/><path class="cls-21" d="M119.7,62a26,26,0,0,0-.59,2.59,20.37,20.37,0,0,0-.36,2.86c0,.27-.08.67-.13,1.17,0,.25-.05.52-.08.81l0,.22v0l-.07.49c-.13.75-.21,1.51-.37,2.25a34.61,34.61,0,0,1-3,8.89,45.12,45.12,0,0,1-5.4,8.27c-1,1.32-2.16,2.62-3.3,3.92l-1.45,1.62-.76.93-.09.12c-.07.05,0,.06,0,.05l.31,0,.63,0c.43,0,.84,0,1.25,0h1.16a12.74,12.74,0,0,0,1.38-.2,16.71,16.71,0,0,0,5.2-2,14.76,14.76,0,0,0,2.31-1.62,6.17,6.17,0,0,0,.54-.48l.39-.38h0s0-.06,0,.07l-.09,1.35a45.69,45.69,0,0,0,0,5.61,33.43,33.43,0,0,0,.8,5.6q.61,2.76,1.48,5.47a45.74,45.74,0,0,0,4.75,10.39,35.35,35.35,0,0,0,3.45,4.62c.64.72,1.31,1.42,2,2.08l.85.78c.34.3.7.62,1,.89l1,.83.52.43.27.22-.07-.32c-.19-.86-.34-1.64-.58-2.6l-.53-2.13-.67-2.72c-.49-1.81-.81-3.66-1.17-5.49s-.77-3.69-1-5.48c-.11-.9-.18-1.81-.21-2.72,0-.46,0-.91,0-1.36l0-.67c0-.19,0-.22,0-.2h0l.09.26.83,2.16.82,2.15.41,1.08.21.53.26.63c2.76,6.75,5.48,13.56,9.9,19.15a32,32,0,0,0,3.6,3.85l1,.88,1,.79.64.49,1,.68,2.07,1.36.52.33.25.17c.07.06,0,0,0-.07l-.06-.14-.46-1.12-.95-2.25-.66-1.61-.44-1.13c-.59-1.51-1.12-3-1.62-4.54-2-6-3.51-11.91-5.19-17.34-.31-1-.6-1.87-.88-2.75h0c.25.41.5.82.75,1.21.64,1,1.32,2,1.94,2.91s1.18,1.86,1.76,2.77a29,29,0,0,0,3.65,4.9,12.58,12.58,0,0,0,2.16,1.81,4.15,4.15,0,0,0,.57.35,7.69,7.69,0,0,0,1.06.55l1.06.48.52.24.26.12.05,0v-.07l0-.14L154,119.56c-.58-2.39-1.06-4.13-1.36-5.13-.45-1.52-.94-3-1.46-4.26s-1-2.55-1.4-3.71-.81-2.25-1.27-3.24l-1.26-2.76-.25-.55h0l.07,0c.23.19.46.36.66.54l1.15,1a27.23,27.23,0,0,0,2.76,2.23,4.28,4.28,0,0,0,.64.41,5.35,5.35,0,0,0,.9.51,10.36,10.36,0,0,0,1.62.68,9,9,0,0,0,1,.29l1.25.3c.18.1.06-.13.06-.21l-.06-.36-.12-.73c0-.26-.09-.52-.13-.78s-.06-.34-.1-.51a35.77,35.77,0,0,0-3.28-9.83,21.12,21.12,0,0,0-2-3.24,18.6,18.6,0,0,0-1.4-1.62l-.19-.2h0c-2.3,1.88-.63.53-1.14,1l0,0,0,.06.09.12a5.2,5.2,0,0,0,.35.47,9.48,9.48,0,0,0,.79.89,12.79,12.79,0,0,0,4.25,2.8,11.49,11.49,0,0,0,2.71.75l.57.06.67,0,.67,0H159s0-.09,0-.14l-.06-.31c-.15-.81-.31-1.82-.41-2.13h0c-.14-.61-.34-1.37-.72-2.53a32,32,0,0,0-2-4.82,27.41,27.41,0,0,0-2.14-3.51,19.19,19.19,0,0,0-3.7-4,7.52,7.52,0,0,0-.64-.47l-.34-.23-.18-.11-.08-.06h0c-.77,2.77-.21.77-.38,1.39h.05a4.35,4.35,0,0,1,1.34.26,12.51,12.51,0,0,1,2.84,1.7c.51.36,1,.74,1.63,1.1.3.17.61.35.94.51s.59.25.89.36l.48.18c.14,0,.36.22.36,0s.18-.66.28-1,.13-.53.2-.79.1-.76.15-1.16a11.36,11.36,0,0,0-.11-2.39h0A17.56,17.56,0,0,0,154.1,69a27.62,27.62,0,0,0-3.28-3.81l-.49-.46-.09-.09h.14l.75-.05a6.6,6.6,0,0,0,.82-.13,3,3,0,0,0,.47-.14,1.77,1.77,0,0,0,.29-.16,1,1,0,0,0,.35-.36,1,1,0,0,0,.14-.67,1.21,1.21,0,0,0-.19-.47.63.63,0,0,0-.1-.12h0l-.07-.14-.36-.66L151,59c-1-1.86-2.08-3.76-3.09-5.78L144.75,47a64.92,64.92,0,0,1-2.7-6.84c-1.63-4.79-3-10-4.72-15.26A77.88,77.88,0,0,0,134.25,17l-1-1.95a18.89,18.89,0,0,0-1.05-1.92l-1.14-1.9-1.3-1.82-.66-.91-.73-.85L126.9,5.89l-1.66-1.55-.83-.78c-.29-.25-.61-.47-.91-.7l-1.84-1.38A7.16,7.16,0,0,0,119.43.42a13.74,13.74,0,0,0-4.76-.36,22.85,22.85,0,0,0-9,2.8,17.13,17.13,0,0,0-3.83,2.87,10.07,10.07,0,0,0-2.56,4.2,10.5,10.5,0,0,0-.26,1.24l-.13,1.15c-.09.76-.18,1.53-.24,2.31-.14,1.54-.22,3.09-.23,4.65a26.65,26.65,0,0,0,.36,4.7,11.66,11.66,0,0,0,1.72,4.54,11.89,11.89,0,0,0,3.54,3.26c1.3.85,2.58,1.6,3.74,2.48a19.63,19.63,0,0,1,5.52,6.56,40.64,40.64,0,0,1,3.18,8c.41,1.38.78,2.76,1.1,4.14l.14.58c.06.27.11.54.17.79.22,1,.37,1.85.45,2.32A47.32,47.32,0,0,0,119.7,62a13.1,13.1,0,0,0,.16-5.61c-.08-.48-.23-1.34-.45-2.38-.06-.26-.11-.53-.18-.81l-.13-.6c-.33-1.41-.71-2.81-1.13-4.22a41.73,41.73,0,0,0-3.3-8.3,21,21,0,0,0-5.94-7c-2.45-1.91-5.4-3.05-6.94-5.38a10.29,10.29,0,0,1-1.48-4,24.19,24.19,0,0,1-.33-4.44c0-1.5.08-3,.22-4.52.06-.76.14-1.52.23-2.27l.13-1.14a8.07,8.07,0,0,1,.22-1c.79-2.68,3.14-4.76,5.67-6.18a21.44,21.44,0,0,1,8.35-2.61,12,12,0,0,1,4.21.3,5.61,5.61,0,0,1,1.81.87L122.57,4c.29.22.59.43.87.67l.79.74,1.59,1.48,1.42,1.63.7.82.63.87L129.82,12l1.1,1.83a18.78,18.78,0,0,1,1,1.87l.95,1.89a78,78,0,0,1,3,7.78c1.74,5.22,3.07,10.41,4.72,15.27a65.11,65.11,0,0,0,2.77,7l3.19,6.29c1,2,2.11,3.94,3.1,5.8l1.47,2.73.36.66.11.19.11.15s0,0,0,0l.14-.08a.18.18,0,0,1,.07,0,.29.29,0,0,1,.17-.05c.08,0,0,0,0,0s.05,0,0,0-.11-.12-.28-.32c0,0,0,0,0,0a.9.9,0,0,1-.23.07l-.63.1-.68,0-1.29,0h-2.68c-.06,0-.15,0-.06,0L148.39,65c.18.15.36.3.52.45l.4.36c.16.15.32.29.46.44a26.6,26.6,0,0,1,3.11,3.61,16.19,16.19,0,0,1,3,6.77,9.69,9.69,0,0,1,.09,2.07l-.12,1-.06.23h0l0,0a7.82,7.82,0,0,1-.81-.43c-.53-.32-1-.68-1.54-1a14.27,14.27,0,0,0-3.2-1.89,5.76,5.76,0,0,0-1.82-.35h-.08c-.17.62.38-1.39-.39,1.39h0l.08,0,.15.1.3.2a6,6,0,0,1,.57.42A17.7,17.7,0,0,1,152.41,82a27.14,27.14,0,0,1,2,3.33,31.35,31.35,0,0,1,1.94,4.6,24,24,0,0,1,.68,2.4h0c.15.62.12.52.14.61v0h-.1a10.21,10.21,0,0,1-2.35-.65A11.39,11.39,0,0,1,151,89.88a9.62,9.62,0,0,1-.68-.77c-.12-.13-.2-.27-.3-.4l-.08-.1,0,0,0,0c-.52.42,1.14-1-1.16.94h0l.18.18a19.15,19.15,0,0,1,1.28,1.49,20.47,20.47,0,0,1,1.92,3,35,35,0,0,1,3.14,9.43l.06.31h0l-.07,0a8,8,0,0,1-1.41-.59,5.85,5.85,0,0,1-.8-.45,5.31,5.31,0,0,1-.57-.37,26.14,26.14,0,0,1-2.63-2.13l-1.17-1c-.22-.19-.46-.37-.71-.57l-.31-.23-.38-.26-.8-.53c-.52-.31-1-.56-1.6-.89l-.91-.49-.11-.06,0,.11.09.22.17.46.36.94c.1.3.33.75.49,1.12l.87,1.91c.39.85.8,1.75,1.24,2.73s.81,2.06,1.26,3.21.9,2.37,1.39,3.67,1,2.67,1.43,4.17c.29,1,.76,2.68,1.33,5.06.15.59.3,1.23.46,1.9l.12.52,0,.22h0a3.66,3.66,0,0,1-.49-.31,11.32,11.32,0,0,1-1.92-1.6,27.79,27.79,0,0,1-3.46-4.66c-.56-.9-1.14-1.84-1.77-2.79s-1.3-1.88-1.93-2.89l-.47-.75-.68-1.13-1.89-3.31c-.63-1-.91-1.14-1.12-1.23a.43.43,0,0,0-.25,0,1.26,1.26,0,0,0-.16,0,.84.84,0,0,1-.24.08.2.2,0,0,0-.19.11c.11.43.22.85.34,1.27.23.86.46,1.72.7,2.58s.47,1.75.71,2.64.49,1.87.68,2.45c1.68,5.39,3.17,11.28,5.2,17.38.52,1.52,1.05,3.06,1.65,4.6l.45,1.15.23.58c.06.13,0,.12,0,.11h0s0,0,0,0h0l-.36-.27-1-.76-.92-.83a30,30,0,0,1-3.43-3.68c-4.24-5.35-6.94-12-9.69-18.76q-1.14-2.82-2.3-5.65-.58-1.42-1.17-2.88a3.73,3.73,0,0,0-.16-.35.91.91,0,0,0-.27-.15.69.69,0,0,0-.34-.06.83.83,0,0,0-.39.09c-.38.15-.67.76-.79,1.69,0,.47-.09.89-.1,1.17l0,.73c0,.48,0,1,0,1.43,0,1,.12,1.91.23,2.86.24,1.92.67,3.71,1,5.58s.68,3.71,1.17,5.54l.68,2.76.16.63h0v0h0l-.19-.18c-.67-.63-1.31-1.3-1.92-2a33.94,33.94,0,0,1-3.31-4.42,44.31,44.31,0,0,1-4.59-10q-.84-2.64-1.44-5.33a32.71,32.71,0,0,1-.77-5.39,46.53,46.53,0,0,1,0-5.41l.1-1.38c.06-.78.18-1.78.33-2.74l.44-3,.09-.64,0-.3c0-.09,0,0-.06.06l-.12.2-1.06,1.85-.58,1-.28.49-.23.32-.93,1.27-.11.15-.12.12-.11.11-.23.22a6.14,6.14,0,0,1-.47.42,14.54,14.54,0,0,1-2.09,1.47,15.26,15.26,0,0,1-4.73,1.78,10.42,10.42,0,0,1-1.23.18h-.12s-.14.15.28-.33c1.16-1.3,2.29-2.63,3.36-4A47.14,47.14,0,0,0,116.44,82a35.88,35.88,0,0,0,3.1-9.27c.17-.78.26-1.56.39-2.34l.07-.5v-.06l0-.22c0-.3.06-.58.08-.83,0-.51.1-.93.12-1.21a17.6,17.6,0,0,0,0-2.94A26.71,26.71,0,0,0,119.7,62Z"/><path class="cls-22" d="M39.31,62c0,15.3,4.13,22.57,14.13,33.57C48.9,96.05,42.63,93,40.63,89a43.06,43.06,0,0,1,.5,6.66,44.49,44.49,0,0,1-.52,6.8A55.52,55.52,0,0,1,36,116.5,36.51,36.51,0,0,1,32,122.76a33.11,33.11,0,0,1-5.25,5.34c.74-2.6,1.35-5.15,1.89-7.66s1-5,1.45-7.5c.88-5,.43-10.5-.54-8.09s-1.89,4.92-2.83,7.42c-4,9.67-8,20.67-18,26.67,4-9,6-18,8.74-26.74.63-2.08,1.27-4.14,2-6.19s.22-1.64-.93.49-2.41,4.19-3.78,6.19c-3,4.25-5,9.25-10,11.25,1-4,2-9,3.75-13.38q1.13-3.28,2.43-6.45t2.82-6.17c-4,2-6,6-11,7,1-6,3-12,7-16A11.53,11.53,0,0,1,.88,93.82c1-6,4.86-13.88,9.86-16.88-3,0-5,3-8,4-2-6,3-13,8-17-2,0-5,0-4-1,1.5-2.75,2.93-5.38,4.31-8s2.71-5.17,4-7.82c6.71-14.2,7-34.5,22.95-45.2,5.32-3.56,20.18,1.22,21.2,9.28C62.72,39.05,49.91,24,42.44,46.45A56.45,56.45,0,0,0,39.31,62Z"/><path class="cls-21" d="M39.31,62a26.71,26.71,0,0,0-.5,2.63,17.49,17.49,0,0,0,0,2.94c0,.28.07.7.12,1.21,0,.25.06.53.09.83l0,.22v.06l.07.5c.13.78.21,1.56.38,2.34A36.29,36.29,0,0,0,42.57,82a46.1,46.1,0,0,0,5.57,8.53c1.07,1.35,2.2,2.68,3.35,4l.29.33h-.13a10,10,0,0,1-1.22-.18,15.17,15.17,0,0,1-4.73-1.78,14,14,0,0,1-2.09-1.47,4.81,4.81,0,0,1-.48-.42l-.22-.22-.12-.11-.11-.12a.58.58,0,0,1-.11-.15l-.93-1.27-.23-.32-.29-.49-.58-1-1-1.85-.12-.2c0-.09-.09-.15-.06-.06l0,.3.1.64.44,3c.14,1,.26,2,.33,2.74l.09,1.38a42.49,42.49,0,0,1,0,5.41,32.69,32.69,0,0,1-.76,5.39c-.41,1.79-.88,3.57-1.45,5.33a44.27,44.27,0,0,1-4.58,10,33.94,33.94,0,0,1-3.31,4.42c-.61.69-1.25,1.36-1.92,2l-.19.18h0v0h0l.15-.63.68-2.76c.5-1.83.82-3.69,1.18-5.54s.77-3.66,1-5.58c.11-.95.19-1.9.22-2.86,0-.48,0-.95,0-1.43l0-.73c0-.28,0-.7-.11-1.17-.12-.93-.41-1.54-.79-1.69a.79.79,0,0,0-.38-.09.69.69,0,0,0-.34.06.91.91,0,0,0-.27.15,2.21,2.21,0,0,0-.16.35q-.59,1.45-1.17,2.88-1.15,2.83-2.3,5.65C23,119.35,20.33,126,16.1,131.37a30.8,30.8,0,0,1-3.43,3.68l-.93.83-1,.76-.37.27h0s0,0,0-.11l.24-.58.45-1.15c.59-1.54,1.13-3.08,1.64-4.6,2-6.1,3.53-12,5.2-17.38.2-.58.46-1.59.69-2.45s.48-1.77.71-2.64.47-1.72.7-2.58c.11-.42.23-.84.34-1.27a.2.2,0,0,0-.19-.11A.84.84,0,0,1,20,104a1,1,0,0,0-.17,0,.42.42,0,0,0-.25,0c-.2.09-.49.19-1.11,1.23l-1.9,3.31-.67,1.13-.47.75c-.64,1-1.28,1.93-1.93,2.89s-1.21,1.89-1.78,2.79a27.77,27.77,0,0,1-3.45,4.66,11.73,11.73,0,0,1-1.92,1.6,3.76,3.76,0,0,1-.5.31s0,0,0,0h0l0-.22c.05-.18.09-.35.13-.52l.45-1.9c.57-2.38,1-4.09,1.34-5.06.44-1.5.9-2.86,1.43-4.17L10.62,107c.46-1.15.81-2.25,1.26-3.21s.86-1.88,1.24-2.73c.31-.66.59-1.29.87-1.91.17-.37.39-.82.5-1.12l.36-.94.17-.46.09-.22,0-.11-.12.06-.9.49c-.59.33-1.08.58-1.61.89l-.79.53-.38.26a3.54,3.54,0,0,0-.31.23c-.25.2-.49.38-.71.57l-1.18,1a25.3,25.3,0,0,1-2.62,2.13,5.31,5.31,0,0,1-.57.37,5.85,5.85,0,0,1-.8.45,8,8,0,0,1-1.41.59l-.07,0,.06-.31a34.27,34.27,0,0,1,3.14-9.43,19.59,19.59,0,0,1,1.91-3,19.32,19.32,0,0,1,1.29-1.49l.17-.18h0C8,87.58,9.62,89,9.11,88.53l0,0,0,0-.07.1c-.1.13-.19.27-.3.4a9.78,9.78,0,0,1-.69.77,11.35,11.35,0,0,1-3.74,2.47A10.15,10.15,0,0,1,1.89,93h-.1v0c0-.09,0,0,.14-.61h0c.14-.57.32-1.29.69-2.4a30.27,30.27,0,0,1,1.94-4.6A26,26,0,0,1,6.6,82,17.43,17.43,0,0,1,10,78.36a4.94,4.94,0,0,1,.57-.42l.3-.2.15-.1.07,0h0c-.77-2.78-.22-.77-.4-1.39h-.07a5.76,5.76,0,0,0-1.82.35,14.27,14.27,0,0,0-3.2,1.89c-.51.36-1,.72-1.54,1a7.82,7.82,0,0,1-.81.43l0,0h0l-.06-.23c0-.33-.09-.65-.13-1a11.19,11.19,0,0,1,.09-2.07,16.23,16.23,0,0,1,3-6.77,26.5,26.5,0,0,1,3.1-3.61l.47-.44.4-.36c.15-.15.33-.3.51-.45l2.13-1.79c.08,0,0,0-.06,0H10l-1.29,0-.68,0c-.22,0-.44-.06-.62-.1a.79.79,0,0,1-.23-.07s0,0,0,0c-.17.2-.18.26-.28.32s0,0,0,0,0,0,0,0a.34.34,0,0,1,.17.05l.07,0,.14.08s0,0,0,0l.12-.15.1-.19.36-.66,1.48-2.73c1-1.86,2.08-3.76,3.09-5.8l3.2-6.29a65.11,65.11,0,0,0,2.77-7c1.65-4.86,3-10,4.72-15.27a78,78,0,0,1,3-7.78c.31-.63.63-1.26.95-1.89a18.78,18.78,0,0,1,1-1.87c.36-.61.73-1.22,1.1-1.83s.83-1.16,1.24-1.75l.63-.87.71-.82,1.42-1.63,1.58-1.48.8-.74c.28-.24.58-.45.87-.67l1.75-1.31A5.56,5.56,0,0,1,40,1.86a12.09,12.09,0,0,1,4.22-.3,21.34,21.34,0,0,1,8.34,2.61c2.53,1.42,4.88,3.5,5.68,6.18a6.57,6.57,0,0,1,.21,1l.13,1.14c.09.75.18,1.51.23,2.27.14,1.51.23,3,.23,4.52a25.1,25.1,0,0,1-.33,4.44,10.3,10.3,0,0,1-1.49,4c-1.53,2.33-4.48,3.47-6.94,5.38a21.11,21.11,0,0,0-5.93,7A41.77,41.77,0,0,0,41,48.4c-.41,1.41-.79,2.81-1.12,4.22l-.14.6c-.06.28-.12.55-.17.81-.22,1-.38,1.9-.46,2.38A12.93,12.93,0,0,0,39.31,62a47.39,47.39,0,0,0,1.3-5.36c.09-.47.24-1.31.46-2.32,0-.25.11-.52.17-.79l.14-.58c.32-1.38.69-2.76,1.1-4.14a39.44,39.44,0,0,1,3.18-8,19.63,19.63,0,0,1,5.52-6.56c1.16-.88,2.43-1.63,3.73-2.48a11.92,11.92,0,0,0,3.55-3.26A11.82,11.82,0,0,0,60.18,24a25.72,25.72,0,0,0,.35-4.7c0-1.56-.09-3.11-.23-4.65-.06-.78-.14-1.55-.23-2.31l-.13-1.15a8.85,8.85,0,0,0-.27-1.24,10,10,0,0,0-2.56-4.2,16.56,16.56,0,0,0-3.82-2.87A22.9,22.9,0,0,0,44.34.06a13.72,13.72,0,0,0-4.76.36,7.21,7.21,0,0,0-2.24,1.06L35.51,2.86c-.3.23-.62.45-.91.7l-.83.78L32.11,5.89,30.62,7.6l-.74.85-.65.91-1.3,1.82-1.14,1.9A19,19,0,0,0,25.73,15c-.33.66-.65,1.31-1,1.95a80.28,80.28,0,0,0-3.08,8C19.91,30.18,18.58,35.37,17,40.16A62.84,62.84,0,0,1,14.25,47c-1.09,2.15-2.14,4.23-3.17,6.25S9,57.17,8,59L6.53,61.75l-.36.66-.08.14h0a.63.63,0,0,0-.1.12,1.63,1.63,0,0,0-.19.47,1.09,1.09,0,0,0,.14.67,1.19,1.19,0,0,0,.35.36,2.31,2.31,0,0,0,.3.16,2.69,2.69,0,0,0,.47.14,6.46,6.46,0,0,0,.81.13l.76.05h.13l-.08.09c-.17.15-.34.3-.49.46A27,27,0,0,0,4.91,69a17.72,17.72,0,0,0-3.24,7.42h0a12.05,12.05,0,0,0-.1,2.39c.05.4.09.78.15,1.16s.13.53.2.79.18.66.28,1,.21.08.36,0L3,81.62c.3-.11.66-.25.89-.36s.64-.34.94-.51c.6-.36,1.13-.74,1.64-1.1A12.51,12.51,0,0,1,9.34,78a4.3,4.3,0,0,1,1.34-.26h.05c-.17-.62.39,1.38-.38-1.39h0l-.09.06-.17.11-.34.23a6.21,6.21,0,0,0-.64.47,19,19,0,0,0-3.71,4,28.61,28.61,0,0,0-2.14,3.51,32.8,32.8,0,0,0-2,4.82A24.93,24.93,0,0,0,.49,92h0c-.1.31-.27,1.32-.41,2.13L0,94.46c0,.05,0,.12,0,.14H.18l.68,0,.66,0,.58-.06a11.63,11.63,0,0,0,2.71-.75,12.75,12.75,0,0,0,4.24-2.8,9.59,9.59,0,0,0,.8-.89c.13-.15.23-.31.35-.47l.08-.12.05-.06,0,0c-.51-.42,1.16.93-1.14-1h0l-.2.2a20.31,20.31,0,0,0-1.39,1.62,22,22,0,0,0-2.06,3.24,36.47,36.47,0,0,0-3.28,9.83l-.09.51c-.05.26-.09.52-.13.78s-.09.49-.13.73l-.06.36c0,.08-.11.31.06.21l1.26-.3a8.71,8.71,0,0,0,1-.29,10.56,10.56,0,0,0,1.63-.68,5.35,5.35,0,0,0,.9-.51,4.06,4.06,0,0,0,.63-.41,27,27,0,0,0,2.77-2.23l1.14-1c.21-.18.44-.35.67-.54l.07,0h0c-.08.18-.17.36-.25.55l-1.26,2.76c-.47,1-.82,2.09-1.27,3.24s-.91,2.4-1.4,3.71-1,2.74-1.47,4.26c-.3,1-.78,2.74-1.35,5.13L3.7,125l0,.14,0,.07.06,0,.26-.12.52-.24,1.06-.48a7.69,7.69,0,0,0,1.06-.55,4.85,4.85,0,0,0,.57-.35,13,13,0,0,0,2.16-1.81,29,29,0,0,0,3.65-4.9c.57-.91,1.14-1.84,1.76-2.77s1.3-1.89,1.94-2.91c.25-.39.5-.8.75-1.21h0l-.87,2.75C14.86,118.09,13.37,124,11.36,130c-.51,1.51-1,3-1.62,4.54l-.45,1.13-.66,1.61c-.31.75-.62,1.5-.94,2.25l-.47,1.12-.06.14s-.07.13,0,.07l.26-.17.52-.33L10,139l1-.68.64-.49,1-.79,1-.88a32.87,32.87,0,0,0,3.6-3.85c4.41-5.59,7.14-12.4,9.9-19.15l.26-.63.21-.53.41-1.08.82-2.15.82-2.16.1-.26h0s0,0,0,.2l0,.67c0,.45,0,.9,0,1.36,0,.91-.11,1.82-.22,2.72-.22,1.79-.66,3.65-1,5.48s-.67,3.68-1.16,5.49L26.77,125l-.53,2.13c-.25,1-.39,1.74-.58,2.6l-.07.32.26-.22.53-.43,1-.83c.34-.27.69-.59,1-.89l.85-.78c.7-.66,1.37-1.36,2-2.08a34.55,34.55,0,0,0,3.46-4.62A46.17,46.17,0,0,0,39.5,109.8q.86-2.72,1.48-5.47a35.63,35.63,0,0,0,.8-5.6,45.69,45.69,0,0,0,0-5.61l-.1-1.35c0-.13,0,0,0-.07s0,0,0,0h0l.39.38c.17.17.35.33.53.48a15.76,15.76,0,0,0,2.31,1.62,16.9,16.9,0,0,0,5.2,2,12.92,12.92,0,0,0,1.39.2h1.16c.4,0,.82,0,1.24,0l.63,0,.32,0c.07,0,.1,0,0-.05l-.09-.12-.77-.93-1.44-1.62c-1.15-1.3-2.25-2.6-3.31-3.92a45.64,45.64,0,0,1-5.4-8.27,34.58,34.58,0,0,1-3-8.89c-.16-.74-.24-1.5-.37-2.25l-.07-.49v0l0-.22q0-.44-.09-.81c-.05-.5-.09-.9-.12-1.17a23.86,23.86,0,0,0-.36-2.86C39.76,63.77,39.56,63,39.31,62Z"/><path class="cls-23" d="M12.24,71.35"/><path class="cls-24" d="M174,39.49"/></symbol><symbol id="Bird_Head_1_6" data-name="Bird_Head_1 6" viewBox="0 0 102.02 154.58"><path class="cls-25" d="M101.31,107.45c0-.06,0-.13,0-.19,0-15.68-5.36-32.08-31.74-45.07C57.23,56.11,44.4,36.32,44,1.84c-12,12-6.9,41.48-2.17,50.52,0,0-22.73-29.12-24.15-32.64-.57,15.68,15.93,38.52,16,39.12-5-4.71-20.53-13.5-31.14-10.42C10.44,51.18,25.07,58.68,29.06,62a15.61,15.61,0,0,0,.75,1.54c-1.08.11-16.08-6-25.3-3.59C7.62,61,22.62,66.28,27.64,69.42c-.37.27-.73.56-1.1.84C21.36,69.7,15.22,69,8.47,71.94c2.72,0,10.57,1.49,13.67,2.13A46.35,46.35,0,0,0,8.47,112.3c1,21.46,10.07,40.51,10.07,40.51l26.31-.05a46.75,46.75,0,0,0,20,0l22.69-.05A90.15,90.15,0,0,0,101.21,113,36.57,36.57,0,0,0,101.31,107.45Z"/><path class="cls-21" d="M101.31,107.45a15.49,15.49,0,0,0,.52-5.64c0-.41-.11-1.08-.21-1.89,0-.1,0-.21,0-.31l0-.16-.07-.47c0-.33-.07-.67-.14-1L101,96a41.19,41.19,0,0,0-6.65-15.22A52.55,52.55,0,0,0,81.92,68.64c-1.22-.81-2.39-1.71-3.66-2.47s-2.53-1.54-3.82-2.28L70.5,61.81c-.68-.34-1.27-.7-1.91-1.05l-.94-.52-.88-.63a30.28,30.28,0,0,1-3.4-2.7c-.54-.48-1-1-1.55-1.54l-.77-.78c-.24-.27-.47-.55-.7-.83l-1.41-1.68c-.44-.59-.86-1.19-1.29-1.79-.89-1.16-1.6-2.45-2.38-3.69a68.16,68.16,0,0,1-6.7-16.2,106,106,0,0,1-3.16-17c-.23-2.83-.51-5.63-.55-8.42,0-1-.07-1.94-.1-2.9l-.1-2c0-.15-.06,0-.11,0l-.18.19L44,.67l-.7.76-.69.75-.33.37-.26.34-.65.85c-.4.59-.81,1.18-1.16,1.79A36.76,36.76,0,0,0,36,21.07a71.85,71.85,0,0,0,.56,14.86,68.65,68.65,0,0,0,3,13.08c.35,1,.75,2,1.18,2.91l.34.7,0,.09c2.55-1.62.69-.47,1.25-.84l0,0-.11-.15L42,51.39l-.9-1.15q-1.77-2.3-3.4-4.4h0C33.2,40,28.91,34.34,25.19,29.32c-1.85-2.52-3.58-4.88-5.06-7.06l-.28-.41-.07-.1a1.6,1.6,0,0,1-.13-.21l-.28-.47q-.54-.95-1.08-1.86c-.36-.61-.7-1.22-1-1.81L17,17l-.11-.23-.06-.11s-.05-.1,0,0c0,.29,0,.58,0,.87,0,1.17.07,2.31.1,3.42,0,.55,0,1.09,0,1.62,0,.11,0,.31,0,.36l0,.2.05.4c.16,1.05.25,2,.43,2.89s.38,1.64.53,2.32c.32,1.36.68,2.3.82,2.84.33,1.07.11.43-.72-2.4a72.45,72.45,0,0,0,4.56,12c1.72,3.66,3.54,7,5.3,10,.89,1.5,1.75,2.92,2.6,4.27l1.24,2,.59.93c.19.27.41.73.45.64h0l.44-.05c-.28.48,1-.7.84-.58l-.06,0-.1-.09-.2-.18-.41-.35c-.26-.24-.53-.45-.8-.66-.53-.43-1.06-.82-1.58-1.18-1-.74-2-1.35-2.92-1.91a55.91,55.91,0,0,0-6.91-3.55l.27.12,1.19.52,1.91.93a46.15,46.15,0,0,0-13-4.5,24.45,24.45,0,0,0-5.79-.28l-.71.06-.63,0-.57.13-2.33.5-1.13.24-.28.07-.14,0s.06,0,.08,0l.51.21,2,.79c.3.13.72.27,1.07.4L4.69,50l1,.42,1.88.79,3.32,1.49c2,.95,3.69,1.76,5.07,2.46,2.75,1.4,4.36,2.27,5.28,2.79l1.17.65,1.37.79c.53.32,1.25.73,2.18,1.33.48.3,1,.64,1.56,1,.29.19.56.42.86.65l.05,0,0,0h0v0h0l-.18-.06-.37-.11-3.35-1a74.35,74.35,0,0,0-8.73-2,43.75,43.75,0,0,0-5.57-.58l-1.53,0a5.22,5.22,0,0,0-.79,0l-1.14.11A9,9,0,0,0,5.34,59l-1.45.29-1.49.29-.74.15c.19.08.51.18.75.27L8,62l3.42,1.25c2.34.87,4.81,1.81,7.39,2.86,1,.41,2.25.92,4,1.72.89.41,1.91.88,3.06,1.49l.36.19s0,0,.05,0,.06,0,0,0L25,69.33A51.42,51.42,0,0,0,18.93,69a30.25,30.25,0,0,0-3.68.27c-.65.08-1.31.21-2,.34l-1,.24c-.37.08-.56.16-1.4.39-.67.22-1.25.46-1.85.69l-1.85.74-1.86.76-.36.15c-.31.07.17.07.43.07l1.72,0,1.67,0,1.33.1c.45,0,.87.08,1.28.13l.83.11,2.52.4c1.72.28,3.53.62,5.43,1l.51.1h0l-.32.33c-.18.18-.36.37-.54.58l-1.06,1.2a47.1,47.1,0,0,0-10,19.91c-.28,1.1-.46,2.25-.67,3.41s-.34,2.35-.41,3.57-.12,2.46-.15,3.72.13,2.53.2,3.82a108.13,108.13,0,0,0,2,16.17,127.82,127.82,0,0,0,4.74,17.12c.51,1.45,1.05,2.89,1.62,4.34.29.73.58,1.45.89,2.18l.46,1.08.66,1.46.07.14H28l9.74,0h7l.22,0c.82.18,1.65.33,2.49.46a47.21,47.21,0,0,0,10.16.47,46,46,0,0,0,5.1-.59l1.26-.23a5.85,5.85,0,0,1,1.1-.19h2.54l11,0h9.3l0-.07.59-.88.74-1.18a91,91,0,0,0,8.92-20,90.39,90.39,0,0,0,2.61-10.4l.45-2.61c.06-.43.16-.86.2-1.3l.06-.49,0-.21c0-.29.06-.56.09-.82.13-1,.23-1.91.29-2.4a13.51,13.51,0,0,0-.65-5.65,46.24,46.24,0,0,0-.86,5.51c-.06.48-.16,1.33-.29,2.36,0,.25-.06.52-.09.79l0,.21-.06.49c0,.43-.13.85-.2,1.28-.14.85-.29,1.7-.44,2.56a89.3,89.3,0,0,1-2.56,10.22A89.65,89.65,0,0,1,88,150.5l-.72,1.15-.17.26H78.63l-11,0H64.94a1.09,1.09,0,0,0-.29,0l-.33.07-.61.12-1.23.23a45.37,45.37,0,0,1-4.93.57,44.91,44.91,0,0,1-9.84-.46c-.8-.12-1.61-.27-2.41-.44l-.39-.08H37.74L28,152H19l-.76-1.74c-.3-.72-.59-1.43-.87-2.15-.57-1.43-1.1-2.86-1.6-4.29A126.24,126.24,0,0,1,11.11,127a104.88,104.88,0,0,1-1.95-16c-.07-1.27-.14-2.51-.21-3.74s0-2.42.16-3.6.25-2.33.39-3.46.37-2.23.65-3.3a45.58,45.58,0,0,1,9.72-19.27l1-1.16a6.89,6.89,0,0,1,.52-.56l.74-.77,1.06-1.09.26-.27c.08-.09.24-.2,0-.2l-.73-.15L20.41,73q-2.86-.57-5.47-1l-2.56-.4L12,71.49h0c-.15.05.33-.11.64-.17l1-.23c.64-.12,1.27-.25,1.88-.32a29.19,29.19,0,0,1,3.5-.26,51.25,51.25,0,0,1,5.9.33l1.26.14.57.06c.19,0,.33-.22.49-.31l.95-.72.46-.36.23-.17.12-.09s.1-.06,0-.08L28,68.78l-.88-.52L27,68.14l-.12-.06L26.6,68c-1.2-.64-2.24-1.12-3.15-1.52-1.81-.82-3.08-1.34-4.08-1.75-2.6-1.06-5.08-2-7.43-2.88L7.59,60.23h0l.37,0c.25,0,.5,0,.74,0h1.45a41.28,41.28,0,0,1,5.36.55,74.35,74.35,0,0,1,8.56,2l3.33,1,.94.28c.24.08.48.13.71.2s.41,0,.61.08l1.18.14c-.13-.36-.31-.75-.45-1.11L30,62.22c-.08-.19-.12-.31-.24-.56s-.29-.3-.37-.39c-.33-.24-.64-.5-.94-.7q-.9-.63-1.62-1.08c-1-.62-1.7-1-2.23-1.36l-1.4-.81L22,56.66c-.93-.52-2.55-1.4-5.33-2.81-1.39-.7-3.07-1.52-5.12-2.48-1-.47-2.13-1-3.35-1.5l-1.9-.81-1-.39h0l.6-.06a23.07,23.07,0,0,1,5.42.28,44.42,44.42,0,0,1,12.54,4.35L22,52.33l-1.16-.51-.25-.11a54.8,54.8,0,0,1,6.72,3.45c.88.54,1.84,1.14,2.83,1.86.5.34,1,.72,1.51,1.12.25.2.51.4.76.63l.37.33.19.16.1.09,0,0c-.28.14,2.41-1.18,1.27-.64v0l0-.06a5.71,5.71,0,0,0-.66-1.21c-.19-.3-.39-.62-.6-.93l-1.23-2q-1.26-2-2.57-4.23c-1.74-3-3.54-6.26-5.24-9.86a69.92,69.92,0,0,1-4.46-11.78c.81,2.75,1,3.37.7,2.34-.14-.52-.49-1.44-.79-2.76-.16-.65-.33-1.4-.52-2.23s-.26-1.77-.41-2.77l-.09-.62V22.6h0s0,0,0,0l.07.1.28.41c1.51,2.22,3.24,4.59,5.1,7.11,3.73,5,8,10.67,12.56,16.55h0l3.4,4.4.9,1.15.23.3.11.14,0,0c.57-.36-1.24.86,1.29-.8l0-.08-.31-.65A27.59,27.59,0,0,1,41,48.5a66.14,66.14,0,0,1-3-12.78,69.57,69.57,0,0,1-.55-14.54A35.16,35.16,0,0,1,41.56,6.29c.33-.57.7-1.12,1.07-1.66l.61-.79.06-.08h0s0,0,0,0h0V4l0,1c0,2.82.32,5.66.55,8.53A108.46,108.46,0,0,0,47.1,30.81,69.82,69.82,0,0,0,54,47.37a44.68,44.68,0,0,0,2.45,3.8c.44.61.87,1.24,1.33,1.84l1.45,1.74c.25.29.48.59.74.87l.8.81c.53.54,1.05,1.1,1.61,1.61a32.62,32.62,0,0,0,3.57,2.83l.93.65,1,.57c.66.36,1.34.76,2,1.09l3.88,2c1.26.73,2.5,1.5,3.74,2.24s2.4,1.62,3.59,2.42a50.66,50.66,0,0,1,12,11.78,39.5,39.5,0,0,1,6.41,14.66c.12.64.25,1.28.37,1.92.08.31.1.64.15,1l.06.45,0,.16c0,.1,0,.2,0,.3.1.79.2,1.44.21,1.83A30.1,30.1,0,0,0,101.31,107.45Z"/><ellipse class="cls-26" cx="37.58" cy="110.72" rx="9.62" ry="9.13" transform="translate(-78.48 96.5) rotate(-64.27)"/><ellipse class="cls-27" cx="37.53" cy="111.64" rx="9.73" ry="9.24" transform="translate(-79.33 96.97) rotate(-64.27)"/><ellipse class="cls-28" cx="37.51" cy="112.31" rx="6.83" ry="6.78" transform="translate(-59.28 44.11) rotate(-36.36)"/><ellipse class="cls-10" cx="33.86" cy="108.55" rx="3.38" ry="3.42"/><path class="cls-29" d="M53.84,136.28c-3.41-9.94-10-6.63-13.81-9.66a1.28,1.28,0,0,1,.33-2.16l3.07-.82c2.8-.37,5.35-3.67,7-6.39,1-1.72,2.34-5.37,4.71-5.27h.35c2.37-.1,3.69,3.55,4.71,5.27C61.79,120,64,123.59,66.76,124l3.45.5a1.28,1.28,0,0,1,.33,2.16c-3.83,3-10.4-.28-13.81,9.66-.16.47-.78,1.44-1.41,1.45S54,136.77,53.84,136.28Z"/><path class="cls-28" d="M36.68,101.66c-.24-.65-.36-1-.78-1.26a8.54,8.54,0,0,1-1.46-1.07,9.81,9.81,0,0,1-1-1,8.76,8.76,0,0,1-.77-1.19A10.87,10.87,0,0,0,31,94.38c-.44.51-.12,2.74.32,3.51a10.22,10.22,0,0,0,.92,1.4,11.06,11.06,0,0,0,1.14,1.24,10.23,10.23,0,0,0,1.75,1.27A1.55,1.55,0,0,0,36.68,101.66Z"/><path class="cls-28" d="M35,101.91a3.83,3.83,0,0,0-1.64-1.07A7.81,7.81,0,0,1,31,99.74a8,8,0,0,1-1.48-1.37,10.33,10.33,0,0,1-1.16-1.69c-.53-1-1.57-3.51-2.21-4.08-.45.72.08,3.82.7,4.91a11.85,11.85,0,0,0,1.36,2A9.74,9.74,0,0,0,30,101.15a9.09,9.09,0,0,0,2.85,1.36A2.16,2.16,0,0,0,35,101.91Z"/><path class="cls-28" d="M33.06,102.71c-.66-.39-.9-.62-1.42-.67a5.55,5.55,0,0,1-1.88-.54,9.13,9.13,0,0,1-1.4-.82,13.29,13.29,0,0,1-1.28-1.05c-.65-.59-2.26-2.14-3-2.28-.15.73,1.12,2.85,1.85,3.51a15.56,15.56,0,0,0,1.46,1.19,10.8,10.8,0,0,0,1.65,1,6.76,6.76,0,0,0,2.48.68A1.55,1.55,0,0,0,33.06,102.71Z"/><path class="cls-28" d="M73.77,101.66c.23-.65.36-1,.78-1.26A9,9,0,0,0,76,99.33a9.81,9.81,0,0,0,1-1,8.76,8.76,0,0,0,.77-1.19,10.6,10.6,0,0,1,1.73-2.73c.44.51.12,2.74-.32,3.51a10.22,10.22,0,0,1-.92,1.4,10.63,10.63,0,0,1-1.15,1.24,9.5,9.5,0,0,1-1.75,1.27A1.53,1.53,0,0,1,73.77,101.66Z"/><path class="cls-28" d="M75.49,101.91a3.86,3.86,0,0,1,1.63-1.07,7.84,7.84,0,0,0,2.29-1.1,8.46,8.46,0,0,0,1.48-1.37A9.94,9.94,0,0,0,82,96.68c.53-1,1.58-3.51,2.22-4.08.45.72-.08,3.82-.7,4.91a12.57,12.57,0,0,1-1.36,2,9.61,9.61,0,0,1-1.79,1.65,9,9,0,0,1-2.84,1.36A2.16,2.16,0,0,1,75.49,101.91Z"/><path class="cls-28" d="M77.38,102.71c.67-.39.91-.62,1.42-.67a5.59,5.59,0,0,0,1.89-.54,9.13,9.13,0,0,0,1.4-.82,13.29,13.29,0,0,0,1.28-1.05c.65-.59,2.25-2.14,3-2.28.15.73-1.12,2.85-1.86,3.51A15.56,15.56,0,0,1,83,102.05a10.22,10.22,0,0,1-1.65,1,6.72,6.72,0,0,1-2.47.68A1.55,1.55,0,0,1,77.38,102.71Z"/><ellipse class="cls-26" cx="74.31" cy="110.72" rx="9.62" ry="9.13" transform="translate(-57.69 129.59) rotate(-64.27)"/><ellipse class="cls-27" cx="74.26" cy="111.64" rx="9.73" ry="9.24" transform="translate(-58.55 130.06) rotate(-64.27)"/><ellipse class="cls-28" cx="74.24" cy="112.31" rx="6.83" ry="6.78" transform="translate(-52.13 65.89) rotate(-36.36)"/><ellipse class="cls-10" cx="70.59" cy="108.55" rx="3.38" ry="3.42"/></symbol><symbol id="Bird_Body_MASTER_1_6" data-name="Bird_Body_MASTER_1 6" viewBox="0 0 90.52 160.76"><path class="cls-1" d="M40.78,120.78l-.21.51c-1.42-5.47-2.25-21.71-2.28-26.38l-6,1.14a244.38,244.38,0,0,0,5.26,25.38s0,.93,0,.94c-3.84,4.57-12.41,17.54-13.68,19-1.86,2.13-3.57,6.1-4.45,8.89a6,6,0,0,0-.31,3.19c.26,1,1.2,2,2.16,1.72l.4-.81a19.1,19.1,0,0,0-.19,2.4,3.79,3.79,0,0,0,1,3,2.21,2.21,0,0,0,2.55,0,7.21,7.21,0,0,0,1.91-2.08l.33-.82c.61,1.82,2.28,3.28,3.9,2.66,2.15-.83,2.3-4.08,2.22-6.61a57.35,57.35,0,0,1,3.1-20.67c.59-1.71,1.42-3.55,3-4.14.63-.23,1.33-.24,2-.51C45.44,125.83,44.86,121.75,40.78,120.78Z"/><path class="cls-1" d="M71.46,150.39c-.88-2.8-2.59-6.77-4.44-8.89-1.28-1.47-9.85-14.43-13.69-19,0,0,0-1,0-1a241.06,241.06,0,0,0,5.26-25.37l-6-1.15c0,4.68-.86,20.92-2.28,26.38l-.21-.51c-4.08,1-4.66,5-.66,6.76.63.27,1.33.27,2,.51,1.56.58,2.39,2.43,3,4.14A57.32,57.32,0,0,1,57.52,153c-.08,2.53.07,5.78,2.22,6.6,1.63.63,3.29-.83,3.9-2.65l.33.82a7.63,7.63,0,0,0,1.91,2.08,2.21,2.21,0,0,0,2.55,0,3.82,3.82,0,0,0,1-3,17.37,17.37,0,0,0-.19-2.39l.4.81c1,.22,1.9-.68,2.16-1.73A6,6,0,0,0,71.46,150.39Z"/><path d="M40.49,121.27c1.28.32,2.71,1.09,3,2.51a3,3,0,0,1-1.86,3c-.88.48-1.88.46-2.76.88a4.61,4.61,0,0,0-1.72,1.59,18.55,18.55,0,0,0-2.09,5.3,57.67,57.67,0,0,0-2.24,13.11c-.12,2.08,0,4.15,0,6.23,0,1.46-.05,3.36-1.1,4.5-1.55,1.69-3.56-.21-4.07-1.84-.74-2.38.58-4.92,1.64-7,.3-.58-.58-1.09-.88-.51-1.06,2.06-2.18,4.34-1.95,6.73a4.83,4.83,0,0,0,3.1,4.19,3.16,3.16,0,0,0,3.66-2.12,13.08,13.08,0,0,0,.6-5.39,57.4,57.4,0,0,1,1.58-15.06,31.4,31.4,0,0,1,2.19-6.78,4,4,0,0,1,2-2.12,15.08,15.08,0,0,1,1.64-.4,5.74,5.74,0,0,0,1.37-.65,3.9,3.9,0,0,0,2-4c-.36-1.76-2-2.81-3.68-3.23a.51.51,0,0,0-.27,1Z"/><path d="M26.58,157.49c-.71,1-2.07,2.91-3.53,2.09-1.23-.68-1-2.81-.9-4a16.1,16.1,0,0,1,3.2-8.39c.39-.52-.49-1-.88-.51a16.81,16.81,0,0,0-3.38,10.54c.05,1.49.57,3.26,2.28,3.49,1.88.25,3.13-1.38,4.09-2.73.38-.54-.5-1-.88-.52Z"/><path d="M21,154.59c-.73.12-1.26-.71-1.42-1.3a5,5,0,0,1,.24-2.65,13.59,13.59,0,0,1,.57-1.5,47,47,0,0,1,3-5.54c1.63-2.69,3.49-5.22,5.31-7.79q4.35-6.13,8.71-12.28a5.17,5.17,0,0,0,.91-1.35,2.82,2.82,0,0,0-.24-1.19c-.24-.87-.46-1.76-.68-2.64-.54-2.22-1-4.45-1.51-6.68-1.08-5-2.13-10.15-2.81-15.28l-.44.59,5.67-1.49-.77-.58c0,3.25.21,6.52.41,9.77.25,4.1.56,8.21,1.1,12.29a34.76,34.76,0,0,0,.89,4.85.61.61,0,0,0,1.17-.33,52.27,52.27,0,0,1-1.42-9.81c-.37-4-.62-8.06-.8-12.1-.07-1.55-.13-3.11-.14-4.67a.61.61,0,0,0-.76-.59l-5.67,1.49a.62.62,0,0,0-.45.58A214.26,214.26,0,0,0,36,117.7c.36,1.5.72,3,1.15,4.48l.07-.46L26.29,137.11a68,68,0,0,0-6.9,11.29,12.13,12.13,0,0,0-1.06,3.37c-.24,1.84.71,4.36,3,4,.76-.12.44-1.29-.32-1.16Z"/><path d="M50.15,120.41a4.9,4.9,0,0,0-3.53,2.72,3.54,3.54,0,0,0,.88,3.73,5.68,5.68,0,0,0,2.2,1.37c.57.19,1.19.21,1.75.43a3,3,0,0,1,1.12.82A8.6,8.6,0,0,1,54,132.19c.41,1.14.76,2.3,1.09,3.47a57.38,57.38,0,0,1,2.11,15,32,32,0,0,0,.18,6.11c.31,1.53,1.16,3.17,2.85,3.46,2.06.35,3.72-1.68,4.17-3.48.64-2.61-.66-5.25-1.82-7.5-.3-.59-1.18-.07-.88.51,1,1.91,2.13,4.13,1.79,6.35-.22,1.46-1.62,3.66-3.38,3-1.47-.52-1.79-2.43-1.89-3.77-.16-1.92,0-3.85,0-5.77a58.84,58.84,0,0,0-1.86-13.19,33.81,33.81,0,0,0-1.9-5.79,6.6,6.6,0,0,0-1.39-2.08,4.42,4.42,0,0,0-2.31-1.08c-1.51-.3-3.34-1.39-3.32-3.14s1.61-2.56,3-2.91a.51.51,0,0,0-.27-1Z"/><path d="M63.73,158c1,1.35,2.21,3,4.09,2.73,1.71-.23,2.23-2,2.28-3.49a16.81,16.81,0,0,0-3.38-10.54c-.39-.52-1.27,0-.88.51a16.13,16.13,0,0,1,3.2,8.39c.09,1.14.32,3.19-.82,3.93-1.47.94-2.9-1-3.61-2-.38-.53-1.26,0-.88.52Z"/><path d="M69.6,155.88c1.89.32,3-1.54,3-3.21a9.22,9.22,0,0,0-.84-3.5,50.37,50.37,0,0,0-4-7.35c-2.35-3.74-5.07-7.27-7.62-10.87-2.15-3-4.31-6.07-6.45-9.11l.06.47c.87-3,1.53-6,2.19-9.1q1.24-5.68,2.26-11.41c.31-1.76.6-3.51.83-5.28a.6.6,0,0,0-.44-.58l-5.67-1.49a.61.61,0,0,0-.77.58c0,3.21-.2,6.42-.4,9.62-.25,4.07-.55,8.14-1.07,12.18a32.57,32.57,0,0,1-.89,4.79.61.61,0,0,0,1.17.32,54,54,0,0,0,1.45-10c.37-4.07.63-8.16.81-12.25.07-1.56.13-3.12.14-4.68l-.77.59,5.67,1.48-.44-.58c-.59,4.52-1.5,9-2.43,13.48-.49,2.36-1,4.72-1.55,7.07-.22.94-.45,1.88-.69,2.81-.1.4-.21.8-.31,1.19a2.85,2.85,0,0,0-.26,1.24,5.35,5.35,0,0,0,.91,1.35l1.1,1.54,2.29,3.24,4.41,6.21c1.66,2.35,3.43,4.66,5,7.09a61.83,61.83,0,0,1,4,7,17.44,17.44,0,0,1,.69,1.68,6.24,6.24,0,0,1,.41,2.59c-.09.7-.6,1.82-1.48,1.68s-1.09,1-.33,1.16Z"/><path class="cls-2" d="M15.63,11.08,12.1,44.65c-1,22.38,8.83,40.63,16.82,53.67.89,1.46,1.38,3.18,2.61,4.38a4.51,4.51,0,0,0,4.69,1.22c1.86-.77,2.59-3,3.1-4.92,1.44-5.4,3.7-16,4.92-21a.94.94,0,0,1,1.82,0c1.86,6.54,4,14.5,5.73,21,.52,1.94,1.25,4.15,3.11,4.92a4.51,4.51,0,0,0,4.69-1.22,13,13,0,0,0,2.61-4.38C68.82,83,79.68,67.62,78.8,47.74L73.94,10.63"/><path d="M14.94,11.08,13.45,25.27,11.52,43.6a55.64,55.64,0,0,0,.22,11.68,81.37,81.37,0,0,0,4.11,18.14A112.11,112.11,0,0,0,22.73,89c1.21,2.28,2.49,4.54,3.81,6.76.62,1,1.27,2.07,1.88,3.12a27.35,27.35,0,0,0,2.22,3.91c1.78,2.15,5.2,3,7.29.81,1.7-1.77,2.12-4.53,2.68-6.82,1.27-5.18,2.4-10.4,3.6-15.6l.36-1.59.18-.72a2.13,2.13,0,0,1,.19-.76c.33-.38.5.22.57.47l.66,2.35q1.36,4.92,2.7,9.86c.83,3.09,1.57,6.21,2.49,9.28.79,2.59,2.45,5.25,5.56,4.78s4.73-3.48,5.88-6.14,2.33-5.12,3.56-7.64c2.59-5.28,5.28-10.51,7.55-15.94A71.73,71.73,0,0,0,79,57.64a40.68,40.68,0,0,0,.38-10.85l-2.31-17.6-2.3-17.56-.13-1c-.11-.87-1.5-.88-1.38,0l1.69,12.95,2.64,20.14c.18,1.34.41,2.68.53,4a42,42,0,0,1-.4,9.1,59.1,59.1,0,0,1-1.87,8.74c-3.24,11.19-9.33,21.18-14,31.8-1.07,2.43-2.44,6.15-5.68,6.1-3,0-3.57-4.1-4.15-6.28-1.7-6.39-3.42-12.77-5.22-19.13a1.94,1.94,0,0,0-.87-1.3,1.67,1.67,0,0,0-1.61,0c-.88.51-.95,1.78-1.16,2.68q-.86,3.71-1.69,7.43c-.6,2.66-1.2,5.33-1.84,8q-.39,1.65-.81,3.3a14.66,14.66,0,0,1-1.24,3.53,3.11,3.11,0,0,1-3.21,1.75,4.87,4.87,0,0,1-3.31-2.5c-.73-1.24-1.3-2.55-2.05-3.79-.61-1-1.22-2-1.82-3.06a133,133,0,0,1-7.32-14.19A88.94,88.94,0,0,1,14.37,63,73.82,73.82,0,0,1,13,53.55a57.73,57.73,0,0,1-.17-8.92c.39-4.79,1-9.57,1.52-14.36l1.9-18.12.12-1.07c.09-.89-1.3-.88-1.39,0Z"/><path class="cls-3" d="M78,66.21c-21.61,8-48.41,2.59-66.8-11.17a1.15,1.15,0,0,1-.46-.83V46.66a1.17,1.17,0,0,1,1.85-1C30.8,58.37,57,64.74,77.89,57.16a1.17,1.17,0,0,1,1.55.84l-.67,6.87A1.17,1.17,0,0,1,78,66.21Z"/><ellipse id="SVGID" class="cls-4" cx="42.7" cy="63.61" rx="2.92" ry="2.88"/><ellipse id="SVGID-2" data-name="SVGID" class="cls-5" cx="28.3" cy="59.07" rx="2.92" ry="2.88"/><ellipse id="SVGID-3" data-name="SVGID" class="cls-6" cx="16.5" cy="52.95" rx="2.92" ry="2.88"/><ellipse id="SVGID-4" data-name="SVGID" class="cls-7" cx="50.1" cy="64.87" rx="2.92" ry="2.88"/><ellipse id="SVGID-5" data-name="SVGID" class="cls-8" cx="35.62" cy="62.05" rx="2.92" ry="2.88"/><ellipse id="SVGID-6" data-name="SVGID" class="cls-9" cx="22.17" cy="56.4" rx="2.92" ry="2.88"/><path class="cls-10" d="M85,68.37c0-3.57-5.49-6.47-12.26-6.47s-12.49,2.9-12.49,6.47,5.71,6.48,12.49,6.48S85,72,85,68.37Z"/><path class="cls-11" d="M85,68.37c0-3.57-5.49-6.47-12.26-6.47s-12.49,2.9-12.49,6.47,5.71,6.48,12.49,6.48S85,72,85,68.37Z"/><path class="cls-12" d="M85,68.37c0-3.57-5.49-6.47-12.26-6.47s-12.49,2.9-12.49,6.47,5.71,6.48,12.49,6.48S85,72,85,68.37Z"/><path class="cls-13" d="M85.27,68c0,.4.07.8.07,1.2,0,6.7-5.72,12.13-12.78,12.13S59.79,75.9,59.79,69.2q0-.6.06-1.2Z"/><line class="cls-14" x1="59.83" y1="69.85" x2="85.29" y2="69.85"/><path class="cls-15" d="M38.67,6.52C37,15.23,37.53,23.33,38,32.18c.29,5.13.92,10.32-.13,15.35A5.56,5.56,0,0,1,36.09,51a5.81,5.81,0,0,1-2.71.86c-5.14.66-16.22-.72-22.19-1.57a2,2,0,0,1-1.6-2.88c1.43-3-7.36-12.65-3.91-39.68-.22.11,7.57,3.07,12.88,2.86C28.42,10.19,38.67,6.52,38.67,6.52Z"/><path d="M38.05,6.35a78.66,78.66,0,0,0-1.11,16c.12,5.46.61,10.89.84,16.34a36.2,36.2,0,0,1-.41,8.19A6.79,6.79,0,0,1,36.19,50a4.47,4.47,0,0,1-3,1.21,54.22,54.22,0,0,1-11.1-.3c-2.07-.19-4.14-.42-6.2-.67l-2.76-.36a5.9,5.9,0,0,1-2.48-.52,1.48,1.48,0,0,1-.36-1.9,2.51,2.51,0,0,0,.14-.66,5.28,5.28,0,0,0-.15-1.48c-.32-1.43-.86-2.82-1.32-4.21A67.59,67.59,0,0,1,7,34.46,74.18,74.18,0,0,1,5.89,11.62c.12-1.3.27-2.6.43-3.9.07-.58-.73-.81-1.09-.45-1.11,1.09,2.6,2,3.07,2.14a38.25,38.25,0,0,0,7.77,1.71,37.15,37.15,0,0,0,9.58-.66,83.38,83.38,0,0,0,8.86-2c1.45-.41,2.91-.84,4.33-1.35.77-.27.43-1.5-.34-1.23A74.4,74.4,0,0,1,27.85,8.76,53.61,53.61,0,0,1,18.24,10a27.35,27.35,0,0,1-7.4-1.12c-1.12-.3-2.24-.64-3.34-1L6.44,7.4a1.23,1.23,0,0,0-.24-.1c-.38-.09.06-.43.12.42l-.19.45h0L5,7.72A80.65,80.65,0,0,0,5.43,33a63.4,63.4,0,0,0,1.91,7.44C7.85,42,8.45,43.6,8.88,45.21c.07.26.13.53.18.8s0,0,0,.24,0,.23,0,.34,0,.18,0,.27c0-.22,0,.08,0,.16a.21.21,0,0,1,0,.11c.08-.24-.08.19-.1.25a2.63,2.63,0,0,0,1.54,3.36,11.32,11.32,0,0,0,2.59.44q3,.41,6,.74a87.67,87.67,0,0,0,12.23.72c1.85-.06,4.1-.12,5.53-1.44,1.76-1.63,2-4.65,2.16-6.87a57.73,57.73,0,0,0-.09-8.42c-.18-2.82-.36-5.64-.49-8.46a102.47,102.47,0,0,1,.25-16.62c.16-1.39.37-2.77.62-4.14C39.43,5.89,38.2,5.54,38.05,6.35Z"/><path class="cls-16" d="M51.85,6.52c1.63,8.71,1.14,16.81.65,25.66-.28,5.13-.92,10.32.14,15.35A5.47,5.47,0,0,0,54.44,51a5.77,5.77,0,0,0,2.71.86c5.13.66,16.21-.72,22.19-1.57a2,2,0,0,0,1.59-2.88c-1.43-3,7.37-12.65,3.91-39.68.22.11-7.57,3.07-12.88,2.86C62.1,10.19,51.85,6.52,51.85,6.52Z"/><path d="M51.24,6.69a78.89,78.89,0,0,1,1,16.6c-.08,2.85-.24,5.68-.4,8.52s-.41,5.62-.46,8.44a29.43,29.43,0,0,0,.76,8.1,5.81,5.81,0,0,0,1.51,2.85,5.63,5.63,0,0,0,3.17,1.25,51.51,51.51,0,0,0,11.44-.21q3.2-.3,6.38-.7l2.87-.37a10.35,10.35,0,0,0,2.6-.46,2.62,2.62,0,0,0,1.46-3.33c0-.08-.18-.49-.1-.23,0,0,0-.1-.05-.14s0-.3,0-.2,0-.17,0-.24,0-.21,0-.32,0,0,0-.24a33,33,0,0,1,1.26-4.14c.74-2.23,1.41-4.48,1.94-6.77a75.56,75.56,0,0,0,1.25-23.48c-.12-1.3-.27-2.6-.43-3.9l-1.09.45h0l-.18-.45c.05-.81.49-.54.15-.44a1.28,1.28,0,0,0-.24.11l-.79.3c-.92.33-1.85.63-2.8.9A31.28,31.28,0,0,1,73.1,9.94a43.66,43.66,0,0,1-9.39-1c-2.65-.49-5.28-1.12-7.87-1.86-1.28-.37-2.56-.75-3.82-1.2-.77-.27-1.1,1-.33,1.23A75.33,75.33,0,0,0,63.8,10.27a41.39,41.39,0,0,0,9.8.92,35.63,35.63,0,0,0,7.86-1.54c1-.3,2-.61,2.9-1,.49-.2,1.67-.67.93-1.39-.35-.35-1.16-.13-1.09.45a80.09,80.09,0,0,1-.27,24.63,64.57,64.57,0,0,1-1.85,7.37c-.51,1.6-1.1,3.17-1.56,4.78a5,5,0,0,0-.24,3,1.47,1.47,0,0,1-.36,1.9,5.85,5.85,0,0,1-2.47.52c-1.94.26-3.87.5-5.81.71a90.57,90.57,0,0,1-12,.75c-1.69,0-4.15.06-5.32-1.34a6.64,6.64,0,0,1-1.18-3.15,26.9,26.9,0,0,1-.44-4.11A77,77,0,0,1,53,34.59c.18-2.74.33-5.47.45-8.21a96.43,96.43,0,0,0-.36-16c-.16-1.34-.37-2.67-.61-4C52.32,5.54,51.09,5.88,51.24,6.69Z"/><rect class="cls-17" x="29.89" y="5.75" width="31.66" height="12.14"/><rect class="cls-17" x="29.89" y="9.2" width="31.66" height="5.23"/><path class="cls-18" d="M3.85,1.55C3.44,7.7,2.71,13.48.65,19.14c11.82,4.67,20.52,4.34,32.5,4.87.12-1.64,1.32-13.59,6.32-20.78C24.53,5.26,10.21,2.07,3.89.63"/><path d="M3.21,1.55A63.24,63.24,0,0,1,0,19a.65.65,0,0,0,.45.78,61.2,61.2,0,0,0,12.9,3.55,105.7,105.7,0,0,0,12.19,1.06c2.52.1,5.05.18,7.58.29a.65.65,0,0,0,.64-.64A51.66,51.66,0,0,1,37.26,8.79,27,27,0,0,1,40,3.55a.64.64,0,0,0-.55-1c-10,1.35-20.25.51-30.15-1.44C7.56.8,5.81.41,4.06,0c-.8-.18-1.14,1.05-.34,1.23A115.19,115.19,0,0,0,29.66,4.52a76.6,76.6,0,0,0,9.81-.65l-.55-1a33.25,33.25,0,0,0-4.33,9.78,61.7,61.7,0,0,0-1.8,8.83c-.12.83-.22,1.66-.28,2.49l.64-.63C24.79,23,16.37,23,8.21,20.94A63.8,63.8,0,0,1,.82,18.52l.44.79A64.64,64.64,0,0,0,4.49,1.55c0-.82-1.22-.81-1.28,0Z"/><path class="cls-19" d="M86.67,1.55c.42,6.15,1.14,11.93,3.21,17.59C78.05,23.81,69.35,23.48,57.38,24c-.13-1.64-1.33-13.59-6.33-20.78C66,5.26,80.31,2.07,86.64.63"/><path d="M86,1.55a64.62,64.62,0,0,0,3.22,17.76l.45-.79A61.08,61.08,0,0,1,77,22a103,103,0,0,1-12.16,1.05c-2.49.1-5,.18-7.47.29L58,24A52.84,52.84,0,0,0,54.42,8.28,27.23,27.23,0,0,0,51.6,2.91l-.55,1c10.13,1.35,20.43.48,30.42-1.48C83.25,2,85,1.65,86.8,1.25c.81-.18.47-1.41-.33-1.23A114.44,114.44,0,0,1,60.75,3.25a76.85,76.85,0,0,1-9.7-.66.64.64,0,0,0-.55,1,32.17,32.17,0,0,1,4.22,9.57,61.48,61.48,0,0,1,1.76,8.51c.1.79.2,1.59.26,2.38a.64.64,0,0,0,.64.64c8.43-.37,16.93-.36,25.16-2.46a59.82,59.82,0,0,0,7.51-2.44.64.64,0,0,0,.44-.78A63.61,63.61,0,0,1,87.31,1.55c0-.81-1.33-.82-1.27,0Z"/></symbol></defs><g id="Birds"><use width="174.03" height="140.88" transform="translate(71.62 147.98) scale(0.96)" xlink:href="#Bird_Body_MASTER_1_7"/><use width="102.02" height="154.58" transform="translate(98.29 3.23) scale(0.96)" xlink:href="#Bird_Head_1_6"/><use width="90.52" height="160.76" transform="translate(106.09 139.65) scale(0.96)" xlink:href="#Bird_Body_MASTER_1_6"/></g></svg>