<svg xmlns="http://www.w3.org/2000/svg" xmlns:xlink="http://www.w3.org/1999/xlink" viewBox="0 0 300 300"><defs><style>.cls-1{fill:#c5fae8;}.cls-2{fill:url(#New_Gradient_Swatch_17);}.cls-10,.cls-11,.cls-13,.cls-17,.cls-26,.cls-3{fill:#fff;}.cls-12,.cls-13,.cls-14,.cls-17,.cls-20,.cls-24,.cls-25,.cls-28,.cls-3{stroke:#000;}.cls-11,.cls-12,.cls-13,.cls-14,.cls-17,.cls-3{stroke-linecap:round;}.cls-11,.cls-12,.cls-13,.cls-14,.cls-17,.cls-20,.cls-24,.cls-25,.cls-26,.cls-28,.cls-3{stroke-miterlimit:10;}.cls-4{fill:url(#radial-gradient);}.cls-5{fill:url(#radial-gradient-2);}.cls-6{fill:url(#radial-gradient-3);}.cls-7{fill:url(#New_Gradient_Swatch_1);}.cls-8{fill:url(#New_Gradient_Swatch_1-2);}.cls-9{fill:url(#New_Gradient_Swatch_1-3);}.cls-11,.cls-26{stroke:#231f20;}.cls-11{stroke-width:0.56px;}.cls-12,.cls-14,.cls-20{fill:none;}.cls-12,.cls-13{stroke-width:1.25px;}.cls-14{stroke-width:0.85px;}.cls-15{fill:url(#radial-gradient-4);}.cls-16{fill:url(#radial-gradient-5);}.cls-17{stroke-width:0.71px;}.cls-18{fill:url(#radial-gradient-6);}.cls-19{fill:url(#radial-gradient-7);}.cls-20{stroke-width:1.38px;}.cls-21{fill:url(#New_Gradient_Swatch_17-2);}.cls-22{fill:#202020;}.cls-23{fill:url(#New_Gradient_Swatch_17-3);}.cls-24{fill:url(#radial-gradient-8);}.cls-25{fill:#74af98;}.cls-26{stroke-width:1.63px;}.cls-27{fill:#231f20;}.cls-28{fill:#41826c;}</style><radialGradient id="New_Gradient_Swatch_17" cx="45.52" cy="41.21" fy="-1.297475759200566" r="89.32" gradientUnits="userSpaceOnUse"><stop offset="0.42" stop-color="#1ba873"/><stop offset="0.76" stop-color="#7eebc2"/></radialGradient><radialGradient id="radial-gradient" cx="-24499.13" cy="-13169.01" r="14.12" gradientTransform="matrix(0.2, 0.04, -0.04, 0.2, 4567.04, 3573.29)" gradientUnits="userSpaceOnUse"><stop offset="0.28" stop-color="#fff"/><stop offset="0.41" stop-color="#fbfbfb"/><stop offset="0.54" stop-color="#efefef"/><stop offset="0.67" stop-color="#dadada"/><stop offset="0.8" stop-color="#bebebe"/><stop offset="0.93" stop-color="#9a9a9a"/><stop offset="0.95" stop-color="#949494"/></radialGradient><radialGradient id="radial-gradient-2" cx="-24434.3" cy="-13202.89" r="14.12" xlink:href="#radial-gradient"/><radialGradient id="radial-gradient-3" cx="-24383.17" cy="-13242.24" r="14.12" xlink:href="#radial-gradient"/><radialGradient id="New_Gradient_Swatch_1" cx="-520.99" cy="2199.29" r="2.88" gradientTransform="matrix(1, 0.17, -0.17, 0.99, 943.98, -2013.25)" gradientUnits="userSpaceOnUse"><stop offset="0.07" stop-color="#919191"/><stop offset="0.21" stop-color="#828283"/><stop offset="0.47" stop-color="#5c5c60"/><stop offset="0.83" stop-color="#1f1f27"/><stop offset="1" stop-color="#00000a"/></radialGradient><radialGradient id="New_Gradient_Swatch_1-2" cx="-507.4" cy="2194.05" r="2.88" xlink:href="#New_Gradient_Swatch_1"/><radialGradient id="New_Gradient_Swatch_1-3" cx="-495.3" cy="2186.21" r="2.88" xlink:href="#New_Gradient_Swatch_1"/><radialGradient id="radial-gradient-4" cx="21.77" cy="29.27" fy="4.7292750409253514" r="43.04" gradientUnits="userSpaceOnUse"><stop offset="0.21" stop-color="#fff"/><stop offset="0.28" stop-color="#f7feff"/><stop offset="0.38" stop-color="#e3fdff"/><stop offset="0.51" stop-color="#c1faff"/><stop offset="0.66" stop-color="#92f5ff"/><stop offset="0.71" stop-color="#81f4ff"/></radialGradient><radialGradient id="radial-gradient-5" cx="68.75" cy="29.27" fy="-12.6772803234714" r="71.76" gradientUnits="userSpaceOnUse"><stop offset="0.27" stop-color="#fff"/><stop offset="0.31" stop-color="#f7feff"/><stop offset="0.37" stop-color="#e3fdff"/><stop offset="0.44" stop-color="#c1faff"/><stop offset="0.53" stop-color="#92f5ff"/><stop offset="0.55" stop-color="#81f4ff"/></radialGradient><radialGradient id="radial-gradient-6" cx="20.06" cy="12.32" fy="4.465994859433895" r="21.14" gradientTransform="translate(0 -2.07) scale(1 1.17)" gradientUnits="userSpaceOnUse"><stop offset="0.34" stop-color="#fff"/><stop offset="0.43" stop-color="#f7feff"/><stop offset="0.57" stop-color="#e3fdff"/><stop offset="0.74" stop-color="#c1faff"/><stop offset="0.94" stop-color="#92f5ff"/><stop offset="1" stop-color="#81f4ff"/></radialGradient><radialGradient id="radial-gradient-7" cx="70.46" cy="12.32" fy="2.7217094565599123" r="34.01" gradientTransform="translate(0 -1.22) scale(1 1.1)" gradientUnits="userSpaceOnUse"><stop offset="0.15" stop-color="#fff"/><stop offset="0.2" stop-color="#f7feff"/><stop offset="0.29" stop-color="#e3fdff"/><stop offset="0.4" stop-color="#c1faff"/><stop offset="0.52" stop-color="#92f5ff"/><stop offset="0.55" stop-color="#81f4ff"/></radialGradient><radialGradient id="New_Gradient_Swatch_17-2" cx="-1989.2" cy="1460.22" fx="-2038.819830008561" fy="1423.665270303797" r="79.51" gradientTransform="translate(1860.28 -1277.7) scale(0.85 0.99)" xlink:href="#New_Gradient_Swatch_17"/><radialGradient id="New_Gradient_Swatch_17-3" cx="22800.14" cy="1460.22" fx="22750.516338799847" fy="1423.6652700054228" r="79.51" gradientTransform="matrix(-0.85, 0, 0, 0.99, 19398.58, -1277.7)" xlink:href="#New_Gradient_Swatch_17"/><radialGradient id="radial-gradient-8" cx="83.83" cy="64.15" fy="21.42715719789541" r="64.25" gradientUnits="userSpaceOnUse"><stop offset="0.17" stop-color="#7eebc2"/><stop offset="0.33" stop-color="#66dbaf"/><stop offset="0.66" stop-color="#2ab27f"/><stop offset="0.74" stop-color="#1ba873"/></radialGradient><symbol id="Bird_Body_MASTER_1_13" data-name="Bird_Body_MASTER_1 13" viewBox="0 0 223.24 232.68"><path class="cls-20" d="M36.48,193.8"/><path class="cls-20" d="M162.18,188.39"/><path class="cls-21" d="M129.91,148.72c-1.49,13.58-4.69,40.88,10.91,30.4-7.91,24.12,5.38,28.36,6.8,26.51a37.78,37.78,0,0,0-1.51,12s4.93-3.1,7-6.29c.24,2.34-2.09,11.53-2.09,11.53s9.49-6.5,12.94-13.17c-2.35,6-1.81,12.32-2.69,19.11-.05.41.26.71.49.47,4.29-4.44,7.6-11.09,9.26-18.64a105.76,105.76,0,0,1-2.25,19c6.45-7.38,9.65-25.11,9.15-32.61a87.56,87.56,0,0,1,3.67,18.26,72.51,72.51,0,0,0,1.14-29.4A57.63,57.63,0,0,1,198,203.64a62.83,62.83,0,0,0-5.7-27.12A64.48,64.48,0,0,1,210.68,192,58.56,58.56,0,0,0,200,170.06a66.5,66.5,0,0,1,21.79,5.78C215.93,161,204.16,154.2,193,152.16c6.83-3.37,17.89-6,25-7.29-3.12-5.7-11.45-9.05-16.27-9-7,.08-17.18,8-20.92,10.71a41.86,41.86,0,0,0,5.35-20.16c-6.56,11.4-16.55,15.39-17.91,24.61-1.28,8.65-3,11.18-11.8,15.66.22-17.2,9.17-44.87-6.46-45.67C137,120.36,131.41,135.15,129.91,148.72Z"/><path class="cls-22" d="M129.91,148.72a19.59,19.59,0,0,0-1.32,5.41c-.06.58-.16,1.61-.27,2.85-.3,3.43-.51,7-.47,10.56a46.05,46.05,0,0,0,.36,5.46,18.62,18.62,0,0,0,1.46,5.5,7,7,0,0,0,1.81,2.47,4.8,4.8,0,0,0,3,1.21,3.06,3.06,0,0,0,.8,0c.26,0,.53,0,.78-.08a9.94,9.94,0,0,0,1.47-.41,10.56,10.56,0,0,0,1.38-.58l.66-.34h0v0l-.07.2-.22.82-.38,1.4a52,52,0,0,0-1.06,5.75c-.41,3.88-.33,8,1.37,11.82a11.25,11.25,0,0,0,3.95,4.79,6.85,6.85,0,0,0,3.08,1.16h.32l0,.09a34.65,34.65,0,0,0-1,6c-.09,1-.13,2-.15,3v1.08l0,1.44,0,.36V219s.05,0,.07,0l.6-.39c.39-.25.83-.52,1.2-.79l.83-.58.6-.45c.41-.3.8-.62,1.19-.94a24.3,24.3,0,0,0,2.25-2.07l.05-.05h0l0,.34-.12.72c-.25,1.5-.57,3-.89,4.4-.19.85-.39,1.67-.57,2.45l-.47,1.92-.24.92-.05.23.17-.12.35-.25,1.32-.92,1.23-.89,1.14-.88,1-.78c3.92-3.2,7.5-6.89,9.37-10.27l.18-.31.08-.15v0a13.78,13.78,0,1,0-1.37-.61h0l0,0,0,.08c-.07.22-.15.42-.22.63-.15.4-.26.79-.37,1.15-.22.73-.37,1.36-.49,1.87-.22,1-.29,1.56-.28,1.43a75.33,75.33,0,0,0-.79,8c-.08,1.25-.16,2.44-.25,3.55,0,.27-.06.55-.08.81s-.08.7-.12,1-.05.47-.08.7.07.36.1.53l0,.26a.4.4,0,0,0,.1.17,1,1,0,0,0,.34.3.9.9,0,0,0,.42.13,2.08,2.08,0,0,0,.4-.26l.79-.58a1.57,1.57,0,0,0,.38-.33l.29-.33.38-.45c.46-.57.84-1,1.11-1.43l.42-.59a39.81,39.81,0,0,0,4.69-9.2c.54-1.52,1-3,1.35-4.37.1-.35.17-.69.25-1l.12-.5.06-.24-1.49-.19h0v.23c0,.64-.05,1.25-.08,1.82-.23,4.6-.56,6.94-.35,5h0c-.14,1.58-.33,3.15-.54,4.67-.11.76-.23,1.5-.34,2.24l-.18,1.09-.3,1.66c-.07.33-.13.67-.19,1s-.15.72-.23,1.08c-.14.7-.29,1.4-.43,2.09l-.21,1,0,.13v.06l0,0,.12-.16.27-.35,1.08-1.38c.34-.45.73-.91,1-1.31l.82-1.2.78-1.13.19-.27.09-.18c.07-.11.13-.23.19-.34.49-.9.9-1.68,1.17-2.32s.52-1.11.63-1.4c.22-.6.19-.39-.35.78a68.33,68.33,0,0,0,4.68-17.1,54.8,54.8,0,0,0,.62-7.58c0-.29,0-.59,0-.87V197l-1.46.28h0v0l.46,1.51c.29,1,.54,1.91.77,2.78.89,3.47,1.31,5.93,1.48,6.88s.08.38-.4-2.11c.36,1.8.66,3.59.89,5.33.12.86.22,1.72.31,2.55l.06.62,0,.31,0,.15v0c2.94.22.82,0,1.48.1h0v0l0-.07c.1-.41.19-.8.29-1.2a69.76,69.76,0,0,0,1.37-7.95c.22-2,.29-3.37.32-3.64s0,.51-.22,2.64h0a74.67,74.67,0,0,0,.1-13.68c-.11-1.09-.21-2.15-.36-3.2l-.08-.69h0l.14.11c.39.3.76.63,1.13,1,.74.64,1.45,1.3,2.14,2a57.65,57.65,0,0,1,7,8.35c.5.7,1,1.41,1.42,2.12l1,1.63c.45.77.86,1.44,1.27,2.11l.62,1,.15.25.08.13s0-.08,0-.12v-.6c0-.8,0-1.59,0-2.38s0-1.54,0-2.34c0-.42,0-.8,0-1.2a65.69,65.69,0,0,0-2.9-16.35c-.36-1.16-.75-2.27-1.16-3.32-.2-.54-.41-1.05-.63-1.55-.07-.18,0-.11,0-.12h0l.47.28.59.37,1.12.72a64,64,0,0,1,11,9.4c2,2.12,2.7,3,2.7,3l.2.23.08.09,0,0h0l1.3-.67h0l0-.07-.11-.37c-.07-.28-.18-.66-.31-1.14-.29-1-.7-2.39-1.45-4.44a61.45,61.45,0,0,0-3.58-8.08h0c-.25-.47-.89-1.7-2.08-3.57-.3-.47-.62-1-1-1.52l-.59-.84-.59-.79h0l.34,0,1.36.18a64.72,64.72,0,0,1,13.18,3.31q.93.33,1.89.72l1,.39,1.6.68,2,.88.25.1-.11-.25-.22-.5-.44-1c-.27-.62-.55-1.25-.82-1.89-.16-.35-.29-.71-.48-1.05a39.22,39.22,0,0,0-5.4-8.35,37.74,37.74,0,0,0-19.57-12.09l-.77-.21-.1,0h0l.16-.07.75-.31c2-.8,4.09-1.51,6.25-2.17,4.33-1.31,8.91-2.41,13.7-3.38l2.79-.54c.06,0,.17,0,.18-.05l-.12-.19-.24-.38-.47-.76c-.14-.23-.34-.56-.44-.71l-.3-.39a15.68,15.68,0,0,0-2.76-2.82,23.2,23.2,0,0,0-7-3.83,20.47,20.47,0,0,0-4-1,14.79,14.79,0,0,0-2.12-.16,13.87,13.87,0,0,0-2.14.23,27.77,27.77,0,0,0-7.9,3.07,72.64,72.64,0,0,0-7.27,4.6L183,144l-.06.05h0l.24-.52a41.69,41.69,0,0,0,2.77-8.75c.3-1.52.54-3.07.69-4.63l.06-.59,0-.36,0-.56.11-2.27.08-2.27c.11-.69-.21,0-.39.25l-.61,1-1.61,2.54c-.07.11-.14.23-.22.34l-.18.25-.22.31-.44.64c-.59.85-1.26,1.66-1.92,2.49-1.36,1.63-2.86,3.21-4.43,4.82s-3.21,3.2-4.77,5a20.33,20.33,0,0,0-3.9,6.2,17.94,17.94,0,0,0-.9,3.66c-.18,1.2-.42,2.38-.7,3.55a12.27,12.27,0,0,1-3.31,6.15,26.73,26.73,0,0,1-6.15,4.14s0,.06,0-.13v-.21l.06-.95c.06-1.28.17-2.57.29-3.87.49-5.19,1.29-10.44,1.83-15.79.27-2.68.49-5.38.52-8.11a31.63,31.63,0,0,0-.81-8.24,12.91,12.91,0,0,0-1.71-3.93,8.39,8.39,0,0,0-3.27-2.92,11.2,11.2,0,0,0-4.21-1l-2.13,0c-.7,0-1.4.22-2.1.33a15.16,15.16,0,0,0-7.27,4.12,24.82,24.82,0,0,0-4.7,6.73,43.19,43.19,0,0,0-2.77,7.56c-.08.32-.17.64-.25,1s-.09.38-.14.56c-.1.36-.16.72-.23,1-.14.64-.25,1.17-.32,1.51a17.73,17.73,0,0,0-.3,2.92,25.9,25.9,0,0,0,.2,2.67,26.3,26.3,0,0,0,.88-2.51,22.74,22.74,0,0,0,.69-2.79l.31-1.48c.07-.31.13-.66.23-1,0-.17.09-.35.14-.54l.24-.92a41.06,41.06,0,0,1,2.67-7.29,23.55,23.55,0,0,1,4.4-6.33,13.72,13.72,0,0,1,6.56-3.72,11.82,11.82,0,0,1,7.43.5c2.23,1.09,3.56,3.41,4.2,5.9a30.89,30.89,0,0,1,.76,7.83c0,2.66-.25,5.32-.52,8-.54,5.31-1.33,10.57-1.83,15.81-.12,1.31-.23,2.62-.3,3.93l-.05,1-.05,1.74c-.56,1.94,1.25.36,2.25,0a28,28,0,0,0,6.5-4.39,11.65,11.65,0,0,0,2.38-3.21,17.46,17.46,0,0,0,1.34-3.65,37.32,37.32,0,0,0,.72-3.68,16.78,16.78,0,0,1,.83-3.37,18.85,18.85,0,0,1,3.63-5.75c1.5-1.72,3.13-3.32,4.71-4.93s3.11-3.23,4.5-4.92c.69-.85,1.37-1.69,2-2.57l.73-1.05h0s0,0,0,0h0l0,.22-.05.57c-.15,1.51-.38,3-.67,4.48a40.9,40.9,0,0,1-2.67,8.44l-.23.49c-.16.34-.31.67-.5,1-.34.68-.8,1.45-1.2,2.16l-1.2,2.11-.3.52.43-.31.89-.64,5.58-4a71.93,71.93,0,0,1,7.13-4.51,26,26,0,0,1,7.45-2.91,14.24,14.24,0,0,1,7.48.87,22,22,0,0,1,6.54,3.58,14.13,14.13,0,0,1,2.51,2.56l.27.35c.08.1,0,.05,0,.08s.06,0,0,.06l-.83.16c-4.83,1-9.45,2.09-13.83,3.42-2.19.67-4.33,1.39-6.38,2.21l-.77.32-.58.25c-.26.1-.5.21-.73.32l-2.87,1.34-.08,0,.09,0,.19,0,.39.08.76.17,1.53.33.76.16.38.09.21,0,.1,0,.75.2a36.26,36.26,0,0,1,18.8,11.61,37.9,37.9,0,0,1,5.19,8c.18.33.31.68.46,1l.08.18h0l-.38-.16-1-.4c-.65-.26-1.3-.51-1.93-.74a66,66,0,0,0-13.48-3.38l-1.4-.19-1-.11-1.29-.12-1.24-.12-.31,0c0,.08.13.16.18.24l.37.47,1.43,1.83.71.95c.19.29.38.56.57.82.37.52.67,1,1,1.47,1.15,1.82,1.78,3,2,3.47h0a61.15,61.15,0,0,1,3.5,7.89c.73,2,1.13,3.4,1.41,4.34.13.48.24.84.31,1.12l.1.36,0,.07h0l1.3-.67h0l0,0-.07-.09-.21-.24s-.73-.92-2.75-3.08c-1-1.08-2.37-2.45-4.2-4.09a60.28,60.28,0,0,0-7.1-5.53c-.37-.25-.76-.5-1.16-.75l-.59-.38-.75-.44c-.83-.5-1.65-.93-2.52-1.43l-.64-.36-.33-.18c-.08,0-.29-.2-.17,0l.61,1.37c.2.46.41.92.62,1.39l.34.74.26.62q.31.73.6,1.5.6,1.54,1.14,3.24a64.73,64.73,0,0,1,2.83,16c0,.38,0,.78,0,1.15h0l-.32-.51c-.46-.72-.94-1.44-1.45-2.17a59.18,59.18,0,0,0-7.18-8.56c-.7-.69-1.43-1.37-2.2-2-.38-.33-.77-.67-1.17-1l-.45-.37-.6-.45-1.2-.92-.6-.47-.16-.11s-.13-.13-.09,0l.06.37.23,1.52.23,1.53.11.86c.14,1,.25,2.08.34,3.14a72.48,72.48,0,0,1-.09,13.4h0c.2-2.09.23-2.85.21-2.58s-.09,1.56-.31,3.56a67.84,67.84,0,0,1-1.34,7.78c-.09.39-.19.77-.28,1.17l0,.07v0h0a11.85,11.85,0,1,0,1.47.13v0l0-.16,0-.31-.06-.63c-.09-.85-.2-1.71-.31-2.59-.24-1.77-.54-3.59-.91-5.42h0c.49,2.53.55,3.11.4,2.14s-.59-3.47-1.5-7c-.23-.88-.48-1.83-.78-2.83-.16-.49-.31-1-.47-1.54v0h0c1.31-.26-1.78.33-1.46.27v.35l0,.41c0,.27,0,.54,0,.82a53.64,53.64,0,0,1-.6,7.36,67.35,67.35,0,0,1-4.57,16.72c.94-2.32.43-.64-1.39,2.81l-.18.33-.09.16,0,0-.09.15-.1.15c0,.05,0,0,0,0s0,.06,0-.05c.09-.51.17-1,.27-1.58.11-.75.22-1.51.34-2.28.21-1.54.4-3.13.55-4.73h0c-.22,2,.12-.39.36-5.05,0-.58,0-1.2.07-1.85v-.23h0l-1.49-.18-.06.23c0,.16-.07.32-.11.48-.08.33-.15.66-.24,1-.34,1.34-.79,2.77-1.31,4.24a39,39,0,0,1-4.51,8.85c.27-.39.1-.15-.41.57-.37.57-1.94,2.41-1.5,1.89h0v-.06c0-.44.09-.9.13-1.38.1-1.13.19-2.33.26-3.58a71.69,71.69,0,0,1,.78-7.81h0c0,.12,0-.39.26-1.36.11-.49.25-1.09.46-1.77.11-.34.21-.71.35-1.09l.21-.58,0-.08v0h0l-1.37-.62v0l-.08.13-.16.29c-1.71,3.1-5.18,6.72-9,9.84l-.95.75-.86.67h0c.12-.51.24-1.05.37-1.61.32-1.42.64-2.94.9-4.47l.13-.75.05-.38c0-.25.08-.49.1-.73.05-.48.05-.9.07-1.36s0-.79,0-1.19l0-1.22v-.26c-.05,0-.15.21-.23.31l-.5.71a26,26,0,0,1-2,2.57,24.51,24.51,0,0,1-2.12,1.94c-.37.31-.75.61-1.13.9l-1,.7h0v-.41c0-1,.06-1.94.14-2.9a32.92,32.92,0,0,1,.94-5.7L148,207c0-.13.07-.25.11-.37l.22-.71a4.26,4.26,0,0,0-.62-.35l-.37-.21-.26-.13c-.09-.06-.25,0-.37,0l-.2,0h-.21a5.37,5.37,0,0,1-2.38-.92,9.86,9.86,0,0,1-3.41-4.15c-1.52-3.4-1.64-7.31-1.23-11a49.45,49.45,0,0,1,1-5.56l.37-1.36.18-.68.38-1.24.78-2.51.1-.31c0-.05,0,0,0,0l-.08,0-.15.1-.61.37-1.21.73c-.4.24-.8.52-1.22.73l-.6.31a9.25,9.25,0,0,1-1.22.51,7.79,7.79,0,0,1-1.23.35c-.2,0-.41,0-.61.06a2,2,0,0,1-.6,0,4.24,4.24,0,0,1-3.52-2.83,17,17,0,0,1-1.33-5,44.75,44.75,0,0,1-.35-5.29c0-3.53.17-7,.46-10.41.12-1.23.21-2.25.26-2.83A20.73,20.73,0,0,0,129.91,148.72Z"/><path class="cls-23" d="M93.32,148.72c1.5,13.58,4.69,40.88-10.9,30.4,7.91,24.12-5.38,28.36-6.8,26.51a37.78,37.78,0,0,1,1.51,12s-4.93-3.1-7-6.29c-.24,2.34,2.09,11.53,2.09,11.53s-9.49-6.5-12.94-13.17c2.35,6,1.81,12.32,2.69,19.11,0,.41-.26.71-.49.47-4.29-4.44-7.6-11.09-9.27-18.64a106.67,106.67,0,0,0,2.26,19c-6.45-7.38-9.65-25.11-9.15-32.61a87.56,87.56,0,0,0-3.67,18.26,72.51,72.51,0,0,1-1.14-29.4,57.63,57.63,0,0,0-15.21,17.71A62.69,62.69,0,0,1,31,176.52,64.48,64.48,0,0,0,12.56,192a58.56,58.56,0,0,1,10.67-21.94,66.5,66.5,0,0,0-21.79,5.78C7.31,161,19.08,154.2,30.27,152.16c-6.83-3.37-17.89-6-25-7.29,3.12-5.7,11.44-9.05,16.27-9,7,.08,17.18,8,20.92,10.71a41.86,41.86,0,0,1-5.35-20.16C43.66,137.83,53.65,141.82,55,151c1.28,8.65,3,11.18,11.8,15.66-.23-17.2-9.17-44.87,6.46-45.67C86.25,120.36,91.83,135.15,93.32,148.72Z"/><path class="cls-22" d="M93.32,148.72a21.17,21.17,0,0,0-.15,5.56c0,.58.14,1.6.25,2.83.29,3.4.51,6.88.46,10.41a44.73,44.73,0,0,1-.34,5.29,17,17,0,0,1-1.33,5,4.24,4.24,0,0,1-3.52,2.83,2,2,0,0,1-.6,0c-.2,0-.41,0-.61-.06a8.23,8.23,0,0,1-1.24-.35,9.72,9.72,0,0,1-1.21-.51l-.6-.31c-.43-.21-.82-.49-1.23-.73L82,178l-.61-.37-.15-.1-.08,0s0,0,0,0l.1.31.77,2.51.39,1.24.18.68.37,1.36a49.45,49.45,0,0,1,1,5.56c.4,3.72.29,7.63-1.23,11a9.86,9.86,0,0,1-3.41,4.15,5.37,5.37,0,0,1-2.38.92h-.21l-.2,0c-.12,0-.28-.1-.37,0l-.26.13-.37.21a3.42,3.42,0,0,0-.62.35l.22.71c0,.12.08.24.11.37l.07.26a32.92,32.92,0,0,1,.94,5.7c.08,1,.13,1.93.14,2.9v.41h0s0,0,0,0l-1-.7-1.14-.9a24.38,24.38,0,0,1-2.11-1.94,26,26,0,0,1-2-2.57l-.5-.71c-.08-.1-.18-.27-.23-.31v.26l0,1.22c0,.4,0,.74,0,1.19s0,.88.07,1.36c0,.24.06.48.1.73l0,.38.12.75c.27,1.53.59,3.05.91,4.47.13.56.25,1.1.37,1.61h0l-.86-.67-1-.75c-3.84-3.12-7.3-6.74-9-9.84l-.16-.29-.08-.13v0l-1.37.62h0v0l0,.08.21.58c.14.38.24.75.35,1.09.21.68.35,1.28.46,1.77.21,1,.28,1.48.26,1.36h0a69.23,69.23,0,0,1,.77,7.81c.08,1.25.17,2.45.27,3.58,0,.48.09.94.13,1.38v.06h0c.44.52-1.13-1.32-1.5-1.89-.52-.72-.68-1-.41-.57a39,39,0,0,1-4.51-8.85c-.53-1.47-1-2.9-1.31-4.24-.09-.33-.16-.66-.24-1l-.12-.48-.05-.23c1.32-.17-1.81.21-1.49.18h0v.23c0,.65,0,1.27.07,1.85.24,4.66.58,7,.36,5.05h0c.15,1.6.34,3.19.55,4.73.12.77.23,1.53.34,2.28.09.54.18,1.07.27,1.58,0,.11,0,0,0,.05s0,0,0,0l-.1-.15-.09-.15,0,0-.09-.16-.18-.33c-1.82-3.45-2.34-5.13-1.39-2.81a67.35,67.35,0,0,1-4.57-16.72,53.64,53.64,0,0,1-.6-7.36c0-.28,0-.55,0-.82l0-.41v-.35c.32.06-2.77-.53-1.47-.27h0v0l-.47,1.54c-.3,1-.55,2-.78,2.83-.91,3.53-1.33,6-1.5,7s-.09.39.39-2.14h0c-.36,1.83-.66,3.65-.9,5.42-.12.88-.22,1.74-.31,2.59l-.06.63,0,.31,0,.16v0a11.57,11.57,0,1,0,1.46-.13h0v0l0-.07c-.1-.4-.19-.78-.28-1.17a67.84,67.84,0,0,1-1.34-7.78c-.22-2-.29-3.3-.32-3.56s0,.49.22,2.58h0a73.39,73.39,0,0,1-.1-13.4c.1-1.06.21-2.11.35-3.14l.11-.86.23-1.53.23-1.52.06-.37c0-.11-.06,0-.1,0l-.15.11-.6.47-1.21.92-.59.45-.45.37c-.41.32-.79.66-1.17,1-.77.66-1.5,1.34-2.21,2a59.73,59.73,0,0,0-7.17,8.56c-.51.73-1,1.45-1.45,2.17l-.32.51h0c0-.37,0-.77,0-1.15a64.27,64.27,0,0,1,2.83-16c.35-1.13.73-2.21,1.13-3.24.2-.51.4-1,.61-1.5l.26-.62.34-.74c.21-.47.42-.93.62-1.39l.61-1.37c.12-.19-.09,0-.17,0l-.33.18-.65.36c-.86.5-1.68.93-2.51,1.43l-.75.44-.6.38-1.15.75a60.28,60.28,0,0,0-7.1,5.53c-1.83,1.64-3.18,3-4.2,4.09-2,2.16-2.75,3.08-2.75,3.08l-.21.24-.08.09,0,0h0l1.29.67h0l0-.07c0-.1.06-.22.1-.36s.17-.64.31-1.12c.28-.94.68-2.34,1.41-4.34a60.84,60.84,0,0,1,3.49-7.89h0c.25-.45.88-1.65,2-3.47.29-.45.6-1,1-1.47.19-.26.38-.53.57-.82l.71-.95,1.43-1.83.36-.47a1.88,1.88,0,0,0,.18-.24l-.3,0-1.25.12-1.28.12-1,.11-1.4.19A66,66,0,0,0,6.18,173.1c-.64.23-1.28.48-1.93.74l-1,.4-.38.16h0s0,.06.07-.18.28-.69.47-1a37.9,37.9,0,0,1,5.19-8,36.26,36.26,0,0,1,18.8-11.61l.75-.2.1,0,.21,0,.38-.09.76-.16,1.52-.33.77-.17.38-.08.2,0,.09,0-.09,0L29.62,151c-.23-.11-.47-.22-.73-.32l-.58-.25-.77-.32c-2.06-.82-4.19-1.54-6.38-2.21-4.39-1.33-9-2.45-13.83-3.42l-.84-.16s0,0,0-.06,0,0,0-.08l.27-.35a13.8,13.8,0,0,1,2.51-2.56,22,22,0,0,1,6.54-3.58,14.24,14.24,0,0,1,7.48-.87,26,26,0,0,1,7.45,2.91,73.11,73.11,0,0,1,7.13,4.51l5.58,4,.89.64.43.31-.3-.52-1.2-2.11c-.4-.71-.86-1.48-1.21-2.16-.18-.34-.33-.67-.49-1l-.23-.49a40.31,40.31,0,0,1-2.67-8.44c-.29-1.47-.52-3-.67-4.48l0-.57,0-.22h0s0,0,0,0h0l.73,1.05c.61.88,1.3,1.72,2,2.57,1.39,1.69,2.93,3.3,4.5,4.92s3.21,3.2,4.71,4.93a18.85,18.85,0,0,1,3.63,5.75,16.13,16.13,0,0,1,.82,3.37c.18,1.22.43,2.45.73,3.68a17.46,17.46,0,0,0,1.34,3.65,11.82,11.82,0,0,0,2.37,3.21,28.21,28.21,0,0,0,6.51,4.39c1,.4,2.81,2,2.25,0l0-1.74,0-1c-.07-1.31-.18-2.62-.3-3.93-.5-5.24-1.3-10.5-1.84-15.81-.26-2.65-.47-5.31-.51-8a30.45,30.45,0,0,1,.76-7.83c.64-2.49,2-4.82,4.2-5.9a11.82,11.82,0,0,1,7.43-.5,13.72,13.72,0,0,1,6.56,3.72,23.55,23.55,0,0,1,4.4,6.33,41.06,41.06,0,0,1,2.67,7.29l.24.92c0,.19.09.37.14.54.1.35.16.7.23,1l.31,1.48a22.74,22.74,0,0,0,.69,2.79,26.09,26.09,0,0,0,.87,2.51,23.48,23.48,0,0,0,.21-2.67,17.73,17.73,0,0,0-.3-2.92c-.07-.34-.18-.87-.32-1.51-.07-.32-.13-.68-.23-1-.05-.18-.1-.37-.14-.56s-.17-.63-.25-1a43.19,43.19,0,0,0-2.77-7.56,25,25,0,0,0-4.7-6.73,15.16,15.16,0,0,0-7.27-4.12c-.7-.11-1.4-.29-2.1-.33l-2.13,0a11.2,11.2,0,0,0-4.21,1,8.49,8.49,0,0,0-3.28,2.92,13.13,13.13,0,0,0-1.7,3.93,31.21,31.21,0,0,0-.81,8.24c0,2.73.25,5.43.52,8.11.54,5.35,1.33,10.6,1.83,15.79.12,1.3.23,2.59.29,3.87l.05.95v.21c0,.19,0,.13,0,.13a26.73,26.73,0,0,1-6.15-4.14,12.37,12.37,0,0,1-3.32-6.15c-.27-1.17-.51-2.35-.69-3.55a17.94,17.94,0,0,0-.9-3.66,20.52,20.52,0,0,0-3.9-6.2c-1.56-1.8-3.21-3.4-4.77-5s-3.07-3.19-4.43-4.82c-.66-.83-1.33-1.64-1.92-2.49l-.44-.64-.22-.31-.18-.25c-.08-.11-.15-.23-.22-.34l-1.62-2.54-.6-1c-.18-.24-.51-.94-.4-.25l.08,2.27.12,2.27,0,.56,0,.36.06.59a44.53,44.53,0,0,0,.69,4.63A41.69,41.69,0,0,0,40,143.57l.24.52h0l-.07-.05-1.41-1a71.65,71.65,0,0,0-7.28-4.6,27.71,27.71,0,0,0-7.89-3.07,13.87,13.87,0,0,0-2.14-.23,14.79,14.79,0,0,0-2.12.16,20.47,20.47,0,0,0-4,1,23.2,23.2,0,0,0-7,3.83A15.68,15.68,0,0,0,5.63,143l-.3.39c-.11.15-.3.48-.44.71l-.47.76-.24.38-.12.19s.12,0,.17.05L7,146c4.79,1,9.37,2.07,13.69,3.38,2.16.66,4.26,1.37,6.26,2.17l.74.31.17.07h0l-.09,0-.77.21A37.69,37.69,0,0,0,7.47,164.21a39.22,39.22,0,0,0-5.4,8.35c-.19.34-.32.7-.48,1.05-.27.64-.55,1.27-.82,1.89l-.44,1-.22.5-.11.25.25-.1,2-.88c.54-.22,1.07-.45,1.59-.68l1-.39q1-.39,1.89-.72a64.56,64.56,0,0,1,13.18-3.31l1.36-.18.34,0h0c-.21.27-.4.53-.59.79l-.59.84c-.38.54-.7,1-1,1.52-1.19,1.87-1.83,3.1-2.08,3.57h0a61.45,61.45,0,0,0-3.58,8.08c-.75,2.05-1.16,3.47-1.45,4.44-.13.48-.24.86-.32,1.14s-.07.27-.1.37l0,.07h0l1.3.67h0l0,0,.08-.09.2-.23s.72-.91,2.7-3a64,64,0,0,1,11-9.4l1.12-.72.58-.37.48-.28h0s0-.06-.06.12c-.21.5-.42,1-.62,1.55-.41,1-.8,2.16-1.16,3.32a65.69,65.69,0,0,0-2.9,16.35c0,.4,0,.78-.05,1.2,0,.8,0,1.56,0,2.34s0,1.58,0,2.38v.6s0,.13,0,.12l.08-.13.15-.25.62-1c.41-.67.82-1.34,1.27-2.11l1-1.63c.45-.71.92-1.42,1.41-2.12a58.39,58.39,0,0,1,7-8.35c.69-.67,1.4-1.33,2.14-2,.37-.32.74-.65,1.13-1l.13-.11h0l-.09.69c-.14,1-.25,2.11-.35,3.2a74.67,74.67,0,0,0,.1,13.68h0c-.2-2.13-.23-2.91-.22-2.64s.09,1.6.32,3.64a69.76,69.76,0,0,0,1.37,7.95c.09.4.19.79.29,1.2l0,.07v0h0c.66-.05-1.46.12,1.48-.1v0l0-.15,0-.31.06-.62c.09-.83.19-1.69.31-2.55.23-1.74.53-3.53.88-5.33-.48,2.49-.54,3.06-.39,2.11s.59-3.41,1.48-6.88c.23-.87.47-1.8.77-2.78l.46-1.51v0h0L44.56,197v.81c0,.28,0,.58,0,.87a54.8,54.8,0,0,0,.62,7.58,68.72,68.72,0,0,0,4.67,17.1c-.53-1.17-.56-1.38-.34-.78.11.29.34.76.63,1.4s.68,1.42,1.17,2.32c.06.11.12.23.19.34l.09.18.18.27c.26.36.52.74.79,1.13l.82,1.2c.28.4.67.86,1,1.31l1.08,1.38.27.35.12.16,0,0v-.06l0-.12c-.06-.34-.13-.67-.2-1-.15-.69-.29-1.39-.44-2.09-.07-.36-.14-.72-.22-1.08s-.12-.67-.19-1l-.3-1.66-.18-1.09c-.12-.74-.23-1.48-.34-2.24-.21-1.52-.4-3.09-.55-4.67h0c.22,2-.11-.38-.35-5,0-.57,0-1.18-.07-1.82v-.23h0l-1.49.19.06.24.12.5c.08.33.15.67.25,1a43.75,43.75,0,0,0,1.35,4.37,39.81,39.81,0,0,0,4.69,9.2l.42.59c.27.38.65.86,1.11,1.43l.38.45.28.33a1.8,1.8,0,0,0,.39.33l.79.58a2.08,2.08,0,0,0,.4.26.9.9,0,0,0,.42-.13,1,1,0,0,0,.34-.3.39.39,0,0,0,.09-.17l0-.26c0-.17.06-.35.1-.53l-.09-.7c0-.34-.07-.68-.11-1s0-.54-.08-.81c-.09-1.11-.18-2.3-.25-3.55a72.89,72.89,0,0,0-.8-8h0c0,.13-.05-.41-.28-1.43-.11-.51-.26-1.14-.48-1.87-.11-.36-.22-.75-.37-1.15l-.23-.63,0-.08,0,0h0a12.28,12.28,0,1,0-1.38.61l0,0,.08.15.18.31c1.87,3.38,5.45,7.07,9.37,10.27l1,.78,1.14.88,1.22.89,1.33.92.35.25.17.12-.05-.23-.24-.92-.47-1.92c-.18-.78-.38-1.6-.57-2.45-.32-1.41-.64-2.9-.89-4.4l-.12-.72,0-.34h0l0,.05a24.3,24.3,0,0,0,2.25,2.07c.39.32.78.64,1.18.94l.61.45.83.58c.37.27.8.54,1.2.79l.6.39s.06,0,.07,0v-.27l0-.36.05-1.44v-1.08c0-1-.07-2-.15-3a34.65,34.65,0,0,0-1-6l0-.09h.32a6.85,6.85,0,0,0,3.08-1.16,11.25,11.25,0,0,0,4-4.79c1.7-3.79,1.78-7.94,1.36-11.82a52,52,0,0,0-1-5.75l-.38-1.4-.23-.82-.06-.2v0h0l.66.34a10.56,10.56,0,0,0,1.38.58,9.94,9.94,0,0,0,1.47.41c.25.05.52.05.78.08a3.06,3.06,0,0,0,.8,0,4.8,4.8,0,0,0,3-1.21,6.81,6.81,0,0,0,1.8-2.47A18.34,18.34,0,0,0,95,173a46.05,46.05,0,0,0,.36-5.46c0-3.61-.18-7.13-.47-10.56-.12-1.24-.21-2.27-.27-2.85A19.24,19.24,0,0,0,93.32,148.72Z"/><path class="cls-20" d="M30.81,0"/></symbol><symbol id="Bird_Head_2_3" data-name="Bird_Head_2 3" viewBox="0 0 167.78 104.03"><path class="cls-24" d="M123.11,91.62c3.18-16.81,5.87-30.31,1-43.51-3.08-8.36-10.44-14.58-18.56-18.25s-12.3-4.58-20.46-5.09H84.3c-8.15.51-14.14,1.41-22.25,5.09S46.57,39.75,43.49,48.11c-4.87,13.2-1.86,33.46.41,44.37l3.34,11.06h73.6Z"/><path class="cls-25" d="M43.49,48.11A47.1,47.1,0,0,0,41,61.78c0,.3,0,.47,0,.47-.06,8.1,2.27,17.06,10.53,20.87,2.7,1,5.76.92,9.13-1.14C68.46,77.21,84,59.89,84,59.89c.23-4.55-.11-10.66-2.56-14.7a19,19,0,0,0-11.17-8.34L54.41,34.3A30.44,30.44,0,0,0,43.49,48.11Z"/><path class="cls-25" d="M124.36,48.11a47.44,47.44,0,0,1,2.5,13.67c0,.3,0,.47,0,.47.06,8.1-2.27,17.06-10.53,20.87-2.7,1-5.76.92-9.13-1.14-7.81-4.77-23.32-22.09-23.32-22.09-.23-4.55.11-10.66,2.56-14.7A19,19,0,0,1,97.6,36.85l15.84-2.55A30.58,30.58,0,0,1,124.36,48.11Z"/><ellipse class="cls-26" cx="105.26" cy="55.34" rx="11.51" ry="12.04" transform="translate(-13.37 63.7) rotate(-31.77)"/><ellipse class="cls-27" cx="105.28" cy="56.17" rx="8.39" ry="8.52" transform="translate(26.5 145.8) rotate(-76.77)"/><circle class="cls-10" cx="101.22" cy="51.54" r="4.22"/><path class="cls-28" d="M81.19,59.3a5.26,5.26,0,0,1,5.31.1h0a5.92,5.92,0,0,1,2.31,8l-4.93,9.42-5.17-9.42a5.92,5.92,0,0,1,2.31-8Z"/><ellipse class="cls-26" cx="62.35" cy="55.34" rx="12.04" ry="11.51" transform="translate(-17.53 79.22) rotate(-58.23)"/><ellipse class="cls-27" cx="62.32" cy="56.17" rx="8.52" ry="8.39" transform="translate(-11.2 15.76) rotate(-13.23)"/><circle class="cls-10" cx="57.76" cy="51.54" r="4.22"/><path d="M72.05,37.58c2-.33-29.94-16.66-35.72-26.75a37,37,0,0,0,9.19,14.48A133.11,133.11,0,0,1,11.66,0,52,52,0,0,0,29.21,22.55,93.43,93.43,0,0,1,0,5.84C1.82,10,5.22,13.31,9,15.9,35.1,33.76,68,38.24,72.05,37.58Z"/><path d="M95.73,37.58c-2-.33,29.94-16.66,35.72-26.75a37.07,37.07,0,0,1-9.19,14.48A132.88,132.88,0,0,0,156.11,0a51.93,51.93,0,0,1-17.54,22.55A93.55,93.55,0,0,0,167.78,5.84c-1.82,4.15-5.22,7.47-9,10.06C132.67,33.76,99.83,38.24,95.73,37.58Z"/></symbol><symbol id="Bird_Body_MASTER_1_10" data-name="Bird_Body_MASTER_1 10" viewBox="0 0 90.52 160.76"><path class="cls-1" d="M40.78,120.78l-.21.51c-1.42-5.47-2.25-21.71-2.28-26.38l-6,1.14a244.38,244.38,0,0,0,5.26,25.38s0,.93,0,.94c-3.84,4.57-12.41,17.54-13.68,19-1.86,2.13-3.57,6.1-4.45,8.89a6,6,0,0,0-.31,3.19c.26,1,1.2,2,2.16,1.72l.41-.81a17.39,17.39,0,0,0-.2,2.4,3.79,3.79,0,0,0,1,3,2.21,2.21,0,0,0,2.55,0,7.35,7.35,0,0,0,1.91-2.08l.33-.82c.61,1.82,2.28,3.28,3.9,2.66,2.15-.83,2.3-4.08,2.22-6.61a57.35,57.35,0,0,1,3.1-20.67c.59-1.71,1.42-3.55,3-4.14.63-.23,1.33-.24,2-.51C45.44,125.83,44.86,121.75,40.78,120.78Z"/><path class="cls-1" d="M71.46,150.39c-.88-2.8-2.59-6.77-4.44-8.89-1.28-1.47-9.85-14.43-13.69-19,0,0,0-1,0-1a241.06,241.06,0,0,0,5.26-25.37l-6-1.15c0,4.68-.86,20.92-2.28,26.38l-.21-.51c-4.08,1-4.66,5-.66,6.76.63.27,1.33.27,2,.51,1.56.58,2.39,2.43,3,4.14A57.32,57.32,0,0,1,57.52,153c-.08,2.53.07,5.78,2.22,6.6,1.63.63,3.29-.83,3.9-2.65l.33.82a7.63,7.63,0,0,0,1.91,2.08,2.21,2.21,0,0,0,2.55,0,3.82,3.82,0,0,0,1-3,17.37,17.37,0,0,0-.19-2.39l.4.81c1,.22,1.9-.68,2.16-1.73A6,6,0,0,0,71.46,150.39Z"/><path d="M40.49,121.27c1.28.32,2.71,1.09,3,2.51a3,3,0,0,1-1.86,3c-.88.48-1.88.46-2.76.88a4.61,4.61,0,0,0-1.72,1.59,18.55,18.55,0,0,0-2.09,5.3,57.67,57.67,0,0,0-2.24,13.11c-.12,2.08,0,4.15,0,6.23,0,1.46-.05,3.36-1.1,4.5-1.55,1.69-3.56-.21-4.07-1.84-.74-2.38.58-4.92,1.64-7,.3-.58-.58-1.09-.88-.51-1.06,2.06-2.18,4.34-1.95,6.73a4.83,4.83,0,0,0,3.1,4.19,3.16,3.16,0,0,0,3.66-2.12,13.08,13.08,0,0,0,.6-5.39,57.4,57.4,0,0,1,1.58-15.06,31.4,31.4,0,0,1,2.19-6.78,4,4,0,0,1,2-2.12,15.08,15.08,0,0,1,1.64-.4,5.74,5.74,0,0,0,1.37-.65,3.9,3.9,0,0,0,2-4c-.36-1.76-2-2.81-3.68-3.23a.51.51,0,0,0-.27,1Z"/><path d="M26.58,157.49c-.71,1-2.07,2.91-3.53,2.09-1.23-.68-1-2.81-.9-4a16.1,16.1,0,0,1,3.2-8.39c.39-.52-.49-1-.88-.51a16.81,16.81,0,0,0-3.38,10.54c.05,1.49.57,3.26,2.28,3.49,1.88.25,3.13-1.38,4.09-2.73.38-.54-.5-1-.88-.52Z"/><path d="M21,154.59c-.73.12-1.26-.71-1.42-1.3a5,5,0,0,1,.24-2.65,13.59,13.59,0,0,1,.57-1.5,47,47,0,0,1,3-5.54c1.63-2.69,3.49-5.22,5.31-7.79q4.35-6.13,8.71-12.28a5.17,5.17,0,0,0,.91-1.35,2.82,2.82,0,0,0-.24-1.19c-.24-.87-.46-1.76-.68-2.64-.54-2.22-1-4.45-1.51-6.68-1.08-5-2.13-10.15-2.81-15.28l-.44.59,5.67-1.49-.77-.58c0,3.25.21,6.52.41,9.77.25,4.1.56,8.21,1.1,12.29a34.76,34.76,0,0,0,.89,4.85.61.61,0,0,0,1.17-.33,52.27,52.27,0,0,1-1.42-9.81c-.37-4-.62-8.06-.8-12.1-.07-1.55-.13-3.11-.14-4.67a.61.61,0,0,0-.76-.59l-5.67,1.49a.62.62,0,0,0-.45.58A214.26,214.26,0,0,0,36,117.7c.36,1.5.72,3,1.15,4.48l.07-.46L26.29,137.11a68,68,0,0,0-6.9,11.29,12.13,12.13,0,0,0-1.06,3.37c-.24,1.84.71,4.36,3,4,.76-.12.44-1.29-.32-1.16Z"/><path d="M50.15,120.41a4.9,4.9,0,0,0-3.53,2.72,3.54,3.54,0,0,0,.88,3.73,5.68,5.68,0,0,0,2.2,1.37c.57.19,1.19.21,1.75.43a3,3,0,0,1,1.12.82A8.6,8.6,0,0,1,54,132.19c.41,1.14.76,2.3,1.09,3.47a57.38,57.38,0,0,1,2.11,15,32,32,0,0,0,.18,6.11c.31,1.53,1.16,3.17,2.85,3.46,2.06.35,3.72-1.68,4.17-3.48.64-2.61-.66-5.25-1.82-7.5-.3-.59-1.18-.07-.88.51,1,1.91,2.13,4.13,1.79,6.35-.22,1.46-1.62,3.66-3.38,3-1.47-.52-1.79-2.43-1.89-3.77-.16-1.92,0-3.85,0-5.77a58.84,58.84,0,0,0-1.86-13.19,33.81,33.81,0,0,0-1.9-5.79,6.6,6.6,0,0,0-1.39-2.08,4.42,4.42,0,0,0-2.31-1.08c-1.51-.3-3.34-1.39-3.32-3.14s1.61-2.56,3-2.91a.51.51,0,0,0-.27-1Z"/><path d="M63.73,158c1,1.35,2.21,3,4.09,2.73,1.71-.23,2.23-2,2.28-3.49a16.81,16.81,0,0,0-3.38-10.54c-.39-.52-1.27,0-.88.51a16.13,16.13,0,0,1,3.2,8.39c.09,1.14.32,3.19-.82,3.93-1.47.94-2.9-1-3.61-2-.38-.53-1.26,0-.88.52Z"/><path d="M69.6,155.88c1.89.32,3-1.54,3-3.21a9.22,9.22,0,0,0-.84-3.5,50.37,50.37,0,0,0-4-7.35c-2.35-3.74-5.07-7.27-7.62-10.87-2.15-3-4.31-6.07-6.45-9.11l.06.47c.87-3,1.53-6,2.19-9.1q1.24-5.68,2.26-11.41c.31-1.76.6-3.51.83-5.28a.6.6,0,0,0-.44-.58l-5.67-1.49a.61.61,0,0,0-.77.58c0,3.21-.2,6.42-.4,9.62-.25,4.07-.55,8.14-1.07,12.18a32.57,32.57,0,0,1-.89,4.79.61.61,0,0,0,1.17.32,54,54,0,0,0,1.45-10c.37-4.07.63-8.16.81-12.25.07-1.56.13-3.12.14-4.68l-.77.59,5.67,1.48-.44-.58c-.59,4.52-1.5,9-2.43,13.48-.49,2.36-1,4.72-1.55,7.07-.22.94-.45,1.88-.69,2.81-.1.4-.21.8-.31,1.19a2.85,2.85,0,0,0-.26,1.24,5.35,5.35,0,0,0,.91,1.35l1.1,1.54,2.29,3.24,4.41,6.21c1.66,2.35,3.43,4.66,5,7.09a61.83,61.83,0,0,1,4,7,17.44,17.44,0,0,1,.69,1.68,6.24,6.24,0,0,1,.41,2.59c-.09.7-.6,1.82-1.48,1.68s-1.09,1-.33,1.16Z"/><path class="cls-2" d="M15.63,11.08,12.1,44.65c-1,22.38,8.83,40.63,16.82,53.67.89,1.46,1.38,3.18,2.61,4.38a4.51,4.51,0,0,0,4.69,1.22c1.86-.77,2.59-3,3.1-4.92,1.44-5.4,3.7-16,4.92-21a.94.94,0,0,1,1.82,0c1.86,6.54,4,14.5,5.73,21,.52,1.94,1.25,4.15,3.11,4.92a4.51,4.51,0,0,0,4.69-1.22,13,13,0,0,0,2.61-4.38C68.82,83,79.68,67.62,78.8,47.74L73.94,10.63"/><path d="M14.94,11.08,13.45,25.27,11.52,43.6a55.64,55.64,0,0,0,.22,11.68,81.37,81.37,0,0,0,4.11,18.14A112.11,112.11,0,0,0,22.73,89c1.21,2.28,2.49,4.54,3.81,6.76.62,1,1.27,2.07,1.88,3.12a27.35,27.35,0,0,0,2.22,3.91c1.78,2.15,5.2,3,7.29.81,1.7-1.77,2.12-4.53,2.68-6.82,1.27-5.18,2.4-10.4,3.6-15.6l.36-1.59.18-.72a2.13,2.13,0,0,1,.19-.76c.33-.38.5.22.57.47l.66,2.35q1.36,4.92,2.7,9.86c.83,3.09,1.57,6.21,2.49,9.28.79,2.59,2.45,5.25,5.56,4.78s4.73-3.48,5.88-6.14,2.33-5.12,3.56-7.64c2.59-5.28,5.28-10.51,7.55-15.94A71.73,71.73,0,0,0,79,57.64a40.68,40.68,0,0,0,.38-10.85l-2.31-17.6-2.3-17.56-.13-1c-.11-.87-1.5-.88-1.38,0l1.69,12.95,2.64,20.14c.18,1.34.41,2.68.53,4a42,42,0,0,1-.4,9.1,59.1,59.1,0,0,1-1.87,8.74c-3.24,11.19-9.33,21.18-14,31.8-1.07,2.43-2.44,6.15-5.68,6.1-3,0-3.57-4.1-4.15-6.28-1.7-6.39-3.42-12.77-5.22-19.13a1.94,1.94,0,0,0-.87-1.3,1.67,1.67,0,0,0-1.61,0c-.88.51-.95,1.78-1.16,2.68q-.86,3.71-1.69,7.43c-.6,2.66-1.2,5.33-1.84,8q-.39,1.65-.81,3.3a14.66,14.66,0,0,1-1.24,3.53,3.11,3.11,0,0,1-3.21,1.75,4.87,4.87,0,0,1-3.31-2.5c-.73-1.24-1.3-2.55-2.05-3.79-.61-1-1.22-2-1.82-3.06a133,133,0,0,1-7.32-14.19A88.94,88.94,0,0,1,14.37,63,73.82,73.82,0,0,1,13,53.55a57.73,57.73,0,0,1-.17-8.92c.39-4.79,1-9.57,1.52-14.36l1.9-18.12.12-1.07c.09-.89-1.3-.88-1.39,0Z"/><path class="cls-3" d="M13,67.64c21.61,8,48.41,2.59,66.8-11.17a1.16,1.16,0,0,0,.46-.82V48.1a1.17,1.17,0,0,0-1.85-1.05C60.21,59.81,34,66.18,13.12,58.59a1.18,1.18,0,0,0-1.55.84l.67,6.88A1.16,1.16,0,0,0,13,67.64Z"/><ellipse id="SVGID" class="cls-4" cx="48.31" cy="65.05" rx="2.92" ry="2.88"/><ellipse id="SVGID-2" data-name="SVGID" class="cls-5" cx="62.71" cy="60.51" rx="2.92" ry="2.88"/><ellipse id="SVGID-3" data-name="SVGID" class="cls-6" cx="74.51" cy="54.39" rx="2.92" ry="2.88"/><ellipse id="SVGID-4" data-name="SVGID" class="cls-7" cx="40.91" cy="66.31" rx="2.92" ry="2.88"/><ellipse id="SVGID-5" data-name="SVGID" class="cls-8" cx="55.39" cy="63.48" rx="2.92" ry="2.88"/><ellipse id="SVGID-6" data-name="SVGID" class="cls-9" cx="68.84" cy="57.84" rx="2.92" ry="2.88"/><path class="cls-10" d="M6.05,69.81c0-3.57,5.49-6.47,12.26-6.47s12.49,2.9,12.49,6.47-5.71,6.47-12.49,6.47S6.05,73.38,6.05,69.81Z"/><path class="cls-11" d="M6.05,69.81c0-3.57,5.49-6.47,12.26-6.47s12.49,2.9,12.49,6.47-5.71,6.47-12.49,6.47S6.05,73.38,6.05,69.81Z"/><path class="cls-12" d="M6.05,69.81c0-3.57,5.49-6.47,12.26-6.47s12.49,2.9,12.49,6.47-5.71,6.47-12.49,6.47S6.05,73.38,6.05,69.81Z"/><path class="cls-13" d="M5.74,69.44a11.73,11.73,0,0,0-.07,1.2c0,6.69,5.72,12.12,12.78,12.12s12.77-5.43,12.77-12.12a11.76,11.76,0,0,0-.06-1.2Z"/><line class="cls-14" x1="31.18" y1="71.28" x2="5.72" y2="71.28"/><path class="cls-15" d="M38.67,6.52C37,15.23,37.53,23.33,38,32.18c.29,5.13.92,10.32-.13,15.35A5.56,5.56,0,0,1,36.09,51a5.81,5.81,0,0,1-2.71.86c-5.14.66-16.22-.72-22.19-1.57a2,2,0,0,1-1.6-2.88c1.43-3-7.36-12.65-3.91-39.68-.22.11,7.57,3.07,12.88,2.86C28.42,10.19,38.67,6.52,38.67,6.52Z"/><path d="M38.05,6.35a78.66,78.66,0,0,0-1.11,16c.12,5.46.61,10.89.84,16.34a36.2,36.2,0,0,1-.41,8.19A6.79,6.79,0,0,1,36.19,50a4.47,4.47,0,0,1-3,1.21,54.22,54.22,0,0,1-11.1-.3c-2.07-.19-4.14-.42-6.2-.67l-2.76-.36a5.9,5.9,0,0,1-2.48-.52,1.48,1.48,0,0,1-.36-1.9,2.51,2.51,0,0,0,.14-.66,5.28,5.28,0,0,0-.15-1.48c-.32-1.43-.86-2.82-1.32-4.21A67.59,67.59,0,0,1,7,34.46,74.18,74.18,0,0,1,5.89,11.62c.12-1.3.27-2.6.43-3.9.07-.58-.73-.81-1.09-.45-1.11,1.09,2.6,2,3.07,2.14a38.25,38.25,0,0,0,7.77,1.71,37.15,37.15,0,0,0,9.58-.66,83.38,83.38,0,0,0,8.86-2c1.45-.41,2.91-.84,4.33-1.35.77-.27.43-1.5-.34-1.23A74.4,74.4,0,0,1,27.85,8.76,53.61,53.61,0,0,1,18.24,10a27.35,27.35,0,0,1-7.4-1.12c-1.12-.3-2.24-.64-3.34-1L6.44,7.4a1.23,1.23,0,0,0-.24-.1c-.38-.09.06-.43.12.42l-.19.45h0L5,7.72A80.65,80.65,0,0,0,5.43,33a63.4,63.4,0,0,0,1.91,7.44C7.85,42,8.45,43.6,8.88,45.21c.07.26.13.53.18.8s0,0,0,.24,0,.23,0,.34,0,.18,0,.27c0-.22,0,.08,0,.16a.21.21,0,0,1,0,.11c.08-.24-.08.19-.1.25a2.63,2.63,0,0,0,1.54,3.36,11.32,11.32,0,0,0,2.59.44q3,.41,6,.74a87.67,87.67,0,0,0,12.23.72c1.85-.06,4.1-.12,5.53-1.44,1.76-1.63,2-4.65,2.16-6.87a57.73,57.73,0,0,0-.09-8.42c-.18-2.82-.36-5.64-.49-8.46a102.47,102.47,0,0,1,.25-16.62c.16-1.39.37-2.77.62-4.14C39.43,5.89,38.2,5.54,38.05,6.35Z"/><path class="cls-16" d="M51.85,6.52c1.63,8.71,1.14,16.81.65,25.66-.28,5.13-.92,10.32.14,15.35A5.47,5.47,0,0,0,54.44,51a5.77,5.77,0,0,0,2.71.86c5.13.66,16.21-.72,22.19-1.57a2,2,0,0,0,1.59-2.88c-1.43-3,7.37-12.65,3.91-39.68.22.11-7.57,3.07-12.88,2.86C62.1,10.19,51.85,6.52,51.85,6.52Z"/><path d="M51.24,6.69a78.89,78.89,0,0,1,1,16.6c-.08,2.85-.24,5.68-.4,8.52s-.41,5.62-.46,8.44a29.43,29.43,0,0,0,.76,8.1,5.81,5.81,0,0,0,1.51,2.85,5.63,5.63,0,0,0,3.17,1.25,51.51,51.51,0,0,0,11.44-.21q3.2-.3,6.38-.7l2.87-.37a10.35,10.35,0,0,0,2.6-.46,2.62,2.62,0,0,0,1.46-3.33c0-.08-.18-.49-.1-.23,0,0,0-.1-.05-.14s0-.3,0-.2,0-.17,0-.24,0-.21,0-.32,0,0,0-.24a33,33,0,0,1,1.26-4.14c.74-2.23,1.41-4.48,1.94-6.77a75.56,75.56,0,0,0,1.25-23.48c-.12-1.3-.27-2.6-.43-3.9l-1.09.45h0l-.18-.45c.05-.81.49-.54.15-.44a1.28,1.28,0,0,0-.24.11l-.79.3c-.92.33-1.85.63-2.8.9A31.28,31.28,0,0,1,73.1,9.94a43.66,43.66,0,0,1-9.39-1c-2.65-.49-5.28-1.12-7.87-1.86-1.28-.37-2.56-.75-3.82-1.2-.77-.27-1.1,1-.33,1.23A75.33,75.33,0,0,0,63.8,10.27a41.39,41.39,0,0,0,9.8.92,35.63,35.63,0,0,0,7.86-1.54c1-.3,2-.61,2.9-1,.49-.2,1.67-.67.93-1.39-.35-.35-1.16-.13-1.09.45a80.09,80.09,0,0,1-.27,24.63,64.57,64.57,0,0,1-1.85,7.37c-.51,1.6-1.1,3.17-1.56,4.78a5,5,0,0,0-.24,3,1.47,1.47,0,0,1-.36,1.9,5.85,5.85,0,0,1-2.47.52c-1.94.26-3.87.5-5.81.71a90.57,90.57,0,0,1-12,.75c-1.69,0-4.15.06-5.32-1.34a6.64,6.64,0,0,1-1.18-3.15,26.9,26.9,0,0,1-.44-4.11A77,77,0,0,1,53,34.59c.18-2.74.33-5.47.45-8.21a96.43,96.43,0,0,0-.36-16c-.16-1.34-.37-2.67-.61-4C52.32,5.54,51.09,5.88,51.24,6.69Z"/><rect class="cls-17" x="29.89" y="5.75" width="31.66" height="12.14"/><rect class="cls-17" x="29.89" y="9.2" width="31.66" height="5.23"/><path class="cls-18" d="M3.85,1.55C3.44,7.7,2.71,13.48.65,19.14c11.82,4.67,20.52,4.34,32.5,4.87.12-1.64,1.32-13.59,6.32-20.78C24.53,5.26,10.21,2.07,3.89.63"/><path d="M3.21,1.55A63.24,63.24,0,0,1,0,19a.65.65,0,0,0,.45.78,61.2,61.2,0,0,0,12.9,3.55,105.7,105.7,0,0,0,12.19,1.06c2.52.1,5.05.18,7.58.29a.65.65,0,0,0,.64-.64A51.66,51.66,0,0,1,37.26,8.79,27,27,0,0,1,40,3.55a.64.64,0,0,0-.55-1c-10,1.35-20.25.51-30.15-1.44C7.56.8,5.81.41,4.06,0c-.8-.18-1.14,1.05-.34,1.23A115.19,115.19,0,0,0,29.66,4.52a76.6,76.6,0,0,0,9.81-.65l-.55-1a33.25,33.25,0,0,0-4.33,9.78,61.7,61.7,0,0,0-1.8,8.83c-.12.83-.22,1.66-.28,2.49l.64-.63C24.79,23,16.37,23,8.21,20.94A63.8,63.8,0,0,1,.82,18.52l.44.79A64.64,64.64,0,0,0,4.49,1.55c0-.82-1.22-.81-1.28,0Z"/><path class="cls-19" d="M86.67,1.55c.42,6.15,1.14,11.93,3.21,17.59C78.05,23.81,69.35,23.48,57.38,24c-.13-1.64-1.33-13.59-6.33-20.78C66,5.26,80.31,2.07,86.64.63"/><path d="M86,1.55a64.62,64.62,0,0,0,3.22,17.76l.45-.79A61.08,61.08,0,0,1,77,22a103,103,0,0,1-12.16,1.05c-2.49.1-5,.18-7.47.29L58,24A52.84,52.84,0,0,0,54.42,8.28,27.23,27.23,0,0,0,51.6,2.91l-.55,1c10.13,1.35,20.43.48,30.42-1.48C83.25,2,85,1.65,86.8,1.25c.81-.18.47-1.41-.33-1.23A114.44,114.44,0,0,1,60.75,3.25a76.85,76.85,0,0,1-9.7-.66.64.64,0,0,0-.55,1,32.17,32.17,0,0,1,4.22,9.57,61.48,61.48,0,0,1,1.76,8.51c.1.79.2,1.59.26,2.38a.64.64,0,0,0,.64.64c8.43-.37,16.93-.36,25.16-2.46a59.82,59.82,0,0,0,7.51-2.44.64.64,0,0,0,.44-.78A63.61,63.61,0,0,1,87.31,1.55c0-.81-1.33-.82-1.27,0Z"/></symbol></defs><g id="Birds"><use width="223.24" height="232.68" transform="translate(37.33 22.56)" xlink:href="#Bird_Body_MASTER_1_13"/><use width="167.78" height="104.04" transform="translate(68.02 47.29) scale(0.96)" xlink:href="#Bird_Head_2_3"/><use width="90.52" height="160.76" transform="translate(106.09 139.65) scale(0.96)" xlink:href="#Bird_Body_MASTER_1_10"/></g></svg>