<svg xmlns="http://www.w3.org/2000/svg" xmlns:xlink="http://www.w3.org/1999/xlink" viewBox="0 0 300 300"><defs><style>.cls-1{fill:#c5fae8;}.cls-2{fill:url(#New_Gradient_Swatch_17);}.cls-10,.cls-11,.cls-13,.cls-17,.cls-26,.cls-3{fill:#fff;}.cls-12,.cls-13,.cls-14,.cls-17,.cls-22,.cls-24,.cls-25,.cls-28,.cls-3{stroke:#000;}.cls-11,.cls-12,.cls-13,.cls-14,.cls-17,.cls-3{stroke-linecap:round;}.cls-11,.cls-12,.cls-13,.cls-14,.cls-17,.cls-22,.cls-24,.cls-25,.cls-26,.cls-28,.cls-3{stroke-miterlimit:10;}.cls-4{fill:url(#radial-gradient);}.cls-5{fill:url(#radial-gradient-2);}.cls-6{fill:url(#radial-gradient-3);}.cls-7{fill:url(#New_Gradient_Swatch_1);}.cls-8{fill:url(#New_Gradient_Swatch_1-2);}.cls-9{fill:url(#New_Gradient_Swatch_1-3);}.cls-11,.cls-26{stroke:#231f20;}.cls-11{stroke-width:0.56px;}.cls-12,.cls-14,.cls-22{fill:none;}.cls-12,.cls-13{stroke-width:1.25px;}.cls-14{stroke-width:0.85px;}.cls-15{fill:url(#radial-gradient-4);}.cls-16{fill:url(#radial-gradient-5);}.cls-17{stroke-width:0.71px;}.cls-18{fill:url(#radial-gradient-6);}.cls-19{fill:url(#radial-gradient-7);}.cls-20{fill:url(#New_Gradient_Swatch_17-2);}.cls-21{fill:#202020;}.cls-22{stroke-width:1.38px;}.cls-23{fill:url(#New_Gradient_Swatch_17-3);}.cls-24{fill:url(#radial-gradient-8);}.cls-25{fill:#74af98;}.cls-26{stroke-width:1.63px;}.cls-27{fill:#231f20;}.cls-28{fill:#41826c;}</style><radialGradient id="New_Gradient_Swatch_17" cx="45.52" cy="41.21" fy="-1.297475759200566" r="89.32" gradientUnits="userSpaceOnUse"><stop offset="0.42" stop-color="#1ba873"/><stop offset="0.76" stop-color="#7eebc2"/></radialGradient><radialGradient id="radial-gradient" cx="-24499.13" cy="-13169.01" r="14.12" gradientTransform="matrix(0.2, 0.04, -0.04, 0.2, 4567.04, 3573.29)" gradientUnits="userSpaceOnUse"><stop offset="0.28" stop-color="#fff"/><stop offset="0.41" stop-color="#fbfbfb"/><stop offset="0.54" stop-color="#efefef"/><stop offset="0.67" stop-color="#dadada"/><stop offset="0.8" stop-color="#bebebe"/><stop offset="0.93" stop-color="#9a9a9a"/><stop offset="0.95" stop-color="#949494"/></radialGradient><radialGradient id="radial-gradient-2" cx="-24434.3" cy="-13202.89" r="14.12" xlink:href="#radial-gradient"/><radialGradient id="radial-gradient-3" cx="-24383.17" cy="-13242.24" r="14.12" xlink:href="#radial-gradient"/><radialGradient id="New_Gradient_Swatch_1" cx="-520.99" cy="2199.29" r="2.88" gradientTransform="matrix(1, 0.17, -0.17, 0.99, 943.98, -2013.25)" gradientUnits="userSpaceOnUse"><stop offset="0.07" stop-color="#919191"/><stop offset="0.21" stop-color="#828283"/><stop offset="0.47" stop-color="#5c5c60"/><stop offset="0.83" stop-color="#1f1f27"/><stop offset="1" stop-color="#00000a"/></radialGradient><radialGradient id="New_Gradient_Swatch_1-2" cx="-507.4" cy="2194.05" r="2.88" xlink:href="#New_Gradient_Swatch_1"/><radialGradient id="New_Gradient_Swatch_1-3" cx="-495.3" cy="2186.21" r="2.88" xlink:href="#New_Gradient_Swatch_1"/><radialGradient id="radial-gradient-4" cx="21.77" cy="29.27" fy="4.7292750409253514" r="43.04" gradientUnits="userSpaceOnUse"><stop offset="0.21" stop-color="#fff"/><stop offset="0.28" stop-color="#f7feff"/><stop offset="0.38" stop-color="#e3fdff"/><stop offset="0.51" stop-color="#c1faff"/><stop offset="0.66" stop-color="#92f5ff"/><stop offset="0.71" stop-color="#81f4ff"/></radialGradient><radialGradient id="radial-gradient-5" cx="68.75" cy="29.27" fy="-12.6772803234714" r="71.76" gradientUnits="userSpaceOnUse"><stop offset="0.27" stop-color="#fff"/><stop offset="0.31" stop-color="#f7feff"/><stop offset="0.37" stop-color="#e3fdff"/><stop offset="0.44" stop-color="#c1faff"/><stop offset="0.53" stop-color="#92f5ff"/><stop offset="0.55" stop-color="#81f4ff"/></radialGradient><radialGradient id="radial-gradient-6" cx="20.06" cy="12.32" fy="4.465994859433895" r="21.14" gradientTransform="translate(0 -2.07) scale(1 1.17)" gradientUnits="userSpaceOnUse"><stop offset="0.34" stop-color="#fff"/><stop offset="0.43" stop-color="#f7feff"/><stop offset="0.57" stop-color="#e3fdff"/><stop offset="0.74" stop-color="#c1faff"/><stop offset="0.94" stop-color="#92f5ff"/><stop offset="1" stop-color="#81f4ff"/></radialGradient><radialGradient id="radial-gradient-7" cx="70.46" cy="12.32" fy="2.7217094565599123" r="34.01" gradientTransform="translate(0 -1.22) scale(1 1.1)" gradientUnits="userSpaceOnUse"><stop offset="0.15" stop-color="#fff"/><stop offset="0.2" stop-color="#f7feff"/><stop offset="0.29" stop-color="#e3fdff"/><stop offset="0.4" stop-color="#c1faff"/><stop offset="0.52" stop-color="#92f5ff"/><stop offset="0.55" stop-color="#81f4ff"/></radialGradient><radialGradient id="New_Gradient_Swatch_17-2" cx="-2027.56" cy="1339.68" fx="-2077.1820952959706" fy="1303.128223296998" r="79.51" gradientTransform="translate(1855.94 -1279.09) scale(0.85 0.99)" xlink:href="#New_Gradient_Swatch_17"/><radialGradient id="New_Gradient_Swatch_17-3" cx="24449.43" cy="75.55" fx="24433.494353548456" fy="-3.482939392284905" r="89.42" gradientTransform="matrix(-1, 0, 0, 1, 24484.04, 0)" xlink:href="#New_Gradient_Swatch_17"/><radialGradient id="radial-gradient-8" cx="83.83" cy="64.15" fy="21.42715719789541" r="64.25" gradientUnits="userSpaceOnUse"><stop offset="0.17" stop-color="#7eebc2"/><stop offset="0.33" stop-color="#66dbaf"/><stop offset="0.66" stop-color="#2ab27f"/><stop offset="0.74" stop-color="#1ba873"/></radialGradient><symbol id="Bird_Body_MASTER_1_11" data-name="Bird_Body_MASTER_1 11" viewBox="0 0 186.35 143.19"><path class="cls-20" d="M93,28.45c-1.5,13.57-4.69,40.88,10.9,30.39C96,83,109.31,87.21,110.73,85.35a37.68,37.68,0,0,0-1.5,12s4.92-3.11,7-6.3c.24,2.34-2.09,11.54-2.09,11.54s9.49-6.51,12.94-13.17c-2.35,6-1.81,12.31-2.69,19.11,0,.4.26.7.5.46,4.28-4.43,7.59-11.08,9.26-18.63a106.88,106.88,0,0,1-2.25,19c6.44-7.39,9.64-25.12,9.14-32.62a87.69,87.69,0,0,1,3.67,18.26,72.32,72.32,0,0,0,1.14-29.4,57.55,57.55,0,0,1,15.21,17.72,62.63,62.63,0,0,0-5.7-27.12,64.35,64.35,0,0,1,18.43,15.48,58.38,58.38,0,0,0-10.67-22,66.44,66.44,0,0,1,21.79,5.78C179,40.68,167.27,33.92,156.08,31.88c6.83-3.37,17.89-6,25-7.29-3.12-5.7-11.44-9-16.27-9-7,.08-17.18,8-20.92,10.71a41.87,41.87,0,0,0,5.36-20.16c-6.57,11.4-16.55,15.39-17.92,24.61-1.27,8.65-3,11.18-11.8,15.67.23-17.21,9.17-44.88-6.46-45.68C100.1.09,94.53,14.87,93,28.45Z"/><path class="cls-21" d="M93,28.45a19.15,19.15,0,0,0-1.33,5.41c-.06.58-.15,1.61-.27,2.85-.29,3.43-.51,6.95-.47,10.55a48.45,48.45,0,0,0,.36,5.47,18.8,18.8,0,0,0,1.47,5.5,7,7,0,0,0,1.8,2.46,4.8,4.8,0,0,0,3,1.21,3,3,0,0,0,.79,0,6.65,6.65,0,0,0,.78-.08,9.93,9.93,0,0,0,1.47-.4,12.18,12.18,0,0,0,1.38-.59l.66-.33h0s0,0,0,0l-.06.2-.23.82L102,63a50.19,50.19,0,0,0-1.06,5.75c-.42,3.88-.34,8,1.36,11.83a11.39,11.39,0,0,0,3.95,4.79,6.84,6.84,0,0,0,3.08,1.15h.34s0,0,0,0h0l0,.1a34.49,34.49,0,0,0-1,6c-.08,1-.13,2-.15,3v1.07l0,1.44,0,.36v.27s0,0,.07,0l.6-.39c.4-.25.83-.52,1.2-.78l.83-.59.61-.45c.4-.3.79-.62,1.19-.94a27,27,0,0,0,2.24-2.06c.07-.07.06-.06,0-.06h0s0,0,0,0h0l0,.35-.12.71c-.25,1.5-.57,3-.88,4.4-.2.85-.39,1.67-.58,2.46s-.32,1.29-.47,1.91c-.08.32-.16.62-.23.93l-.06.22.18-.12.35-.25,1.32-.92,1.22-.89,1.15-.88,1-.78c3.92-3.19,7.5-6.89,9.37-10.27l.18-.31.09-.15v0l-1.37-.61h0v0l0,.08c-.08.22-.15.43-.23.63-.15.4-.26.79-.37,1.15-.22.73-.37,1.36-.48,1.87-.23,1-.3,1.56-.28,1.43h0a72.79,72.79,0,0,0-.79,8c-.08,1.25-.17,2.44-.26,3.55,0,.28,0,.55-.08.82s-.08.7-.11,1-.06.47-.08.7l.09.53.05.26a.91.91,0,0,0,.09.17,1.24,1.24,0,0,0,.34.29.91.91,0,0,0,.43.13,2.39,2.39,0,0,0,.39-.26l.79-.57a1.85,1.85,0,0,0,.39-.33l.29-.34.37-.44c.47-.58.85-1.06,1.11-1.44l.42-.58a39.87,39.87,0,0,0,4.69-9.21c.55-1.52,1-3,1.36-4.37.09-.34.17-.69.25-1,0-.17.07-.33.11-.5l.06-.24-1.48-.18h0v.23c0,.64,0,1.25-.07,1.82-.24,4.6-.57,6.94-.35,5-.15,1.58-.34,3.15-.55,4.67-.11.76-.22,1.51-.33,2.24-.06.37-.13.73-.18,1.09-.11.56-.21,1.11-.31,1.66-.06.34-.13.67-.19,1s-.15.72-.22,1.08c-.15.71-.29,1.4-.43,2.09l-.21,1,0,.12v.06l0,0,.13-.16.26-.34,1.08-1.39c.34-.44.73-.9,1-1.31l.83-1.2c.26-.39.52-.76.78-1.13l.18-.27.1-.17.18-.35a25.28,25.28,0,0,0,1.17-2.32c.29-.63.53-1.11.63-1.4.22-.59.19-.39-.34.79A68.9,68.9,0,0,0,141.22,86a54.67,54.67,0,0,0,.62-7.58c0-.29,0-.58,0-.87l0-.43v-.37c.32-.07-2.77.52-1.46.27v0l.46,1.51c.3,1,.55,1.91.77,2.78.89,3.47,1.31,5.93,1.48,6.88s.09.38-.39-2.11h0c.35,1.81.65,3.6.88,5.33.12.87.22,1.72.31,2.55l.06.62,0,.31v.19c2.94.23.81.06,1.47.1h0v-.1c.1-.4.2-.8.29-1.19a67.71,67.71,0,0,0,1.37-8c.23-2,.29-3.36.32-3.63s0,.5-.22,2.63h0a74.67,74.67,0,0,0,.1-13.68c-.1-1.08-.21-2.15-.35-3.2l-.09-.69h0l.13.11c.39.31.76.63,1.13.95.75.64,1.46,1.3,2.14,2a57.74,57.74,0,0,1,7,8.35c.49.71,1,1.41,1.41,2.12l1,1.63c.45.77.87,1.44,1.27,2.11l.62,1,.15.25.08.12s0-.08,0-.12v-.6c0-.8,0-1.59,0-2.37s0-1.54,0-2.35c0-.42,0-.8-.05-1.19A65.32,65.32,0,0,0,158.82,63c-.36-1.16-.75-2.27-1.16-3.32-.2-.53-.41-1.05-.62-1.55-.08-.18,0-.11,0-.12h0l.48.28.58.37c.39.24.76.48,1.12.72a64.41,64.41,0,0,1,11,9.41c2,2.12,2.71,3,2.71,3l.2.24.07.08,0,0h0l1.29-.66h0l0-.07c0-.1-.06-.22-.1-.37l-.32-1.14c-.29-1-.7-2.39-1.44-4.44A63.15,63.15,0,0,0,169,57.42h0c-.25-.46-.89-1.7-2.07-3.57-.31-.46-.63-1-1-1.52l-.59-.84-.58-.79h0l.33,0,1.36.18a64.56,64.56,0,0,1,13.18,3.31l1.89.72,1,.39,1.59.69,2,.87.25.11-.11-.26-.22-.5-.44-1c-.27-.63-.54-1.26-.82-1.89-.16-.35-.29-.72-.48-1.06a39.22,39.22,0,0,0-5.4-8.35,37.71,37.71,0,0,0-19.56-12.09l-.78-.2-.09,0h0l.17-.07.74-.31c2-.8,4.1-1.51,6.26-2.17,4.32-1.3,8.9-2.41,13.69-3.37l2.8-.55s.16,0,.17,0l-.12-.19-.23-.38-.47-.76c-.15-.23-.34-.56-.45-.71l-.3-.39A15.68,15.68,0,0,0,178,19.85,23.42,23.42,0,0,0,171,16a21,21,0,0,0-4-1,16.24,16.24,0,0,0-2.11-.16,15.36,15.36,0,0,0-2.15.23,27.71,27.71,0,0,0-7.89,3.07,73.93,73.93,0,0,0-7.28,4.6l-1.41,1-.06,0h0l.24-.51a42,42,0,0,0,2.77-8.76c.31-1.52.54-3.07.7-4.63l.05-.59,0-.35,0-.57L150,6.14l.08-2.28c.11-.69-.21,0-.39.26l-.61,1-1.62,2.54a4,4,0,0,1-.22.34l-.18.25-.22.31-.44.64c-.59.85-1.26,1.66-1.92,2.49-1.35,1.64-2.86,3.22-4.42,4.82s-3.22,3.21-4.78,5a20.65,20.65,0,0,0-3.9,6.2,18.55,18.55,0,0,0-.9,3.67c-.17,1.19-.41,2.37-.69,3.54A12.44,12.44,0,0,1,126.48,41a26.94,26.94,0,0,1-6.15,4.14s0,0,0-.14v-.21l0-.94c.06-1.29.17-2.58.29-3.88.5-5.18,1.29-10.44,1.83-15.79.27-2.68.49-5.38.53-8.11a32.11,32.11,0,0,0-.81-8.24,13,13,0,0,0-1.71-3.92A8.43,8.43,0,0,0,117.24,1,11.2,11.2,0,0,0,113,0l-2.12.05c-.71.05-1.4.22-2.1.33a15.2,15.2,0,0,0-7.28,4.12,24.94,24.94,0,0,0-4.7,6.74,42.9,42.9,0,0,0-2.77,7.56l-.24.95-.15.55c-.1.37-.16.72-.23,1-.13.64-.24,1.17-.32,1.51a19,19,0,0,0-.3,2.92A23.83,23.83,0,0,0,93,28.45c.36-.93.64-1.7.88-2.52a22.88,22.88,0,0,0,.68-2.79c.07-.33.18-.85.32-1.48.07-.31.12-.65.22-1,.05-.18.1-.36.14-.55l.24-.92a42.16,42.16,0,0,1,2.67-7.29,23.71,23.71,0,0,1,4.4-6.33,13.76,13.76,0,0,1,6.56-3.72,11.75,11.75,0,0,1,7.43.51c2.23,1.08,3.56,3.4,4.2,5.89a30,30,0,0,1,.76,7.83c0,2.66-.24,5.33-.51,8-.54,5.3-1.33,10.56-1.83,15.8-.13,1.31-.24,2.62-.3,3.93l-.06,1,0,1.74c-.57,1.94,1.25.36,2.24,0a28.21,28.21,0,0,0,6.51-4.39,11.82,11.82,0,0,0,2.37-3.21,17.46,17.46,0,0,0,1.34-3.65c.3-1.23.55-2.46.73-3.68a16.28,16.28,0,0,1,.82-3.37,19,19,0,0,1,3.63-5.75c1.5-1.72,3.13-3.32,4.71-4.93s3.11-3.22,4.5-4.91c.69-.86,1.38-1.69,2-2.58l.73-1h0l0,.22-.06.57a44.56,44.56,0,0,1-.67,4.49,40.4,40.4,0,0,1-2.67,8.43l-.23.5c-.16.33-.3.66-.49,1-.35.67-.81,1.44-1.2,2.15l-1.21,2.11-.3.52.43-.3.89-.65,5.58-4a73.11,73.11,0,0,1,7.13-4.51A26.37,26.37,0,0,1,163,16.56a14.23,14.23,0,0,1,7.48.87A22.18,22.18,0,0,1,177,21a13.8,13.8,0,0,1,2.51,2.56l.27.35.06.08s.05,0,0,.06l-.83.17c-4.83,1-9.45,2.08-13.84,3.41-2.19.67-4.32,1.39-6.38,2.21l-.76.32-.59.25-.73.32-2.86,1.35-.09,0,.09,0,.2,0,.38.08.77.17,1.52.33.77.17.37.08.21,0,.1,0,.75.2a36.18,36.18,0,0,1,18.8,11.61,37.51,37.51,0,0,1,5.19,8c.19.33.31.68.47,1s.07.17.07.18h0l-.38-.16-1-.4-1.94-.74a66.47,66.47,0,0,0-13.48-3.38l-1.39-.18-1-.11L163,49l-1.25-.12-.3,0,.18.23.37.47,1.42,1.83.71,1,.57.81c.37.52.68,1,1,1.47,1.16,1.82,1.78,3,2,3.48h0A60.22,60.22,0,0,1,171.22,66c.73,2,1.13,3.4,1.42,4.34.13.48.23.85.31,1.12s.07.26.09.36l0,.07h0l1.29-.67h0l0,0-.08-.09a2.08,2.08,0,0,0-.21-.23s-.73-.93-2.75-3.09c-1-1.07-2.37-2.45-4.2-4.09a61.36,61.36,0,0,0-7.1-5.53l-1.15-.75-.6-.37-.75-.45c-.83-.5-1.65-.93-2.51-1.42l-.65-.37-.32-.18c-.09,0-.3-.2-.18,0,.2.45.41.91.61,1.37s.41.92.62,1.39l.34.75.26.61c.21.49.42,1,.61,1.51.4,1,.78,2.1,1.13,3.23a64.27,64.27,0,0,1,2.83,16c0,.38,0,.79,0,1.15h0l-.33-.52q-.69-1.08-1.44-2.16a60.55,60.55,0,0,0-7.18-8.57c-.71-.69-1.44-1.37-2.2-2-.39-.33-.77-.66-1.17-1L147.5,66l-.59-.46-1.21-.92-.6-.46L145,64s-.14-.13-.1,0l.06.38.23,1.51.23,1.53.11.86c.15,1,.25,2.08.35,3.14a73.39,73.39,0,0,1-.1,13.4h0c.2-2.08.23-2.85.22-2.58s-.1,1.56-.32,3.56a65.82,65.82,0,0,1-1.34,7.79c-.09.38-.18.77-.28,1.16l0,.08h0a11.77,11.77,0,1,0,1.47.13v-.2l0-.31-.07-.63c-.09-.84-.19-1.71-.31-2.59-.24-1.76-.54-3.58-.9-5.42h0c.48,2.54.55,3.11.39,2.14s-.59-3.46-1.5-7c-.23-.88-.48-1.82-.78-2.82l-.47-1.54v0h0c1.3-.25-1.79.33-1.47.28v.35l0,.4c0,.27,0,.55,0,.83a52.09,52.09,0,0,1-.6,7.35,67.19,67.19,0,0,1-4.56,16.72c.94-2.32.42-.64-1.4,2.81l-.18.33-.09.17,0,0-.09.14-.1.15s0,0,0,0,0,.06,0,0l.27-1.59c.11-.74.22-1.5.34-2.27.21-1.55.4-3.13.55-4.74h0c-.22,2,.12-.39.36-5,0-.59,0-1.2.07-1.85v-.22h0c.32,0-2.81-.35-1.49-.18l0,.23-.12.48q-.11.49-.24,1c-.34,1.35-.78,2.77-1.31,4.24a39.22,39.22,0,0,1-4.51,8.86l-.4.56c-.38.57-2,2.42-1.51,1.89h0v-.07c0-.44.09-.9.14-1.38.09-1.13.18-2.33.26-3.58a71.63,71.63,0,0,1,.77-7.81h0c0,.12,0-.39.27-1.36.11-.48.25-1.09.45-1.77.11-.34.21-.71.35-1.08l.21-.59,0-.07v0h0l-1.37-.62v0l-.08.14-.16.28c-1.71,3.1-5.17,6.72-9,9.84-.06,0-.4.31-1,.76l-.86.66h0c.12-.52.25-1.06.37-1.62.32-1.42.64-2.93.91-4.47l.12-.74,0-.39c0-.24.08-.49.1-.73,0-.48,0-.9.08-1.35s0-.79,0-1.2l0-1.22v-.25a1.8,1.8,0,0,0-.22.3l-.51.72a18.65,18.65,0,0,1-4.11,4.5q-.57.47-1.14.9L110,96s0,0,0,0h0v-.4c0-1,.06-1.94.14-2.91a32.93,32.93,0,0,1,1-5.7l.07-.26c0-.13.07-.24.1-.37l.22-.71a3.7,3.7,0,0,0-.61-.35l-.38-.2-.26-.14c-.09-.06-.25,0-.37,0a.66.66,0,0,1-.2,0h-.21a5.39,5.39,0,0,1-2.37-.91,9.8,9.8,0,0,1-3.41-4.16c-1.53-3.39-1.64-7.31-1.24-11a47.16,47.16,0,0,1,1-5.55l.36-1.37.19-.68.38-1.23.77-2.52.1-.31s0,0,0,0l-.08,0-.15.09-.6.37-1.21.74c-.41.23-.8.51-1.23.72l-.6.31a11.6,11.6,0,0,1-1.21.52,9.53,9.53,0,0,1-1.24.34,6,6,0,0,1-.61.06,1.73,1.73,0,0,1-.6,0,4.23,4.23,0,0,1-3.52-2.82,17.42,17.42,0,0,1-1.33-5,44.73,44.73,0,0,1-.34-5.29c0-3.53.17-7,.46-10.4.11-1.24.2-2.26.26-2.84A21.52,21.52,0,0,0,93,28.45Z"/><path class="cls-22" d="M7.86,72.44"/><path class="cls-22" d="M133.56,67"/><path class="cls-23" d="M39.31,64.32c0,15.3,4.13,22.57,14.13,33.57-4.54.47-10.81-2.63-12.81-6.63a43.16,43.16,0,0,1,.5,6.66,44.49,44.49,0,0,1-.52,6.8A55.52,55.52,0,0,1,36,118.8,37,37,0,0,1,32,125.07a33,33,0,0,1-5.25,5.33c.74-2.6,1.35-5.14,1.89-7.65s1-5,1.45-7.51c.88-5,.43-10.5-.54-8.08s-1.89,4.91-2.83,7.41c-4,9.67-8,20.67-18,26.67,4-9,6-18,8.74-26.74.63-2.08,1.27-4.14,2-6.19s.22-1.63-.93.49A71,71,0,0,1,14.74,115c-3,4.25-5,9.25-10,11.25,1-4,2-9,3.75-13.38.75-2.18,1.56-4.34,2.43-6.45s1.82-4.17,2.82-6.17c-4,2-6,6-11,7,1-6,3-12,7-16A11.53,11.53,0,0,1,.88,96.12c1-6,4.86-13.88,9.86-16.88-3,0-5,3-8,4-2-6,3-13,8-17-2,0-5,0-4-1,1.5-2.75,2.93-5.38,4.31-8s2.71-5.17,4-7.82C21.74,35.24,22,14.94,38,4.25,43.3.68,58.16,5.47,59.18,13.52c3.54,27.83-9.27,12.81-16.74,35.23A56.52,56.52,0,0,0,39.31,64.32Z"/><path class="cls-21" d="M39.31,64.32c-.22,1-.39,1.77-.51,2.63a18.77,18.77,0,0,0,0,2.94c0,.28.07.7.12,1.21,0,.25.06.53.09.83l0,.22v.06l.07.51c.13.77.21,1.55.38,2.33a36.36,36.36,0,0,0,3.11,9.28,46.43,46.43,0,0,0,5.57,8.53c1.07,1.34,2.2,2.67,3.35,4l.29.32h-.13c-.41,0-.82-.08-1.22-.17a15.44,15.44,0,0,1-4.73-1.79,13.31,13.31,0,0,1-2.09-1.47,4.81,4.81,0,0,1-.48-.42l-.22-.22L42.79,93l-.11-.12a.53.53,0,0,1-.11-.14l-.93-1.28-.23-.32-.29-.49-.58-1-1-1.85-.12-.2c0-.08-.09-.15-.06-.06l0,.3.1.65.44,3c.14,1,.26,2,.33,2.74l.09,1.38a42.66,42.66,0,0,1,0,5.42,32.57,32.57,0,0,1-.76,5.38c-.41,1.79-.88,3.57-1.45,5.33a44.08,44.08,0,0,1-4.58,10,34.73,34.73,0,0,1-3.31,4.43c-.61.69-1.25,1.35-1.92,2l-.19.18h0l.15-.63.68-2.76c.5-1.83.82-3.69,1.18-5.54s.77-3.66,1-5.58c.11-1,.19-1.9.22-2.86,0-.47,0-1,0-1.43l0-.72c0-.28,0-.71-.11-1.18-.12-.92-.41-1.53-.79-1.68a.69.69,0,0,0-.38-.1.83.83,0,0,0-.34.06,1,1,0,0,0-.27.16,1.87,1.87,0,0,0-.16.35l-1.17,2.88-2.3,5.64c-2.76,6.74-5.46,13.42-9.69,18.77a31.48,31.48,0,0,1-3.43,3.67l-.93.83-1,.76-.37.28h0s0,0,0-.11l.24-.58.45-1.15c.59-1.54,1.13-3.08,1.64-4.6,2-6.1,3.53-12,5.2-17.38.2-.58.46-1.59.69-2.45s.48-1.76.71-2.63.47-1.73.7-2.58c.11-.43.23-.85.34-1.27a.2.2,0,0,0-.19-.12.75.75,0,0,1-.24-.08,1,1,0,0,0-.17,0,.51.51,0,0,0-.25,0c-.2.1-.49.2-1.11,1.23l-1.9,3.32-.67,1.12-.47.75c-.64,1-1.28,1.93-1.93,2.89s-1.21,1.89-1.78,2.79a27.77,27.77,0,0,1-3.45,4.66,11.24,11.24,0,0,1-1.92,1.6,3.84,3.84,0,0,1-.5.32h0l0-.22c.05-.17.09-.35.13-.52l.45-1.9c.57-2.38,1-4.08,1.34-5.06.44-1.5.9-2.86,1.43-4.17l1.38-3.67c.46-1.14.81-2.25,1.26-3.21s.86-1.88,1.24-2.73c.31-.66.59-1.29.87-1.9.17-.38.39-.83.5-1.13l.36-.94L15,99l.09-.23,0-.11-.12.06-.9.49-1.61.89-.79.53-.38.26a3.54,3.54,0,0,0-.31.23c-.25.2-.49.38-.71.57l-1.18,1a25.8,25.8,0,0,1-2.62,2.12,3.58,3.58,0,0,1-.57.37,4.61,4.61,0,0,1-.8.45,8,8,0,0,1-1.41.59l-.07,0,.06-.32a34.38,34.38,0,0,1,3.14-9.43,19.52,19.52,0,0,1,1.91-3A16.17,16.17,0,0,1,10.08,92l.17-.19h0c-2.29-1.89-.64-.52-1.15-.93l0,0,0,0L9,91c-.1.13-.19.27-.3.4a8.27,8.27,0,0,1-.69.77,11.35,11.35,0,0,1-3.74,2.47,9.68,9.68,0,0,1-2.36.65h-.1v0c0-.09,0,0,.14-.61s.32-1.29.69-2.4a30.27,30.27,0,0,1,1.94-4.6,26,26,0,0,1,2-3.33A17.68,17.68,0,0,1,10,80.66a3.93,3.93,0,0,1,.57-.41l.3-.2.15-.11.07,0h0c-.77-2.78-.22-.77-.4-1.39h-.07a5.74,5.74,0,0,0-1.82.34,14.27,14.27,0,0,0-3.2,1.89c-.51.36-1,.72-1.54,1-.26.15-.53.31-.81.44-.07,0,0,0,0,0h0L3.19,82c0-.32-.09-.65-.13-1A11.19,11.19,0,0,1,3.15,79a16.23,16.23,0,0,1,3-6.77,27.12,27.12,0,0,1,3.1-3.61c.15-.15.31-.29.47-.43l.4-.37c.15-.15.33-.3.51-.45l2.13-1.79c.09,0,0,0-.06,0H10l-1.29,0-.68,0a5,5,0,0,1-.62-.1l-.23-.06s0,0,0,0c-.17.19-.18.26-.28.31s0,0,0,0,0,0,0,0a.34.34,0,0,1,.17.05l.07,0,.14.08s0,0,0,0l.12-.14.1-.2.36-.66,1.48-2.72c1-1.87,2.08-3.76,3.09-5.81L15.61,50a64.29,64.29,0,0,0,2.77-7c1.65-4.86,3-10,4.72-15.27a76.56,76.56,0,0,1,3-7.78c.31-.63.63-1.26.95-1.89a18.78,18.78,0,0,1,1-1.87c.36-.61.73-1.22,1.1-1.83l1.24-1.74.63-.88.71-.81,1.42-1.63,1.58-1.49.8-.74c.28-.24.58-.44.87-.67L38.19,5A5.56,5.56,0,0,1,40,4.16a12.33,12.33,0,0,1,4.22-.3,21.34,21.34,0,0,1,8.34,2.61c2.53,1.42,4.88,3.5,5.68,6.18a6.7,6.7,0,0,1,.21,1l.13,1.13c.09.76.18,1.51.23,2.27.14,1.51.23,3,.23,4.52A25.1,25.1,0,0,1,58.7,26a10.3,10.3,0,0,1-1.49,4c-1.53,2.33-4.48,3.47-6.94,5.38a21.21,21.21,0,0,0-5.93,7A41.62,41.62,0,0,0,41,50.71c-.41,1.4-.79,2.81-1.12,4.22l-.14.59c-.06.28-.12.55-.17.81-.22,1-.38,1.9-.46,2.38a12.92,12.92,0,0,0,.17,5.61A47.19,47.19,0,0,0,40.61,59c.09-.47.24-1.31.46-2.33,0-.25.11-.52.17-.79l.14-.58c.32-1.38.69-2.76,1.09-4.13a39.92,39.92,0,0,1,3.19-8,19.72,19.72,0,0,1,5.52-6.56c1.16-.88,2.43-1.63,3.73-2.48a11.92,11.92,0,0,0,3.55-3.26,11.78,11.78,0,0,0,1.72-4.53,25.9,25.9,0,0,0,.35-4.71c0-1.56-.09-3.11-.23-4.65-.06-.78-.14-1.54-.23-2.31l-.13-1.15a8.85,8.85,0,0,0-.27-1.24A9.93,9.93,0,0,0,57.11,8a16.6,16.6,0,0,0-3.82-2.88,22.9,22.9,0,0,0-8.95-2.8,13.72,13.72,0,0,0-4.76.36,7,7,0,0,0-2.24,1.07L35.51,5.16c-.3.24-.62.45-.91.7l-.84.78L32.11,8.19,30.62,9.9l-.74.85-.65.91-1.3,1.82-1.14,1.9a18.1,18.1,0,0,0-1.06,1.93l-1,2a80.12,80.12,0,0,0-3.08,7.94C19.91,32.49,18.58,37.67,17,42.46a62.84,62.84,0,0,1-2.71,6.84c-1.09,2.15-2.14,4.24-3.17,6.25S9,59.48,8,61.33L6.53,64.05l-.36.67-.08.13h0A.63.63,0,0,0,6,65a1.63,1.63,0,0,0-.19.47,1.12,1.12,0,0,0,.14.68,1.26,1.26,0,0,0,.35.35,1.5,1.5,0,0,0,.3.16,2.69,2.69,0,0,0,.47.14,6.46,6.46,0,0,0,.81.13l.76,0h.13L8.68,67c-.17.15-.34.3-.49.46a28.11,28.11,0,0,0-3.28,3.81,17.81,17.81,0,0,0-3.24,7.43h0a12,12,0,0,0-.1,2.39c.05.39.09.77.15,1.15s.13.53.2.79.18.67.28,1,.21.07.36,0L3,83.93a8.56,8.56,0,0,0,.89-.37,8.4,8.4,0,0,0,.94-.51C5.46,82.7,6,82.31,6.5,82a12.67,12.67,0,0,1,2.84-1.7A4.3,4.3,0,0,1,10.68,80h.05c-.17-.62.39,1.38-.38-1.39h0l-.09.06-.17.11L9.73,79a6.21,6.21,0,0,0-.64.47,19.24,19.24,0,0,0-3.71,4A29.38,29.38,0,0,0,3.24,87a33.26,33.26,0,0,0-2,4.82,25.68,25.68,0,0,0-.72,2.53h0c-.1.31-.27,1.33-.41,2.13L0,96.76s0,.12,0,.14H.18l.68,0,.66,0,.58-.06A12.13,12.13,0,0,0,4.81,96a12.92,12.92,0,0,0,4.24-2.81,9.59,9.59,0,0,0,.8-.89,5.74,5.74,0,0,0,.35-.47l.08-.11.05-.06,0,0c-.51-.43,1.16.93-1.14-1h0l-.2.21a20.21,20.21,0,0,0-1.39,1.61,22,22,0,0,0-2.06,3.24,36.47,36.47,0,0,0-3.28,9.83q0,.27-.09.51c-.05.27-.09.53-.13.78s-.09.5-.13.74l-.06.35c0,.09-.11.31.06.22l1.26-.31a8.71,8.71,0,0,0,1-.29,10.72,10.72,0,0,0,1.63-.67,6.65,6.65,0,0,0,.9-.51,5.42,5.42,0,0,0,.63-.42,25.58,25.58,0,0,0,2.77-2.23l1.14-1c.21-.18.44-.35.67-.53l.07,0h0c-.08.18-.17.36-.25.55l-1.26,2.77c-.47,1-.82,2.08-1.27,3.24s-.91,2.39-1.4,3.7-1,2.75-1.47,4.26c-.3,1-.78,2.74-1.35,5.14-.39,1.61-.83,3.44-1.33,5.47l0,.14,0,.07.06,0,.26-.12.52-.23,1.06-.48a10.79,10.79,0,0,0,1.06-.55c.2-.11.38-.23.57-.36A13.4,13.4,0,0,0,9.33,124,28.74,28.74,0,0,0,13,119.08c.57-.91,1.14-1.84,1.76-2.76s1.3-1.9,1.94-2.91l.75-1.21h0L16.55,115c-1.69,5.43-3.18,11.32-5.19,17.35-.51,1.5-1,3-1.62,4.53L9.29,138l-.66,1.6c-.31.75-.62,1.5-.94,2.25L7.22,143l-.06.14s-.07.14,0,.07l.26-.16.52-.34L10,141.3l1-.67.64-.5,1-.79,1-.87a33,33,0,0,0,3.6-3.86c4.41-5.59,7.14-12.4,9.9-19.14l.26-.64.21-.53.41-1.08.82-2.15.82-2.16.1-.25h0s0,0,0,.2l0,.67c0,.45,0,.9,0,1.36,0,.91-.11,1.82-.22,2.72-.22,1.8-.66,3.65-1,5.48s-.67,3.68-1.16,5.49l-.67,2.73-.53,2.12c-.25,1-.39,1.74-.58,2.61l-.07.31.26-.22.53-.42,1-.84c.34-.27.69-.58,1-.88l.85-.78c.7-.67,1.37-1.37,2-2.09a34.55,34.55,0,0,0,3.46-4.62A46,46,0,0,0,39.5,112.1c.58-1.8,1.06-3.63,1.48-5.46a35.93,35.93,0,0,0,.8-5.61,45.52,45.52,0,0,0,0-5.6l-.1-1.36c0-.13,0,0,0-.06h0l.39.38a5.89,5.89,0,0,0,.53.48,15.76,15.76,0,0,0,2.31,1.62,16.65,16.65,0,0,0,5.2,2,10.82,10.82,0,0,0,1.39.2h1.16c.41,0,.82,0,1.24,0l.63,0h.32c.07,0,.1,0,0-.06l-.09-.12-.77-.93-1.44-1.62q-1.73-1.94-3.31-3.92a45.92,45.92,0,0,1-5.4-8.26,34.71,34.71,0,0,1-3-8.89c-.16-.75-.24-1.51-.37-2.26L40.5,72v0l0-.22q0-.44-.09-.81c-.05-.49-.09-.9-.12-1.17a23.67,23.67,0,0,0-.36-2.85C39.76,66.07,39.56,65.28,39.31,64.32Z"/></symbol><symbol id="Bird_Head_2_3" data-name="Bird_Head_2 3" viewBox="0 0 167.78 104.03"><path class="cls-24" d="M123.11,91.62c3.18-16.81,5.87-30.31,1-43.51-3.08-8.36-10.44-14.58-18.56-18.25s-12.3-4.58-20.46-5.09H84.3c-8.15.51-14.14,1.41-22.25,5.09S46.57,39.75,43.49,48.11c-4.87,13.2-1.86,33.46.41,44.37l3.34,11.06h73.6Z"/><path class="cls-25" d="M43.49,48.11A47.1,47.1,0,0,0,41,61.78c0,.3,0,.47,0,.47-.06,8.1,2.27,17.06,10.53,20.87,2.7,1,5.76.92,9.13-1.14C68.46,77.21,84,59.89,84,59.89c.23-4.55-.11-10.66-2.56-14.7a19,19,0,0,0-11.17-8.34L54.41,34.3A30.44,30.44,0,0,0,43.49,48.11Z"/><path class="cls-25" d="M124.36,48.11a47.44,47.44,0,0,1,2.5,13.67c0,.3,0,.47,0,.47.06,8.1-2.27,17.06-10.53,20.87-2.7,1-5.76.92-9.13-1.14-7.81-4.77-23.32-22.09-23.32-22.09-.23-4.55.11-10.66,2.56-14.7A19,19,0,0,1,97.6,36.85l15.84-2.55A30.58,30.58,0,0,1,124.36,48.11Z"/><ellipse class="cls-26" cx="105.26" cy="55.34" rx="11.51" ry="12.04" transform="translate(-13.37 63.7) rotate(-31.77)"/><ellipse class="cls-27" cx="105.28" cy="56.17" rx="8.39" ry="8.52" transform="translate(26.5 145.8) rotate(-76.77)"/><circle class="cls-10" cx="101.22" cy="51.54" r="4.22"/><path class="cls-28" d="M81.19,59.3a5.26,5.26,0,0,1,5.31.1h0a5.92,5.92,0,0,1,2.31,8l-4.93,9.42-5.17-9.42a5.92,5.92,0,0,1,2.31-8Z"/><ellipse class="cls-26" cx="62.35" cy="55.34" rx="12.04" ry="11.51" transform="translate(-17.53 79.22) rotate(-58.23)"/><ellipse class="cls-27" cx="62.32" cy="56.17" rx="8.52" ry="8.39" transform="translate(-11.2 15.76) rotate(-13.23)"/><circle class="cls-10" cx="57.76" cy="51.54" r="4.22"/><path d="M72.05,37.58c2-.33-29.94-16.66-35.72-26.75a37,37,0,0,0,9.19,14.48A133.11,133.11,0,0,1,11.66,0,52,52,0,0,0,29.21,22.55,93.43,93.43,0,0,1,0,5.84C1.82,10,5.22,13.31,9,15.9,35.1,33.76,68,38.24,72.05,37.58Z"/><path d="M95.73,37.58c-2-.33,29.94-16.66,35.72-26.75a37.07,37.07,0,0,1-9.19,14.48A132.88,132.88,0,0,0,156.11,0a51.93,51.93,0,0,1-17.54,22.55A93.55,93.55,0,0,0,167.78,5.84c-1.82,4.15-5.22,7.47-9,10.06C132.67,33.76,99.83,38.24,95.73,37.58Z"/></symbol><symbol id="Bird_Body_MASTER_1_10" data-name="Bird_Body_MASTER_1 10" viewBox="0 0 90.52 160.76"><path class="cls-1" d="M40.78,120.78l-.21.51c-1.42-5.47-2.25-21.71-2.28-26.38l-6,1.14a244.38,244.38,0,0,0,5.26,25.38s0,.93,0,.94c-3.84,4.57-12.41,17.54-13.68,19-1.86,2.13-3.57,6.1-4.45,8.89a6,6,0,0,0-.31,3.19c.26,1,1.2,2,2.16,1.72l.41-.81a17.39,17.39,0,0,0-.2,2.4,3.79,3.79,0,0,0,1,3,2.21,2.21,0,0,0,2.55,0,7.35,7.35,0,0,0,1.91-2.08l.33-.82c.61,1.82,2.28,3.28,3.9,2.66,2.15-.83,2.3-4.08,2.22-6.61a57.35,57.35,0,0,1,3.1-20.67c.59-1.71,1.42-3.55,3-4.14.63-.23,1.33-.24,2-.51C45.44,125.83,44.86,121.75,40.78,120.78Z"/><path class="cls-1" d="M71.46,150.39c-.88-2.8-2.59-6.77-4.44-8.89-1.28-1.47-9.85-14.43-13.69-19,0,0,0-1,0-1a241.06,241.06,0,0,0,5.26-25.37l-6-1.15c0,4.68-.86,20.92-2.28,26.38l-.21-.51c-4.08,1-4.66,5-.66,6.76.63.27,1.33.27,2,.51,1.56.58,2.39,2.43,3,4.14A57.32,57.32,0,0,1,57.52,153c-.08,2.53.07,5.78,2.22,6.6,1.63.63,3.29-.83,3.9-2.65l.33.82a7.63,7.63,0,0,0,1.91,2.08,2.21,2.21,0,0,0,2.55,0,3.82,3.82,0,0,0,1-3,17.37,17.37,0,0,0-.19-2.39l.4.81c1,.22,1.9-.68,2.16-1.73A6,6,0,0,0,71.46,150.39Z"/><path d="M40.49,121.27c1.28.32,2.71,1.09,3,2.51a3,3,0,0,1-1.86,3c-.88.48-1.88.46-2.76.88a4.61,4.61,0,0,0-1.72,1.59,18.55,18.55,0,0,0-2.09,5.3,57.67,57.67,0,0,0-2.24,13.11c-.12,2.08,0,4.15,0,6.23,0,1.46-.05,3.36-1.1,4.5-1.55,1.69-3.56-.21-4.07-1.84-.74-2.38.58-4.92,1.64-7,.3-.58-.58-1.09-.88-.51-1.06,2.06-2.18,4.34-1.95,6.73a4.83,4.83,0,0,0,3.1,4.19,3.16,3.16,0,0,0,3.66-2.12,13.08,13.08,0,0,0,.6-5.39,57.4,57.4,0,0,1,1.58-15.06,31.4,31.4,0,0,1,2.19-6.78,4,4,0,0,1,2-2.12,15.08,15.08,0,0,1,1.64-.4,5.74,5.74,0,0,0,1.37-.65,3.9,3.9,0,0,0,2-4c-.36-1.76-2-2.81-3.68-3.23a.51.51,0,0,0-.27,1Z"/><path d="M26.58,157.49c-.71,1-2.07,2.91-3.53,2.09-1.23-.68-1-2.81-.9-4a16.1,16.1,0,0,1,3.2-8.39c.39-.52-.49-1-.88-.51a16.81,16.81,0,0,0-3.38,10.54c.05,1.49.57,3.26,2.28,3.49,1.88.25,3.13-1.38,4.09-2.73.38-.54-.5-1-.88-.52Z"/><path d="M21,154.59c-.73.12-1.26-.71-1.42-1.3a5,5,0,0,1,.24-2.65,13.59,13.59,0,0,1,.57-1.5,47,47,0,0,1,3-5.54c1.63-2.69,3.49-5.22,5.31-7.79q4.35-6.13,8.71-12.28a5.17,5.17,0,0,0,.91-1.35,2.82,2.82,0,0,0-.24-1.19c-.24-.87-.46-1.76-.68-2.64-.54-2.22-1-4.45-1.51-6.68-1.08-5-2.13-10.15-2.81-15.28l-.44.59,5.67-1.49-.77-.58c0,3.25.21,6.52.41,9.77.25,4.1.56,8.21,1.1,12.29a34.76,34.76,0,0,0,.89,4.85.61.61,0,0,0,1.17-.33,52.27,52.27,0,0,1-1.42-9.81c-.37-4-.62-8.06-.8-12.1-.07-1.55-.13-3.11-.14-4.67a.61.61,0,0,0-.76-.59l-5.67,1.49a.62.62,0,0,0-.45.58A214.26,214.26,0,0,0,36,117.7c.36,1.5.72,3,1.15,4.48l.07-.46L26.29,137.11a68,68,0,0,0-6.9,11.29,12.13,12.13,0,0,0-1.06,3.37c-.24,1.84.71,4.36,3,4,.76-.12.44-1.29-.32-1.16Z"/><path d="M50.15,120.41a4.9,4.9,0,0,0-3.53,2.72,3.54,3.54,0,0,0,.88,3.73,5.68,5.68,0,0,0,2.2,1.37c.57.19,1.19.21,1.75.43a3,3,0,0,1,1.12.82A8.6,8.6,0,0,1,54,132.19c.41,1.14.76,2.3,1.09,3.47a57.38,57.38,0,0,1,2.11,15,32,32,0,0,0,.18,6.11c.31,1.53,1.16,3.17,2.85,3.46,2.06.35,3.72-1.68,4.17-3.48.64-2.61-.66-5.25-1.82-7.5-.3-.59-1.18-.07-.88.51,1,1.91,2.13,4.13,1.79,6.35-.22,1.46-1.62,3.66-3.38,3-1.47-.52-1.79-2.43-1.89-3.77-.16-1.92,0-3.85,0-5.77a58.84,58.84,0,0,0-1.86-13.19,33.81,33.81,0,0,0-1.9-5.79,6.6,6.6,0,0,0-1.39-2.08,4.42,4.42,0,0,0-2.31-1.08c-1.51-.3-3.34-1.39-3.32-3.14s1.61-2.56,3-2.91a.51.51,0,0,0-.27-1Z"/><path d="M63.73,158c1,1.35,2.21,3,4.09,2.73,1.71-.23,2.23-2,2.28-3.49a16.81,16.81,0,0,0-3.38-10.54c-.39-.52-1.27,0-.88.51a16.13,16.13,0,0,1,3.2,8.39c.09,1.14.32,3.19-.82,3.93-1.47.94-2.9-1-3.61-2-.38-.53-1.26,0-.88.52Z"/><path d="M69.6,155.88c1.89.32,3-1.54,3-3.21a9.22,9.22,0,0,0-.84-3.5,50.37,50.37,0,0,0-4-7.35c-2.35-3.74-5.07-7.27-7.62-10.87-2.15-3-4.31-6.07-6.45-9.11l.06.47c.87-3,1.53-6,2.19-9.1q1.24-5.68,2.26-11.41c.31-1.76.6-3.51.83-5.28a.6.6,0,0,0-.44-.58l-5.67-1.49a.61.61,0,0,0-.77.58c0,3.21-.2,6.42-.4,9.62-.25,4.07-.55,8.14-1.07,12.18a32.57,32.57,0,0,1-.89,4.79.61.61,0,0,0,1.17.32,54,54,0,0,0,1.45-10c.37-4.07.63-8.16.81-12.25.07-1.56.13-3.12.14-4.68l-.77.59,5.67,1.48-.44-.58c-.59,4.52-1.5,9-2.43,13.48-.49,2.36-1,4.72-1.55,7.07-.22.94-.45,1.88-.69,2.81-.1.4-.21.8-.31,1.19a2.85,2.85,0,0,0-.26,1.24,5.35,5.35,0,0,0,.91,1.35l1.1,1.54,2.29,3.24,4.41,6.21c1.66,2.35,3.43,4.66,5,7.09a61.83,61.83,0,0,1,4,7,17.44,17.44,0,0,1,.69,1.68,6.24,6.24,0,0,1,.41,2.59c-.09.7-.6,1.82-1.48,1.68s-1.09,1-.33,1.16Z"/><path class="cls-2" d="M15.63,11.08,12.1,44.65c-1,22.38,8.83,40.63,16.82,53.67.89,1.46,1.38,3.18,2.61,4.38a4.51,4.51,0,0,0,4.69,1.22c1.86-.77,2.59-3,3.1-4.92,1.44-5.4,3.7-16,4.92-21a.94.94,0,0,1,1.82,0c1.86,6.54,4,14.5,5.73,21,.52,1.94,1.25,4.15,3.11,4.92a4.51,4.51,0,0,0,4.69-1.22,13,13,0,0,0,2.61-4.38C68.82,83,79.68,67.62,78.8,47.74L73.94,10.63"/><path d="M14.94,11.08,13.45,25.27,11.52,43.6a55.64,55.64,0,0,0,.22,11.68,81.37,81.37,0,0,0,4.11,18.14A112.11,112.11,0,0,0,22.73,89c1.21,2.28,2.49,4.54,3.81,6.76.62,1,1.27,2.07,1.88,3.12a27.35,27.35,0,0,0,2.22,3.91c1.78,2.15,5.2,3,7.29.81,1.7-1.77,2.12-4.53,2.68-6.82,1.27-5.18,2.4-10.4,3.6-15.6l.36-1.59.18-.72a2.13,2.13,0,0,1,.19-.76c.33-.38.5.22.57.47l.66,2.35q1.36,4.92,2.7,9.86c.83,3.09,1.57,6.21,2.49,9.28.79,2.59,2.45,5.25,5.56,4.78s4.73-3.48,5.88-6.14,2.33-5.12,3.56-7.64c2.59-5.28,5.28-10.51,7.55-15.94A71.73,71.73,0,0,0,79,57.64a40.68,40.68,0,0,0,.38-10.85l-2.31-17.6-2.3-17.56-.13-1c-.11-.87-1.5-.88-1.38,0l1.69,12.95,2.64,20.14c.18,1.34.41,2.68.53,4a42,42,0,0,1-.4,9.1,59.1,59.1,0,0,1-1.87,8.74c-3.24,11.19-9.33,21.18-14,31.8-1.07,2.43-2.44,6.15-5.68,6.1-3,0-3.57-4.1-4.15-6.28-1.7-6.39-3.42-12.77-5.22-19.13a1.94,1.94,0,0,0-.87-1.3,1.67,1.67,0,0,0-1.61,0c-.88.51-.95,1.78-1.16,2.68q-.86,3.71-1.69,7.43c-.6,2.66-1.2,5.33-1.84,8q-.39,1.65-.81,3.3a14.66,14.66,0,0,1-1.24,3.53,3.11,3.11,0,0,1-3.21,1.75,4.87,4.87,0,0,1-3.31-2.5c-.73-1.24-1.3-2.55-2.05-3.79-.61-1-1.22-2-1.82-3.06a133,133,0,0,1-7.32-14.19A88.94,88.94,0,0,1,14.37,63,73.82,73.82,0,0,1,13,53.55a57.73,57.73,0,0,1-.17-8.92c.39-4.79,1-9.57,1.52-14.36l1.9-18.12.12-1.07c.09-.89-1.3-.88-1.39,0Z"/><path class="cls-3" d="M13,67.64c21.61,8,48.41,2.59,66.8-11.17a1.16,1.16,0,0,0,.46-.82V48.1a1.17,1.17,0,0,0-1.85-1.05C60.21,59.81,34,66.18,13.12,58.59a1.18,1.18,0,0,0-1.55.84l.67,6.88A1.16,1.16,0,0,0,13,67.64Z"/><ellipse id="SVGID" class="cls-4" cx="48.31" cy="65.05" rx="2.92" ry="2.88"/><ellipse id="SVGID-2" data-name="SVGID" class="cls-5" cx="62.71" cy="60.51" rx="2.92" ry="2.88"/><ellipse id="SVGID-3" data-name="SVGID" class="cls-6" cx="74.51" cy="54.39" rx="2.92" ry="2.88"/><ellipse id="SVGID-4" data-name="SVGID" class="cls-7" cx="40.91" cy="66.31" rx="2.92" ry="2.88"/><ellipse id="SVGID-5" data-name="SVGID" class="cls-8" cx="55.39" cy="63.48" rx="2.92" ry="2.88"/><ellipse id="SVGID-6" data-name="SVGID" class="cls-9" cx="68.84" cy="57.84" rx="2.92" ry="2.88"/><path class="cls-10" d="M6.05,69.81c0-3.57,5.49-6.47,12.26-6.47s12.49,2.9,12.49,6.47-5.71,6.47-12.49,6.47S6.05,73.38,6.05,69.81Z"/><path class="cls-11" d="M6.05,69.81c0-3.57,5.49-6.47,12.26-6.47s12.49,2.9,12.49,6.47-5.71,6.47-12.49,6.47S6.05,73.38,6.05,69.81Z"/><path class="cls-12" d="M6.05,69.81c0-3.57,5.49-6.47,12.26-6.47s12.49,2.9,12.49,6.47-5.71,6.47-12.49,6.47S6.05,73.38,6.05,69.81Z"/><path class="cls-13" d="M5.74,69.44a11.73,11.73,0,0,0-.07,1.2c0,6.69,5.72,12.12,12.78,12.12s12.77-5.43,12.77-12.12a11.76,11.76,0,0,0-.06-1.2Z"/><line class="cls-14" x1="31.18" y1="71.28" x2="5.72" y2="71.28"/><path class="cls-15" d="M38.67,6.52C37,15.23,37.53,23.33,38,32.18c.29,5.13.92,10.32-.13,15.35A5.56,5.56,0,0,1,36.09,51a5.81,5.81,0,0,1-2.71.86c-5.14.66-16.22-.72-22.19-1.57a2,2,0,0,1-1.6-2.88c1.43-3-7.36-12.65-3.91-39.68-.22.11,7.57,3.07,12.88,2.86C28.42,10.19,38.67,6.52,38.67,6.52Z"/><path d="M38.05,6.35a78.66,78.66,0,0,0-1.11,16c.12,5.46.61,10.89.84,16.34a36.2,36.2,0,0,1-.41,8.19A6.79,6.79,0,0,1,36.19,50a4.47,4.47,0,0,1-3,1.21,54.22,54.22,0,0,1-11.1-.3c-2.07-.19-4.14-.42-6.2-.67l-2.76-.36a5.9,5.9,0,0,1-2.48-.52,1.48,1.48,0,0,1-.36-1.9,2.51,2.51,0,0,0,.14-.66,5.28,5.28,0,0,0-.15-1.48c-.32-1.43-.86-2.82-1.32-4.21A67.59,67.59,0,0,1,7,34.46,74.18,74.18,0,0,1,5.89,11.62c.12-1.3.27-2.6.43-3.9.07-.58-.73-.81-1.09-.45-1.11,1.09,2.6,2,3.07,2.14a38.25,38.25,0,0,0,7.77,1.71,37.15,37.15,0,0,0,9.58-.66,83.38,83.38,0,0,0,8.86-2c1.45-.41,2.91-.84,4.33-1.35.77-.27.43-1.5-.34-1.23A74.4,74.4,0,0,1,27.85,8.76,53.61,53.61,0,0,1,18.24,10a27.35,27.35,0,0,1-7.4-1.12c-1.12-.3-2.24-.64-3.34-1L6.44,7.4a1.23,1.23,0,0,0-.24-.1c-.38-.09.06-.43.12.42l-.19.45h0L5,7.72A80.65,80.65,0,0,0,5.43,33a63.4,63.4,0,0,0,1.91,7.44C7.85,42,8.45,43.6,8.88,45.21c.07.26.13.53.18.8s0,0,0,.24,0,.23,0,.34,0,.18,0,.27c0-.22,0,.08,0,.16a.21.21,0,0,1,0,.11c.08-.24-.08.19-.1.25a2.63,2.63,0,0,0,1.54,3.36,11.32,11.32,0,0,0,2.59.44q3,.41,6,.74a87.67,87.67,0,0,0,12.23.72c1.85-.06,4.1-.12,5.53-1.44,1.76-1.63,2-4.65,2.16-6.87a57.73,57.73,0,0,0-.09-8.42c-.18-2.82-.36-5.64-.49-8.46a102.47,102.47,0,0,1,.25-16.62c.16-1.39.37-2.77.62-4.14C39.43,5.89,38.2,5.54,38.05,6.35Z"/><path class="cls-16" d="M51.85,6.52c1.63,8.71,1.14,16.81.65,25.66-.28,5.13-.92,10.32.14,15.35A5.47,5.47,0,0,0,54.44,51a5.77,5.77,0,0,0,2.71.86c5.13.66,16.21-.72,22.19-1.57a2,2,0,0,0,1.59-2.88c-1.43-3,7.37-12.65,3.91-39.68.22.11-7.57,3.07-12.88,2.86C62.1,10.19,51.85,6.52,51.85,6.52Z"/><path d="M51.24,6.69a78.89,78.89,0,0,1,1,16.6c-.08,2.85-.24,5.68-.4,8.52s-.41,5.62-.46,8.44a29.43,29.43,0,0,0,.76,8.1,5.81,5.81,0,0,0,1.51,2.85,5.63,5.63,0,0,0,3.17,1.25,51.51,51.51,0,0,0,11.44-.21q3.2-.3,6.38-.7l2.87-.37a10.35,10.35,0,0,0,2.6-.46,2.62,2.62,0,0,0,1.46-3.33c0-.08-.18-.49-.1-.23,0,0,0-.1-.05-.14s0-.3,0-.2,0-.17,0-.24,0-.21,0-.32,0,0,0-.24a33,33,0,0,1,1.26-4.14c.74-2.23,1.41-4.48,1.94-6.77a75.56,75.56,0,0,0,1.25-23.48c-.12-1.3-.27-2.6-.43-3.9l-1.09.45h0l-.18-.45c.05-.81.49-.54.15-.44a1.28,1.28,0,0,0-.24.11l-.79.3c-.92.33-1.85.63-2.8.9A31.28,31.28,0,0,1,73.1,9.94a43.66,43.66,0,0,1-9.39-1c-2.65-.49-5.28-1.12-7.87-1.86-1.28-.37-2.56-.75-3.82-1.2-.77-.27-1.1,1-.33,1.23A75.33,75.33,0,0,0,63.8,10.27a41.39,41.39,0,0,0,9.8.92,35.63,35.63,0,0,0,7.86-1.54c1-.3,2-.61,2.9-1,.49-.2,1.67-.67.93-1.39-.35-.35-1.16-.13-1.09.45a80.09,80.09,0,0,1-.27,24.63,64.57,64.57,0,0,1-1.85,7.37c-.51,1.6-1.1,3.17-1.56,4.78a5,5,0,0,0-.24,3,1.47,1.47,0,0,1-.36,1.9,5.85,5.85,0,0,1-2.47.52c-1.94.26-3.87.5-5.81.71a90.57,90.57,0,0,1-12,.75c-1.69,0-4.15.06-5.32-1.34a6.64,6.64,0,0,1-1.18-3.15,26.9,26.9,0,0,1-.44-4.11A77,77,0,0,1,53,34.59c.18-2.74.33-5.47.45-8.21a96.43,96.43,0,0,0-.36-16c-.16-1.34-.37-2.67-.61-4C52.32,5.54,51.09,5.88,51.24,6.69Z"/><rect class="cls-17" x="29.89" y="5.75" width="31.66" height="12.14"/><rect class="cls-17" x="29.89" y="9.2" width="31.66" height="5.23"/><path class="cls-18" d="M3.85,1.55C3.44,7.7,2.71,13.48.65,19.14c11.82,4.67,20.52,4.34,32.5,4.87.12-1.64,1.32-13.59,6.32-20.78C24.53,5.26,10.21,2.07,3.89.63"/><path d="M3.21,1.55A63.24,63.24,0,0,1,0,19a.65.65,0,0,0,.45.78,61.2,61.2,0,0,0,12.9,3.55,105.7,105.7,0,0,0,12.19,1.06c2.52.1,5.05.18,7.58.29a.65.65,0,0,0,.64-.64A51.66,51.66,0,0,1,37.26,8.79,27,27,0,0,1,40,3.55a.64.64,0,0,0-.55-1c-10,1.35-20.25.51-30.15-1.44C7.56.8,5.81.41,4.06,0c-.8-.18-1.14,1.05-.34,1.23A115.19,115.19,0,0,0,29.66,4.52a76.6,76.6,0,0,0,9.81-.65l-.55-1a33.25,33.25,0,0,0-4.33,9.78,61.7,61.7,0,0,0-1.8,8.83c-.12.83-.22,1.66-.28,2.49l.64-.63C24.79,23,16.37,23,8.21,20.94A63.8,63.8,0,0,1,.82,18.52l.44.79A64.64,64.64,0,0,0,4.49,1.55c0-.82-1.22-.81-1.28,0Z"/><path class="cls-19" d="M86.67,1.55c.42,6.15,1.14,11.93,3.21,17.59C78.05,23.81,69.35,23.48,57.38,24c-.13-1.64-1.33-13.59-6.33-20.78C66,5.26,80.31,2.07,86.64.63"/><path d="M86,1.55a64.62,64.62,0,0,0,3.22,17.76l.45-.79A61.08,61.08,0,0,1,77,22a103,103,0,0,1-12.16,1.05c-2.49.1-5,.18-7.47.29L58,24A52.84,52.84,0,0,0,54.42,8.28,27.23,27.23,0,0,0,51.6,2.91l-.55,1c10.13,1.35,20.43.48,30.42-1.48C83.25,2,85,1.65,86.8,1.25c.81-.18.47-1.41-.33-1.23A114.44,114.44,0,0,1,60.75,3.25a76.85,76.85,0,0,1-9.7-.66.64.64,0,0,0-.55,1,32.17,32.17,0,0,1,4.22,9.57,61.48,61.48,0,0,1,1.76,8.51c.1.79.2,1.59.26,2.38a.64.64,0,0,0,.64.64c8.43-.37,16.93-.36,25.16-2.46a59.82,59.82,0,0,0,7.51-2.44.64.64,0,0,0,.44-.78A63.61,63.61,0,0,1,87.31,1.55c0-.81-1.33-.82-1.27,0Z"/></symbol></defs><g id="Birds"><use width="186.35" height="143.19" transform="translate(77.98 145.72) scale(0.96)" xlink:href="#Bird_Body_MASTER_1_11"/><use width="167.78" height="104.04" transform="translate(68.02 47.29) scale(0.96)" xlink:href="#Bird_Head_2_3"/><use width="90.52" height="160.76" transform="translate(106.09 139.65) scale(0.96)" xlink:href="#Bird_Body_MASTER_1_10"/></g></svg>