<svg xmlns="http://www.w3.org/2000/svg" xmlns:xlink="http://www.w3.org/1999/xlink" viewBox="0 0 300 300"><defs><style>.cls-1,.cls-28{fill:#ffc4e6;}.cls-2{fill:url(#radial-gradient);}.cls-10,.cls-11,.cls-13,.cls-17,.cls-26,.cls-3{fill:#fff;}.cls-12,.cls-13,.cls-14,.cls-17,.cls-23,.cls-28,.cls-3{stroke:#000;}.cls-11,.cls-12,.cls-13,.cls-14,.cls-17,.cls-3{stroke-linecap:round;}.cls-11,.cls-12,.cls-13,.cls-14,.cls-17,.cls-23,.cls-25,.cls-26,.cls-28,.cls-3{stroke-miterlimit:10;}.cls-4{fill:url(#radial-gradient-2);}.cls-5{fill:url(#radial-gradient-3);}.cls-6{fill:url(#radial-gradient-4);}.cls-7{fill:url(#New_Gradient_Swatch_1);}.cls-8{fill:url(#New_Gradient_Swatch_1-2);}.cls-9{fill:url(#New_Gradient_Swatch_1-3);}.cls-11,.cls-25,.cls-26{stroke:#231f20;}.cls-11{stroke-width:0.56px;}.cls-12,.cls-14,.cls-23,.cls-25{fill:none;}.cls-12,.cls-13{stroke-width:1.25px;}.cls-14{stroke-width:0.85px;}.cls-15{fill:url(#radial-gradient-5);}.cls-16{fill:url(#radial-gradient-6);}.cls-17{stroke-width:0.71px;}.cls-18{fill:url(#radial-gradient-7);}.cls-19{fill:url(#radial-gradient-8);}.cls-20{fill:url(#radial-gradient-9);}.cls-21{fill:#202020;}.cls-22{fill:url(#radial-gradient-10);}.cls-23{stroke-width:1.38px;}.cls-24{fill:url(#radial-gradient-11);}.cls-25{stroke-width:2.96px;}.cls-26{stroke-width:1.27px;}.cls-27{fill:#231f20;}.cls-28{stroke-width:1.38px;}</style><radialGradient id="radial-gradient" cx="45.52" cy="41.21" fy="12.103707588823642" r="75.31" gradientUnits="userSpaceOnUse"><stop offset="0.16" stop-color="#ff54b5"/><stop offset="0.28" stop-color="#f34eb1"/><stop offset="0.49" stop-color="#d23da8"/><stop offset="0.77" stop-color="#9e2398"/><stop offset="0.81" stop-color="#961f96"/></radialGradient><radialGradient id="radial-gradient-2" cx="-24499.13" cy="-13169.01" r="14.12" gradientTransform="matrix(0.2, 0.04, -0.04, 0.2, 4567.04, 3573.29)" gradientUnits="userSpaceOnUse"><stop offset="0.28" stop-color="#fff"/><stop offset="0.41" stop-color="#fbfbfb"/><stop offset="0.54" stop-color="#efefef"/><stop offset="0.67" stop-color="#dadada"/><stop offset="0.8" stop-color="#bebebe"/><stop offset="0.93" stop-color="#9a9a9a"/><stop offset="0.95" stop-color="#949494"/></radialGradient><radialGradient id="radial-gradient-3" cx="-24434.3" cy="-13202.89" r="14.12" xlink:href="#radial-gradient-2"/><radialGradient id="radial-gradient-4" cx="-24383.17" cy="-13242.24" r="14.12" xlink:href="#radial-gradient-2"/><radialGradient id="New_Gradient_Swatch_1" cx="-520.99" cy="2199.29" r="2.88" gradientTransform="matrix(1, 0.17, -0.17, 0.99, 943.98, -2013.25)" gradientUnits="userSpaceOnUse"><stop offset="0.07" stop-color="#919191"/><stop offset="0.21" stop-color="#828283"/><stop offset="0.47" stop-color="#5c5c60"/><stop offset="0.83" stop-color="#1f1f27"/><stop offset="1" stop-color="#00000a"/></radialGradient><radialGradient id="New_Gradient_Swatch_1-2" cx="-507.4" cy="2194.05" r="2.88" xlink:href="#New_Gradient_Swatch_1"/><radialGradient id="New_Gradient_Swatch_1-3" cx="-495.3" cy="2186.21" r="2.88" xlink:href="#New_Gradient_Swatch_1"/><radialGradient id="radial-gradient-5" cx="21.77" cy="29.27" fy="4.7292750409253514" r="43.04" gradientUnits="userSpaceOnUse"><stop offset="0.21" stop-color="#fff"/><stop offset="0.28" stop-color="#f7feff"/><stop offset="0.38" stop-color="#e3fdff"/><stop offset="0.51" stop-color="#c1faff"/><stop offset="0.66" stop-color="#92f5ff"/><stop offset="0.71" stop-color="#81f4ff"/></radialGradient><radialGradient id="radial-gradient-6" cx="68.75" cy="29.27" fy="-12.6772803234714" r="71.76" gradientUnits="userSpaceOnUse"><stop offset="0.27" stop-color="#fff"/><stop offset="0.31" stop-color="#f7feff"/><stop offset="0.37" stop-color="#e3fdff"/><stop offset="0.44" stop-color="#c1faff"/><stop offset="0.53" stop-color="#92f5ff"/><stop offset="0.55" stop-color="#81f4ff"/></radialGradient><radialGradient id="radial-gradient-7" cx="20.06" cy="12.32" fy="4.465994859433895" r="21.14" gradientTransform="translate(0 -2.07) scale(1 1.17)" gradientUnits="userSpaceOnUse"><stop offset="0.34" stop-color="#fff"/><stop offset="0.43" stop-color="#f7feff"/><stop offset="0.57" stop-color="#e3fdff"/><stop offset="0.74" stop-color="#c1faff"/><stop offset="0.94" stop-color="#92f5ff"/><stop offset="1" stop-color="#81f4ff"/></radialGradient><radialGradient id="radial-gradient-8" cx="70.46" cy="12.32" fy="2.7217094565599123" r="34.01" gradientTransform="translate(0 -1.22) scale(1 1.1)" gradientUnits="userSpaceOnUse"><stop offset="0.15" stop-color="#fff"/><stop offset="0.2" stop-color="#f7feff"/><stop offset="0.29" stop-color="#e3fdff"/><stop offset="0.4" stop-color="#c1faff"/><stop offset="0.52" stop-color="#92f5ff"/><stop offset="0.55" stop-color="#81f4ff"/></radialGradient><radialGradient id="radial-gradient-9" cx="-1988.18" cy="1349.44" fx="-2025.9448367012578" fy="1299.486243557084" r="72.23" gradientTransform="translate(1860.14 -1329.92) scale(0.85 1.03)" gradientUnits="userSpaceOnUse"><stop offset="0.12" stop-color="#961f96"/><stop offset="0.52" stop-color="#d840a9"/><stop offset="0.79" stop-color="#ff54b5"/></radialGradient><radialGradient id="radial-gradient-10" cx="22078.67" cy="1349.44" fx="22040.906077610936" fy="1299.486243269121" r="72.23" gradientTransform="matrix(-0.85, 0, 0, 1.03, 18783.53, -1329.92)" xlink:href="#radial-gradient-9"/><radialGradient id="radial-gradient-11" cx="46.2" cy="124.57" fy="50.790005528608845" r="217.12" gradientUnits="userSpaceOnUse"><stop offset="0.14" stop-color="#ff54b5"/><stop offset="0.21" stop-color="#fd53b4"/><stop offset="0.25" stop-color="#f54fb2"/><stop offset="0.29" stop-color="#e748ae"/><stop offset="0.32" stop-color="#d33ea8"/><stop offset="0.34" stop-color="#ba31a1"/><stop offset="0.37" stop-color="#9b2298"/><stop offset="0.37" stop-color="#961f96"/></radialGradient><symbol id="Bird_Body_MASTER_1_5" data-name="Bird_Body_MASTER_1 5" viewBox="0 0 221.13 109.95"><path class="cls-20" d="M127.73,28.47c-1.49,13.58-4.69,40.88,10.91,30.4C130.73,83,144,87.23,145.44,85.38a37.78,37.78,0,0,0-1.51,12s4.93-3.1,7-6.29c.24,2.34-2.09,11.53-2.09,11.53s9.49-6.5,12.94-13.17c-2.35,6-1.81,12.32-2.69,19.11,0,.41.26.71.49.47,4.29-4.44,7.6-11.09,9.26-18.64a105.76,105.76,0,0,1-2.25,19c6.45-7.38,9.65-25.11,9.15-32.61a87.56,87.56,0,0,1,3.67,18.26,72.51,72.51,0,0,0,1.14-29.4,57.63,57.63,0,0,1,15.21,17.71,62.83,62.83,0,0,0-5.7-27.12A64.48,64.48,0,0,1,208.5,71.75a58.56,58.56,0,0,0-10.67-21.94,66.5,66.5,0,0,1,21.79,5.78C213.75,40.71,202,34,190.79,31.91c6.83-3.37,17.89-6,25-7.29-3.12-5.7-11.45-9-16.27-9-7,.08-17.18,8-20.92,10.71A41.86,41.86,0,0,0,184,6.18c-6.56,11.4-16.55,15.39-17.91,24.61-1.28,8.65-3,11.18-11.8,15.66.22-17.2,9.17-44.87-6.46-45.67C134.81.11,129.23,14.9,127.73,28.47Z"/><path class="cls-21" d="M127.73,28.47a20.87,20.87,0,0,0-1.4,5.71c0,.57-.14,1.58-.26,2.8-.28,3.42-.5,6.92-.44,10.52A48.33,48.33,0,0,0,126,53a18.72,18.72,0,0,0,1.52,5.48,7,7,0,0,0,1.88,2.44,5.07,5.07,0,0,0,3,1.12,7.78,7.78,0,0,0,3-.56,8.84,8.84,0,0,0,1.37-.59l.33-.17.14-.07h0a1.27,1.27,0,0,0-.06.18c-.2.76-.41,1.52-.61,2.28a47,47,0,0,0-1,5.73,22.68,22.68,0,0,0,1.38,11.81,11.43,11.43,0,0,0,4,4.78A6.79,6.79,0,0,0,144,86.54h.26s0,0,0,0a34.54,34.54,0,0,0-1,6c-.09,1-.13,2-.15,3v1.12l0,1.44a6.77,6.77,0,0,0,.05.68l.6-.38c.4-.26.8-.51,1.21-.79l.6-.41.3-.22.61-.45,1.19-.94A27,27,0,0,0,150,93.53s0,0,0,0h0l0,.17-.12.71c-.25,1.5-.57,3-.89,4.4-.2.88-.4,1.74-.59,2.55-.16.65-.32,1.28-.47,1.9-.08.31-.16.62-.23.92l-.06.23s0,.11,0,.07l.09-.06.35-.24,1.32-.92,1.22-.89,1.28-1,1-.78c3.93-3.19,7.5-6.89,9.39-10.27l.18-.31.08-.15,0,0h0l-1.44-.65h0v0l0,.08c-.08.22-.15.43-.23.63-.15.4-.26.79-.37,1.16-.23.72-.37,1.36-.49,1.87-.22,1-.3,1.56-.28,1.44h0a70.13,70.13,0,0,0-.79,7.94c-.08,1.24-.17,2.43-.26,3.53,0,.28-.05.55-.08.82s-.07.69-.11,1l-.09.77c0,.18.07.34.1.51s0,.38.12.45a1.11,1.11,0,0,0,.28.3,1.05,1.05,0,0,0,.44.18c.1.06.23-.08.37-.16s.51-.36.76-.52l.36-.26a5.34,5.34,0,0,0,.39-.44l.43-.5c.47-.57.84-1.05,1.11-1.42l.43-.6a40.07,40.07,0,0,0,4.72-9.22c.55-1.52,1-3,1.37-4.38.09-.35.17-.69.25-1l.12-.5.05-.25,0-.06a13.74,13.74,0,1,0-1.57-.18h0v.15c0,.64-.05,1.25-.08,1.83-.23,4.6-.56,7-.35,5-.29,3.19-.74,6.33-1.26,9.14l-.4,2-.1.49,0,.12v.06h0c.61.31-1.37-.68,1.37.69h0l0,0,.16-.21.62-.79a15,15,0,0,0,1.05-1.54,13.06,13.06,0,0,0,.85-1.43c.24-.46.47-.88.68-1.27s.35-.76.5-1.08c.29-.65.52-1.13.62-1.43.23-.6.19-.4-.33.79h0a68.81,68.81,0,0,0,4.6-17,52.43,52.43,0,0,0,.61-7.53l0-.88v-.74c-.69.12,1.54-.31-1.55.28h0v.08c.16.51.31,1,.46,1.5.29,1,.54,1.9.76,2.76.89,3.44,1.3,5.89,1.47,6.83s.09.38-.39-2.1h0c.36,1.8.65,3.59.89,5.32.11.87.21,1.72.31,2.55l.06.62,0,.31v.21l1.55.12h0l0-.08c.09-.4.19-.8.28-1.19a70.6,70.6,0,0,0,1.38-8c.22-2,.29-3.37.32-3.64s0,.5-.22,2.63h0a74.67,74.67,0,0,0,.1-13.68c-.1-1.08-.21-2.15-.35-3.2l-.08-.62h0s0,0,0,0c.39.31.76.63,1.13,1,.74.64,1.45,1.3,2.13,2a57.62,57.62,0,0,1,7,8.33c.49.7,1,1.41,1.41,2.12l2.35,3.83.61,1,.15.25.08.12s.06.12.05,0v-.6c0-.79,0-1.58,0-2.37s0-1.52,0-2.33l0-.8,0-.59a65.37,65.37,0,0,0-2.88-16.37c-.37-1.16-.75-2.27-1.16-3.32-.2-.53-.41-1.05-.63-1.55,0-.11,0,0,0,0h0l.3.18.58.36c.39.24.76.48,1.12.73a64.16,64.16,0,0,1,11,9.38c2,2.12,2.71,3,2.71,3l.2.23.07.09.05,0v0h0l1.37-.71v0l-.1-.36c-.08-.29-.19-.66-.32-1.15-.29-1-.7-2.4-1.45-4.45a60.91,60.91,0,0,0-3.58-8.1h0c-.26-.47-.9-1.7-2.08-3.58-.31-.46-.63-1-1-1.52l-.59-.84c-.17-.24-.35-.48-.54-.73h0l.22,0,1.36.17a64.33,64.33,0,0,1,13.17,3.31q.93.33,1.89.72c.7.28,1,.39,2.62,1.1l2,.87.26.11s0,0,0,0l0-.06-.06-.13-.22-.5-.44-1-.87-2c-.16-.34-.29-.71-.48-1A39.86,39.86,0,0,0,213.65,44a37.81,37.81,0,0,0-19.56-12.12l-.77-.2s0,0,0,0h0l.73-.31c2-.8,4.09-1.51,6.25-2.17,4.31-1.31,8.89-2.42,13.67-3.38l2.78-.54.2,0s.2,0,.11-.09l-.25-.38-.48-.78-.48-.79c-.12-.17-.21-.27-.31-.41a15.41,15.41,0,0,0-2.75-2.84,23.35,23.35,0,0,0-7-3.87,20.93,20.93,0,0,0-4-1,14.79,14.79,0,0,0-2.12-.18c-.36,0-.72,0-1.08.06a6.41,6.41,0,0,0-1.07.15,27.05,27.05,0,0,0-7.91,3,73.24,73.24,0,0,0-7.28,4.58c-1.19.84-2.37,1.7-3.55,2.56l-.44.32-.11.08-.05,0c.49.48-1.19-1,1.09,1.08l.14-.24c.18-.33.38-.65.56-1,.35-.66.69-1.34,1-2a42.26,42.26,0,0,0,2.8-8.74c.31-1.52.54-3.06.71-4.63l.05-.58,0-.35c0-.19,0-.39,0-.57l.1-2.25.09-2.26,0-.56V3.39l-.07.11-.15.23-.61.95h0l-1.6,2.49-.43.68-.36.52-.45.64c-.57.86-1.25,1.65-1.9,2.49-1.35,1.63-2.84,3.22-4.4,4.82s-3.21,3.2-4.77,5a20.9,20.9,0,0,0-4,6.16,16.06,16.06,0,0,0-.58,1.82c-.12.61-.29,1.28-.37,1.85-.18,1.19-.39,2.38-.68,3.54A17.46,17.46,0,0,1,163.35,38a10.69,10.69,0,0,1-2,2.84,16.67,16.67,0,0,1-2.83,2.27c-.51.35-1.06.66-1.59,1l-1.51.84-.19.1-.1,0s0,0,0,0l0-.89c.06-1.28.17-2.57.29-3.87.48-5.17,1.27-10.42,1.82-15.76.28-2.67.5-5.36.55-8.09a33.31,33.31,0,0,0-.72-8.23,14.54,14.54,0,0,0-1.59-4,8.51,8.51,0,0,0-3.16-3.06A10.31,10.31,0,0,0,148.12,0a17.13,17.13,0,0,0-4.23.29,15.08,15.08,0,0,0-7.39,3.91,24.06,24.06,0,0,0-4.82,6.66,44.87,44.87,0,0,0-2.84,7.53l-.24.9-.15.58c-.1.39-.2.75-.26,1.09-.14.68-.26,1.24-.34,1.6a16.62,16.62,0,0,0-.12,5.9,29.89,29.89,0,0,0,1.67-5.59c.08-.35.19-.9.33-1.56.06-.33.17-.68.26-1.05l.15-.57c.07-.29.15-.58.22-.88a43,43,0,0,1,2.74-7.23,22.22,22.22,0,0,1,4.49-6.22,13.48,13.48,0,0,1,6.61-3.51c2.47-.47,5.22-.46,7.33.72a6.78,6.78,0,0,1,2.59,2.51,13,13,0,0,1,1.4,3.51,31.85,31.85,0,0,1,.67,7.83c-.05,2.65-.26,5.3-.54,8-.55,5.29-1.34,10.54-1.82,15.78-.12,1.31-.23,2.61-.29,3.93l0,.49,0,.72-.05,1.77,0,.45v.22c0,.06,0,0,.05,0l.1,0,.75-.4,1.52-.79.58-.31.43-.24.85-.48c.55-.35,1.12-.66,1.66-1A17,17,0,0,0,162.45,42a12.64,12.64,0,0,0,2.33-3.25,19.76,19.76,0,0,0,1.28-3.67c.29-1.23.51-2.46.7-3.68.09-.63.23-1.14.34-1.71a15.22,15.22,0,0,1,.51-1.62,19.67,19.67,0,0,1,3.69-5.69c1.5-1.72,3.14-3.31,4.71-4.92s3.1-3.24,4.49-4.92c.67-.87,1.38-1.69,2-2.58l.46-.66.09-.12h0l-.08.8q-.24,2.27-.69,4.47a40.27,40.27,0,0,1-2.69,8.41c-.3.65-.62,1.3-1,1.93-.16.32-.35.62-.53.94l-.13.23c2.29,2.1.67.56,1.19,1l.06,0,.11-.09.45-.32c1.18-.87,2.34-1.72,3.52-2.54a71.45,71.45,0,0,1,7.12-4.48,25.55,25.55,0,0,1,7.43-2.87,4.43,4.43,0,0,1,.94-.13c.32,0,.63-.07.94-.06a15.06,15.06,0,0,1,1.88.16,20.19,20.19,0,0,1,3.69,1,22.07,22.07,0,0,1,6.51,3.6,14,14,0,0,1,2.48,2.56l.25.34h0s.05,0,0,0l-.85.17c-4.83,1-9.44,2.09-13.82,3.42-2.19.67-4.32,1.39-6.38,2.22-.26.09-.5.21-.77.32-.5.21-1,.42-1.46.65-.93.44-2,.9-2.82,1.33l3.05.67c.5.11,1,.21,1.5.34l.75.19A36.2,36.2,0,0,1,212.44,45a38,38,0,0,1,5.18,8c.18.33.3.69.46,1,0,.06,0,.07,0,.06h0c.29.13-.7-.3-1.3-.53s-1.3-.5-1.93-.74a66.54,66.54,0,0,0-13.49-3.38L200,49.24l-1.1-.12L197.61,49l-1.24-.12c-.08,0-.25-.05-.26,0l.19.24.37.47c.48.63,1,1.23,1.42,1.82l.75,1c.2.28.39.55.57.82.37.51.68,1,1,1.47,1.15,1.82,1.77,3,2,3.47h0a60.86,60.86,0,0,1,3.49,7.9c.73,2,1.13,3.4,1.41,4.35.14.47.24.84.31,1.12s.08.26.1.36v0c.61-.31-1.36.71,1.37-.7h0l-.05,0-.07-.09-.21-.24s-.73-.92-2.76-3.09a65.86,65.86,0,0,0-11.32-9.62c-.37-.25-.75-.49-1.15-.74l-.6-.38-.9-.53c-.82-.49-1.64-.93-2.51-1.42l-.64-.36-.33-.18-.08-.05s-.06,0,0,0l.08.16.6,1.37c.2.46.41.92.62,1.39s.47,1.05.63,1.43.41,1,.6,1.5c.4,1,.78,2.11,1.13,3.24a64.13,64.13,0,0,1,2.82,16l0,.57a2.49,2.49,0,0,1,0,.37h0l-.05-.08-.22-.34c-.46-.72-.94-1.44-1.45-2.16A59.18,59.18,0,0,0,186,69.34c-.71-.69-1.44-1.37-2.21-2-.38-.34-.76-.67-1.17-1-.72-.6-1.56-1.2-2.35-1.82-1.23-1.33-.56.54-.51,1.38l.23,1.53.12.93c.14,1,.25,2.08.35,3.14a73.18,73.18,0,0,1-.1,13.38h0c.19-2.08.22-2.84.21-2.57s-.09,1.56-.32,3.56A65.71,65.71,0,0,1,179,93.63c-.09.38-.18.77-.28,1.16v.07h0c-1.39-.1,1.89.16,1.55.13v-.06l0-.16,0-.31-.06-.63c-.09-.84-.2-1.71-.32-2.59-.24-1.76-.54-3.58-.9-5.42h0c.49,2.53.55,3.1.4,2.14s-.59-3.45-1.49-7c-.23-.88-.49-1.82-.78-2.81-.15-.5-.31-1-.47-1.53l0,0v0h0c-3.08.58-.85.17-1.54.3v.7l0,.82a53,53,0,0,1-.59,7.31,68.09,68.09,0,0,1-4.49,16.62c.5-1.16.54-1.35.32-.77-.1.3-.32.76-.6,1.38l-.48,1c-.2.37-.41.77-.65,1.2a12.75,12.75,0,0,1-.79,1.35,11.82,11.82,0,0,1-1,1.43l-.56.73-.15.19,0,0h0l1.37.68h0v-.06l0-.12.1-.5c.13-.67.27-1.37.41-2.08.53-2.86,1-6,1.28-9.29h0c-.22,2,.12-.4.36-5.08,0-.58.05-1.2.07-1.85v-.17h0l-1.57-.2v.06l-.06.24c0,.16-.08.32-.11.48-.08.32-.15.65-.25,1-.34,1.34-.79,2.77-1.32,4.24a38.64,38.64,0,0,1-4.53,8.85l-.41.57c-.26.35-.61.81-1,1.35l-.31.36h0c0-.45.08-.91.13-1.39.1-1.12.18-2.32.26-3.57a70.74,70.74,0,0,1,.77-7.76h0c0,.11.06-.4.27-1.37.11-.49.25-1.09.46-1.77.1-.34.21-.71.35-1.08l.21-.59,0-.07v0h0l-1.45-.65h0l0,0-.08.13-.16.29c-1.71,3.08-5.17,6.7-9,9.81l-.95.76-.74.58h0s0,0,0,0l.35-1.54c.32-1.42.64-2.94.91-4.48l.12-.74.08-.57c0-.25.06-.49.08-.73,0-.45,0-.87.06-1.31s0-.78,0-1.17l0-1.2V88.7l-.25.35-.52.73a23.85,23.85,0,0,1-2.07,2.65,25.93,25.93,0,0,1-2.1,1.94c-.38.3-.75.6-1.14.89l-.88.65s0,0,0,0h0v-.35c0-1,.06-1.93.14-2.9a33.55,33.55,0,0,1,.94-5.67c.09-.39.3-1,.39-1.37l-.64-.34-.35-.19-.25-.13c-.05,0-.08-.06-.14-.06l-.2,0a1.08,1.08,0,0,1-.19,0h-.28a5.34,5.34,0,0,1-2.35-.9,9.88,9.88,0,0,1-3.4-4.12,21.32,21.32,0,0,1-1.25-11,48.91,48.91,0,0,1,1-5.53l.36-1.36.19-.68.35-1.17.79-2.56.1-.32,0-.16,0-.08-.08,0-.6.37-1.2.73-1.22.74-.79.42a8.48,8.48,0,0,1-1.21.52,6.4,6.4,0,0,1-2.42.46A4.12,4.12,0,0,1,129,57.72a16.68,16.68,0,0,1-1.36-5,44.28,44.28,0,0,1-.37-5.26c-.06-3.51.15-7,.43-10.36.11-1.2.2-2.21.25-2.77A22.2,22.2,0,0,0,127.73,28.47Z"/><path class="cls-22" d="M93.4,28.47c1.5,13.58,4.69,40.88-10.9,30.4C90.41,83,77.12,87.23,75.69,85.38a37.46,37.46,0,0,1,1.51,12s-4.92-3.1-7-6.29c-.24,2.34,2.09,11.53,2.09,11.53s-9.49-6.5-12.94-13.17c2.34,6,1.81,12.32,2.69,19.11.05.41-.27.71-.5.47-4.28-4.44-7.6-11.09-9.26-18.64a105.76,105.76,0,0,0,2.25,19c-6.45-7.38-9.65-25.11-9.14-32.61a86.92,86.92,0,0,0-3.67,18.26,72.34,72.34,0,0,1-1.14-29.4A57.65,57.65,0,0,0,25.36,83.39a62.84,62.84,0,0,1,5.71-27.12A64.22,64.22,0,0,0,12.64,71.75,58.41,58.41,0,0,1,23.31,49.81,66.37,66.37,0,0,0,1.52,55.59C7.39,40.71,19.16,34,30.35,31.91c-6.84-3.37-17.89-6-25-7.29,3.12-5.7,11.44-9,16.27-9,7,.08,17.17,8,20.92,10.71A41.76,41.76,0,0,1,37.17,6.18c6.56,11.4,16.55,15.39,17.91,24.61,1.28,8.65,3,11.18,11.81,15.66C66.66,29.25,57.72,1.58,73.34.78,86.33.11,91.9,14.9,93.4,28.47Z"/><path class="cls-21" d="M93.4,28.47a22.63,22.63,0,0,0-.17,5.87c0,.56.14,1.57.25,2.77.28,3.39.49,6.85.43,10.36a44.26,44.26,0,0,1-.36,5.26,16.7,16.7,0,0,1-1.37,5,4.12,4.12,0,0,1-3.53,2.68,6.42,6.42,0,0,1-2.43-.46,8.37,8.37,0,0,1-1.2-.52l-.8-.42L83,58.26l-1.21-.73-.6-.37-.07,0,0,.08,0,.16.1.32.79,2.56.36,1.17.18.68L83,63.45A46.77,46.77,0,0,1,84,69c.4,3.7.27,7.59-1.25,11a9.81,9.81,0,0,1-3.4,4.12A5.34,5.34,0,0,1,77,85h-.28l-.19,0-.19,0c-.06,0-.1,0-.15.06l-.24.13-.35.19-.65.34c.09.41.31,1,.39,1.37a32.58,32.58,0,0,1,.94,5.67c.08,1,.13,1.93.15,2.9v.35h0l-.89-.65-1.13-.89a26.08,26.08,0,0,1-2.11-1.94,25.1,25.1,0,0,1-2.07-2.65l-.52-.73-.24-.35V89l0,1.2c0,.39,0,.75,0,1.17s0,.86,0,1.31c0,.24.05.48.09.73l.08.57.12.74c.26,1.54.58,3.06.9,4.48l.35,1.54s0,0,0,0h0l-.74-.58-1-.76c-3.83-3.11-7.29-6.73-9-9.81l-.16-.29-.08-.13,0,0h0l-1.44.65h0v0l0,.07.21.59a11.21,11.21,0,0,1,.35,1.08c.22.68.35,1.28.46,1.77.22,1,.29,1.48.27,1.37h0a70.81,70.81,0,0,1,.78,7.76c.07,1.25.16,2.45.25,3.57,0,.48.09.94.14,1.39h0l-.3-.36c-.45-.54-.8-1-1.06-1.35-.51-.71-.68-1-.4-.57a38.29,38.29,0,0,1-4.54-8.85c-.53-1.47-1-2.9-1.32-4.24q-.13-.51-.24-1l-.12-.48,0-.24,0-.06c-3.13.39-.86.11-1.56.2h0v.17c0,.65,0,1.27.08,1.85.23,4.68.57,7.07.35,5.08h0c.3,3.25.76,6.43,1.29,9.29.14.71.27,1.41.4,2.08l.11.5,0,.12v.06h0l1.37-.68h0l0,0-.14-.19-.57-.73a11.72,11.72,0,0,1-1-1.43,11.35,11.35,0,0,1-.8-1.35L52,104c-.17-.39-.33-.73-.47-1-.29-.62-.5-1.08-.61-1.38-.22-.58-.17-.39.33.77h0a67.2,67.2,0,0,1-4.49-16.62,51.46,51.46,0,0,1-.59-7.31c0-.28,0-.55,0-.82l0-.4v-.3c-.69-.13,1.54.28-1.55-.3h0v.08c-.17.52-.32,1-.47,1.53-.3,1-.55,1.93-.78,2.81-.9,3.51-1.32,6-1.49,7s-.09.39.39-2.14h0c-.36,1.84-.66,3.66-.9,5.42-.12.88-.22,1.75-.31,2.59l-.07.63,0,.31V95c-.34,0,2.94-.23,1.55-.13h0l0-.07c-.09-.39-.19-.78-.28-1.16a67.84,67.84,0,0,1-1.34-7.78c-.22-2-.29-3.29-.32-3.56s0,.49.22,2.57h0a73.18,73.18,0,0,1-.1-13.38c.1-1.06.2-2.11.34-3.14l.13-.93.22-1.53c.06-.84.72-2.71-.51-1.38-.79.62-1.63,1.22-2.35,1.82q-.6.48-1.17,1c-.77.66-1.5,1.34-2.2,2a59.92,59.92,0,0,0-7.19,8.56c-.5.72-1,1.44-1.45,2.16l-.21.34-.05.08h0c0,.09,0-.18,0-.37l0-.57a64.15,64.15,0,0,1,2.81-16c.36-1.13.73-2.21,1.13-3.24.19-.51.39-1,.61-1.5s.4-.95.63-1.43.41-.93.61-1.39.41-.92.61-1.37l.07-.16s0,0,0,0l-.08.05-.32.18-.65.36c-.86.49-1.69.93-2.51,1.42l-.9.53-.6.38c-.39.25-.78.49-1.15.74a66.27,66.27,0,0,0-11.32,9.62c-2,2.17-2.76,3.09-2.76,3.09l-.2.24-.08.09,0,0h0c2.73,1.41.76.39,1.37.7v0l.1-.36.31-1.12c.28-1,.68-2.35,1.41-4.35a61.17,61.17,0,0,1,3.5-7.9h0c.25-.46.87-1.65,2-3.47.3-.45.6-1,1-1.47l.57-.82.76-1,1.42-1.82.37-.47.18-.24c0-.05-.17,0-.25,0L23.52,49l-1.28.12-1.09.12-1.4.18A66.31,66.31,0,0,0,6.27,52.8c-.64.24-1.29.48-1.94.74s-1.59.66-1.3.53H3s0,0,0-.06c.15-.33.28-.69.46-1a38.38,38.38,0,0,1,5.17-8A36.2,36.2,0,0,1,27.44,33.37l.75-.19c.48-.13,1-.23,1.5-.34l3.05-.67c-.86-.43-1.88-.89-2.81-1.33-.46-.23-1-.44-1.47-.65-.26-.11-.51-.23-.77-.32-2.05-.83-4.18-1.55-6.37-2.22-4.38-1.33-9-2.45-13.82-3.42l-.85-.17c-.07,0,0,0,0,0h0l.26-.34a14,14,0,0,1,2.48-2.56,22,22,0,0,1,6.5-3.6,20.19,20.19,0,0,1,3.69-1,15.06,15.06,0,0,1,1.88-.16c.32,0,.63,0,.94.06a4.43,4.43,0,0,1,.94.13,25.44,25.44,0,0,1,7.43,2.87A70.45,70.45,0,0,1,37.88,24c1.17.82,2.33,1.67,3.52,2.54l.44.32.12.09,0,0c.53-.46-1.09,1.08,1.19-1l-.13-.23c-.17-.32-.36-.62-.53-.94-.34-.63-.65-1.28-1-1.93a40.87,40.87,0,0,1-2.69-8.41q-.45-2.2-.69-4.47l-.07-.8h0l.09.12.46.66c.6.89,1.3,1.71,2,2.58,1.39,1.68,2.92,3.31,4.49,4.92s3.21,3.2,4.71,4.92A19.27,19.27,0,0,1,53.52,28,13.23,13.23,0,0,1,54,29.66c.11.57.26,1.08.34,1.71.19,1.22.41,2.45.71,3.68a19.06,19.06,0,0,0,1.28,3.67A12.37,12.37,0,0,0,58.68,42a17.79,17.79,0,0,0,3.09,2.48c.54.38,1.11.69,1.67,1l.85.48.42.24.58.31,1.52.79.76.4.09,0s.07,0,.06,0v-.67l0-1.77,0-.72,0-.49c-.06-1.32-.17-2.62-.29-3.93-.49-5.24-1.28-10.49-1.83-15.78-.27-2.65-.49-5.3-.54-7.95a31.85,31.85,0,0,1,.68-7.83A12.68,12.68,0,0,1,67,5.09,6.85,6.85,0,0,1,69.6,2.58c2.11-1.18,4.87-1.19,7.33-.72a13.51,13.51,0,0,1,6.62,3.51A22.48,22.48,0,0,1,88,11.59a43.82,43.82,0,0,1,2.73,7.23c.07.3.15.59.22.88s.1.38.15.57c.1.37.2.72.26,1.05.14.66.26,1.21.33,1.56a30.66,30.66,0,0,0,1.67,5.59,16.62,16.62,0,0,0-.12-5.9c-.08-.36-.19-.92-.33-1.6-.07-.34-.17-.7-.27-1.09l-.15-.58c-.08-.3-.15-.6-.23-.9a44.06,44.06,0,0,0-2.85-7.53,24,24,0,0,0-4.81-6.66A15.13,15.13,0,0,0,77.25.3,17.21,17.21,0,0,0,73,0a10.26,10.26,0,0,0-4.18,1.18,8.47,8.47,0,0,0-3.17,3.06,14.54,14.54,0,0,0-1.59,4,33.3,33.3,0,0,0-.71,8.23c0,2.73.27,5.42.54,8.09.56,5.34,1.34,10.59,1.83,15.76.12,1.3.22,2.59.28,3.87l0,.89s0,.08,0,0l-.1,0-.2-.1-1.51-.84c-.53-.33-1.08-.64-1.58-1a16.74,16.74,0,0,1-2.84-2.27,10.92,10.92,0,0,1-2-2.84,17.46,17.46,0,0,1-1.16-3.35c-.28-1.16-.5-2.35-.68-3.54-.07-.57-.24-1.24-.37-1.85A16,16,0,0,0,55,27.46a21.1,21.1,0,0,0-4-6.16c-1.57-1.78-3.21-3.38-4.77-5s-3-3.19-4.41-4.82C41.21,10.66,40.52,9.87,40,9l-.44-.64-.37-.52-.43-.68-1.6-2.49h0l-.61-.95-.15-.23a.52.52,0,0,0-.07-.11v.15l0,.56.08,2.26.11,2.25c0,.18,0,.38,0,.57l0,.35.06.58c.16,1.57.4,3.11.71,4.63a41.09,41.09,0,0,0,2.8,8.74c.32.69.65,1.37,1,2,.17.34.37.66.55,1l.14.24c2.28-2.09.6-.6,1.1-1.08l-.06,0-.11-.08-.44-.32c-1.18-.86-2.36-1.72-3.54-2.56a75.63,75.63,0,0,0-7.28-4.58,27,27,0,0,0-7.92-3,6.27,6.27,0,0,0-1.07-.15c-.36,0-.72-.07-1.08-.06a14.91,14.91,0,0,0-2.12.18,21.12,21.12,0,0,0-4,1,23.35,23.35,0,0,0-7,3.87,15.36,15.36,0,0,0-2.74,2.84,4.86,4.86,0,0,0-.31.41L4.82,24l-.48.78-.24.38c-.09.09.05.07.1.09l.21,0,2.77.54c4.78,1,9.36,2.07,13.68,3.38,2.15.66,4.24,1.37,6.24,2.17l.74.31h0s0,0,0,0l-.78.2A37.78,37.78,0,0,0,7.49,44a39.53,39.53,0,0,0-5.4,8.36c-.18.34-.31.71-.47,1l-.88,2-.44,1-.22.5L0,57l0,.06s0,0,.05,0L.3,57l2-.87c1.62-.71,1.92-.82,2.62-1.1s1.27-.5,1.9-.72A64.41,64.41,0,0,1,20,51l1.36-.17.22,0h0l-.54.73-.59.84c-.38.54-.7,1.06-1,1.52-1.19,1.88-1.83,3.11-2.08,3.58h0a62.58,62.58,0,0,0-3.59,8.1C13,67.6,12.6,69,12.3,70L12,71.15c0,.14-.08.26-.1.36v0c.61.32-1.37-.7,1.36.71h0l0,0,0,0,.08-.09.2-.23s.72-.91,2.7-3a64.57,64.57,0,0,1,11-9.38c.36-.25.74-.49,1.12-.73l.59-.36.3-.18s0,0,0,0h0s0-.06,0,0c-.22.5-.42,1-.62,1.55-.41,1-.8,2.16-1.16,3.32a65.8,65.8,0,0,0-2.89,16.37l0,.59,0,.8c0,.81,0,1.54,0,2.33s0,1.58,0,2.37v.6c0,.09,0,0,.05,0l.07-.12.16-.25.61-1,2.34-3.83c.45-.71.92-1.42,1.42-2.12a57.53,57.53,0,0,1,7-8.33c.68-.67,1.39-1.33,2.14-2,.36-.32.74-.64,1.13-1l0,0h0l-.08.62c-.14,1-.24,2.12-.34,3.2A74.67,74.67,0,0,0,39.17,85h0c-.21-2.13-.24-2.9-.22-2.63S39,84,39.27,86a68.06,68.06,0,0,0,1.37,8c.1.39.19.79.29,1.19l0,.08h0l1.55-.12v-.06l0-.15,0-.31.06-.62c.09-.83.19-1.68.31-2.55.23-1.73.53-3.52.88-5.32h0c-.47,2.48-.53,3-.39,2.1s.59-3.39,1.47-6.83c.23-.86.47-1.79.76-2.76.15-.49.31-1,.46-1.5l0-.05v0h0c-3.08-.59-.86-.16-1.54-.28v.31l0,.43c0,.29,0,.58,0,.88a52.35,52.35,0,0,0,.6,7.53,68.85,68.85,0,0,0,4.61,17h0c-.52-1.19-.57-1.39-.34-.79.11.3.33.78.63,1.43.14.32.31.68.49,1.08s.44.81.68,1.27a14.87,14.87,0,0,0,.85,1.43,13.72,13.72,0,0,0,1.06,1.54l.62.79.15.21,0,0h0l1.38-.69h0v-.06l0-.12-.11-.49c-.12-.66-.26-1.34-.39-2-.52-2.81-1-6-1.27-9.14a43.07,43.07,0,0,1-.35-5c0-.58,0-1.19-.07-1.83V90.4h0a15.52,15.52,0,1,0-1.56.18v.06l.06.25c0,.16.08.33.11.5.08.33.16.67.26,1,.35,1.39.81,2.86,1.36,4.38A39.73,39.73,0,0,0,58,106c-.29-.4-.11-.15.42.6.27.37.65.85,1.12,1.42l.42.5c.12.15.26.3.39.44l.37.26.76.52c.13.08.26.22.37.16a1.07,1.07,0,0,0,.43-.18,1.16,1.16,0,0,0,.29-.3c.07-.07.07-.3.12-.45s.07-.33.09-.51l-.09-.77c0-.33-.07-.68-.11-1s0-.54-.08-.82c-.09-1.1-.17-2.29-.25-3.53a75.06,75.06,0,0,0-.79-7.94h0c0,.12-.06-.41-.29-1.44-.12-.51-.26-1.15-.48-1.87-.11-.37-.23-.76-.38-1.16-.07-.2-.15-.41-.22-.63l0-.08v0h0c.31-.15-2.74,1.23-1.45.65h0l0,0,.09.15.18.31c1.88,3.38,5.46,7.08,9.38,10.27l1,.78,1.27,1,1.23.89,1.32.92.35.24.09.06s0,0,0-.07l0-.23-.24-.92c-.15-.62-.31-1.25-.47-1.9-.19-.81-.39-1.67-.59-2.55-.31-1.4-.63-2.9-.89-4.4l-.11-.71,0-.17h0a25.65,25.65,0,0,0,2.25,2.06c.39.32.78.63,1.19.94l.6.45.31.22.6.41c.4.28.81.53,1.2.79l.61.38a4.79,4.79,0,0,0,0-.68L78,96.66V95.54c0-1-.06-2-.14-3a35.53,35.53,0,0,0-1-6c0-.07,0,0,0,0h.26a6.83,6.83,0,0,0,3.09-1.15,11.33,11.33,0,0,0,4-4.78A22.79,22.79,0,0,0,85.58,68.8a49,49,0,0,0-1-5.73c-.2-.76-.4-1.52-.61-2.28,0-.1-.06-.22-.06-.18h0l.14.07.33.17a9.27,9.27,0,0,0,1.37.59,7.81,7.81,0,0,0,3,.56,5.12,5.12,0,0,0,3-1.12,6.92,6.92,0,0,0,1.87-2.44A18.12,18.12,0,0,0,95.12,53a46.1,46.1,0,0,0,.38-5.45c.06-3.6-.16-7.1-.44-10.52-.11-1.22-.21-2.23-.26-2.8A20.51,20.51,0,0,0,93.4,28.47Z"/><path class="cls-23" d="M35.57,72.47"/><path class="cls-23" d="M161.27,67.05"/></symbol><symbol id="Bird_Head_1_3" data-name="Bird_Head_1 3" viewBox="0 0 102.02 154.58"><path class="cls-24" d="M101.31,107.45c0-.06,0-.13,0-.19,0-15.68-5.36-32.08-31.74-45.07C57.23,56.11,44.4,36.32,44,1.84c-12,12-6.9,41.48-2.17,50.52,0,0-22.73-29.12-24.15-32.64-.57,15.68,15.93,38.52,16,39.12-5-4.71-20.53-13.5-31.14-10.42C10.44,51.18,25.07,58.68,29.06,62a15.61,15.61,0,0,0,.75,1.54c-1.08.11-16.08-6-25.3-3.59C7.62,61,22.62,66.28,27.64,69.42c-.37.27-.73.56-1.1.84C21.36,69.7,15.22,69,8.47,71.94c2.72,0,10.57,1.49,13.67,2.13A46.35,46.35,0,0,0,8.47,112.3c1,21.46,10.07,40.51,10.07,40.51l26.31-.05a46.75,46.75,0,0,0,20,0l22.69-.05A90.15,90.15,0,0,0,101.21,113,36.57,36.57,0,0,0,101.31,107.45Z"/><path class="cls-21" d="M101.31,107.45a15.49,15.49,0,0,0,.52-5.64c0-.41-.11-1.08-.21-1.89l0-.31,0-.16-.07-.47c0-.33-.07-.67-.14-1L101,96a41.19,41.19,0,0,0-6.65-15.22A52.36,52.36,0,0,0,81.92,68.64c-1.22-.81-2.39-1.71-3.66-2.47s-2.53-1.54-3.82-2.28L70.5,61.81c-.68-.34-1.27-.7-1.91-1.05l-.94-.52-.88-.63a30.28,30.28,0,0,1-3.4-2.7c-.54-.48-1-1-1.55-1.54l-.77-.78c-.24-.27-.47-.55-.7-.83l-1.41-1.68c-.44-.59-.86-1.19-1.29-1.79-.89-1.16-1.6-2.45-2.38-3.69a68.16,68.16,0,0,1-6.7-16.2,106,106,0,0,1-3.16-17c-.23-2.83-.51-5.63-.55-8.42,0-1-.07-1.94-.1-2.9l-.1-2c0-.15-.06,0-.11,0l-.18.19L44,.67l-.7.76-.69.75-.33.37-.26.34-.65.85c-.4.59-.81,1.18-1.16,1.79A36.76,36.76,0,0,0,36,21.07a71.85,71.85,0,0,0,.56,14.86,68.65,68.65,0,0,0,3,13.08c.35,1,.75,2,1.18,2.91l.34.7,0,.09c2.55-1.62.69-.47,1.25-.84l0,0-.11-.15L42,51.39l-.9-1.15q-1.77-2.3-3.4-4.4h0C33.2,40,28.91,34.34,25.19,29.32c-1.85-2.52-3.58-4.88-5.06-7.06l-.28-.41-.07-.1a1.6,1.6,0,0,1-.13-.21l-.28-.47q-.54-.95-1.08-1.86c-.36-.61-.7-1.22-1-1.81L17,17l-.11-.23-.06-.11s-.05-.1,0,0c0,.29,0,.58,0,.87,0,1.17.07,2.31.1,3.42,0,.55,0,1.09,0,1.62,0,.11,0,.31,0,.36l0,.2.05.4c.16,1.05.25,2,.43,2.89s.38,1.64.53,2.32c.32,1.36.68,2.3.82,2.84.33,1.07.11.43-.72-2.4a72.45,72.45,0,0,0,4.56,12c1.72,3.66,3.54,7,5.3,10,.89,1.5,1.75,2.92,2.6,4.27.42.67.83,1.32,1.24,2l.59.93c.19.27.41.73.45.64h0l.44-.05c-.28.48,1-.7.84-.58l-.06,0-.1-.09-.2-.18-.41-.35c-.26-.24-.53-.45-.8-.66-.53-.43-1.06-.82-1.58-1.18-1-.74-2-1.35-2.92-1.91a55.91,55.91,0,0,0-6.91-3.55l.27.12,1.19.52,1.91.93h0a46.15,46.15,0,0,0-13-4.5,24.45,24.45,0,0,0-5.79-.28l-.71.06-.63,0-.57.13-2.33.5-1.13.24-.28.07-.14,0s.06,0,.08,0l.51.21,2,.79c.3.13.72.27,1.07.4L4.69,50l1,.42,1.88.79,3.32,1.49c2,.95,3.69,1.76,5.07,2.46,2.75,1.4,4.36,2.27,5.28,2.79l1.17.65,1.37.79c.53.32,1.25.73,2.18,1.33.48.3,1,.64,1.56,1,.29.19.56.42.86.65l.05,0,0,0h0v0h0l-.18-.06-.37-.11-3.35-1a74.35,74.35,0,0,0-8.73-2,43.75,43.75,0,0,0-5.57-.58l-1.53,0a5.22,5.22,0,0,0-.79,0l-1.14.11A9,9,0,0,0,5.34,59l-1.45.29-1.49.29-.74.15c.19.08.51.18.75.27L8,62l3.42,1.25c2.34.87,4.81,1.81,7.39,2.86,1,.41,2.25.92,4,1.72.89.41,1.91.88,3.06,1.49l.36.19s0,0,.05,0,.06,0,0,0L25,69.33A51.42,51.42,0,0,0,18.93,69a30.25,30.25,0,0,0-3.68.27c-.65.08-1.31.21-2,.34l-1,.24c-.37.08-.56.16-1.4.39-.67.22-1.25.46-1.85.69l-1.85.74-1.86.76-.36.15c-.31.07.17.07.43.07l1.72,0,1.67,0,1.33.1c.45,0,.87.08,1.28.13l.83.11,2.52.4c1.72.28,3.53.62,5.43,1l.51.1h0l-.32.33c-.18.18-.36.37-.54.58l-1.06,1.2a47.1,47.1,0,0,0-10,19.91c-.28,1.1-.46,2.25-.67,3.41s-.34,2.35-.41,3.57-.12,2.46-.15,3.72.13,2.53.2,3.82a108.13,108.13,0,0,0,2,16.17,127.82,127.82,0,0,0,4.74,17.12c.51,1.45,1.05,2.89,1.62,4.34.29.73.58,1.45.89,2.18l.46,1.08.66,1.46.07.14H28l9.74,0h7l.22,0c.82.18,1.65.33,2.49.46a47.21,47.21,0,0,0,10.16.47,46,46,0,0,0,5.1-.59l1.26-.23a5.85,5.85,0,0,1,1.1-.19h2.54l11,0h9.3l0-.07.59-.88.74-1.18a91,91,0,0,0,8.92-20,90.39,90.39,0,0,0,2.61-10.4l.45-2.61c.06-.43.16-.86.2-1.3l.06-.49,0-.21c0-.29.06-.56.09-.82.13-1,.23-1.91.29-2.4a13.51,13.51,0,0,0-.65-5.65,46.24,46.24,0,0,0-.86,5.51c-.06.48-.16,1.33-.29,2.36,0,.25-.06.52-.09.79l0,.21-.06.49c0,.43-.13.85-.2,1.28-.14.85-.29,1.7-.44,2.56a89.3,89.3,0,0,1-2.56,10.22A89.65,89.65,0,0,1,88,150.5l-.72,1.15-.17.26H78.63l-11,0H64.94a1.09,1.09,0,0,0-.29,0l-.33.07-.61.12-1.23.23a45.37,45.37,0,0,1-4.93.57,44.91,44.91,0,0,1-9.84-.46c-.81-.12-1.61-.27-2.41-.44l-.39-.08H37.74L28,152H19l-.76-1.74c-.3-.72-.59-1.43-.87-2.15-.57-1.43-1.1-2.86-1.6-4.29A126.24,126.24,0,0,1,11.11,127a104.88,104.88,0,0,1-1.95-16c-.07-1.27-.14-2.51-.21-3.74s0-2.42.16-3.6.25-2.33.39-3.46.37-2.23.65-3.3a45.58,45.58,0,0,1,9.72-19.27l1-1.16a6.89,6.89,0,0,1,.52-.56l.74-.77,1.06-1.09.26-.27c.08-.09.24-.2,0-.2l-.73-.15L20.41,73q-2.86-.57-5.47-1l-2.56-.4L12,71.49h0c-.15.05.33-.11.63-.17l1-.23c.64-.12,1.27-.25,1.88-.32a29.19,29.19,0,0,1,3.5-.26,51.25,51.25,0,0,1,5.9.33l1.26.14.57.06c.19,0,.33-.22.49-.31l.95-.72.46-.36.23-.17.11-.09s.11-.06,0-.08L28,68.78l-.88-.52L27,68.14l-.12-.06L26.6,68c-1.2-.64-2.24-1.12-3.15-1.52-1.81-.82-3.08-1.34-4.08-1.75-2.6-1.06-5.08-2-7.43-2.88L7.59,60.23h0l.37,0c.25,0,.5,0,.74,0h1.45a41.28,41.28,0,0,1,5.36.55,74.35,74.35,0,0,1,8.56,2l3.33,1,.94.28c.24.08.48.13.71.2s.41,0,.61.08l1.18.14c-.13-.36-.31-.75-.45-1.11L30,62.22c-.08-.19-.12-.31-.24-.56s-.29-.3-.37-.39c-.33-.24-.64-.5-.94-.7q-.9-.63-1.62-1.08c-1-.62-1.7-1-2.23-1.36l-1.4-.81L22,56.66c-.93-.52-2.55-1.4-5.33-2.81-1.39-.7-3.07-1.52-5.11-2.48-1-.47-2.14-1-3.36-1.5l-1.9-.81-1-.39h0l.6-.06a23.07,23.07,0,0,1,5.42.28,44.42,44.42,0,0,1,12.54,4.35L22,52.33l-1.16-.51-.25-.11a54.8,54.8,0,0,1,6.72,3.45c.88.54,1.84,1.14,2.83,1.86.5.34,1,.72,1.51,1.12.25.2.51.4.76.63l.37.33.19.16.1.09,0,0c-.28.14,2.41-1.18,1.27-.64v0l0-.06a5.71,5.71,0,0,0-.66-1.21c-.19-.3-.39-.62-.6-.93l-1.23-2q-1.26-2-2.57-4.23c-1.74-3-3.54-6.26-5.24-9.86a69.92,69.92,0,0,1-4.46-11.78c.81,2.75,1,3.37.7,2.34-.14-.52-.49-1.44-.79-2.76-.16-.65-.33-1.4-.52-2.23s-.26-1.77-.41-2.77l-.09-.62V22.6h0s0,0,0,0l.07.1.28.41c1.51,2.22,3.24,4.59,5.1,7.11,3.73,5,8,10.67,12.56,16.55h0l3.4,4.4.9,1.15.23.3.11.14,0,0c.57-.36-1.24.86,1.29-.8l0-.08-.31-.65A27.59,27.59,0,0,1,41,48.5a66.14,66.14,0,0,1-3-12.78,69.57,69.57,0,0,1-.55-14.54A35.16,35.16,0,0,1,41.56,6.29c.33-.57.7-1.12,1.07-1.66l.61-.79.06-.08h0s0,0,0,0h0V4l0,1c0,2.82.32,5.66.55,8.53A108.46,108.46,0,0,0,47.1,30.81,69.82,69.82,0,0,0,54,47.37a44.68,44.68,0,0,0,2.45,3.8c.44.61.87,1.24,1.33,1.84l1.45,1.74c.25.29.48.59.74.87l.8.81c.53.54,1,1.1,1.61,1.61a32.62,32.62,0,0,0,3.57,2.83l.93.65,1,.57c.66.36,1.34.76,2,1.09l3.88,2c1.26.73,2.5,1.5,3.74,2.24s2.4,1.62,3.59,2.42a50.66,50.66,0,0,1,12,11.78,39.5,39.5,0,0,1,6.41,14.66c.12.64.25,1.28.37,1.92.08.31.1.64.15,1l.06.45,0,.16,0,.3c.1.79.2,1.44.21,1.83A30.1,30.1,0,0,0,101.31,107.45Z"/><ellipse class="cls-25" cx="37.58" cy="110.72" rx="9.62" ry="9.13" transform="translate(-78.48 96.5) rotate(-64.27)"/><ellipse class="cls-26" cx="37.53" cy="111.64" rx="9.73" ry="9.24" transform="translate(-79.33 96.97) rotate(-64.27)"/><ellipse class="cls-27" cx="37.51" cy="112.31" rx="6.83" ry="6.78" transform="translate(-59.28 44.11) rotate(-36.36)"/><ellipse class="cls-10" cx="33.86" cy="108.55" rx="3.38" ry="3.42"/><path class="cls-28" d="M53.84,136.28c-3.41-9.94-10-6.63-13.81-9.66a1.28,1.28,0,0,1,.33-2.16l3.07-.82c2.8-.37,5.35-3.67,7-6.39,1-1.72,2.34-5.37,4.71-5.27h.35c2.37-.1,3.69,3.55,4.71,5.27C61.79,120,64,123.59,66.76,124l3.45.5a1.28,1.28,0,0,1,.33,2.16c-3.83,3-10.4-.28-13.81,9.66-.16.47-.78,1.44-1.41,1.45S54,136.77,53.84,136.28Z"/><path class="cls-27" d="M36.68,101.66c-.24-.65-.36-1-.78-1.26a8.54,8.54,0,0,1-1.46-1.07,9.81,9.81,0,0,1-1-1,8.76,8.76,0,0,1-.77-1.19A10.87,10.87,0,0,0,31,94.38c-.44.51-.12,2.74.32,3.51a10.22,10.22,0,0,0,.92,1.4,11.06,11.06,0,0,0,1.14,1.24,10.23,10.23,0,0,0,1.75,1.27A1.55,1.55,0,0,0,36.68,101.66Z"/><path class="cls-27" d="M35,101.91a3.83,3.83,0,0,0-1.64-1.07A7.81,7.81,0,0,1,31,99.74a8,8,0,0,1-1.48-1.37,10.33,10.33,0,0,1-1.16-1.69c-.53-1-1.57-3.51-2.21-4.08-.45.72.08,3.82.7,4.91a11.85,11.85,0,0,0,1.36,2A9.74,9.74,0,0,0,30,101.15a9.09,9.09,0,0,0,2.85,1.36A2.16,2.16,0,0,0,35,101.91Z"/><path class="cls-27" d="M33.06,102.71c-.66-.38-.9-.62-1.42-.67a5.55,5.55,0,0,1-1.88-.54,9.13,9.13,0,0,1-1.4-.82,13.29,13.29,0,0,1-1.28-1.05c-.65-.59-2.26-2.14-3-2.28-.15.73,1.12,2.85,1.85,3.51a15.56,15.56,0,0,0,1.46,1.19,10.8,10.8,0,0,0,1.65,1,6.76,6.76,0,0,0,2.48.68A1.55,1.55,0,0,0,33.06,102.71Z"/><path class="cls-27" d="M73.77,101.66c.23-.65.36-1,.78-1.26A9,9,0,0,0,76,99.33a9.81,9.81,0,0,0,1-1,8.76,8.76,0,0,0,.77-1.19,10.6,10.6,0,0,1,1.73-2.73c.44.51.12,2.74-.32,3.51a10.22,10.22,0,0,1-.92,1.4,10.63,10.63,0,0,1-1.15,1.24,9.5,9.5,0,0,1-1.75,1.27A1.53,1.53,0,0,1,73.77,101.66Z"/><path class="cls-27" d="M75.49,101.91a3.86,3.86,0,0,1,1.63-1.07,7.84,7.84,0,0,0,2.29-1.1,8.46,8.46,0,0,0,1.48-1.37A9.94,9.94,0,0,0,82,96.68c.53-1,1.58-3.51,2.22-4.08.45.72-.08,3.82-.7,4.91a12.57,12.57,0,0,1-1.36,2,9.61,9.61,0,0,1-1.79,1.65,9,9,0,0,1-2.84,1.36A2.16,2.16,0,0,1,75.49,101.91Z"/><path class="cls-27" d="M77.38,102.71c.67-.38.91-.62,1.42-.67a5.59,5.59,0,0,0,1.89-.54,9.13,9.13,0,0,0,1.4-.82,13.29,13.29,0,0,0,1.28-1.05c.65-.59,2.25-2.14,3-2.28.15.73-1.12,2.85-1.86,3.51A15.56,15.56,0,0,1,83,102.05a10.22,10.22,0,0,1-1.65,1,6.72,6.72,0,0,1-2.47.68A1.55,1.55,0,0,1,77.38,102.71Z"/><ellipse class="cls-25" cx="74.31" cy="110.72" rx="9.62" ry="9.13" transform="translate(-57.69 129.59) rotate(-64.27)"/><ellipse class="cls-26" cx="74.26" cy="111.64" rx="9.73" ry="9.24" transform="translate(-58.55 130.06) rotate(-64.27)"/><ellipse class="cls-27" cx="74.24" cy="112.31" rx="6.83" ry="6.78" transform="translate(-52.13 65.89) rotate(-36.36)"/><ellipse class="cls-10" cx="70.59" cy="108.55" rx="3.38" ry="3.42"/></symbol><symbol id="Bird_Body_MASTER_1_4" data-name="Bird_Body_MASTER_1 4" viewBox="0 0 90.52 160.76"><path class="cls-1" d="M40.78,120.78l-.21.51c-1.42-5.47-2.25-21.71-2.28-26.38l-6,1.14a244.38,244.38,0,0,0,5.26,25.38s0,.93,0,.94c-3.84,4.57-12.41,17.54-13.68,19-1.86,2.13-3.57,6.1-4.45,8.89a6,6,0,0,0-.31,3.19c.26,1,1.2,2,2.16,1.72l.41-.81a17.39,17.39,0,0,0-.2,2.4,3.79,3.79,0,0,0,1,3,2.21,2.21,0,0,0,2.55,0,7.35,7.35,0,0,0,1.91-2.08l.33-.82c.61,1.82,2.28,3.28,3.9,2.66,2.15-.83,2.3-4.08,2.22-6.61a57.35,57.35,0,0,1,3.1-20.67c.59-1.71,1.42-3.55,3-4.14.63-.23,1.33-.24,2-.51C45.44,125.83,44.86,121.75,40.78,120.78Z"/><path class="cls-1" d="M71.46,150.39c-.88-2.8-2.59-6.77-4.44-8.89-1.28-1.47-9.85-14.43-13.69-19,0,0,0-1,0-1a241.06,241.06,0,0,0,5.26-25.37l-6-1.15c0,4.68-.86,20.92-2.28,26.38l-.21-.51c-4.08,1-4.66,5-.66,6.76.63.27,1.33.27,2,.51,1.56.58,2.39,2.43,3,4.14A57.32,57.32,0,0,1,57.52,153c-.08,2.53.07,5.78,2.22,6.6,1.63.63,3.29-.83,3.9-2.65l.33.82a7.63,7.63,0,0,0,1.91,2.08,2.21,2.21,0,0,0,2.55,0,3.82,3.82,0,0,0,1-3,17.37,17.37,0,0,0-.19-2.39l.4.81c1,.22,1.9-.68,2.16-1.73A6,6,0,0,0,71.46,150.39Z"/><path d="M40.49,121.27c1.28.32,2.71,1.09,3,2.51a3,3,0,0,1-1.86,3c-.88.48-1.88.46-2.76.88a4.61,4.61,0,0,0-1.72,1.59,18.55,18.55,0,0,0-2.09,5.3,57.67,57.67,0,0,0-2.24,13.11c-.12,2.08,0,4.15,0,6.23,0,1.46-.05,3.36-1.1,4.5-1.55,1.69-3.56-.21-4.07-1.84-.74-2.38.58-4.92,1.64-7,.3-.58-.58-1.09-.88-.51-1.06,2.06-2.18,4.34-1.95,6.73a4.83,4.83,0,0,0,3.1,4.19,3.16,3.16,0,0,0,3.66-2.12,13.08,13.08,0,0,0,.6-5.39,57.4,57.4,0,0,1,1.58-15.06,31.4,31.4,0,0,1,2.19-6.78,4,4,0,0,1,2-2.12,15.08,15.08,0,0,1,1.64-.4,5.74,5.74,0,0,0,1.37-.65,3.9,3.9,0,0,0,2-4c-.36-1.76-2-2.81-3.68-3.23a.51.51,0,0,0-.27,1Z"/><path d="M26.58,157.49c-.71,1-2.07,2.91-3.53,2.09-1.23-.68-1-2.81-.9-4a16.1,16.1,0,0,1,3.2-8.39c.39-.52-.49-1-.88-.51a16.81,16.81,0,0,0-3.38,10.54c.05,1.49.57,3.26,2.28,3.49,1.88.25,3.13-1.38,4.09-2.73.38-.54-.5-1-.88-.52Z"/><path d="M21,154.59c-.73.12-1.26-.71-1.42-1.3a5,5,0,0,1,.24-2.65,13.59,13.59,0,0,1,.57-1.5,47,47,0,0,1,3-5.54c1.63-2.69,3.49-5.22,5.31-7.79q4.35-6.13,8.71-12.28a5.17,5.17,0,0,0,.91-1.35,2.82,2.82,0,0,0-.24-1.19c-.24-.87-.46-1.76-.68-2.64-.54-2.22-1-4.45-1.51-6.68-1.08-5-2.13-10.15-2.81-15.28l-.44.59,5.67-1.49-.77-.58c0,3.25.21,6.52.41,9.77.25,4.1.56,8.21,1.1,12.29a34.76,34.76,0,0,0,.89,4.85.61.61,0,0,0,1.17-.33,52.27,52.27,0,0,1-1.42-9.81c-.37-4-.62-8.06-.8-12.1-.07-1.55-.13-3.11-.14-4.67a.61.61,0,0,0-.76-.59l-5.67,1.49a.62.62,0,0,0-.45.58A214.26,214.26,0,0,0,36,117.7c.36,1.5.72,3,1.15,4.48l.07-.46L26.29,137.11a68,68,0,0,0-6.9,11.29,12.13,12.13,0,0,0-1.06,3.37c-.24,1.84.71,4.36,3,4,.76-.12.44-1.29-.32-1.16Z"/><path d="M50.15,120.41a4.9,4.9,0,0,0-3.53,2.72,3.54,3.54,0,0,0,.88,3.73,5.68,5.68,0,0,0,2.2,1.37c.57.19,1.19.21,1.75.43a3,3,0,0,1,1.12.82A8.6,8.6,0,0,1,54,132.19c.41,1.14.76,2.3,1.09,3.47a57.38,57.38,0,0,1,2.11,15,32,32,0,0,0,.18,6.11c.31,1.53,1.16,3.17,2.85,3.46,2.06.35,3.72-1.68,4.17-3.48.64-2.61-.66-5.25-1.82-7.5-.3-.59-1.18-.07-.88.51,1,1.91,2.13,4.13,1.79,6.35-.22,1.46-1.62,3.66-3.38,3-1.47-.52-1.79-2.43-1.89-3.77-.16-1.92,0-3.85,0-5.77a58.84,58.84,0,0,0-1.86-13.19,33.81,33.81,0,0,0-1.9-5.79,6.6,6.6,0,0,0-1.39-2.08,4.42,4.42,0,0,0-2.31-1.08c-1.51-.3-3.34-1.39-3.32-3.14s1.61-2.56,3-2.91a.51.51,0,0,0-.27-1Z"/><path d="M63.73,158c1,1.35,2.21,3,4.09,2.73,1.71-.23,2.23-2,2.28-3.49a16.81,16.81,0,0,0-3.38-10.54c-.39-.52-1.27,0-.88.51a16.13,16.13,0,0,1,3.2,8.39c.09,1.14.32,3.19-.82,3.93-1.47.94-2.9-1-3.61-2-.38-.53-1.26,0-.88.52Z"/><path d="M69.6,155.88c1.89.32,3-1.54,3-3.21a9.22,9.22,0,0,0-.84-3.5,50.37,50.37,0,0,0-4-7.35c-2.35-3.74-5.07-7.27-7.62-10.87-2.15-3-4.31-6.07-6.45-9.11l.06.47c.87-3,1.53-6,2.19-9.1q1.24-5.68,2.26-11.41c.31-1.76.6-3.51.83-5.28a.6.6,0,0,0-.44-.58l-5.67-1.49a.61.61,0,0,0-.77.58c0,3.21-.2,6.42-.4,9.62-.25,4.07-.55,8.14-1.07,12.18a32.57,32.57,0,0,1-.89,4.79.61.61,0,0,0,1.17.32,54,54,0,0,0,1.45-10c.37-4.07.63-8.16.81-12.25.07-1.56.13-3.12.14-4.68l-.77.59,5.67,1.48-.44-.58c-.59,4.52-1.5,9-2.43,13.48-.49,2.36-1,4.72-1.55,7.07-.22.94-.45,1.88-.69,2.81-.1.4-.21.8-.31,1.19a2.85,2.85,0,0,0-.26,1.24,5.35,5.35,0,0,0,.91,1.35l1.1,1.54,2.29,3.24,4.41,6.21c1.66,2.35,3.43,4.66,5,7.09a61.83,61.83,0,0,1,4,7,17.44,17.44,0,0,1,.69,1.68,6.24,6.24,0,0,1,.41,2.59c-.09.7-.6,1.82-1.48,1.68s-1.09,1-.33,1.16Z"/><path class="cls-2" d="M15.63,11.08,12.1,44.65c-1,22.38,8.83,40.63,16.82,53.67.89,1.46,1.38,3.18,2.61,4.38a4.51,4.51,0,0,0,4.69,1.22c1.86-.77,2.59-3,3.1-4.92,1.44-5.4,3.7-16,4.92-21a.94.94,0,0,1,1.82,0c1.86,6.54,4,14.5,5.73,21,.52,1.94,1.25,4.15,3.11,4.92a4.51,4.51,0,0,0,4.69-1.22,13,13,0,0,0,2.61-4.38C68.82,83,79.68,67.62,78.8,47.74L73.94,10.63"/><path d="M14.94,11.08,13.45,25.27,11.52,43.6a55.64,55.64,0,0,0,.22,11.68,81.37,81.37,0,0,0,4.11,18.14A112.11,112.11,0,0,0,22.73,89c1.21,2.28,2.49,4.54,3.81,6.76.62,1,1.27,2.07,1.88,3.12a27.35,27.35,0,0,0,2.22,3.91c1.78,2.15,5.2,3,7.29.81,1.7-1.77,2.12-4.53,2.68-6.82,1.27-5.18,2.4-10.4,3.6-15.6l.36-1.59.18-.72a2.13,2.13,0,0,1,.19-.76c.33-.38.5.22.57.47l.66,2.35q1.36,4.92,2.7,9.86c.83,3.09,1.57,6.21,2.49,9.28.79,2.59,2.45,5.25,5.56,4.78s4.73-3.48,5.88-6.14,2.33-5.12,3.56-7.64c2.59-5.28,5.28-10.51,7.55-15.94A71.73,71.73,0,0,0,79,57.64a40.68,40.68,0,0,0,.38-10.85l-2.31-17.6-2.3-17.56-.13-1c-.11-.87-1.5-.88-1.38,0l1.69,12.95,2.64,20.14c.18,1.34.41,2.68.53,4a42,42,0,0,1-.4,9.1,59.1,59.1,0,0,1-1.87,8.74c-3.24,11.19-9.33,21.18-14,31.8-1.07,2.43-2.44,6.15-5.68,6.1-3,0-3.57-4.1-4.15-6.28-1.7-6.39-3.42-12.77-5.22-19.13a1.94,1.94,0,0,0-.87-1.3,1.67,1.67,0,0,0-1.61,0c-.88.51-.95,1.78-1.16,2.68q-.86,3.71-1.69,7.43c-.6,2.66-1.2,5.33-1.84,8q-.39,1.65-.81,3.3a14.66,14.66,0,0,1-1.24,3.53,3.11,3.11,0,0,1-3.21,1.75,4.87,4.87,0,0,1-3.31-2.5c-.73-1.24-1.3-2.55-2.05-3.79-.61-1-1.22-2-1.82-3.06a133,133,0,0,1-7.32-14.19A88.94,88.94,0,0,1,14.37,63,73.82,73.82,0,0,1,13,53.55a57.73,57.73,0,0,1-.17-8.92c.39-4.79,1-9.57,1.52-14.36l1.9-18.12.12-1.07c.09-.89-1.3-.88-1.39,0Z"/><path class="cls-3" d="M13,67.64c21.61,8,48.41,2.59,66.8-11.17a1.16,1.16,0,0,0,.46-.82V48.1a1.17,1.17,0,0,0-1.85-1.05C60.21,59.81,34,66.18,13.12,58.59a1.18,1.18,0,0,0-1.55.84l.67,6.88A1.16,1.16,0,0,0,13,67.64Z"/><ellipse id="SVGID" class="cls-4" cx="48.31" cy="65.05" rx="2.92" ry="2.88"/><ellipse id="SVGID-2" data-name="SVGID" class="cls-5" cx="62.71" cy="60.51" rx="2.92" ry="2.88"/><ellipse id="SVGID-3" data-name="SVGID" class="cls-6" cx="74.51" cy="54.39" rx="2.92" ry="2.88"/><ellipse id="SVGID-4" data-name="SVGID" class="cls-7" cx="40.91" cy="66.31" rx="2.92" ry="2.88"/><ellipse id="SVGID-5" data-name="SVGID" class="cls-8" cx="55.39" cy="63.48" rx="2.92" ry="2.88"/><ellipse id="SVGID-6" data-name="SVGID" class="cls-9" cx="68.84" cy="57.84" rx="2.92" ry="2.88"/><path class="cls-10" d="M6.05,69.81c0-3.57,5.49-6.47,12.26-6.47s12.49,2.9,12.49,6.47-5.71,6.47-12.49,6.47S6.05,73.38,6.05,69.81Z"/><path class="cls-11" d="M6.05,69.81c0-3.57,5.49-6.47,12.26-6.47s12.49,2.9,12.49,6.47-5.71,6.47-12.49,6.47S6.05,73.38,6.05,69.81Z"/><path class="cls-12" d="M6.05,69.81c0-3.57,5.49-6.47,12.26-6.47s12.49,2.9,12.49,6.47-5.71,6.47-12.49,6.47S6.05,73.38,6.05,69.81Z"/><path class="cls-13" d="M5.74,69.44a11.73,11.73,0,0,0-.07,1.2c0,6.69,5.72,12.12,12.78,12.12s12.77-5.43,12.77-12.12a11.76,11.76,0,0,0-.06-1.2Z"/><line class="cls-14" x1="31.18" y1="71.28" x2="5.72" y2="71.28"/><path class="cls-15" d="M38.67,6.52C37,15.23,37.53,23.33,38,32.18c.29,5.13.92,10.32-.13,15.35A5.56,5.56,0,0,1,36.09,51a5.81,5.81,0,0,1-2.71.86c-5.14.66-16.22-.72-22.19-1.57a2,2,0,0,1-1.6-2.88c1.43-3-7.36-12.65-3.91-39.68-.22.11,7.57,3.07,12.88,2.86C28.42,10.19,38.67,6.52,38.67,6.52Z"/><path d="M38.05,6.35a78.66,78.66,0,0,0-1.11,16c.12,5.46.61,10.89.84,16.34a36.2,36.2,0,0,1-.41,8.19A6.79,6.79,0,0,1,36.19,50a4.47,4.47,0,0,1-3,1.21,54.22,54.22,0,0,1-11.1-.3c-2.07-.19-4.14-.42-6.2-.67l-2.76-.36a5.9,5.9,0,0,1-2.48-.52,1.48,1.48,0,0,1-.36-1.9,2.51,2.51,0,0,0,.14-.66,5.28,5.28,0,0,0-.15-1.48c-.32-1.43-.86-2.82-1.32-4.21A67.59,67.59,0,0,1,7,34.46,74.18,74.18,0,0,1,5.89,11.62c.12-1.3.27-2.6.43-3.9.07-.58-.73-.81-1.09-.45-1.11,1.09,2.6,2,3.07,2.14a38.25,38.25,0,0,0,7.77,1.71,37.15,37.15,0,0,0,9.58-.66,83.38,83.38,0,0,0,8.86-2c1.45-.41,2.91-.84,4.33-1.35.77-.27.43-1.5-.34-1.23A74.4,74.4,0,0,1,27.85,8.76,53.61,53.61,0,0,1,18.24,10a27.35,27.35,0,0,1-7.4-1.12c-1.12-.3-2.24-.64-3.34-1L6.44,7.4a1.23,1.23,0,0,0-.24-.1c-.38-.09.06-.43.12.42l-.19.45h0L5,7.72A80.65,80.65,0,0,0,5.43,33a63.4,63.4,0,0,0,1.91,7.44C7.85,42,8.45,43.6,8.88,45.21c.07.26.13.53.18.8s0,0,0,.24,0,.23,0,.34,0,.18,0,.27c0-.22,0,.08,0,.16a.21.21,0,0,1,0,.11c.08-.24-.08.19-.1.25a2.63,2.63,0,0,0,1.54,3.36,11.32,11.32,0,0,0,2.59.44q3,.41,6,.74a87.67,87.67,0,0,0,12.23.72c1.85-.06,4.1-.12,5.53-1.44,1.76-1.63,2-4.65,2.16-6.87a57.73,57.73,0,0,0-.09-8.42c-.18-2.82-.36-5.64-.49-8.46a102.47,102.47,0,0,1,.25-16.62c.16-1.39.37-2.77.62-4.14C39.43,5.89,38.2,5.54,38.05,6.35Z"/><path class="cls-16" d="M51.85,6.52c1.63,8.71,1.14,16.81.65,25.66-.28,5.13-.92,10.32.14,15.35A5.47,5.47,0,0,0,54.44,51a5.77,5.77,0,0,0,2.71.86c5.13.66,16.21-.72,22.19-1.57a2,2,0,0,0,1.59-2.88c-1.43-3,7.37-12.65,3.91-39.68.22.11-7.57,3.07-12.88,2.86C62.1,10.19,51.85,6.52,51.85,6.52Z"/><path d="M51.24,6.69a78.89,78.89,0,0,1,1,16.6c-.08,2.85-.24,5.68-.4,8.52s-.41,5.62-.46,8.44a29.43,29.43,0,0,0,.76,8.1,5.81,5.81,0,0,0,1.51,2.85,5.63,5.63,0,0,0,3.17,1.25,51.51,51.51,0,0,0,11.44-.21q3.2-.3,6.38-.7l2.87-.37a10.35,10.35,0,0,0,2.6-.46,2.62,2.62,0,0,0,1.46-3.33c0-.08-.18-.49-.1-.23,0,0,0-.1-.05-.14s0-.3,0-.2,0-.17,0-.24,0-.21,0-.32,0,0,0-.24a33,33,0,0,1,1.26-4.14c.74-2.23,1.41-4.48,1.94-6.77a75.56,75.56,0,0,0,1.25-23.48c-.12-1.3-.27-2.6-.43-3.9l-1.09.45h0l-.18-.45c.05-.81.49-.54.15-.44a1.28,1.28,0,0,0-.24.11l-.79.3c-.92.33-1.85.63-2.8.9A31.28,31.28,0,0,1,73.1,9.94a43.66,43.66,0,0,1-9.39-1c-2.65-.49-5.28-1.12-7.87-1.86-1.28-.37-2.56-.75-3.82-1.2-.77-.27-1.1,1-.33,1.23A75.33,75.33,0,0,0,63.8,10.27a41.39,41.39,0,0,0,9.8.92,35.63,35.63,0,0,0,7.86-1.54c1-.3,2-.61,2.9-1,.49-.2,1.67-.67.93-1.39-.35-.35-1.16-.13-1.09.45a80.09,80.09,0,0,1-.27,24.63,64.57,64.57,0,0,1-1.85,7.37c-.51,1.6-1.1,3.17-1.56,4.78a5,5,0,0,0-.24,3,1.47,1.47,0,0,1-.36,1.9,5.85,5.85,0,0,1-2.47.52c-1.94.26-3.87.5-5.81.71a90.57,90.57,0,0,1-12,.75c-1.69,0-4.15.06-5.32-1.34a6.64,6.64,0,0,1-1.18-3.15,26.9,26.9,0,0,1-.44-4.11A77,77,0,0,1,53,34.59c.18-2.74.33-5.47.45-8.21a96.43,96.43,0,0,0-.36-16c-.16-1.34-.37-2.67-.61-4C52.32,5.54,51.09,5.88,51.24,6.69Z"/><rect class="cls-17" x="29.89" y="5.75" width="31.66" height="12.14"/><rect class="cls-17" x="29.89" y="9.2" width="31.66" height="5.23"/><path class="cls-18" d="M3.85,1.55C3.44,7.7,2.71,13.48.65,19.14c11.82,4.67,20.52,4.34,32.5,4.87.12-1.64,1.32-13.59,6.32-20.78C24.53,5.26,10.21,2.07,3.89.63"/><path d="M3.21,1.55A63.24,63.24,0,0,1,0,19a.65.65,0,0,0,.45.78,61.2,61.2,0,0,0,12.9,3.55,105.7,105.7,0,0,0,12.19,1.06c2.52.1,5.05.18,7.58.29a.65.65,0,0,0,.64-.64A51.66,51.66,0,0,1,37.26,8.79,27,27,0,0,1,40,3.55a.64.64,0,0,0-.55-1c-10,1.35-20.25.51-30.15-1.44C7.56.8,5.81.41,4.06,0c-.8-.18-1.14,1.05-.34,1.23A115.19,115.19,0,0,0,29.66,4.52a76.6,76.6,0,0,0,9.81-.65l-.55-1a33.25,33.25,0,0,0-4.33,9.78,61.7,61.7,0,0,0-1.8,8.83c-.12.83-.22,1.66-.28,2.49l.64-.63C24.79,23,16.37,23,8.21,20.94A63.8,63.8,0,0,1,.82,18.52l.44.79A64.64,64.64,0,0,0,4.49,1.55c0-.82-1.22-.81-1.28,0Z"/><path class="cls-19" d="M86.67,1.55c.42,6.15,1.14,11.93,3.21,17.59C78.05,23.81,69.35,23.48,57.38,24c-.13-1.64-1.33-13.59-6.33-20.78C66,5.26,80.31,2.07,86.64.63"/><path d="M86,1.55a64.62,64.62,0,0,0,3.22,17.76l.45-.79A61.08,61.08,0,0,1,77,22a103,103,0,0,1-12.16,1.05c-2.49.1-5,.18-7.47.29L58,24A52.84,52.84,0,0,0,54.42,8.28,27.23,27.23,0,0,0,51.6,2.91l-.55,1c10.13,1.35,20.43.48,30.42-1.48C83.25,2,85,1.65,86.8,1.25c.81-.18.47-1.41-.33-1.23A114.44,114.44,0,0,1,60.75,3.25a76.85,76.85,0,0,1-9.7-.66.64.64,0,0,0-.55,1,32.17,32.17,0,0,1,4.22,9.57,61.48,61.48,0,0,1,1.76,8.51c.1.79.2,1.59.26,2.38a.64.64,0,0,0,.64.64c8.43-.37,16.93-.36,25.16-2.46a59.82,59.82,0,0,0,7.51-2.44.64.64,0,0,0,.44-.78A63.61,63.61,0,0,1,87.31,1.55c0-.81-1.33-.82-1.27,0Z"/></symbol></defs><g id="Birds"><use width="221.13" height="109.95" transform="translate(38.25 143.9)" xlink:href="#Bird_Body_MASTER_1_5"/><use width="102.02" height="154.58" transform="translate(98.29 3.23) scale(0.96)" xlink:href="#Bird_Head_1_3"/><use width="90.52" height="160.76" transform="translate(106.09 139.65) scale(0.96)" xlink:href="#Bird_Body_MASTER_1_4"/></g></svg>