<svg xmlns="http://www.w3.org/2000/svg" xmlns:xlink="http://www.w3.org/1999/xlink" viewBox="0 0 300 300"><defs><style>.cls-1{fill:#c0f3ff;}.cls-2{fill:url(#radial-gradient);}.cls-10,.cls-11,.cls-13,.cls-17,.cls-26,.cls-3{fill:#fff;}.cls-12,.cls-13,.cls-14,.cls-17,.cls-20,.cls-24,.cls-25,.cls-28,.cls-3{stroke:#000;}.cls-11,.cls-12,.cls-13,.cls-14,.cls-17,.cls-3{stroke-linecap:round;}.cls-11,.cls-12,.cls-13,.cls-14,.cls-17,.cls-20,.cls-24,.cls-25,.cls-26,.cls-28,.cls-3{stroke-miterlimit:10;}.cls-4{fill:url(#radial-gradient-2);}.cls-5{fill:url(#radial-gradient-3);}.cls-6{fill:url(#radial-gradient-4);}.cls-7{fill:url(#New_Gradient_Swatch_1);}.cls-8{fill:url(#New_Gradient_Swatch_1-2);}.cls-9{fill:url(#New_Gradient_Swatch_1-3);}.cls-11,.cls-26{stroke:#231f20;}.cls-11{stroke-width:0.56px;}.cls-12,.cls-14,.cls-20{fill:none;}.cls-12,.cls-13{stroke-width:1.25px;}.cls-14{stroke-width:0.85px;}.cls-15{fill:url(#radial-gradient-5);}.cls-16{fill:url(#radial-gradient-6);}.cls-17{stroke-width:0.71px;}.cls-18{fill:url(#radial-gradient-7);}.cls-19{fill:url(#radial-gradient-8);}.cls-20{stroke-width:1.38px;}.cls-21{fill:url(#radial-gradient-9);}.cls-22{fill:#202020;}.cls-23{fill:url(#radial-gradient-10);}.cls-24{fill:url(#radial-gradient-11);}.cls-25{fill:#5ab0db;}.cls-26{stroke-width:1.63px;}.cls-27{fill:#231f20;}.cls-28{fill:#9fe8ff;}</style><radialGradient id="radial-gradient" cx="45.52" cy="41.21" fy="12.103707588823642" r="75.31" gradientUnits="userSpaceOnUse"><stop offset="0.19" stop-color="#0046de"/><stop offset="0.7" stop-color="#339dd4"/></radialGradient><radialGradient id="radial-gradient-2" cx="81722.26" cy="-31709.67" r="14.12" gradientTransform="matrix(-0.2, 0.04, 0.04, 0.2, 17802.03, 3573.29)" gradientUnits="userSpaceOnUse"><stop offset="0.28" stop-color="#fff"/><stop offset="0.41" stop-color="#fbfbfb"/><stop offset="0.54" stop-color="#efefef"/><stop offset="0.67" stop-color="#dadada"/><stop offset="0.8" stop-color="#bebebe"/><stop offset="0.93" stop-color="#9a9a9a"/><stop offset="0.95" stop-color="#949494"/></radialGradient><radialGradient id="radial-gradient-3" cx="81787.1" cy="-31743.56" r="14.12" xlink:href="#radial-gradient-2"/><radialGradient id="radial-gradient-4" cx="81838.22" cy="-31782.91" r="14.12" xlink:href="#radial-gradient-2"/><radialGradient id="New_Gradient_Swatch_1" cx="21138.27" cy="-1581.28" r="2.88" gradientTransform="matrix(-1, 0.17, 0.17, 0.99, 21425.09, -2013.25)" gradientUnits="userSpaceOnUse"><stop offset="0.07" stop-color="#919191"/><stop offset="0.21" stop-color="#828283"/><stop offset="0.47" stop-color="#5c5c60"/><stop offset="0.83" stop-color="#1f1f27"/><stop offset="1" stop-color="#00000a"/></radialGradient><radialGradient id="New_Gradient_Swatch_1-2" cx="21151.86" cy="-1586.51" r="2.88" xlink:href="#New_Gradient_Swatch_1"/><radialGradient id="New_Gradient_Swatch_1-3" cx="21163.97" cy="-1594.35" r="2.88" xlink:href="#New_Gradient_Swatch_1"/><radialGradient id="radial-gradient-5" cx="21.77" cy="29.27" fy="4.7292750409253514" r="43.04" gradientUnits="userSpaceOnUse"><stop offset="0.21" stop-color="#fff"/><stop offset="0.28" stop-color="#f7feff"/><stop offset="0.38" stop-color="#e3fdff"/><stop offset="0.51" stop-color="#c1faff"/><stop offset="0.66" stop-color="#92f5ff"/><stop offset="0.71" stop-color="#81f4ff"/></radialGradient><radialGradient id="radial-gradient-6" cx="68.75" cy="29.27" fy="-12.6772803234714" r="71.76" gradientUnits="userSpaceOnUse"><stop offset="0.27" stop-color="#fff"/><stop offset="0.31" stop-color="#f7feff"/><stop offset="0.37" stop-color="#e3fdff"/><stop offset="0.44" stop-color="#c1faff"/><stop offset="0.53" stop-color="#92f5ff"/><stop offset="0.55" stop-color="#81f4ff"/></radialGradient><radialGradient id="radial-gradient-7" cx="20.06" cy="12.32" fy="4.465994859433895" r="21.14" gradientTransform="translate(0 -2.07) scale(1 1.17)" gradientUnits="userSpaceOnUse"><stop offset="0.34" stop-color="#fff"/><stop offset="0.43" stop-color="#f7feff"/><stop offset="0.57" stop-color="#e3fdff"/><stop offset="0.74" stop-color="#c1faff"/><stop offset="0.94" stop-color="#92f5ff"/><stop offset="1" stop-color="#81f4ff"/></radialGradient><radialGradient id="radial-gradient-8" cx="70.46" cy="12.32" fy="2.7217094565599123" r="34.01" gradientTransform="translate(0 -1.22) scale(1 1.1)" gradientUnits="userSpaceOnUse"><stop offset="0.15" stop-color="#fff"/><stop offset="0.2" stop-color="#f7feff"/><stop offset="0.29" stop-color="#e3fdff"/><stop offset="0.4" stop-color="#c1faff"/><stop offset="0.52" stop-color="#92f5ff"/><stop offset="0.55" stop-color="#81f4ff"/></radialGradient><radialGradient id="radial-gradient-9" cx="-1989.2" cy="1339.94" fx="-2038.8200574092127" fy="1303.3873530947108" r="79.51" gradientTransform="translate(1860.28 -1279.34) scale(0.85 0.99)" gradientUnits="userSpaceOnUse"><stop offset="0.02" stop-color="#0046de"/><stop offset="0.61" stop-color="#339dd4"/></radialGradient><radialGradient id="radial-gradient-10" cx="22800.14" cy="1339.94" fx="22750.51611139919" fy="1303.3873527963333" r="79.51" gradientTransform="matrix(-0.85, 0, 0, 0.99, 19398.58, -1279.34)" xlink:href="#radial-gradient-9"/><radialGradient id="radial-gradient-11" cx="83.83" cy="64.15" fy="43.34971181335936" r="64.25" gradientUnits="userSpaceOnUse"><stop offset="0.12" stop-color="#339dd4"/><stop offset="0.28" stop-color="#3199d4"/><stop offset="0.43" stop-color="#2a8ed6"/><stop offset="0.57" stop-color="#1f7cd8"/><stop offset="0.71" stop-color="#1062db"/><stop offset="0.83" stop-color="#0046de"/></radialGradient><symbol id="Bird_Body_MASTER_1_8" data-name="Bird_Body_MASTER_1 8" viewBox="0 0 223.24 112.4"><path class="cls-20" d="M36.48,73.53"/><path class="cls-20" d="M162.18,68.11"/><path class="cls-21" d="M129.91,28.45c-1.49,13.57-4.69,40.88,10.91,30.39-7.91,24.12,5.38,28.37,6.8,26.51a37.84,37.84,0,0,0-1.51,12s4.93-3.11,7-6.3c.24,2.34-2.09,11.54-2.09,11.54s9.49-6.51,12.94-13.17c-2.35,6-1.81,12.31-2.69,19.11-.05.4.26.7.49.46,4.29-4.43,7.6-11.08,9.26-18.64a106,106,0,0,1-2.25,19c6.45-7.39,9.65-25.12,9.15-32.62a87.69,87.69,0,0,1,3.67,18.26,72.5,72.5,0,0,0,1.14-29.4A57.55,57.55,0,0,1,198,83.37a62.77,62.77,0,0,0-5.7-27.12,64.32,64.32,0,0,1,18.43,15.48,58.53,58.53,0,0,0-10.67-22,66.5,66.5,0,0,1,21.79,5.78C215.93,40.68,204.16,33.92,193,31.88c6.83-3.37,17.89-6,25-7.29-3.12-5.7-11.45-9-16.27-9-7,.08-17.18,8-20.92,10.71a41.86,41.86,0,0,0,5.35-20.16c-6.56,11.4-16.55,15.39-17.91,24.61-1.28,8.65-3,11.18-11.8,15.67C156.65,29.22,165.6,1.55,150,.75,137,.09,131.41,14.87,129.91,28.45Z"/><path class="cls-22" d="M129.91,28.45a19.5,19.5,0,0,0-1.32,5.41c-.06.58-.16,1.61-.27,2.85-.3,3.43-.51,6.95-.47,10.55a46.22,46.22,0,0,0,.36,5.47,18.78,18.78,0,0,0,1.46,5.5,7,7,0,0,0,1.81,2.46,4.8,4.8,0,0,0,3,1.21,3.06,3.06,0,0,0,.8,0,6.65,6.65,0,0,0,.78-.08,9.93,9.93,0,0,0,1.47-.4,12.18,12.18,0,0,0,1.38-.59l.66-.33h0s0,0,0,0l-.07.2-.22.82-.38,1.4a49.79,49.79,0,0,0-1.06,5.75c-.41,3.88-.33,8,1.36,11.82a11.38,11.38,0,0,0,4,4.8,6.84,6.84,0,0,0,3.08,1.15h.32l0,.1a34.49,34.49,0,0,0-1,6c-.09,1-.13,2-.15,3v1.07l0,1.44,0,.36v.27s.05,0,.07,0l.6-.39c.39-.25.83-.52,1.2-.78l.83-.59.6-.45c.41-.3.8-.62,1.19-.94a25.65,25.65,0,0,0,2.25-2.06l.05-.06h0l0,.35-.12.71c-.25,1.5-.57,3-.89,4.4-.19.85-.39,1.67-.57,2.46s-.32,1.29-.47,1.91c-.08.32-.16.62-.24.93l-.05.22.17-.12.35-.25,1.32-.92,1.23-.89,1.14-.88,1-.78c3.92-3.19,7.5-6.89,9.37-10.27l.18-.31.08-.15v0c-2.73-1.23-.76-.34-1.37-.61h0l0,0,0,.08c-.07.22-.15.43-.22.63-.15.4-.26.79-.37,1.15-.22.73-.37,1.36-.49,1.87-.22,1-.29,1.56-.28,1.43h0a75.33,75.33,0,0,0-.79,8c-.08,1.25-.16,2.44-.25,3.55,0,.28-.06.55-.08.82l-.12,1c0,.23-.05.47-.08.7s.07.35.1.53l0,.26a.59.59,0,0,0,.1.17,1.1,1.1,0,0,0,.34.29.9.9,0,0,0,.42.13,2.08,2.08,0,0,0,.4-.26l.79-.57a1.82,1.82,0,0,0,.38-.33l.29-.34.38-.44c.46-.58.84-1.06,1.11-1.44l.42-.58A39.87,39.87,0,0,0,170,96.66c.54-1.52,1-3,1.35-4.37.1-.34.17-.69.25-1l.12-.5.06-.24c1.32.16-1.81-.23-1.49-.18h0v.23c0,.64-.05,1.25-.08,1.82-.23,4.6-.56,6.94-.35,5h0c-.14,1.58-.33,3.15-.54,4.67-.11.76-.23,1.51-.34,2.24l-.18,1.09-.3,1.66c-.07.33-.13.67-.19,1s-.15.72-.23,1.08c-.14.71-.29,1.4-.43,2.09l-.21,1,0,.12v.06l0,0,.12-.16.27-.34,1.08-1.39c.34-.45.72-.9,1-1.31l.82-1.2.78-1.13.19-.27.09-.17L172,106c.49-.9.9-1.67,1.17-2.32s.52-1.11.63-1.4c.22-.59.19-.39-.35.79A68.51,68.51,0,0,0,178.11,86a54.67,54.67,0,0,0,.62-7.58c0-.29,0-.58,0-.87v-.8c.31-.07-2.77.52-1.46.27v0l.46,1.51c.29,1,.54,1.91.77,2.78.89,3.47,1.31,5.93,1.47,6.88s.09.38-.39-2.11h0c.36,1.81.66,3.6.89,5.33.12.87.22,1.72.31,2.55l.06.62,0,.31,0,.15v0c2.94.23.82.06,1.48.1h0l0-.08c.1-.4.19-.8.29-1.19A69.87,69.87,0,0,0,184,86c.22-2,.29-3.36.32-3.63s0,.5-.22,2.63h0a74.67,74.67,0,0,0,.1-13.68c-.11-1.08-.21-2.15-.36-3.2l-.08-.69h0l.14.11c.39.31.76.63,1.13.95.74.64,1.45,1.3,2.14,2a57.65,57.65,0,0,1,7,8.35c.5.71,1,1.41,1.42,2.12l1,1.63c.45.77.86,1.44,1.27,2.11l.62,1,.15.25.08.12s0-.08,0-.12v-.6c0-.8,0-1.59,0-2.37s0-1.54,0-2.35c0-.42,0-.8,0-1.19A65.78,65.78,0,0,0,195.71,63c-.36-1.16-.75-2.27-1.16-3.32-.2-.53-.41-1.05-.63-1.55-.07-.18,0-.11,0-.12h0l.47.28.59.37,1.12.72a64.82,64.82,0,0,1,11,9.41c2,2.12,2.7,3,2.7,3l.2.24.08.08,0,0h0a14.47,14.47,0,1,0,1.3-.66h0l0-.07c0-.1-.07-.22-.11-.37s-.18-.65-.31-1.14c-.29-1-.7-2.39-1.45-4.44a61.45,61.45,0,0,0-3.58-8.08h0c-.25-.46-.89-1.7-2.08-3.57-.3-.46-.62-1-1-1.52l-.59-.84-.59-.79h0l.34,0,1.36.18a64.49,64.49,0,0,1,13.17,3.31l1.9.72,1,.39L221,56l2,.87.25.11-.11-.26-.22-.5-.44-1-.82-1.89c-.16-.35-.29-.72-.48-1.06a39.22,39.22,0,0,0-5.4-8.35A37.74,37.74,0,0,0,196.2,31.84l-.77-.2-.1,0h0l.16-.07.75-.31c2-.8,4.09-1.51,6.25-2.17,4.33-1.3,8.91-2.41,13.7-3.37l2.79-.55c.06,0,.17,0,.18,0l-.12-.19-.24-.38-.47-.76c-.14-.23-.34-.56-.44-.71l-.3-.39a15.73,15.73,0,0,0-2.77-2.82,23.25,23.25,0,0,0-7-3.83,21.21,21.21,0,0,0-4-1,16.39,16.39,0,0,0-2.12-.16,15.22,15.22,0,0,0-2.14.23,27.77,27.77,0,0,0-7.9,3.07,72.64,72.64,0,0,0-7.27,4.6l-1.42,1-.06,0s0,0,0,0h0l.24-.51A42,42,0,0,0,186,14.54c.3-1.52.54-3.07.69-4.63l.06-.59,0-.35,0-.57.11-2.26L187,3.86c.11-.69-.21,0-.39.26l-.61,1-1.61,2.54a4,4,0,0,1-.22.34L184,8.2l-.22.31-.44.64c-.59.85-1.26,1.66-1.93,2.49-1.35,1.64-2.85,3.22-4.42,4.82s-3.21,3.21-4.77,5a20.33,20.33,0,0,0-3.9,6.2,17.88,17.88,0,0,0-.9,3.67c-.18,1.19-.42,2.37-.7,3.54A12.35,12.35,0,0,1,163.37,41a27,27,0,0,1-6.15,4.13s0,.06,0-.13v-.21l.06-.94c.06-1.29.17-2.58.29-3.88.49-5.18,1.29-10.44,1.83-15.79.27-2.68.49-5.38.52-8.11a31.67,31.67,0,0,0-.81-8.24,12.75,12.75,0,0,0-1.71-3.92A8.33,8.33,0,0,0,154.13,1a11.2,11.2,0,0,0-4.22-1l-2.12.05c-.7.05-1.4.22-2.1.33a15.16,15.16,0,0,0-7.27,4.12,24.72,24.72,0,0,0-4.7,6.74A42.9,42.9,0,0,0,131,18.8c-.08.31-.17.63-.25.95l-.14.55c-.1.37-.16.72-.23,1-.14.64-.25,1.17-.32,1.51a17.83,17.83,0,0,0-.3,2.92,26.29,26.29,0,0,0,.2,2.68c.36-.93.65-1.7.88-2.52a22.74,22.74,0,0,0,.69-2.79l.31-1.48c.07-.31.13-.65.23-1,0-.18.09-.36.14-.55l.24-.92a41.35,41.35,0,0,1,2.67-7.29,23.71,23.71,0,0,1,4.4-6.33A13.72,13.72,0,0,1,146,1.85a11.75,11.75,0,0,1,7.43.51c2.23,1.08,3.56,3.4,4.2,5.89a30.89,30.89,0,0,1,.76,7.83c0,2.66-.25,5.33-.52,8-.54,5.3-1.33,10.56-1.83,15.8-.12,1.31-.23,2.62-.3,3.93l-.05,1-.05,1.74c-.56,1.94,1.25.36,2.25,0a28,28,0,0,0,6.5-4.39,11.65,11.65,0,0,0,2.38-3.21,17.46,17.46,0,0,0,1.34-3.65c.3-1.23.54-2.46.72-3.68a17,17,0,0,1,.83-3.37,18.85,18.85,0,0,1,3.63-5.75c1.5-1.72,3.13-3.32,4.71-4.93s3.11-3.22,4.5-4.91c.69-.86,1.37-1.7,2-2.58l.73-1h0l0,.22-.05.57c-.15,1.52-.38,3-.67,4.48a40.9,40.9,0,0,1-2.67,8.44l-.23.5c-.16.33-.31.66-.5,1-.34.67-.8,1.44-1.2,2.15l-1.2,2.11-.3.52.43-.31.89-.64,5.58-4a71.93,71.93,0,0,1,7.13-4.51,26.25,26.25,0,0,1,7.45-2.91,14.24,14.24,0,0,1,7.48.87A22.18,22.18,0,0,1,213.9,21a14.13,14.13,0,0,1,2.51,2.56l.27.35c.08.11,0,0,0,.08s.06,0,0,.06l-.83.16c-4.83,1-9.45,2.09-13.83,3.42-2.19.67-4.33,1.39-6.38,2.21l-.77.32-.58.25c-.26.1-.5.21-.73.32l-2.87,1.35-.08,0,.09,0,.19,0,.39.08.76.17,1.53.33.76.17.38.08.21,0,.1,0,.75.2a36.26,36.26,0,0,1,18.8,11.61,37.9,37.9,0,0,1,5.19,8c.18.33.31.68.46,1s.08.17.08.18h0L220,54l-1-.4c-.65-.26-1.3-.5-1.93-.74a66.63,66.63,0,0,0-13.48-3.38l-1.4-.18-1-.11L199.91,49l-1.24-.12-.31,0c0,.07.13.15.18.23l.37.47,1.43,1.83.71,1c.19.29.38.56.57.82.37.52.67,1,1,1.47,1.15,1.82,1.78,3,2,3.48h0a60.53,60.53,0,0,1,3.5,7.88c.73,2,1.13,3.4,1.41,4.34.13.48.24.85.31,1.12l.1.36,0,.07h0l1.3-.67h0l0,0-.07-.09-.21-.24s-.73-.92-2.75-3.08c-1-1.07-2.37-2.45-4.2-4.09a61.36,61.36,0,0,0-7.1-5.53l-1.16-.75-.59-.37-.75-.45c-.83-.5-1.65-.93-2.52-1.42l-.64-.37-.33-.18c-.08,0-.29-.2-.17,0,.2.45.4.91.61,1.37s.41.92.62,1.39l.34.75.26.61c.21.49.41,1,.6,1.51.4,1,.78,2.1,1.14,3.23a64.3,64.3,0,0,1,2.82,16c0,.38,0,.79,0,1.15h0l-.32-.52c-.46-.72-.94-1.44-1.45-2.17a59.72,59.72,0,0,0-7.18-8.56c-.7-.69-1.43-1.37-2.2-2-.38-.33-.77-.66-1.17-1l-.45-.37-.6-.46-1.2-.92-.6-.46-.16-.12s-.13-.13-.09,0l.06.38.23,1.51.23,1.53.11.86c.14,1,.25,2.08.34,3.14a72.48,72.48,0,0,1-.09,13.4h0c.2-2.08.23-2.85.21-2.58s-.09,1.56-.31,3.56a68,68,0,0,1-1.34,7.79c-.09.38-.19.77-.28,1.16l0,.08h0a11.85,11.85,0,1,0,1.47.13v0l0-.16,0-.31-.06-.63c-.09-.84-.2-1.71-.32-2.59-.23-1.76-.53-3.58-.9-5.42.49,2.54.55,3.11.4,2.14s-.59-3.46-1.5-7c-.23-.88-.48-1.82-.78-2.82-.16-.5-.31-1-.47-1.54v0h0c1.31-.25-1.78.33-1.46.28v.75c0,.27,0,.55,0,.83a53.63,53.63,0,0,1-.6,7.35,67.23,67.23,0,0,1-4.57,16.72c.94-2.32.43-.64-1.39,2.81l-.18.33-.09.17,0,0-.09.14-.1.15s0,0,0,0,0,.06,0,0q.12-.78.27-1.59c.11-.74.22-1.5.34-2.27.21-1.55.4-3.13.55-4.74h0c-.22,2,.12-.39.35-5,0-.59.05-1.2.08-1.85v-.22h0l-1.49-.18-.06.23c0,.16-.07.32-.11.48-.08.33-.15.66-.24,1-.34,1.35-.79,2.77-1.32,4.24a38.76,38.76,0,0,1-4.5,8.86c.27-.39.1-.15-.41.56s-1.94,2.42-1.5,1.89h0v-.07c0-.44.09-.9.13-1.38.1-1.13.18-2.33.26-3.58a71.69,71.69,0,0,1,.78-7.81h0c0,.12,0-.39.26-1.36.11-.48.25-1.09.46-1.77.11-.34.21-.71.35-1.08l.21-.59,0-.07v0h0l-1.37-.62v0l-.08.14-.16.28c-1.71,3.1-5.18,6.72-9,9.84l-.94.76-.86.66h0l.37-1.62c.32-1.42.64-2.93.9-4.47l.13-.74.05-.39c0-.24.08-.49.1-.73.05-.48.05-.9.07-1.35s0-.8,0-1.2l0-1.22v-.25a2.49,2.49,0,0,0-.23.3l-.5.72a25.68,25.68,0,0,1-2,2.56A24.51,24.51,0,0,1,149,94.34c-.37.31-.75.61-1.13.9l-1,.71s0,0,0,0h0v-.4c0-1,.06-1.94.14-2.91a32.92,32.92,0,0,1,.94-5.7l.07-.26c0-.13.07-.24.11-.37l.22-.71a4.26,4.26,0,0,0-.62-.35l-.37-.2-.26-.14c-.09-.06-.25,0-.37,0a.66.66,0,0,1-.2,0h-.21a5.47,5.47,0,0,1-2.38-.91,10,10,0,0,1-3.41-4.16c-1.52-3.39-1.64-7.31-1.23-11a49.28,49.28,0,0,1,1-5.55l.37-1.37.18-.68.38-1.23.78-2.52.1-.31s0,0,0,0l-.08,0-.15.09-.61.37-1.21.74c-.4.23-.8.51-1.22.72l-.6.31A10.9,10.9,0,0,1,137,60a9,9,0,0,1-1.23.34c-.2,0-.41,0-.61.06a1.73,1.73,0,0,1-.6,0A4.23,4.23,0,0,1,131,57.58a17.11,17.11,0,0,1-1.33-5,44.75,44.75,0,0,1-.35-5.29c0-3.53.17-7,.46-10.4.12-1.24.21-2.26.26-2.84A20.67,20.67,0,0,0,129.91,28.45Z"/><path class="cls-23" d="M93.32,28.45C94.82,42,98,69.33,82.42,58.84,90.33,83,77,87.21,75.62,85.35a37.68,37.68,0,0,1,1.5,12s-4.92-3.11-7-6.3c-.24,2.34,2.09,11.54,2.09,11.54s-9.49-6.51-12.94-13.17c2.35,6,1.81,12.31,2.69,19.11,0,.4-.26.7-.49.46-4.29-4.43-7.6-11.08-9.27-18.64a106.89,106.89,0,0,0,2.26,19C48,102,44.81,84.29,45.31,76.79a87.69,87.69,0,0,0-3.67,18.26,72.5,72.5,0,0,1-1.14-29.4A57.55,57.55,0,0,0,25.29,83.37,62.63,62.63,0,0,1,31,56.25,64.32,64.32,0,0,0,12.56,71.73a58.53,58.53,0,0,1,10.67-22A66.5,66.5,0,0,0,1.44,55.56C7.31,40.68,19.08,33.92,30.27,31.88c-6.83-3.37-17.89-6-25-7.29,3.12-5.7,11.44-9,16.27-9,7,.08,17.18,8,20.92,10.71A41.86,41.86,0,0,1,37.1,6.15C43.66,17.55,53.65,21.54,55,30.76c1.28,8.65,3,11.18,11.8,15.67C66.58,29.22,57.64,1.55,73.27.75,86.25.09,91.83,14.87,93.32,28.45Z"/><path class="cls-22" d="M93.32,28.45A21.1,21.1,0,0,0,93.17,34c0,.58.14,1.6.25,2.84.29,3.4.51,6.87.46,10.4a44.73,44.73,0,0,1-.34,5.29,17.42,17.42,0,0,1-1.33,5,4.23,4.23,0,0,1-3.52,2.82,1.73,1.73,0,0,1-.6,0c-.2,0-.41,0-.61-.06A9.53,9.53,0,0,1,86.24,60,11.6,11.6,0,0,1,85,59.48l-.6-.31c-.43-.21-.82-.49-1.23-.72L82,57.71l-.61-.37-.15-.09-.08,0s0,0,0,0l.1.31L82,60l.39,1.23.18.68.36,1.37a47.16,47.16,0,0,1,1,5.55c.4,3.72.29,7.64-1.23,11a10,10,0,0,1-3.41,4.16,5.47,5.47,0,0,1-2.38.91h-.21a.66.66,0,0,1-.2,0c-.12,0-.28-.11-.37,0l-.26.14-.37.2a3.42,3.42,0,0,0-.62.35l.22.71c0,.13.08.24.11.37l.07.26a32.92,32.92,0,0,1,.94,5.7c.08,1,.13,1.94.14,2.91V96h0l-1-.71q-.57-.43-1.14-.9a24.38,24.38,0,0,1-2.11-1.94,25.68,25.68,0,0,1-2-2.56l-.5-.72a2.49,2.49,0,0,0-.23-.3v.25l0,1.22c0,.41,0,.74,0,1.2s0,.87.08,1.35c0,.24.06.49.1.73l0,.39.12.74c.27,1.54.59,3,.91,4.47l.37,1.62h0l-.86-.66-1-.76c-3.84-3.12-7.3-6.74-9-9.84L60,89.24,60,89.1v0l-1.37.62h0v0l0,.07.21.59c.14.37.24.74.35,1.08.21.68.35,1.29.46,1.77.21,1,.28,1.48.26,1.36h0a69.23,69.23,0,0,1,.77,7.81c.08,1.25.17,2.45.27,3.58,0,.48.09.94.13,1.38v.07h0c.44.53-1.13-1.32-1.5-1.89s-.68-.95-.41-.56a39.22,39.22,0,0,1-4.51-8.86c-.53-1.47-1-2.89-1.31-4.24-.09-.33-.16-.66-.24-1L53,90.44l-.05-.23c1.32-.17-1.81.21-1.49.18h0v.22c0,.65,0,1.26.07,1.85.24,4.65.58,7,.36,5h0c.15,1.61.34,3.19.55,4.74.12.77.23,1.53.34,2.27q.13.81.27,1.59c0,.1,0,0,0,0s0,0,0,0L53,106l-.09-.14,0,0-.09-.17-.18-.33c-1.82-3.45-2.34-5.13-1.39-2.81a67.23,67.23,0,0,1-4.57-16.72,53.63,53.63,0,0,1-.6-7.35c0-.28,0-.56,0-.83l0-.4v-.35c.32.05-2.77-.53-1.47-.28h0v0l-.47,1.54c-.3,1-.55,1.94-.78,2.82-.91,3.54-1.33,6-1.5,7s-.09.4.39-2.14c-.36,1.84-.66,3.66-.9,5.42-.12.88-.22,1.75-.31,2.59l-.06.63,0,.31V95a11.57,11.57,0,1,0,1.46-.13h0l0-.08c-.1-.39-.19-.78-.28-1.16a65.82,65.82,0,0,1-1.34-7.79c-.22-2-.29-3.29-.32-3.56s0,.5.22,2.58h0a73.39,73.39,0,0,1-.1-13.4c.1-1.06.21-2.11.35-3.14l.11-.86.23-1.53.23-1.51L41.5,64c0-.11-.06,0-.1,0l-.15.12-.6.46-1.21.92-.59.46-.45.37c-.41.32-.79.65-1.17,1-.77.66-1.5,1.34-2.21,2a60.28,60.28,0,0,0-7.17,8.56c-.51.73-1,1.45-1.45,2.17l-.32.52h0c0-.36,0-.77,0-1.15a64.27,64.27,0,0,1,2.83-16c.35-1.13.73-2.21,1.13-3.23.2-.52.4-1,.61-1.51l.26-.61.34-.75c.21-.47.42-.93.62-1.39s.41-.92.61-1.37c.12-.19-.09,0-.17,0l-.33.18-.65.37c-.86.49-1.68.92-2.51,1.42l-.75.45-.6.37-1.15.75a61.36,61.36,0,0,0-7.1,5.53c-1.83,1.64-3.18,3-4.2,4.09-2,2.16-2.75,3.08-2.75,3.08l-.21.24L12,71.2l0,0h0c.58.29-1.29-.67,1.29.67h0l0-.07c0-.1.06-.22.1-.36s.17-.64.31-1.12C14,69.41,14.4,68,15.13,66a60.22,60.22,0,0,1,3.49-7.88h0c.25-.46.88-1.66,2-3.48.29-.45.6-.95,1-1.47.19-.26.38-.53.57-.82l.71-1,1.42-1.83.37-.47c.06-.08.14-.16.18-.23l-.3,0L23.32,49,22,49.15l-1,.11-1.4.18A66.63,66.63,0,0,0,6.18,52.82c-.64.24-1.28.48-1.93.74l-1,.4-.38.16h0s0,.06.07-.18.28-.69.47-1a37.9,37.9,0,0,1,5.19-8,36.26,36.26,0,0,1,18.8-11.61l.75-.2.1,0,.21,0,.38-.08.76-.17,1.52-.33.77-.17.38-.08.2,0,.09,0-.09,0-2.86-1.35c-.23-.11-.47-.22-.73-.32l-.59-.25-.76-.32c-2.06-.82-4.19-1.54-6.38-2.21-4.39-1.33-9-2.44-13.84-3.42l-.83-.16s0,0,0-.06l.06-.08.27-.35A13.8,13.8,0,0,1,9.34,21a22.18,22.18,0,0,1,6.54-3.58,14.24,14.24,0,0,1,7.48-.87,26.25,26.25,0,0,1,7.45,2.91A73.11,73.11,0,0,1,37.94,24l5.58,4,.89.64.43.31-.3-.52-1.2-2.11c-.4-.71-.86-1.48-1.21-2.15-.18-.35-.33-.68-.49-1l-.23-.5a40.31,40.31,0,0,1-2.67-8.44c-.29-1.47-.52-3-.67-4.48l0-.57L38,9h0l.73,1c.61.88,1.3,1.72,2,2.58,1.39,1.69,2.93,3.3,4.5,4.91s3.21,3.21,4.71,4.93a18.85,18.85,0,0,1,3.63,5.75,16.28,16.28,0,0,1,.82,3.37c.18,1.22.43,2.45.73,3.68a17.46,17.46,0,0,0,1.34,3.65,11.82,11.82,0,0,0,2.37,3.21,28.21,28.21,0,0,0,6.51,4.39c1,.4,2.81,2,2.25,0l0-1.74,0-1c-.07-1.31-.18-2.62-.3-3.93-.5-5.24-1.3-10.5-1.84-15.8-.26-2.65-.47-5.32-.51-8a30.45,30.45,0,0,1,.76-7.83c.64-2.49,2-4.81,4.2-5.89a11.75,11.75,0,0,1,7.43-.51,13.72,13.72,0,0,1,6.56,3.72,23.71,23.71,0,0,1,4.4,6.33,41.35,41.35,0,0,1,2.67,7.29l.24.92c0,.19.09.37.14.55.1.35.16.69.23,1l.31,1.48a22.74,22.74,0,0,0,.69,2.79c.23.82.51,1.59.87,2.52a23.83,23.83,0,0,0,.21-2.68,17.83,17.83,0,0,0-.3-2.92c-.07-.34-.18-.87-.32-1.51-.07-.32-.13-.67-.23-1-.05-.18-.1-.36-.14-.55s-.17-.64-.25-.95a42.9,42.9,0,0,0-2.77-7.56,24.94,24.94,0,0,0-4.7-6.74A15.21,15.21,0,0,0,77.55.38c-.7-.11-1.4-.28-2.11-.33L73.32,0a11.2,11.2,0,0,0-4.21,1,8.43,8.43,0,0,0-3.28,2.93,13.25,13.25,0,0,0-1.71,3.92,31.66,31.66,0,0,0-.8,8.24c0,2.73.25,5.43.52,8.11.54,5.35,1.33,10.61,1.83,15.79.12,1.3.23,2.59.29,3.88l.05.94V45c0,.19,0,.13,0,.13A27,27,0,0,1,59.87,41a12.44,12.44,0,0,1-3.32-6.16c-.27-1.17-.51-2.35-.69-3.54a17.88,17.88,0,0,0-.9-3.67,20.52,20.52,0,0,0-3.9-6.2c-1.56-1.79-3.21-3.4-4.77-5s-3.07-3.18-4.43-4.82c-.66-.83-1.33-1.64-1.92-2.49l-.44-.64-.22-.31L39.1,8a4,4,0,0,1-.22-.34L37.26,5.07l-.6-1c-.18-.25-.51-1-.4-.26l.08,2.28.12,2.26,0,.57,0,.35.06.59a44.53,44.53,0,0,0,.69,4.63A42,42,0,0,0,40,23.3l.24.51h0s0,0,0,0l-.07,0-1.41-1a71.65,71.65,0,0,0-7.28-4.6,27.71,27.71,0,0,0-7.89-3.07,15.22,15.22,0,0,0-2.14-.23,16.39,16.39,0,0,0-2.12.16,21.21,21.21,0,0,0-4,1,23.42,23.42,0,0,0-7,3.83,16,16,0,0,0-2.76,2.82l-.3.39c-.11.15-.3.48-.44.71l-.48.76-.23.38-.12.19s.12,0,.17,0L7,25.7c4.79,1,9.37,2.07,13.69,3.37,2.16.66,4.26,1.37,6.26,2.17l.74.31.17.07h0l-.09,0-.78.2A37.71,37.71,0,0,0,7.47,43.93a39.22,39.22,0,0,0-5.4,8.35c-.19.34-.32.71-.48,1.06C1.31,54,1,54.6.77,55.23l-.44,1-.22.5L0,57l.25-.11,2-.87,1.59-.69,1-.39,1.89-.72a64.56,64.56,0,0,1,13.18-3.31l1.36-.18.34,0h0c-.21.27-.4.54-.59.79l-.59.84c-.38.54-.7,1.06-1,1.52-1.19,1.87-1.83,3.11-2.08,3.57h0a61.45,61.45,0,0,0-3.58,8.08c-.75,2-1.16,3.47-1.45,4.44-.13.49-.24.86-.32,1.14s-.07.27-.1.37l0,.07h0a14.47,14.47,0,1,0,1.3.66h0l0,0,.08-.08.2-.24s.72-.9,2.7-3a64.41,64.41,0,0,1,11-9.41l1.12-.72.58-.37.48-.28h0s0-.06-.06.12c-.21.5-.42,1-.62,1.55-.41,1-.8,2.16-1.16,3.32a65.78,65.78,0,0,0-2.9,16.36c0,.39,0,.77-.05,1.19,0,.81,0,1.56,0,2.35s0,1.57,0,2.37v.6s0,.13,0,.12l.08-.12.15-.25.62-1c.41-.67.82-1.34,1.27-2.11l1-1.63c.45-.71.92-1.41,1.41-2.12a58.39,58.39,0,0,1,7-8.35c.69-.67,1.4-1.33,2.14-2,.37-.32.74-.64,1.13-.95l.13-.11h0l-.09.69c-.14,1-.25,2.12-.35,3.2A74.67,74.67,0,0,0,39.13,85h0c-.2-2.13-.23-2.91-.22-2.63s.09,1.59.32,3.63a69.87,69.87,0,0,0,1.37,8c.09.39.19.79.29,1.19l0,.08h0c.66,0-1.46.13,1.48-.1v0l0-.15,0-.31L42.5,94c.09-.83.19-1.68.31-2.55.23-1.73.53-3.52.88-5.33h0c-.48,2.49-.54,3.06-.39,2.11s.59-3.41,1.48-6.88c.23-.87.47-1.8.77-2.78L46,77.06v0c1.31.25-1.78-.34-1.46-.27v.37l0,.43c0,.29,0,.58,0,.87A54.67,54.67,0,0,0,45.13,86a68.9,68.9,0,0,0,4.67,17.11c-.53-1.18-.56-1.38-.34-.79.11.29.34.77.63,1.4A25.28,25.28,0,0,0,51.26,106l.18.35.1.17.18.27.79,1.13.82,1.2c.28.41.67.87,1,1.31l1.08,1.39.27.34.12.16,0,0v-.06l0-.12c-.06-.34-.13-.67-.2-1-.15-.69-.29-1.38-.44-2.09-.07-.36-.14-.72-.22-1.08s-.12-.67-.19-1l-.3-1.66-.18-1.09c-.12-.73-.23-1.48-.34-2.24-.21-1.52-.4-3.09-.55-4.67h0c.22,2-.11-.38-.35-5,0-.57,0-1.18-.07-1.82v-.23h0l-1.48.18.06.24.12.5c.08.33.15.68.25,1a43.75,43.75,0,0,0,1.35,4.37,39.87,39.87,0,0,0,4.69,9.21l.42.58c.27.38.65.86,1.11,1.44l.38.44c.09.11.19.22.28.34a2.14,2.14,0,0,0,.39.33l.79.57a2.08,2.08,0,0,0,.4.26.9.9,0,0,0,.42-.13,1.1,1.1,0,0,0,.34-.29.56.56,0,0,0,.09-.17l0-.26c0-.18.06-.36.1-.53l-.09-.7c0-.34-.07-.69-.11-1s0-.54-.08-.82c-.09-1.11-.18-2.3-.26-3.55a70.4,70.4,0,0,0-.79-8h0c0,.13-.05-.4-.28-1.43-.11-.51-.26-1.14-.48-1.87-.11-.36-.22-.75-.37-1.15-.08-.2-.15-.41-.23-.63l0-.08v0h0l-1.37.61v0l.09.15.18.31c1.87,3.38,5.45,7.08,9.37,10.27l1,.78,1.14.88,1.22.89,1.33.92.35.25.17.12-.06-.22c-.07-.31-.15-.61-.23-.93-.15-.62-.31-1.26-.47-1.91s-.38-1.61-.57-2.46c-.32-1.41-.64-2.9-.89-4.4l-.12-.71,0-.35h0l0,.06a25.65,25.65,0,0,0,2.25,2.06c.39.32.78.64,1.18.94l.61.45.83.59c.37.26.8.53,1.2.78l.6.39s.06,0,.07,0v-.27l0-.36.05-1.44V95.54c0-1-.07-2-.15-3a34.49,34.49,0,0,0-1-6l0-.1h.32a6.84,6.84,0,0,0,3.08-1.15,11.28,11.28,0,0,0,4-4.8c1.7-3.79,1.78-7.94,1.36-11.82a52,52,0,0,0-1-5.75L84,61.55l-.23-.82-.06-.2v0h0l.66.33a12.18,12.18,0,0,0,1.38.59,9.93,9.93,0,0,0,1.47.4,6.65,6.65,0,0,0,.78.08,3.06,3.06,0,0,0,.8,0,4.8,4.8,0,0,0,3-1.21,6.86,6.86,0,0,0,1.8-2.46A18.5,18.5,0,0,0,95,52.73a46.22,46.22,0,0,0,.36-5.47c0-3.6-.18-7.12-.47-10.55-.12-1.24-.21-2.27-.27-2.85A19.15,19.15,0,0,0,93.32,28.45Z"/></symbol><symbol id="Bird_Head_2_2" data-name="Bird_Head_2 2" viewBox="0 0 167.78 104.03"><path class="cls-24" d="M123.11,91.62c3.18-16.81,5.87-30.31,1-43.51-3.08-8.36-10.44-14.58-18.56-18.25s-12.3-4.58-20.46-5.09H84.3c-8.15.51-14.14,1.41-22.25,5.09S46.57,39.75,43.49,48.11c-4.87,13.2-1.86,33.46.41,44.37l3.34,11.06h73.6Z"/><path class="cls-25" d="M43.49,48.11A47.1,47.1,0,0,0,41,61.78c0,.3,0,.47,0,.47-.06,8.1,2.27,17.06,10.53,20.87,2.7,1,5.76.92,9.13-1.14C68.46,77.21,84,59.89,84,59.89c.23-4.55-.11-10.66-2.56-14.7a19,19,0,0,0-11.17-8.34L54.41,34.3A30.44,30.44,0,0,0,43.49,48.11Z"/><path class="cls-25" d="M124.36,48.11a47.44,47.44,0,0,1,2.5,13.67c0,.3,0,.47,0,.47.06,8.1-2.27,17.06-10.53,20.87-2.7,1-5.76.92-9.13-1.14-7.81-4.77-23.32-22.09-23.32-22.09-.23-4.55.11-10.66,2.56-14.7A19,19,0,0,1,97.6,36.85l15.84-2.55A30.58,30.58,0,0,1,124.36,48.11Z"/><ellipse class="cls-26" cx="105.26" cy="55.34" rx="11.51" ry="12.04" transform="translate(-13.37 63.7) rotate(-31.77)"/><ellipse class="cls-27" cx="105.28" cy="56.17" rx="8.39" ry="8.52" transform="translate(26.5 145.8) rotate(-76.77)"/><circle class="cls-10" cx="101.22" cy="51.54" r="4.22"/><path class="cls-28" d="M81.19,59.3a5.26,5.26,0,0,1,5.31.1h0a5.92,5.92,0,0,1,2.31,8l-4.93,9.42-5.17-9.42a5.92,5.92,0,0,1,2.31-8Z"/><ellipse class="cls-26" cx="62.35" cy="55.34" rx="12.04" ry="11.51" transform="translate(-17.53 79.22) rotate(-58.23)"/><ellipse class="cls-27" cx="62.32" cy="56.17" rx="8.52" ry="8.39" transform="translate(-11.2 15.76) rotate(-13.23)"/><circle class="cls-10" cx="57.76" cy="51.54" r="4.22"/><path d="M72.05,37.58c2-.33-29.94-16.66-35.72-26.75a37,37,0,0,0,9.19,14.48A133.11,133.11,0,0,1,11.66,0,52,52,0,0,0,29.21,22.55,93.43,93.43,0,0,1,0,5.84C1.82,10,5.22,13.31,9,15.9,35.1,33.76,68,38.24,72.05,37.58Z"/><path d="M95.73,37.58c-2-.33,29.94-16.66,35.72-26.75a37.07,37.07,0,0,1-9.19,14.48A132.88,132.88,0,0,0,156.11,0a51.93,51.93,0,0,1-17.54,22.55A93.55,93.55,0,0,0,167.78,5.84c-1.82,4.15-5.22,7.47-9,10.06C132.67,33.76,99.83,38.24,95.73,37.58Z"/></symbol><symbol id="Bird_Body_MASTER_1_6" data-name="Bird_Body_MASTER_1 6" viewBox="0 0 90.52 160.76"><path class="cls-1" d="M40.78,120.78l-.21.51c-1.42-5.47-2.25-21.71-2.28-26.38l-6,1.14a244.38,244.38,0,0,0,5.26,25.38s0,.93,0,.94c-3.84,4.57-12.41,17.54-13.68,19-1.86,2.13-3.57,6.1-4.45,8.89a6,6,0,0,0-.31,3.19c.26,1,1.2,2,2.16,1.72l.4-.81a19.1,19.1,0,0,0-.19,2.4,3.79,3.79,0,0,0,1,3,2.21,2.21,0,0,0,2.55,0,7.21,7.21,0,0,0,1.91-2.08l.33-.82c.61,1.82,2.28,3.28,3.9,2.66,2.15-.83,2.3-4.08,2.22-6.61a57.35,57.35,0,0,1,3.1-20.67c.59-1.71,1.42-3.55,3-4.14.63-.23,1.33-.24,2-.51C45.44,125.83,44.86,121.75,40.78,120.78Z"/><path class="cls-1" d="M71.46,150.39c-.88-2.8-2.59-6.77-4.44-8.89-1.28-1.47-9.85-14.43-13.69-19,0,0,0-1,0-1a241.06,241.06,0,0,0,5.26-25.37l-6-1.15c0,4.68-.86,20.92-2.28,26.38l-.21-.51c-4.08,1-4.66,5-.66,6.76.63.27,1.33.27,2,.51,1.56.58,2.39,2.43,3,4.14A57.32,57.32,0,0,1,57.52,153c-.08,2.53.07,5.78,2.22,6.6,1.63.63,3.29-.83,3.9-2.65l.33.82a7.63,7.63,0,0,0,1.91,2.08,2.21,2.21,0,0,0,2.55,0,3.82,3.82,0,0,0,1-3,17.37,17.37,0,0,0-.19-2.39l.4.81c1,.22,1.9-.68,2.16-1.73A6,6,0,0,0,71.46,150.39Z"/><path d="M40.49,121.27c1.28.32,2.71,1.09,3,2.51a3,3,0,0,1-1.86,3c-.88.48-1.88.46-2.76.88a4.61,4.61,0,0,0-1.72,1.59,18.55,18.55,0,0,0-2.09,5.3,57.67,57.67,0,0,0-2.24,13.11c-.12,2.08,0,4.15,0,6.23,0,1.46-.05,3.36-1.1,4.5-1.55,1.69-3.56-.21-4.07-1.84-.74-2.38.58-4.92,1.64-7,.3-.58-.58-1.09-.88-.51-1.06,2.06-2.18,4.34-1.95,6.73a4.83,4.83,0,0,0,3.1,4.19,3.16,3.16,0,0,0,3.66-2.12,13.08,13.08,0,0,0,.6-5.39,57.4,57.4,0,0,1,1.58-15.06,31.4,31.4,0,0,1,2.19-6.78,4,4,0,0,1,2-2.12,15.08,15.08,0,0,1,1.64-.4,5.74,5.74,0,0,0,1.37-.65,3.9,3.9,0,0,0,2-4c-.36-1.76-2-2.81-3.68-3.23a.51.51,0,0,0-.27,1Z"/><path d="M26.58,157.49c-.71,1-2.07,2.91-3.53,2.09-1.23-.68-1-2.81-.9-4a16.1,16.1,0,0,1,3.2-8.39c.39-.52-.49-1-.88-.51a16.81,16.81,0,0,0-3.38,10.54c.05,1.49.57,3.26,2.28,3.49,1.88.25,3.13-1.38,4.09-2.73.38-.54-.5-1-.88-.52Z"/><path d="M21,154.59c-.73.12-1.26-.71-1.42-1.3a5,5,0,0,1,.24-2.65,13.59,13.59,0,0,1,.57-1.5,47,47,0,0,1,3-5.54c1.63-2.69,3.49-5.22,5.31-7.79q4.35-6.13,8.71-12.28a5.17,5.17,0,0,0,.91-1.35,2.82,2.82,0,0,0-.24-1.19c-.24-.87-.46-1.76-.68-2.64-.54-2.22-1-4.45-1.51-6.68-1.08-5-2.13-10.15-2.81-15.28l-.44.59,5.67-1.49-.77-.58c0,3.25.21,6.52.41,9.77.25,4.1.56,8.21,1.1,12.29a34.76,34.76,0,0,0,.89,4.85.61.61,0,0,0,1.17-.33,52.27,52.27,0,0,1-1.42-9.81c-.37-4-.62-8.06-.8-12.1-.07-1.55-.13-3.11-.14-4.67a.61.61,0,0,0-.76-.59l-5.67,1.49a.62.62,0,0,0-.45.58A214.26,214.26,0,0,0,36,117.7c.36,1.5.72,3,1.15,4.48l.07-.46L26.29,137.11a68,68,0,0,0-6.9,11.29,12.13,12.13,0,0,0-1.06,3.37c-.24,1.84.71,4.36,3,4,.76-.12.44-1.29-.32-1.16Z"/><path d="M50.15,120.41a4.9,4.9,0,0,0-3.53,2.72,3.54,3.54,0,0,0,.88,3.73,5.68,5.68,0,0,0,2.2,1.37c.57.19,1.19.21,1.75.43a3,3,0,0,1,1.12.82A8.6,8.6,0,0,1,54,132.19c.41,1.14.76,2.3,1.09,3.47a57.38,57.38,0,0,1,2.11,15,32,32,0,0,0,.18,6.11c.31,1.53,1.16,3.17,2.85,3.46,2.06.35,3.72-1.68,4.17-3.48.64-2.61-.66-5.25-1.82-7.5-.3-.59-1.18-.07-.88.51,1,1.91,2.13,4.13,1.79,6.35-.22,1.46-1.62,3.66-3.38,3-1.47-.52-1.79-2.43-1.89-3.77-.16-1.92,0-3.85,0-5.77a58.84,58.84,0,0,0-1.86-13.19,33.81,33.81,0,0,0-1.9-5.79,6.6,6.6,0,0,0-1.39-2.08,4.42,4.42,0,0,0-2.31-1.08c-1.51-.3-3.34-1.39-3.32-3.14s1.61-2.56,3-2.91a.51.51,0,0,0-.27-1Z"/><path d="M63.73,158c1,1.35,2.21,3,4.09,2.73,1.71-.23,2.23-2,2.28-3.49a16.81,16.81,0,0,0-3.38-10.54c-.39-.52-1.27,0-.88.51a16.13,16.13,0,0,1,3.2,8.39c.09,1.14.32,3.19-.82,3.93-1.47.94-2.9-1-3.61-2-.38-.53-1.26,0-.88.52Z"/><path d="M69.6,155.88c1.89.32,3-1.54,3-3.21a9.22,9.22,0,0,0-.84-3.5,50.37,50.37,0,0,0-4-7.35c-2.35-3.74-5.07-7.27-7.62-10.87-2.15-3-4.31-6.07-6.45-9.11l.06.47c.87-3,1.53-6,2.19-9.1q1.24-5.68,2.26-11.41c.31-1.76.6-3.51.83-5.28a.6.6,0,0,0-.44-.58l-5.67-1.49a.61.61,0,0,0-.77.58c0,3.21-.2,6.42-.4,9.62-.25,4.07-.55,8.14-1.07,12.18a32.57,32.57,0,0,1-.89,4.79.61.61,0,0,0,1.17.32,54,54,0,0,0,1.45-10c.37-4.07.63-8.16.81-12.25.07-1.56.13-3.12.14-4.68l-.77.59,5.67,1.48-.44-.58c-.59,4.52-1.5,9-2.43,13.48-.49,2.36-1,4.72-1.55,7.07-.22.94-.45,1.88-.69,2.81-.1.4-.21.8-.31,1.19a2.85,2.85,0,0,0-.26,1.24,5.35,5.35,0,0,0,.91,1.35l1.1,1.54,2.29,3.24,4.41,6.21c1.66,2.35,3.43,4.66,5,7.09a61.83,61.83,0,0,1,4,7,17.44,17.44,0,0,1,.69,1.68,6.24,6.24,0,0,1,.41,2.59c-.09.7-.6,1.82-1.48,1.68s-1.09,1-.33,1.16Z"/><path class="cls-2" d="M15.63,11.08,12.1,44.65c-1,22.38,8.83,40.63,16.82,53.67.89,1.46,1.38,3.18,2.61,4.38a4.51,4.51,0,0,0,4.69,1.22c1.86-.77,2.59-3,3.1-4.92,1.44-5.4,3.7-16,4.92-21a.94.94,0,0,1,1.82,0c1.86,6.54,4,14.5,5.73,21,.52,1.94,1.25,4.15,3.11,4.92a4.51,4.51,0,0,0,4.69-1.22,13,13,0,0,0,2.61-4.38C68.82,83,79.68,67.62,78.8,47.74L73.94,10.63"/><path d="M14.94,11.08,13.45,25.27,11.52,43.6a55.64,55.64,0,0,0,.22,11.68,81.37,81.37,0,0,0,4.11,18.14A112.11,112.11,0,0,0,22.73,89c1.21,2.28,2.49,4.54,3.81,6.76.62,1,1.27,2.07,1.88,3.12a27.35,27.35,0,0,0,2.22,3.91c1.78,2.15,5.2,3,7.29.81,1.7-1.77,2.12-4.53,2.68-6.82,1.27-5.18,2.4-10.4,3.6-15.6l.36-1.59.18-.72a2.13,2.13,0,0,1,.19-.76c.33-.38.5.22.57.47l.66,2.35q1.36,4.92,2.7,9.86c.83,3.09,1.57,6.21,2.49,9.28.79,2.59,2.45,5.25,5.56,4.78s4.73-3.48,5.88-6.14,2.33-5.12,3.56-7.64c2.59-5.28,5.28-10.51,7.55-15.94A71.73,71.73,0,0,0,79,57.64a40.68,40.68,0,0,0,.38-10.85l-2.31-17.6-2.3-17.56-.13-1c-.11-.87-1.5-.88-1.38,0l1.69,12.95,2.64,20.14c.18,1.34.41,2.68.53,4a42,42,0,0,1-.4,9.1,59.1,59.1,0,0,1-1.87,8.74c-3.24,11.19-9.33,21.18-14,31.8-1.07,2.43-2.44,6.15-5.68,6.1-3,0-3.57-4.1-4.15-6.28-1.7-6.39-3.42-12.77-5.22-19.13a1.94,1.94,0,0,0-.87-1.3,1.67,1.67,0,0,0-1.61,0c-.88.51-.95,1.78-1.16,2.68q-.86,3.71-1.69,7.43c-.6,2.66-1.2,5.33-1.84,8q-.39,1.65-.81,3.3a14.66,14.66,0,0,1-1.24,3.53,3.11,3.11,0,0,1-3.21,1.75,4.87,4.87,0,0,1-3.31-2.5c-.73-1.24-1.3-2.55-2.05-3.79-.61-1-1.22-2-1.82-3.06a133,133,0,0,1-7.32-14.19A88.94,88.94,0,0,1,14.37,63,73.82,73.82,0,0,1,13,53.55a57.73,57.73,0,0,1-.17-8.92c.39-4.79,1-9.57,1.52-14.36l1.9-18.12.12-1.07c.09-.89-1.3-.88-1.39,0Z"/><path class="cls-3" d="M78,66.21c-21.61,8-48.41,2.59-66.8-11.17a1.15,1.15,0,0,1-.46-.83V46.66a1.17,1.17,0,0,1,1.85-1C30.8,58.37,57,64.74,77.89,57.16a1.17,1.17,0,0,1,1.55.84l-.67,6.87A1.17,1.17,0,0,1,78,66.21Z"/><ellipse id="SVGID" class="cls-4" cx="42.7" cy="63.61" rx="2.92" ry="2.88"/><ellipse id="SVGID-2" data-name="SVGID" class="cls-5" cx="28.3" cy="59.07" rx="2.92" ry="2.88"/><ellipse id="SVGID-3" data-name="SVGID" class="cls-6" cx="16.5" cy="52.95" rx="2.92" ry="2.88"/><ellipse id="SVGID-4" data-name="SVGID" class="cls-7" cx="50.1" cy="64.87" rx="2.92" ry="2.88"/><ellipse id="SVGID-5" data-name="SVGID" class="cls-8" cx="35.62" cy="62.05" rx="2.92" ry="2.88"/><ellipse id="SVGID-6" data-name="SVGID" class="cls-9" cx="22.17" cy="56.4" rx="2.92" ry="2.88"/><path class="cls-10" d="M85,68.37c0-3.57-5.49-6.47-12.26-6.47s-12.49,2.9-12.49,6.47,5.71,6.48,12.49,6.48S85,72,85,68.37Z"/><path class="cls-11" d="M85,68.37c0-3.57-5.49-6.47-12.26-6.47s-12.49,2.9-12.49,6.47,5.71,6.48,12.49,6.48S85,72,85,68.37Z"/><path class="cls-12" d="M85,68.37c0-3.57-5.49-6.47-12.26-6.47s-12.49,2.9-12.49,6.47,5.71,6.48,12.49,6.48S85,72,85,68.37Z"/><path class="cls-13" d="M85.27,68c0,.4.07.8.07,1.2,0,6.7-5.72,12.13-12.78,12.13S59.79,75.9,59.79,69.2q0-.6.06-1.2Z"/><line class="cls-14" x1="59.83" y1="69.85" x2="85.29" y2="69.85"/><path class="cls-15" d="M38.67,6.52C37,15.23,37.53,23.33,38,32.18c.29,5.13.92,10.32-.13,15.35A5.56,5.56,0,0,1,36.09,51a5.81,5.81,0,0,1-2.71.86c-5.14.66-16.22-.72-22.19-1.57a2,2,0,0,1-1.6-2.88c1.43-3-7.36-12.65-3.91-39.68-.22.11,7.57,3.07,12.88,2.86C28.42,10.19,38.67,6.52,38.67,6.52Z"/><path d="M38.05,6.35a78.66,78.66,0,0,0-1.11,16c.12,5.46.61,10.89.84,16.34a36.2,36.2,0,0,1-.41,8.19A6.79,6.79,0,0,1,36.19,50a4.47,4.47,0,0,1-3,1.21,54.22,54.22,0,0,1-11.1-.3c-2.07-.19-4.14-.42-6.2-.67l-2.76-.36a5.9,5.9,0,0,1-2.48-.52,1.48,1.48,0,0,1-.36-1.9,2.51,2.51,0,0,0,.14-.66,5.28,5.28,0,0,0-.15-1.48c-.32-1.43-.86-2.82-1.32-4.21A67.59,67.59,0,0,1,7,34.46,74.18,74.18,0,0,1,5.89,11.62c.12-1.3.27-2.6.43-3.9.07-.58-.73-.81-1.09-.45-1.11,1.09,2.6,2,3.07,2.14a38.25,38.25,0,0,0,7.77,1.71,37.15,37.15,0,0,0,9.58-.66,83.38,83.38,0,0,0,8.86-2c1.45-.41,2.91-.84,4.33-1.35.77-.27.43-1.5-.34-1.23A74.4,74.4,0,0,1,27.85,8.76,53.61,53.61,0,0,1,18.24,10a27.35,27.35,0,0,1-7.4-1.12c-1.12-.3-2.24-.64-3.34-1L6.44,7.4a1.23,1.23,0,0,0-.24-.1c-.38-.09.06-.43.12.42l-.19.45h0L5,7.72A80.65,80.65,0,0,0,5.43,33a63.4,63.4,0,0,0,1.91,7.44C7.85,42,8.45,43.6,8.88,45.21c.07.26.13.53.18.8s0,0,0,.24,0,.23,0,.34,0,.18,0,.27c0-.22,0,.08,0,.16a.21.21,0,0,1,0,.11c.08-.24-.08.19-.1.25a2.63,2.63,0,0,0,1.54,3.36,11.32,11.32,0,0,0,2.59.44q3,.41,6,.74a87.67,87.67,0,0,0,12.23.72c1.85-.06,4.1-.12,5.53-1.44,1.76-1.63,2-4.65,2.16-6.87a57.73,57.73,0,0,0-.09-8.42c-.18-2.82-.36-5.64-.49-8.46a102.47,102.47,0,0,1,.25-16.62c.16-1.39.37-2.77.62-4.14C39.43,5.89,38.2,5.54,38.05,6.35Z"/><path class="cls-16" d="M51.85,6.52c1.63,8.71,1.14,16.81.65,25.66-.28,5.13-.92,10.32.14,15.35A5.47,5.47,0,0,0,54.44,51a5.77,5.77,0,0,0,2.71.86c5.13.66,16.21-.72,22.19-1.57a2,2,0,0,0,1.59-2.88c-1.43-3,7.37-12.65,3.91-39.68.22.11-7.57,3.07-12.88,2.86C62.1,10.19,51.85,6.52,51.85,6.52Z"/><path d="M51.24,6.69a78.89,78.89,0,0,1,1,16.6c-.08,2.85-.24,5.68-.4,8.52s-.41,5.62-.46,8.44a29.43,29.43,0,0,0,.76,8.1,5.81,5.81,0,0,0,1.51,2.85,5.63,5.63,0,0,0,3.17,1.25,51.51,51.51,0,0,0,11.44-.21q3.2-.3,6.38-.7l2.87-.37a10.35,10.35,0,0,0,2.6-.46,2.62,2.62,0,0,0,1.46-3.33c0-.08-.18-.49-.1-.23,0,0,0-.1-.05-.14s0-.3,0-.2,0-.17,0-.24,0-.21,0-.32,0,0,0-.24a33,33,0,0,1,1.26-4.14c.74-2.23,1.41-4.48,1.94-6.77a75.56,75.56,0,0,0,1.25-23.48c-.12-1.3-.27-2.6-.43-3.9l-1.09.45h0l-.18-.45c.05-.81.49-.54.15-.44a1.28,1.28,0,0,0-.24.11l-.79.3c-.92.33-1.85.63-2.8.9A31.28,31.28,0,0,1,73.1,9.94a43.66,43.66,0,0,1-9.39-1c-2.65-.49-5.28-1.12-7.87-1.86-1.28-.37-2.56-.75-3.82-1.2-.77-.27-1.1,1-.33,1.23A75.33,75.33,0,0,0,63.8,10.27a41.39,41.39,0,0,0,9.8.92,35.63,35.63,0,0,0,7.86-1.54c1-.3,2-.61,2.9-1,.49-.2,1.67-.67.93-1.39-.35-.35-1.16-.13-1.09.45a80.09,80.09,0,0,1-.27,24.63,64.57,64.57,0,0,1-1.85,7.37c-.51,1.6-1.1,3.17-1.56,4.78a5,5,0,0,0-.24,3,1.47,1.47,0,0,1-.36,1.9,5.85,5.85,0,0,1-2.47.52c-1.94.26-3.87.5-5.81.71a90.57,90.57,0,0,1-12,.75c-1.69,0-4.15.06-5.32-1.34a6.64,6.64,0,0,1-1.18-3.15,26.9,26.9,0,0,1-.44-4.11A77,77,0,0,1,53,34.59c.18-2.74.33-5.47.45-8.21a96.43,96.43,0,0,0-.36-16c-.16-1.34-.37-2.67-.61-4C52.32,5.54,51.09,5.88,51.24,6.69Z"/><rect class="cls-17" x="29.89" y="5.75" width="31.66" height="12.14"/><rect class="cls-17" x="29.89" y="9.2" width="31.66" height="5.23"/><path class="cls-18" d="M3.85,1.55C3.44,7.7,2.71,13.48.65,19.14c11.82,4.67,20.52,4.34,32.5,4.87.12-1.64,1.32-13.59,6.32-20.78C24.53,5.26,10.21,2.07,3.89.63"/><path d="M3.21,1.55A63.24,63.24,0,0,1,0,19a.65.65,0,0,0,.45.78,61.2,61.2,0,0,0,12.9,3.55,105.7,105.7,0,0,0,12.19,1.06c2.52.1,5.05.18,7.58.29a.65.65,0,0,0,.64-.64A51.66,51.66,0,0,1,37.26,8.79,27,27,0,0,1,40,3.55a.64.64,0,0,0-.55-1c-10,1.35-20.25.51-30.15-1.44C7.56.8,5.81.41,4.06,0c-.8-.18-1.14,1.05-.34,1.23A115.19,115.19,0,0,0,29.66,4.52a76.6,76.6,0,0,0,9.81-.65l-.55-1a33.25,33.25,0,0,0-4.33,9.78,61.7,61.7,0,0,0-1.8,8.83c-.12.83-.22,1.66-.28,2.49l.64-.63C24.79,23,16.37,23,8.21,20.94A63.8,63.8,0,0,1,.82,18.52l.44.79A64.64,64.64,0,0,0,4.49,1.55c0-.82-1.22-.81-1.28,0Z"/><path class="cls-19" d="M86.67,1.55c.42,6.15,1.14,11.93,3.21,17.59C78.05,23.81,69.35,23.48,57.38,24c-.13-1.64-1.33-13.59-6.33-20.78C66,5.26,80.31,2.07,86.64.63"/><path d="M86,1.55a64.62,64.62,0,0,0,3.22,17.76l.45-.79A61.08,61.08,0,0,1,77,22a103,103,0,0,1-12.16,1.05c-2.49.1-5,.18-7.47.29L58,24A52.84,52.84,0,0,0,54.42,8.28,27.23,27.23,0,0,0,51.6,2.91l-.55,1c10.13,1.35,20.43.48,30.42-1.48C83.25,2,85,1.65,86.8,1.25c.81-.18.47-1.41-.33-1.23A114.44,114.44,0,0,1,60.75,3.25a76.85,76.85,0,0,1-9.7-.66.64.64,0,0,0-.55,1,32.17,32.17,0,0,1,4.22,9.57,61.48,61.48,0,0,1,1.76,8.51c.1.79.2,1.59.26,2.38a.64.64,0,0,0,.64.64c8.43-.37,16.93-.36,25.16-2.46a59.82,59.82,0,0,0,7.51-2.44.64.64,0,0,0,.44-.78A63.61,63.61,0,0,1,87.31,1.55c0-.81-1.33-.82-1.27,0Z"/></symbol></defs><g id="Birds"><use width="223.24" height="112.4" transform="translate(37.34 142.83)" xlink:href="#Bird_Body_MASTER_1_8"/><use width="167.78" height="104.04" transform="translate(68.02 47.29) scale(0.96)" xlink:href="#Bird_Head_2_2"/><use width="90.52" height="160.76" transform="translate(106.09 139.65) scale(0.96)" xlink:href="#Bird_Body_MASTER_1_6"/></g></svg>