<?xml version="1.0" encoding="UTF-8"?><svg xmlns="http://www.w3.org/2000/svg" xmlns:xlink="http://www.w3.org/1999/xlink" viewBox="0 0 110 110"><defs><style>.e{fill:#f4f4f4;}.f{fill:url(#d);}.g{fill:#fff;stroke-linejoin:round;}.g,.h{stroke:#000;stroke-linecap:round;stroke-width:1.83px;}.h{fill:none;stroke-miterlimit:10;}</style><radialGradient id="d" cx="55" cy="55" fx="55" fy="55" r="55" gradientTransform="matrix(1, 0, 0, 1, 0, 0)" gradientUnits="userSpaceOnUse"><stop offset=".32" stop-color="#fefbdb"/><stop offset=".46" stop-color="#fbf6d4"/><stop offset=".65" stop-color="#f3eac3"/><stop offset=".87" stop-color="#e7d5a7"/><stop offset="1" stop-color="#dfc793"/></radialGradient></defs><g id="a"/><g id="b"><g id="c"><g><circle class="f" cx="55" cy="55" r="55"/><g><g><g><ellipse cx="35.25" cy="44.44" rx="8.02" ry="14.44"/><ellipse class="e" cx="36.44" cy="39.09" rx="3.86" ry="6.95"/></g><g><ellipse cx="75.26" cy="44.44" rx="8.02" ry="14.44"/><ellipse class="e" cx="76.45" cy="39.09" rx="3.86" ry="6.95"/></g></g><path class="h" d="M41.11,11.89c-6.34,1-11.94,3.51-16.61,7.22"/><path class="h" d="M68.89,11.89c6.34,1,11.94,3.51,16.61,7.22"/><path class="g" d="M53.89,101.11c-9.44,0-17.91-12.72-23.89-33.33,5.98,4.66,14.45,7.78,23.89,7.78,9.44,0,17.91-3.12,23.89-7.78-5.98,20.61-14.45,33.33-23.89,33.33Z"/></g></g></g></g></svg>