<?xml version="1.0" encoding="UTF-8"?><svg xmlns="http://www.w3.org/2000/svg" xmlns:xlink="http://www.w3.org/1999/xlink" viewBox="0 0 110 110"><defs><style>.e{fill:none;}.e,.f{stroke:#000;stroke-width:1.83px;}.e,.f,.g{stroke-linecap:round;stroke-linejoin:round;}.f,.g{fill:#fff;}.h{fill:url(#d);}.g{stroke:#fff;stroke-width:.92px;}</style><radialGradient id="d" cx="55" cy="55" fx="55" fy="55" r="55" gradientTransform="matrix(1, 0, 0, 1, 0, 0)" gradientUnits="userSpaceOnUse"><stop offset=".32" stop-color="#fefbdb"/><stop offset=".46" stop-color="#fbf6d4"/><stop offset=".65" stop-color="#f3eac3"/><stop offset=".87" stop-color="#e7d5a7"/><stop offset="1" stop-color="#dfc793"/></radialGradient></defs><g id="a"/><g id="b"><g id="c"><g><circle class="h" cx="55" cy="55" r="55"/><g><path class="e" d="M42.26,31.11c-5.5,8.34-12.55,13.94-20.6,16.87"/><path class="f" d="M39.35,35.89c-4.39,4.6-9.31,8.23-14.65,10.91-.23,.26-.37,.45-.4,.53-4.22,12.97-.05,21.06,6.34,22.69,8.45,2.16,13.94-4.55,15.63-14.53,1.53-9.03-1.52-17.25-6.92-19.59Z"/><path class="e" d="M64.41,31.11c5.5,8.34,12.55,13.94,20.6,16.87"/><path class="f" d="M67.31,35.89c4.39,4.6,9.31,8.23,14.65,10.91,.23,.26,.37,.45,.4,.53,4.22,12.97,.05,21.06-6.34,22.69-8.45,2.16-13.94-4.55-15.63-14.53-1.53-9.03,1.52-17.25,6.92-19.59Z"/><g><ellipse cx="37.51" cy="56.63" rx="3.7" ry="3.78"/><ellipse cx="69.16" cy="56.63" rx="3.7" ry="3.78"/></g><path class="g" d="M88.89,84.44c6.32,0,0-14.44,0-14.44,0,0-6.32,14.44,0,14.44Z"/></g></g></g></g></svg>