<?xml version="1.0" encoding="UTF-8"?><svg xmlns="http://www.w3.org/2000/svg" xmlns:xlink="http://www.w3.org/1999/xlink" viewBox="0 0 110 110"><defs><style>.e,.f{fill:#fff;}.g,.h{fill:none;}.g,.h,.f{stroke:#000;stroke-linecap:round;stroke-width:1.83px;}.g,.f{stroke-linejoin:round;}.h{stroke-miterlimit:10;}.i{fill:url(#d);}</style><radialGradient id="d" cx="55" cy="55" fx="55" fy="55" r="55" gradientTransform="matrix(1, 0, 0, 1, 0, 0)" gradientUnits="userSpaceOnUse"><stop offset=".32" stop-color="#fefbdb"/><stop offset=".46" stop-color="#fbf6d4"/><stop offset=".65" stop-color="#f3eac3"/><stop offset=".87" stop-color="#e7d5a7"/><stop offset="1" stop-color="#dfc793"/></radialGradient></defs><g id="a"/><g id="b"><g id="c"><g><circle class="i" cx="55" cy="55" r="55"/><g><path class="e" d="M63.33,90c-3.33-1.11-11.12-1.82-18.89,4.44-6.95,5.6-12.22,3.9-9.04-3.14,1.9-4.22,7.25-10.68,14.59-13.53,4.4-1.71,10-2.22,15.56-1.11l-2.22,13.33Z"/><ellipse class="f" cx="36.97" cy="45.51" rx="20.81" ry="11.91" transform="translate(-19.13 62.54) rotate(-67.79)"/><path class="h" d="M44.48,19.25c-4.78,5.99-10.67,10.17-17.26,12.55"/><path class="h" d="M72.76,19.61c4.03,6.52,9.38,11.38,15.63,14.53"/><ellipse class="f" cx="75.75" cy="46.62" rx="11.91" ry="20.81" transform="translate(-6.39 12.5) rotate(-9.06)"/><path class="g" d="M68.89,77.78c-17.78-5.56-30.44,6.78-33.48,13.53s2.09,8.74,9.04,3.14c7.76-6.26,15.53-5.28,21.04-4.39"/><path class="g" d="M35.92,90.27c10.94-7.61,25.09-7.02,28.1-7.14"/><line class="g" x1="65.56" y1="77.78" x2="63.33" y2="88.89"/><circle cx="40.56" cy="45" r="3.89"/><circle cx="73.89" cy="46.11" r="3.89"/></g></g></g></g></svg>