<?xml version="1.0" encoding="UTF-8"?><svg xmlns="http://www.w3.org/2000/svg" xmlns:xlink="http://www.w3.org/1999/xlink" viewBox="0 0 110 110"><defs><style>.e{fill:url(#d);}.f{fill:#fff;stroke:#000;stroke-linecap:round;stroke-linejoin:round;stroke-width:1.83px;}</style><radialGradient id="d" cx="55" cy="55" fx="55" fy="55" r="55" gradientTransform="matrix(1, 0, 0, 1, 0, 0)" gradientUnits="userSpaceOnUse"><stop offset=".32" stop-color="#fefbdb"/><stop offset=".46" stop-color="#fbf6d4"/><stop offset=".65" stop-color="#f3eac3"/><stop offset=".87" stop-color="#e7d5a7"/><stop offset="1" stop-color="#dfc793"/></radialGradient></defs><g id="a"/><g id="b"><g id="c"><g><circle class="e" cx="55" cy="55" r="55"/><g><path class="f" d="M12.91,46.69c1.03,6.69,9.57,11.9,19.95,11.9s18.92-5.22,19.95-11.9H12.91Z"/><path d="M40.55,47.61c-.04,.23-.06,.46-.06,.7,0,2.34,1.83,4.24,4.1,4.24s4.1-1.9,4.1-4.24c0-.24-.02-.47-.06-.7h-8.07Z"/><path class="f" d="M57.19,46.69c1.03,6.69,9.57,11.9,19.95,11.9s18.92-5.22,19.95-11.9H57.19Z"/><path d="M85.42,47.61c-.04,.23-.06,.46-.06,.7,0,2.34,1.83,4.24,4.1,4.24s4.1-1.9,4.1-4.24c0-.24-.02-.47-.06-.7h-8.07Z"/></g></g></g></g></svg>