<?xml version="1.0" encoding="UTF-8"?><svg xmlns="http://www.w3.org/2000/svg" xmlns:xlink="http://www.w3.org/1999/xlink" viewBox="0 0 110 110"><defs><style>.e,.f{fill:#fff;}.g{fill:url(#d);}.f,.h{stroke-linejoin:round;}.f,.h,.i{stroke:#000;stroke-linecap:round;stroke-width:1.83px;}.h,.i{fill:none;}.i{stroke-miterlimit:10;}</style><radialGradient id="d" cx="55" cy="55" fx="55" fy="55" r="55" gradientTransform="matrix(1, 0, 0, 1, 0, 0)" gradientUnits="userSpaceOnUse"><stop offset=".32" stop-color="#fefbdb"/><stop offset=".46" stop-color="#fbf6d4"/><stop offset=".65" stop-color="#f3eac3"/><stop offset=".87" stop-color="#e7d5a7"/><stop offset="1" stop-color="#dfc793"/></radialGradient></defs><g id="a"/><g id="b"><g id="c"><g><circle class="g" cx="55" cy="55" r="55"/><path class="f" d="M55.71,81.92c-9.44,0-17.91-4.35-23.89-11.39,5.98,1.59,14.45,2.66,23.89,2.66,15.98,0,21.91-3.81,27.89-5.4-5.98,7.04-14.65,14.14-27.89,14.14Z"/><g><g><path class="e" d="M47.2,47.85c0,.06,0,.13,0,.19,.15,3.5-1.69,8.36-6.65,12.07-7.06,5.3-31.13,4.58-18.31-27.47,0,0,1.26-.65,5.02,1.4s7.38,8.13,11.25,10.13c3.86,2.01,5.26,3.82,6.45,3.54l1.2-.27"/><path class="h" d="M47.2,47.85c.2,3.56-2.06,15.01-16.52,14.32-8.4-.4-18.76-10.95-9.01-29.37"/><ellipse cx="40.68" cy="50.63" rx="4.03" ry="4.12"/><path class="i" d="M13,32.39s9.22-2.59,14.27,1.66c5.96,5.01,8.71,8.67,12.28,10.92,2.53,1.59,5.3,2.82,7.62,2.75,3.1-.09,5.17-2.15,3.57-6.94"/></g><g><path class="e" d="M62.8,47.85c0,.06,0,.13,0,.19-.15,3.5,1.69,8.36,6.65,12.07,7.06,5.3,31.13,4.58,18.31-27.47,0,0-1.26-.65-5.02,1.4-3.76,2.05-7.38,8.13-11.25,10.13-3.86,2.01-5.26,3.82-6.45,3.54l-1.2-.27"/><path class="h" d="M62.8,47.85c-.2,3.56,2.06,15.01,16.52,14.32,8.4-.4,18.76-10.95,9.01-29.37"/><ellipse cx="69.32" cy="50.63" rx="4.03" ry="4.12"/><path class="i" d="M97,32.39s-9.22-2.59-14.27,1.66c-5.96,5.01-8.71,8.67-12.28,10.92-2.53,1.59-5.3,2.82-7.62,2.75-3.1-.09-5.17-2.15-3.57-6.94"/></g></g></g></g></g></svg>