<?xml version="1.0" encoding="UTF-8"?><svg id="Layer_2" xmlns="http://www.w3.org/2000/svg" viewBox="0 0 77.45 377.06"><defs><style>.cls-1{fill:#fff;}.cls-2{fill:aqua;}.cls-3{fill:#29abe2;}</style></defs><g id="Layer_1-2"><g id="ROCKET_FIRE_MOVE_DOWN"><path class="cls-1" d="M19.8,57.14S-11.34,106.85,4.49,201.49s34.24,175.57,34.24,175.57c0,0,18.41-80.92,34.24-175.57S57.65,57.14,57.65,57.14L38.17,0,19.8,57.14Z"/><path class="cls-3" d="M23.13,62.41S-2.55,104.41,10.5,184.41s28.23,131.31,28.23,131.31c0,0,15.19-51.31,28.23-131.31s-12.62-122-12.62-122L38.28,14.1l-15.15,48.31Z"/><path class="cls-2" d="M28.1,46.97c-3.42,13.29-8.37,41.66-3.74,84.11,6.64,60.86,14.37,93.59,14.37,93.59,0,0,7.73-32.73,14.36-93.59,4.64-42.45-.32-70.82-3.74-84.11H28.1Z"/></g></g></svg>