<svg xmlns="http://www.w3.org/2000/svg" xmlns:xlink="http://www.w3.org/1999/xlink" viewBox="0 0 1920 1920"><defs><style>.cls-1,.cls-8{fill:none;}.cls-2{clip-path:url(#clip-path);}.cls-3{fill:url(#linear-gradient);}.cls-4{fill:#e6e6e6;}.cls-5,.cls-8{stroke:#000;stroke-linecap:round;stroke-miterlimit:10;stroke-width:2.03px;}.cls-6{fill:url(#radial-gradient);}.cls-7{fill:#f4f4f4;}</style><clipPath id="clip-path"><rect class="cls-1" x="0.42" y="-1963.03" width="1917.92" height="1917.92"/></clipPath><linearGradient id="linear-gradient" x1="1004.49" y1="721.94" x2="1004.49" y2="-1538.96" gradientUnits="userSpaceOnUse"><stop offset="0.39" stop-color="#006900"/><stop offset="0.43" stop-color="#025e06"/><stop offset="0.57" stop-color="#074116"/><stop offset="0.7" stop-color="#0b2b22"/><stop offset="0.83" stop-color="#0d1e29"/><stop offset="0.96" stop-color="#0e1a2b"/></linearGradient><radialGradient id="radial-gradient" cx="1010.91" cy="557.58" r="130.6" gradientTransform="translate(77.17 19.47)" gradientUnits="userSpaceOnUse"><stop offset="0.48" stop-color="#fff"/><stop offset="0.99" stop-color="#ccc"/></radialGradient></defs><g id="MTNS_TREES" data-name="MTNS + TREES"><g class="cls-2"><polygon class="cls-3" points="2503.56 -50.49 1893.55 -588.11 1873.11 -567.7 1798.82 -637.05 1775.03 -616.15 1769.63 -624.64 1679.31 -540.9 1669.63 -548.82 1564.08 -441.61 1081.13 -946.53 1053.57 -908.72 953.36 -1037.19 921.27 -998.48 913.99 -1014.21 776.35 -853.86 759.83 -867.2 443.35 -486.78 420.37 -503.92 360.79 -439.83 239.77 -557.88 234.84 -551.25 152.44 -623.18 143.35 -615.59 119.56 -637.05 45.27 -565.84 24.83 -586.8 -494.59 -39.63 -11.28 -39.63 -45.35 -2.98 1990.83 4.56 1938.74 -49.9 2503.56 -50.49"/></g></g><g id="TITLE_v1"><path d="M949.08,674.07q0,11.85-4.48,17.55T930.31,703a83.59,83.59,0,0,1-13.87,6.12,139.29,139.29,0,0,1-18.16,4.9q-10,2-20.81,3.27a191.76,191.76,0,0,1-21.42,1.22A188.45,188.45,0,0,1,801.57,711a120.64,120.64,0,0,1-43.87-23.46q-18.76-15.91-29.38-40.4t-10.61-58.76q0-32.22,10.82-56.92t29.38-41.21a123.53,123.53,0,0,1,43.66-24.89A170.13,170.13,0,0,1,855.64,457q38,0,60.39,11.84T938.47,499a28.54,28.54,0,0,1-4.89,16.53,39,39,0,0,1-11.43,11.22,135.8,135.8,0,0,0-25.5-12.24q-15.3-5.71-36.12-5.72a85,85,0,0,0-31.21,5.51A70.12,70.12,0,0,0,805,530a71.29,71.29,0,0,0-15.92,24.89q-5.72,14.7-5.71,33.06,0,20,5.51,34.88a67.24,67.24,0,0,0,15.3,24.69,62.53,62.53,0,0,0,23.47,14.69,87.18,87.18,0,0,0,29.58,4.9,71.48,71.48,0,0,0,17.75-2A77.27,77.27,0,0,0,887.47,661v-46.1H840.54a49.81,49.81,0,0,1-4.49-10.61,46.27,46.27,0,0,1-2-13.88q0-13,6.12-19.17t15.92-6.13H924.6q11.42,0,17.95,6.33t6.53,17.75Z"/><path class="cls-4" d="M937.52,661.35q0,11.83-4.48,17.54t-14.29,11.43a83.59,83.59,0,0,1-13.87,6.12,140.94,140.94,0,0,1-18.16,4.89q-10,2-20.81,3.27a191.76,191.76,0,0,1-21.42,1.22A188.45,188.45,0,0,1,790,698.27a120.64,120.64,0,0,1-43.87-23.46q-18.76-15.91-29.38-40.4t-10.61-58.75q0-32.24,10.82-56.93t29.38-41.21A123.53,123.53,0,0,1,790,452.63a170.13,170.13,0,0,1,54.07-8.36q37.95,0,60.39,11.83t22.45,30.19a28.53,28.53,0,0,1-4.9,16.53A38.91,38.91,0,0,1,910.59,514a135.8,135.8,0,0,0-25.5-12.24q-15.3-5.71-36.11-5.71a84.83,84.83,0,0,0-31.22,5.51,69.84,69.84,0,0,0-24.28,15.71,71.1,71.1,0,0,0-15.92,24.89q-5.71,14.68-5.71,33,0,20,5.51,34.89a67.28,67.28,0,0,0,15.3,24.68,62.41,62.41,0,0,0,23.47,14.69,86.93,86.93,0,0,0,29.58,4.9,71.48,71.48,0,0,0,17.75-2,78.42,78.42,0,0,0,12.45-4.08V602.18H829a49.81,49.81,0,0,1-4.49-10.61,46.26,46.26,0,0,1-2-13.87q0-13.07,6.12-19.18t15.92-6.12H913q11.41,0,18,6.32t6.52,17.75Z"/><path d="M832.11,378v38.6a23.89,23.89,0,0,1-3.8.82,36.5,36.5,0,0,1-5.29.37q-5.65,0-8-2t-2.31-7.08V326.31c.79-.2,2.06-.45,3.8-.75a30.18,30.18,0,0,1,5.14-.45q5.37,0,7.9,1.94c1.69,1.29,2.53,3.68,2.53,7.15v30.7l35.77-39.34q7.15,0,10.36,2.83a8.68,8.68,0,0,1,3.2,6.71,10.21,10.21,0,0,1-1.56,5.59,34.3,34.3,0,0,1-4.7,5.59l-25.18,25q11.63,11.93,20.42,21.31t14.9,15.06a10.26,10.26,0,0,1-3.21,7.67,10.59,10.59,0,0,1-7.37,2.76,11.57,11.57,0,0,1-7.31-2.31,52.37,52.37,0,0,1-5.81-5.29Z"/><path d="M910.5,417.81c-3.77,0-6.46-.7-8-2.09s-2.39-3.72-2.39-7V326.31c.9-.2,2.19-.45,3.88-.75a28.84,28.84,0,0,1,5.06-.45q5.37,0,7.9,1.94c1.69,1.29,2.54,3.68,2.54,7.15v82.42c-.9.2-2.16.45-3.8.74A28.61,28.61,0,0,1,910.5,417.81Z"/><path d="M1021.83,371a58.16,58.16,0,0,1-3.5,21.08,39,39,0,0,1-9.91,14.91A41.78,41.78,0,0,1,993,415.87a63.5,63.5,0,0,1-20,3c-1.69,0-3.53,0-5.51-.07s-4.05-.2-6.19-.45-4.27-.57-6.41-1a35.49,35.49,0,0,1-6-1.64c-4.77-1.78-7.16-4.77-7.16-8.94v-73a5.64,5.64,0,0,1,1.49-4.17,10.46,10.46,0,0,1,4.18-2.39,47.65,47.65,0,0,1,12-2.46c4.33-.35,8.42-.52,12.3-.52a68.46,68.46,0,0,1,20.49,2.91,42.7,42.7,0,0,1,15.87,8.71,39.36,39.36,0,0,1,10.21,14.61A53.26,53.26,0,0,1,1021.83,371Zm-19.82.14a39.25,39.25,0,0,0-2.23-13.93,26.16,26.16,0,0,0-6.19-9.69,25,25,0,0,0-9.39-5.66A36.44,36.44,0,0,0,972.35,340q-3.42,0-6.18.22c-1.84.15-3.6.32-5.29.52V402a36,36,0,0,0,5.74.82q3.2.23,6.33.23,13.86,0,21.46-8.05T1002,371.16Z"/><path d="M1045.08,355.22a8.21,8.21,0,0,1-7.6,4.47,14.9,14.9,0,0,1-7.45-1.94q.45-3.57,1-7.82t1-8.65c.3-2.93.57-5.78.82-8.57s.42-5.36.52-7.75a25.12,25.12,0,0,1,4.1-1.56,17.15,17.15,0,0,1,4.84-.67,12.05,12.05,0,0,1,6.48,1.71q2.76,1.72,2.76,6a36.38,36.38,0,0,1-.6,6q-.59,3.51-1.49,7a61.3,61.3,0,0,1-2.08,6.63A43.74,43.74,0,0,1,1045.08,355.22Z"/><path d="M1092.32,403.21q8.65,0,12.67-3.36a10.51,10.51,0,0,0,4-8.42,9.34,9.34,0,0,0-3.13-7.37q-3.14-2.76-9.54-4.7l-9.54-3a75.49,75.49,0,0,1-10.28-4,31.87,31.87,0,0,1-7.9-5.29,21.25,21.25,0,0,1-5.07-7.16,24.3,24.3,0,0,1-1.79-9.76q0-12.07,9.09-19.15t24.89-7.08a64.81,64.81,0,0,1,11.55,1,41.44,41.44,0,0,1,9.17,2.68,16.66,16.66,0,0,1,6,4.25,8.52,8.52,0,0,1,2.16,5.66,9.22,9.22,0,0,1-1.41,5.15,11.91,11.91,0,0,1-3.5,3.5,34.33,34.33,0,0,0-9.47-4.4,42.57,42.57,0,0,0-12.89-1.86q-7.76,0-11.77,2.76a8.63,8.63,0,0,0-4,7.52,7,7,0,0,0,2.76,6,30.62,30.62,0,0,0,8.72,4l8.49,2.68q13,3.87,20.12,10.58t7.16,18.18a25.92,25.92,0,0,1-2.39,11.18,24.47,24.47,0,0,1-6.93,8.72,32.76,32.76,0,0,1-11.32,5.66,54.39,54.39,0,0,1-15.43,2,62.26,62.26,0,0,1-12.59-1.19,43.22,43.22,0,0,1-9.91-3.2,19.18,19.18,0,0,1-6.49-4.77,9.2,9.2,0,0,1-2.31-6,9,9,0,0,1,2-5.89,12.71,12.71,0,0,1,4.69-3.65,39.13,39.13,0,0,0,9.84,6A34.45,34.45,0,0,0,1092.32,403.21Z"/><path class="cls-4" d="M821.4,369.92v38.6a25.35,25.35,0,0,1-3.8.82,36.6,36.6,0,0,1-5.29.37q-5.67,0-8-2T802,400.62V318.2c.8-.19,2.06-.44,3.8-.74A30.18,30.18,0,0,1,811,317q5.37,0,7.9,1.94c1.69,1.29,2.54,3.68,2.54,7.15v30.7l35.77-39.34c4.76,0,8.22,1,10.35,2.83a8.69,8.69,0,0,1,3.21,6.71,10.15,10.15,0,0,1-1.57,5.59,34.25,34.25,0,0,1-4.69,5.58l-25.19,25q11.63,11.93,20.42,21.31t14.9,15.05a10.29,10.29,0,0,1-3.2,7.68A10.63,10.63,0,0,1,864,410a11.56,11.56,0,0,1-7.3-2.31,50.64,50.64,0,0,1-5.81-5.29Z"/><path class="cls-4" d="M899.79,409.71q-5.67,0-8-2.09t-2.38-7V318.2c.89-.19,2.18-.44,3.87-.74a29,29,0,0,1,5.07-.45c3.57,0,6.21.65,7.9,1.94s2.53,3.68,2.53,7.15v82.42c-.89.19-2.16.44-3.8.74A28.5,28.5,0,0,1,899.79,409.71Z"/><path class="cls-4" d="M1011.12,362.91a58,58,0,0,1-3.51,21.09,39,39,0,0,1-9.91,14.9,41.7,41.7,0,0,1-15.42,8.87,63.52,63.52,0,0,1-20,3c-1.69,0-3.52,0-5.51-.07s-4.05-.2-6.19-.45-4.27-.57-6.4-1a36.83,36.83,0,0,1-6-1.64q-7.15-2.69-7.15-8.94v-73a5.64,5.64,0,0,1,1.49-4.18,10.53,10.53,0,0,1,4.17-2.38,47.64,47.64,0,0,1,12-2.46q6.48-.52,12.29-.52a68.78,68.78,0,0,1,20.49,2.9,43,43,0,0,1,15.88,8.72,39.48,39.48,0,0,1,10.21,14.61A53.43,53.43,0,0,1,1011.12,362.91Zm-19.82.15a39.2,39.2,0,0,0-2.24-13.93,25.87,25.87,0,0,0-6.19-9.69,25.06,25.06,0,0,0-9.38-5.66,36.44,36.44,0,0,0-11.85-1.86q-3.43,0-6.19.22c-1.84.15-3.6.32-5.29.52v61.25a36,36,0,0,0,5.74.82c2.13.15,4.25.22,6.33.22q13.86,0,21.46-8T991.3,363.06Z"/><path class="cls-4" d="M1034.37,347.12a8.22,8.22,0,0,1-7.6,4.47,14.93,14.93,0,0,1-7.46-1.94q.45-3.57,1-7.82t1-8.65c.3-2.93.57-5.78.82-8.57s.42-5.36.52-7.75a25.12,25.12,0,0,1,4.1-1.56,17.15,17.15,0,0,1,4.84-.67,12.06,12.06,0,0,1,6.49,1.71q2.74,1.73,2.75,6a37.35,37.35,0,0,1-.59,6c-.4,2.34-.9,4.67-1.49,7a61.3,61.3,0,0,1-2.09,6.63A43.91,43.91,0,0,1,1034.37,347.12Z"/><path class="cls-4" d="M1081.61,395.1q8.64,0,12.67-3.35a10.5,10.5,0,0,0,4-8.42,9.34,9.34,0,0,0-3.13-7.38q-3.14-2.74-9.54-4.69l-9.54-3a75.2,75.2,0,0,1-10.28-4,31.79,31.79,0,0,1-7.9-5.29,21.35,21.35,0,0,1-5.07-7.15,24.3,24.3,0,0,1-1.78-9.76q0-12.07,9.09-19.15t24.89-7.08a63.9,63.9,0,0,1,11.55,1,41.34,41.34,0,0,1,9.16,2.68,16.59,16.59,0,0,1,6,4.25,8.52,8.52,0,0,1,2.16,5.66,9.11,9.11,0,0,1-1.42,5.14A11.83,11.83,0,0,1,1109,338a34.25,34.25,0,0,0-9.46-4.4,42.69,42.69,0,0,0-12.9-1.86q-7.74,0-11.77,2.75a8.67,8.67,0,0,0-4,7.53,7,7,0,0,0,2.75,6,30.79,30.79,0,0,0,8.72,4l8.5,2.69q13,3.87,20.12,10.58t7.15,18.18a26.09,26.09,0,0,1-2.38,11.18,24.47,24.47,0,0,1-6.93,8.72,32.9,32.9,0,0,1-11.33,5.66,54.3,54.3,0,0,1-15.43,2,62.26,62.26,0,0,1-12.59-1.19,43.37,43.37,0,0,1-9.91-3.21,19.1,19.1,0,0,1-6.48-4.77,9.16,9.16,0,0,1-2.31-6,9,9,0,0,1,2-5.89,12.79,12.79,0,0,1,4.69-3.65,39.49,39.49,0,0,0,9.84,6A34.47,34.47,0,0,0,1081.61,395.1Z"/><path d="M778.69,763.94a5.44,5.44,0,0,0,3.53-.94,2.91,2.91,0,0,0,1.12-2.35,2.6,2.6,0,0,0-.87-2,7.07,7.07,0,0,0-2.66-1.31l-2.66-.83a22,22,0,0,1-2.87-1.13,8.62,8.62,0,0,1-2.2-1.47,6,6,0,0,1-1.42-2,6.78,6.78,0,0,1-.49-2.72,6.42,6.42,0,0,1,2.53-5.34,11.07,11.07,0,0,1,6.94-2,17.83,17.83,0,0,1,3.22.27,11.28,11.28,0,0,1,2.56.75A4.5,4.5,0,0,1,787.1,744a2.39,2.39,0,0,1,.61,1.58,2.58,2.58,0,0,1-.4,1.43,3.16,3.16,0,0,1-1,1,9.58,9.58,0,0,0-2.64-1.23,12,12,0,0,0-3.59-.52,5.8,5.8,0,0,0-3.28.77,2.44,2.44,0,0,0-1.13,2.1,2,2,0,0,0,.77,1.66,8.68,8.68,0,0,0,2.43,1.13l2.37.74a14,14,0,0,1,5.61,3,6.6,6.6,0,0,1,2,5.07,7.12,7.12,0,0,1-.67,3.11,6.66,6.66,0,0,1-1.93,2.43,9,9,0,0,1-3.16,1.58,14.89,14.89,0,0,1-4.3.56,17.45,17.45,0,0,1-3.51-.33,11.94,11.94,0,0,1-2.76-.89,5.42,5.42,0,0,1-1.81-1.33,2.6,2.6,0,0,1-.09-3.33,3.62,3.62,0,0,1,1.31-1,11,11,0,0,0,2.75,1.68A9.63,9.63,0,0,0,778.69,763.94Z"/><path d="M846.37,767a2.9,2.9,0,0,1-.77-2.12V745.36a2.66,2.66,0,0,1,2.87-2.87h13.76a4.15,4.15,0,0,1,.37.88,4.09,4.09,0,0,1,.17,1.2,2.47,2.47,0,0,1-.5,1.66,1.71,1.71,0,0,1-1.37.58H850.84v5.91H861a4,4,0,0,1,.39.85,3.32,3.32,0,0,1,.19,1.18c0,1.5-.64,2.25-1.91,2.25h-8.81v6.44h11.55a4.46,4.46,0,0,1,.4.89,4.06,4.06,0,0,1,.18,1.23c0,1.49-.63,2.24-1.91,2.24H848.47A2.77,2.77,0,0,1,846.37,767Z"/><path d="M925.4,767.68l-1.06.21a8.61,8.61,0,0,1-1.48.12,3.3,3.3,0,0,1-2.22-.58,2.53,2.53,0,0,1-.64-1.95V744.61a1.6,1.6,0,0,1,.41-1.2,3,3,0,0,1,1.17-.67,14.13,14.13,0,0,1,3.13-.64,34.82,34.82,0,0,1,3.72-.19q5.49,0,8.23,2.27A8.36,8.36,0,0,1,938,755a8.68,8.68,0,0,1-3.78,3c1.22,1.58,2.39,3.09,3.51,4.51s2,2.54,2.52,3.35a3.11,3.11,0,0,1-1.17,1.68,3,3,0,0,1-1.82.6,3,3,0,0,1-2-.58,7.3,7.3,0,0,1-1.35-1.58l-4.7-7H925.4Zm3.32-13a6.39,6.39,0,0,0,3.81-1,3.66,3.66,0,0,0,1.43-3.16q0-4.2-5.61-4.2a13.78,13.78,0,0,0-1.6.09l-1.43.16v8.15Z"/><path d="M1009.27,767.14a4.25,4.25,0,0,1-1.33.62,6.64,6.64,0,0,1-2,.29,6.17,6.17,0,0,1-2.25-.37,2.25,2.25,0,0,1-1.29-1.08c-.33-.67-.72-1.54-1.18-2.62s-.94-2.28-1.45-3.6-1-2.71-1.56-4.19-1.05-3-1.56-4.45-1-2.92-1.44-4.32-.81-2.7-1.12-3.89a3.93,3.93,0,0,1,1.23-.83,4.15,4.15,0,0,1,1.76-.37,2.79,2.79,0,0,1,1.81.52,3.71,3.71,0,0,1,1.06,1.76q1.45,4.67,2.89,9.06c1,2.94,2,6,3.06,9h.2q.75-2.12,1.52-4.53c.51-1.61,1-3.26,1.52-5s1-3.42,1.47-5.15.94-3.44,1.35-5.13a5.26,5.26,0,0,1,2.54-.58,3.35,3.35,0,0,1,1.93.52,1.92,1.92,0,0,1,.77,1.72,11.09,11.09,0,0,1-.46,2.49c-.3,1.17-.69,2.49-1.16,4s-1,3.06-1.6,4.72-1.19,3.25-1.79,4.76-1.15,2.85-1.66,4A24.62,24.62,0,0,1,1009.27,767.14Z"/><path d="M1074.34,767a2.86,2.86,0,0,1-.77-2.12V745.36a2.8,2.8,0,0,1,.77-2.1,2.84,2.84,0,0,1,2.1-.77h13.75a3.67,3.67,0,0,1,.38.88,4.1,4.1,0,0,1,.16,1.2,2.42,2.42,0,0,1-.5,1.66,1.7,1.7,0,0,1-1.37.58H1078.8v5.91H1089a4.58,4.58,0,0,1,.39.85,3.32,3.32,0,0,1,.19,1.18c0,1.5-.64,2.25-1.91,2.25h-8.82v6.44h11.56a4,4,0,0,1,.39.89,3.78,3.78,0,0,1,.19,1.23c0,1.49-.64,2.24-1.91,2.24h-12.59A2.77,2.77,0,0,1,1074.34,767Z"/><path d="M1153.37,767.68l-1.06.21a8.61,8.61,0,0,1-1.48.12,3.3,3.3,0,0,1-2.22-.58,2.53,2.53,0,0,1-.65-1.95V744.61a1.61,1.61,0,0,1,.42-1.2,2.94,2.94,0,0,1,1.16-.67,14.35,14.35,0,0,1,3.14-.64,34.82,34.82,0,0,1,3.72-.19q5.49,0,8.23,2.27A8.39,8.39,0,0,1,1166,755a8.68,8.68,0,0,1-3.78,3c1.22,1.58,2.39,3.09,3.51,4.51s2,2.54,2.52,3.35a3.16,3.16,0,0,1-1.17,1.68,3,3,0,0,1-1.83.6,3,3,0,0,1-2-.58,7.3,7.3,0,0,1-1.35-1.58l-4.7-7h-3.86Zm3.32-13a6.34,6.34,0,0,0,3.8-1,3.64,3.64,0,0,0,1.44-3.16q0-4.2-5.61-4.2a13.66,13.66,0,0,0-1.6.09l-1.44.16v8.15Z"/><path class="cls-4" d="M773.62,759.62a5.45,5.45,0,0,0,3.54-.94,2.91,2.91,0,0,0,1.12-2.34,2.61,2.61,0,0,0-.87-2.06,7.31,7.31,0,0,0-2.66-1.31l-2.66-.83a21.48,21.48,0,0,1-2.87-1.12,8.73,8.73,0,0,1-2.2-1.48,6.1,6.1,0,0,1-1.42-2,6.86,6.86,0,0,1-.5-2.73,6.43,6.43,0,0,1,2.54-5.34,11.05,11.05,0,0,1,6.94-2,17.91,17.91,0,0,1,3.22.27,11.43,11.43,0,0,1,2.56.75,4.62,4.62,0,0,1,1.68,1.18,2.38,2.38,0,0,1,.6,1.58,2.55,2.55,0,0,1-.39,1.43,3.27,3.27,0,0,1-1,1,9.3,9.3,0,0,0-2.64-1.22A11.71,11.71,0,0,0,775,742a5.86,5.86,0,0,0-3.29.76,2.45,2.45,0,0,0-1.12,2.1,2,2,0,0,0,.77,1.67,8.71,8.71,0,0,0,2.43,1.12l2.37.75a13.87,13.87,0,0,1,5.61,2.95,6.6,6.6,0,0,1,2,5.07,7.26,7.26,0,0,1-.67,3.11,6.79,6.79,0,0,1-1.93,2.44,9.26,9.26,0,0,1-3.16,1.57,14.88,14.88,0,0,1-4.3.57,17.27,17.27,0,0,1-3.51-.34,12.19,12.19,0,0,1-2.77-.89,5.25,5.25,0,0,1-1.8-1.33,2.55,2.55,0,0,1-.65-1.68,2.51,2.51,0,0,1,.56-1.64,3.54,3.54,0,0,1,1.31-1,10.92,10.92,0,0,0,2.74,1.68A9.69,9.69,0,0,0,773.62,759.62Z"/><path class="cls-4" d="M841.31,762.69a2.86,2.86,0,0,1-.77-2.12V741a2.66,2.66,0,0,1,2.87-2.87h13.75a3.86,3.86,0,0,1,.38.88,4.1,4.1,0,0,1,.16,1.2,2.42,2.42,0,0,1-.5,1.66,1.69,1.69,0,0,1-1.37.59H845.78v5.9h10.14a4.58,4.58,0,0,1,.39.85,3.36,3.36,0,0,1,.19,1.18c0,1.5-.64,2.25-1.91,2.25h-8.81v6.44h11.55a4,4,0,0,1,.39.89,3.78,3.78,0,0,1,.19,1.23c0,1.5-.64,2.24-1.91,2.24H843.41A2.77,2.77,0,0,1,841.31,762.69Z"/><path class="cls-4" d="M920.34,763.36l-1.06.21a8.61,8.61,0,0,1-1.48.12,3.3,3.3,0,0,1-2.22-.58,2.53,2.53,0,0,1-.65-2V740.29a1.62,1.62,0,0,1,.42-1.2,2.94,2.94,0,0,1,1.16-.67,14.35,14.35,0,0,1,3.14-.64,34.82,34.82,0,0,1,3.72-.19q5.49,0,8.23,2.27a8.39,8.39,0,0,1,1.37,10.8,8.68,8.68,0,0,1-3.78,3c1.22,1.58,2.39,3.09,3.51,4.51s2,2.55,2.52,3.35a3.16,3.16,0,0,1-1.17,1.68,3,3,0,0,1-1.83.6,3,3,0,0,1-2-.58,7.07,7.07,0,0,1-1.35-1.58l-4.7-7h-3.86Zm3.32-13a6.39,6.39,0,0,0,3.81-1,3.65,3.65,0,0,0,1.43-3.16q0-4.18-5.61-4.19a13.71,13.71,0,0,0-1.6.08c-.52.05-1,.11-1.44.17v8.14Z"/><path class="cls-4" d="M1004.21,762.82a4.25,4.25,0,0,1-1.33.62,6.36,6.36,0,0,1-2,.29,6.15,6.15,0,0,1-2.24-.37,2.22,2.22,0,0,1-1.29-1.08c-.33-.67-.73-1.54-1.18-2.62s-.94-2.28-1.46-3.59-1-2.72-1.56-4.2-1-3-1.55-4.45-1-2.92-1.44-4.32-.82-2.7-1.12-3.89a3.93,3.93,0,0,1,1.23-.83A4.11,4.11,0,0,1,992,738a2.79,2.79,0,0,1,1.81.52,3.71,3.71,0,0,1,1.06,1.76q1.46,4.66,2.89,9.06t3.05,9h.21q.75-2.11,1.52-4.53c.51-1.6,1-3.26,1.52-5s1-3.43,1.47-5.16.94-3.44,1.35-5.13a5.26,5.26,0,0,1,2.54-.58,3.35,3.35,0,0,1,1.93.52,1.92,1.92,0,0,1,.77,1.72,11.24,11.24,0,0,1-.46,2.5c-.3,1.16-.69,2.48-1.16,4s-1,3.06-1.6,4.72-1.19,3.25-1.79,4.76-1.15,2.85-1.66,4A25.66,25.66,0,0,1,1004.21,762.82Z"/><path class="cls-4" d="M1069.27,762.69a2.9,2.9,0,0,1-.76-2.12V741a2.65,2.65,0,0,1,2.86-2.87h13.76a3.88,3.88,0,0,1,.37.88,3.78,3.78,0,0,1,.17,1.2,2.47,2.47,0,0,1-.5,1.66,1.71,1.71,0,0,1-1.37.59h-10.06v5.9h10.14a4.54,4.54,0,0,1,.4.85,3.6,3.6,0,0,1,.19,1.18q0,2.25-1.92,2.25h-8.81v6.44h11.56a4,4,0,0,1,.39.89,3.78,3.78,0,0,1,.19,1.23c0,1.5-.64,2.24-1.91,2.24h-12.6A2.8,2.8,0,0,1,1069.27,762.69Z"/><path class="cls-4" d="M1148.3,763.36l-1.06.21a8.41,8.41,0,0,1-1.47.12,3.29,3.29,0,0,1-2.22-.58,2.53,2.53,0,0,1-.65-2V740.29a1.62,1.62,0,0,1,.42-1.2,2.87,2.87,0,0,1,1.16-.67,14.23,14.23,0,0,1,3.14-.64,34.55,34.55,0,0,1,3.72-.19q5.49,0,8.23,2.27a8.39,8.39,0,0,1,1.37,10.8,8.74,8.74,0,0,1-3.78,3c1.22,1.58,2.39,3.09,3.51,4.51s2,2.55,2.51,3.35a3.15,3.15,0,0,1-1.16,1.68,3,3,0,0,1-1.83.6,2.93,2.93,0,0,1-2-.58,7.07,7.07,0,0,1-1.35-1.58l-4.7-7h-3.87Zm3.33-13a6.34,6.34,0,0,0,3.8-1,3.63,3.63,0,0,0,1.44-3.16q0-4.18-5.61-4.19a13.71,13.71,0,0,0-1.6.08c-.52.05-1,.11-1.44.17v8.14Z"/><ellipse id="SVGID" cx="1095.73" cy="584.27" rx="129.95" ry="129.95"/><ellipse cx="1050.29" cy="574.29" rx="18.23" ry="32.82"/><ellipse cx="1052.99" cy="562.13" rx="8.78" ry="15.8"/><ellipse cx="1141.17" cy="574.29" rx="18.23" ry="32.82"/><ellipse cx="1143.88" cy="562.13" rx="8.78" ry="15.8"/><path class="cls-5" d="M1064.38,502.92a83,83,0,0,0-32.21,7.11"/><path class="cls-5" d="M1127.08,502.92a83,83,0,0,1,32.21,7.11"/><path class="cls-5" d="M1117.56,659.48a44,44,0,0,1-21.83,5.51,44.94,44.94,0,0,1-19.16-4.12"/><ellipse id="SVGID-2" data-name="SVGID" class="cls-6" cx="1083.1" cy="574.29" rx="129.95" ry="129.95"/><ellipse cx="1037.65" cy="564.3" rx="18.23" ry="32.82"/><ellipse class="cls-7" cx="1040.35" cy="552.15" rx="8.78" ry="15.8"/><ellipse cx="1128.54" cy="564.3" rx="18.23" ry="32.82"/><ellipse class="cls-7" cx="1131.24" cy="552.15" rx="8.78" ry="15.8"/><path class="cls-8" d="M1051.75,492.93a83.39,83.39,0,0,0-32.21,7.11"/><path class="cls-8" d="M1114.44,492.93a83.35,83.35,0,0,1,32.21,7.11"/><path class="cls-8" d="M1104.93,649.49A44,44,0,0,1,1083.1,655a45.09,45.09,0,0,1-19.16-4.11"/></g></svg>