<?xml version="1.0" encoding="UTF-8"?><svg id="Layer_2" xmlns="http://www.w3.org/2000/svg" xmlns:xlink="http://www.w3.org/1999/xlink" viewBox="0 0 288.67 68.12"><defs><style>.cls-1,.cls-2{stroke:#fff;stroke-miterlimit:10;stroke-width:1.6px;}.cls-1,.cls-3{fill:none;}.cls-2{fill:#58ff58;stroke-linecap:round;}.cls-4{clip-path:url(#clippath-1);}.cls-5{clip-path:url(#clippath);}.cls-6{fill:#999;}</style><clipPath id="clippath-1"><path class="cls-3" d="M8.45,12.08h0V0H302.89V12.08h0v.38h0c-1.55,34.02-29.58,60.8-63.64,60.79H72c-34,0-61.72-27.22-63.56-60.79h0v-.38Z"/></clipPath><symbol id="Rocket_BASE_1" viewBox="0 0 310.41 73.25"><g><path class="cls-6" d="M8.45,12.08h0V0H302.89V12.08h0v.38h0c-1.55,34.02-29.58,60.8-63.64,60.79H72c-34,0-61.72-27.22-63.56-60.79h0v-.38Z"/><circle class="cls-2" cx="244.45" cy="44.87" r="6.64"/><circle class="cls-2" cx="214.22" cy="44.87" r="6.64"/><circle class="cls-2" cx="184" cy="44.87" r="6.64"/><circle class="cls-2" cx="153.77" cy="44.87" r="6.64"/><circle class="cls-2" cx="123.55" cy="44.87" r="6.64"/><circle class="cls-2" cx="93.68" cy="44.87" r="6.64"/><circle class="cls-2" cx="63.45" cy="44.87" r="6.64"/><g class="cls-4"><g><path class="cls-1" d="M206.17,19.72h103.18l-1.35,4.73h-101.69c-1.29,.03-2.38-.95-2.5-2.24-.07-1.31,.94-2.42,2.25-2.49,.04,0,.08,0,.11,0Z"/><rect class="cls-1" x="193.69" y="19.72" width="4.87" height="4.73" rx="2.36" ry="2.36"/><path class="cls-1" d="M169.77,8.25h139.58v4.78h-118.61c-1.31,0-2.37,1.06-2.37,2.37v6.68c0,1.31-1.06,2.37-2.37,2.37h-5.39c-.65,0-1.27-.27-1.71-.74l-10.84-11.46c-.9-.95-.86-2.45,.09-3.35,.44-.41,1.02-.65,1.62-.65Z"/><path class="cls-1" d="M1.64,19.72H101.31c1.31,0,2.37,1.07,2.37,2.37,0,.05,0,.1,0,.16-.12,1.29-1.21,2.27-2.5,2.24H2.49l-.85-4.77Z"/><rect class="cls-1" x="108.93" y="19.72" width="4.87" height="4.73" rx="2.36" ry="2.36"/><path class="cls-1" d="M.8,8.25H137.71c1.31,0,2.37,1.07,2.36,2.38,0,.6-.23,1.18-.65,1.62l-10.85,11.46c-.44,.47-1.06,.74-1.71,.74h-5.39c-1.31,0-2.36-1.06-2.36-2.37v-6.68c0-1.31-1.06-2.37-2.37-2.37H.8v-4.78Z"/><circle class="cls-1" cx="153.74" cy="15.92" r="5.18"/></g></g></g></symbol><clipPath id="clippath"><rect class="cls-3" width="288.67" height="68.12"/></clipPath></defs><g id="Layer_1-2"><g class="cls-5"><use width="310.41" height="73.25" transform="translate(0 68.11) scale(.93 -.93)" xlink:href="#Rocket_BASE_1"/></g></g></svg>