<?xml version="1.0" encoding="UTF-8"?><svg id="Layer_2" xmlns="http://www.w3.org/2000/svg" xmlns:xlink="http://www.w3.org/1999/xlink" viewBox="0 0 289.69 775.18"><defs><style>.cls-1{fill:#575757;}.cls-2,.cls-3,.cls-4,.cls-5{isolation:isolate;}.cls-6{fill:#58ff58;stroke-linecap:round;stroke-width:1.6px;}.cls-6,.cls-7{stroke:#fff;stroke-miterlimit:10;}.cls-8{fill:url(#radial-gradient);}.cls-3{letter-spacing:.02em;}.cls-3,.cls-4,.cls-5{font-family:Arial-BoldMT, Arial;font-size:28.73px;}.cls-7{stroke-width:2.97px;}.cls-7,.cls-9{fill:none;}.cls-4{letter-spacing:0em;}.cls-10{clip-path:url(#clippath);}.cls-11{fill:url(#radial-gradient-2);}.cls-12{fill:#636363;}.cls-13{fill:#999;}.cls-14{fill:#7a7a7a;}.cls-5{letter-spacing:0em;}</style><radialGradient id="radial-gradient" cx="155.75" cy="447.8" fx="155.75" fy="447.8" r="66.12" gradientTransform="matrix(1, 0, 0, 1, 0, 0)" gradientUnits="userSpaceOnUse"><stop offset=".29" stop-color="#e6e6e6"/><stop offset=".41" stop-color="#e1e1e1"/><stop offset=".56" stop-color="#d2d2d2"/><stop offset=".72" stop-color="#bababa"/><stop offset=".88" stop-color="#989898"/><stop offset=".98" stop-color="gray"/></radialGradient><radialGradient id="radial-gradient-2" cx="155.75" cy="464.93" fx="155.75" fy="464.93" r="70.47" gradientTransform="matrix(1, 0, 0, 1, 0, 0)" gradientUnits="userSpaceOnUse"><stop offset=".12" stop-color="#339dd4"/><stop offset=".32" stop-color="#3199d4"/><stop offset=".5" stop-color="#2a8ed6"/><stop offset=".68" stop-color="#1f7cd8"/><stop offset=".86" stop-color="#1062db"/><stop offset="1" stop-color="#0046de"/></radialGradient><symbol id="ROCKET_1" viewBox="0 0 311.49 833.53"><g><path class="cls-14" d="M309.87,112.21l-57.31,181.61c-3.91,12.4-12.71,12.4-16.62,0l-38.68-122.57H114.26l-38.71,122.57c-3.91,12.4-12.71,12.4-16.62,0L1.62,112.21c-4.29-13.62,.44-31.68,8.32-31.68H124.55c7.14,0,11.7,14.82,9.28,27.74h43.83c-2.41-12.92,2.14-27.74,9.28-27.74h114.61c7.88,0,12.61,18.06,8.32,31.68Z"/><path class="cls-1" d="M119,0h73.55c2.26,.03,4.11,1.83,4.2,4.09l10.15,189.8c.1,2,.16,3.92,.14,5.89-.36,37.05-9.08,73.54-25.52,106.75l-18.66,37.36c-3.15,6.32-11.08,6.32-14.23,0l-18.63-37.36c-16.43-33.21-25.14-69.71-25.49-106.76,0-2,0-3.93,.14-5.89L114.8,4.08c.1-2.26,1.94-4.05,4.2-4.08Z"/><path class="cls-12" d="M108.8,15.65h93.89c2.87,.02,5.22,2.28,5.35,5.15l12.96,238.73c.13,2.47,.2,4.94,.18,7.41-.45,46.66-11.58,92.6-32.53,134.29l-23.82,47c-4,7.94-14.14,7.94-18.17,0l-23.82-47c-20.95-41.69-32.07-87.62-32.53-134.28,0-2.47,0-4.94,.18-7.41L103.49,20.8c.13-2.85,2.46-5.11,5.31-5.15Z"/><path class="cls-14" d="M96.64,53.4h118.21c3.58,0,6.54,2.11,6.74,4.81l16.31,223.42c.17,2.3,.26,4.61,.22,6.93-.7,44.05-14.77,87.27-41,125.66l-30,44c-5.07,7.44-17.8,7.44-22.87,0l-30-44c-26.11-38.39-40.18-81.61-40.88-125.69,0-2.32,0-4.63,.22-6.93L89.9,58.21c.2-2.68,3.16-4.81,6.74-4.81Z"/><circle id="SVGID-7" class="cls-8" cx="155.75" cy="447.8" r="66.12"/><path class="cls-13" d="M161.72,792.32c-3.21,4.67-8.74,4.67-11.95,0-23.09-33.64-105.15-163.09-102.77-300.79,2.4-142,18.76-364.73,22.46-413.57,.41-5.49,3.89-9.67,8.05-9.67H234c4.16,0,7.64,4.18,8.05,9.67,3.68,48.84,20.04,271.57,22.47,413.57,2.35,137.7-79.71,267.15-102.8,300.79Z"/><circle id="SVGID-8" class="cls-6" cx="155.75" cy="276.41" r="4.98"/><circle id="SVGID-9" class="cls-6" cx="155.75" cy="252.29" r="4.98"/><circle id="SVGID-10" class="cls-6" cx="155.75" cy="228.18" r="4.98"/><circle id="SVGID-11" class="cls-6" cx="155.75" cy="204.06" r="4.98"/><circle id="SVGID-12" class="cls-6" cx="155.75" cy="179.95" r="4.98"/><rect class="cls-13" x="152" y="772.96" width="7.48" height="52.62"/><circle class="cls-13" cx="155.75" cy="773.98" r="13.45"/><circle class="cls-13" cx="155.75" cy="825.58" r="7.95"/><circle id="SVGID-13" class="cls-7" cx="155.75" cy="464.93" r="80"/><circle id="SVGID-14" class="cls-11" cx="155.75" cy="464.93" r="70.47"/><g class="cls-2" transform="translate(111.77 381.25)"><text class="cls-5" transform="translate(111.77 452.28) scale(1 -1)"><tspan x="0" y="0">L</tspan></text><text class="cls-3" transform="translate(126.74 452.28) scale(1 -1)"><tspan x="0" y="0">E</tspan></text><text class="cls-4" transform="translate(143.06 452.28) scale(1 -1)"><tspan x="0" y="0">ARN</tspan></text></g></g></symbol><clipPath id="clippath"><rect class="cls-9" width="289.69" height="775.18"/></clipPath></defs><g id="Layer_1-2"><g class="cls-10"><use width="311.49" height="833.53" transform="translate(-2.48 775.18) scale(.93 -.93)" xlink:href="#ROCKET_1"/></g></g></svg>