<?xml version="1.0" encoding="UTF-8"?><svg id="Layer_2" xmlns="http://www.w3.org/2000/svg" xmlns:xlink="http://www.w3.org/1999/xlink" viewBox="0 0 289.69 775.18"><defs><style>.cls-1{fill:#575757;}.cls-2,.cls-3,.cls-4,.cls-5{isolation:isolate;}.cls-6{fill:#58ff58;stroke-linecap:round;stroke-width:1.6px;}.cls-6,.cls-7{stroke:#fff;stroke-miterlimit:10;}.cls-8{fill:url(#radial-gradient);}.cls-7{stroke-width:2.97px;}.cls-7,.cls-9{fill:none;}.cls-3{letter-spacing:0em;}.cls-3,.cls-4,.cls-5{font-family:Arial-BoldMT, Arial;font-size:28.73px;}.cls-10{clip-path:url(#clippath);}.cls-11{fill:url(#radial-gradient-2);}.cls-12{fill:#636363;}.cls-13{fill:#999;}.cls-14{fill:#7a7a7a;}.cls-4{letter-spacing:0em;}.cls-5{letter-spacing:-.07em;}</style><radialGradient id="radial-gradient" cx="22440.99" cy="447.8" fx="22440.99" fy="447.8" r="66.12" gradientTransform="translate(22596.74) rotate(-180) scale(1 -1)" gradientUnits="userSpaceOnUse"><stop offset=".29" stop-color="#e6e6e6"/><stop offset=".41" stop-color="#e1e1e1"/><stop offset=".56" stop-color="#d2d2d2"/><stop offset=".72" stop-color="#bababa"/><stop offset=".88" stop-color="#989898"/><stop offset=".98" stop-color="gray"/></radialGradient><radialGradient id="radial-gradient-2" cx="155.75" cy="464.93" fx="155.75" fy="464.93" r="70.47" gradientTransform="matrix(1, 0, 0, 1, 0, 0)" gradientUnits="userSpaceOnUse"><stop offset=".09" stop-color="#ff54b5"/><stop offset=".38" stop-color="#fd53b4"/><stop offset=".54" stop-color="#f54fb2"/><stop offset=".66" stop-color="#e748ae"/><stop offset=".77" stop-color="#d33ea8"/><stop offset=".87" stop-color="#ba31a1"/><stop offset=".96" stop-color="#9b2298"/><stop offset=".98" stop-color="#961f96"/></radialGradient><symbol id="ROCKET_2" viewBox="0 0 311.46 833.53"><g><path class="cls-14" d="M1.62,112.21l57.31,181.61c3.91,12.4,12.71,12.4,16.62,0l38.68-122.57h83l38.68,122.57c3.91,12.4,12.71,12.4,16.62,0l57.31-181.61c4.29-13.62-.44-31.64-8.32-31.64h-114.58c-7.14,0-11.69,14.82-9.28,27.74h-43.83c2.42-12.92-2.14-27.74-9.28-27.74H9.94c-7.88-.04-12.61,18.02-8.32,31.64Z"/><path class="cls-1" d="M192.52,0H119c-2.26,.03-4.11,1.83-4.2,4.09l-10.15,189.8c-.1,2-.16,3.92-.14,5.89,.35,37.05,9.06,73.54,25.49,106.75l18.66,37.36c3.15,6.32,11.08,6.32,14.23,0l18.63-37.36c16.42-33.21,25.13-69.7,25.48-106.75,0-2,0-3.93-.14-5.89L196.71,4.09c-.09-2.26-1.93-4.05-4.19-4.09Z"/><path class="cls-12" d="M202.69,15.65H108.8c-2.87,.02-5.22,2.28-5.35,5.15l-12.96,238.73c-.13,2.47-.2,4.94-.18,7.41,.45,46.66,11.58,92.6,32.53,134.29l23.82,47c4,7.94,14.14,7.94,18.17,0l23.82-47c20.95-41.69,32.08-87.63,32.53-134.29,0-2.47-.05-4.94-.18-7.41l-13-238.73c-.13-2.85-2.46-5.11-5.31-5.15Z"/><path class="cls-14" d="M214.85,53.4H96.64c-3.58,0-6.54,2.11-6.74,4.81l-16.31,223.42c-.17,2.3-.26,4.61-.22,6.93,.7,44.05,14.77,87.27,40.95,125.66l30,44c5.07,7.44,17.8,7.44,22.87,0l30-44c26.18-38.39,40.25-81.61,41-125.66,0-2.32-.05-4.63-.22-6.93l-16.38-223.42c-.2-2.68-3.16-4.81-6.74-4.81Z"/><circle id="SVGID-15" class="cls-8" cx="155.75" cy="447.8" r="66.12"/><path class="cls-13" d="M149.77,792.32c3.21,4.67,8.74,4.67,11.95,0,23.09-33.64,105.15-163.09,102.8-300.79-2.43-142-18.79-364.73-22.52-413.57-.41-5.49-3.89-9.67-8.05-9.67H77.51c-4.16,0-7.64,4.18-8.05,9.67-3.7,48.84-20.06,271.57-22.46,413.57-2.38,137.7,79.68,267.15,102.77,300.79Z"/><circle id="SVGID-16" class="cls-6" cx="155.75" cy="276.41" r="4.98"/><circle id="SVGID-17" class="cls-6" cx="155.75" cy="252.29" r="4.98"/><circle id="SVGID-18" class="cls-6" cx="155.75" cy="228.18" r="4.98"/><circle id="SVGID-19" class="cls-6" cx="155.75" cy="204.06" r="4.98"/><circle id="SVGID-20" class="cls-6" cx="155.75" cy="179.95" r="4.98"/><rect class="cls-13" x="152" y="772.96" width="7.48" height="52.62"/><circle class="cls-13" cx="155.75" cy="773.98" r="13.45"/><circle class="cls-13" cx="155.75" cy="825.58" r="7.95"/><circle id="SVGID-21" class="cls-7" cx="155.75" cy="464.93" r="80"/><circle id="SVGID-22" class="cls-11" cx="155.75" cy="464.93" r="70.47"/><g class="cls-2" transform="translate(122.33 381.25)"><text class="cls-4" transform="translate(122.33 452.28) scale(1 -1)"><tspan x="0" y="0">P</tspan></text><text class="cls-3" transform="translate(139.22 452.28) scale(1 -1)"><tspan x="0" y="0">L</tspan></text><text class="cls-5" transform="translate(154.48 452.28) scale(1 -1)"><tspan x="0" y="0">A</tspan></text><text class="cls-4" transform="translate(171.32 452.28) scale(1 -1)"><tspan x="0" y="0">Y</tspan></text></g></g></symbol><clipPath id="clippath"><rect class="cls-9" width="289.69" height="775.18"/></clipPath></defs><g id="Layer_1-2"><g class="cls-10"><use width="311.46" height="833.53" transform="translate(-2.48 775.18) scale(.93 -.93)" xlink:href="#ROCKET_2"/></g></g></svg>