<?xml version="1.0" encoding="UTF-8"?><svg id="Robos" xmlns="http://www.w3.org/2000/svg" xmlns:xlink="http://www.w3.org/1999/xlink" viewBox="0 0 300 300"><defs><style>.cls-1,.cls-2,.cls-3,.cls-4,.cls-5,.cls-6,.cls-7,.cls-8,.cls-9,.cls-10{stroke:#000;stroke-miterlimit:10;}.cls-1,.cls-6,.cls-9,.cls-10{stroke-width:2.16px;}.cls-1,.cls-7{fill:#999;}.cls-2{fill:url(#radial-gradient);stroke-width:1.89px;}.cls-2,.cls-3,.cls-4,.cls-5,.cls-7,.cls-8{stroke-linecap:round;}.cls-3,.cls-4,.cls-8{stroke-width:2.14px;}.cls-3,.cls-6{fill:#fff;}.cls-4{fill:#fa2e19;}.cls-5,.cls-7{stroke-width:1.47px;}.cls-5,.cls-8,.cls-9{fill:#c90000;}.cls-10{fill:#7f7f7f;}</style><symbol id="Robot_arm_3" viewBox="0 0 96.95 93.53"><g><path class="cls-8" d="M79.32,54.91h0c9.15,0,16.56-7.41,16.56-16.56V18.4c0-9.15-7.41-16.56-16.56-16.56h0c-9.15,0-16.56,7.41-16.56,16.56v19.96c0,9.15,7.41,16.56,16.56,16.56Z"/><circle class="cls-7" cx="72.61" cy="13.1" r="2.17"/><circle class="cls-7" cx="72.61" cy="20.53" r="2.17"/><g><polygon class="cls-5" points="35.33 8.62 66.68 34.41 69.46 31.02 38.11 5.24 35.33 8.62"/><polygon class="cls-5" points="29.97 15.14 61.32 40.92 64.1 37.54 32.76 11.75 29.97 15.14"/></g><g><circle class="cls-5" cx="65.29" cy="34.77" r="9.51"/><circle class="cls-7" cx="65.29" cy="34.77" r="3.21"/></g><g><polygon class="cls-5" points="8.5 48.19 27.92 12.55 24.07 10.46 4.65 46.1 8.5 48.19"/><polygon class="cls-5" points="15.91 52.23 35.32 16.59 31.48 14.49 12.06 50.13 15.91 52.23"/></g><g><circle class="cls-5" cx="31.48" cy="10.25" r="9.51"/><circle class="cls-7" cx="31.48" cy="10.25" r="3.21"/></g><g><polygon class="cls-5" points="37.06 82.03 9.5 52.23 6.29 55.21 33.85 85 37.06 82.03"/><polygon class="cls-5" points="43.25 76.3 15.69 46.5 12.48 49.48 40.04 79.27 43.25 76.3"/></g><g><circle class="cls-5" cx="10.25" cy="50.52" r="9.51"/><circle class="cls-7" cx="10.25" cy="50.52" r="3.21"/></g><g><g><path class="cls-5" d="M65.84,84.17h0c-.08-.78-.77-1.34-1.55-1.27l-14.23,1.42c-.78,.08-1.34,.77-1.27,1.55h0c.08,.78,.77,1.34,1.55,1.27l14.23-1.42c.78-.08,1.34-.77,1.27-1.55Z"/><path class="cls-5" d="M63.95,85.13h0c.6,.49,1.49,.41,1.99-.2l9.05-11.06c.49-.6,.41-1.49-.2-1.99h0c-.6-.49-1.49-.41-1.99,.2l-9.05,11.06c-.49,.6-.41,1.49,.2,1.99Z"/><circle class="cls-5" cx="64.57" cy="84.38" r="2.76"/></g><g><path class="cls-5" d="M53.87,65.96h0c.08,.78,.77,1.34,1.55,1.27l14.23-1.42c.78-.08,1.34-.77,1.27-1.55h0c-.08-.78-.77-1.34-1.55-1.27l-14.23,1.42c-.78,.08-1.34,.77-1.27,1.55Z"/><path class="cls-5" d="M55.76,65h0c-.6-.49-1.49-.41-1.99,.2l-9.05,11.06c-.49,.6-.41,1.49,.2,1.99h0c.6,.49,1.49,.41,1.99-.2l9.05-11.06c.49-.6,.41-1.49-.2-1.99Z"/><circle class="cls-5" cx="55.14" cy="65.75" r="2.76"/></g></g><g><circle class="cls-5" cx="43.17" cy="83.29" r="9.51"/><circle class="cls-7" cx="43.17" cy="83.29" r="3.21"/></g></g></symbol><symbol id="Robot_wheels_1" viewBox="0 0 161.25 35.61"><g><rect class="cls-1" x="55.55" y="1.19" width="104.62" height="33.34" rx="15.36" ry="15.36"/><rect class="cls-9" x="38.25" y="1.08" width="104.62" height="33.34" rx="15.36" ry="15.36"/><circle class="cls-6" cx="56.41" cy="17.75" r="9.56"/><circle class="cls-6" cx="89.84" cy="17.75" r="9.56"/><circle class="cls-10" cx="123.28" cy="17.75" r="9.56"/><rect class="cls-1" x="18.37" y="1.19" width="104.62" height="33.34" rx="15.36" ry="15.36"/><rect class="cls-9" x="1.08" y="1.08" width="104.62" height="33.34" rx="15.36" ry="15.36"/><circle class="cls-10" cx="19.23" cy="17.75" r="9.56"/><circle class="cls-10" cx="52.67" cy="17.75" r="9.56"/><circle class="cls-10" cx="86.11" cy="17.75" r="9.56"/></g></symbol><radialGradient id="radial-gradient" cx="155.35" cy="184.75" fx="155.35" fy="184.75" r="86.26" gradientTransform="matrix(1, 0, 0, 1, 0, 0)" gradientUnits="userSpaceOnUse"><stop offset="0" stop-color="#ed3939"/><stop offset=".16" stop-color="#e83232"/><stop offset=".39" stop-color="#dd2020"/><stop offset=".66" stop-color="#ca0202"/><stop offset=".68" stop-color="#c90000"/></radialGradient></defs><use width="96.95" height="93.53" transform="translate(1.54 145.66)" xlink:href="#Robot_arm_3"/><use width="96.95" height="93.53" transform="translate(298.67 145.66) rotate(-180) scale(1 -1)" xlink:href="#Robot_arm_3"/><g><rect class="cls-10" x="142.28" y="205.1" width="24.87" height="38.74"/><path class="cls-2" d="M227.75,192.73c0-37.73-32.71-68.32-73.07-68.32s-73.07,30.59-73.07,68.32c0,1.08-.07,2.15-.01,3.22v10.24H227.83v-9.69c.07-1.25-.08-2.5-.08-3.76Z"/><polyline class="cls-8" points="177.04 207.02 177.04 212.98 132.39 212.98 132.39 207.02"/><g><circle class="cls-3" cx="170.3" cy="168.34" r="5.25"/><circle class="cls-3" cx="154.72" cy="168.34" r="5.25"/><circle class="cls-3" cx="139.13" cy="168.34" r="5.25"/></g><line class="cls-4" x1="82.39" y1="187.83" x2="227.04" y2="187.83"/><line class="cls-4" x1="82.85" y1="182.89" x2="226.59" y2="182.89"/></g><use width="161.25" height="35.61" transform="translate(73.01 229.36)" xlink:href="#Robot_wheels_1"/></svg>