<?xml version="1.0" encoding="UTF-8"?><svg id="Robos" xmlns="http://www.w3.org/2000/svg" xmlns:xlink="http://www.w3.org/1999/xlink" viewBox="0 0 300 300"><defs><style>.cls-1,.cls-2,.cls-3,.cls-4,.cls-5,.cls-6,.cls-7,.cls-8,.cls-9,.cls-10,.cls-11,.cls-12,.cls-13{stroke-miterlimit:10;}.cls-1,.cls-2,.cls-3,.cls-5,.cls-6,.cls-8,.cls-9,.cls-10,.cls-11,.cls-12,.cls-13{stroke:#000;}.cls-1,.cls-6{fill:#999;}.cls-1,.cls-9,.cls-11,.cls-12{stroke-width:2.16px;}.cls-14,.cls-3,.cls-4,.cls-9{fill:#fff;}.cls-2{fill:url(#radial-gradient);stroke-width:1.89px;}.cls-2,.cls-3,.cls-8,.cls-10{stroke-linecap:round;}.cls-3,.cls-8,.cls-10{stroke-width:2.14px;}.cls-4{stroke-width:.26px;}.cls-4,.cls-7{stroke:#999;}.cls-5{fill:#ccc;stroke-width:1.42px;}.cls-6,.cls-13{stroke-width:1.44px;}.cls-7{fill:none;stroke-width:2.82px;}.cls-8{fill:#fa2e19;}.cls-10,.cls-11,.cls-13{fill:#c90000;}.cls-12{fill:#7f7f7f;}.cls-15{fill:#f2f2f2;}</style><symbol id="Robot_eyes_1" viewBox="0 0 152.36 59.06"><g><path class="cls-13" d="M122.83,58.35H29.53C13.64,58.35,.72,45.42,.72,29.53S13.64,.72,29.53,.72H122.83c15.89,0,28.81,12.93,28.81,28.81s-12.93,28.81-28.81,28.81Z"/><path class="cls-6" d="M29.53,9.18c-11.22,0-20.36,9.13-20.36,20.36s9.13,20.36,20.36,20.36H122.83c11.22,0,20.36-9.13,20.36-20.36s-9.13-20.36-20.36-20.36H29.53Z"/><ellipse class="cls-4" cx="30.14" cy="29.53" rx="11.83" ry="11.28"/><ellipse class="cls-7" cx="30.14" cy="29.53" rx="14.59" ry="13.91"/><g><circle class="cls-5" cx="30.14" cy="29.53" r="15.44"/><g><circle cx="30.14" cy="29.53" r="12.47"/><circle class="cls-15" cx="30.14" cy="29.53" r="10.33"/><circle cx="30.14" cy="29.53" r="6.06"/><circle class="cls-14" cx="26.27" cy="25.79" r="2.8"/></g></g><ellipse class="cls-4" cx="122.53" cy="29.53" rx="11.83" ry="11.28"/><ellipse class="cls-7" cx="122.53" cy="29.53" rx="14.59" ry="13.91"/><g><circle class="cls-5" cx="122.53" cy="29.53" r="15.44"/><g><circle cx="122.53" cy="29.53" r="12.47"/><circle class="cls-15" cx="122.53" cy="29.53" r="10.33"/><circle cx="122.53" cy="29.53" r="6.06"/><circle class="cls-14" cx="118.66" cy="25.79" r="2.8"/></g></g></g></symbol><symbol id="Robot_wheels_1" viewBox="0 0 161.25 35.61"><g><rect class="cls-1" x="55.55" y="1.19" width="104.62" height="33.34" rx="15.36" ry="15.36"/><rect class="cls-11" x="38.25" y="1.08" width="104.62" height="33.34" rx="15.36" ry="15.36"/><circle class="cls-9" cx="56.41" cy="17.75" r="9.56"/><circle class="cls-9" cx="89.84" cy="17.75" r="9.56"/><circle class="cls-12" cx="123.28" cy="17.75" r="9.56"/><rect class="cls-1" x="18.37" y="1.19" width="104.62" height="33.34" rx="15.36" ry="15.36"/><rect class="cls-11" x="1.08" y="1.08" width="104.62" height="33.34" rx="15.36" ry="15.36"/><circle class="cls-12" cx="19.23" cy="17.75" r="9.56"/><circle class="cls-12" cx="52.67" cy="17.75" r="9.56"/><circle class="cls-12" cx="86.11" cy="17.75" r="9.56"/></g></symbol><radialGradient id="radial-gradient" cx="155.35" cy="184.75" fx="155.35" fy="184.75" r="86.26" gradientTransform="matrix(1, 0, 0, 1, 0, 0)" gradientUnits="userSpaceOnUse"><stop offset="0" stop-color="#ed3939"/><stop offset=".16" stop-color="#e83232"/><stop offset=".39" stop-color="#dd2020"/><stop offset=".66" stop-color="#ca0202"/><stop offset=".68" stop-color="#c90000"/></radialGradient></defs><g><rect class="cls-12" x="142.28" y="205.1" width="24.87" height="38.74"/><path class="cls-2" d="M227.75,192.73c0-37.73-32.71-68.32-73.07-68.32s-73.07,30.59-73.07,68.32c0,1.08-.07,2.15-.01,3.22v10.24H227.83v-9.69c.07-1.25-.08-2.5-.08-3.76Z"/><polyline class="cls-10" points="177.04 207.02 177.04 212.98 132.39 212.98 132.39 207.02"/><g><circle class="cls-3" cx="170.3" cy="168.34" r="5.25"/><circle class="cls-3" cx="154.72" cy="168.34" r="5.25"/><circle class="cls-3" cx="139.13" cy="168.34" r="5.25"/></g><line class="cls-8" x1="82.39" y1="187.83" x2="227.04" y2="187.83"/><line class="cls-8" x1="82.85" y1="182.89" x2="226.59" y2="182.89"/></g><use width="161.25" height="35.61" transform="translate(73.01 229.36)" xlink:href="#Robot_wheels_1"/><use width="152.36" height="59.06" transform="translate(73.82 91.25)" xlink:href="#Robot_eyes_1"/></svg>