<?xml version="1.0" encoding="UTF-8"?><svg id="Robos" xmlns="http://www.w3.org/2000/svg" xmlns:xlink="http://www.w3.org/1999/xlink" viewBox="0 0 300 300"><defs><style>.cls-1{stroke-width:1.25px;}.cls-1,.cls-2,.cls-3,.cls-4,.cls-5,.cls-6,.cls-7,.cls-8,.cls-9{stroke:#000;stroke-miterlimit:10;}.cls-1,.cls-2,.cls-3,.cls-4,.cls-5,.cls-6,.cls-8{stroke-linecap:round;}.cls-1,.cls-3,.cls-6,.cls-8{fill:#c90000;}.cls-2{fill:url(#radial-gradient);stroke-width:1.95px;}.cls-3,.cls-4,.cls-5{stroke-width:2.14px;}.cls-4{fill:none;}.cls-5,.cls-9{fill:#7f7f7f;}.cls-6{stroke-width:1.75px;}.cls-7{fill:#fff;}.cls-7,.cls-9{stroke-width:2.16px;}.cls-8{stroke-width:2.14px;}</style><symbol id="Robot_arm_1" viewBox="0 0 96.45 86.24"><g><polygon class="cls-6" points="16.92 69.51 8 43.7 4.35 44.96 13.26 70.77 16.92 69.51"/><polygon class="cls-6" points="7.74 42.01 31.15 18.04 28.31 15.41 4.9 39.39 7.74 42.01"/><circle class="cls-6" cx="5.26" cy="41.7" r="4.39"/><polygon class="cls-6" points="33.57 17.89 60.88 17.89 60.88 14.02 33.57 14.02 33.57 17.89"/><path class="cls-6" d="M61.15,22.79h7.19c1.65,0,2.98-1.33,2.98-2.98v-7.71c0-1.65-1.33-2.98-2.98-2.98h-7.19c-1.65,0-2.98,1.33-2.98,2.98v7.71c0,1.65,1.33,2.98,2.98,2.98Z"/><path class="cls-6" d="M73.15,31.03h15.85c3.63,0,6.57-2.94,6.57-6.57V7.45c0-3.63-2.94-6.57-6.57-6.57h-15.85c-3.63,0-6.57,2.94-6.57,6.57V24.46c0,3.63,2.94,6.57,6.57,6.57Z"/><circle class="cls-6" cx="32.29" cy="15.95" r="4.39"/><g><g><path class="cls-1" d="M28.6,84.12h0c.35-.45,.26-1.1-.2-1.45l-8.33-6.33c-.45-.35-1.1-.26-1.45,.2h0c-.35,.45-.26,1.1,.2,1.45l8.33,6.33c.45,.35,1.1,.26,1.45-.2Z"/><path class="cls-1" d="M27.11,83.69h0c.08,.57,.6,.96,1.16,.88l10.37-1.41c.57-.08,.96-.6,.88-1.16h0c-.08-.57-.6-.96-1.16-.88l-10.37,1.41c-.57,.08-.96,.6-.88,1.16Z"/><circle class="cls-1" cx="27.82" cy="83.6" r="2.02"/></g><g><path class="cls-1" d="M31.27,68.4h0c-.35,.45-.26,1.1,.2,1.45l8.33,6.33c.45,.35,1.1,.26,1.45-.2h0c.35-.45,.26-1.1-.2-1.45l-8.33-6.33c-.45-.35-1.1-.26-1.45,.2Z"/><path class="cls-1" d="M32.76,68.82h0c-.08-.57-.6-.96-1.16-.88l-10.37,1.41c-.57,.08-.96,.6-.88,1.16h0c.08,.57,.6,.96,1.16,.88l10.37-1.41c.57-.08,.96-.6,.88-1.16Z"/><circle class="cls-1" cx="32.05" cy="68.92" r="2.02"/></g></g><g><circle class="cls-6" cx="16.29" cy="72.95" r="6.96"/><circle class="cls-6" cx="16.29" cy="72.95" r="2.35"/></g></g></symbol><radialGradient id="radial-gradient" cx="66.09" cy="80.74" fx="66.09" fy="80.74" r="86.53" gradientTransform="matrix(1, 0, 0, 1, 0, 0)" gradientUnits="userSpaceOnUse"><stop offset=".17" stop-color="#ed3939"/><stop offset=".21" stop-color="#e93333"/><stop offset=".66" stop-color="#c90000"/></radialGradient><symbol id="Robot_base_1" viewBox="0 0 131.44 181.32"><g><rect class="cls-9" x="53.29" y="141.5" width="24.87" height="38.74"/><polyline class="cls-8" points="82.04 143.38 82.04 148.8 49.41 148.8 49.41 143.38"/><polyline class="cls-8" points="119.04 130.47 119.04 142.62 12.4 142.62 12.4 130.47"/><path class="cls-2" d="M65.72,.98h0c35.73,0,64.75,29.01,64.75,64.75v64.75H.98V65.72C.98,29.99,29.99,.98,65.72,.98Z"/><rect class="cls-9" x="52.84" y="32.2" width="25.76" height="78.64" rx="12.88" ry="12.88"/><g><circle class="cls-7" cx="65.72" cy="48.67" r="7.69"/><circle class="cls-7" cx="65.72" cy="71.53" r="7.69"/><circle class="cls-7" cx="65.72" cy="94.38" r="7.69"/></g></g></symbol><symbol id="Robot_wheels_2" viewBox="0 0 129.35 44.87"><g><g><path class="cls-5" d="M122.22,43.8h-45.49c-5.48,0-8.14-7.25-4.14-11.3L101.3,3.41c2.78-2.82,7.26-2.19,9.27,1.31l16.78,29.09c2.51,4.35-.39,9.99-5.13,9.99Z"/><path class="cls-5" d="M115.9,43.8h-45.49c-5.48,0-8.14-7.25-4.14-11.3L94.98,3.41c2.78-2.82,7.26-2.19,9.27,1.31l16.78,29.09c2.51,4.35-.39,9.99-5.13,9.99Z"/><path class="cls-5" d="M109.57,43.8h-45.49c-5.48,0-8.14-7.25-4.14-11.3L88.65,3.41c2.78-2.82,7.26-2.19,9.27,1.31l16.78,29.09c2.51,4.35-.39,9.99-5.13,9.99Z"/><path class="cls-5" d="M103.24,43.8H57.75c-5.48,0-8.14-7.25-4.14-11.3L82.32,3.41c2.78-2.82,7.26-2.19,9.27,1.31l16.78,29.09c2.51,4.35-.39,9.99-5.13,9.99Z"/><path class="cls-5" d="M96.91,43.8H51.43c-5.48,0-8.14-7.25-4.14-11.3L75.99,3.41c2.78-2.82,7.26-2.19,9.27,1.31l16.78,29.09c2.51,4.35-.39,9.99-5.13,9.99Z"/><path class="cls-5" d="M90.58,43.8H45.1c-5.48,0-8.14-7.25-4.14-11.3L69.66,3.41c2.78-2.82,7.26-2.19,9.27,1.31l16.78,29.09c2.51,4.35-.39,9.99-5.13,9.99Z"/><path class="cls-5" d="M84.26,43.8H38.77c-5.48,0-8.14-7.25-4.14-11.3L63.34,3.41c2.78-2.82,7.26-2.19,9.27,1.31l16.78,29.09c2.51,4.35-.39,9.99-5.13,9.99Z"/><path class="cls-5" d="M77.93,43.8H32.44c-5.48,0-8.14-7.25-4.14-11.3L57.01,3.41c2.78-2.82,7.26-2.19,9.27,1.31l16.78,29.09c2.51,4.35-.39,9.99-5.13,9.99Z"/><path class="cls-5" d="M71.6,43.8H26.12c-5.48,0-8.14-7.25-4.14-11.3L50.68,3.41c2.78-2.82,7.26-2.19,9.27,1.31l16.78,29.09c2.51,4.35-.39,9.99-5.13,9.99Z"/><path class="cls-5" d="M65.27,43.8H19.79c-5.48,0-8.14-7.25-4.14-11.3L44.35,3.41c2.78-2.82,7.26-2.19,9.27,1.31l16.78,29.09c2.51,4.35-.39,9.99-5.13,9.99Z"/><path class="cls-5" d="M58.94,43.8H13.46c-5.48,0-8.14-7.25-4.14-11.3L38.02,3.41c2.78-2.82,7.26-2.19,9.27,1.31l16.78,29.09c2.51,4.35-.39,9.99-5.13,9.99Z"/></g><path class="cls-3" d="M52.62,43.8H7.13c-5.48,0-8.14-7.25-4.14-11.3L31.7,3.41c2.78-2.82,7.26-2.19,9.27,1.31l16.78,29.09c2.51,4.35-.39,9.99-5.13,9.99Z"/><path class="cls-4" d="M122.22,43.8c4.75,0,7.64-5.64,5.13-9.99L109.43,2.81c-.62-1.08-1.77-1.74-3.01-1.74H36c-.92,0-1.8,.36-2.46,1.01L2.99,32.5c-4,4.05-1.34,11.3,4.14,11.3"/></g></symbol></defs><use width="96.45" height="86.24" transform="translate(6.43 118.63)" xlink:href="#Robot_arm_1"/><use width="96.45" height="86.24" transform="translate(294.43 118.63) rotate(-180) scale(1 -1)" xlink:href="#Robot_arm_1"/><use width="131.44" height="181.32" transform="translate(84.28 62.26)" xlink:href="#Robot_base_1"/><use width="129.35" height="44.87" transform="translate(85.32 232.41)" xlink:href="#Robot_wheels_2"/></svg>