<?xml version="1.0" encoding="UTF-8"?><svg id="Robos" xmlns="http://www.w3.org/2000/svg" xmlns:xlink="http://www.w3.org/1999/xlink" viewBox="0 0 300 300"><defs><style>.cls-1,.cls-2,.cls-3{fill:#c90000;}.cls-4{fill:url(#radial-gradient);stroke-width:1.95px;}.cls-4,.cls-5,.cls-2,.cls-6,.cls-7,.cls-8,.cls-9,.cls-10,.cls-11,.cls-12,.cls-3,.cls-13,.cls-14{stroke:#000;stroke-miterlimit:10;}.cls-4,.cls-5,.cls-2,.cls-7,.cls-8,.cls-10,.cls-11,.cls-12,.cls-3{stroke-linecap:round;}.cls-5,.cls-8,.cls-15,.cls-14{fill:#7f7f7f;}.cls-5,.cls-12{stroke-width:.53px;}.cls-16{clip-path:url(#clippath-1);}.cls-2,.cls-7,.cls-8{stroke-width:2.14px;}.cls-6,.cls-7,.cls-10,.cls-11,.cls-12{fill:none;}.cls-6,.cls-13{stroke-width:1.4px;}.cls-17{clip-path:url(#clippath);}.cls-9{fill:#fff;}.cls-9,.cls-14{stroke-width:2.16px;}.cls-10{stroke-width:2.04px;}.cls-11{stroke-width:2.33px;}.cls-3{stroke-width:2.14px;}.cls-13{fill:#999;}</style><clipPath id="clippath"><path id="SVGID" class="cls-6" d="M67.44,10.88C65.6,2.34,25.54-8,15.84,31.57c-1.51,6.16-2.6,22.48-1.84,32.68,.3,3.97,4.03,6.06,8.01,5.92h0c4.13-.14,7.29-3.64,7.13-7.77-.28-7.62-.01-16.23,1.01-23.78,.83-6.06,2.36-12.2,7.79-15.02,9.3-4.83,24.96-.74,26.96,2.73"/></clipPath><clipPath id="clippath-1"><path id="SVGID-3" class="cls-6" d="M180.8,10.88c1.85-8.54,41.9-18.87,51.6,20.69,1.51,6.16,2.6,22.48,1.84,32.68-.3,3.97-4.03,6.06-8.01,5.92h0c-4.13-.14-7.29-3.64-7.13-7.77,.28-7.62,.01-16.23-1.01-23.78-.83-6.06-2.36-12.2-7.79-15.02-9.3-4.83-24.96-.74-26.96,2.73"/></clipPath><symbol id="Robot_arm_5" viewBox="0 0 248.25 137.5"><g><path class="cls-13" d="M67.44,10.88C65.6,2.34,25.54-8,15.84,31.57c-1.51,6.16-2.6,22.48-1.84,32.68,.3,3.97,4.03,6.06,8.01,5.92h0c4.13-.14,7.29-3.64,7.13-7.77-.28-7.62-.01-16.23,1.01-23.78,.83-6.06,2.36-12.2,7.79-15.02,9.3-4.83,24.96-.74,26.96,2.73"/><g><g class="cls-17"><g><polygon class="cls-12" points="31.78 56.91 10.14 56.91 10.14 50.16 32.06 51.77 31.78 56.91"/><polygon class="cls-12" points="31.97 47.77 10.7 43.14 11.46 34.24 32.93 42.32 31.97 47.77"/><polygon class="cls-12" points="34.55 36.55 13.54 26.86 17.23 17.16 35.47 31.47 34.55 36.55"/><polygon class="cls-12" points="23.47 9.08 30.62 3.78 40.78 26.17 37.08 28.24 23.47 9.08"/><polygon class="cls-12" points="41.24 .31 52.32 1.93 50.01 25.24 43.78 24.09 41.24 .31"/><polygon class="cls-12" points="64.2 29.64 57.76 27.8 63.84 1.64 70.57 8.38 64.2 29.64"/></g></g><path id="SVGID-2" class="cls-6" d="M67.44,10.88C65.6,2.34,25.54-8,15.84,31.57c-1.51,6.16-2.6,22.48-1.84,32.68,.3,3.97,4.03,6.06,8.01,5.92h0c4.13-.14,7.29-3.64,7.13-7.77-.28-7.62-.01-16.23,1.01-23.78,.83-6.06,2.36-12.2,7.79-15.02,9.3-4.83,24.96-.74,26.96,2.73"/></g><path class="cls-11" d="M67.44,10.88C65.6,2.34,25.54-8,15.84,31.57c-1.51,6.16-2.6,22.48-1.84,32.68,.3,3.97,4.03,6.06,8.01,5.92h0c4.13-.14,7.29-3.64,7.13-7.77-.28-7.62-.01-16.23,1.01-23.78,.83-6.06,2.36-12.2,7.79-15.02,9.3-4.83,24.96-.74,26.96,2.73"/><g><path class="cls-15" d="M8.76,110.72c-3.08,3-4.91,7.26-4.95,11.56-.04,4.3,1.7,8.59,4.73,11.65,1.24,1.25,2.76,2.33,4.51,2.54,1.75,.21,3.71-.69,4.26-2.36-3.99-2.45-6.4-7.27-5.95-11.93,.45-4.66,3.73-8.93,8.12-10.57"/><path d="M8.03,110c-3.79,3.74-5.79,9.19-5.11,14.49,.33,2.61,1.22,5.15,2.66,7.36s3.35,4.3,5.83,5.26c2.62,1,5.87,.04,6.88-2.73,.16-.43-.11-.93-.47-1.15-2.88-1.8-4.81-4.85-5.36-8.19s.56-6.7,2.73-9.18c1.24-1.42,2.79-2.58,4.56-3.25,.52-.2,.87-.69,.71-1.26-.14-.49-.74-.91-1.26-.71-3.73,1.43-6.64,4.39-8.07,8.11s-.97,7.97,1,11.41c1.13,1.97,2.73,3.65,4.66,4.85l-.47-1.15c-.67,1.82-3.1,1.89-4.58,1.2-1.99-.92-3.55-2.8-4.66-4.65-2.28-3.78-2.85-8.39-1.51-12.6,.77-2.4,2.12-4.58,3.91-6.35,.94-.92-.51-2.37-1.45-1.45h0Z"/></g><g><path class="cls-15" d="M35.07,110.72c3.08,3,4.91,7.26,4.95,11.56,.04,4.3-1.7,8.59-4.73,11.65-1.24,1.25-2.76,2.33-4.51,2.54-1.75,.21-3.71-.69-4.26-2.36,3.99-2.45,6.4-7.27,5.95-11.93-.45-4.66-3.73-8.93-8.12-10.57"/><path d="M34.35,111.44c3.19,3.14,4.91,7.57,4.61,12.04-.28,4.16-2.46,8.83-6.07,11.11-.94,.6-2.06,1.03-3.2,.83-.91-.16-1.85-.69-2.18-1.59l-.47,1.15c3.36-2.09,5.74-5.68,6.33-9.6s-.64-7.96-3.28-10.99c-1.48-1.7-3.36-2.98-5.47-3.78-.52-.2-1.12,.22-1.26,.71-.16,.58,.2,1.06,.71,1.26,3.06,1.17,5.58,3.78,6.71,6.85s.82,6.71-.86,9.66c-.95,1.67-2.29,3.09-3.92,4.11-.36,.22-.63,.73-.47,1.15,.88,2.41,3.49,3.49,5.92,3.01,2.65-.52,4.76-2.69,6.28-4.79,3.1-4.27,4.09-9.9,2.61-14.97-.84-2.88-2.42-5.53-4.56-7.64-.94-.92-2.38,.52-1.45,1.45h0Z"/></g><path class="cls-1" d="M38.71,112.39H5.79c-2.66,0-4.8-1.98-4.76-4.41l1.05-26.24c0-10.18,9.04-18.43,20.18-18.43h0c11.15,0,20.18,8.25,20.18,18.43l1.05,26.24c.04,2.43-2.11,4.41-4.76,4.41Z"/><rect class="cls-5" x="1.93" y="93.25" width="40.86" height="5.91"/><path class="cls-10" d="M38.71,112.39H5.79c-2.66,0-4.8-1.98-4.76-4.41l1.05-26.24c0-10.18,9.04-18.43,20.18-18.43h0c11.15,0,20.18,8.25,20.18,18.43l1.05,26.24c.04,2.43-2.11,4.41-4.76,4.41Z"/><path class="cls-13" d="M180.8,10.88c1.85-8.54,41.9-18.87,51.6,20.69,1.51,6.16,2.6,22.48,1.84,32.68-.3,3.97-4.03,6.06-8.01,5.92h0c-4.13-.14-7.29-3.64-7.13-7.77,.28-7.62,.01-16.23-1.01-23.78-.83-6.06-2.36-12.2-7.79-15.02-9.3-4.83-24.96-.74-26.96,2.73"/><g><g class="cls-16"><g><polygon class="cls-12" points="216.47 56.91 238.11 56.91 238.11 50.16 216.19 51.77 216.47 56.91"/><polygon class="cls-12" points="216.28 47.77 237.55 43.14 236.78 34.24 215.32 42.32 216.28 47.77"/><polygon class="cls-12" points="213.7 36.55 234.71 26.86 231.01 17.16 212.78 31.47 213.7 36.55"/><polygon class="cls-12" points="224.78 9.08 217.63 3.78 207.47 26.17 211.16 28.24 224.78 9.08"/><polygon class="cls-12" points="207.01 .31 195.93 1.93 198.24 25.24 204.47 24.09 207.01 .31"/><polygon class="cls-12" points="184.05 29.64 190.49 27.8 184.41 1.64 177.67 8.38 184.05 29.64"/></g></g><path id="SVGID-4" class="cls-6" d="M180.8,10.88c1.85-8.54,41.9-18.87,51.6,20.69,1.51,6.16,2.6,22.48,1.84,32.68-.3,3.97-4.03,6.06-8.01,5.92h0c-4.13-.14-7.29-3.64-7.13-7.77,.28-7.62,.01-16.23-1.01-23.78-.83-6.06-2.36-12.2-7.79-15.02-9.3-4.83-24.96-.74-26.96,2.73"/></g><path class="cls-11" d="M180.8,10.88c1.85-8.54,41.9-18.87,51.6,20.69,1.51,6.16,2.6,22.48,1.84,32.68-.3,3.97-4.03,6.06-8.01,5.92h0c-4.13-.14-7.29-3.64-7.13-7.77,.28-7.62,.01-16.23-1.01-23.78-.83-6.06-2.36-12.2-7.79-15.02-9.3-4.83-24.96-.74-26.96,2.73"/><g><path class="cls-15" d="M239.49,110.72c3.08,3,4.91,7.26,4.95,11.56,.04,4.3-1.7,8.59-4.73,11.65-1.24,1.25-2.76,2.33-4.51,2.54-1.75,.21-3.71-.69-4.26-2.36,3.99-2.45,6.4-7.27,5.95-11.93-.45-4.66-3.73-8.93-8.12-10.57"/><path d="M238.77,111.44c3.19,3.14,4.91,7.57,4.61,12.04-.28,4.16-2.46,8.83-6.07,11.11-.94,.6-2.06,1.03-3.2,.83-.91-.16-1.85-.69-2.18-1.59l-.47,1.15c3.36-2.09,5.74-5.68,6.33-9.6s-.64-7.96-3.28-10.99c-1.48-1.7-3.36-2.98-5.47-3.78-.52-.2-1.12,.22-1.26,.71-.16,.58,.2,1.06,.71,1.26,3.06,1.17,5.58,3.78,6.71,6.85s.82,6.71-.86,9.66c-.95,1.67-2.29,3.09-3.92,4.11-.36,.22-.63,.73-.47,1.15,.88,2.41,3.49,3.49,5.92,3.01,2.65-.52,4.76-2.69,6.28-4.79,3.1-4.27,4.09-9.9,2.61-14.97-.84-2.88-2.42-5.53-4.56-7.64-.94-.92-2.38,.52-1.45,1.45h0Z"/></g><g><path class="cls-15" d="M213.18,110.72c-3.08,3-4.91,7.26-4.95,11.56-.04,4.3,1.7,8.59,4.73,11.65,1.24,1.25,2.76,2.33,4.51,2.54s3.71-.69,4.26-2.36c-3.99-2.45-6.4-7.27-5.95-11.93,.45-4.66,3.73-8.93,8.12-10.57"/><path d="M212.45,110c-3.79,3.74-5.79,9.19-5.11,14.49,.33,2.61,1.22,5.15,2.66,7.36s3.35,4.3,5.83,5.26c2.62,1,5.87,.04,6.88-2.73,.16-.43-.11-.93-.47-1.15-2.88-1.8-4.81-4.85-5.36-8.19s.56-6.7,2.73-9.18c1.24-1.42,2.79-2.58,4.56-3.25,.52-.2,.87-.69,.71-1.26-.14-.49-.74-.91-1.26-.71-3.73,1.43-6.64,4.39-8.07,8.11s-.97,7.97,1,11.41c1.13,1.97,2.73,3.65,4.66,4.85l-.47-1.15c-.67,1.82-3.1,1.89-4.58,1.2-1.99-.92-3.55-2.8-4.66-4.65-2.28-3.78-2.85-8.39-1.51-12.6,.77-2.4,2.12-4.58,3.91-6.35,.94-.92-.51-2.37-1.45-1.45h0Z"/></g><path class="cls-1" d="M209.54,112.39h32.92c2.66,0,4.8-1.98,4.76-4.41l-1.05-26.24c0-10.18-9.04-18.43-20.18-18.43h0c-11.15,0-20.18,8.25-20.18,18.43l-1.05,26.24c-.04,2.43,2.11,4.41,4.76,4.41Z"/><rect class="cls-5" x="205.46" y="93.25" width="40.86" height="5.91"/><path class="cls-10" d="M209.54,112.39h32.92c2.66,0,4.8-1.98,4.76-4.41l-1.05-26.24c0-10.18-9.04-18.43-20.18-18.43h0c-11.15,0-20.18,8.25-20.18,18.43l-1.05,26.24c-.04,2.43,2.11,4.41,4.76,4.41Z"/></g></symbol><radialGradient id="radial-gradient" cx="66.09" cy="80.74" fx="66.09" fy="80.74" r="86.53" gradientTransform="matrix(1, 0, 0, 1, 0, 0)" gradientUnits="userSpaceOnUse"><stop offset=".17" stop-color="#ed3939"/><stop offset=".21" stop-color="#e93333"/><stop offset=".66" stop-color="#c90000"/></radialGradient><symbol id="Robot_base_1" viewBox="0 0 131.44 181.32"><g><rect class="cls-14" x="53.29" y="141.5" width="24.87" height="38.74"/><polyline class="cls-3" points="82.04 143.38 82.04 148.8 49.41 148.8 49.41 143.38"/><polyline class="cls-3" points="119.04 130.47 119.04 142.62 12.4 142.62 12.4 130.47"/><path class="cls-4" d="M65.72,.98h0c35.73,0,64.75,29.01,64.75,64.75v64.75H.98V65.72C.98,29.99,29.99,.98,65.72,.98Z"/><rect class="cls-14" x="52.84" y="32.2" width="25.76" height="78.64" rx="12.88" ry="12.88"/><g><circle class="cls-9" cx="65.72" cy="48.67" r="7.69"/><circle class="cls-9" cx="65.72" cy="71.53" r="7.69"/><circle class="cls-9" cx="65.72" cy="94.38" r="7.69"/></g></g></symbol><symbol id="Robot_wheels_2" viewBox="0 0 129.35 44.87"><g><g><path class="cls-8" d="M122.22,43.8h-45.49c-5.48,0-8.14-7.25-4.14-11.3L101.3,3.41c2.78-2.82,7.26-2.19,9.27,1.31l16.78,29.09c2.51,4.35-.39,9.99-5.13,9.99Z"/><path class="cls-8" d="M115.9,43.8h-45.49c-5.48,0-8.14-7.25-4.14-11.3L94.98,3.41c2.78-2.82,7.26-2.19,9.27,1.31l16.78,29.09c2.51,4.35-.39,9.99-5.13,9.99Z"/><path class="cls-8" d="M109.57,43.8h-45.49c-5.48,0-8.14-7.25-4.14-11.3L88.65,3.41c2.78-2.82,7.26-2.19,9.27,1.31l16.78,29.09c2.51,4.35-.39,9.99-5.13,9.99Z"/><path class="cls-8" d="M103.24,43.8H57.75c-5.48,0-8.14-7.25-4.14-11.3L82.32,3.41c2.78-2.82,7.26-2.19,9.27,1.31l16.78,29.09c2.51,4.35-.39,9.99-5.13,9.99Z"/><path class="cls-8" d="M96.91,43.8H51.43c-5.48,0-8.14-7.25-4.14-11.3L75.99,3.41c2.78-2.82,7.26-2.19,9.27,1.31l16.78,29.09c2.51,4.35-.39,9.99-5.13,9.99Z"/><path class="cls-8" d="M90.58,43.8H45.1c-5.48,0-8.14-7.25-4.14-11.3L69.66,3.41c2.78-2.82,7.26-2.19,9.27,1.31l16.78,29.09c2.51,4.35-.39,9.99-5.13,9.99Z"/><path class="cls-8" d="M84.26,43.8H38.77c-5.48,0-8.14-7.25-4.14-11.3L63.34,3.41c2.78-2.82,7.26-2.19,9.27,1.31l16.78,29.09c2.51,4.35-.39,9.99-5.13,9.99Z"/><path class="cls-8" d="M77.93,43.8H32.44c-5.48,0-8.14-7.25-4.14-11.3L57.01,3.41c2.78-2.82,7.26-2.19,9.27,1.31l16.78,29.09c2.51,4.35-.39,9.99-5.13,9.99Z"/><path class="cls-8" d="M71.6,43.8H26.12c-5.48,0-8.14-7.25-4.14-11.3L50.68,3.41c2.78-2.82,7.26-2.19,9.27,1.31l16.78,29.09c2.51,4.35-.39,9.99-5.13,9.99Z"/><path class="cls-8" d="M65.27,43.8H19.79c-5.48,0-8.14-7.25-4.14-11.3L44.35,3.41c2.78-2.82,7.26-2.19,9.27,1.31l16.78,29.09c2.51,4.35-.39,9.99-5.13,9.99Z"/><path class="cls-8" d="M58.94,43.8H13.46c-5.48,0-8.14-7.25-4.14-11.3L38.02,3.41c2.78-2.82,7.26-2.19,9.27,1.31l16.78,29.09c2.51,4.35-.39,9.99-5.13,9.99Z"/></g><path class="cls-2" d="M52.62,43.8H7.13c-5.48,0-8.14-7.25-4.14-11.3L31.7,3.41c2.78-2.82,7.26-2.19,9.27,1.31l16.78,29.09c2.51,4.35-.39,9.99-5.13,9.99Z"/><path class="cls-7" d="M122.22,43.8c4.75,0,7.64-5.64,5.13-9.99L109.43,2.81c-.62-1.08-1.77-1.74-3.01-1.74H36c-.92,0-1.8,.36-2.46,1.01L2.99,32.5c-4,4.05-1.34,11.3,4.14,11.3"/></g></symbol></defs><use width="248.25" height="137.5" transform="translate(30.59 106.19)" xlink:href="#Robot_arm_5"/><use width="131.44" height="181.32" transform="translate(84.28 62.26)" xlink:href="#Robot_base_1"/><use width="129.35" height="44.87" transform="translate(85.32 232.41)" xlink:href="#Robot_wheels_2"/></svg>