<?xml version="1.0" encoding="UTF-8"?><svg id="Robos" xmlns="http://www.w3.org/2000/svg" xmlns:xlink="http://www.w3.org/1999/xlink" viewBox="0 0 300 300"><defs><style>.cls-1,.cls-2,.cls-3{fill:#fff;}.cls-4{fill:url(#radial-gradient);stroke-width:1.95px;}.cls-4,.cls-2,.cls-5,.cls-6,.cls-7,.cls-8,.cls-9,.cls-10,.cls-3,.cls-11,.cls-12,.cls-13{stroke-miterlimit:10;}.cls-4,.cls-5,.cls-6,.cls-7,.cls-8,.cls-9,.cls-3,.cls-11,.cls-12,.cls-13{stroke:#000;}.cls-4,.cls-5,.cls-6,.cls-9,.cls-11{stroke-linecap:round;}.cls-2{stroke-width:.26px;}.cls-2,.cls-10{stroke:#999;}.cls-5,.cls-6,.cls-9{stroke-width:2.14px;}.cls-5,.cls-11,.cls-13{fill:#c90000;}.cls-6,.cls-10{fill:none;}.cls-7{fill:#ccc;stroke-width:1.42px;}.cls-8{fill:#999;}.cls-8,.cls-13{stroke-width:1.44px;}.cls-9,.cls-12{fill:#7f7f7f;}.cls-10{stroke-width:2.82px;}.cls-3,.cls-12{stroke-width:2.16px;}.cls-11{stroke-width:2.14px;}.cls-14{fill:#f2f2f2;}</style><radialGradient id="radial-gradient" cx="66.09" cy="80.74" fx="66.09" fy="80.74" r="86.53" gradientTransform="matrix(1, 0, 0, 1, 0, 0)" gradientUnits="userSpaceOnUse"><stop offset=".17" stop-color="#ed3939"/><stop offset=".21" stop-color="#e93333"/><stop offset=".66" stop-color="#c90000"/></radialGradient><symbol id="Robot_base_1" viewBox="0 0 131.44 181.32"><g><rect class="cls-12" x="53.29" y="141.5" width="24.87" height="38.74"/><polyline class="cls-11" points="82.04 143.38 82.04 148.8 49.41 148.8 49.41 143.38"/><polyline class="cls-11" points="119.04 130.47 119.04 142.62 12.4 142.62 12.4 130.47"/><path class="cls-4" d="M65.72,.98h0c35.73,0,64.75,29.01,64.75,64.75v64.75H.98V65.72C.98,29.99,29.99,.98,65.72,.98Z"/><rect class="cls-12" x="52.84" y="32.2" width="25.76" height="78.64" rx="12.88" ry="12.88"/><g><circle class="cls-3" cx="65.72" cy="48.67" r="7.69"/><circle class="cls-3" cx="65.72" cy="71.53" r="7.69"/><circle class="cls-3" cx="65.72" cy="94.38" r="7.69"/></g></g></symbol><symbol id="Robot_eyes_1" viewBox="0 0 152.36 59.06"><g><path class="cls-13" d="M122.83,58.35H29.53C13.64,58.35,.72,45.42,.72,29.53S13.64,.72,29.53,.72H122.83c15.89,0,28.81,12.93,28.81,28.81s-12.93,28.81-28.81,28.81Z"/><path class="cls-8" d="M29.53,9.18c-11.22,0-20.36,9.13-20.36,20.36s9.13,20.36,20.36,20.36H122.83c11.22,0,20.36-9.13,20.36-20.36s-9.13-20.36-20.36-20.36H29.53Z"/><ellipse class="cls-2" cx="30.14" cy="29.53" rx="11.83" ry="11.28"/><ellipse class="cls-10" cx="30.14" cy="29.53" rx="14.59" ry="13.91"/><g><circle class="cls-7" cx="30.14" cy="29.53" r="15.44"/><g><circle cx="30.14" cy="29.53" r="12.47"/><circle class="cls-14" cx="30.14" cy="29.53" r="10.33"/><circle cx="30.14" cy="29.53" r="6.06"/><circle class="cls-1" cx="26.27" cy="25.79" r="2.8"/></g></g><ellipse class="cls-2" cx="122.53" cy="29.53" rx="11.83" ry="11.28"/><ellipse class="cls-10" cx="122.53" cy="29.53" rx="14.59" ry="13.91"/><g><circle class="cls-7" cx="122.53" cy="29.53" r="15.44"/><g><circle cx="122.53" cy="29.53" r="12.47"/><circle class="cls-14" cx="122.53" cy="29.53" r="10.33"/><circle cx="122.53" cy="29.53" r="6.06"/><circle class="cls-1" cx="118.66" cy="25.79" r="2.8"/></g></g></g></symbol><symbol id="Robot_wheels_2" viewBox="0 0 129.35 44.87"><g><g><path class="cls-9" d="M122.22,43.8h-45.49c-5.48,0-8.14-7.25-4.14-11.3L101.3,3.41c2.78-2.82,7.26-2.19,9.27,1.31l16.78,29.09c2.51,4.35-.39,9.99-5.13,9.99Z"/><path class="cls-9" d="M115.9,43.8h-45.49c-5.48,0-8.14-7.25-4.14-11.3L94.98,3.41c2.78-2.82,7.26-2.19,9.27,1.31l16.78,29.09c2.51,4.35-.39,9.99-5.13,9.99Z"/><path class="cls-9" d="M109.57,43.8h-45.49c-5.48,0-8.14-7.25-4.14-11.3L88.65,3.41c2.78-2.82,7.26-2.19,9.27,1.31l16.78,29.09c2.51,4.35-.39,9.99-5.13,9.99Z"/><path class="cls-9" d="M103.24,43.8H57.75c-5.48,0-8.14-7.25-4.14-11.3L82.32,3.41c2.78-2.82,7.26-2.19,9.27,1.31l16.78,29.09c2.51,4.35-.39,9.99-5.13,9.99Z"/><path class="cls-9" d="M96.91,43.8H51.43c-5.48,0-8.14-7.25-4.14-11.3L75.99,3.41c2.78-2.82,7.26-2.19,9.27,1.31l16.78,29.09c2.51,4.35-.39,9.99-5.13,9.99Z"/><path class="cls-9" d="M90.58,43.8H45.1c-5.48,0-8.14-7.25-4.14-11.3L69.66,3.41c2.78-2.82,7.26-2.19,9.27,1.31l16.78,29.09c2.51,4.35-.39,9.99-5.13,9.99Z"/><path class="cls-9" d="M84.26,43.8H38.77c-5.48,0-8.14-7.25-4.14-11.3L63.34,3.41c2.78-2.82,7.26-2.19,9.27,1.31l16.78,29.09c2.51,4.35-.39,9.99-5.13,9.99Z"/><path class="cls-9" d="M77.93,43.8H32.44c-5.48,0-8.14-7.25-4.14-11.3L57.01,3.41c2.78-2.82,7.26-2.19,9.27,1.31l16.78,29.09c2.51,4.35-.39,9.99-5.13,9.99Z"/><path class="cls-9" d="M71.6,43.8H26.12c-5.48,0-8.14-7.25-4.14-11.3L50.68,3.41c2.78-2.82,7.26-2.19,9.27,1.31l16.78,29.09c2.51,4.35-.39,9.99-5.13,9.99Z"/><path class="cls-9" d="M65.27,43.8H19.79c-5.48,0-8.14-7.25-4.14-11.3L44.35,3.41c2.78-2.82,7.26-2.19,9.27,1.31l16.78,29.09c2.51,4.35-.39,9.99-5.13,9.99Z"/><path class="cls-9" d="M58.94,43.8H13.46c-5.48,0-8.14-7.25-4.14-11.3L38.02,3.41c2.78-2.82,7.26-2.19,9.27,1.31l16.78,29.09c2.51,4.35-.39,9.99-5.13,9.99Z"/></g><path class="cls-5" d="M52.62,43.8H7.13c-5.48,0-8.14-7.25-4.14-11.3L31.7,3.41c2.78-2.82,7.26-2.19,9.27,1.31l16.78,29.09c2.51,4.35-.39,9.99-5.13,9.99Z"/><path class="cls-6" d="M122.22,43.8c4.75,0,7.64-5.64,5.13-9.99L109.43,2.81c-.62-1.08-1.77-1.74-3.01-1.74H36c-.92,0-1.8,.36-2.46,1.01L2.99,32.5c-4,4.05-1.34,11.3,4.14,11.3"/></g></symbol></defs><use width="131.44" height="181.32" transform="translate(84.28 62.26)" xlink:href="#Robot_base_1"/><use width="129.35" height="44.87" transform="translate(85.32 232.41)" xlink:href="#Robot_wheels_2"/><use width="152.36" height="59.06" transform="translate(179.53 24.26) rotate(90)" xlink:href="#Robot_eyes_1"/></svg>