<?xml version="1.0" encoding="UTF-8"?><svg id="Robos" xmlns="http://www.w3.org/2000/svg" xmlns:xlink="http://www.w3.org/1999/xlink" viewBox="0 0 300 300"><defs><style>.cls-1{fill:#999;}.cls-1,.cls-2,.cls-3,.cls-4,.cls-5,.cls-6{stroke:#000;stroke-miterlimit:10;}.cls-1,.cls-3,.cls-5,.cls-6{stroke-width:2.16px;}.cls-2{fill:url(#radial-gradient);stroke-width:1.95px;}.cls-2,.cls-4{stroke-linecap:round;}.cls-3{fill:#fff;}.cls-4{stroke-width:2.14px;}.cls-4,.cls-5{fill:#c90000;}.cls-6{fill:#7f7f7f;}</style><radialGradient id="radial-gradient" cx="66.09" cy="80.74" fx="66.09" fy="80.74" r="86.53" gradientTransform="matrix(1, 0, 0, 1, 0, 0)" gradientUnits="userSpaceOnUse"><stop offset=".17" stop-color="#ed3939"/><stop offset=".21" stop-color="#e93333"/><stop offset=".66" stop-color="#c90000"/></radialGradient><symbol id="Robot_base_1" viewBox="0 0 131.44 181.32"><g><rect class="cls-6" x="53.29" y="141.5" width="24.87" height="38.74"/><polyline class="cls-4" points="82.04 143.38 82.04 148.8 49.41 148.8 49.41 143.38"/><polyline class="cls-4" points="119.04 130.47 119.04 142.62 12.4 142.62 12.4 130.47"/><path class="cls-2" d="M65.72,.98h0c35.73,0,64.75,29.01,64.75,64.75v64.75H.98V65.72C.98,29.99,29.99,.98,65.72,.98Z"/><rect class="cls-6" x="52.84" y="32.2" width="25.76" height="78.64" rx="12.88" ry="12.88"/><g><circle class="cls-3" cx="65.72" cy="48.67" r="7.69"/><circle class="cls-3" cx="65.72" cy="71.53" r="7.69"/><circle class="cls-3" cx="65.72" cy="94.38" r="7.69"/></g></g></symbol><symbol id="Robot_wheels_1" viewBox="0 0 161.25 35.61"><g><rect class="cls-1" x="55.55" y="1.19" width="104.62" height="33.34" rx="15.36" ry="15.36"/><rect class="cls-5" x="38.25" y="1.08" width="104.62" height="33.34" rx="15.36" ry="15.36"/><circle class="cls-3" cx="56.41" cy="17.75" r="9.56"/><circle class="cls-3" cx="89.84" cy="17.75" r="9.56"/><circle class="cls-6" cx="123.28" cy="17.75" r="9.56"/><rect class="cls-1" x="18.37" y="1.19" width="104.62" height="33.34" rx="15.36" ry="15.36"/><rect class="cls-5" x="1.08" y="1.08" width="104.62" height="33.34" rx="15.36" ry="15.36"/><circle class="cls-6" cx="19.23" cy="17.75" r="9.56"/><circle class="cls-6" cx="52.67" cy="17.75" r="9.56"/><circle class="cls-6" cx="86.11" cy="17.75" r="9.56"/></g></symbol></defs><use width="131.44" height="181.32" transform="translate(84.28 62.26)" xlink:href="#Robot_base_1"/><use width="161.25" height="35.61" transform="translate(73.01 229.36)" xlink:href="#Robot_wheels_1"/></svg>