<?xml version="1.0" encoding="UTF-8"?><svg id="Robos" xmlns="http://www.w3.org/2000/svg" xmlns:xlink="http://www.w3.org/1999/xlink" viewBox="0 0 300 300"><defs><style>.cls-1,.cls-2,.cls-3,.cls-4,.cls-5,.cls-6,.cls-7,.cls-8{stroke:#000;stroke-miterlimit:10;}.cls-1,.cls-4{fill:#999;}.cls-1,.cls-5,.cls-7,.cls-8{stroke-width:2.16px;}.cls-2,.cls-3,.cls-4,.cls-6{stroke-linecap:round;}.cls-2,.cls-4{stroke-width:2.24px;}.cls-2,.cls-6,.cls-7{fill:#c90000;}.cls-3{fill:url(#radial-gradient);stroke-width:1.95px;}.cls-5{fill:#fff;}.cls-6{stroke-width:2.14px;}.cls-8{fill:#7f7f7f;}</style><symbol id="Robot_arm_4" viewBox="0 0 114.52 152.76"><g><g><polygon class="cls-2" points="11.83 77.9 38.98 133.41 32.98 136.34 5.84 80.83 11.83 77.9"/><polygon class="cls-2" points="23.37 72.26 50.51 127.77 44.52 130.7 17.38 75.19 23.37 72.26"/></g><circle class="cls-2" cx="44.24" cy="137.15" r="14.48"/><circle class="cls-4" cx="44.24" cy="137.15" r="4.89"/><g><polygon class="cls-2" points="45.29 15.25 15.26 69.25 9.44 66.01 39.46 12.01 45.29 15.25"/><polygon class="cls-2" points="56.51 21.49 26.49 75.49 20.66 72.25 50.68 18.25 56.51 21.49"/></g><circle class="cls-2" cx="15.6" cy="72.77" r="14.48"/><circle class="cls-4" cx="15.6" cy="72.77" r="4.89"/><g><polygon class="cls-2" points="98.19 61.79 58.46 14.47 63.57 10.18 103.3 57.5 98.19 61.79"/><polygon class="cls-2" points="88.36 70.05 48.63 22.72 53.74 18.44 93.47 65.76 88.36 70.05"/></g><circle class="cls-2" cx="49.7" cy="15.6" r="14.48"/><circle class="cls-4" cx="49.7" cy="15.6" r="4.89"/><g><g><path class="cls-2" d="M94.53,105.46l-1.42-.4c-.75-.21-1.19-.99-.98-1.74l6.25-22.38c.21-.75,.99-1.19,1.74-.98l1.42,.4c.75,.21,1.19,.99,.98,1.74l-6.25,22.38c-.21,.75-.99,1.19-1.74,.98Z"/><path class="cls-2" d="M95.39,102.04l.72,1.29c.38,.68,.14,1.54-.54,1.92l-20.25,11.41c-.68,.38-1.54,.14-1.92-.54l-.72-1.29c-.38-.68-.14-1.54,.54-1.92l20.25-11.41c.68-.38,1.54-.14,1.92,.54Z"/><circle class="cls-2" cx="94.46" cy="103.41" r="4.2"/></g><g><path class="cls-2" d="M68.93,82.35l1.42,.4c.75,.21,1.19,.99,.98,1.74l-6.25,22.38c-.21,.75-.99,1.19-1.74,.98l-1.42-.4c-.75-.21-1.19-.99-.98-1.74l6.25-22.38c.21-.75,.99-1.19,1.74-.98Z"/><path class="cls-2" d="M68.06,85.76l-.72-1.29c-.38-.68-.14-1.54,.54-1.92l20.25-11.41c.68-.38,1.54-.14,1.92,.54l.72,1.29c.38,.68,.14,1.54-.54,1.92l-20.25,11.41c-.68,.38-1.54,.14-1.92-.54Z"/><circle class="cls-2" cx="68.99" cy="84.39" r="4.2"/></g></g><circle class="cls-2" cx="98.92" cy="71.26" r="14.48"/><circle class="cls-4" cx="98.92" cy="71.26" r="4.89"/></g></symbol><radialGradient id="radial-gradient" cx="66.09" cy="80.74" fx="66.09" fy="80.74" r="86.53" gradientTransform="matrix(1, 0, 0, 1, 0, 0)" gradientUnits="userSpaceOnUse"><stop offset=".17" stop-color="#ed3939"/><stop offset=".21" stop-color="#e93333"/><stop offset=".66" stop-color="#c90000"/></radialGradient><symbol id="Robot_base_1" viewBox="0 0 131.44 181.32"><g><rect class="cls-8" x="53.29" y="141.5" width="24.87" height="38.74"/><polyline class="cls-6" points="82.04 143.38 82.04 148.8 49.41 148.8 49.41 143.38"/><polyline class="cls-6" points="119.04 130.47 119.04 142.62 12.4 142.62 12.4 130.47"/><path class="cls-3" d="M65.72,.98h0c35.73,0,64.75,29.01,64.75,64.75v64.75H.98V65.72C.98,29.99,29.99,.98,65.72,.98Z"/><rect class="cls-8" x="52.84" y="32.2" width="25.76" height="78.64" rx="12.88" ry="12.88"/><g><circle class="cls-5" cx="65.72" cy="48.67" r="7.69"/><circle class="cls-5" cx="65.72" cy="71.53" r="7.69"/><circle class="cls-5" cx="65.72" cy="94.38" r="7.69"/></g></g></symbol><symbol id="Robot_wheels_1" viewBox="0 0 161.25 35.61"><g><rect class="cls-1" x="55.55" y="1.19" width="104.62" height="33.34" rx="15.36" ry="15.36"/><rect class="cls-7" x="38.25" y="1.08" width="104.62" height="33.34" rx="15.36" ry="15.36"/><circle class="cls-5" cx="56.41" cy="17.75" r="9.56"/><circle class="cls-5" cx="89.84" cy="17.75" r="9.56"/><circle class="cls-8" cx="123.28" cy="17.75" r="9.56"/><rect class="cls-1" x="18.37" y="1.19" width="104.62" height="33.34" rx="15.36" ry="15.36"/><rect class="cls-7" x="1.08" y="1.08" width="104.62" height="33.34" rx="15.36" ry="15.36"/><circle class="cls-8" cx="19.23" cy="17.75" r="9.56"/><circle class="cls-8" cx="52.67" cy="17.75" r="9.56"/><circle class="cls-8" cx="86.11" cy="17.75" r="9.56"/></g></symbol></defs><use width="114.52" height="152.76" transform="translate(249.6 -22.29) rotate(42.93)" xlink:href="#Robot_arm_4"/><use width="114.52" height="152.76" transform="translate(49.87 -22.29) rotate(137.07) scale(1 -1)" xlink:href="#Robot_arm_4"/><use width="131.44" height="181.32" transform="translate(84.28 62.26)" xlink:href="#Robot_base_1"/><use width="161.25" height="35.61" transform="translate(73.01 229.36)" xlink:href="#Robot_wheels_1"/></svg>