<?xml version="1.0" encoding="UTF-8" standalone="no"?>
<svg
   viewBox="0 0 300 300"
   version="1.1"
   id="svg138"
   sodipodi:docname="137.svg"
   inkscape:version="1.2 (dc2aedaf03, 2022-05-15)"
   xmlns:inkscape="http://www.inkscape.org/namespaces/inkscape"
   xmlns:sodipodi="http://sodipodi.sourceforge.net/DTD/sodipodi-0.dtd"
   xmlns:xlink="http://www.w3.org/1999/xlink"
   xmlns="http://www.w3.org/2000/svg"
   xmlns:svg="http://www.w3.org/2000/svg">
  <sodipodi:namedview
     id="namedview140"
     pagecolor="#ffffff"
     bordercolor="#666666"
     borderopacity="1.0"
     inkscape:showpageshadow="2"
     inkscape:pageopacity="0.0"
     inkscape:pagecheckerboard="0"
     inkscape:deskcolor="#d1d1d1"
     showgrid="false"
     inkscape:zoom="3.51"
     inkscape:cx="150.2849"
     inkscape:cy="150"
     inkscape:window-width="1276"
     inkscape:window-height="1568"
     inkscape:window-x="1200"
     inkscape:window-y="174"
     inkscape:window-maximized="1"
     inkscape:current-layer="Robos" />
  <defs
     id="defs128">
    <style
       id="style2">.cls-1{fill:gray;stroke-width:1.02px;}.cls-1,.cls-2,.cls-3,.cls-4,.cls-5,.cls-6,.cls-7,.cls-8,.cls-9,.cls-10{stroke-linecap:round;stroke-miterlimit:10;}.cls-1,.cls-2,.cls-3,.cls-4,.cls-6,.cls-7,.cls-8,.cls-9,.cls-10{stroke:#231f20;}.cls-11{fill:#575757;}.cls-12{letter-spacing:0em;}.cls-2{stroke-width:1.46px;}.cls-2,.cls-5{fill:none;}.cls-13{font-family:MyriadPro-Regular, 'Myriad Pro';font-size:12px;}.cls-3,.cls-6{stroke-width:1.59px;}.cls-3,.cls-14,.cls-10{fill:#999;}.cls-4{fill:url(#radial-gradient);}.cls-4,.cls-9,.cls-10{stroke-width:1.89px;}.cls-15{font-family:ArialMT, Arial;font-size:38.14px;}.cls-5{stroke:#575757;}.cls-6,.cls-7,.cls-9{fill:#c90000;}.cls-7{stroke-width:.64px;}.cls-8{fill:#fff;stroke-width:1.75px;}.cls-16{fill:#fa2e19;}.cls-17{fill:#231f20;}</style>
    <radialGradient
       id="radial-gradient"
       cx="103.31"
       cy="70.66"
       fx="103.31"
       fy="70.66"
       r="111.82"
       gradientTransform="matrix(1, 0, 0, 1, 0, 0)"
       gradientUnits="userSpaceOnUse">
      <stop
         offset=".16"
         stop-color="#d9d9d9"
         id="stop4" />
      <stop
         offset=".26"
         stop-color="#cdcdcd"
         id="stop6" />
      <stop
         offset=".45"
         stop-color="#aeaeae"
         id="stop8" />
      <stop
         offset=".7"
         stop-color="#7c7c7c"
         id="stop10" />
      <stop
         offset=".83"
         stop-color="#605f5f"
         id="stop12" />
    </radialGradient>
    <symbol
       id="Robots_AI_1_2"
       viewBox="0 0 206.96 206.74">
      <g
         id="g125">
        <circle
           class="cls-9"
           cx="174.63"
           cy="70.97"
           r="10.62"
           id="circle15" />
        <g
           id="g21">
          <path
             class="cls-14"
             d="M173.88,172.89c-2.85,2.78-4.54,6.72-4.58,10.7-.04,3.98,1.57,7.95,4.37,10.78,1.14,1.16,2.56,2.16,4.17,2.35,1.62,.19,3.43-.64,3.94-2.18-3.69-2.26-5.92-6.72-5.5-11.04,.42-4.31,3.45-8.27,7.51-9.78"
             id="path17" />
          <path
             class="cls-17"
             d="M173.21,172.22c-3.5,3.45-5.36,8.49-4.73,13.38,.31,2.44,1.14,4.81,2.48,6.88s3.14,4.01,5.46,4.86,5.35-.03,6.28-2.56c.15-.4-.1-.86-.43-1.07-2.69-1.68-4.52-4.57-4.98-7.7s.57-6.14,2.58-8.42c1.14-1.3,2.57-2.35,4.19-2.97,.48-.18,.81-.64,.66-1.16-.13-.46-.68-.85-1.16-.66-3.44,1.32-6.13,4.05-7.46,7.48s-.91,7.37,.9,10.56c1.04,1.84,2.53,3.4,4.33,4.52l-.43-1.07c-.61,1.66-2.82,1.75-4.19,1.14-1.83-.83-3.28-2.55-4.31-4.23-2.15-3.51-2.7-7.8-1.46-11.73,.71-2.23,1.96-4.26,3.63-5.9,.87-.86-.47-2.19-1.34-1.34h0Z"
             id="path19" />
        </g>
        <g
           id="g27">
          <path
             class="cls-14"
             d="M198.24,172.89c2.85,2.78,4.54,6.72,4.58,10.7,.04,3.98-1.57,7.95-4.37,10.78-1.14,1.16-2.56,2.16-4.17,2.35s-3.43-.64-3.94-2.18c3.69-2.26,5.92-6.72,5.5-11.04-.42-4.31-3.45-8.27-7.51-9.78"
             id="path23" />
          <path
             class="cls-17"
             d="M197.57,173.56c2.92,2.88,4.52,6.94,4.27,11.04-.23,3.88-2.25,8.24-5.62,10.38-.88,.56-1.92,.96-2.97,.78-.84-.15-1.71-.63-2.02-1.47l-.43,1.07c3.15-1.97,5.35-5.33,5.88-9.02s-.66-7.3-3.09-10.07c-1.37-1.55-3.1-2.72-5.02-3.46-1.14-.44-1.63,1.39-.5,1.82,2.83,1.08,5.15,3.49,6.2,6.32s.77,6.2-.77,8.93c-.89,1.56-2.12,2.89-3.65,3.84-.33,.21-.58,.67-.43,1.07,.79,2.16,3.11,3.19,5.31,2.81,2.46-.42,4.42-2.37,5.86-4.29,2.95-3.96,3.93-9.23,2.56-13.97-.78-2.69-2.24-5.16-4.23-7.12-.87-.86-2.21,.48-1.34,1.34h0Z"
             id="path25" />
        </g>
        <g
           id="g33">
          <path
             class="cls-14"
             d="M183.83,74.11c-.12-2.14-2.33-3.92-4.45-3.59s-4.16,2.7-3.6,4.77c0,0,4.76,28.39,6.87,41.93-.1-1.07,7.97,.65,7.87-.42"
             id="path29" />
          <path
             class="cls-17"
             d="M184.77,74.11c-.22-2.66-2.68-4.87-5.39-4.53-2.43,.3-4.81,2.69-4.63,5.23,.04,.57,.19,1.17,.28,1.73,.17,1.04,.35,2.08,.52,3.12,1.34,8.04,2.68,16.08,3.99,24.12,.74,4.56,1.49,9.13,2.2,13.69,.17,1.07,1.87,.79,1.86-.25,0,.19-.09,.37-.21,.5-.07,.08-.19,.14-.22,.14,.05,0,.11-.04,.16-.04,.24,0-.18,0,.04,0,.35-.02,.71-.02,1.06-.01,.96,.03,1.92,.13,2.87,.2,1.07,.08,4.2,.61,4.17-1.22-.02-1.22-1.91-1.22-1.89,0,0-.19,.09-.37,.21-.5,.07-.08,.19-.14,.22-.14-.05,0-.11,.04-.16,.04-.24,0,.18,0-.04,0-.35,.02-.71,.02-1.06,.01-.96-.03-1.92-.13-2.87-.2-1.07-.08-4.2-.61-4.17,1.22l1.86-.25c-1.25-8.02-2.57-16.02-3.9-24.03-.96-5.8-1.92-11.6-2.89-17.4-.03-.16-.05-.32-.08-.48-.18-.93,.2-1.79,.84-2.46,.81-.85,1.95-1.39,3.13-1.06s2.12,1.37,2.22,2.57,1.99,1.22,1.89,0h0Z"
             id="path31" />
        </g>
        <g
           id="g39">
          <path
             class="cls-16"
             d="M183.91,74.42l6.63,41.66-.45-1.54"
             id="path35" />
          <path
             class="cls-17"
             d="M183,74.67l5.18,32.54,1.45,9.12,1.82-.5-.45-1.54c-.34-1.17-2.17-.67-1.82,.5l.45,1.54c.35,1.19,2.01,.68,1.82-.5l-5.18-32.54-1.45-9.12c-.08-.5-.71-.79-1.16-.66-.54,.15-.74,.66-.66,1.16h0Z"
             id="path37" />
        </g>
        <path
           class="cls-10"
           d="M201.61,173.11h-30.47c-2.46,0-4.44-1.84-4.41-4.08l.97-37.68c0-9.42,8.36-17.06,18.68-17.06h0c10.32,0,18.68,7.64,18.68,17.06l.97,37.68c.03,2.25-1.95,4.08-4.41,4.08Z"
           id="path41" />
        <rect
           class="cls-7"
           x="167.57"
           y="142.01"
           width="37.81"
           height="5.47"
           id="rect43" />
        <circle
           class="cls-9"
           cx="32.33"
           cy="70.97"
           r="10.62"
           id="circle45" />
        <g
           id="g51">
          <path
             class="cls-14"
             d="M33.08,172.89c2.85,2.78,4.54,6.72,4.58,10.7,.04,3.98-1.57,7.95-4.37,10.78-1.14,1.16-2.56,2.16-4.17,2.35s-3.43-.64-3.94-2.18c3.69-2.26,5.92-6.72,5.5-11.04-.42-4.31-3.45-8.27-7.51-9.78"
             id="path47" />
          <path
             class="cls-17"
             d="M32.41,173.56c2.92,2.88,4.52,6.94,4.27,11.04-.23,3.88-2.25,8.24-5.62,10.38-.88,.56-1.92,.96-2.97,.78-.84-.15-1.71-.63-2.02-1.47l-.43,1.07c3.15-1.97,5.35-5.33,5.88-9.02s-.66-7.3-3.09-10.07c-1.37-1.55-3.1-2.72-5.02-3.46-1.14-.44-1.63,1.39-.5,1.82,2.83,1.08,5.15,3.49,6.2,6.32s.77,6.2-.77,8.93c-.89,1.56-2.12,2.89-3.65,3.84-.33,.21-.58,.67-.43,1.07,.79,2.16,3.11,3.19,5.31,2.81,2.46-.42,4.42-2.37,5.86-4.29,2.95-3.96,3.93-9.23,2.56-13.97-.78-2.69-2.24-5.16-4.23-7.12-.87-.86-2.21,.48-1.34,1.34h0Z"
             id="path49" />
        </g>
        <g
           id="g57">
          <path
             class="cls-14"
             d="M8.72,172.89c-2.85,2.78-4.54,6.72-4.58,10.7-.04,3.98,1.57,7.95,4.37,10.78,1.14,1.16,2.56,2.16,4.17,2.35s3.43-.64,3.94-2.18c-3.69-2.26-5.92-6.72-5.5-11.04,.42-4.31,3.45-8.27,7.51-9.78"
             id="path53" />
          <path
             class="cls-17"
             d="M8.06,172.22c-3.5,3.45-5.36,8.49-4.73,13.38,.31,2.44,1.14,4.81,2.48,6.88s3.14,4.01,5.46,4.86,5.35-.03,6.28-2.56c.15-.4-.1-.86-.43-1.07-2.69-1.68-4.52-4.57-4.98-7.7s.57-6.14,2.58-8.42c1.14-1.3,2.57-2.35,4.19-2.97,.48-.18,.81-.64,.66-1.16-.13-.46-.68-.85-1.16-.66-3.44,1.32-6.13,4.05-7.46,7.48s-.91,7.37,.9,10.56c1.04,1.84,2.53,3.4,4.33,4.52l-.43-1.07c-.61,1.66-2.82,1.75-4.19,1.14-1.83-.83-3.28-2.55-4.31-4.23-2.15-3.51-2.7-7.8-1.46-11.73,.71-2.23,1.96-4.26,3.63-5.9,.87-.86-.47-2.19-1.34-1.34h0Z"
             id="path55" />
        </g>
        <rect
           class="cls-3"
           x="101.73"
           y="151.78"
           width="3.16"
           height="20.8"
           id="rect59" />
        <circle
           class="cls-10"
           cx="103.31"
           cy="146.82"
           r="11.85"
           id="circle61" />
        <circle
           class="cls-10"
           cx="103.31"
           cy="173.13"
           r="4.66"
           id="circle63" />
        <ellipse
           class="cls-6"
           cx="103.31"
           cy="131.46"
           rx="29.2"
           ry="16.09"
           id="ellipse65" />
        <circle
           class="cls-4"
           cx="103.31"
           cy="70.66"
           r="69.71"
           id="circle67" />
        <ellipse
           class="cls-2"
           cx="103.31"
           cy="188.17"
           rx="15.33"
           ry="3.9"
           id="ellipse69" />
        <ellipse
           class="cls-2"
           cx="103.31"
           cy="202.38"
           rx="13.1"
           ry="3.62"
           id="ellipse71" />
        <g
           id="g77">
          <path
             class="cls-14"
             d="M23.14,74.11c.12-2.14,2.33-3.92,4.45-3.59,2.12,.34,4.16,2.7,3.6,4.77,0,0-4.76,28.39-6.87,41.93,.1-1.07-7.97,.65-7.87-.42"
             id="path73" />
          <path
             class="cls-17"
             d="M24.08,74.11c.09-1.06,.86-1.98,1.81-2.42,1-.46,2.05-.26,2.93,.36,1.07,.76,1.64,1.9,1.42,3.19-.33,1.84-.62,3.69-.93,5.54-1.3,7.79-2.59,15.58-3.86,23.37-.7,4.27-1.39,8.54-2.05,12.82l1.86,.25c.03-1.83-3.1-1.3-4.17-1.22-.96,.07-1.91,.17-2.87,.2-.35,.01-.71,0-1.06-.01-.23-.01,.18,.02-.01,0-.02,0-.15-.02-.16-.04-.04-.08,.1,.06,.13,.08,.16,.14,.28,.33,.28,.56,.02-1.22-1.87-1.22-1.89,0-.03,1.83,3.1,1.3,4.17,1.22,.96-.07,1.91-.17,2.87-.2,.35-.01,.71,0,1.06,.01,.23,.01-.18-.02,.01,0,.02,0,.15,.02,.16,.04,.04,.08-.1-.06-.13-.08-.16-.14-.28-.33-.28-.56-.02,1.04,1.69,1.33,1.86,.25,1.33-8.54,2.74-17.06,4.15-25.58,.9-5.44,1.73-10.89,2.72-16.32,.47-2.57-1.18-4.95-3.61-5.8-2.95-1.03-6.05,1.35-6.29,4.33-.1,1.21,1.79,1.21,1.89,0h0Z"
             id="path75" />
        </g>
        <g
           id="g83">
          <path
             class="cls-16"
             d="M23.05,74.42l-6.63,41.66,.45-1.54"
             id="path79" />
          <path
             class="cls-17"
             d="M22.14,74.17l-5.18,32.54-1.45,9.12c-.19,1.18,1.47,1.7,1.82,.5l.45-1.54c.34-1.17-1.48-1.67-1.82-.5l-.45,1.54,1.82,.5,5.18-32.54,1.45-9.12c.08-.51-.13-1.01-.66-1.16-.45-.13-1.08,.16-1.16,.66h0Z"
             id="path81" />
        </g>
        <path
           class="cls-10"
           d="M5.36,173.11h30.47c2.46,0,4.44-1.84,4.41-4.08l-.97-37.68c0-9.42-8.36-17.06-18.68-17.06h0c-10.32,0-18.68,7.64-18.68,17.06l-.97,37.68c-.03,2.25,1.95,4.08,4.41,4.08Z"
           id="path85" />
        <circle
           class="cls-1"
           cx="73.02"
           cy="95.1"
           r="11.59"
           id="circle87" />
        <circle
           class="cls-8"
           cx="73.02"
           cy="95.1"
           r="8.39"
           id="circle89" />
        <circle
           class="cls-1"
           cx="131.19"
           cy="95.1"
           r="11.59"
           id="circle91" />
        <circle
           class="cls-8"
           cx="131.19"
           cy="95.1"
           r="8.39"
           id="circle93" />
        <rect
           class="cls-7"
           x="1.58"
           y="142.01"
           width="37.81"
           height="5.47"
           id="rect95" />
        <g
           id="g117">
          <g
             id="g101">
            <path
               class="cls-11"
               d="M51.07,29.48c2.35-1.69,5.38-2.1,8.17-1.52,1.33,.28,2.62,.77,3.76,1.51,1.24,.81,2.23,1.98,3.05,3.2,1.81,2.74,2.73,5.99,3.02,9.24,.27,2.95,.64,5.88,1.32,8.77,1.12,4.76,2.99,9.43,5.96,13.35,2.55,3.37,5.85,6.11,9.67,7.93,4.58,2.18,9.67,3.03,14.72,3.04,.64,0,.64-1,0-1-4.56,0-9.17-.7-13.37-2.52-3.92-1.7-7.35-4.35-9.98-7.73-3.06-3.94-4.95-8.67-6.07-13.51-.68-2.96-.97-5.93-1.31-8.94s-1.27-6.29-2.99-8.97-4.17-4.6-7.34-5.3-6.51-.3-9.11,1.58c-.52,.37-.02,1.24,.5,.86h0Z"
               id="path97" />
            <path
               class="cls-11"
               d="M155.85,28.62c-4.49-3.24-11.47-2.24-15.07,1.87-2.09,2.39-3.37,5.4-4.01,8.5-.32,1.55-.42,3.12-.59,4.7s-.37,3-.65,4.49c-.94,5.02-2.63,9.97-5.52,14.22-2.42,3.56-5.69,6.47-9.53,8.42-4.57,2.32-9.72,3.19-14.81,3.2-.64,0-.64,1,0,1,4.51,0,9.07-.67,13.26-2.4,3.94-1.62,7.45-4.13,10.19-7.4,3.09-3.68,5.14-8.1,6.43-12.71,.75-2.7,1.25-5.46,1.56-8.25,.18-1.61,.26-3.22,.58-4.81s.8-3.19,1.5-4.68c.77-1.63,1.78-3.17,3.09-4.41,1.08-1.03,2.46-1.72,3.88-2.14,3.06-.91,6.54-.64,9.18,1.26,.52,.38,1.02-.49,.5-.86h0Z"
               id="path99" />
          </g>
          <path
             class="cls-11"
             d="M125.63,121.71c.02-.9-.76-1.42-1.61-1.38-.6,.03-1.01,.35-1.39,.79-.57,.68-1.24,1.29-1.92,1.86-2.66,2.25-5.83,3.91-9.15,4.93-2.72,.84-5.55,1.22-8.4,1.23-.64,0-.64,1,0,1h.06c.64,0,.64-1,0-1-4.64-.02-9.24-1.08-13.33-3.3-2.19-1.19-4.33-2.69-5.99-4.56-.37-.42-.69-.8-1.27-.92-.91-.18-1.89,.33-1.87,1.34,.01,.64,1.01,.64,1,0,0-.38,.42-.44,.72-.35,.23,.07,.36,.22,.5,.4,.19,.23,.39,.45,.6,.66,.75,.77,1.57,1.46,2.43,2.11,2.78,2.12,6,3.66,9.37,4.58,2.55,.69,5.19,1.02,7.83,1.03v-1h-.06v1c7.05-.02,14.33-2.49,19.42-7.51,.26-.26,.52-.52,.76-.8,.11-.13,.2-.28,.34-.37,.3-.2,.96-.21,.95,.26-.01,.64,.99,.64,1,0h0Z"
             id="path103" />
          <path
             class="cls-11"
             d="M99.01,104.01h8.38c.64,0,.64-1,0-1h-8.38c-.64,0-.64,1,0,1h0Z"
             id="path105" />
          <path
             class="cls-11"
             d="M96.47,95.81h13.46c.64,0,.64-1,0-1h-13.46c-.64,0-.64,1,0,1h0Z"
             id="path107" />
          <path
             class="cls-5"
             d="M103.32,132.24c0,1.61,0,3.23,0,4.84"
             id="path109" />
          <path
             class="cls-5"
             d="M103.31,106.24c0,7.07,.01,14.14,0,21.2"
             id="path111" />
          <path
             class="cls-5"
             d="M103.31,97.97c0,1.12,0,2.23,0,3.35"
             id="path113" />
          <path
             class="cls-5"
             d="M103.31,4.37c.01,29.28,.01,59.28,0,88.22"
             id="path115" />
        </g>
        <text
           class="cls-13"
           transform="translate(113.18 37.38)"
           id="text123"><tspan
             class="cls-12"
             x="0"
             y="0"
             id="tspan119">r</tspan><tspan
             x="3.8"
             y="0"
             id="tspan121">ed</tspan></text>
      </g>
    </symbol>
  </defs>
  <g
     id="Robos">
    <use
       width="206.96"
       height="206.74"
       transform="translate(50.05 73.55)"
       xlink:href="#Robots_AI_1_2"
       id="use130" />
  </g>
</svg>
