<?xml version="1.0" encoding="UTF-8"?><svg id="Robos" xmlns="http://www.w3.org/2000/svg" xmlns:xlink="http://www.w3.org/1999/xlink" viewBox="0 0 300 300"><defs><style>.cls-1{stroke-width:1.25px;}.cls-1,.cls-2,.cls-3,.cls-4,.cls-5,.cls-6,.cls-7,.cls-8,.cls-9,.cls-10,.cls-11{stroke:#000;stroke-miterlimit:10;}.cls-1,.cls-3,.cls-7,.cls-9,.cls-10{fill:#c90000;}.cls-1,.cls-7,.cls-9{stroke-linecap:round;}.cls-2{fill:#999;}.cls-2,.cls-8,.cls-10,.cls-11{stroke-width:2.16px;}.cls-3{stroke-width:2.04px;}.cls-4{fill:#a31e10;stroke-width:1.47px;}.cls-5{fill:url(#radial-gradient);}.cls-5,.cls-6{stroke-width:1.39px;}.cls-6{fill:#ccc;}.cls-7{stroke-width:1.75px;}.cls-8{fill:#fff;}.cls-9{stroke-width:2.14px;}.cls-11{fill:#7f7f7f;}</style><symbol id="Robot_arm_1" viewBox="0 0 96.45 86.24"><g><polygon class="cls-7" points="16.92 69.51 8 43.7 4.35 44.96 13.26 70.77 16.92 69.51"/><polygon class="cls-7" points="7.74 42.01 31.15 18.04 28.31 15.41 4.9 39.39 7.74 42.01"/><circle class="cls-7" cx="5.26" cy="41.7" r="4.39"/><polygon class="cls-7" points="33.57 17.89 60.88 17.89 60.88 14.02 33.57 14.02 33.57 17.89"/><path class="cls-7" d="M61.15,22.79h7.19c1.65,0,2.98-1.33,2.98-2.98v-7.71c0-1.65-1.33-2.98-2.98-2.98h-7.19c-1.65,0-2.98,1.33-2.98,2.98v7.71c0,1.65,1.33,2.98,2.98,2.98Z"/><path class="cls-7" d="M73.15,31.03h15.85c3.63,0,6.57-2.94,6.57-6.57V7.45c0-3.63-2.94-6.57-6.57-6.57h-15.85c-3.63,0-6.57,2.94-6.57,6.57V24.46c0,3.63,2.94,6.57,6.57,6.57Z"/><circle class="cls-7" cx="32.29" cy="15.95" r="4.39"/><g><g><path class="cls-1" d="M28.6,84.12h0c.35-.45,.26-1.1-.2-1.45l-8.33-6.33c-.45-.35-1.1-.26-1.45,.2h0c-.35,.45-.26,1.1,.2,1.45l8.33,6.33c.45,.35,1.1,.26,1.45-.2Z"/><path class="cls-1" d="M27.11,83.69h0c.08,.57,.6,.96,1.16,.88l10.37-1.41c.57-.08,.96-.6,.88-1.16h0c-.08-.57-.6-.96-1.16-.88l-10.37,1.41c-.57,.08-.96,.6-.88,1.16Z"/><circle class="cls-1" cx="27.82" cy="83.6" r="2.02"/></g><g><path class="cls-1" d="M31.27,68.4h0c-.35,.45-.26,1.1,.2,1.45l8.33,6.33c.45,.35,1.1,.26,1.45-.2h0c.35-.45,.26-1.1-.2-1.45l-8.33-6.33c-.45-.35-1.1-.26-1.45,.2Z"/><path class="cls-1" d="M32.76,68.82h0c-.08-.57-.6-.96-1.16-.88l-10.37,1.41c-.57,.08-.96,.6-.88,1.16h0c.08,.57,.6,.96,1.16,.88l10.37-1.41c.57-.08,.96-.6,.88-1.16Z"/><circle class="cls-1" cx="32.05" cy="68.92" r="2.02"/></g></g><g><circle class="cls-7" cx="16.29" cy="72.95" r="6.96"/><circle class="cls-7" cx="16.29" cy="72.95" r="2.35"/></g></g></symbol><radialGradient id="radial-gradient" cx="65.77" cy="66.28" fx="65.77" fy="66.28" r="119.65" gradientTransform="matrix(1, 0, 0, 1, 0, 0)" gradientUnits="userSpaceOnUse"><stop offset=".15" stop-color="#e0e0e0"/><stop offset=".22" stop-color="#d5d5d5"/><stop offset=".34" stop-color="#b7b7b7"/><stop offset=".5" stop-color="#888"/><stop offset=".69" stop-color="#474747"/><stop offset=".69" stop-color="#454545"/></radialGradient><symbol id="Robot_base_4" viewBox="0 0 131.53 168.9"><g><rect class="cls-11" x="53.33" y="129.08" width="24.87" height="38.74"/><polyline class="cls-9" points="88.1 131 88.1 136.96 43.44 136.96 43.44 131"/><rect class="cls-3" x="1.02" y="1.02" width="129.49" height="129.49" rx="17.48" ry="17.48"/><path class="cls-6" d="M107.35,122.29l-83.29-.1c-7.91,0-14.31-6.43-14.3-14.33l.1-83.29c0-7.91,6.43-14.31,14.33-14.3l83.29,.1c7.91,0,14.31,6.43,14.3,14.33l-.1,83.29c0,7.91-6.43,14.31-14.33,14.3Z"/><g><polygon class="cls-5" points="21.49 21.9 110.15 22 110.04 110.66 21.39 110.56 21.49 21.9"/><line class="cls-4" x1="21.41" y1="95.78" x2="110.06" y2="95.88"/><line class="cls-4" x1="21.42" y1="81" x2="110.08" y2="81.11"/><line class="cls-4" x1="21.44" y1="66.23" x2="110.09" y2="66.33"/><line class="cls-4" x1="21.46" y1="51.45" x2="110.11" y2="51.56"/><line class="cls-4" x1="21.47" y1="36.68" x2="110.13" y2="36.78"/><line class="cls-4" x1="95.37" y1="21.99" x2="95.27" y2="110.64"/><line class="cls-4" x1="80.59" y1="21.97" x2="80.49" y2="110.62"/><line class="cls-4" x1="65.82" y1="21.95" x2="65.72" y2="110.61"/><line class="cls-4" x1="51.04" y1="21.93" x2="50.94" y2="110.59"/><line class="cls-4" x1="36.27" y1="21.92" x2="36.16" y2="110.57"/></g></g></symbol><symbol id="Robot_wheels_1" viewBox="0 0 161.25 35.61"><g><rect class="cls-2" x="55.55" y="1.19" width="104.62" height="33.34" rx="15.36" ry="15.36"/><rect class="cls-10" x="38.25" y="1.08" width="104.62" height="33.34" rx="15.36" ry="15.36"/><circle class="cls-8" cx="56.41" cy="17.75" r="9.56"/><circle class="cls-8" cx="89.84" cy="17.75" r="9.56"/><circle class="cls-11" cx="123.28" cy="17.75" r="9.56"/><rect class="cls-2" x="18.37" y="1.19" width="104.62" height="33.34" rx="15.36" ry="15.36"/><rect class="cls-10" x="1.08" y="1.08" width="104.62" height="33.34" rx="15.36" ry="15.36"/><circle class="cls-11" cx="19.23" cy="17.75" r="9.56"/><circle class="cls-11" cx="52.67" cy="17.75" r="9.56"/><circle class="cls-11" cx="86.11" cy="17.75" r="9.56"/></g></symbol></defs><use width="96.45" height="86.24" transform="translate(6.43 118.63)" xlink:href="#Robot_arm_1"/><use width="96.45" height="86.24" transform="translate(294.43 118.63) rotate(-180) scale(1 -1)" xlink:href="#Robot_arm_1"/><use width="131.53" height="168.9" transform="translate(84.23 69.74)" xlink:href="#Robot_base_4"/><use width="161.25" height="35.61" transform="translate(73.01 229.36)" xlink:href="#Robot_wheels_1"/></svg>