<?xml version="1.0" encoding="UTF-8"?><svg id="Robos" xmlns="http://www.w3.org/2000/svg" xmlns:xlink="http://www.w3.org/1999/xlink" viewBox="0 0 300 300"><defs><style>.cls-1,.cls-2,.cls-3,.cls-4,.cls-5,.cls-6,.cls-7,.cls-8,.cls-9,.cls-10,.cls-11{stroke:#000;stroke-miterlimit:10;}.cls-1,.cls-7,.cls-10,.cls-11{stroke-width:2.16px;}.cls-1,.cls-8{fill:#999;}.cls-2{stroke-width:2.04px;}.cls-2,.cls-6,.cls-9,.cls-10{fill:#c90000;}.cls-3{fill:#a31e10;stroke-width:1.47px;}.cls-4{fill:url(#radial-gradient);}.cls-4,.cls-5{stroke-width:1.39px;}.cls-5{fill:#ccc;}.cls-6,.cls-8{stroke-width:1.47px;}.cls-6,.cls-8,.cls-9{stroke-linecap:round;}.cls-7{fill:#fff;}.cls-9{stroke-width:2.14px;}.cls-11{fill:#7f7f7f;}</style><symbol id="Robot_arm_3" viewBox="0 0 96.95 93.53"><g><path class="cls-9" d="M79.32,54.91h0c9.15,0,16.56-7.41,16.56-16.56V18.4c0-9.15-7.41-16.56-16.56-16.56h0c-9.15,0-16.56,7.41-16.56,16.56v19.96c0,9.15,7.41,16.56,16.56,16.56Z"/><circle class="cls-8" cx="72.61" cy="13.1" r="2.17"/><circle class="cls-8" cx="72.61" cy="20.53" r="2.17"/><g><polygon class="cls-6" points="35.33 8.62 66.68 34.41 69.46 31.02 38.11 5.24 35.33 8.62"/><polygon class="cls-6" points="29.97 15.14 61.32 40.92 64.1 37.54 32.76 11.75 29.97 15.14"/></g><g><circle class="cls-6" cx="65.29" cy="34.77" r="9.51"/><circle class="cls-8" cx="65.29" cy="34.77" r="3.21"/></g><g><polygon class="cls-6" points="8.5 48.19 27.92 12.55 24.07 10.46 4.65 46.1 8.5 48.19"/><polygon class="cls-6" points="15.91 52.23 35.32 16.59 31.48 14.49 12.06 50.13 15.91 52.23"/></g><g><circle class="cls-6" cx="31.48" cy="10.25" r="9.51"/><circle class="cls-8" cx="31.48" cy="10.25" r="3.21"/></g><g><polygon class="cls-6" points="37.06 82.03 9.5 52.23 6.29 55.21 33.85 85 37.06 82.03"/><polygon class="cls-6" points="43.25 76.3 15.69 46.5 12.48 49.48 40.04 79.27 43.25 76.3"/></g><g><circle class="cls-6" cx="10.25" cy="50.52" r="9.51"/><circle class="cls-8" cx="10.25" cy="50.52" r="3.21"/></g><g><g><path class="cls-6" d="M65.84,84.17h0c-.08-.78-.77-1.34-1.55-1.27l-14.23,1.42c-.78,.08-1.34,.77-1.27,1.55h0c.08,.78,.77,1.34,1.55,1.27l14.23-1.42c.78-.08,1.34-.77,1.27-1.55Z"/><path class="cls-6" d="M63.95,85.13h0c.6,.49,1.49,.41,1.99-.2l9.05-11.06c.49-.6,.41-1.49-.2-1.99h0c-.6-.49-1.49-.41-1.99,.2l-9.05,11.06c-.49,.6-.41,1.49,.2,1.99Z"/><circle class="cls-6" cx="64.57" cy="84.38" r="2.76"/></g><g><path class="cls-6" d="M53.87,65.96h0c.08,.78,.77,1.34,1.55,1.27l14.23-1.42c.78-.08,1.34-.77,1.27-1.55h0c-.08-.78-.77-1.34-1.55-1.27l-14.23,1.42c-.78,.08-1.34,.77-1.27,1.55Z"/><path class="cls-6" d="M55.76,65h0c-.6-.49-1.49-.41-1.99,.2l-9.05,11.06c-.49,.6-.41,1.49,.2,1.99h0c.6,.49,1.49,.41,1.99-.2l9.05-11.06c.49-.6,.41-1.49-.2-1.99Z"/><circle class="cls-6" cx="55.14" cy="65.75" r="2.76"/></g></g><g><circle class="cls-6" cx="43.17" cy="83.29" r="9.51"/><circle class="cls-8" cx="43.17" cy="83.29" r="3.21"/></g></g></symbol><radialGradient id="radial-gradient" cx="65.77" cy="66.28" fx="65.77" fy="66.28" r="119.65" gradientTransform="matrix(1, 0, 0, 1, 0, 0)" gradientUnits="userSpaceOnUse"><stop offset=".15" stop-color="#e0e0e0"/><stop offset=".22" stop-color="#d5d5d5"/><stop offset=".34" stop-color="#b7b7b7"/><stop offset=".5" stop-color="#888"/><stop offset=".69" stop-color="#474747"/><stop offset=".69" stop-color="#454545"/></radialGradient><symbol id="Robot_base_4" viewBox="0 0 131.53 168.9"><g><rect class="cls-11" x="53.33" y="129.08" width="24.87" height="38.74"/><polyline class="cls-9" points="88.1 131 88.1 136.96 43.44 136.96 43.44 131"/><rect class="cls-2" x="1.02" y="1.02" width="129.49" height="129.49" rx="17.48" ry="17.48"/><path class="cls-5" d="M107.35,122.29l-83.29-.1c-7.91,0-14.31-6.43-14.3-14.33l.1-83.29c0-7.91,6.43-14.31,14.33-14.3l83.29,.1c7.91,0,14.31,6.43,14.3,14.33l-.1,83.29c0,7.91-6.43,14.31-14.33,14.3Z"/><g><polygon class="cls-4" points="21.49 21.9 110.15 22 110.04 110.66 21.39 110.56 21.49 21.9"/><line class="cls-3" x1="21.41" y1="95.78" x2="110.06" y2="95.88"/><line class="cls-3" x1="21.42" y1="81" x2="110.08" y2="81.11"/><line class="cls-3" x1="21.44" y1="66.23" x2="110.09" y2="66.33"/><line class="cls-3" x1="21.46" y1="51.45" x2="110.11" y2="51.56"/><line class="cls-3" x1="21.47" y1="36.68" x2="110.13" y2="36.78"/><line class="cls-3" x1="95.37" y1="21.99" x2="95.27" y2="110.64"/><line class="cls-3" x1="80.59" y1="21.97" x2="80.49" y2="110.62"/><line class="cls-3" x1="65.82" y1="21.95" x2="65.72" y2="110.61"/><line class="cls-3" x1="51.04" y1="21.93" x2="50.94" y2="110.59"/><line class="cls-3" x1="36.27" y1="21.92" x2="36.16" y2="110.57"/></g></g></symbol><symbol id="Robot_wheels_1" viewBox="0 0 161.25 35.61"><g><rect class="cls-1" x="55.55" y="1.19" width="104.62" height="33.34" rx="15.36" ry="15.36"/><rect class="cls-10" x="38.25" y="1.08" width="104.62" height="33.34" rx="15.36" ry="15.36"/><circle class="cls-7" cx="56.41" cy="17.75" r="9.56"/><circle class="cls-7" cx="89.84" cy="17.75" r="9.56"/><circle class="cls-11" cx="123.28" cy="17.75" r="9.56"/><rect class="cls-1" x="18.37" y="1.19" width="104.62" height="33.34" rx="15.36" ry="15.36"/><rect class="cls-10" x="1.08" y="1.08" width="104.62" height="33.34" rx="15.36" ry="15.36"/><circle class="cls-11" cx="19.23" cy="17.75" r="9.56"/><circle class="cls-11" cx="52.67" cy="17.75" r="9.56"/><circle class="cls-11" cx="86.11" cy="17.75" r="9.56"/></g></symbol></defs><use width="96.95" height="93.53" transform="translate(1.54 123.66)" xlink:href="#Robot_arm_3"/><use width="96.95" height="93.53" transform="translate(298.67 123.66) rotate(-180) scale(1 -1)" xlink:href="#Robot_arm_3"/><use width="131.53" height="168.9" transform="translate(84.23 69.74)" xlink:href="#Robot_base_4"/><use width="161.25" height="35.61" transform="translate(73.01 229.36)" xlink:href="#Robot_wheels_1"/></svg>