<?xml version="1.0" encoding="UTF-8"?><svg id="Robos" xmlns="http://www.w3.org/2000/svg" xmlns:xlink="http://www.w3.org/1999/xlink" viewBox="0 0 300 300"><defs><style>.cls-1,.cls-2,.cls-3,.cls-4{fill:#c90000;}.cls-5,.cls-6,.cls-7,.cls-8,.cls-9,.cls-10,.cls-11,.cls-12,.cls-13,.cls-2,.cls-3,.cls-14,.cls-4{stroke-miterlimit:10;}.cls-5,.cls-6,.cls-7,.cls-9,.cls-10,.cls-12,.cls-13,.cls-2,.cls-3,.cls-14,.cls-4{stroke:#000;}.cls-5,.cls-10{fill:#999;}.cls-5,.cls-13,.cls-3,.cls-14{stroke-width:2.16px;}.cls-15,.cls-7,.cls-8,.cls-13{fill:#fff;}.cls-6{fill:url(#radial-gradient);stroke-width:1.89px;}.cls-6,.cls-7,.cls-12,.cls-2{stroke-linecap:round;}.cls-7,.cls-12,.cls-2{stroke-width:2.14px;}.cls-8{stroke-width:.26px;}.cls-8,.cls-11{stroke:#999;}.cls-9{fill:#ccc;stroke-width:1.42px;}.cls-10,.cls-4{stroke-width:1.44px;}.cls-11{fill:none;stroke-width:2.82px;}.cls-12{fill:#fa2e19;}.cls-14{fill:#7f7f7f;}</style><radialGradient id="radial-gradient" cx="74.72" cy="61.29" fx="74.72" fy="61.29" r="104.22" gradientTransform="matrix(1, 0, 0, 1, 0, 0)" gradientUnits="userSpaceOnUse"><stop offset=".15" stop-color="#c8c8c8"/><stop offset=".26" stop-color="#b4b4b4"/><stop offset=".73" stop-color="#646464"/><stop offset=".94" stop-color="#454545"/></radialGradient><symbol id="Robot_base_2_2" viewBox="0 0 148.17 121.46"><g><rect class="cls-14" x="61.65" y="81.63" width="24.87" height="38.74"/><path class="cls-6" d="M147.12,69.26C147.12,31.53,114.41,.95,74.05,.95S.98,31.53,.98,69.26c0,1.08-.07,2.15-.01,3.22v10.24H147.2v-9.69c.07-1.25-.08-2.5-.08-3.76Z"/><polygon class="cls-1" points="2.06 64.37 146.11 64.37 145.56 59.42 2.65 59.42 2.06 64.37"/><polyline class="cls-2" points="96.41 83.55 96.41 89.52 51.76 89.52 51.76 83.55"/><g><circle class="cls-7" cx="89.67" cy="44.87" r="5.25"/><circle class="cls-7" cx="74.08" cy="44.87" r="5.25"/><circle class="cls-7" cx="58.5" cy="44.87" r="5.25"/></g><line class="cls-12" x1="1.76" y1="64.37" x2="146.41" y2="64.37"/><line class="cls-12" x1="2.21" y1="59.42" x2="145.95" y2="59.42"/></g></symbol><symbol id="Robot_eyes_1_2" viewBox="0 0 152.36 59.06"><g><path class="cls-10" d="M122.83,58.35H29.53C13.64,58.35,.72,45.42,.72,29.53S13.64,.72,29.53,.72H122.83c15.89,0,28.81,12.93,28.81,28.81s-12.93,28.81-28.81,28.81Z"/><path class="cls-4" d="M29.53,9.18c-11.22,0-20.36,9.13-20.36,20.36s9.13,20.36,20.36,20.36H122.83c11.22,0,20.36-9.13,20.36-20.36s-9.13-20.36-20.36-20.36H29.53Z"/><ellipse class="cls-8" cx="30.14" cy="29.53" rx="11.83" ry="11.28"/><ellipse class="cls-11" cx="30.14" cy="29.53" rx="14.59" ry="13.91"/><g><circle class="cls-9" cx="30.14" cy="29.53" r="15.44"/><g><circle cx="30.14" cy="29.53" r="12.47"/><circle class="cls-15" cx="30.14" cy="29.53" r="10.33"/><circle cx="30.14" cy="29.53" r="6.06"/><circle class="cls-15" cx="26.27" cy="25.79" r="2.8"/></g></g><ellipse class="cls-8" cx="122.53" cy="29.53" rx="11.83" ry="11.28"/><ellipse class="cls-11" cx="122.53" cy="29.53" rx="14.59" ry="13.91"/><g><circle class="cls-9" cx="122.53" cy="29.53" r="15.44"/><g><circle cx="122.53" cy="29.53" r="12.47"/><circle class="cls-15" cx="122.53" cy="29.53" r="10.33"/><circle cx="122.53" cy="29.53" r="6.06"/><circle class="cls-15" cx="118.66" cy="25.79" r="2.8"/></g></g></g></symbol><symbol id="Robot_wheels_1" viewBox="0 0 161.25 35.61"><g><rect class="cls-5" x="55.55" y="1.19" width="104.62" height="33.34" rx="15.36" ry="15.36"/><rect class="cls-3" x="38.25" y="1.08" width="104.62" height="33.34" rx="15.36" ry="15.36"/><circle class="cls-13" cx="56.41" cy="17.75" r="9.56"/><circle class="cls-13" cx="89.84" cy="17.75" r="9.56"/><circle class="cls-14" cx="123.28" cy="17.75" r="9.56"/><rect class="cls-5" x="18.37" y="1.19" width="104.62" height="33.34" rx="15.36" ry="15.36"/><rect class="cls-3" x="1.08" y="1.08" width="104.62" height="33.34" rx="15.36" ry="15.36"/><circle class="cls-14" cx="19.23" cy="17.75" r="9.56"/><circle class="cls-14" cx="52.67" cy="17.75" r="9.56"/><circle class="cls-14" cx="86.11" cy="17.75" r="9.56"/></g></symbol></defs><use width="148.17" height="121.46" transform="translate(75.92 123.47)" xlink:href="#Robot_base_2_2"/><use width="161.25" height="35.61" transform="translate(69.38 229.36)" xlink:href="#Robot_wheels_1"/><use width="152.36" height="59.06" transform="translate(73.82 91.45)" xlink:href="#Robot_eyes_1_2"/></svg>