<?xml version="1.0" encoding="UTF-8"?><svg id="Robos" xmlns="http://www.w3.org/2000/svg" xmlns:xlink="http://www.w3.org/1999/xlink" viewBox="0 0 300 300"><defs><style>.cls-1{stroke-width:2.04px;}.cls-1,.cls-2,.cls-3,.cls-4,.cls-5,.cls-6,.cls-7,.cls-8,.cls-9{stroke:#000;stroke-miterlimit:10;}.cls-1,.cls-3,.cls-8{fill:#c90000;}.cls-2{fill:#a31e10;stroke-width:1.47px;}.cls-3,.cls-4,.cls-6{stroke-width:2.14px;}.cls-3,.cls-4,.cls-6,.cls-8{stroke-linecap:round;}.cls-4{fill:none;}.cls-5{fill:url(#radial-gradient);}.cls-5,.cls-7{stroke-width:1.39px;}.cls-6,.cls-9{fill:#7f7f7f;}.cls-7{fill:#ccc;}.cls-8{stroke-width:2.14px;}.cls-9{stroke-width:2.16px;}</style><radialGradient id="radial-gradient" cx="65.77" cy="66.28" fx="65.77" fy="66.28" r="119.65" gradientTransform="matrix(1, 0, 0, 1, 0, 0)" gradientUnits="userSpaceOnUse"><stop offset=".15" stop-color="#e0e0e0"/><stop offset=".22" stop-color="#d5d5d5"/><stop offset=".34" stop-color="#b7b7b7"/><stop offset=".5" stop-color="#888"/><stop offset=".69" stop-color="#474747"/><stop offset=".69" stop-color="#454545"/></radialGradient><symbol id="Robot_base_4" viewBox="0 0 131.53 168.9"><g><rect class="cls-9" x="53.33" y="129.08" width="24.87" height="38.74"/><polyline class="cls-8" points="88.1 131 88.1 136.96 43.44 136.96 43.44 131"/><rect class="cls-1" x="1.02" y="1.02" width="129.49" height="129.49" rx="17.48" ry="17.48"/><path class="cls-7" d="M107.35,122.29l-83.29-.1c-7.91,0-14.31-6.43-14.3-14.33l.1-83.29c0-7.91,6.43-14.31,14.33-14.3l83.29,.1c7.91,0,14.31,6.43,14.3,14.33l-.1,83.29c0,7.91-6.43,14.31-14.33,14.3Z"/><g><polygon class="cls-5" points="21.49 21.9 110.15 22 110.04 110.66 21.39 110.56 21.49 21.9"/><line class="cls-2" x1="21.41" y1="95.78" x2="110.06" y2="95.88"/><line class="cls-2" x1="21.42" y1="81" x2="110.08" y2="81.11"/><line class="cls-2" x1="21.44" y1="66.23" x2="110.09" y2="66.33"/><line class="cls-2" x1="21.46" y1="51.45" x2="110.11" y2="51.56"/><line class="cls-2" x1="21.47" y1="36.68" x2="110.13" y2="36.78"/><line class="cls-2" x1="95.37" y1="21.99" x2="95.27" y2="110.64"/><line class="cls-2" x1="80.59" y1="21.97" x2="80.49" y2="110.62"/><line class="cls-2" x1="65.82" y1="21.95" x2="65.72" y2="110.61"/><line class="cls-2" x1="51.04" y1="21.93" x2="50.94" y2="110.59"/><line class="cls-2" x1="36.27" y1="21.92" x2="36.16" y2="110.57"/></g></g></symbol><symbol id="Robot_wheels_2" viewBox="0 0 129.35 44.87"><g><g><path class="cls-6" d="M122.22,43.8h-45.49c-5.48,0-8.14-7.25-4.14-11.3L101.3,3.41c2.78-2.82,7.26-2.19,9.27,1.31l16.78,29.09c2.51,4.35-.39,9.99-5.13,9.99Z"/><path class="cls-6" d="M115.9,43.8h-45.49c-5.48,0-8.14-7.25-4.14-11.3L94.98,3.41c2.78-2.82,7.26-2.19,9.27,1.31l16.78,29.09c2.51,4.35-.39,9.99-5.13,9.99Z"/><path class="cls-6" d="M109.57,43.8h-45.49c-5.48,0-8.14-7.25-4.14-11.3L88.65,3.41c2.78-2.82,7.26-2.19,9.27,1.31l16.78,29.09c2.51,4.35-.39,9.99-5.13,9.99Z"/><path class="cls-6" d="M103.24,43.8H57.75c-5.48,0-8.14-7.25-4.14-11.3L82.32,3.41c2.78-2.82,7.26-2.19,9.27,1.31l16.78,29.09c2.51,4.35-.39,9.99-5.13,9.99Z"/><path class="cls-6" d="M96.91,43.8H51.43c-5.48,0-8.14-7.25-4.14-11.3L75.99,3.41c2.78-2.82,7.26-2.19,9.27,1.31l16.78,29.09c2.51,4.35-.39,9.99-5.13,9.99Z"/><path class="cls-6" d="M90.58,43.8H45.1c-5.48,0-8.14-7.25-4.14-11.3L69.66,3.41c2.78-2.82,7.26-2.19,9.27,1.31l16.78,29.09c2.51,4.35-.39,9.99-5.13,9.99Z"/><path class="cls-6" d="M84.26,43.8H38.77c-5.48,0-8.14-7.25-4.14-11.3L63.34,3.41c2.78-2.82,7.26-2.19,9.27,1.31l16.78,29.09c2.51,4.35-.39,9.99-5.13,9.99Z"/><path class="cls-6" d="M77.93,43.8H32.44c-5.48,0-8.14-7.25-4.14-11.3L57.01,3.41c2.78-2.82,7.26-2.19,9.27,1.31l16.78,29.09c2.51,4.35-.39,9.99-5.13,9.99Z"/><path class="cls-6" d="M71.6,43.8H26.12c-5.48,0-8.14-7.25-4.14-11.3L50.68,3.41c2.78-2.82,7.26-2.19,9.27,1.31l16.78,29.09c2.51,4.35-.39,9.99-5.13,9.99Z"/><path class="cls-6" d="M65.27,43.8H19.79c-5.48,0-8.14-7.25-4.14-11.3L44.35,3.41c2.78-2.82,7.26-2.19,9.27,1.31l16.78,29.09c2.51,4.35-.39,9.99-5.13,9.99Z"/><path class="cls-6" d="M58.94,43.8H13.46c-5.48,0-8.14-7.25-4.14-11.3L38.02,3.41c2.78-2.82,7.26-2.19,9.27,1.31l16.78,29.09c2.51,4.35-.39,9.99-5.13,9.99Z"/></g><path class="cls-3" d="M52.62,43.8H7.13c-5.48,0-8.14-7.25-4.14-11.3L31.7,3.41c2.78-2.82,7.26-2.19,9.27,1.31l16.78,29.09c2.51,4.35-.39,9.99-5.13,9.99Z"/><path class="cls-4" d="M122.22,43.8c4.75,0,7.64-5.64,5.13-9.99L109.43,2.81c-.62-1.08-1.77-1.74-3.01-1.74H36c-.92,0-1.8,.36-2.46,1.01L2.99,32.5c-4,4.05-1.34,11.3,4.14,11.3"/></g></symbol></defs><use width="131.53" height="168.9" transform="translate(84.23 69.74)" xlink:href="#Robot_base_4"/><use width="129.35" height="44.87" transform="translate(85.32 232.41)" xlink:href="#Robot_wheels_2"/></svg>