<?xml version="1.0" encoding="UTF-8"?><svg id="Robos" xmlns="http://www.w3.org/2000/svg" xmlns:xlink="http://www.w3.org/1999/xlink" viewBox="0 0 300 300"><defs><style>.cls-1{fill:url(#radial-gradient);stroke-width:1.98px;}.cls-1,.cls-2,.cls-3,.cls-4,.cls-5,.cls-6,.cls-7{stroke:#000;stroke-miterlimit:10;}.cls-1,.cls-2,.cls-3,.cls-4,.cls-6{stroke-linecap:round;}.cls-2,.cls-3,.cls-4{stroke-width:2.14px;}.cls-2,.cls-6{fill:#c90000;}.cls-3{fill:none;}.cls-4,.cls-7{fill:#7f7f7f;}.cls-5{fill:#fff;}.cls-5,.cls-7{stroke-width:2.16px;}.cls-6{stroke-width:2.14px;}</style><radialGradient id="radial-gradient" cx="66.1" cy="80.75" fx="66.1" fy="80.75" r="97.49" gradientTransform="matrix(1, 0, 0, 1, 0, 0)" gradientUnits="userSpaceOnUse"><stop offset="0" stop-color="#d9d9d9"/><stop offset=".28" stop-color="#aeadad"/><stop offset=".6" stop-color="#838383"/><stop offset=".85" stop-color="#696868"/><stop offset="1" stop-color="#605f5f"/></radialGradient><symbol id="Robot_base_1_2" viewBox="0 0 131.47 181.33"><g><rect class="cls-7" x="53.3" y="141.51" width="24.87" height="38.74"/><polyline class="cls-6" points="82.05 143.39 82.05 148.81 49.42 148.81 49.42 143.39"/><polyline class="cls-6" points="119.05 130.48 119.05 142.63 12.41 142.63 12.41 130.48"/><path class="cls-1" d="M65.73,.99h0c35.73,0,64.75,29.01,64.75,64.75v64.75H.99V65.73C.99,30,30,.99,65.73,.99Z"/><rect class="cls-7" x="52.85" y="32.22" width="25.76" height="78.64" rx="12.88" ry="12.88"/><g><circle class="cls-5" cx="65.73" cy="48.68" r="7.69"/><circle class="cls-5" cx="65.73" cy="71.54" r="7.69"/><circle class="cls-5" cx="65.73" cy="94.4" r="7.69"/></g></g></symbol><symbol id="Robot_wheels_2" viewBox="0 0 129.35 44.87"><g><g><path class="cls-4" d="M122.22,43.8h-45.49c-5.48,0-8.14-7.25-4.14-11.3L101.3,3.41c2.78-2.82,7.26-2.19,9.27,1.31l16.78,29.09c2.51,4.35-.39,9.99-5.13,9.99Z"/><path class="cls-4" d="M115.9,43.8h-45.49c-5.48,0-8.14-7.25-4.14-11.3L94.98,3.41c2.78-2.82,7.26-2.19,9.27,1.31l16.78,29.09c2.51,4.35-.39,9.99-5.13,9.99Z"/><path class="cls-4" d="M109.57,43.8h-45.49c-5.48,0-8.14-7.25-4.14-11.3L88.65,3.41c2.78-2.82,7.26-2.19,9.27,1.31l16.78,29.09c2.51,4.35-.39,9.99-5.13,9.99Z"/><path class="cls-4" d="M103.24,43.8H57.75c-5.48,0-8.14-7.25-4.14-11.3L82.32,3.41c2.78-2.82,7.26-2.19,9.27,1.31l16.78,29.09c2.51,4.35-.39,9.99-5.13,9.99Z"/><path class="cls-4" d="M96.91,43.8H51.43c-5.48,0-8.14-7.25-4.14-11.3L75.99,3.41c2.78-2.82,7.26-2.19,9.27,1.31l16.78,29.09c2.51,4.35-.39,9.99-5.13,9.99Z"/><path class="cls-4" d="M90.58,43.8H45.1c-5.48,0-8.14-7.25-4.14-11.3L69.66,3.41c2.78-2.82,7.26-2.19,9.27,1.31l16.78,29.09c2.51,4.35-.39,9.99-5.13,9.99Z"/><path class="cls-4" d="M84.26,43.8H38.77c-5.48,0-8.14-7.25-4.14-11.3L63.34,3.41c2.78-2.82,7.26-2.19,9.27,1.31l16.78,29.09c2.51,4.35-.39,9.99-5.13,9.99Z"/><path class="cls-4" d="M77.93,43.8H32.44c-5.48,0-8.14-7.25-4.14-11.3L57.01,3.41c2.78-2.82,7.26-2.19,9.27,1.31l16.78,29.09c2.51,4.35-.39,9.99-5.13,9.99Z"/><path class="cls-4" d="M71.6,43.8H26.12c-5.48,0-8.14-7.25-4.14-11.3L50.68,3.41c2.78-2.82,7.26-2.19,9.27,1.31l16.78,29.09c2.51,4.35-.39,9.99-5.13,9.99Z"/><path class="cls-4" d="M65.27,43.8H19.79c-5.48,0-8.14-7.25-4.14-11.3L44.35,3.41c2.78-2.82,7.26-2.19,9.27,1.31l16.78,29.09c2.51,4.35-.39,9.99-5.13,9.99Z"/><path class="cls-4" d="M58.94,43.8H13.46c-5.48,0-8.14-7.25-4.14-11.3L38.02,3.41c2.78-2.82,7.26-2.19,9.27,1.31l16.78,29.09c2.51,4.35-.39,9.99-5.13,9.99Z"/></g><path class="cls-2" d="M52.62,43.8H7.13c-5.48,0-8.14-7.25-4.14-11.3L31.7,3.41c2.78-2.82,7.26-2.19,9.27,1.31l16.78,29.09c2.51,4.35-.39,9.99-5.13,9.99Z"/><path class="cls-3" d="M122.22,43.8c4.75,0,7.64-5.64,5.13-9.99L109.43,2.81c-.62-1.08-1.77-1.74-3.01-1.74H36c-.92,0-1.8,.36-2.46,1.01L2.99,32.5c-4,4.05-1.34,11.3,4.14,11.3"/></g></symbol></defs><use width="131.47" height="181.33" transform="translate(80.64 62.25)" xlink:href="#Robot_base_1_2"/><use width="129.35" height="44.87" transform="translate(85.32 232.41)" xlink:href="#Robot_wheels_2"/></svg>