<?xml version="1.0" encoding="UTF-8"?><svg id="Robos" xmlns="http://www.w3.org/2000/svg" xmlns:xlink="http://www.w3.org/1999/xlink" viewBox="0 0 300 300"><defs><style>.cls-1{fill:#999;stroke-width:2.14px;}.cls-1,.cls-2,.cls-3,.cls-4,.cls-5,.cls-6{stroke:#000;stroke-miterlimit:10;}.cls-1,.cls-3{stroke-linecap:round;}.cls-2{fill:#c90000;stroke-width:2.04px;}.cls-3{fill:none;stroke-width:1.3px;}.cls-4{fill:#a31e10;stroke-width:1.47px;}.cls-5{fill:url(#radial-gradient);}.cls-5,.cls-6{stroke-width:1.39px;}.cls-6{fill:#ccc;}</style><radialGradient id="radial-gradient" cx="65.77" cy="66.28" fx="65.77" fy="66.28" r="119.65" gradientTransform="matrix(1, 0, 0, 1, 0, 0)" gradientUnits="userSpaceOnUse"><stop offset=".15" stop-color="#e0e0e0"/><stop offset=".22" stop-color="#d5d5d5"/><stop offset=".34" stop-color="#b7b7b7"/><stop offset=".5" stop-color="#888"/><stop offset=".69" stop-color="#474747"/><stop offset=".69" stop-color="#454545"/></radialGradient><symbol id="Robots_base_5" viewBox="0 0 131.53 184.36"><g><ellipse class="cls-1" cx="65.77" cy="110.17" rx="62.07" ry="32.26"/><g><ellipse class="cls-3" cx="65.77" cy="155.37" rx="34.6" ry="4.42"/><ellipse class="cls-3" cx="65.77" cy="168.34" rx="29.56" ry="4.1"/><ellipse class="cls-3" cx="65.77" cy="180.62" rx="22.26" ry="3.09"/></g><rect class="cls-2" x="1.02" y="1.02" width="129.49" height="129.49" rx="17.48" ry="17.48"/><path class="cls-6" d="M107.35,122.29l-83.29-.1c-7.91,0-14.31-6.43-14.3-14.33l.1-83.29c0-7.91,6.43-14.31,14.33-14.3l83.29,.1c7.91,0,14.31,6.43,14.3,14.33l-.1,83.29c0,7.91-6.43,14.31-14.33,14.3Z"/><g><polygon class="cls-5" points="21.49 21.9 110.15 22 110.04 110.66 21.39 110.56 21.49 21.9"/><line class="cls-4" x1="21.41" y1="95.78" x2="110.06" y2="95.88"/><line class="cls-4" x1="21.42" y1="81" x2="110.08" y2="81.11"/><line class="cls-4" x1="21.44" y1="66.23" x2="110.09" y2="66.33"/><line class="cls-4" x1="21.46" y1="51.45" x2="110.11" y2="51.56"/><line class="cls-4" x1="21.47" y1="36.68" x2="110.13" y2="36.78"/><line class="cls-4" x1="95.37" y1="21.99" x2="95.27" y2="110.64"/><line class="cls-4" x1="80.59" y1="21.97" x2="80.49" y2="110.62"/><line class="cls-4" x1="65.82" y1="21.95" x2="65.72" y2="110.61"/><line class="cls-4" x1="51.04" y1="21.93" x2="50.94" y2="110.59"/><line class="cls-4" x1="36.27" y1="21.92" x2="36.16" y2="110.57"/></g></g></symbol></defs><use width="131.53" height="184.36" transform="translate(84.23 69.74)" xlink:href="#Robots_base_5"/></svg>