<?xml version="1.0" encoding="UTF-8"?><svg id="Robos" xmlns="http://www.w3.org/2000/svg" xmlns:xlink="http://www.w3.org/1999/xlink" viewBox="0 0 300 300"><defs><style>.cls-1{fill:#999;}.cls-1,.cls-2,.cls-3,.cls-4,.cls-5,.cls-6{stroke:#000;stroke-miterlimit:10;}.cls-1,.cls-3,.cls-5,.cls-6{stroke-width:2.16px;}.cls-2{fill:url(#radial-gradient);stroke-width:1.98px;}.cls-2,.cls-4{stroke-linecap:round;}.cls-3{fill:#fff;}.cls-4{stroke-width:2.14px;}.cls-4,.cls-5{fill:#c90000;}.cls-6{fill:#7f7f7f;}</style><radialGradient id="radial-gradient" cx="66.1" cy="80.75" fx="66.1" fy="80.75" r="97.49" gradientTransform="matrix(1, 0, 0, 1, 0, 0)" gradientUnits="userSpaceOnUse"><stop offset="0" stop-color="#d9d9d9"/><stop offset=".28" stop-color="#aeadad"/><stop offset=".6" stop-color="#838383"/><stop offset=".85" stop-color="#696868"/><stop offset="1" stop-color="#605f5f"/></radialGradient><symbol id="Robot_base_1_2" viewBox="0 0 131.47 181.33"><g><rect class="cls-6" x="53.3" y="141.51" width="24.87" height="38.74"/><polyline class="cls-4" points="82.05 143.39 82.05 148.81 49.42 148.81 49.42 143.39"/><polyline class="cls-4" points="119.05 130.48 119.05 142.63 12.41 142.63 12.41 130.48"/><path class="cls-2" d="M65.73,.99h0c35.73,0,64.75,29.01,64.75,64.75v64.75H.99V65.73C.99,30,30,.99,65.73,.99Z"/><rect class="cls-6" x="52.85" y="32.22" width="25.76" height="78.64" rx="12.88" ry="12.88"/><g><circle class="cls-3" cx="65.73" cy="48.68" r="7.69"/><circle class="cls-3" cx="65.73" cy="71.54" r="7.69"/><circle class="cls-3" cx="65.73" cy="94.4" r="7.69"/></g></g></symbol><symbol id="Robot_wheels_1" viewBox="0 0 161.25 35.61"><g><rect class="cls-1" x="55.55" y="1.19" width="104.62" height="33.34" rx="15.36" ry="15.36"/><rect class="cls-5" x="38.25" y="1.08" width="104.62" height="33.34" rx="15.36" ry="15.36"/><circle class="cls-3" cx="56.41" cy="17.75" r="9.56"/><circle class="cls-3" cx="89.84" cy="17.75" r="9.56"/><circle class="cls-6" cx="123.28" cy="17.75" r="9.56"/><rect class="cls-1" x="18.37" y="1.19" width="104.62" height="33.34" rx="15.36" ry="15.36"/><rect class="cls-5" x="1.08" y="1.08" width="104.62" height="33.34" rx="15.36" ry="15.36"/><circle class="cls-6" cx="19.23" cy="17.75" r="9.56"/><circle class="cls-6" cx="52.67" cy="17.75" r="9.56"/><circle class="cls-6" cx="86.11" cy="17.75" r="9.56"/></g></symbol></defs><use width="131.47" height="181.33" transform="translate(80.64 62.25)" xlink:href="#Robot_base_1_2"/><use width="161.25" height="35.61" transform="translate(69.38 229.36)" xlink:href="#Robot_wheels_1"/></svg>