<?xml version="1.0" encoding="UTF-8"?><svg id="Robos" xmlns="http://www.w3.org/2000/svg" xmlns:xlink="http://www.w3.org/1999/xlink" viewBox="0 0 300 300"><defs><style>.cls-1{stroke-width:1.25px;}.cls-1,.cls-2,.cls-3,.cls-4,.cls-5,.cls-6,.cls-7,.cls-8{stroke:#000;stroke-miterlimit:10;}.cls-1,.cls-3,.cls-4,.cls-6{stroke-linecap:round;}.cls-1,.cls-4,.cls-6,.cls-7{fill:#c90000;}.cls-2{fill:#999;}.cls-2,.cls-5,.cls-7,.cls-8{stroke-width:2.16px;}.cls-3{fill:url(#radial-gradient);stroke-width:1.98px;}.cls-4{stroke-width:1.75px;}.cls-5{fill:#fff;}.cls-6{stroke-width:2.14px;}.cls-8{fill:#7f7f7f;}</style><symbol id="Robot_arm_1" viewBox="0 0 96.45 86.24"><g><polygon class="cls-4" points="16.92 69.51 8 43.7 4.35 44.96 13.26 70.77 16.92 69.51"/><polygon class="cls-4" points="7.74 42.01 31.15 18.04 28.31 15.41 4.9 39.39 7.74 42.01"/><circle class="cls-4" cx="5.26" cy="41.7" r="4.39"/><polygon class="cls-4" points="33.57 17.89 60.88 17.89 60.88 14.02 33.57 14.02 33.57 17.89"/><path class="cls-4" d="M61.15,22.79h7.19c1.65,0,2.98-1.33,2.98-2.98v-7.71c0-1.65-1.33-2.98-2.98-2.98h-7.19c-1.65,0-2.98,1.33-2.98,2.98v7.71c0,1.65,1.33,2.98,2.98,2.98Z"/><path class="cls-4" d="M73.15,31.03h15.85c3.63,0,6.57-2.94,6.57-6.57V7.45c0-3.63-2.94-6.57-6.57-6.57h-15.85c-3.63,0-6.57,2.94-6.57,6.57V24.46c0,3.63,2.94,6.57,6.57,6.57Z"/><circle class="cls-4" cx="32.29" cy="15.95" r="4.39"/><g><g><path class="cls-1" d="M28.6,84.12h0c.35-.45,.26-1.1-.2-1.45l-8.33-6.33c-.45-.35-1.1-.26-1.45,.2h0c-.35,.45-.26,1.1,.2,1.45l8.33,6.33c.45,.35,1.1,.26,1.45-.2Z"/><path class="cls-1" d="M27.11,83.69h0c.08,.57,.6,.96,1.16,.88l10.37-1.41c.57-.08,.96-.6,.88-1.16h0c-.08-.57-.6-.96-1.16-.88l-10.37,1.41c-.57,.08-.96,.6-.88,1.16Z"/><circle class="cls-1" cx="27.82" cy="83.6" r="2.02"/></g><g><path class="cls-1" d="M31.27,68.4h0c-.35,.45-.26,1.1,.2,1.45l8.33,6.33c.45,.35,1.1,.26,1.45-.2h0c.35-.45,.26-1.1-.2-1.45l-8.33-6.33c-.45-.35-1.1-.26-1.45,.2Z"/><path class="cls-1" d="M32.76,68.82h0c-.08-.57-.6-.96-1.16-.88l-10.37,1.41c-.57,.08-.96,.6-.88,1.16h0c.08,.57,.6,.96,1.16,.88l10.37-1.41c.57-.08,.96-.6,.88-1.16Z"/><circle class="cls-1" cx="32.05" cy="68.92" r="2.02"/></g></g><g><circle class="cls-4" cx="16.29" cy="72.95" r="6.96"/><circle class="cls-4" cx="16.29" cy="72.95" r="2.35"/></g></g></symbol><radialGradient id="radial-gradient" cx="66.1" cy="80.75" fx="66.1" fy="80.75" r="97.49" gradientTransform="matrix(1, 0, 0, 1, 0, 0)" gradientUnits="userSpaceOnUse"><stop offset="0" stop-color="#d9d9d9"/><stop offset=".28" stop-color="#aeadad"/><stop offset=".6" stop-color="#838383"/><stop offset=".85" stop-color="#696868"/><stop offset="1" stop-color="#605f5f"/></radialGradient><symbol id="Robot_base_1_2" viewBox="0 0 131.47 181.33"><g><rect class="cls-8" x="53.3" y="141.51" width="24.87" height="38.74"/><polyline class="cls-6" points="82.05 143.39 82.05 148.81 49.42 148.81 49.42 143.39"/><polyline class="cls-6" points="119.05 130.48 119.05 142.63 12.41 142.63 12.41 130.48"/><path class="cls-3" d="M65.73,.99h0c35.73,0,64.75,29.01,64.75,64.75v64.75H.99V65.73C.99,30,30,.99,65.73,.99Z"/><rect class="cls-8" x="52.85" y="32.22" width="25.76" height="78.64" rx="12.88" ry="12.88"/><g><circle class="cls-5" cx="65.73" cy="48.68" r="7.69"/><circle class="cls-5" cx="65.73" cy="71.54" r="7.69"/><circle class="cls-5" cx="65.73" cy="94.4" r="7.69"/></g></g></symbol><symbol id="Robot_wheels_1" viewBox="0 0 161.25 35.61"><g><rect class="cls-2" x="55.55" y="1.19" width="104.62" height="33.34" rx="15.36" ry="15.36"/><rect class="cls-7" x="38.25" y="1.08" width="104.62" height="33.34" rx="15.36" ry="15.36"/><circle class="cls-5" cx="56.41" cy="17.75" r="9.56"/><circle class="cls-5" cx="89.84" cy="17.75" r="9.56"/><circle class="cls-8" cx="123.28" cy="17.75" r="9.56"/><rect class="cls-2" x="18.37" y="1.19" width="104.62" height="33.34" rx="15.36" ry="15.36"/><rect class="cls-7" x="1.08" y="1.08" width="104.62" height="33.34" rx="15.36" ry="15.36"/><circle class="cls-8" cx="19.23" cy="17.75" r="9.56"/><circle class="cls-8" cx="52.67" cy="17.75" r="9.56"/><circle class="cls-8" cx="86.11" cy="17.75" r="9.56"/></g></symbol></defs><use width="96.45" height="86.24" transform="translate(6.43 118.63)" xlink:href="#Robot_arm_1"/><use width="96.45" height="86.24" transform="translate(294.43 118.63) rotate(-180) scale(1 -1)" xlink:href="#Robot_arm_1"/><use width="131.47" height="181.33" transform="translate(80.64 62.25)" xlink:href="#Robot_base_1_2"/><use width="161.25" height="35.61" transform="translate(69.38 229.36)" xlink:href="#Robot_wheels_1"/></svg>