<?xml version="1.0" encoding="UTF-8"?><svg id="Robos" xmlns="http://www.w3.org/2000/svg" xmlns:xlink="http://www.w3.org/1999/xlink" viewBox="0 0 300 300"><defs><style>.cls-1,.cls-2,.cls-3,.cls-4,.cls-5,.cls-6,.cls-7,.cls-8{stroke:#000;stroke-miterlimit:10;}.cls-1,.cls-4,.cls-7,.cls-8{stroke-width:2.16px;}.cls-1,.cls-5{fill:#999;}.cls-2{fill:url(#radial-gradient);stroke-width:1.98px;}.cls-2,.cls-3,.cls-5,.cls-6{stroke-linecap:round;}.cls-3,.cls-5{stroke-width:1.47px;}.cls-3,.cls-6,.cls-7{fill:#c90000;}.cls-4{fill:#fff;}.cls-6{stroke-width:2.14px;}.cls-8{fill:#7f7f7f;}</style><symbol id="Robot_arm_3" viewBox="0 0 96.95 93.53"><g><path class="cls-6" d="M79.32,54.91h0c9.15,0,16.56-7.41,16.56-16.56V18.4c0-9.15-7.41-16.56-16.56-16.56h0c-9.15,0-16.56,7.41-16.56,16.56v19.96c0,9.15,7.41,16.56,16.56,16.56Z"/><circle class="cls-5" cx="72.61" cy="13.1" r="2.17"/><circle class="cls-5" cx="72.61" cy="20.53" r="2.17"/><g><polygon class="cls-3" points="35.33 8.62 66.68 34.41 69.46 31.02 38.11 5.24 35.33 8.62"/><polygon class="cls-3" points="29.97 15.14 61.32 40.92 64.1 37.54 32.76 11.75 29.97 15.14"/></g><g><circle class="cls-3" cx="65.29" cy="34.77" r="9.51"/><circle class="cls-5" cx="65.29" cy="34.77" r="3.21"/></g><g><polygon class="cls-3" points="8.5 48.19 27.92 12.55 24.07 10.46 4.65 46.1 8.5 48.19"/><polygon class="cls-3" points="15.91 52.23 35.32 16.59 31.48 14.49 12.06 50.13 15.91 52.23"/></g><g><circle class="cls-3" cx="31.48" cy="10.25" r="9.51"/><circle class="cls-5" cx="31.48" cy="10.25" r="3.21"/></g><g><polygon class="cls-3" points="37.06 82.03 9.5 52.23 6.29 55.21 33.85 85 37.06 82.03"/><polygon class="cls-3" points="43.25 76.3 15.69 46.5 12.48 49.48 40.04 79.27 43.25 76.3"/></g><g><circle class="cls-3" cx="10.25" cy="50.52" r="9.51"/><circle class="cls-5" cx="10.25" cy="50.52" r="3.21"/></g><g><g><path class="cls-3" d="M65.84,84.17h0c-.08-.78-.77-1.34-1.55-1.27l-14.23,1.42c-.78,.08-1.34,.77-1.27,1.55h0c.08,.78,.77,1.34,1.55,1.27l14.23-1.42c.78-.08,1.34-.77,1.27-1.55Z"/><path class="cls-3" d="M63.95,85.13h0c.6,.49,1.49,.41,1.99-.2l9.05-11.06c.49-.6,.41-1.49-.2-1.99h0c-.6-.49-1.49-.41-1.99,.2l-9.05,11.06c-.49,.6-.41,1.49,.2,1.99Z"/><circle class="cls-3" cx="64.57" cy="84.38" r="2.76"/></g><g><path class="cls-3" d="M53.87,65.96h0c.08,.78,.77,1.34,1.55,1.27l14.23-1.42c.78-.08,1.34-.77,1.27-1.55h0c-.08-.78-.77-1.34-1.55-1.27l-14.23,1.42c-.78,.08-1.34,.77-1.27,1.55Z"/><path class="cls-3" d="M55.76,65h0c-.6-.49-1.49-.41-1.99,.2l-9.05,11.06c-.49,.6-.41,1.49,.2,1.99h0c.6,.49,1.49,.41,1.99-.2l9.05-11.06c.49-.6,.41-1.49-.2-1.99Z"/><circle class="cls-3" cx="55.14" cy="65.75" r="2.76"/></g></g><g><circle class="cls-3" cx="43.17" cy="83.29" r="9.51"/><circle class="cls-5" cx="43.17" cy="83.29" r="3.21"/></g></g></symbol><radialGradient id="radial-gradient" cx="66.1" cy="80.75" fx="66.1" fy="80.75" r="97.49" gradientTransform="matrix(1, 0, 0, 1, 0, 0)" gradientUnits="userSpaceOnUse"><stop offset="0" stop-color="#d9d9d9"/><stop offset=".28" stop-color="#aeadad"/><stop offset=".6" stop-color="#838383"/><stop offset=".85" stop-color="#696868"/><stop offset="1" stop-color="#605f5f"/></radialGradient><symbol id="Robot_base_1_2" viewBox="0 0 131.47 181.33"><g><rect class="cls-8" x="53.3" y="141.51" width="24.87" height="38.74"/><polyline class="cls-6" points="82.05 143.39 82.05 148.81 49.42 148.81 49.42 143.39"/><polyline class="cls-6" points="119.05 130.48 119.05 142.63 12.41 142.63 12.41 130.48"/><path class="cls-2" d="M65.73,.99h0c35.73,0,64.75,29.01,64.75,64.75v64.75H.99V65.73C.99,30,30,.99,65.73,.99Z"/><rect class="cls-8" x="52.85" y="32.22" width="25.76" height="78.64" rx="12.88" ry="12.88"/><g><circle class="cls-4" cx="65.73" cy="48.68" r="7.69"/><circle class="cls-4" cx="65.73" cy="71.54" r="7.69"/><circle class="cls-4" cx="65.73" cy="94.4" r="7.69"/></g></g></symbol><symbol id="Robot_wheels_1" viewBox="0 0 161.25 35.61"><g><rect class="cls-1" x="55.55" y="1.19" width="104.62" height="33.34" rx="15.36" ry="15.36"/><rect class="cls-7" x="38.25" y="1.08" width="104.62" height="33.34" rx="15.36" ry="15.36"/><circle class="cls-4" cx="56.41" cy="17.75" r="9.56"/><circle class="cls-4" cx="89.84" cy="17.75" r="9.56"/><circle class="cls-8" cx="123.28" cy="17.75" r="9.56"/><rect class="cls-1" x="18.37" y="1.19" width="104.62" height="33.34" rx="15.36" ry="15.36"/><rect class="cls-7" x="1.08" y="1.08" width="104.62" height="33.34" rx="15.36" ry="15.36"/><circle class="cls-8" cx="19.23" cy="17.75" r="9.56"/><circle class="cls-8" cx="52.67" cy="17.75" r="9.56"/><circle class="cls-8" cx="86.11" cy="17.75" r="9.56"/></g></symbol></defs><use width="96.95" height="93.53" transform="translate(1.54 123.66)" xlink:href="#Robot_arm_3"/><use width="96.95" height="93.53" transform="translate(298.67 123.66) rotate(-180) scale(1 -1)" xlink:href="#Robot_arm_3"/><use width="131.47" height="181.33" transform="translate(80.64 62.25)" xlink:href="#Robot_base_1_2"/><use width="161.25" height="35.61" transform="translate(69.38 229.36)" xlink:href="#Robot_wheels_1"/></svg>