<?xml version="1.0" encoding="UTF-8"?><svg id="Robos" xmlns="http://www.w3.org/2000/svg" xmlns:xlink="http://www.w3.org/1999/xlink" viewBox="0 0 300 300"><defs><style>.cls-1,.cls-2,.cls-3,.cls-4,.cls-5,.cls-6,.cls-7,.cls-8{stroke:#000;stroke-miterlimit:10;}.cls-1,.cls-4{fill:#999;}.cls-1,.cls-5,.cls-7,.cls-8{stroke-width:2.16px;}.cls-2{fill:url(#radial-gradient);stroke-width:1.98px;}.cls-2,.cls-3,.cls-4,.cls-6{stroke-linecap:round;}.cls-3,.cls-4{stroke-width:2.24px;}.cls-3,.cls-6,.cls-7{fill:#c90000;}.cls-5{fill:#fff;}.cls-6{stroke-width:2.14px;}.cls-8{fill:#7f7f7f;}</style><symbol id="Robot_arm_4" viewBox="0 0 114.52 152.76"><g><g><polygon class="cls-3" points="11.83 77.9 38.98 133.41 32.98 136.34 5.84 80.83 11.83 77.9"/><polygon class="cls-3" points="23.37 72.26 50.51 127.77 44.52 130.7 17.38 75.19 23.37 72.26"/></g><circle class="cls-3" cx="44.24" cy="137.15" r="14.48"/><circle class="cls-4" cx="44.24" cy="137.15" r="4.89"/><g><polygon class="cls-3" points="45.29 15.25 15.26 69.25 9.44 66.01 39.46 12.01 45.29 15.25"/><polygon class="cls-3" points="56.51 21.49 26.49 75.49 20.66 72.25 50.68 18.25 56.51 21.49"/></g><circle class="cls-3" cx="15.6" cy="72.77" r="14.48"/><circle class="cls-4" cx="15.6" cy="72.77" r="4.89"/><g><polygon class="cls-3" points="98.19 61.79 58.46 14.47 63.57 10.18 103.3 57.5 98.19 61.79"/><polygon class="cls-3" points="88.36 70.05 48.63 22.72 53.74 18.44 93.47 65.76 88.36 70.05"/></g><circle class="cls-3" cx="49.7" cy="15.6" r="14.48"/><circle class="cls-4" cx="49.7" cy="15.6" r="4.89"/><g><g><path class="cls-3" d="M94.53,105.46l-1.42-.4c-.75-.21-1.19-.99-.98-1.74l6.25-22.38c.21-.75,.99-1.19,1.74-.98l1.42,.4c.75,.21,1.19,.99,.98,1.74l-6.25,22.38c-.21,.75-.99,1.19-1.74,.98Z"/><path class="cls-3" d="M95.39,102.04l.72,1.29c.38,.68,.14,1.54-.54,1.92l-20.25,11.41c-.68,.38-1.54,.14-1.92-.54l-.72-1.29c-.38-.68-.14-1.54,.54-1.92l20.25-11.41c.68-.38,1.54-.14,1.92,.54Z"/><circle class="cls-3" cx="94.46" cy="103.41" r="4.2"/></g><g><path class="cls-3" d="M68.93,82.35l1.42,.4c.75,.21,1.19,.99,.98,1.74l-6.25,22.38c-.21,.75-.99,1.19-1.74,.98l-1.42-.4c-.75-.21-1.19-.99-.98-1.74l6.25-22.38c.21-.75,.99-1.19,1.74-.98Z"/><path class="cls-3" d="M68.06,85.76l-.72-1.29c-.38-.68-.14-1.54,.54-1.92l20.25-11.41c.68-.38,1.54-.14,1.92,.54l.72,1.29c.38,.68,.14,1.54-.54,1.92l-20.25,11.41c-.68,.38-1.54,.14-1.92-.54Z"/><circle class="cls-3" cx="68.99" cy="84.39" r="4.2"/></g></g><circle class="cls-3" cx="98.92" cy="71.26" r="14.48"/><circle class="cls-4" cx="98.92" cy="71.26" r="4.89"/></g></symbol><radialGradient id="radial-gradient" cx="66.1" cy="80.75" fx="66.1" fy="80.75" r="97.49" gradientTransform="matrix(1, 0, 0, 1, 0, 0)" gradientUnits="userSpaceOnUse"><stop offset="0" stop-color="#d9d9d9"/><stop offset=".28" stop-color="#aeadad"/><stop offset=".6" stop-color="#838383"/><stop offset=".85" stop-color="#696868"/><stop offset="1" stop-color="#605f5f"/></radialGradient><symbol id="Robot_base_1_2" viewBox="0 0 131.47 181.33"><g><rect class="cls-8" x="53.3" y="141.51" width="24.87" height="38.74"/><polyline class="cls-6" points="82.05 143.39 82.05 148.81 49.42 148.81 49.42 143.39"/><polyline class="cls-6" points="119.05 130.48 119.05 142.63 12.41 142.63 12.41 130.48"/><path class="cls-2" d="M65.73,.99h0c35.73,0,64.75,29.01,64.75,64.75v64.75H.99V65.73C.99,30,30,.99,65.73,.99Z"/><rect class="cls-8" x="52.85" y="32.22" width="25.76" height="78.64" rx="12.88" ry="12.88"/><g><circle class="cls-5" cx="65.73" cy="48.68" r="7.69"/><circle class="cls-5" cx="65.73" cy="71.54" r="7.69"/><circle class="cls-5" cx="65.73" cy="94.4" r="7.69"/></g></g></symbol><symbol id="Robot_wheels_1" viewBox="0 0 161.25 35.61"><g><rect class="cls-1" x="55.55" y="1.19" width="104.62" height="33.34" rx="15.36" ry="15.36"/><rect class="cls-7" x="38.25" y="1.08" width="104.62" height="33.34" rx="15.36" ry="15.36"/><circle class="cls-5" cx="56.41" cy="17.75" r="9.56"/><circle class="cls-5" cx="89.84" cy="17.75" r="9.56"/><circle class="cls-8" cx="123.28" cy="17.75" r="9.56"/><rect class="cls-1" x="18.37" y="1.19" width="104.62" height="33.34" rx="15.36" ry="15.36"/><rect class="cls-7" x="1.08" y="1.08" width="104.62" height="33.34" rx="15.36" ry="15.36"/><circle class="cls-8" cx="19.23" cy="17.75" r="9.56"/><circle class="cls-8" cx="52.67" cy="17.75" r="9.56"/><circle class="cls-8" cx="86.11" cy="17.75" r="9.56"/></g></symbol></defs><use width="114.52" height="152.76" transform="translate(249.6 -22.29) rotate(42.93)" xlink:href="#Robot_arm_4"/><use width="114.52" height="152.76" transform="translate(49.87 -22.29) rotate(137.07) scale(1 -1)" xlink:href="#Robot_arm_4"/><use width="131.47" height="181.33" transform="translate(80.64 62.25)" xlink:href="#Robot_base_1_2"/><use width="161.25" height="35.61" transform="translate(69.38 229.36)" xlink:href="#Robot_wheels_1"/></svg>