<?xml version="1.0" encoding="UTF-8"?><svg id="Robos" xmlns="http://www.w3.org/2000/svg" xmlns:xlink="http://www.w3.org/1999/xlink" viewBox="0 0 300 300"><defs><style>.cls-1{stroke-width:1.25px;}.cls-1,.cls-2,.cls-3,.cls-4,.cls-5{fill:#c90000;}.cls-1,.cls-6,.cls-7,.cls-3,.cls-8,.cls-9,.cls-10,.cls-4,.cls-5{stroke-linecap:round;}.cls-1,.cls-6,.cls-7,.cls-3,.cls-8,.cls-9,.cls-10,.cls-4,.cls-5,.cls-11{stroke:#000;stroke-miterlimit:10;}.cls-6{fill:url(#radial-gradient);stroke-width:1.89px;}.cls-7{fill:#fff;}.cls-7,.cls-10,.cls-5{stroke-width:2.14px;}.cls-3,.cls-8,.cls-9{stroke-width:2.14px;}.cls-8{fill:none;}.cls-9,.cls-11{fill:#7f7f7f;}.cls-10{fill:#fa2e19;}.cls-4{stroke-width:1.75px;}.cls-11{stroke-width:2.16px;}</style><symbol id="Robot_arm_1" viewBox="0 0 96.45 86.24"><g><polygon class="cls-4" points="16.92 69.51 8 43.7 4.35 44.96 13.26 70.77 16.92 69.51"/><polygon class="cls-4" points="7.74 42.01 31.15 18.04 28.31 15.41 4.9 39.39 7.74 42.01"/><circle class="cls-4" cx="5.26" cy="41.7" r="4.39"/><polygon class="cls-4" points="33.57 17.89 60.88 17.89 60.88 14.02 33.57 14.02 33.57 17.89"/><path class="cls-4" d="M61.15,22.79h7.19c1.65,0,2.98-1.33,2.98-2.98v-7.71c0-1.65-1.33-2.98-2.98-2.98h-7.19c-1.65,0-2.98,1.33-2.98,2.98v7.71c0,1.65,1.33,2.98,2.98,2.98Z"/><path class="cls-4" d="M73.15,31.03h15.85c3.63,0,6.57-2.94,6.57-6.57V7.45c0-3.63-2.94-6.57-6.57-6.57h-15.85c-3.63,0-6.57,2.94-6.57,6.57V24.46c0,3.63,2.94,6.57,6.57,6.57Z"/><circle class="cls-4" cx="32.29" cy="15.95" r="4.39"/><g><g><path class="cls-1" d="M28.6,84.12h0c.35-.45,.26-1.1-.2-1.45l-8.33-6.33c-.45-.35-1.1-.26-1.45,.2h0c-.35,.45-.26,1.1,.2,1.45l8.33,6.33c.45,.35,1.1,.26,1.45-.2Z"/><path class="cls-1" d="M27.11,83.69h0c.08,.57,.6,.96,1.16,.88l10.37-1.41c.57-.08,.96-.6,.88-1.16h0c-.08-.57-.6-.96-1.16-.88l-10.37,1.41c-.57,.08-.96,.6-.88,1.16Z"/><circle class="cls-1" cx="27.82" cy="83.6" r="2.02"/></g><g><path class="cls-1" d="M31.27,68.4h0c-.35,.45-.26,1.1,.2,1.45l8.33,6.33c.45,.35,1.1,.26,1.45-.2h0c.35-.45,.26-1.1-.2-1.45l-8.33-6.33c-.45-.35-1.1-.26-1.45,.2Z"/><path class="cls-1" d="M32.76,68.82h0c-.08-.57-.6-.96-1.16-.88l-10.37,1.41c-.57,.08-.96,.6-.88,1.16h0c.08,.57,.6,.96,1.16,.88l10.37-1.41c.57-.08,.96-.6,.88-1.16Z"/><circle class="cls-1" cx="32.05" cy="68.92" r="2.02"/></g></g><g><circle class="cls-4" cx="16.29" cy="72.95" r="6.96"/><circle class="cls-4" cx="16.29" cy="72.95" r="2.35"/></g></g></symbol><radialGradient id="radial-gradient" cx="74.72" cy="61.29" fx="74.72" fy="61.29" r="104.22" gradientTransform="matrix(1, 0, 0, 1, 0, 0)" gradientUnits="userSpaceOnUse"><stop offset=".15" stop-color="#c8c8c8"/><stop offset=".26" stop-color="#b4b4b4"/><stop offset=".73" stop-color="#646464"/><stop offset=".94" stop-color="#454545"/></radialGradient><symbol id="Robot_base_2_2" viewBox="0 0 148.17 121.46"><g><rect class="cls-11" x="61.65" y="81.63" width="24.87" height="38.74"/><path class="cls-6" d="M147.12,69.26C147.12,31.53,114.41,.95,74.05,.95S.98,31.53,.98,69.26c0,1.08-.07,2.15-.01,3.22v10.24H147.2v-9.69c.07-1.25-.08-2.5-.08-3.76Z"/><polygon class="cls-2" points="2.06 64.37 146.11 64.37 145.56 59.42 2.65 59.42 2.06 64.37"/><polyline class="cls-5" points="96.41 83.55 96.41 89.52 51.76 89.52 51.76 83.55"/><g><circle class="cls-7" cx="89.67" cy="44.87" r="5.25"/><circle class="cls-7" cx="74.08" cy="44.87" r="5.25"/><circle class="cls-7" cx="58.5" cy="44.87" r="5.25"/></g><line class="cls-10" x1="1.76" y1="64.37" x2="146.41" y2="64.37"/><line class="cls-10" x1="2.21" y1="59.42" x2="145.95" y2="59.42"/></g></symbol><symbol id="Robot_wheels_2" viewBox="0 0 129.35 44.87"><g><g><path class="cls-9" d="M122.22,43.8h-45.49c-5.48,0-8.14-7.25-4.14-11.3L101.3,3.41c2.78-2.82,7.26-2.19,9.27,1.31l16.78,29.09c2.51,4.35-.39,9.99-5.13,9.99Z"/><path class="cls-9" d="M115.9,43.8h-45.49c-5.48,0-8.14-7.25-4.14-11.3L94.98,3.41c2.78-2.82,7.26-2.19,9.27,1.31l16.78,29.09c2.51,4.35-.39,9.99-5.13,9.99Z"/><path class="cls-9" d="M109.57,43.8h-45.49c-5.48,0-8.14-7.25-4.14-11.3L88.65,3.41c2.78-2.82,7.26-2.19,9.27,1.31l16.78,29.09c2.51,4.35-.39,9.99-5.13,9.99Z"/><path class="cls-9" d="M103.24,43.8H57.75c-5.48,0-8.14-7.25-4.14-11.3L82.32,3.41c2.78-2.82,7.26-2.19,9.27,1.31l16.78,29.09c2.51,4.35-.39,9.99-5.13,9.99Z"/><path class="cls-9" d="M96.91,43.8H51.43c-5.48,0-8.14-7.25-4.14-11.3L75.99,3.41c2.78-2.82,7.26-2.19,9.27,1.31l16.78,29.09c2.51,4.35-.39,9.99-5.13,9.99Z"/><path class="cls-9" d="M90.58,43.8H45.1c-5.48,0-8.14-7.25-4.14-11.3L69.66,3.41c2.78-2.82,7.26-2.19,9.27,1.31l16.78,29.09c2.51,4.35-.39,9.99-5.13,9.99Z"/><path class="cls-9" d="M84.26,43.8H38.77c-5.48,0-8.14-7.25-4.14-11.3L63.34,3.41c2.78-2.82,7.26-2.19,9.27,1.31l16.78,29.09c2.51,4.35-.39,9.99-5.13,9.99Z"/><path class="cls-9" d="M77.93,43.8H32.44c-5.48,0-8.14-7.25-4.14-11.3L57.01,3.41c2.78-2.82,7.26-2.19,9.27,1.31l16.78,29.09c2.51,4.35-.39,9.99-5.13,9.99Z"/><path class="cls-9" d="M71.6,43.8H26.12c-5.48,0-8.14-7.25-4.14-11.3L50.68,3.41c2.78-2.82,7.26-2.19,9.27,1.31l16.78,29.09c2.51,4.35-.39,9.99-5.13,9.99Z"/><path class="cls-9" d="M65.27,43.8H19.79c-5.48,0-8.14-7.25-4.14-11.3L44.35,3.41c2.78-2.82,7.26-2.19,9.27,1.31l16.78,29.09c2.51,4.35-.39,9.99-5.13,9.99Z"/><path class="cls-9" d="M58.94,43.8H13.46c-5.48,0-8.14-7.25-4.14-11.3L38.02,3.41c2.78-2.82,7.26-2.19,9.27,1.31l16.78,29.09c2.51,4.35-.39,9.99-5.13,9.99Z"/></g><path class="cls-3" d="M52.62,43.8H7.13c-5.48,0-8.14-7.25-4.14-11.3L31.7,3.41c2.78-2.82,7.26-2.19,9.27,1.31l16.78,29.09c2.51,4.35-.39,9.99-5.13,9.99Z"/><path class="cls-8" d="M122.22,43.8c4.75,0,7.64-5.64,5.13-9.99L109.43,2.81c-.62-1.08-1.77-1.74-3.01-1.74H36c-.92,0-1.8,.36-2.46,1.01L2.99,32.5c-4,4.05-1.34,11.3,4.14,11.3"/></g></symbol></defs><use width="96.45" height="86.24" transform="translate(5.93 168.13)" xlink:href="#Robot_arm_1"/><use width="96.45" height="86.24" transform="translate(293.93 168.13) rotate(-180) scale(1 -1)" xlink:href="#Robot_arm_1"/><use width="148.17" height="121.46" transform="translate(75.92 123.47)" xlink:href="#Robot_base_2_2"/><use width="129.35" height="44.87" transform="translate(85.32 232.41)" xlink:href="#Robot_wheels_2"/></svg>