<?xml version="1.0" encoding="UTF-8"?><svg id="Robos" xmlns="http://www.w3.org/2000/svg" xmlns:xlink="http://www.w3.org/1999/xlink" viewBox="0 0 300 300"><defs><style>.cls-1,.cls-2,.cls-3,.cls-4{fill:#c90000;}.cls-2,.cls-5,.cls-6,.cls-7,.cls-3,.cls-8,.cls-9,.cls-10,.cls-4{stroke-linecap:round;}.cls-2,.cls-5,.cls-6,.cls-7,.cls-3,.cls-8,.cls-9,.cls-10,.cls-4,.cls-11{stroke:#000;stroke-miterlimit:10;}.cls-2,.cls-6{stroke-width:2.24px;}.cls-5{fill:url(#radial-gradient);stroke-width:1.89px;}.cls-6{fill:#999;}.cls-7{fill:#fff;}.cls-7,.cls-10,.cls-4{stroke-width:2.14px;}.cls-3,.cls-8,.cls-9{stroke-width:2.14px;}.cls-8{fill:none;}.cls-9,.cls-11{fill:#7f7f7f;}.cls-10{fill:#fa2e19;}.cls-11{stroke-width:2.16px;}</style><symbol id="Robot_arm_4" viewBox="0 0 114.52 152.76"><g><g><polygon class="cls-2" points="11.83 77.9 38.98 133.41 32.98 136.34 5.84 80.83 11.83 77.9"/><polygon class="cls-2" points="23.37 72.26 50.51 127.77 44.52 130.7 17.38 75.19 23.37 72.26"/></g><circle class="cls-2" cx="44.24" cy="137.15" r="14.48"/><circle class="cls-6" cx="44.24" cy="137.15" r="4.89"/><g><polygon class="cls-2" points="45.29 15.25 15.26 69.25 9.44 66.01 39.46 12.01 45.29 15.25"/><polygon class="cls-2" points="56.51 21.49 26.49 75.49 20.66 72.25 50.68 18.25 56.51 21.49"/></g><circle class="cls-2" cx="15.6" cy="72.77" r="14.48"/><circle class="cls-6" cx="15.6" cy="72.77" r="4.89"/><g><polygon class="cls-2" points="98.19 61.79 58.46 14.47 63.57 10.18 103.3 57.5 98.19 61.79"/><polygon class="cls-2" points="88.36 70.05 48.63 22.72 53.74 18.44 93.47 65.76 88.36 70.05"/></g><circle class="cls-2" cx="49.7" cy="15.6" r="14.48"/><circle class="cls-6" cx="49.7" cy="15.6" r="4.89"/><g><g><path class="cls-2" d="M94.53,105.46l-1.42-.4c-.75-.21-1.19-.99-.98-1.74l6.25-22.38c.21-.75,.99-1.19,1.74-.98l1.42,.4c.75,.21,1.19,.99,.98,1.74l-6.25,22.38c-.21,.75-.99,1.19-1.74,.98Z"/><path class="cls-2" d="M95.39,102.04l.72,1.29c.38,.68,.14,1.54-.54,1.92l-20.25,11.41c-.68,.38-1.54,.14-1.92-.54l-.72-1.29c-.38-.68-.14-1.54,.54-1.92l20.25-11.41c.68-.38,1.54-.14,1.92,.54Z"/><circle class="cls-2" cx="94.46" cy="103.41" r="4.2"/></g><g><path class="cls-2" d="M68.93,82.35l1.42,.4c.75,.21,1.19,.99,.98,1.74l-6.25,22.38c-.21,.75-.99,1.19-1.74,.98l-1.42-.4c-.75-.21-1.19-.99-.98-1.74l6.25-22.38c.21-.75,.99-1.19,1.74-.98Z"/><path class="cls-2" d="M68.06,85.76l-.72-1.29c-.38-.68-.14-1.54,.54-1.92l20.25-11.41c.68-.38,1.54-.14,1.92,.54l.72,1.29c.38,.68,.14,1.54-.54,1.92l-20.25,11.41c-.68,.38-1.54,.14-1.92-.54Z"/><circle class="cls-2" cx="68.99" cy="84.39" r="4.2"/></g></g><circle class="cls-2" cx="98.92" cy="71.26" r="14.48"/><circle class="cls-6" cx="98.92" cy="71.26" r="4.89"/></g></symbol><radialGradient id="radial-gradient" cx="74.72" cy="61.29" fx="74.72" fy="61.29" r="104.22" gradientTransform="matrix(1, 0, 0, 1, 0, 0)" gradientUnits="userSpaceOnUse"><stop offset=".15" stop-color="#c8c8c8"/><stop offset=".26" stop-color="#b4b4b4"/><stop offset=".73" stop-color="#646464"/><stop offset=".94" stop-color="#454545"/></radialGradient><symbol id="Robot_base_2_2" viewBox="0 0 148.17 121.46"><g><rect class="cls-11" x="61.65" y="81.63" width="24.87" height="38.74"/><path class="cls-5" d="M147.12,69.26C147.12,31.53,114.41,.95,74.05,.95S.98,31.53,.98,69.26c0,1.08-.07,2.15-.01,3.22v10.24H147.2v-9.69c.07-1.25-.08-2.5-.08-3.76Z"/><polygon class="cls-1" points="2.06 64.37 146.11 64.37 145.56 59.42 2.65 59.42 2.06 64.37"/><polyline class="cls-4" points="96.41 83.55 96.41 89.52 51.76 89.52 51.76 83.55"/><g><circle class="cls-7" cx="89.67" cy="44.87" r="5.25"/><circle class="cls-7" cx="74.08" cy="44.87" r="5.25"/><circle class="cls-7" cx="58.5" cy="44.87" r="5.25"/></g><line class="cls-10" x1="1.76" y1="64.37" x2="146.41" y2="64.37"/><line class="cls-10" x1="2.21" y1="59.42" x2="145.95" y2="59.42"/></g></symbol><symbol id="Robot_wheels_2" viewBox="0 0 129.35 44.87"><g><g><path class="cls-9" d="M122.22,43.8h-45.49c-5.48,0-8.14-7.25-4.14-11.3L101.3,3.41c2.78-2.82,7.26-2.19,9.27,1.31l16.78,29.09c2.51,4.35-.39,9.99-5.13,9.99Z"/><path class="cls-9" d="M115.9,43.8h-45.49c-5.48,0-8.14-7.25-4.14-11.3L94.98,3.41c2.78-2.82,7.26-2.19,9.27,1.31l16.78,29.09c2.51,4.35-.39,9.99-5.13,9.99Z"/><path class="cls-9" d="M109.57,43.8h-45.49c-5.48,0-8.14-7.25-4.14-11.3L88.65,3.41c2.78-2.82,7.26-2.19,9.27,1.31l16.78,29.09c2.51,4.35-.39,9.99-5.13,9.99Z"/><path class="cls-9" d="M103.24,43.8H57.75c-5.48,0-8.14-7.25-4.14-11.3L82.32,3.41c2.78-2.82,7.26-2.19,9.27,1.31l16.78,29.09c2.51,4.35-.39,9.99-5.13,9.99Z"/><path class="cls-9" d="M96.91,43.8H51.43c-5.48,0-8.14-7.25-4.14-11.3L75.99,3.41c2.78-2.82,7.26-2.19,9.27,1.31l16.78,29.09c2.51,4.35-.39,9.99-5.13,9.99Z"/><path class="cls-9" d="M90.58,43.8H45.1c-5.48,0-8.14-7.25-4.14-11.3L69.66,3.41c2.78-2.82,7.26-2.19,9.27,1.31l16.78,29.09c2.51,4.35-.39,9.99-5.13,9.99Z"/><path class="cls-9" d="M84.26,43.8H38.77c-5.48,0-8.14-7.25-4.14-11.3L63.34,3.41c2.78-2.82,7.26-2.19,9.27,1.31l16.78,29.09c2.51,4.35-.39,9.99-5.13,9.99Z"/><path class="cls-9" d="M77.93,43.8H32.44c-5.48,0-8.14-7.25-4.14-11.3L57.01,3.41c2.78-2.82,7.26-2.19,9.27,1.31l16.78,29.09c2.51,4.35-.39,9.99-5.13,9.99Z"/><path class="cls-9" d="M71.6,43.8H26.12c-5.48,0-8.14-7.25-4.14-11.3L50.68,3.41c2.78-2.82,7.26-2.19,9.27,1.31l16.78,29.09c2.51,4.35-.39,9.99-5.13,9.99Z"/><path class="cls-9" d="M65.27,43.8H19.79c-5.48,0-8.14-7.25-4.14-11.3L44.35,3.41c2.78-2.82,7.26-2.19,9.27,1.31l16.78,29.09c2.51,4.35-.39,9.99-5.13,9.99Z"/><path class="cls-9" d="M58.94,43.8H13.46c-5.48,0-8.14-7.25-4.14-11.3L38.02,3.41c2.78-2.82,7.26-2.19,9.27,1.31l16.78,29.09c2.51,4.35-.39,9.99-5.13,9.99Z"/></g><path class="cls-3" d="M52.62,43.8H7.13c-5.48,0-8.14-7.25-4.14-11.3L31.7,3.41c2.78-2.82,7.26-2.19,9.27,1.31l16.78,29.09c2.51,4.35-.39,9.99-5.13,9.99Z"/><path class="cls-8" d="M122.22,43.8c4.75,0,7.64-5.64,5.13-9.99L109.43,2.81c-.62-1.08-1.77-1.74-3.01-1.74H36c-.92,0-1.8,.36-2.46,1.01L2.99,32.5c-4,4.05-1.34,11.3,4.14,11.3"/></g></symbol></defs><use width="114.52" height="152.76" transform="translate(101.31 6.21)" xlink:href="#Robot_arm_4"/><use width="148.17" height="121.46" transform="translate(75.92 123.47)" xlink:href="#Robot_base_2_2"/><use width="129.35" height="44.87" transform="translate(85.32 232.41)" xlink:href="#Robot_wheels_2"/></svg>