<?xml version="1.0" encoding="UTF-8"?><svg id="Robos" xmlns="http://www.w3.org/2000/svg" xmlns:xlink="http://www.w3.org/1999/xlink" viewBox="0 0 300 300"><defs><style>.cls-1{stroke-width:1.25px;}.cls-1,.cls-2,.cls-3,.cls-4,.cls-5,.cls-6,.cls-7,.cls-8,.cls-9,.cls-10,.cls-11{stroke:#000;stroke-miterlimit:10;}.cls-1,.cls-6,.cls-8{stroke-linecap:round;}.cls-1,.cls-6,.cls-8,.cls-9,.cls-10{fill:#c90000;}.cls-2{fill:#999;}.cls-2,.cls-7,.cls-9,.cls-11{stroke-width:2.16px;}.cls-3{fill:#a31e10;stroke-width:1.47px;}.cls-4{fill:url(#radial-gradient);}.cls-4,.cls-10{stroke-width:1.39px;}.cls-5{fill:#ccc;stroke-width:2.04px;}.cls-6{stroke-width:1.75px;}.cls-7{fill:#fff;}.cls-8{stroke-width:2.14px;}.cls-11{fill:#7f7f7f;}</style><symbol id="Robot_arm_1" viewBox="0 0 96.45 86.24"><g><polygon class="cls-6" points="16.92 69.51 8 43.7 4.35 44.96 13.26 70.77 16.92 69.51"/><polygon class="cls-6" points="7.74 42.01 31.15 18.04 28.31 15.41 4.9 39.39 7.74 42.01"/><circle class="cls-6" cx="5.26" cy="41.7" r="4.39"/><polygon class="cls-6" points="33.57 17.89 60.88 17.89 60.88 14.02 33.57 14.02 33.57 17.89"/><path class="cls-6" d="M61.15,22.79h7.19c1.65,0,2.98-1.33,2.98-2.98v-7.71c0-1.65-1.33-2.98-2.98-2.98h-7.19c-1.65,0-2.98,1.33-2.98,2.98v7.71c0,1.65,1.33,2.98,2.98,2.98Z"/><path class="cls-6" d="M73.15,31.03h15.85c3.63,0,6.57-2.94,6.57-6.57V7.45c0-3.63-2.94-6.57-6.57-6.57h-15.85c-3.63,0-6.57,2.94-6.57,6.57V24.46c0,3.63,2.94,6.57,6.57,6.57Z"/><circle class="cls-6" cx="32.29" cy="15.95" r="4.39"/><g><g><path class="cls-1" d="M28.6,84.12h0c.35-.45,.26-1.1-.2-1.45l-8.33-6.33c-.45-.35-1.1-.26-1.45,.2h0c-.35,.45-.26,1.1,.2,1.45l8.33,6.33c.45,.35,1.1,.26,1.45-.2Z"/><path class="cls-1" d="M27.11,83.69h0c.08,.57,.6,.96,1.16,.88l10.37-1.41c.57-.08,.96-.6,.88-1.16h0c-.08-.57-.6-.96-1.16-.88l-10.37,1.41c-.57,.08-.96,.6-.88,1.16Z"/><circle class="cls-1" cx="27.82" cy="83.6" r="2.02"/></g><g><path class="cls-1" d="M31.27,68.4h0c-.35,.45-.26,1.1,.2,1.45l8.33,6.33c.45,.35,1.1,.26,1.45-.2h0c.35-.45,.26-1.1-.2-1.45l-8.33-6.33c-.45-.35-1.1-.26-1.45,.2Z"/><path class="cls-1" d="M32.76,68.82h0c-.08-.57-.6-.96-1.16-.88l-10.37,1.41c-.57,.08-.96,.6-.88,1.16h0c.08,.57,.6,.96,1.16,.88l10.37-1.41c.57-.08,.96-.6,.88-1.16Z"/><circle class="cls-1" cx="32.05" cy="68.92" r="2.02"/></g></g><g><circle class="cls-6" cx="16.29" cy="72.95" r="6.96"/><circle class="cls-6" cx="16.29" cy="72.95" r="2.35"/></g></g></symbol><symbol id="Robot_wheels_1" viewBox="0 0 161.25 35.61"><g><rect class="cls-2" x="55.55" y="1.19" width="104.62" height="33.34" rx="15.36" ry="15.36"/><rect class="cls-9" x="38.25" y="1.08" width="104.62" height="33.34" rx="15.36" ry="15.36"/><circle class="cls-7" cx="56.41" cy="17.75" r="9.56"/><circle class="cls-7" cx="89.84" cy="17.75" r="9.56"/><circle class="cls-11" cx="123.28" cy="17.75" r="9.56"/><rect class="cls-2" x="18.37" y="1.19" width="104.62" height="33.34" rx="15.36" ry="15.36"/><rect class="cls-9" x="1.08" y="1.08" width="104.62" height="33.34" rx="15.36" ry="15.36"/><circle class="cls-11" cx="19.23" cy="17.75" r="9.56"/><circle class="cls-11" cx="52.67" cy="17.75" r="9.56"/><circle class="cls-11" cx="86.11" cy="17.75" r="9.56"/></g></symbol><radialGradient id="radial-gradient" cx="150" cy="136.02" fx="150" fy="136.02" r="119.65" gradientTransform="translate(285.85 -14.13) rotate(89.93)" gradientUnits="userSpaceOnUse"><stop offset=".15" stop-color="#e0e0e0"/><stop offset=".22" stop-color="#d5d5d5"/><stop offset=".34" stop-color="#b7b7b7"/><stop offset=".5" stop-color="#888"/><stop offset=".69" stop-color="#474747"/><stop offset=".69" stop-color="#454545"/></radialGradient></defs><use width="96.45" height="86.24" transform="translate(6.43 118.63)" xlink:href="#Robot_arm_1"/><use width="96.45" height="86.24" transform="translate(294.43 118.63) rotate(-180) scale(1 -1)" xlink:href="#Robot_arm_1"/><g><rect class="cls-11" x="137.56" y="198.82" width="24.87" height="38.74"/><polyline class="cls-8" points="172.33 200.74 172.33 206.71 127.67 206.71 127.67 200.74"/><rect class="cls-5" x="85.25" y="70.76" width="129.49" height="129.49" rx="17.48" ry="17.48"/><rect class="cls-10" x="94.04" y="80.06" width="111.92" height="111.92" rx="14.32" ry="14.32" transform="translate(.16 -.17) rotate(.07)"/><g><rect class="cls-4" x="105.67" y="91.69" width="88.66" height="88.66" transform="translate(13.8 285.86) rotate(-89.93)"/><line class="cls-3" x1="105.64" y1="165.52" x2="194.29" y2="165.63"/><line class="cls-3" x1="105.66" y1="150.75" x2="194.31" y2="150.85"/><line class="cls-3" x1="105.67" y1="135.97" x2="194.33" y2="136.07"/><line class="cls-3" x1="105.69" y1="121.2" x2="194.34" y2="121.3"/><line class="cls-3" x1="105.71" y1="106.42" x2="194.36" y2="106.52"/><line class="cls-3" x1="179.6" y1="91.73" x2="179.5" y2="180.38"/><line class="cls-3" x1="164.83" y1="91.71" x2="164.72" y2="180.37"/><line class="cls-3" x1="150.05" y1="91.69" x2="149.95" y2="180.35"/><line class="cls-3" x1="135.28" y1="91.68" x2="135.17" y2="180.33"/><line class="cls-3" x1="120.5" y1="91.66" x2="120.4" y2="180.32"/></g></g><use width="161.25" height="35.61" transform="translate(69.38 229.36)" xlink:href="#Robot_wheels_1"/></svg>