<?xml version="1.0" encoding="UTF-8"?><svg id="Robos" xmlns="http://www.w3.org/2000/svg" xmlns:xlink="http://www.w3.org/1999/xlink" viewBox="0 0 300 300"><defs><style>.cls-1{fill:#999;}.cls-1,.cls-2,.cls-3,.cls-4,.cls-5,.cls-6,.cls-7,.cls-8,.cls-9{stroke:#000;stroke-miterlimit:10;}.cls-1,.cls-5,.cls-7,.cls-9{stroke-width:2.16px;}.cls-2{fill:#a31e10;stroke-width:1.47px;}.cls-3{fill:url(#radial-gradient);}.cls-3,.cls-8{stroke-width:1.39px;}.cls-4{fill:#ccc;stroke-width:2.04px;}.cls-5{fill:#fff;}.cls-6{stroke-linecap:round;stroke-width:2.14px;}.cls-6,.cls-7,.cls-8{fill:#c90000;}.cls-9{fill:#7f7f7f;}</style><symbol id="Robot_wheels_1" viewBox="0 0 161.25 35.61"><g><rect class="cls-1" x="55.55" y="1.19" width="104.62" height="33.34" rx="15.36" ry="15.36"/><rect class="cls-7" x="38.25" y="1.08" width="104.62" height="33.34" rx="15.36" ry="15.36"/><circle class="cls-5" cx="56.41" cy="17.75" r="9.56"/><circle class="cls-5" cx="89.84" cy="17.75" r="9.56"/><circle class="cls-9" cx="123.28" cy="17.75" r="9.56"/><rect class="cls-1" x="18.37" y="1.19" width="104.62" height="33.34" rx="15.36" ry="15.36"/><rect class="cls-7" x="1.08" y="1.08" width="104.62" height="33.34" rx="15.36" ry="15.36"/><circle class="cls-9" cx="19.23" cy="17.75" r="9.56"/><circle class="cls-9" cx="52.67" cy="17.75" r="9.56"/><circle class="cls-9" cx="86.11" cy="17.75" r="9.56"/></g></symbol><radialGradient id="radial-gradient" cx="150" cy="136.02" fx="150" fy="136.02" r="119.65" gradientTransform="translate(285.85 -14.13) rotate(89.93)" gradientUnits="userSpaceOnUse"><stop offset=".15" stop-color="#e0e0e0"/><stop offset=".22" stop-color="#d5d5d5"/><stop offset=".34" stop-color="#b7b7b7"/><stop offset=".5" stop-color="#888"/><stop offset=".69" stop-color="#474747"/><stop offset=".69" stop-color="#454545"/></radialGradient></defs><g><rect class="cls-9" x="137.56" y="198.82" width="24.87" height="38.74"/><polyline class="cls-6" points="172.33 200.74 172.33 206.71 127.67 206.71 127.67 200.74"/><rect class="cls-4" x="85.25" y="70.76" width="129.49" height="129.49" rx="17.48" ry="17.48"/><rect class="cls-8" x="94.04" y="80.06" width="111.92" height="111.92" rx="14.32" ry="14.32" transform="translate(.16 -.17) rotate(.07)"/><g><rect class="cls-3" x="105.67" y="91.69" width="88.66" height="88.66" transform="translate(13.8 285.86) rotate(-89.93)"/><line class="cls-2" x1="105.64" y1="165.52" x2="194.29" y2="165.63"/><line class="cls-2" x1="105.66" y1="150.75" x2="194.31" y2="150.85"/><line class="cls-2" x1="105.67" y1="135.97" x2="194.33" y2="136.07"/><line class="cls-2" x1="105.69" y1="121.2" x2="194.34" y2="121.3"/><line class="cls-2" x1="105.71" y1="106.42" x2="194.36" y2="106.52"/><line class="cls-2" x1="179.6" y1="91.73" x2="179.5" y2="180.38"/><line class="cls-2" x1="164.83" y1="91.71" x2="164.72" y2="180.37"/><line class="cls-2" x1="150.05" y1="91.69" x2="149.95" y2="180.35"/><line class="cls-2" x1="135.28" y1="91.68" x2="135.17" y2="180.33"/><line class="cls-2" x1="120.5" y1="91.66" x2="120.4" y2="180.32"/></g></g><use width="161.25" height="35.61" transform="translate(69.38 229.36)" xlink:href="#Robot_wheels_1"/></svg>