<?xml version="1.0" encoding="UTF-8"?><svg id="Robos" xmlns="http://www.w3.org/2000/svg" xmlns:xlink="http://www.w3.org/1999/xlink" viewBox="0 0 300 300"><defs><style>.cls-1{fill:#a31e10;stroke-width:1.47px;}.cls-1,.cls-2,.cls-3,.cls-4,.cls-5,.cls-6,.cls-7,.cls-8,.cls-9,.cls-10,.cls-11{stroke:#000;stroke-miterlimit:10;}.cls-2,.cls-3,.cls-5{stroke-width:2.14px;}.cls-2,.cls-3,.cls-5,.cls-7,.cls-8,.cls-9{stroke-linecap:round;}.cls-2,.cls-7,.cls-9,.cls-10{fill:#c90000;}.cls-3{fill:none;}.cls-4{fill:url(#radial-gradient);}.cls-4,.cls-10{stroke-width:1.39px;}.cls-5,.cls-11{fill:#7f7f7f;}.cls-6{fill:#ccc;stroke-width:2.04px;}.cls-7,.cls-8{stroke-width:1.47px;}.cls-8{fill:#999;}.cls-9{stroke-width:2.14px;}.cls-11{stroke-width:2.16px;}</style><symbol id="Robot_arm_3" viewBox="0 0 96.95 93.53"><g><path class="cls-9" d="M79.32,54.91h0c9.15,0,16.56-7.41,16.56-16.56V18.4c0-9.15-7.41-16.56-16.56-16.56h0c-9.15,0-16.56,7.41-16.56,16.56v19.96c0,9.15,7.41,16.56,16.56,16.56Z"/><circle class="cls-8" cx="72.61" cy="13.1" r="2.17"/><circle class="cls-8" cx="72.61" cy="20.53" r="2.17"/><g><polygon class="cls-7" points="35.33 8.62 66.68 34.41 69.46 31.02 38.11 5.24 35.33 8.62"/><polygon class="cls-7" points="29.97 15.14 61.32 40.92 64.1 37.54 32.76 11.75 29.97 15.14"/></g><g><circle class="cls-7" cx="65.29" cy="34.77" r="9.51"/><circle class="cls-8" cx="65.29" cy="34.77" r="3.21"/></g><g><polygon class="cls-7" points="8.5 48.19 27.92 12.55 24.07 10.46 4.65 46.1 8.5 48.19"/><polygon class="cls-7" points="15.91 52.23 35.32 16.59 31.48 14.49 12.06 50.13 15.91 52.23"/></g><g><circle class="cls-7" cx="31.48" cy="10.25" r="9.51"/><circle class="cls-8" cx="31.48" cy="10.25" r="3.21"/></g><g><polygon class="cls-7" points="37.06 82.03 9.5 52.23 6.29 55.21 33.85 85 37.06 82.03"/><polygon class="cls-7" points="43.25 76.3 15.69 46.5 12.48 49.48 40.04 79.27 43.25 76.3"/></g><g><circle class="cls-7" cx="10.25" cy="50.52" r="9.51"/><circle class="cls-8" cx="10.25" cy="50.52" r="3.21"/></g><g><g><path class="cls-7" d="M65.84,84.17h0c-.08-.78-.77-1.34-1.55-1.27l-14.23,1.42c-.78,.08-1.34,.77-1.27,1.55h0c.08,.78,.77,1.34,1.55,1.27l14.23-1.42c.78-.08,1.34-.77,1.27-1.55Z"/><path class="cls-7" d="M63.95,85.13h0c.6,.49,1.49,.41,1.99-.2l9.05-11.06c.49-.6,.41-1.49-.2-1.99h0c-.6-.49-1.49-.41-1.99,.2l-9.05,11.06c-.49,.6-.41,1.49,.2,1.99Z"/><circle class="cls-7" cx="64.57" cy="84.38" r="2.76"/></g><g><path class="cls-7" d="M53.87,65.96h0c.08,.78,.77,1.34,1.55,1.27l14.23-1.42c.78-.08,1.34-.77,1.27-1.55h0c-.08-.78-.77-1.34-1.55-1.27l-14.23,1.42c-.78,.08-1.34,.77-1.27,1.55Z"/><path class="cls-7" d="M55.76,65h0c-.6-.49-1.49-.41-1.99,.2l-9.05,11.06c-.49,.6-.41,1.49,.2,1.99h0c.6,.49,1.49,.41,1.99-.2l9.05-11.06c.49-.6,.41-1.49-.2-1.99Z"/><circle class="cls-7" cx="55.14" cy="65.75" r="2.76"/></g></g><g><circle class="cls-7" cx="43.17" cy="83.29" r="9.51"/><circle class="cls-8" cx="43.17" cy="83.29" r="3.21"/></g></g></symbol><symbol id="Robot_wheels_2" viewBox="0 0 129.35 44.87"><g><g><path class="cls-5" d="M122.22,43.8h-45.49c-5.48,0-8.14-7.25-4.14-11.3L101.3,3.41c2.78-2.82,7.26-2.19,9.27,1.31l16.78,29.09c2.51,4.35-.39,9.99-5.13,9.99Z"/><path class="cls-5" d="M115.9,43.8h-45.49c-5.48,0-8.14-7.25-4.14-11.3L94.98,3.41c2.78-2.82,7.26-2.19,9.27,1.31l16.78,29.09c2.51,4.35-.39,9.99-5.13,9.99Z"/><path class="cls-5" d="M109.57,43.8h-45.49c-5.48,0-8.14-7.25-4.14-11.3L88.65,3.41c2.78-2.82,7.26-2.19,9.27,1.31l16.78,29.09c2.51,4.35-.39,9.99-5.13,9.99Z"/><path class="cls-5" d="M103.24,43.8H57.75c-5.48,0-8.14-7.25-4.14-11.3L82.32,3.41c2.78-2.82,7.26-2.19,9.27,1.31l16.78,29.09c2.51,4.35-.39,9.99-5.13,9.99Z"/><path class="cls-5" d="M96.91,43.8H51.43c-5.48,0-8.14-7.25-4.14-11.3L75.99,3.41c2.78-2.82,7.26-2.19,9.27,1.31l16.78,29.09c2.51,4.35-.39,9.99-5.13,9.99Z"/><path class="cls-5" d="M90.58,43.8H45.1c-5.48,0-8.14-7.25-4.14-11.3L69.66,3.41c2.78-2.82,7.26-2.19,9.27,1.31l16.78,29.09c2.51,4.35-.39,9.99-5.13,9.99Z"/><path class="cls-5" d="M84.26,43.8H38.77c-5.48,0-8.14-7.25-4.14-11.3L63.34,3.41c2.78-2.82,7.26-2.19,9.27,1.31l16.78,29.09c2.51,4.35-.39,9.99-5.13,9.99Z"/><path class="cls-5" d="M77.93,43.8H32.44c-5.48,0-8.14-7.25-4.14-11.3L57.01,3.41c2.78-2.82,7.26-2.19,9.27,1.31l16.78,29.09c2.51,4.35-.39,9.99-5.13,9.99Z"/><path class="cls-5" d="M71.6,43.8H26.12c-5.48,0-8.14-7.25-4.14-11.3L50.68,3.41c2.78-2.82,7.26-2.19,9.27,1.31l16.78,29.09c2.51,4.35-.39,9.99-5.13,9.99Z"/><path class="cls-5" d="M65.27,43.8H19.79c-5.48,0-8.14-7.25-4.14-11.3L44.35,3.41c2.78-2.82,7.26-2.19,9.27,1.31l16.78,29.09c2.51,4.35-.39,9.99-5.13,9.99Z"/><path class="cls-5" d="M58.94,43.8H13.46c-5.48,0-8.14-7.25-4.14-11.3L38.02,3.41c2.78-2.82,7.26-2.19,9.27,1.31l16.78,29.09c2.51,4.35-.39,9.99-5.13,9.99Z"/></g><path class="cls-2" d="M52.62,43.8H7.13c-5.48,0-8.14-7.25-4.14-11.3L31.7,3.41c2.78-2.82,7.26-2.19,9.27,1.31l16.78,29.09c2.51,4.35-.39,9.99-5.13,9.99Z"/><path class="cls-3" d="M122.22,43.8c4.75,0,7.64-5.64,5.13-9.99L109.43,2.81c-.62-1.08-1.77-1.74-3.01-1.74H36c-.92,0-1.8,.36-2.46,1.01L2.99,32.5c-4,4.05-1.34,11.3,4.14,11.3"/></g></symbol><radialGradient id="radial-gradient" cx="150" cy="136.02" fx="150" fy="136.02" r="119.65" gradientTransform="translate(285.85 -14.13) rotate(89.93)" gradientUnits="userSpaceOnUse"><stop offset=".15" stop-color="#e0e0e0"/><stop offset=".22" stop-color="#d5d5d5"/><stop offset=".34" stop-color="#b7b7b7"/><stop offset=".5" stop-color="#888"/><stop offset=".69" stop-color="#474747"/><stop offset=".69" stop-color="#454545"/></radialGradient></defs><use width="96.95" height="93.53" transform="translate(1.54 123.66)" xlink:href="#Robot_arm_3"/><use width="96.95" height="93.53" transform="translate(298.67 123.66) rotate(-180) scale(1 -1)" xlink:href="#Robot_arm_3"/><g><rect class="cls-11" x="137.56" y="198.82" width="24.87" height="38.74"/><polyline class="cls-9" points="172.33 200.74 172.33 206.71 127.67 206.71 127.67 200.74"/><rect class="cls-6" x="85.25" y="70.76" width="129.49" height="129.49" rx="17.48" ry="17.48"/><rect class="cls-10" x="94.04" y="80.06" width="111.92" height="111.92" rx="14.32" ry="14.32" transform="translate(.16 -.17) rotate(.07)"/><g><rect class="cls-4" x="105.67" y="91.69" width="88.66" height="88.66" transform="translate(13.8 285.86) rotate(-89.93)"/><line class="cls-1" x1="105.64" y1="165.52" x2="194.29" y2="165.63"/><line class="cls-1" x1="105.66" y1="150.75" x2="194.31" y2="150.85"/><line class="cls-1" x1="105.67" y1="135.97" x2="194.33" y2="136.07"/><line class="cls-1" x1="105.69" y1="121.2" x2="194.34" y2="121.3"/><line class="cls-1" x1="105.71" y1="106.42" x2="194.36" y2="106.52"/><line class="cls-1" x1="179.6" y1="91.73" x2="179.5" y2="180.38"/><line class="cls-1" x1="164.83" y1="91.71" x2="164.72" y2="180.37"/><line class="cls-1" x1="150.05" y1="91.69" x2="149.95" y2="180.35"/><line class="cls-1" x1="135.28" y1="91.68" x2="135.17" y2="180.33"/><line class="cls-1" x1="120.5" y1="91.66" x2="120.4" y2="180.32"/></g></g><use width="129.35" height="44.87" transform="translate(85.32 232.41)" xlink:href="#Robot_wheels_2"/></svg>