<?xml version="1.0" encoding="UTF-8"?><svg id="Robos" xmlns="http://www.w3.org/2000/svg" xmlns:xlink="http://www.w3.org/1999/xlink" viewBox="0 0 300 300"><defs><style>.cls-1{stroke-width:1.25px;}.cls-1,.cls-2,.cls-3,.cls-4,.cls-5,.cls-6,.cls-7,.cls-8,.cls-9,.cls-10,.cls-11,.cls-12,.cls-13,.cls-14,.cls-15{stroke-miterlimit:10;}.cls-1,.cls-2,.cls-3,.cls-5,.cls-6,.cls-7,.cls-8,.cls-9,.cls-11,.cls-12,.cls-13,.cls-14,.cls-15{stroke:#000;}.cls-1,.cls-2,.cls-3,.cls-5,.cls-6,.cls-9,.cls-11,.cls-12,.cls-13{stroke-linecap:round;}.cls-1,.cls-5,.cls-12,.cls-13,.cls-15{fill:#c90000;}.cls-16,.cls-3,.cls-4{fill:#fff;}.cls-2{fill:url(#radial-gradient);stroke-width:1.89px;}.cls-3,.cls-11,.cls-13{stroke-width:2.14px;}.cls-4{stroke-width:.26px;}.cls-4,.cls-10{stroke:#999;}.cls-5,.cls-6,.cls-9{stroke-width:2.14px;}.cls-6,.cls-10{fill:none;}.cls-7{fill:#ccc;stroke-width:1.42px;}.cls-8{fill:#999;}.cls-8,.cls-15{stroke-width:1.44px;}.cls-9,.cls-14{fill:#7f7f7f;}.cls-10{stroke-width:2.82px;}.cls-11{fill:#fa2e19;}.cls-12{stroke-width:1.75px;}.cls-14{stroke-width:2.16px;}.cls-17{fill:#f2f2f2;}</style><symbol id="Robot_arm_1" viewBox="0 0 96.45 86.24"><g><polygon class="cls-12" points="16.92 69.51 8 43.7 4.35 44.96 13.26 70.77 16.92 69.51"/><polygon class="cls-12" points="7.74 42.01 31.15 18.04 28.31 15.41 4.9 39.39 7.74 42.01"/><circle class="cls-12" cx="5.26" cy="41.7" r="4.39"/><polygon class="cls-12" points="33.57 17.89 60.88 17.89 60.88 14.02 33.57 14.02 33.57 17.89"/><path class="cls-12" d="M61.15,22.79h7.19c1.65,0,2.98-1.33,2.98-2.98v-7.71c0-1.65-1.33-2.98-2.98-2.98h-7.19c-1.65,0-2.98,1.33-2.98,2.98v7.71c0,1.65,1.33,2.98,2.98,2.98Z"/><path class="cls-12" d="M73.15,31.03h15.85c3.63,0,6.57-2.94,6.57-6.57V7.45c0-3.63-2.94-6.57-6.57-6.57h-15.85c-3.63,0-6.57,2.94-6.57,6.57V24.46c0,3.63,2.94,6.57,6.57,6.57Z"/><circle class="cls-12" cx="32.29" cy="15.95" r="4.39"/><g><g><path class="cls-1" d="M28.6,84.12h0c.35-.45,.26-1.1-.2-1.45l-8.33-6.33c-.45-.35-1.1-.26-1.45,.2h0c-.35,.45-.26,1.1,.2,1.45l8.33,6.33c.45,.35,1.1,.26,1.45-.2Z"/><path class="cls-1" d="M27.11,83.69h0c.08,.57,.6,.96,1.16,.88l10.37-1.41c.57-.08,.96-.6,.88-1.16h0c-.08-.57-.6-.96-1.16-.88l-10.37,1.41c-.57,.08-.96,.6-.88,1.16Z"/><circle class="cls-1" cx="27.82" cy="83.6" r="2.02"/></g><g><path class="cls-1" d="M31.27,68.4h0c-.35,.45-.26,1.1,.2,1.45l8.33,6.33c.45,.35,1.1,.26,1.45-.2h0c.35-.45,.26-1.1-.2-1.45l-8.33-6.33c-.45-.35-1.1-.26-1.45,.2Z"/><path class="cls-1" d="M32.76,68.82h0c-.08-.57-.6-.96-1.16-.88l-10.37,1.41c-.57,.08-.96,.6-.88,1.16h0c.08,.57,.6,.96,1.16,.88l10.37-1.41c.57-.08,.96-.6,.88-1.16Z"/><circle class="cls-1" cx="32.05" cy="68.92" r="2.02"/></g></g><g><circle class="cls-12" cx="16.29" cy="72.95" r="6.96"/><circle class="cls-12" cx="16.29" cy="72.95" r="2.35"/></g></g></symbol><symbol id="Robot_eyes_1" viewBox="0 0 152.36 59.06"><g><path class="cls-15" d="M122.83,58.35H29.53C13.64,58.35,.72,45.42,.72,29.53S13.64,.72,29.53,.72H122.83c15.89,0,28.81,12.93,28.81,28.81s-12.93,28.81-28.81,28.81Z"/><path class="cls-8" d="M29.53,9.18c-11.22,0-20.36,9.13-20.36,20.36s9.13,20.36,20.36,20.36H122.83c11.22,0,20.36-9.13,20.36-20.36s-9.13-20.36-20.36-20.36H29.53Z"/><ellipse class="cls-4" cx="30.14" cy="29.53" rx="11.83" ry="11.28"/><ellipse class="cls-10" cx="30.14" cy="29.53" rx="14.59" ry="13.91"/><g><circle class="cls-7" cx="30.14" cy="29.53" r="15.44"/><g><circle cx="30.14" cy="29.53" r="12.47"/><circle class="cls-17" cx="30.14" cy="29.53" r="10.33"/><circle cx="30.14" cy="29.53" r="6.06"/><circle class="cls-16" cx="26.27" cy="25.79" r="2.8"/></g></g><ellipse class="cls-4" cx="122.53" cy="29.53" rx="11.83" ry="11.28"/><ellipse class="cls-10" cx="122.53" cy="29.53" rx="14.59" ry="13.91"/><g><circle class="cls-7" cx="122.53" cy="29.53" r="15.44"/><g><circle cx="122.53" cy="29.53" r="12.47"/><circle class="cls-17" cx="122.53" cy="29.53" r="10.33"/><circle cx="122.53" cy="29.53" r="6.06"/><circle class="cls-16" cx="118.66" cy="25.79" r="2.8"/></g></g></g></symbol><symbol id="Robot_wheels_2" viewBox="0 0 129.35 44.87"><g><g><path class="cls-9" d="M122.22,43.8h-45.49c-5.48,0-8.14-7.25-4.14-11.3L101.3,3.41c2.78-2.82,7.26-2.19,9.27,1.31l16.78,29.09c2.51,4.35-.39,9.99-5.13,9.99Z"/><path class="cls-9" d="M115.9,43.8h-45.49c-5.48,0-8.14-7.25-4.14-11.3L94.98,3.41c2.78-2.82,7.26-2.19,9.27,1.31l16.78,29.09c2.51,4.35-.39,9.99-5.13,9.99Z"/><path class="cls-9" d="M109.57,43.8h-45.49c-5.48,0-8.14-7.25-4.14-11.3L88.65,3.41c2.78-2.82,7.26-2.19,9.27,1.31l16.78,29.09c2.51,4.35-.39,9.99-5.13,9.99Z"/><path class="cls-9" d="M103.24,43.8H57.75c-5.48,0-8.14-7.25-4.14-11.3L82.32,3.41c2.78-2.82,7.26-2.19,9.27,1.31l16.78,29.09c2.51,4.35-.39,9.99-5.13,9.99Z"/><path class="cls-9" d="M96.91,43.8H51.43c-5.48,0-8.14-7.25-4.14-11.3L75.99,3.41c2.78-2.82,7.26-2.19,9.27,1.31l16.78,29.09c2.51,4.35-.39,9.99-5.13,9.99Z"/><path class="cls-9" d="M90.58,43.8H45.1c-5.48,0-8.14-7.25-4.14-11.3L69.66,3.41c2.78-2.82,7.26-2.19,9.27,1.31l16.78,29.09c2.51,4.35-.39,9.99-5.13,9.99Z"/><path class="cls-9" d="M84.26,43.8H38.77c-5.48,0-8.14-7.25-4.14-11.3L63.34,3.41c2.78-2.82,7.26-2.19,9.27,1.31l16.78,29.09c2.51,4.35-.39,9.99-5.13,9.99Z"/><path class="cls-9" d="M77.93,43.8H32.44c-5.48,0-8.14-7.25-4.14-11.3L57.01,3.41c2.78-2.82,7.26-2.19,9.27,1.31l16.78,29.09c2.51,4.35-.39,9.99-5.13,9.99Z"/><path class="cls-9" d="M71.6,43.8H26.12c-5.48,0-8.14-7.25-4.14-11.3L50.68,3.41c2.78-2.82,7.26-2.19,9.27,1.31l16.78,29.09c2.51,4.35-.39,9.99-5.13,9.99Z"/><path class="cls-9" d="M65.27,43.8H19.79c-5.48,0-8.14-7.25-4.14-11.3L44.35,3.41c2.78-2.82,7.26-2.19,9.27,1.31l16.78,29.09c2.51,4.35-.39,9.99-5.13,9.99Z"/><path class="cls-9" d="M58.94,43.8H13.46c-5.48,0-8.14-7.25-4.14-11.3L38.02,3.41c2.78-2.82,7.26-2.19,9.27,1.31l16.78,29.09c2.51,4.35-.39,9.99-5.13,9.99Z"/></g><path class="cls-5" d="M52.62,43.8H7.13c-5.48,0-8.14-7.25-4.14-11.3L31.7,3.41c2.78-2.82,7.26-2.19,9.27,1.31l16.78,29.09c2.51,4.35-.39,9.99-5.13,9.99Z"/><path class="cls-6" d="M122.22,43.8c4.75,0,7.64-5.64,5.13-9.99L109.43,2.81c-.62-1.08-1.77-1.74-3.01-1.74H36c-.92,0-1.8,.36-2.46,1.01L2.99,32.5c-4,4.05-1.34,11.3,4.14,11.3"/></g></symbol><radialGradient id="radial-gradient" cx="155.35" cy="184.75" fx="155.35" fy="184.75" r="86.26" gradientTransform="matrix(1, 0, 0, 1, 0, 0)" gradientUnits="userSpaceOnUse"><stop offset="0" stop-color="#ed3939"/><stop offset=".16" stop-color="#e83232"/><stop offset=".39" stop-color="#dd2020"/><stop offset=".66" stop-color="#ca0202"/><stop offset=".68" stop-color="#c90000"/></radialGradient></defs><use width="96.45" height="86.24" transform="translate(5.93 168.13)" xlink:href="#Robot_arm_1"/><use width="96.45" height="86.24" transform="translate(293.93 168.13) rotate(-180) scale(1 -1)" xlink:href="#Robot_arm_1"/><g><rect class="cls-14" x="142.28" y="205.1" width="24.87" height="38.74"/><path class="cls-2" d="M227.75,192.73c0-37.73-32.71-68.32-73.07-68.32s-73.07,30.59-73.07,68.32c0,1.08-.07,2.15-.01,3.22v10.24H227.83v-9.69c.07-1.25-.08-2.5-.08-3.76Z"/><polyline class="cls-13" points="177.04 207.02 177.04 212.98 132.39 212.98 132.39 207.02"/><g><circle class="cls-3" cx="170.3" cy="168.34" r="5.25"/><circle class="cls-3" cx="154.72" cy="168.34" r="5.25"/><circle class="cls-3" cx="139.13" cy="168.34" r="5.25"/></g><line class="cls-11" x1="82.39" y1="187.83" x2="227.04" y2="187.83"/><line class="cls-11" x1="82.85" y1="182.89" x2="226.59" y2="182.89"/></g><use width="129.35" height="44.87" transform="translate(85.32 232.41)" xlink:href="#Robot_wheels_2"/><use width="152.36" height="59.06" transform="translate(73.82 91.25)" xlink:href="#Robot_eyes_1"/></svg>