<?xml version="1.0" encoding="UTF-8"?><svg id="Robos" xmlns="http://www.w3.org/2000/svg" xmlns:xlink="http://www.w3.org/1999/xlink" viewBox="0 0 300 300"><defs><style>.cls-1{fill:#c90000;}.cls-1,.cls-2,.cls-3,.cls-4,.cls-5,.cls-6,.cls-7{stroke:#000;stroke-linecap:round;stroke-miterlimit:10;}.cls-1,.cls-4{stroke-width:2.24px;}.cls-2,.cls-4,.cls-8{fill:#999;}.cls-2,.cls-5,.cls-6,.cls-7{stroke-width:2.14px;}.cls-3{fill:none;stroke-width:1.3px;}.cls-5{fill:#fff;}.cls-6{fill:url(#New_Gradient_Swatch_19);}.cls-7{fill:#fa2e19;}</style><symbol id="Robot_arm_4" viewBox="0 0 114.52 152.76"><g><g><polygon class="cls-1" points="11.83 77.9 38.98 133.41 32.98 136.34 5.84 80.83 11.83 77.9"/><polygon class="cls-1" points="23.37 72.26 50.51 127.77 44.52 130.7 17.38 75.19 23.37 72.26"/></g><circle class="cls-1" cx="44.24" cy="137.15" r="14.48"/><circle class="cls-4" cx="44.24" cy="137.15" r="4.89"/><g><polygon class="cls-1" points="45.29 15.25 15.26 69.25 9.44 66.01 39.46 12.01 45.29 15.25"/><polygon class="cls-1" points="56.51 21.49 26.49 75.49 20.66 72.25 50.68 18.25 56.51 21.49"/></g><circle class="cls-1" cx="15.6" cy="72.77" r="14.48"/><circle class="cls-4" cx="15.6" cy="72.77" r="4.89"/><g><polygon class="cls-1" points="98.19 61.79 58.46 14.47 63.57 10.18 103.3 57.5 98.19 61.79"/><polygon class="cls-1" points="88.36 70.05 48.63 22.72 53.74 18.44 93.47 65.76 88.36 70.05"/></g><circle class="cls-1" cx="49.7" cy="15.6" r="14.48"/><circle class="cls-4" cx="49.7" cy="15.6" r="4.89"/><g><g><path class="cls-1" d="M94.53,105.46l-1.42-.4c-.75-.21-1.19-.99-.98-1.74l6.25-22.38c.21-.75,.99-1.19,1.74-.98l1.42,.4c.75,.21,1.19,.99,.98,1.74l-6.25,22.38c-.21,.75-.99,1.19-1.74,.98Z"/><path class="cls-1" d="M95.39,102.04l.72,1.29c.38,.68,.14,1.54-.54,1.92l-20.25,11.41c-.68,.38-1.54,.14-1.92-.54l-.72-1.29c-.38-.68-.14-1.54,.54-1.92l20.25-11.41c.68-.38,1.54-.14,1.92,.54Z"/><circle class="cls-1" cx="94.46" cy="103.41" r="4.2"/></g><g><path class="cls-1" d="M68.93,82.35l1.42,.4c.75,.21,1.19,.99,.98,1.74l-6.25,22.38c-.21,.75-.99,1.19-1.74,.98l-1.42-.4c-.75-.21-1.19-.99-.98-1.74l6.25-22.38c.21-.75,.99-1.19,1.74-.98Z"/><path class="cls-1" d="M68.06,85.76l-.72-1.29c-.38-.68-.14-1.54,.54-1.92l20.25-11.41c.68-.38,1.54-.14,1.92,.54l.72,1.29c.38,.68,.14,1.54-.54,1.92l-20.25,11.41c-.68,.38-1.54,.14-1.92-.54Z"/><circle class="cls-1" cx="68.99" cy="84.39" r="4.2"/></g></g><circle class="cls-1" cx="98.92" cy="71.26" r="14.48"/><circle class="cls-4" cx="98.92" cy="71.26" r="4.89"/></g></symbol><radialGradient id="New_Gradient_Swatch_19" cx="73.53" cy="45.64" fx="73.53" fy="45.64" r="86.6" gradientTransform="matrix(1, 0, 0, 1, 0, 0)" gradientUnits="userSpaceOnUse"><stop offset=".11" stop-color="#ed3939"/><stop offset=".16" stop-color="#e93333"/><stop offset=".65" stop-color="#c90000"/></radialGradient><symbol id="Robot_base_3" viewBox="0 0 148.28 139.31"><g><ellipse class="cls-2" cx="74.14" cy="65.12" rx="62.07" ry="32.26"/><g><ellipse class="cls-3" cx="74.14" cy="110.32" rx="34.6" ry="4.42"/><ellipse class="cls-3" cx="74.14" cy="123.29" rx="29.56" ry="4.1"/><ellipse class="cls-3" cx="74.14" cy="135.57" rx="22.26" ry="3.09"/></g><path class="cls-6" d="M147.21,69.39C147.21,31.66,114.5,1.07,74.14,1.07S1.07,31.66,1.07,69.39h0v.1c0,7.38,6.08,13.36,13.46,13.36h119.21c7.38,0,13.46-5.98,13.46-13.36v-.1h0Z"/><g><circle class="cls-5" cx="89.73" cy="45" r="5.25"/><circle class="cls-5" cx="74.14" cy="45" r="5.25"/><circle class="cls-5" cx="58.55" cy="45" r="5.25"/></g><polygon class="cls-8" points="2.27 64.49 146.01 64.49 145.47 59.54 2.79 59.54 2.27 64.49"/><line class="cls-7" x1="1.31" y1="64.49" x2="146.97" y2="64.49"/><line class="cls-7" x1="146.01" y1="59.54" x2="2.27" y2="59.54"/></g></symbol></defs><use width="114.52" height="152.76" transform="translate(101.31 6.21)" xlink:href="#Robot_arm_4"/><use width="148.28" height="139.31" transform="translate(78.58 144.84)" xlink:href="#Robot_base_3"/></svg>