<?xml version="1.0" encoding="UTF-8"?><svg id="Robos" xmlns="http://www.w3.org/2000/svg" xmlns:xlink="http://www.w3.org/1999/xlink" viewBox="0 0 300 300"><defs><style>.cls-1,.cls-2,.cls-3{fill:#fff;}.cls-4,.cls-5,.cls-2,.cls-3,.cls-6,.cls-7,.cls-8,.cls-9,.cls-10,.cls-11{stroke-miterlimit:10;}.cls-4,.cls-5,.cls-2,.cls-6,.cls-7,.cls-8,.cls-10,.cls-11{stroke:#000;}.cls-4,.cls-5,.cls-2,.cls-6,.cls-10{stroke-linecap:round;}.cls-4,.cls-2,.cls-6,.cls-10{stroke-width:2.14px;}.cls-4,.cls-8,.cls-12{fill:#999;}.cls-5{stroke-width:1.3px;}.cls-5,.cls-9{fill:none;}.cls-3{stroke-width:.26px;}.cls-3,.cls-9{stroke:#999;}.cls-6{fill:url(#New_Gradient_Swatch_19);}.cls-7{fill:#ccc;stroke-width:1.42px;}.cls-8,.cls-11{stroke-width:1.44px;}.cls-9{stroke-width:2.82px;}.cls-10{fill:#fa2e19;}.cls-11{fill:#c90000;}.cls-13{fill:#f2f2f2;}</style><radialGradient id="New_Gradient_Swatch_19" cx="73.53" cy="45.64" fx="73.53" fy="45.64" r="86.6" gradientTransform="matrix(1, 0, 0, 1, 0, 0)" gradientUnits="userSpaceOnUse"><stop offset=".11" stop-color="#ed3939"/><stop offset=".16" stop-color="#e93333"/><stop offset=".65" stop-color="#c90000"/></radialGradient><symbol id="Robot_base_3" viewBox="0 0 148.28 139.31"><g><ellipse class="cls-4" cx="74.14" cy="65.12" rx="62.07" ry="32.26"/><g><ellipse class="cls-5" cx="74.14" cy="110.32" rx="34.6" ry="4.42"/><ellipse class="cls-5" cx="74.14" cy="123.29" rx="29.56" ry="4.1"/><ellipse class="cls-5" cx="74.14" cy="135.57" rx="22.26" ry="3.09"/></g><path class="cls-6" d="M147.21,69.39C147.21,31.66,114.5,1.07,74.14,1.07S1.07,31.66,1.07,69.39h0v.1c0,7.38,6.08,13.36,13.46,13.36h119.21c7.38,0,13.46-5.98,13.46-13.36v-.1h0Z"/><g><circle class="cls-2" cx="89.73" cy="45" r="5.25"/><circle class="cls-2" cx="74.14" cy="45" r="5.25"/><circle class="cls-2" cx="58.55" cy="45" r="5.25"/></g><polygon class="cls-12" points="2.27 64.49 146.01 64.49 145.47 59.54 2.79 59.54 2.27 64.49"/><line class="cls-10" x1="1.31" y1="64.49" x2="146.97" y2="64.49"/><line class="cls-10" x1="146.01" y1="59.54" x2="2.27" y2="59.54"/></g></symbol><symbol id="Robot_eyes_1" viewBox="0 0 152.36 59.06"><g><path class="cls-11" d="M122.83,58.35H29.53C13.64,58.35,.72,45.42,.72,29.53S13.64,.72,29.53,.72H122.83c15.89,0,28.81,12.93,28.81,28.81s-12.93,28.81-28.81,28.81Z"/><path class="cls-8" d="M29.53,9.18c-11.22,0-20.36,9.13-20.36,20.36s9.13,20.36,20.36,20.36H122.83c11.22,0,20.36-9.13,20.36-20.36s-9.13-20.36-20.36-20.36H29.53Z"/><ellipse class="cls-3" cx="30.14" cy="29.53" rx="11.83" ry="11.28"/><ellipse class="cls-9" cx="30.14" cy="29.53" rx="14.59" ry="13.91"/><g><circle class="cls-7" cx="30.14" cy="29.53" r="15.44"/><g><circle cx="30.14" cy="29.53" r="12.47"/><circle class="cls-13" cx="30.14" cy="29.53" r="10.33"/><circle cx="30.14" cy="29.53" r="6.06"/><circle class="cls-1" cx="26.27" cy="25.79" r="2.8"/></g></g><ellipse class="cls-3" cx="122.53" cy="29.53" rx="11.83" ry="11.28"/><ellipse class="cls-9" cx="122.53" cy="29.53" rx="14.59" ry="13.91"/><g><circle class="cls-7" cx="122.53" cy="29.53" r="15.44"/><g><circle cx="122.53" cy="29.53" r="12.47"/><circle class="cls-13" cx="122.53" cy="29.53" r="10.33"/><circle cx="122.53" cy="29.53" r="6.06"/><circle class="cls-1" cx="118.66" cy="25.79" r="2.8"/></g></g></g></symbol></defs><use width="148.28" height="139.31" transform="translate(78.58 86.43)" xlink:href="#Robot_base_3"/><use width="152.36" height="59.06" transform="translate(73.82 57.08)" xlink:href="#Robot_eyes_1"/></svg>