<?xml version="1.0" encoding="UTF-8"?><svg id="Robos" xmlns="http://www.w3.org/2000/svg" xmlns:xlink="http://www.w3.org/1999/xlink" viewBox="0 0 300 300"><defs><style>.cls-1,.cls-2{fill:#c90000;}.cls-3{fill:none;stroke-width:1.3px;}.cls-3,.cls-4,.cls-5,.cls-6,.cls-2{stroke:#000;stroke-linecap:round;stroke-miterlimit:10;}.cls-4{fill:#fff;}.cls-4,.cls-5,.cls-6,.cls-2{stroke-width:2.14px;}.cls-5{fill:url(#radial-gradient);}.cls-6{fill:#fa2e19;}</style><radialGradient id="radial-gradient" cx="73.53" cy="45.64" fx="73.53" fy="45.64" r="104.36" gradientTransform="matrix(1, 0, 0, 1, 0, 0)" gradientUnits="userSpaceOnUse"><stop offset=".18" stop-color="#c8c8c8"/><stop offset=".35" stop-color="#a1a1a1"/><stop offset=".66" stop-color="#5e5e5e"/><stop offset=".81" stop-color="#454545"/></radialGradient><symbol id="Robot_base_3_2" viewBox="0 0 148.28 139.31"><g><ellipse class="cls-2" cx="74.14" cy="65.12" rx="62.07" ry="32.26"/><g><ellipse class="cls-3" cx="74.14" cy="110.32" rx="34.6" ry="4.42"/><ellipse class="cls-3" cx="74.14" cy="123.29" rx="29.56" ry="4.1"/><ellipse class="cls-3" cx="74.14" cy="135.57" rx="22.26" ry="3.09"/></g><path class="cls-5" d="M147.21,69.39C147.21,31.66,114.5,1.07,74.14,1.07S1.07,31.66,1.07,69.39h0v.1c0,7.38,6.08,13.36,13.46,13.36h119.21c7.38,0,13.46-5.98,13.46-13.36v-.1h0Z"/><g><circle class="cls-4" cx="89.73" cy="45" r="5.25"/><circle class="cls-4" cx="74.14" cy="45" r="5.25"/><circle class="cls-4" cx="58.55" cy="45" r="5.25"/></g><polygon class="cls-1" points="2.27 64.49 146.01 64.49 145.47 59.54 2.79 59.54 2.27 64.49"/><line class="cls-6" x1="1.31" y1="64.49" x2="146.97" y2="64.49"/><line class="cls-6" x1="146.01" y1="59.54" x2="2.27" y2="59.54"/></g></symbol></defs><use width="148.28" height="139.31" transform="translate(78.58 86.43)" xlink:href="#Robot_base_3_2"/></svg>