<?xml version="1.0" encoding="UTF-8"?><svg id="Robos" xmlns="http://www.w3.org/2000/svg" xmlns:xlink="http://www.w3.org/1999/xlink" viewBox="0 0 300 300"><defs><style>.cls-1,.cls-2,.cls-3{fill:#c90000;}.cls-4{fill:none;stroke-width:1.3px;}.cls-4,.cls-5,.cls-6,.cls-7,.cls-2,.cls-8,.cls-3{stroke:#000;stroke-linecap:round;stroke-miterlimit:10;}.cls-5{fill:#fff;}.cls-5,.cls-6,.cls-7,.cls-3{stroke-width:2.14px;}.cls-6{fill:url(#radial-gradient);}.cls-7{fill:#fa2e19;}.cls-2,.cls-8{stroke-width:1.47px;}.cls-8{fill:#999;}</style><symbol id="Robot_arm_3" viewBox="0 0 96.95 93.53"><g><path class="cls-3" d="M79.32,54.91h0c9.15,0,16.56-7.41,16.56-16.56V18.4c0-9.15-7.41-16.56-16.56-16.56h0c-9.15,0-16.56,7.41-16.56,16.56v19.96c0,9.15,7.41,16.56,16.56,16.56Z"/><circle class="cls-8" cx="72.61" cy="13.1" r="2.17"/><circle class="cls-8" cx="72.61" cy="20.53" r="2.17"/><g><polygon class="cls-2" points="35.33 8.62 66.68 34.41 69.46 31.02 38.11 5.24 35.33 8.62"/><polygon class="cls-2" points="29.97 15.14 61.32 40.92 64.1 37.54 32.76 11.75 29.97 15.14"/></g><g><circle class="cls-2" cx="65.29" cy="34.77" r="9.51"/><circle class="cls-8" cx="65.29" cy="34.77" r="3.21"/></g><g><polygon class="cls-2" points="8.5 48.19 27.92 12.55 24.07 10.46 4.65 46.1 8.5 48.19"/><polygon class="cls-2" points="15.91 52.23 35.32 16.59 31.48 14.49 12.06 50.13 15.91 52.23"/></g><g><circle class="cls-2" cx="31.48" cy="10.25" r="9.51"/><circle class="cls-8" cx="31.48" cy="10.25" r="3.21"/></g><g><polygon class="cls-2" points="37.06 82.03 9.5 52.23 6.29 55.21 33.85 85 37.06 82.03"/><polygon class="cls-2" points="43.25 76.3 15.69 46.5 12.48 49.48 40.04 79.27 43.25 76.3"/></g><g><circle class="cls-2" cx="10.25" cy="50.52" r="9.51"/><circle class="cls-8" cx="10.25" cy="50.52" r="3.21"/></g><g><g><path class="cls-2" d="M65.84,84.17h0c-.08-.78-.77-1.34-1.55-1.27l-14.23,1.42c-.78,.08-1.34,.77-1.27,1.55h0c.08,.78,.77,1.34,1.55,1.27l14.23-1.42c.78-.08,1.34-.77,1.27-1.55Z"/><path class="cls-2" d="M63.95,85.13h0c.6,.49,1.49,.41,1.99-.2l9.05-11.06c.49-.6,.41-1.49-.2-1.99h0c-.6-.49-1.49-.41-1.99,.2l-9.05,11.06c-.49,.6-.41,1.49,.2,1.99Z"/><circle class="cls-2" cx="64.57" cy="84.38" r="2.76"/></g><g><path class="cls-2" d="M53.87,65.96h0c.08,.78,.77,1.34,1.55,1.27l14.23-1.42c.78-.08,1.34-.77,1.27-1.55h0c-.08-.78-.77-1.34-1.55-1.27l-14.23,1.42c-.78,.08-1.34,.77-1.27,1.55Z"/><path class="cls-2" d="M55.76,65h0c-.6-.49-1.49-.41-1.99,.2l-9.05,11.06c-.49,.6-.41,1.49,.2,1.99h0c.6,.49,1.49,.41,1.99-.2l9.05-11.06c.49-.6,.41-1.49-.2-1.99Z"/><circle class="cls-2" cx="55.14" cy="65.75" r="2.76"/></g></g><g><circle class="cls-2" cx="43.17" cy="83.29" r="9.51"/><circle class="cls-8" cx="43.17" cy="83.29" r="3.21"/></g></g></symbol><radialGradient id="radial-gradient" cx="73.53" cy="45.64" fx="73.53" fy="45.64" r="104.36" gradientTransform="matrix(1, 0, 0, 1, 0, 0)" gradientUnits="userSpaceOnUse"><stop offset=".18" stop-color="#c8c8c8"/><stop offset=".35" stop-color="#a1a1a1"/><stop offset=".66" stop-color="#5e5e5e"/><stop offset=".81" stop-color="#454545"/></radialGradient><symbol id="Robot_base_3_2" viewBox="0 0 148.28 139.31"><g><ellipse class="cls-3" cx="74.14" cy="65.12" rx="62.07" ry="32.26"/><g><ellipse class="cls-4" cx="74.14" cy="110.32" rx="34.6" ry="4.42"/><ellipse class="cls-4" cx="74.14" cy="123.29" rx="29.56" ry="4.1"/><ellipse class="cls-4" cx="74.14" cy="135.57" rx="22.26" ry="3.09"/></g><path class="cls-6" d="M147.21,69.39C147.21,31.66,114.5,1.07,74.14,1.07S1.07,31.66,1.07,69.39h0v.1c0,7.38,6.08,13.36,13.46,13.36h119.21c7.38,0,13.46-5.98,13.46-13.36v-.1h0Z"/><g><circle class="cls-5" cx="89.73" cy="45" r="5.25"/><circle class="cls-5" cx="74.14" cy="45" r="5.25"/><circle class="cls-5" cx="58.55" cy="45" r="5.25"/></g><polygon class="cls-1" points="2.27 64.49 146.01 64.49 145.47 59.54 2.79 59.54 2.27 64.49"/><line class="cls-7" x1="1.31" y1="64.49" x2="146.97" y2="64.49"/><line class="cls-7" x1="146.01" y1="59.54" x2="2.27" y2="59.54"/></g></symbol></defs><use width="96.95" height="93.53" transform="translate(1.54 123.66)" xlink:href="#Robot_arm_3"/><use width="96.95" height="93.53" transform="translate(298.67 123.66) rotate(-180) scale(1 -1)" xlink:href="#Robot_arm_3"/><use width="148.28" height="139.31" transform="translate(78.58 86.43)" xlink:href="#Robot_base_3_2"/></svg>