<?xml version="1.0" encoding="UTF-8"?><svg id="Robos" xmlns="http://www.w3.org/2000/svg" xmlns:xlink="http://www.w3.org/1999/xlink" viewBox="0 0 300 300"><defs><style>.cls-1,.cls-2{fill:#c90000;}.cls-3{stroke-width:1.3px;}.cls-3,.cls-4,.cls-5,.cls-6,.cls-7,.cls-8,.cls-9,.cls-10,.cls-11,.cls-2,.cls-12{stroke:#000;stroke-miterlimit:10;}.cls-3,.cls-4,.cls-5,.cls-6,.cls-8,.cls-9,.cls-10,.cls-11,.cls-2{stroke-linecap:round;}.cls-3,.cls-7,.cls-9,.cls-10,.cls-11{fill:none;}.cls-4,.cls-11{stroke-width:.53px;}.cls-4,.cls-13{fill:#7f7f7f;}.cls-5{fill:#fff;}.cls-5,.cls-6,.cls-8,.cls-2{stroke-width:2.14px;}.cls-6{fill:url(#radial-gradient);}.cls-14{clip-path:url(#clippath-1);}.cls-7,.cls-12{stroke-width:1.4px;}.cls-15{clip-path:url(#clippath);}.cls-8{fill:#fa2e19;}.cls-9{stroke-width:2.04px;}.cls-10{stroke-width:2.33px;}.cls-12{fill:#999;}</style><clipPath id="clippath"><path id="SVGID" class="cls-7" d="M67.44,10.88C65.6,2.34,25.54-8,15.84,31.57c-1.51,6.16-2.6,22.48-1.84,32.68,.3,3.97,4.03,6.06,8.01,5.92h0c4.13-.14,7.29-3.64,7.13-7.77-.28-7.62-.01-16.23,1.01-23.78,.83-6.06,2.36-12.2,7.79-15.02,9.3-4.83,24.96-.74,26.96,2.73"/></clipPath><clipPath id="clippath-1"><path id="SVGID-3" class="cls-7" d="M180.8,10.88c1.85-8.54,41.9-18.87,51.6,20.69,1.51,6.16,2.6,22.48,1.84,32.68-.3,3.97-4.03,6.06-8.01,5.92h0c-4.13-.14-7.29-3.64-7.13-7.77,.28-7.62,.01-16.23-1.01-23.78-.83-6.06-2.36-12.2-7.79-15.02-9.3-4.83-24.96-.74-26.96,2.73"/></clipPath><symbol id="Robot_arm_5" viewBox="0 0 248.25 137.5"><g><path class="cls-12" d="M67.44,10.88C65.6,2.34,25.54-8,15.84,31.57c-1.51,6.16-2.6,22.48-1.84,32.68,.3,3.97,4.03,6.06,8.01,5.92h0c4.13-.14,7.29-3.64,7.13-7.77-.28-7.62-.01-16.23,1.01-23.78,.83-6.06,2.36-12.2,7.79-15.02,9.3-4.83,24.96-.74,26.96,2.73"/><g><g class="cls-15"><g><polygon class="cls-11" points="31.78 56.91 10.14 56.91 10.14 50.16 32.06 51.77 31.78 56.91"/><polygon class="cls-11" points="31.97 47.77 10.7 43.14 11.46 34.24 32.93 42.32 31.97 47.77"/><polygon class="cls-11" points="34.55 36.55 13.54 26.86 17.23 17.16 35.47 31.47 34.55 36.55"/><polygon class="cls-11" points="23.47 9.08 30.62 3.78 40.78 26.17 37.08 28.24 23.47 9.08"/><polygon class="cls-11" points="41.24 .31 52.32 1.93 50.01 25.24 43.78 24.09 41.24 .31"/><polygon class="cls-11" points="64.2 29.64 57.76 27.8 63.84 1.64 70.57 8.38 64.2 29.64"/></g></g><path id="SVGID-2" class="cls-7" d="M67.44,10.88C65.6,2.34,25.54-8,15.84,31.57c-1.51,6.16-2.6,22.48-1.84,32.68,.3,3.97,4.03,6.06,8.01,5.92h0c4.13-.14,7.29-3.64,7.13-7.77-.28-7.62-.01-16.23,1.01-23.78,.83-6.06,2.36-12.2,7.79-15.02,9.3-4.83,24.96-.74,26.96,2.73"/></g><path class="cls-10" d="M67.44,10.88C65.6,2.34,25.54-8,15.84,31.57c-1.51,6.16-2.6,22.48-1.84,32.68,.3,3.97,4.03,6.06,8.01,5.92h0c4.13-.14,7.29-3.64,7.13-7.77-.28-7.62-.01-16.23,1.01-23.78,.83-6.06,2.36-12.2,7.79-15.02,9.3-4.83,24.96-.74,26.96,2.73"/><g><path class="cls-13" d="M8.76,110.72c-3.08,3-4.91,7.26-4.95,11.56-.04,4.3,1.7,8.59,4.73,11.65,1.24,1.25,2.76,2.33,4.51,2.54,1.75,.21,3.71-.69,4.26-2.36-3.99-2.45-6.4-7.27-5.95-11.93,.45-4.66,3.73-8.93,8.12-10.57"/><path d="M8.03,110c-3.79,3.74-5.79,9.19-5.11,14.49,.33,2.61,1.22,5.15,2.66,7.36s3.35,4.3,5.83,5.26c2.62,1,5.87,.04,6.88-2.73,.16-.43-.11-.93-.47-1.15-2.88-1.8-4.81-4.85-5.36-8.19s.56-6.7,2.73-9.18c1.24-1.42,2.79-2.58,4.56-3.25,.52-.2,.87-.69,.71-1.26-.14-.49-.74-.91-1.26-.71-3.73,1.43-6.64,4.39-8.07,8.11s-.97,7.97,1,11.41c1.13,1.97,2.73,3.65,4.66,4.85l-.47-1.15c-.67,1.82-3.1,1.89-4.58,1.2-1.99-.92-3.55-2.8-4.66-4.65-2.28-3.78-2.85-8.39-1.51-12.6,.77-2.4,2.12-4.58,3.91-6.35,.94-.92-.51-2.37-1.45-1.45h0Z"/></g><g><path class="cls-13" d="M35.07,110.72c3.08,3,4.91,7.26,4.95,11.56,.04,4.3-1.7,8.59-4.73,11.65-1.24,1.25-2.76,2.33-4.51,2.54-1.75,.21-3.71-.69-4.26-2.36,3.99-2.45,6.4-7.27,5.95-11.93-.45-4.66-3.73-8.93-8.12-10.57"/><path d="M34.35,111.44c3.19,3.14,4.91,7.57,4.61,12.04-.28,4.16-2.46,8.83-6.07,11.11-.94,.6-2.06,1.03-3.2,.83-.91-.16-1.85-.69-2.18-1.59l-.47,1.15c3.36-2.09,5.74-5.68,6.33-9.6s-.64-7.96-3.28-10.99c-1.48-1.7-3.36-2.98-5.47-3.78-.52-.2-1.12,.22-1.26,.71-.16,.58,.2,1.06,.71,1.26,3.06,1.17,5.58,3.78,6.71,6.85s.82,6.71-.86,9.66c-.95,1.67-2.29,3.09-3.92,4.11-.36,.22-.63,.73-.47,1.15,.88,2.41,3.49,3.49,5.92,3.01,2.65-.52,4.76-2.69,6.28-4.79,3.1-4.27,4.09-9.9,2.61-14.97-.84-2.88-2.42-5.53-4.56-7.64-.94-.92-2.38,.52-1.45,1.45h0Z"/></g><path class="cls-1" d="M38.71,112.39H5.79c-2.66,0-4.8-1.98-4.76-4.41l1.05-26.24c0-10.18,9.04-18.43,20.18-18.43h0c11.15,0,20.18,8.25,20.18,18.43l1.05,26.24c.04,2.43-2.11,4.41-4.76,4.41Z"/><rect class="cls-4" x="1.93" y="93.25" width="40.86" height="5.91"/><path class="cls-9" d="M38.71,112.39H5.79c-2.66,0-4.8-1.98-4.76-4.41l1.05-26.24c0-10.18,9.04-18.43,20.18-18.43h0c11.15,0,20.18,8.25,20.18,18.43l1.05,26.24c.04,2.43-2.11,4.41-4.76,4.41Z"/><path class="cls-12" d="M180.8,10.88c1.85-8.54,41.9-18.87,51.6,20.69,1.51,6.16,2.6,22.48,1.84,32.68-.3,3.97-4.03,6.06-8.01,5.92h0c-4.13-.14-7.29-3.64-7.13-7.77,.28-7.62,.01-16.23-1.01-23.78-.83-6.06-2.36-12.2-7.79-15.02-9.3-4.83-24.96-.74-26.96,2.73"/><g><g class="cls-14"><g><polygon class="cls-11" points="216.47 56.91 238.11 56.91 238.11 50.16 216.19 51.77 216.47 56.91"/><polygon class="cls-11" points="216.28 47.77 237.55 43.14 236.78 34.24 215.32 42.32 216.28 47.77"/><polygon class="cls-11" points="213.7 36.55 234.71 26.86 231.01 17.16 212.78 31.47 213.7 36.55"/><polygon class="cls-11" points="224.78 9.08 217.63 3.78 207.47 26.17 211.16 28.24 224.78 9.08"/><polygon class="cls-11" points="207.01 .31 195.93 1.93 198.24 25.24 204.47 24.09 207.01 .31"/><polygon class="cls-11" points="184.05 29.64 190.49 27.8 184.41 1.64 177.67 8.38 184.05 29.64"/></g></g><path id="SVGID-4" class="cls-7" d="M180.8,10.88c1.85-8.54,41.9-18.87,51.6,20.69,1.51,6.16,2.6,22.48,1.84,32.68-.3,3.97-4.03,6.06-8.01,5.92h0c-4.13-.14-7.29-3.64-7.13-7.77,.28-7.62,.01-16.23-1.01-23.78-.83-6.06-2.36-12.2-7.79-15.02-9.3-4.83-24.96-.74-26.96,2.73"/></g><path class="cls-10" d="M180.8,10.88c1.85-8.54,41.9-18.87,51.6,20.69,1.51,6.16,2.6,22.48,1.84,32.68-.3,3.97-4.03,6.06-8.01,5.92h0c-4.13-.14-7.29-3.64-7.13-7.77,.28-7.62,.01-16.23-1.01-23.78-.83-6.06-2.36-12.2-7.79-15.02-9.3-4.83-24.96-.74-26.96,2.73"/><g><path class="cls-13" d="M239.49,110.72c3.08,3,4.91,7.26,4.95,11.56,.04,4.3-1.7,8.59-4.73,11.65-1.24,1.25-2.76,2.33-4.51,2.54-1.75,.21-3.71-.69-4.26-2.36,3.99-2.45,6.4-7.27,5.95-11.93-.45-4.66-3.73-8.93-8.12-10.57"/><path d="M238.77,111.44c3.19,3.14,4.91,7.57,4.61,12.04-.28,4.16-2.46,8.83-6.07,11.11-.94,.6-2.06,1.03-3.2,.83-.91-.16-1.85-.69-2.18-1.59l-.47,1.15c3.36-2.09,5.74-5.68,6.33-9.6s-.64-7.96-3.28-10.99c-1.48-1.7-3.36-2.98-5.47-3.78-.52-.2-1.12,.22-1.26,.71-.16,.58,.2,1.06,.71,1.26,3.06,1.17,5.58,3.78,6.71,6.85s.82,6.71-.86,9.66c-.95,1.67-2.29,3.09-3.92,4.11-.36,.22-.63,.73-.47,1.15,.88,2.41,3.49,3.49,5.92,3.01,2.65-.52,4.76-2.69,6.28-4.79,3.1-4.27,4.09-9.9,2.61-14.97-.84-2.88-2.42-5.53-4.56-7.64-.94-.92-2.38,.52-1.45,1.45h0Z"/></g><g><path class="cls-13" d="M213.18,110.72c-3.08,3-4.91,7.26-4.95,11.56-.04,4.3,1.7,8.59,4.73,11.65,1.24,1.25,2.76,2.33,4.51,2.54s3.71-.69,4.26-2.36c-3.99-2.45-6.4-7.27-5.95-11.93,.45-4.66,3.73-8.93,8.12-10.57"/><path d="M212.45,110c-3.79,3.74-5.79,9.19-5.11,14.49,.33,2.61,1.22,5.15,2.66,7.36s3.35,4.3,5.83,5.26c2.62,1,5.87,.04,6.88-2.73,.16-.43-.11-.93-.47-1.15-2.88-1.8-4.81-4.85-5.36-8.19s.56-6.7,2.73-9.18c1.24-1.42,2.79-2.58,4.56-3.25,.52-.2,.87-.69,.71-1.26-.14-.49-.74-.91-1.26-.71-3.73,1.43-6.64,4.39-8.07,8.11s-.97,7.97,1,11.41c1.13,1.97,2.73,3.65,4.66,4.85l-.47-1.15c-.67,1.82-3.1,1.89-4.58,1.2-1.99-.92-3.55-2.8-4.66-4.65-2.28-3.78-2.85-8.39-1.51-12.6,.77-2.4,2.12-4.58,3.91-6.35,.94-.92-.51-2.37-1.45-1.45h0Z"/></g><path class="cls-1" d="M209.54,112.39h32.92c2.66,0,4.8-1.98,4.76-4.41l-1.05-26.24c0-10.18-9.04-18.43-20.18-18.43h0c-11.15,0-20.18,8.25-20.18,18.43l-1.05,26.24c-.04,2.43,2.11,4.41,4.76,4.41Z"/><rect class="cls-4" x="205.46" y="93.25" width="40.86" height="5.91"/><path class="cls-9" d="M209.54,112.39h32.92c2.66,0,4.8-1.98,4.76-4.41l-1.05-26.24c0-10.18-9.04-18.43-20.18-18.43h0c-11.15,0-20.18,8.25-20.18,18.43l-1.05,26.24c-.04,2.43,2.11,4.41,4.76,4.41Z"/></g></symbol><radialGradient id="radial-gradient" cx="73.53" cy="45.64" fx="73.53" fy="45.64" r="104.36" gradientTransform="matrix(1, 0, 0, 1, 0, 0)" gradientUnits="userSpaceOnUse"><stop offset=".18" stop-color="#c8c8c8"/><stop offset=".35" stop-color="#a1a1a1"/><stop offset=".66" stop-color="#5e5e5e"/><stop offset=".81" stop-color="#454545"/></radialGradient><symbol id="Robot_base_3_2" viewBox="0 0 148.28 139.31"><g><ellipse class="cls-2" cx="74.14" cy="65.12" rx="62.07" ry="32.26"/><g><ellipse class="cls-3" cx="74.14" cy="110.32" rx="34.6" ry="4.42"/><ellipse class="cls-3" cx="74.14" cy="123.29" rx="29.56" ry="4.1"/><ellipse class="cls-3" cx="74.14" cy="135.57" rx="22.26" ry="3.09"/></g><path class="cls-6" d="M147.21,69.39C147.21,31.66,114.5,1.07,74.14,1.07S1.07,31.66,1.07,69.39h0v.1c0,7.38,6.08,13.36,13.46,13.36h119.21c7.38,0,13.46-5.98,13.46-13.36v-.1h0Z"/><g><circle class="cls-5" cx="89.73" cy="45" r="5.25"/><circle class="cls-5" cx="74.14" cy="45" r="5.25"/><circle class="cls-5" cx="58.55" cy="45" r="5.25"/></g><polygon class="cls-1" points="2.27 64.49 146.01 64.49 145.47 59.54 2.79 59.54 2.27 64.49"/><line class="cls-8" x1="1.31" y1="64.49" x2="146.97" y2="64.49"/><line class="cls-8" x1="146.01" y1="59.54" x2="2.27" y2="59.54"/></g></symbol></defs><use width="248.25" height="137.5" transform="translate(30.59 106.19)" xlink:href="#Robot_arm_5"/><use width="148.28" height="139.31" transform="translate(78.58 86.43)" xlink:href="#Robot_base_3_2"/></svg>