<?xml version="1.0" encoding="UTF-8"?><svg xmlns="http://www.w3.org/2000/svg" xmlns:xlink="http://www.w3.org/1999/xlink" viewBox="0 0 110 110"><defs><style>.f{fill:none;}.f,.g{stroke:#000;stroke-width:1.83px;}.f,.g,.h{stroke-linecap:round;stroke-linejoin:round;}.g,.h{fill:#fff;}.i{fill:url(#d);}.h{stroke:#fff;stroke-width:.92px;}</style><radialGradient id="d" cx="54.86" cy="67.81" fx="54.86" fy="67.81" r="55.27" gradientTransform="translate(.41 -12.48)" gradientUnits="userSpaceOnUse"><stop offset=".09" stop-color="#ff54b5"/><stop offset=".38" stop-color="#fc52b4"/><stop offset=".54" stop-color="#f44eb1"/><stop offset=".66" stop-color="#e647ad"/><stop offset=".77" stop-color="#d33da8"/><stop offset=".87" stop-color="#b931a0"/><stop offset=".96" stop-color="#9b2197"/><stop offset=".98" stop-color="#961f96"/></radialGradient></defs><g id="a"/><g id="b"><g id="c"><g><circle id="e" class="i" cx="55" cy="55" r="55"/><g><path class="f" d="M42.25,31.11c-5.5,8.34-12.55,13.94-20.6,16.87"/><path class="g" d="M39.34,35.89c-4.39,4.6-9.31,8.23-14.65,10.91-.23,.26-.37,.45-.4,.53-4.22,12.97-.05,21.06,6.34,22.69,8.45,2.16,13.94-4.55,15.63-14.53,1.53-9.03-1.52-17.25-6.92-19.59Z"/><path class="f" d="M64.4,31.11c5.5,8.34,12.55,13.94,20.6,16.87"/><path class="g" d="M67.31,35.89c4.39,4.6,9.31,8.23,14.65,10.91,.23,.26,.37,.45,.4,.53,4.22,12.97,.05,21.06-6.34,22.69-8.45,2.16-13.94-4.55-15.63-14.53-1.53-9.03,1.52-17.25,6.92-19.59Z"/><g><ellipse cx="37.5" cy="56.63" rx="3.7" ry="3.78"/><ellipse cx="69.15" cy="56.63" rx="3.7" ry="3.78"/></g><path class="h" d="M88.88,84.44c6.32,0,0-14.44,0-14.44,0,0-6.32,14.44,0,14.44Z"/></g></g></g></g></svg>