<?xml version="1.0" encoding="UTF-8"?><svg xmlns="http://www.w3.org/2000/svg" xmlns:xlink="http://www.w3.org/1999/xlink" viewBox="0 0 110 110"><defs><style>.f{fill:url(#d);}.g{fill:#fff;stroke:#000;stroke-linecap:round;stroke-linejoin:round;stroke-width:1.83px;}</style><radialGradient id="d" cx="53.71" cy="68.38" fx="53.71" fy="68.38" r="55.27" gradientTransform="translate(1.56 -13.04)" gradientUnits="userSpaceOnUse"><stop offset=".09" stop-color="#ff54b5"/><stop offset=".38" stop-color="#fc52b4"/><stop offset=".54" stop-color="#f44eb1"/><stop offset=".66" stop-color="#e647ad"/><stop offset=".77" stop-color="#d33da8"/><stop offset=".87" stop-color="#b931a0"/><stop offset=".96" stop-color="#9b2197"/><stop offset=".98" stop-color="#961f96"/></radialGradient></defs><g id="a"/><g id="b"><g id="c"><g><circle id="e" class="f" cx="55" cy="55" r="55"/><g><path class="g" d="M12.91,46.51c1.03,6.69,9.57,11.9,19.95,11.9s18.92-5.22,19.95-11.9H12.91Z"/><path d="M40.55,47.43c-.04,.23-.06,.46-.06,.7,0,2.34,1.83,4.24,4.1,4.24s4.1-1.9,4.1-4.24c0-.24-.02-.47-.06-.7h-8.07Z"/><path class="g" d="M57.19,46.51c1.03,6.69,9.57,11.9,19.95,11.9s18.92-5.22,19.95-11.9H57.19Z"/><path d="M85.42,47.43c-.04,.23-.06,.46-.06,.7,0,2.34,1.83,4.24,4.1,4.24s4.1-1.9,4.1-4.24c0-.24-.02-.47-.06-.7h-8.07Z"/></g></g></g></g></svg>