<?xml version="1.0" encoding="UTF-8"?><svg id="Layer_2" xmlns="http://www.w3.org/2000/svg" viewBox="0 0 222.38 218.1"><defs><style>.cls-1{fill:#818181;}.cls-2,.cls-3,.cls-4{stroke-miterlimit:10;}.cls-2,.cls-3,.cls-4,.cls-5{fill:none;}.cls-2,.cls-3,.cls-5{stroke:#b4b4b4;}.cls-2,.cls-5{stroke-width:4.28px;}.cls-3{stroke-width:8.56px;}.cls-4{stroke:#010101;stroke-width:.6px;}.cls-4,.cls-5{stroke-linecap:round;}.cls-6{fill:#85c442;}.cls-7{fill:#f3f3f3;}.cls-5{stroke-dasharray:0 0 .71 17.11;stroke-linejoin:round;}</style></defs><g id="Layer_1-2"><g><path id="path738" class="cls-6" d="M70.8,169.57c-.02,.17-.02,.35,0,.52,0,0-.08-.41,0,0l.06,.29c.05,.17,.12,.34,.17,.51s-.16-.32,0,0l.16,.32c.09,.17,.19,.33,.29,.49,.06,.08,.12,.16,.17,.25,.19,.27-.18-.21,0,0,.32,.35,.65,.68,1,1l.53,.47,.29,.22c-.31-.24,0,0,.12,.09,.46,.34,.94,.65,1.43,1,1.13,.66,2.3,1.25,3.5,1.76l.24,.1,.48,.19c.34,.14,.7,.27,1,.4,.74,.27,1.49,.52,2.24,.76,1.61,.51,3.25,1,4.9,1.33,3.77,.88,7.59,1.52,11.44,1.94,8.97,.99,18.01,1.09,27,.31,7.42-.48,14.75-1.95,21.78-4.37l1-.37,.48-.19,.26-.11c.23-.1-.18,.08,0,0,.62-.27,1.24-.55,1.84-.86,1.05-.52,2.05-1.13,3-1.82l.12-.09,.28-.22c.2-.16,.39-.33,.57-.5,.34-.31,.65-.65,.95-1,.17-.19-.19,.29,0,0l.17-.25c.12-.18,.24-.37,.34-.56l.1-.21c.17-.33,0,.19,0,0s.12-.36,.17-.55c.05-.19,.12-.63,.08-.34-.04,.29,0,0,0-.1v-.33c0-.11-.06-.64,0-.36s0,0,0-.09c-.02-.1-.04-.19-.07-.29,0-.18-.13-.36-.18-.54,0,0,.15,.31,0,0,0-.09-.09-.19-.14-.28-.09-.17-.19-.33-.3-.49-.06-.1-.13-.19-.19-.28-.06-.09,.2,.24,0,0-.32-.35-.65-.68-1-1-.18-.16-.35-.31-.54-.46l-.17-.14-.24-.18c-.95-.68-1.95-1.29-3-1.81-.61-.31-1.23-.59-1.86-.86l-.23-.1-.48-.19c-.37-.15-.75-.29-1.12-.42-1.51-.55-3.04-1.03-4.59-1.45-3.6-1.01-7.27-1.8-10.97-2.35-8.82-1.18-17.75-1.49-26.63-.9-7.75,.36-15.42,1.66-22.85,3.9-.72,.23-1.44,.48-2.15,.74l-1,.37-.55,.22-.2,.08h-.09c-1.18,.51-2.32,1.09-3.43,1.74-.49,.3-1,.61-1.42,1-.12,.08-.32,.24-.08,0l-.29,.23-.6,.53c-.32,.32-.63,.65-.91,1-.15,.16,.19-.28,0,0l-.17,.24c-.11,.17-.22,.35-.31,.53l-.12,.25c-.16,.3,.08-.27,0,0s-.12,.34-.17,.51l-.06,.29c0,.07-.07,.39,0,.09s0,0,0,.1v.29c0,.83-.67,1.5-1.5,1.5s-1.5-.67-1.5-1.5c0-4.68,5-7.58,8.78-9.24,6.85-3,14.38-4.41,21.78-5.26,9.3-1.07,18.68-1.18,28-.33,7.69,.68,15.55,1.89,22.78,4.67,2.65,.96,5.15,2.31,7.4,4,1.65,1.16,2.85,2.85,3.43,4.78,1.08,4.59-3.23,7.92-6.8,9.79-6.21,3.26-13.38,4.74-20.28,5.71-9.28,1.28-18.66,1.62-28,1-8.12-.37-16.16-1.76-23.93-4.16-2.8-.86-5.49-2.05-8-3.57-1.91-1.08-3.48-2.66-4.55-4.57-.43-.87-.66-1.83-.68-2.8,0-.83,.67-1.51,1.5-1.52s1.51,.67,1.52,1.5h0Z"/><path id="path740" class="cls-6" d="M70.92,186.11c-.02,.17-.02,.35,0,.52,0,0-.08-.42,0,0,0,.1,0,.2,.07,.3s.11,.33,.16,.5-.16-.31,0,0c.06,.1,.1,.21,.16,.31,.09,.17,.19,.34,.3,.5l.17,.24c.18,.27-.19-.21,0,0,.31,.36,.64,.69,1,1,.17,.16,.35,.31,.53,.46l.28,.23c-.31-.25,0,0,.12,.09,.47,.34,.95,.65,1.44,.94,1.12,.67,2.29,1.26,3.5,1.77l.23,.09,.48,.19,1.05,.4c.74,.27,1.49,.53,2.24,.76,1.62,.51,3.26,1,4.91,1.34,3.77,.88,7.58,1.52,11.43,1.94,8.97,.99,18.01,1.09,27,.31,7.42-.49,14.74-1.96,21.78-4.37l1-.38,.48-.19,.27-.11c.22-.09-.19,.08,0,0,.62-.27,1.24-.56,1.85-.86,1.05-.53,2.05-1.13,3-1.82,.07,0,.44-.34,.12-.09l.29-.23c.19-.16,.38-.32,.56-.49,.35-.31,.69-.65,1-1,.17-.2-.19,.28,0,0l.17-.24c.12-.18,.23-.37,.33-.57l.11-.21c.17-.33-.06,.19,0,0s.13-.36,.18-.54,.12-.63,.08-.35,0,0,0-.09v-.34c0-.11,0-.64,0-.35s0,0,0-.09,0-.2-.07-.3-.14-.36-.18-.54c0,0,.15,.31,0,0l-.15-.28c-.09-.17-.19-.34-.29-.5-.07-.09-.14-.18-.2-.28-.11-.16,.21,.24,0,0-.31-.36-.64-.69-1-1-.17-.16-.35-.32-.53-.46s-.35-.28-.18-.15l-.24-.17c-.95-.69-1.95-1.29-3-1.82-.61-.3-1.23-.59-1.85-.86,.24,.11-.17-.07-.24-.09l-.48-.19-1.12-.43c-1.5-.55-3-1-4.58-1.44-3.65-.97-7.35-1.71-11.09-2.22-8.83-1.19-17.75-1.48-26.64-.89-7.75,.34-15.42,1.64-22.85,3.87-.73,.23-1.45,.47-2.16,.73l-1,.38-.54,.21-.2,.09h-.1c-1.18,.5-2.33,1.08-3.43,1.74-.48,.29-1,.61-1.42,.94-.11,.09-.31,.25-.08,.06l-.28,.23c-.21,.17-.41,.34-.6,.53-.33,.32-.63,.65-.92,1-.14,.17,.19-.27,0,0l-.17,.25c-.11,.17-.21,.34-.31,.53l-.12,.24c-.16,.3,.08-.26,0,0s-.12,.33-.16,.5c-.04,.17,0,.2-.07,.3s-.06,.38,0,.09c.06-.29,0,0,0,.09v.3c0,.83-.67,1.5-1.5,1.5s-1.5-.67-1.5-1.5c0-4.68,5-7.58,8.78-9.24,6.85-3,14.38-4.41,21.78-5.27,9.3-1.06,18.68-1.17,28-.33,7.68,.69,15.54,1.9,22.78,4.68,2.65,.95,5.14,2.3,7.39,4,1.65,1.16,2.86,2.84,3.44,4.77,1.08,4.59-3.23,7.93-6.8,9.8-6.22,3.26-13.39,4.73-20.28,5.71-9.27,1.29-18.66,1.62-28,1-8.12-.36-16.16-1.76-23.92-4.15-2.81-.86-5.49-2.06-8-3.58-1.9-1.08-3.47-2.66-4.54-4.57-.44-.87-.67-1.82-.69-2.79-.02-.83,.65-1.52,1.48-1.54,.83-.02,1.52,.65,1.54,1.48h0Z"/><path id="path742" class="cls-6" d="M71.05,202.65c-.02,.17-.02,.34,0,.51,0,0-.09-.41,0,0,.02,.1,.04,.19,.07,.29,.05,.17,.12,.34,.17,.51s-.16-.32,0,0c.06,.11,.11,.22,.16,.32s.19,.33,.3,.49l.17,.25c.18,.27-.19-.21,0,0,.32,.35,.65,.68,1,1l.53,.47,.28,.23c-.3-.25,0,0,.13,.08,.46,.34,.94,.65,1.43,1,1.13,.67,2.29,1.25,3.5,1.76l.24,.1,.47,.19,1.05,.4c.74,.27,1.49,.52,2.24,.76,1.62,.51,3.26,.95,4.91,1.34,3.77,.87,7.59,1.51,11.43,1.93,8.97,.99,18.01,1.09,27,.31,7.42-.48,14.75-1.95,21.79-4.37l1-.37,.47-.19,.27-.11c.22-.1-.19,.08,0,0,.63-.27,1.24-.55,1.85-.86,1.05-.52,2.05-1.13,3-1.82,.07,0,.44-.34,.13-.08l.28-.23,.57-.5c.33-.32,.65-.65,.95-1,.17-.19-.2,.29,0,0l.17-.25c.12-.18,.23-.37,.33-.56l.11-.21c.17-.33,0,.19,0,0s.13-.36,.18-.54,.12-.64,.08-.35,0,0,0-.1v-.33c0-.11,0-.64,0-.36s0,0,0-.09,0-.19-.07-.29c-.07-.1-.14-.36-.18-.54,0,0,.15,.31,0,0,0-.09-.09-.19-.14-.28s-.19-.33-.3-.49c-.06-.1-.13-.19-.2-.28-.1-.16,.21,.24,0,0-.31-.36-.64-.69-1-1-.17-.16-.35-.31-.53-.46l-.18-.14-.23-.18c-.95-.68-1.95-1.29-3-1.81-.61-.31-1.23-.59-1.85-.86l-.24-.1-.47-.19c-.37-.14-.75-.29-1.13-.42-1.5-.55-3-1-4.58-1.45-3.65-.97-7.35-1.71-11.09-2.21-8.83-1.18-17.75-1.49-26.64-.9-7.74,.29-15.41,1.53-22.84,3.69-.72,.23-1.44,.48-2.16,.74l-1,.37-.54,.22-.2,.08c-.15,.07,.15-.06-.1,.05-1.18,.5-2.32,1.08-3.42,1.73-.49,.3-1,.61-1.43,1l-.08,.06-.28,.22c-.21,.17-.41,.35-.6,.53s-.62,.65-.92,1c-.14,.16,.19-.28,0,0l-.16,.24c-.11,.17-.22,.35-.31,.53-.05,.08-.08,.17-.13,.25-.16,.3,.09-.26,0,0s-.12,.34-.17,.51-.05,.19-.07,.29c-.02,.1-.06,.39,0,.09s0,0,0,.1v.3c0,.83-.67,1.5-1.5,1.5s-1.5-.67-1.5-1.5c0-4.69,5-7.58,8.78-9.24,6.84-3.05,14.38-4.41,21.77-5.27,9.3-1.06,18.68-1.17,28-.33,7.68,.69,15.55,1.89,22.78,4.67,2.65,.96,5.15,2.31,7.4,4,1.65,1.16,2.85,2.85,3.43,4.78,1.08,4.59-3.23,7.93-6.8,9.8-6.22,3.25-13.39,4.73-20.28,5.71-9.27,1.29-18.66,1.62-28,1-8.12-.36-16.16-1.76-23.93-4.16-2.8-.86-5.49-2.06-8-3.57-1.9-1.08-3.47-2.66-4.54-4.57-.43-.87-.67-1.82-.68-2.79-.01-.84,.66-1.54,1.5-1.55s1.54,.66,1.55,1.5h0Z"/><path id="path744" class="cls-1" d="M111.2,171.43c59.74,0,108.35-49.07,108.35-109.41,.02-15.94-3.44-31.7-10.15-46.16v-.3c0-3.37-2.36-6.9-30.51-9.8-18.11-1.87-42.17-2.9-67.75-2.9-25.58,0-49.65,1-67.76,2.9C15.24,8.66,12.88,12.19,12.88,15.56v.3C6.19,30.32,2.74,46.08,2.78,62.02c.07,60.34,48.63,109.41,108.43,109.41Z"/><path id="path746" class="cls-7" d="M111.21,5.71c-52.7,0-95.42,4.41-95.42,9.85,.01,.21,.07,.41,.18,.59-6.78,14.34-10.28,30.01-10.26,45.87,0,58.85,47.23,106.56,105.5,106.56,58.27,0,105.5-47.71,105.5-106.56,.01-15.87-3.5-31.53-10.3-45.87,.11-.18,.17-.38,.18-.59,0-5.44-42.72-9.85-95.41-9.85m0-5.71c25.67,0,49.84,1,68.05,2.92,7.13,.63,14.22,1.72,21.21,3.26,3.79,.93,11.6,2.83,11.85,9.07,19.32,42.63,10.41,92.76-22.43,126.11-42.84,43.44-112.79,43.92-156.22,1.08-.36-.36-.73-.72-1.09-1.09C-.31,108.01-9.23,57.88,10.1,15.25c.24-6.24,8.06-8.14,11.84-9.07,6.99-1.54,14.08-2.63,21.21-3.26C61.36,1.04,85.53,0,111.21,0h-.03Z"/><ellipse id="ellipse748" class="cls-3" cx="111.21" cy="15.56" rx="92.48" ry="9.54"/><path id="path750" class="cls-2" d="M205.41,13.99c7.46,14.9,11.33,31.34,11.31,48,0,58.85-47.24,106.56-105.5,106.56-58.26,0-105.51-47.68-105.51-106.53-.02-16.66,3.85-33.1,11.3-48"/><path id="path752" class="cls-2" d="M188.92,21.27c6.41,18.49,8.71,38.14,6.75,57.61-1.89,20.27-8.61,39.78-19.61,56.91-5.35,8.24-11.83,15.69-19.23,22.15"/><path id="path754" class="cls-5" d="M182.25,35.98c3.7,19.86,3.63,40.23-.2,60.06-1.09,5.59-2.51,11.11-4.25,16.53"/><path id="path756" class="cls-5" d="M52.21,35.96c-1.79,12.17-2.46,24.48-2,36.78"/><path id="path758" class="cls-2" d="M65.58,24.21c-4.88,20.07-6.66,40.78-5.28,61.39,1.3,20.15,5.52,39.93,12.71,56.91,3.44,8.33,7.95,16.18,13.4,23.35"/><path id="path760" class="cls-2" d="M216.18,74.36c-2.88,8-14.3,12.54-22.5,15.41-15.23,5.33-31.76,7.91-48,9.48-20.35,1.94-40.82,2.16-61.2,.65-17-1.24-34.25-3.56-50.45-8.42-9.33-2.8-21.47-6.85-26.61-14.78-.43-.66-.79-1.37-1.09-2.1"/><path id="path762" class="cls-2" d="M199.8,119.73c-21.4,13.55-45.15,18.63-68.66,20.12-23.51,1.49-47.22,.91-70.39-4.6-13.46-3.05-26.35-8.22-38.18-15.32"/><path id="path764" class="cls-2" d="M11.68,29.29c.82-.03,1.64,.03,2.45,.17,8.28,1.44,13.47,11.44,11.58,22.34-1.89,10.9-10.14,18.56-18.43,17.12-.82-.14-1.61-.37-2.38-.68"/><path id="path796" class="cls-4" d="M125.54,22.11c.86,.48,1.84,.73,2.83,.72,.86,0,1.7-.18,2.48-.54"/><path id="path828" class="cls-4" d="M62.36,20.09c.86,.48,1.84,.73,2.83,.72,.86,0,1.7-.18,2.48-.53"/><path id="path830" class="cls-3" d="M18.73,15.56c0,5.27,41.4,9.54,92.48,9.54,51.08,0,92.48-4.27,92.48-9.54"/></g></g></svg>