<?xml version="1.0" encoding="UTF-8" standalone="no"?>
<svg
   id="Layer_2"
   viewBox="0 0 242.39534 239.00241"
   version="1.1"
   sodipodi:docname="captures-back.svg"
   width="242.39534"
   height="239.00241"
   inkscape:version="1.2 (dc2aedaf03, 2022-05-15)"
   xmlns:inkscape="http://www.inkscape.org/namespaces/inkscape"
   xmlns:sodipodi="http://sodipodi.sourceforge.net/DTD/sodipodi-0.dtd"
   xmlns="http://www.w3.org/2000/svg"
   xmlns:svg="http://www.w3.org/2000/svg">
  <sodipodi:namedview
     id="namedview24"
     pagecolor="#ffffff"
     bordercolor="#666666"
     borderopacity="1.0"
     inkscape:showpageshadow="2"
     inkscape:pageopacity="0.0"
     inkscape:pagecheckerboard="0"
     inkscape:deskcolor="#d1d1d1"
     showgrid="false"
     inkscape:zoom="2.6761888"
     inkscape:cx="144.4218"
     inkscape:cy="130.03567"
     inkscape:window-width="1461"
     inkscape:window-height="1329"
     inkscape:window-x="1912"
     inkscape:window-y="300"
     inkscape:window-maximized="1"
     inkscape:current-layer="Layer_2" />
  <defs
     id="defs4">
    <style
       id="style2">.cls-1{fill:#4e4e4e;}.cls-2{fill:#818181;}.cls-3{stroke:#818181;stroke-width:11.41px;}.cls-3,.cls-4{fill:none;stroke-miterlimit:10;}.cls-5{fill:#85c442;}.cls-4{stroke:#85c442;stroke-linecap:round;stroke-width:3px;}</style>
  </defs>
  <g
     id="Layer_1-2"
     transform="translate(0.00921887,-70.615004)">
    <g
       id="use1020">
      <path
         id="path482"
         class="cls-5"
         d="m 177.44,244.09 c 0,-1.06 0.81,-1.92 1.82,-1.94 1.02,-0.01 1.85,0.84 1.86,1.9 -0.03,1.3 -0.33,2.59 -0.88,3.76 -1.37,2.54 -3.38,4.65 -5.82,6.09 -3.28,2.08 -6.79,3.72 -10.46,4.89 -10.07,3.23 -20.5,5.11 -31.03,5.6 -12.15,0.84 -24.34,0.38 -36.4,-1.37 -8.96,-1.28 -18.29,-3.26 -26.39,-7.67 -4.6,-2.5 -10.22,-7 -8.81,-13.17 0.76,-2.58 2.32,-4.83 4.44,-6.39 2.91,-2.26 6.13,-4.05 9.55,-5.31 9.4,-3.83 19.62,-5.46 29.61,-6.39 12.13,-1.14 24.34,-0.99 36.44,0.45 9.57,1.15 19.39,3.03 28.46,7.17 4.82,2.21 11.4,6.12 11.4,12.43 0,1.06 -0.82,1.92 -1.84,1.92 -1.02,0 -1.84,-0.86 -1.84,-1.92 v -0.56 c 0,-0.32 0,0.23 0,0.23 0,-0.24 -0.05,-0.48 -0.14,-0.7 -0.06,-0.24 -0.15,-0.46 -0.22,-0.69 -0.15,-0.46 0.06,0.11 0,0 -0.06,-0.11 -0.11,-0.24 -0.17,-0.37 -0.12,-0.25 -0.26,-0.48 -0.41,-0.72 l -0.23,-0.36 -0.1,-0.13 c -0.12,-0.2 0.25,0.29 0.09,0.11 -0.44,-0.45 -0.8,-0.92 -1.23,-1.34 -0.25,-0.24 -0.52,-0.49 -0.79,-0.72 l -0.34,-0.29 v 0 l -0.21,-0.17 c -0.63,-0.45 -1.21,-0.87 -1.85,-1.28 -3.05,-1.87 -6.32,-3.33 -9.72,-4.36 -9.66,-3 -19.63,-4.76 -29.7,-5.24 -11.64,-0.85 -23.33,-0.47 -34.89,1.11 -4.86,0.69 -9.67,1.69 -14.41,3 -2.03,0.56 -4.04,1.21 -6.01,1.95 l -1.46,0.59 -0.58,0.24 -0.33,0.14 c -0.23,0.1 0.28,-0.11 0,0 -0.79,0.36 -1.57,0.73 -2.34,1.14 -1.42,0.73 -2.77,1.58 -4.05,2.56 l -0.15,0.11 -0.41,0.33 -0.7,0.63 c -0.43,0.42 -0.84,0.87 -1.23,1.34 -0.33,0.4 0.15,-0.24 -0.07,0.1 l -0.25,0.34 c -0.14,0.23 -0.27,0.45 -0.39,0.68 -0.06,0.14 -0.12,0.28 -0.2,0.41 -0.21,0.42 0.07,-0.24 0,0 -0.07,0.24 -0.17,0.49 -0.23,0.73 -0.09,0.24 -0.14,0.5 -0.15,0.75 0,0.01 0,-0.55 0,-0.23 v 0.19 c 0,0.11 0,0.21 0,0.32 v 0.43 c 0,0.55 0,0 0,0 0.02,0.23 0.06,0.47 0.14,0.69 0.06,0.25 0.14,0.5 0.23,0.74 0.15,0.45 -0.15,-0.28 0,0 l 0.17,0.36 c 0.12,0.25 0.26,0.48 0.41,0.72 0.07,0.13 0.16,0.24 0.23,0.36 0.23,0.36 -0.17,-0.2 0,0 0.39,0.47 0.8,0.92 1.23,1.34 0.26,0.26 0.52,0.5 0.79,0.73 l 0.36,0.29 c 0.26,0.15 -0.21,-0.22 0,-0.06 l 0.21,0.17 c 1.25,0.94 2.57,1.77 3.95,2.48 1.54,0.83 3.13,1.54 4.76,2.15 9.15,3.25 18.67,5.23 28.31,5.89 11.74,1.07 23.55,0.93 35.26,-0.41 5.04,-0.57 10.04,-1.46 14.99,-2.64 2.14,-0.52 4.25,-1.11 6.32,-1.8 0.99,-0.32 1.96,-0.66 2.93,-1.03 0.47,-0.17 0.92,-0.36 1.39,-0.54 l 0.66,-0.28 0.32,-0.14 c -0.11,0 -0.33,0.15 0,0 1.52,-0.67 3,-1.45 4.43,-2.33 0.65,-0.4 1.28,-0.83 1.88,-1.28 l 0.27,-0.22 c 0.21,-0.15 -0.26,0.22 -0.06,0.06 l 0.34,-0.29 c 0.26,-0.22 0.31,-0.32 0.75,-0.68 0.44,-0.36 0.97,-0.97 1.23,-1.28 0.26,-0.31 -0.2,0.31 0.07,-0.1 0.07,-0.11 0.16,-0.23 0.23,-0.36 0.14,-0.21 0.27,-0.44 0.38,-0.66 0.07,-0.14 0.04,-0.09 0.2,-0.41 0.16,-0.32 -0.07,0.23 0,0 0.07,-0.23 0.16,-0.46 0.22,-0.69 0.07,-0.24 0.12,-0.49 0.15,-0.74 0,0 0,0.51 0,0 v -0.38 0 z" />
      <path
         id="path484"
         class="cls-5"
         d="m 177.28,266.51 c 0,-1.06 0.82,-1.92 1.83,-1.92 1.02,0 1.84,0.85 1.85,1.91 -0.03,1.3 -0.33,2.58 -0.88,3.74 -1.37,2.54 -3.38,4.65 -5.82,6.09 -3.28,2.08 -6.79,3.72 -10.46,4.89 -10.07,3.24 -20.5,5.14 -31.03,5.65 -12.15,0.85 -24.34,0.39 -36.4,-1.35 -8.97,-1.34 -18.29,-3.32 -26.39,-7.73 -4.6,-2.5 -10.22,-6.99 -8.81,-13.17 0.76,-2.58 2.32,-4.83 4.44,-6.39 2.92,-2.26 6.15,-4.06 9.57,-5.33 9.4,-3.83 19.62,-5.46 29.61,-6.39 12.13,-1.15 24.34,-1.01 36.44,0.43 9.62,1.16 19.43,3 28.34,7.12 4.82,2.22 11.4,6.13 11.4,12.44 0,1.06 -0.82,1.92 -1.84,1.92 -1.02,0 -1.84,-0.86 -1.84,-1.92 v -0.57 c 0,-0.31 0,0.23 0,0.23 0,-0.24 -0.05,-0.48 -0.14,-0.7 -0.06,-0.23 -0.15,-0.46 -0.22,-0.69 -0.15,-0.45 0.06,0.11 0,0 -0.06,-0.11 -0.11,-0.24 -0.17,-0.36 -0.12,-0.25 -0.26,-0.49 -0.41,-0.73 -0.07,-0.11 -0.16,-0.23 -0.23,-0.36 -0.04,-0.04 -0.07,-0.08 -0.1,-0.13 -0.12,-0.2 0.25,0.29 0.09,0.13 -0.44,-0.45 -0.97,-1.09 -1.23,-1.34 -0.26,-0.26 -0.52,-0.5 -0.79,-0.73 l -0.34,-0.29 v 0 l -0.21,-0.15 c -0.64,-0.45 -1.23,-0.88 -1.87,-1.28 -3.05,-1.88 -6.31,-3.34 -9.71,-4.37 -9.66,-3 -19.63,-4.76 -29.7,-5.24 -11.6,-0.78 -23.25,-0.35 -34.77,1.28 -4.86,0.68 -9.67,1.67 -14.41,2.99 -2.03,0.57 -4.04,1.21 -6.01,1.97 -0.49,0.18 -0.97,0.37 -1.46,0.57 l -0.58,0.24 -0.33,0.14 c -0.23,0.09 0.28,-0.13 0,0 -0.79,0.34 -1.57,0.73 -2.34,1.12 -1.41,0.74 -2.77,1.59 -4.05,2.56 l -0.15,0.11 -0.41,0.33 c -0.23,0.2 -0.47,0.41 -0.7,0.64 -0.43,0.4 -0.84,0.83 -1.23,1.28 -0.33,0.4 0.15,-0.24 -0.07,0.1 -0.09,0.11 -0.17,0.23 -0.25,0.36 -0.14,0.22 -0.27,0.45 -0.39,0.68 l -0.2,0.41 c -0.21,0.42 0.07,-0.24 0,0 -0.07,0.24 -0.23,0.49 -0.23,0.74 -0.09,0.24 -0.14,0.49 -0.15,0.74 0,0.01 0,-0.54 0,-0.23 v 0.19 c 0,0.11 0,0.22 0,0.33 v 0.42 c 0,0.56 0,0 0,0 0.02,0.24 0.06,0.47 0.14,0.7 0.06,0.24 0.07,0.29 0.23,0.74 0.16,0.45 -0.07,-0.11 0,0 0.07,0.11 0.12,0.24 0.18,0.36 0.12,0.25 0.26,0.49 0.41,0.73 0.07,0.11 0.16,0.23 0.23,0.36 0.23,0.34 -0.17,-0.22 0,0 0.42,0.46 0.97,1.1 1.23,1.34 0.26,0.24 0.52,0.49 0.79,0.72 l 0.36,0.29 c 0.26,0.22 -0.21,-0.15 0,0 l 0.21,0.17 c 1.25,0.94 2.57,1.76 3.95,2.48 1.53,0.81 3.12,1.52 4.74,2.12 9.14,3.27 18.66,5.26 28.3,5.92 11.74,1.07 23.55,0.93 35.26,-0.41 5.04,-0.57 10.05,-1.45 14.99,-2.64 2.14,-0.51 4.25,-1.11 6.32,-1.79 0.99,-0.33 1.96,-0.66 2.93,-1.03 l 1.39,-0.55 0.66,-0.28 0.32,-0.14 c -0.12,0 -0.33,0.14 0,0 1.52,-0.68 3,-1.45 4.43,-2.33 0.65,-0.4 1.28,-0.82 1.88,-1.28 l 0.27,-0.2 c 0.21,-0.2 -0.26,0.17 -0.06,0 l 0.34,-0.29 c 0.26,-0.22 0.5,-0.45 0.75,-0.68 0.43,-0.42 0.84,-0.87 1.23,-1.34 0.26,-0.31 -0.2,0.31 0.07,-0.09 0.07,-0.13 0.16,-0.24 0.23,-0.36 0.14,-0.22 0.27,-0.44 0.38,-0.68 0.07,-0.14 0.04,-0.09 0.2,-0.41 0.16,-0.32 -0.07,0.24 0,0 0.07,-0.24 0.16,-0.46 0.22,-0.7 0.07,-0.24 0.12,-0.49 0.15,-0.74 0,0 0,0.52 0,0 v -0.37 0 z" />
      <path
         id="path486"
         class="cls-5"
         d="m 177.12,288.89 c 0.02,-1.06 0.86,-1.9 1.88,-1.88 1.02,0.02 1.82,0.9 1.8,1.95 -0.03,1.3 -0.33,2.59 -0.88,3.76 -1.37,2.5 -3.36,4.58 -5.77,6 -3.28,2.07 -6.79,3.72 -10.46,4.89 -9.97,3.42 -20.58,4.89 -31.03,5.6 -12.15,0.84 -24.34,0.38 -36.4,-1.37 -8.97,-1.28 -18.3,-3.27 -26.39,-7.67 -4.6,-2.52 -10.22,-7 -8.81,-13.17 0.76,-2.58 2.32,-4.83 4.44,-6.39 2.91,-2.26 6.13,-4.05 9.55,-5.31 9.4,-3.83 19.62,-5.46 29.61,-6.39 12.13,-1.14 24.34,-0.99 36.44,0.43 9.62,1.16 19.43,3.02 28.34,7.13 4.82,2.21 11.4,6.12 11.4,12.43 0,1.06 -0.82,1.92 -1.84,1.92 -1.02,0 -1.84,-0.86 -1.84,-1.92 v -0.56 c 0,-0.32 0,0.22 0,0.22 0,-0.24 -0.06,-0.47 -0.15,-0.69 -0.06,-0.24 -0.13,-0.47 -0.21,-0.7 -0.15,-0.45 0.06,0.1 0,0 -0.06,-0.1 -0.17,-0.24 -0.17,-0.36 -0.12,-0.25 -0.26,-0.48 -0.41,-0.72 -0.07,-0.13 -0.16,-0.24 -0.23,-0.36 -0.04,-0.04 -0.07,-0.09 -0.1,-0.14 -0.12,-0.2 0.25,0.31 0.09,0.13 -0.44,-0.45 -0.97,-1.09 -1.23,-1.34 -0.26,-0.25 -0.52,-0.49 -0.79,-0.72 l -0.34,-0.29 c -0.25,-0.27 0.06,0 0.06,0 l -0.21,-0.17 c -0.64,-0.45 -1.23,-0.88 -1.87,-1.28 -3.05,-1.87 -6.31,-3.34 -9.71,-4.36 -9.66,-3.01 -19.63,-4.77 -29.7,-5.24 -11.6,-0.8 -23.25,-0.4 -34.77,1.21 -4.86,0.64 -9.68,1.6 -14.43,2.87 -2.03,0.57 -4.04,1.23 -6.01,1.97 l -1.46,0.57 -0.58,0.24 -0.33,0.14 c -0.23,0.1 0.28,-0.13 0,0 -0.79,0.36 -1.57,0.73 -2.34,1.14 -1.42,0.73 -2.77,1.59 -4.05,2.56 l -0.15,0.11 -0.41,0.33 -0.7,0.64 c -0.43,0.42 -0.84,0.87 -1.23,1.34 -0.33,0.38 0.15,-0.26 -0.07,0.09 l -0.25,0.36 c -0.14,0.22 -0.33,0.55 -0.39,0.68 -0.06,0.13 -0.12,0.27 -0.2,0.41 -0.21,0.43 0.07,-0.26 0,0 -0.07,0.26 -0.17,0.49 -0.23,0.74 -0.09,0.24 -0.14,0.49 -0.15,0.74 0,0.01 0,-0.54 0,-0.22 v 0.18 c 0,0.11 0,0.22 0,0.33 v 0.42 c 0,0.56 0,0 0,0 0.02,0.24 0.06,0.47 0.14,0.7 0.06,0.25 0.14,0.5 0.23,0.74 0.16,0.46 -0.15,-0.27 0,0 0.07,0.12 0.13,0.24 0.17,0.37 0.14,0.24 0.34,0.59 0.42,0.72 0.07,0.13 0.16,0.24 0.23,0.36 0.23,0.36 -0.18,-0.2 0,0 0.42,0.46 0.97,1.09 1.23,1.34 0.26,0.25 0.52,0.49 0.79,0.72 l 0.36,0.29 c 0.2,0.22 -0.27,-0.15 -0.06,0 l 0.21,0.17 c 1.25,0.94 2.57,1.77 3.95,2.48 1.53,0.82 3.11,1.53 4.74,2.12 9.14,3.27 18.66,5.26 28.3,5.92 11.74,1.07 23.55,0.93 35.26,-0.41 5.04,-0.56 10.05,-1.44 14.99,-2.63 2.12,-0.52 4.25,-1.11 6.32,-1.8 0.99,-0.32 1.96,-0.66 2.93,-1.03 l 1.37,-0.55 0.68,-0.27 0.32,-0.14 c -0.12,0 -0.33,0.15 0,0 1.52,-0.67 3,-1.45 4.43,-2.33 0.65,-0.39 1.27,-0.82 1.88,-1.28 l 0.27,-0.2 c 0.21,-0.2 -0.26,0.17 -0.06,0 l 0.34,-0.29 0.75,-0.66 c 0.44,-0.36 0.97,-0.96 1.23,-1.28 0.26,-0.32 -0.21,0.31 0.07,-0.1 0.07,-0.11 0.1,-0.14 0.23,-0.36 0.13,-0.22 0.31,-0.55 0.38,-0.68 0.07,-0.13 0.04,-0.09 0.2,-0.41 0.16,-0.32 -0.07,0.23 0,0 0.07,-0.23 0.16,-0.46 0.22,-0.69 0.07,-0.25 0.12,-0.5 0.15,-0.75 0,0 0,0.52 0,0 v -0.37 0 z" />
      <ellipse
         id="ellipse488"
         class="cls-1"
         cx="121.12"
         cy="194.75999"
         rx="114.21"
         ry="49.200001" />
      <path
         id="path490"
         class="cls-2"
         d="m 228.38,194.76 c 0,-0.2 0,-0.41 0,-0.61 0.16,-4.03 3.43,-7.15 7.29,-6.98 3.87,0.17 6.87,3.57 6.71,7.59 0,3.21 -0.52,6.39 -1.56,9.42 -5.35,15.13 -19.72,24.61 -33.31,30.76 -19.91,9.02 -41.43,13.34 -62.97,15.27 -24.21,2.22 -48.6,1 -72.5,-3.63 -9.91,-1.87 -19.64,-4.62 -29.1,-8.21 -8.29,-3 -16.19,-7.07 -23.51,-12.1 C 13.4,221.91 7.68,216.68 4,209.99 c -3.52,-6.25 -4.78,-13.6 -3.55,-20.74 1.15,-6.77 5.13,-12.98 9.68,-17.89 5.55,-5.69 11.95,-10.39 18.96,-13.93 18.7,-9.89 39.69,-14.62 60.43,-17.17 24.16,-2.96 48.59,-2.53 72.64,1.28 10.36,1.57 20.58,4 30.57,7.27 8.83,2.82 17.34,6.64 25.37,11.4 12,7.35 24.21,18.96 24.21,34.58 -0.15,3.79 -3.07,6.82 -6.71,6.98 -3.87,0.17 -7.13,-2.96 -7.29,-6.98 0,-0.91 -0.05,-1.81 -0.16,-2.71 l 0.25,1.94 c -0.26,-2 -0.78,-3.95 -1.53,-5.81 l 0.7,1.74 c -0.46,-1.12 -0.98,-2.2 -1.57,-3.25 -0.32,-0.54 -0.56,-0.96 -0.98,-1.6 -0.42,-0.64 -1.95,-2.63 -0.12,-0.26 -1.46,-1.92 -3.07,-3.71 -4.81,-5.35 -0.93,-0.91 -2.01,-1.83 -2.87,-2.56 -0.86,-0.73 1.55,1.23 0.66,0.55 -0.12,-0.11 -0.25,-0.2 -0.38,-0.29 l -0.77,-0.6 -1.6,-1.16 c -5.08,-3.5 -10.47,-6.47 -16.1,-8.88 l 1.68,0.73 c -2.95,-1.28 -5.92,-2.45 -8.93,-3.51 -12.07,-4.17 -24.49,-7.1 -37.1,-8.78 l 1.87,0.26 c -5.06,-0.7 -10.15,-1.25 -15.24,-1.65 -18.54,-1.45 -37.17,-0.89 -55.6,1.65 l 1.87,-0.26 c -3.84,0.54 -7.68,1.18 -11.49,1.92 -11.84,2.16 -23.42,5.62 -34.56,10.32 l 1.67,-0.73 c -3.31,1.44 -6.54,3.06 -9.7,4.84 -2.53,1.43 -4.98,3 -7.34,4.71 -0.56,0.43 -1.12,0.86 -1.66,1.28 -1.15,0.88 1.28,-1.05 0.48,-0.4 l -0.72,0.61 c -0.99,0.78 -2.04,1.78 -2.88,2.56 -0.84,0.78 -1.67,1.65 -2.45,2.56 -0.44,0.47 -0.85,0.96 -1.23,1.46 -0.2,0.27 -0.91,1.28 0,0 0.91,-1.28 0.2,-0.27 0,0 -1.24,1.77 -2.28,3.67 -3.12,5.67 l 0.71,-1.74 c -0.75,1.86 -1.27,3.81 -1.53,5.81 l 0.25,-1.94 c -0.22,1.8 -0.22,3.62 0,5.42 l -0.25,-1.94 c 0.26,2 0.78,3.95 1.53,5.81 l -0.71,-1.74 c 0.47,1.11 0.99,2.2 1.58,3.25 0.31,0.54 0.54,0.93 0.97,1.58 0.43,0.65 1.96,2.64 0.12,0.27 1.47,1.91 3.09,3.69 4.82,5.34 0.93,0.92 2.01,1.81 2.87,2.56 0.86,0.74 -1.55,-1.21 -0.66,-0.54 l 0.37,0.29 0.77,0.59 c 0.54,0.4 1.07,0.79 1.61,1.16 5.07,3.52 10.46,6.52 16.09,8.94 l -1.67,-0.74 c 2.93,1.29 5.92,2.45 8.93,3.53 12.07,4.16 24.49,7.1 37.1,8.78 l -1.87,-0.27 c 5.06,0.72 10.15,1.26 15.24,1.65 18.54,1.45 37.17,0.9 55.6,-1.65 l -1.87,0.27 c 3.84,-0.55 7.67,-1.18 11.49,-1.92 11.84,-2.17 23.42,-5.66 34.55,-10.39 l -1.68,0.74 c 3.31,-1.46 6.55,-3.05 9.71,-4.84 2.51,-1.43 4.95,-3 7.3,-4.7 0.55,-0.43 1.1,-0.84 1.66,-1.28 1.14,-0.88 -1.28,1.05 -0.48,0.4 l 0.72,-0.6 c 0.98,-0.83 2.01,-1.84 2.87,-2.62 0.86,-0.78 1.68,-1.65 2.45,-2.56 0.44,-0.49 0.83,-0.97 1.23,-1.47 0.2,-0.27 0.91,-1.28 0,0 -0.91,1.28 -0.2,0.28 0,0 1.23,-1.76 2.28,-3.66 3.11,-5.66 l -0.7,1.74 c 0.75,-1.86 1.27,-3.81 1.53,-5.81 l -0.25,1.94 c 0.11,-0.9 0.16,-1.8 0.16,-2.71 h 0.11 z" />
      <path
         id="path492"
         class="cls-4"
         d="m 42.66,158.33 v -13.62 c 0.01,-20.24 0,-40.47 0.29,-60.71" />
      <path
         id="path494"
         class="cls-4"
         d="M 27.94,167.93 C 27.93,141.83 27.93,115.6 28.22,89.04" />
      <path
         id="path496"
         class="cls-4"
         d="m 62.5,152.59 c 0.17,-26.22 0.17,-46.07 0.29,-72.63" />
      <path
         id="path498"
         class="cls-4"
         d="m 88.73,147.91 c 0.72,-26.42 -1.08,-44.42 0.25,-70.98" />
      <path
         id="path500"
         class="cls-4"
         d="m 123.02,146.23 c 0.28,-26.52 0.28,-42.74 0.28,-69.3" />
      <path
         id="path502"
         class="cls-4"
         d="m 204.02,158.73 v -13.8 c -0.02,-20.31 0,-40.63 -0.29,-60.94" />
      <path
         id="path504"
         class="cls-4"
         d="m 218.75,168.34 c 0,-26.51 0,-52.74 -0.29,-79.3" />
      <path
         id="path506"
         class="cls-4"
         d="m 184.1,152.59 c -0.17,-26.22 -0.17,-46.07 -0.29,-72.63" />
      <path
         id="path508"
         class="cls-4"
         d="m 157.91,147.91 c 0,0 -0.28,-70.98 -0.28,-70.98" />
      <ellipse
         id="ellipse614"
         class="cls-3"
         cx="121.12"
         cy="97.730003"
         rx="109.83"
         ry="21.41" />
    </g>
  </g>
</svg>
