<?xml version="1.0" encoding="UTF-8"?><svg id="Layer_2" xmlns="http://www.w3.org/2000/svg" xmlns:xlink="http://www.w3.org/1999/xlink" viewBox="0 0 873.09 509.53" preserveAspectRatio="none"><defs><style>.cls-1{fill:url(#radial-gradient);opacity:1.0;stroke-width:2px;}.cls-1,.cls-2,.cls-3{stroke:#fff;stroke-miterlimit:10;}.cls-2{stroke-width:2.07px;}.cls-2,.cls-3{fill:none;}.cls-3{stroke-width:2.03px;}</style><radialGradient id="radial-gradient" cx="438.25" cy="-52.43" fx="438.25" fy="-52.43" r="472.38" gradientTransform="matrix(1, 0, 0, 1, 0, 0)" gradientUnits="userSpaceOnUse"><stop offset="0" stop-color="#e7f6fd"/><stop offset=".49" stop-color="#98c7ec"/><stop offset=".74" stop-color="#73b2e5"/></radialGradient><symbol id="UI_popup_box_1" viewBox="0 0 873.09 509.53"><g><rect class="cls-3" x="12.44" y="12.31" width="848.21" height="484.92" rx="58.33" ry="58.33"/><rect class="cls-3" x="1.02" y="1.02" width="871.06" height="507.5" rx="60.47" ry="60.47"/><rect class="cls-1" x="12.44" y="12.31" width="848.21" height="484.92" rx="58.33" ry="58.33"/><path class="cls-3" d="M73.61,33.81c-21.59,0-39.09,17.5-39.09,39.09V441.17c0,21.59,17.5,39.09,39.09,39.09h84.48"/><path class="cls-3" d="M715.34,480.26h84.14c21.59,0,39.09-17.5,39.09-39.09V72.9c0-21.59-17.5-39.09-39.09-39.09"/><path class="cls-3" d="M73.4,42.15c-18.74,0-30.17,19.32-30.17,35.69V418.37"/><path class="cls-3" d="M799.48,33.81c21.59,0,39.09,17.5,39.09,39.09V441.17c0,21.59-17.5,39.09-39.09,39.09h-84.48"/><path class="cls-3" d="M799.69,42.15c18.74,0,30.17,19.32,30.17,35.69V418.37"/><g><path class="cls-3" d="M129.37,56.92h231.95c1.83,0,3.48-1.37,3.57-3.2,.1-1.95-1.45-3.57-3.38-3.57H129.37v6.77Z"/><rect class="cls-3" x="372.42" y="50.15" width="6.97" height="6.77" rx="3.38" ry="3.38"/><path class="cls-3" d="M80.47,40.58H383.6c1.87,0,3.38,1.52,3.38,3.38v9.57c0,1.87,1.52,3.38,3.38,3.38h7.71c.93,0,1.81-.38,2.45-1.05l15.53-16.33c2.05-2.16,.52-5.72-2.45-5.72H80.47v6.77Z"/></g><g><path class="cls-3" d="M743.72,56.92h-231.95c-1.83,0-3.48-1.37-3.57-3.2-.1-1.95,1.45-3.57,3.38-3.57h232.14v6.77Z"/><rect class="cls-3" x="493.71" y="50.15" width="6.97" height="6.77" rx="3.38" ry="3.38"/><path class="cls-3" d="M792.62,40.58H489.49c-1.87,0-3.38,1.52-3.38,3.38v9.57c0,1.87-1.52,3.38-3.38,3.38h-7.71c-.93,0-1.81-.38-2.45-1.05l-15.53-16.33c-2.05-2.16-.52-5.72,2.45-5.72h333.13v6.77Z"/></g><path class="cls-3" d="M156.18,466.85h-50.03c-1.83,0-3.48-1.37-3.57-3.2-.1-1.95,1.45-3.57,3.38-3.57h50.23v6.77Z"/><rect class="cls-3" x="88.08" y="460.08" width="6.97" height="6.77" rx="3.38" ry="3.38"/><rect class="cls-3" x="42.77" y="428.59" width="6.97" height="6.77" rx="3.38" ry="3.38"/><rect class="cls-3" x="823.36" y="428.59" width="6.97" height="6.77" rx="3.38" ry="3.38"/><path class="cls-3" d="M156.18,450.52H83.86c-1.87,0-3.38,1.52-3.38,3.38v9.57c0,1.87-1.52,3.38-3.38,3.38h-7.71c-.93,0-1.81-.38-2.45-1.05l-15.53-16.33c-2.05-2.16-.52-5.72,2.45-5.72h102.32v6.77Z"/><g><path class="cls-2" d="M165.51,459.05h75.37c1.94,0,3.51,1.57,3.51,3.51v9.93c0,1.94,1.57,3.51,3.51,3.51h8c.96,0,1.88-.39,2.54-1.09l16.11-16.95c2.13-2.24,.54-5.93-2.54-5.93h-106.5v-8.56h134.21l-36.12,38.12h-98.08v-22.54Z"/><g><path class="cls-2" d="M408.53,482.19h-136.05l37.07-38.72h78.54c15.66,0,23.97,5.38,23.97,21.9v13.1c0,2.05-1.58,3.72-3.52,3.72Z"/><g><path class="cls-2" d="M399.78,475.99h-102.64c-3.09,0-4.67-3.69-2.54-5.93l16.11-16.95c.66-.7,1.58-1.09,2.54-1.09h8c1.94,0,3.51,1.57,3.51,3.51v9.93c0,1.94,1.57,3.51,3.51,3.51h71.51c1.94,0,3.51,1.57,3.51,3.51h0c0,1.94-1.57,3.51-3.51,3.51Z"/><g><circle class="cls-2" cx="335.74" cy="455.34" r="3.67"/><circle class="cls-2" cx="351.01" cy="455.34" r="3.67"/><circle class="cls-2" cx="366.27" cy="455.34" r="3.67"/><circle class="cls-2" cx="381.53" cy="455.34" r="3.67"/></g></g></g></g><g><g><path class="cls-3" d="M716.63,466.85h50.03c1.83,0,3.48-1.37,3.57-3.2,.1-1.95-1.45-3.57-3.38-3.57h-50.23v6.77Z"/><rect class="cls-3" x="777.76" y="460.08" width="6.97" height="6.77" rx="3.38" ry="3.38"/><path class="cls-3" d="M716.63,450.52h72.32c1.87,0,3.38,1.52,3.38,3.38v9.57c0,1.87,1.52,3.38,3.38,3.38h7.71c.93,0,1.81-.38,2.45-1.05l15.53-16.33c2.05-2.16,.52-5.72-2.45-5.72h-102.32v6.77Z"/></g><g><path class="cls-2" d="M707.58,459.05h-75.37c-1.94,0-3.51,1.57-3.51,3.51v9.93c0,1.94-1.57,3.51-3.51,3.51h-8c-.96,0-1.88-.39-2.54-1.09l-16.11-16.95c-2.13-2.24-.54-5.93,2.54-5.93h106.5v-8.56h-134.21l36.12,38.12h98.08v-22.54Z"/><g><path class="cls-2" d="M464.56,482.19h136.05l-37.07-38.72h-78.54c-15.66,0-23.97,5.38-23.97,21.9v13.1c0,2.05,1.58,3.72,3.52,3.72Z"/><g><path class="cls-2" d="M473.31,475.99h102.64c3.09,0,4.67-3.69,2.54-5.93l-16.11-16.95c-.66-.7-1.58-1.09-2.54-1.09h-8c-1.94,0-3.51,1.57-3.51,3.51v9.93c0,1.94-1.57,3.51-3.51,3.51h-71.51c-1.94,0-3.51,1.57-3.51,3.51h0c0,1.94,1.57,3.51,3.51,3.51Z"/><g><circle class="cls-2" cx="537.35" cy="455.34" r="3.67"/><circle class="cls-2" cx="522.09" cy="455.34" r="3.67"/><circle class="cls-2" cx="506.82" cy="455.34" r="3.67"/><circle class="cls-2" cx="491.56" cy="455.34" r="3.67"/></g></g></g></g></g><circle class="cls-3" cx="436.55" cy="466.85" r="7.42"/><circle class="cls-3" cx="436.55" cy="44.71" r="7.42"/></g></symbol></defs><g id="UI_bottom_bar_2"><use width="873.09" height="509.53" xlink:href="#UI_popup_box_1"/></g></svg>
