<svg xmlns="http://www.w3.org/2000/svg" xmlns:xlink="http://www.w3.org/1999/xlink" viewBox="0 0 300 300"><defs><style>.cls-1{fill:url(#radial-gradient);}.cls-2{fill:url(#radial-gradient-2);}.cls-3{fill:#e0e0e0;}.cls-10,.cls-11,.cls-12,.cls-13,.cls-14,.cls-15,.cls-16,.cls-17,.cls-18,.cls-19,.cls-4,.cls-8,.cls-9{stroke:#dbdbdb;}.cls-10,.cls-11,.cls-12,.cls-13,.cls-14,.cls-15,.cls-16,.cls-17,.cls-18,.cls-19,.cls-31,.cls-4,.cls-7,.cls-8,.cls-9{stroke-miterlimit:10;}.cls-4{stroke-width:1.5px;fill:url(#radial-gradient-3);}.cls-5{fill:#202020;}.cls-6{fill:#fff;}.cls-31,.cls-7{fill:none;}.cls-7{stroke:#000;stroke-width:1.2px;}.cls-8{fill:#29abe2;stroke-width:1.24px;}.cls-10,.cls-11,.cls-12,.cls-14,.cls-15,.cls-16,.cls-17,.cls-18,.cls-19,.cls-9{stroke-width:0.96px;}.cls-9{fill:url(#radial-gradient-4);}.cls-10{fill:url(#radial-gradient-5);}.cls-11{fill:url(#radial-gradient-6);}.cls-12{fill:url(#radial-gradient-7);}.cls-13{stroke-width:0.82px;fill:url(#radial-gradient-8);}.cls-14{fill:url(#radial-gradient-9);}.cls-15{fill:url(#radial-gradient-10);}.cls-16{fill:url(#radial-gradient-11);}.cls-17{fill:url(#radial-gradient-12);}.cls-18{fill:url(#radial-gradient-13);}.cls-19{fill:url(#radial-gradient-14);}.cls-20{fill:url(#radial-gradient-15);}.cls-21{fill:url(#radial-gradient-16);}.cls-22{fill:url(#radial-gradient-17);}.cls-23{fill:url(#radial-gradient-18);}.cls-24{fill:url(#radial-gradient-19);}.cls-25{fill:url(#radial-gradient-20);}.cls-26{fill:url(#radial-gradient-21);}.cls-27{fill:url(#radial-gradient-22);}.cls-28{fill:url(#radial-gradient-23);}.cls-29{fill:url(#radial-gradient-24);}.cls-30{fill:url(#radial-gradient-25);}.cls-31{stroke:#fafafa;stroke-width:0.68px;}</style><radialGradient id="radial-gradient" cx="99.93" cy="96.17" fx="116.63529227220099" fy="107.40443202046933" r="30.48" gradientTransform="translate(0 -6.06)" gradientUnits="userSpaceOnUse"><stop offset="0.15" stop-color="#3d8eff"/><stop offset="0.19" stop-color="#459aff"/><stop offset="0.27" stop-color="#59b9ff"/><stop offset="0.36" stop-color="#7bebff"/><stop offset="0.38" stop-color="#81f4ff"/></radialGradient><radialGradient id="radial-gradient-2" cx="104.14" cy="198.06" fx="209.5615571070008" fy="269.51216326197545" r="131.86" gradientTransform="translate(0 -6.06)" gradientUnits="userSpaceOnUse"><stop offset="0.06" stop-color="#3d8eff"/><stop offset="0.16" stop-color="#459aff"/><stop offset="0.33" stop-color="#59b9ff"/><stop offset="0.56" stop-color="#7bebff"/><stop offset="0.6" stop-color="#81f4ff"/></radialGradient><radialGradient id="radial-gradient-3" cx="101.28" cy="41.79" fx="107.81802673187346" r="42.49" gradientTransform="translate(0 -6.06)" gradientUnits="userSpaceOnUse"><stop offset="0.75" stop-color="#81f4ff"/><stop offset="1" stop-color="#3d8eff"/></radialGradient><radialGradient id="radial-gradient-4" cx="26.62" cy="31.77" fx="54.83418972395537" fy="-0.1280023938306627" r="54.95" gradientTransform="translate(0 -6)" gradientUnits="userSpaceOnUse"><stop offset="0.26" stop-color="#81f4ff"/><stop offset="0.57" stop-color="#3d8eff"/></radialGradient><radialGradient id="radial-gradient-5" cx="170.48" cy="46.86" fx="132.20215620529245" fy="72.32293323662249" r="56.55" gradientTransform="translate(0 -6)" gradientUnits="userSpaceOnUse"><stop offset="0.64" stop-color="#81f4ff"/><stop offset="0.94" stop-color="#3d8eff"/></radialGradient><radialGradient id="radial-gradient-6" cx="152.92" cy="55.16" fx="89.53797457592577" fy="97.30927960540961" r="93.63" xlink:href="#radial-gradient-5"/><radialGradient id="radial-gradient-7" cx="152.14" cy="80.49" fx="83.9450476370419" fy="125.8398169632711" r="100.74" xlink:href="#radial-gradient-5"/><radialGradient id="radial-gradient-8" cx="-2796.71" cy="-388.89" fx="-2864.0935317970975" fy="-344.07411305078864" r="99.54" gradientTransform="matrix(0.79, -0.01, -0.01, 0.94, 2291.96, 483.91)" xlink:href="#radial-gradient-5"/><radialGradient id="radial-gradient-9" cx="60.3" cy="35.86" fx="86.7130139399128" fy="6.001816297280584" r="51.44" xlink:href="#radial-gradient-4"/><radialGradient id="radial-gradient-10" cx="52.87" cy="48.45" fx="84.91132724015571" fy="12.227515156946971" r="62.42" xlink:href="#radial-gradient-4"/><radialGradient id="radial-gradient-11" cx="47.76" cy="73.79" fx="87.23103630385248" fy="29.179738122305153" r="76.87" xlink:href="#radial-gradient-4"/><radialGradient id="radial-gradient-12" cx="108.43" cy="145.49" fx="54.28540168170485" fy="181.4969542877555" r="79.99" xlink:href="#radial-gradient-5"/><radialGradient id="radial-gradient-13" cx="132.17" cy="121.57" fx="65.01017500240286" fy="166.24123492137525" r="99.22" xlink:href="#radial-gradient-5"/><radialGradient id="radial-gradient-14" cx="45.86" cy="108.85" fx="98.62877466349116" fy="49.207010078226894" r="102.77" xlink:href="#radial-gradient-4"/><radialGradient id="radial-gradient-15" cx="20.99" cy="22.57" fx="42.89828528711032" r="22.28" gradientTransform="translate(0 -5.96)" gradientUnits="userSpaceOnUse"><stop offset="0.11" stop-color="#3d8eff"/><stop offset="0.2" stop-color="#459aff"/><stop offset="0.35" stop-color="#59b9ff"/><stop offset="0.55" stop-color="#7bebff"/><stop offset="0.59" stop-color="#81f4ff"/></radialGradient><radialGradient id="radial-gradient-16" cx="22.66" cy="41.72" fx="41.73529649096828" r="19.4" xlink:href="#radial-gradient-15"/><radialGradient id="radial-gradient-17" cx="27.03" cy="50.15" fx="42.34340817600925" r="15.57" xlink:href="#radial-gradient-15"/><radialGradient id="radial-gradient-18" cx="29.71" cy="11.46" fx="47.44897966362947" r="18.04" xlink:href="#radial-gradient-15"/><radialGradient id="radial-gradient-19" cx="80.05" cy="22.57" fx="101.95908007326142" r="22.28" xlink:href="#radial-gradient-15"/><radialGradient id="radial-gradient-20" cx="77.54" cy="41.72" fx="96.61213856162031" r="19.4" xlink:href="#radial-gradient-15"/><radialGradient id="radial-gradient-21" cx="72.67" cy="50.15" fx="87.98262723677763" r="15.57" xlink:href="#radial-gradient-15"/><radialGradient id="radial-gradient-22" cx="70.49" cy="11.46" fx="88.22269395584652" r="18.04" xlink:href="#radial-gradient-15"/><radialGradient id="radial-gradient-23" cx="82.21" cy="46.84" fx="82.20620513764152" r="0" xlink:href="#radial-gradient-15"/><radialGradient id="radial-gradient-24" cx="80.18" cy="47.48" fx="80.17910606016085" r="0" xlink:href="#radial-gradient-15"/><radialGradient id="radial-gradient-25" cx="80.17" cy="47.48" fx="80.171876294311" r="0" xlink:href="#radial-gradient-15"/><symbol id="Aquatic_hair_1" data-name="Aquatic_hair_1" viewBox="0 0 98.17 60.56"><path class="cls-20" d="M38.66,22.05c-8.8,2.71-20.33,4.66-26.41-2.62a39,39,0,0,0-4.09-4.9c-1.57-1.36-3.78-2.09-5.52-1S.23,16.93.51,19.08a11.15,11.15,0,0,0,2.7,5.59,17.06,17.06,0,0,0,17.15,5.95c5.08-1.31,11.84-4.51,18-4.85"/><path class="cls-21" d="M34.66,28.63c-6.82,7.83-19,7.32-24.87,16.08a8.46,8.46,0,0,0-1.63,4.77c0,1.75,1,3.55,2.52,3.86A3.54,3.54,0,0,0,14,51.74a19.38,19.38,0,0,0,2-3.69c3.95-8.3,11.84-11.79,19.18-14.49"/><path class="cls-22" d="M33.79,39a13,13,0,0,1-5,9.88c-2.8,2.3-6.14,3.52-9.39,4.81-1.53.6-3.32,1.63-3.36,3.49A3,3,0,0,0,18.28,60a5.65,5.65,0,0,0,3.5-.52c7.19-3,12.9-10.29,14.68-18.85"/><path class="cls-23" d="M42.2,20.34c-.2-3.18-3.07-5.3-5.8-5.77s-5.53.18-8.28-.12-5.74-2-6.37-5.09a22.88,22.88,0,0,1,0-4.68c0-1.57-.44-3.35-1.68-4-1.68-.88-3.56.94-4.28,2.9-1.42,3.86-.27,8.75,2.64,11.25,3.17,2.72,7.49,2.46,11.44,2.38s8.44.46,10.85,4.06"/><path class="cls-24" d="M59.51,22.05c8.8,2.71,20.33,4.66,26.41-2.62A39,39,0,0,1,90,14.53c1.57-1.36,3.77-2.09,5.51-1s2.42,3.43,2.14,5.58A11.15,11.15,0,0,1,95,24.67,17.07,17.07,0,0,1,77.8,30.62c-5.07-1.31-11.83-4.51-18-4.85"/><path class="cls-25" d="M63.51,28.63c6.82,7.83,19,7.32,24.87,16.08A8.46,8.46,0,0,1,90,49.48c0,1.75-1,3.55-2.52,3.86a3.54,3.54,0,0,1-3.32-1.6,19.38,19.38,0,0,1-2-3.69c-4-8.3-11.84-11.79-19.18-14.49"/><path class="cls-26" d="M64.38,39a13,13,0,0,0,5,9.88c2.8,2.3,6.14,3.52,9.39,4.81,1.53.6,3.32,1.63,3.36,3.49A3,3,0,0,1,79.89,60a5.65,5.65,0,0,1-3.5-.52c-7.19-3-12.9-10.29-14.68-18.85"/><path class="cls-27" d="M56,20.34c.2-3.18,3.07-5.3,5.8-5.77s5.53.18,8.28-.12,5.74-2,6.37-5.09a22.88,22.88,0,0,0,0-4.68c0-1.57.44-3.35,1.68-4,1.68-.88,3.56.94,4.28,2.9,1.42,3.86.27,8.75-2.64,11.25-3.17,2.72-7.49,2.46-11.44,2.38s-8.44.46-10.85,4.06"/><path class="cls-28" d="M82.21,46.84"/><path class="cls-29" d="M80.18,47.48"/><path class="cls-30" d="M80.17,47.48"/><path class="cls-3" d="M38.66,22.05a14.66,14.66,0,0,0-3.33.47l-.79.2-.55.13-.75.17-.86.18c-.59.13-1.19.23-1.81.33a31.46,31.46,0,0,1-8,.39,15.51,15.51,0,0,1-7.81-2.77,11.17,11.17,0,0,1-1.54-1.37,13.23,13.23,0,0,1-1.33-1.55c-.83-1.08-1.62-2.2-2.53-3.18a7.87,7.87,0,0,0-3.19-2.21A4.38,4.38,0,0,0,2.62,13a4.61,4.61,0,0,0-2,2.22A6.92,6.92,0,0,0,0,17.37a8.66,8.66,0,0,0,0,1.42c0,.33.06.5.06.5s0,.17.09.48a9.22,9.22,0,0,0,.38,1.35A13.49,13.49,0,0,0,3.2,25.34a19.28,19.28,0,0,0,2.42,2.32,21.27,21.27,0,0,0,3.19,2A17.44,17.44,0,0,0,17,31.55a16.59,16.59,0,0,0,4.37-.73c1.4-.41,2.78-.88,4.12-1.34s2.68-.92,4-1.33l1.92-.59.93-.26.47-.12.39-.1c.88-.22,1.61-.36,2-.44a21.4,21.4,0,0,0,3.22-.87,8.74,8.74,0,0,0-3.39,0c-.37.08-1.12.22-2,.45l-.4.1-.47.12-1,.27-1.94.59c-1.3.42-2.63.88-4,1.34-2.7.89-5.44,2-8.23,2a16.58,16.58,0,0,1-7.75-1.75,19.78,19.78,0,0,1-3-1.94,18.77,18.77,0,0,1-2.3-2.21A12.52,12.52,0,0,1,1.4,20.81a8.54,8.54,0,0,1-.35-1.22A3.34,3.34,0,0,1,1,19.15a5.8,5.8,0,0,1,0-1.68,6.13,6.13,0,0,1,.51-1.87A3.72,3.72,0,0,1,3,13.8a3.47,3.47,0,0,1,2.82-.1,6.94,6.94,0,0,1,2.83,2c.85.92,1.62,2,2.47,3.12a14,14,0,0,0,1.4,1.62,11.56,11.56,0,0,0,1.65,1.47,16.55,16.55,0,0,0,8.26,2.95,33.09,33.09,0,0,0,8.24-.4c.64-.1,1.25-.21,1.85-.34l.88-.18.76-.18.56-.13.8-.2A10.72,10.72,0,0,0,38.66,22.05Z"/><path class="cls-3" d="M34.66,28.63A28,28,0,0,0,32,30.56a7.19,7.19,0,0,1-.64.49l-.46.32-.49.33c-.18.13-.37.25-.57.37l-1.23.71c-3.41,1.88-7.85,3.32-11.85,5.43S9.5,43.54,8.27,46.6a6.67,6.67,0,0,0-.44,3.94A4.72,4.72,0,0,0,8.36,52a2.35,2.35,0,0,0,.22.35,3.71,3.71,0,0,0,.78.87,3,3,0,0,0,1.77.66A3.62,3.62,0,0,0,13.36,53c1.42-1.07,2.16-2.93,3-4.71a22.2,22.2,0,0,1,3.48-5.2A30.82,30.82,0,0,1,30.32,36c.83-.37,1.53-.65,1.87-.79a14.42,14.42,0,0,0,3-1.62,10.81,10.81,0,0,0-3.29.78c-.35.14-1.05.42-1.89.8a31.64,31.64,0,0,0-10.82,7.35,23.42,23.42,0,0,0-3.62,5.42c-.83,1.84-1.56,3.53-2.71,4.39a2.77,2.77,0,0,1-1.67.64,2,2,0,0,1-1.22-.46,2.75,2.75,0,0,1-.59-.67,1.31,1.31,0,0,1-.17-.27,4,4,0,0,1-.45-1.19,5.9,5.9,0,0,1,.4-3.41,13.35,13.35,0,0,1,3-4.27A21,21,0,0,1,17.14,39C21,37,25.49,35.51,29,33.58l1.26-.74a4.67,4.67,0,0,0,.6-.38l.5-.35.48-.33a6.59,6.59,0,0,0,.67-.51A8,8,0,0,0,34.66,28.63Z"/><path class="cls-3" d="M33.79,39c-.3,1.16-.54,1.88-.91,3.16-.05.17-.14.43-.25.74q-.09.24-.21.51a11.93,11.93,0,0,1-1,1.84,14,14,0,0,1-3.24,3.54,22.72,22.72,0,0,1-4.45,2.62c-1.57.72-3.16,1.32-4.64,1.91A8.25,8.25,0,0,0,17,54.49a3.75,3.75,0,0,0-1.29,1.83,3.12,3.12,0,0,0,0,1.92,3.77,3.77,0,0,0,.77,1.25,3.49,3.49,0,0,0,.73.57,1.54,1.54,0,0,0,.29.16l.31.13a4.06,4.06,0,0,0,.91.2,6.74,6.74,0,0,0,3.07-.62,23.13,23.13,0,0,0,3.84-2,25.15,25.15,0,0,0,3.92-3.3,27.9,27.9,0,0,0,5.65-8.64c.37-.85.6-1.59.74-1.94a13,13,0,0,0,.4-1.74c0-.53,0-1,0-1.63-.27.54-.49,1-.69,1.46a15.68,15.68,0,0,0-.61,1.62c-.14.34-.36,1-.72,1.88A27.16,27.16,0,0,1,29,54a24.27,24.27,0,0,1-3.78,3.17,21.6,21.6,0,0,1-3.67,2,5.75,5.75,0,0,1-2.65.55,2.4,2.4,0,0,1-.91-.23,1.65,1.65,0,0,1-.21-.12,2.61,2.61,0,0,1-.55-.43,2.31,2.31,0,0,1-.59-2.28c.27-1,1.43-1.87,2.84-2.43s3.07-1.18,4.67-1.92a23.47,23.47,0,0,0,4.63-2.73,15.25,15.25,0,0,0,3.45-3.77,12.65,12.65,0,0,0,1-2,5,5,0,0,0,.23-.55c.12-.34.22-.61.27-.8A6,6,0,0,0,33.79,39Z"/><path class="cls-3" d="M42.2,20.34A4.1,4.1,0,0,0,41.38,17a8.68,8.68,0,0,0-.59-.65,3.6,3.6,0,0,0-.45-.41l-.23-.2-.31-.22c-.2-.16-.43-.28-.66-.43a9.6,9.6,0,0,0-1.49-.66c-2.16-.71-4.55-.44-6.87-.36a14.68,14.68,0,0,1-3.46-.2,7.69,7.69,0,0,1-3.06-1.39A5.43,5.43,0,0,1,22.37,9.9a8,8,0,0,1-.27-3.13c.19-2.07.28-4.37-1.05-5.89a2.51,2.51,0,0,0-2.5-.8,3.75,3.75,0,0,0-1.67,1,5.84,5.84,0,0,0-.77.92c-.15.23-.22.36-.22.36l-.21.36a6.63,6.63,0,0,0-.43,1.1A10.82,10.82,0,0,0,14.77,8a11.29,11.29,0,0,0,1.95,5.64,9.4,9.4,0,0,0,5.94,3.73,32.24,32.24,0,0,0,7.25.35,23.88,23.88,0,0,1,3.41.14,13.73,13.73,0,0,1,3,.69,9.81,9.81,0,0,1,1.75.85,20.15,20.15,0,0,1,2.62,1.92,4.92,4.92,0,0,0-2.14-2.68,9.68,9.68,0,0,0-1.92-.94,14.25,14.25,0,0,0-3.24-.74,25.85,25.85,0,0,0-3.54-.16,31.07,31.07,0,0,1-7-.32,8.53,8.53,0,0,1-5.39-3.36,10.42,10.42,0,0,1-1.78-5.18,9.77,9.77,0,0,1,.43-3.79,5.41,5.41,0,0,1,.38-1l.17-.31.2-.31a4.46,4.46,0,0,1,.65-.78A2.93,2.93,0,0,1,18.77,1a1.57,1.57,0,0,1,1.61.53,4.11,4.11,0,0,1,.87,2.24,16.73,16.73,0,0,1-.05,3,8.57,8.57,0,0,0,.31,3.48,6.19,6.19,0,0,0,2.2,3,8.52,8.52,0,0,0,3.42,1.56,15.33,15.33,0,0,0,3.68.22c2.37-.09,4.67-.32,6.56.32a7.16,7.16,0,0,1,1.32.59,5.87,5.87,0,0,1,.59.37l.28.2.2.17a4.74,4.74,0,0,1,.39.36,6.5,6.5,0,0,1,.51.57A9.61,9.61,0,0,1,42.2,20.34Z"/><path class="cls-3" d="M59.51,22.05a10.72,10.72,0,0,0,3.1,1.35l.8.2.56.13.76.18.88.18c.6.13,1.21.24,1.85.34a33.09,33.09,0,0,0,8.24.4A16.55,16.55,0,0,0,84,21.88a11.56,11.56,0,0,0,1.65-1.47A14,14,0,0,0,87,18.79c.85-1.11,1.62-2.2,2.47-3.12a6.94,6.94,0,0,1,2.83-2,3.47,3.47,0,0,1,2.82.1,3.72,3.72,0,0,1,1.59,1.8,6.43,6.43,0,0,1,.51,1.87,5.8,5.8,0,0,1,0,1.68,3.34,3.34,0,0,1-.07.44,8.54,8.54,0,0,1-.35,1.22,12.52,12.52,0,0,1-2.48,3.93A18.77,18.77,0,0,1,92,27a19.78,19.78,0,0,1-3,1.94,16.58,16.58,0,0,1-7.75,1.75c-2.79,0-5.53-1.13-8.23-2-1.35-.46-2.68-.92-4-1.34l-1.94-.59-1-.27-.47-.12-.4-.1c-.9-.23-1.65-.37-2-.45a8.8,8.8,0,0,0-3.4,0,21.88,21.88,0,0,0,3.23.87c.36.08,1.09.22,2,.44l.39.1.47.12.93.26,1.92.59c1.29.41,2.62.87,4,1.33s2.72.93,4.12,1.34a16.59,16.59,0,0,0,4.37.73,17.4,17.4,0,0,0,8.18-1.85,20.88,20.88,0,0,0,3.2-2A19.28,19.28,0,0,0,95,25.34a13.49,13.49,0,0,0,2.65-4.22A9.22,9.22,0,0,0,98,19.77c.07-.31.09-.48.09-.48s0-.17.06-.5a8.66,8.66,0,0,0,0-1.42,6.92,6.92,0,0,0-.59-2.15,4.61,4.61,0,0,0-2-2.22A4.38,4.38,0,0,0,92,12.84a7.87,7.87,0,0,0-3.19,2.21c-.91,1-1.7,2.1-2.53,3.18A13.23,13.23,0,0,1,85,19.78a11.17,11.17,0,0,1-1.54,1.37,15.51,15.51,0,0,1-7.81,2.77,31.9,31.9,0,0,1-8-.39c-.62-.1-1.22-.2-1.81-.33L64.92,23l-.74-.17-.55-.13-.79-.2A14.66,14.66,0,0,0,59.51,22.05Z"/><path class="cls-3" d="M63.51,28.63a8,8,0,0,0,2.15,2.64,6.59,6.59,0,0,0,.67.51c.14.1.3.22.48.33l.5.35a4.67,4.67,0,0,0,.6.38l1.26.74C72.68,35.51,77.15,37,81,39a21,21,0,0,1,5,3.66,13.35,13.35,0,0,1,3,4.27,5.9,5.9,0,0,1,.4,3.41A4,4,0,0,1,89,51.54a1.31,1.31,0,0,1-.17.27,2.62,2.62,0,0,1-.6.67,1.89,1.89,0,0,1-1.21.46,2.77,2.77,0,0,1-1.67-.64c-1.15-.86-1.88-2.55-2.71-4.39A23.42,23.42,0,0,0,79,42.49a31.64,31.64,0,0,0-10.82-7.35c-.84-.38-1.54-.66-1.89-.8A10.81,10.81,0,0,0,63,33.56a14.42,14.42,0,0,0,3,1.62c.34.14,1,.42,1.86.79A30.76,30.76,0,0,1,78.35,43.1a21.85,21.85,0,0,1,3.47,5.2c.83,1.78,1.57,3.64,3,4.71a3.67,3.67,0,0,0,2.24.84,3,3,0,0,0,1.77-.66,3.71,3.71,0,0,0,.78-.87,2.35,2.35,0,0,0,.22-.35,4.72,4.72,0,0,0,.53-1.43,6.83,6.83,0,0,0-.44-3.94c-1.23-3.06-4.43-6.32-8.44-8.39S73,34.66,69.61,32.78l-1.23-.71c-.2-.12-.39-.24-.57-.37l-.49-.33-.46-.32a7.19,7.19,0,0,1-.64-.49A28,28,0,0,0,63.51,28.63Z"/><path class="cls-3" d="M64.38,39a6,6,0,0,0,0,3.42c0,.19.15.46.27.8a5,5,0,0,0,.23.55,12.65,12.65,0,0,0,1,2,15.25,15.25,0,0,0,3.45,3.77A23.47,23.47,0,0,0,74,52.23c1.6.74,3.22,1.34,4.67,1.92s2.57,1.42,2.84,2.43a2.29,2.29,0,0,1-.6,2.28,2.37,2.37,0,0,1-.54.43,1.65,1.65,0,0,1-.21.12,2.4,2.4,0,0,1-.91.23,5.75,5.75,0,0,1-2.65-.55,21.6,21.6,0,0,1-3.67-2A24.27,24.27,0,0,1,69.19,54a27.16,27.16,0,0,1-5.46-8.36c-.36-.83-.58-1.54-.72-1.88a15.68,15.68,0,0,0-.61-1.62c-.2-.48-.42-.92-.69-1.46,0,.6,0,1.1,0,1.63a11.64,11.64,0,0,0,.4,1.74c.14.35.37,1.09.74,1.94a27.9,27.9,0,0,0,5.65,8.64,25.15,25.15,0,0,0,3.92,3.3,23.13,23.13,0,0,0,3.84,2,6.74,6.74,0,0,0,3.07.62,4.06,4.06,0,0,0,.91-.2l.31-.13a2,2,0,0,0,.29-.16,3.49,3.49,0,0,0,.73-.57,3.77,3.77,0,0,0,.77-1.25,3.12,3.12,0,0,0,0-1.92,3.75,3.75,0,0,0-1.29-1.83,8.25,8.25,0,0,0-2.07-1.18c-1.48-.59-3.07-1.19-4.64-1.91A22.72,22.72,0,0,1,70,48.78a14,14,0,0,1-3.24-3.54,11.93,11.93,0,0,1-1-1.84q-.12-.27-.21-.51c-.11-.31-.2-.57-.25-.74C64.92,40.87,64.68,40.15,64.38,39Z"/><path class="cls-3" d="M56,20.34a9.61,9.61,0,0,1,1.54-2.79A6.5,6.5,0,0,1,58,17a4.74,4.74,0,0,1,.39-.36l.2-.17.28-.2a5.87,5.87,0,0,1,.59-.37,7.16,7.16,0,0,1,1.32-.59c1.89-.64,4.19-.41,6.56-.32A15.33,15.33,0,0,0,71,14.75a8.52,8.52,0,0,0,3.42-1.56,6.19,6.19,0,0,0,2.2-3A8.57,8.57,0,0,0,77,6.71a16.73,16.73,0,0,1,0-3,4.11,4.11,0,0,1,.87-2.24A1.57,1.57,0,0,1,79.4,1a2.93,2.93,0,0,1,1.26.77,4.46,4.46,0,0,1,.65.78l.2.31.17.31a5.41,5.41,0,0,1,.38,1,9.77,9.77,0,0,1,.43,3.79,10.42,10.42,0,0,1-1.78,5.18,8.53,8.53,0,0,1-5.39,3.36,30.51,30.51,0,0,1-7,.32,25.85,25.85,0,0,0-3.54.16,14.13,14.13,0,0,0-3.24.74,9.68,9.68,0,0,0-1.92.94,4.92,4.92,0,0,0-2.14,2.68,20.15,20.15,0,0,1,2.62-1.92,9.81,9.81,0,0,1,1.75-.85,13.73,13.73,0,0,1,3-.69,23.88,23.88,0,0,1,3.41-.14,32.26,32.26,0,0,0,7.25-.35,9.4,9.4,0,0,0,5.94-3.73A11.29,11.29,0,0,0,83.4,8a10.82,10.82,0,0,0-.48-4.13,6.63,6.63,0,0,0-.43-1.1l-.21-.36s-.07-.13-.22-.36a5.84,5.84,0,0,0-.77-.92,3.75,3.75,0,0,0-1.67-1,2.51,2.51,0,0,0-2.5.8C75.79,2.4,75.88,4.7,76.07,6.77A8,8,0,0,1,75.8,9.9a5.43,5.43,0,0,1-1.89,2.57,7.69,7.69,0,0,1-3.06,1.39,14.75,14.75,0,0,1-3.46.2c-2.32-.08-4.71-.35-6.87.36a9.6,9.6,0,0,0-1.49.66c-.23.15-.46.27-.66.43l-.31.22-.23.2a3.6,3.6,0,0,0-.45.41,8.68,8.68,0,0,0-.59.65A4.1,4.1,0,0,0,56,20.34Z"/><path class="cls-31" d="M82.21,46.84"/><path class="cls-31" d="M80.18,47.48"/><path class="cls-31" d="M80.17,47.48"/></symbol><symbol id="Aquatic_body_2" data-name="Aquatic_body_2" viewBox="0 0 160.96 151.06"><path class="cls-9" d="M26.1,9.49C11.82,17.24,4.79,24.92,1.83,30.94a9.68,9.68,0,0,0-1.3,5.44,4.52,4.52,0,0,0,3.89,3.81c8.57,1,5.64-23.3,29.43-28.59"/><path class="cls-10" d="M136.24,10c9.69,5.29,25.38,17.28,24.17,28.92a4.49,4.49,0,0,1-3.74,4c-8.18,1.07.37-18.59-26.95-31.1"/><path class="cls-11" d="M96.83,26.08c-2.46,8.65-4.33,14.35-.1,14.7a7.72,7.72,0,0,0,6-2.08,37.92,37.92,0,0,0,4-5.27,27.69,27.69,0,0,1,21.18-11,10.12,10.12,0,0,1,5.79,1.22c1.69,1.08,2.8,3.27,2.11,5.15a5.21,5.21,0,0,1-4.09,2.91c-1.72.32-3.5.16-5.24.36-5.41.6-8.91,1.78-13,5.39s-10,11.31-15.42,11.47c0,0-10.13,2.28-11.94-2.85s-1.91-20.6-1.91-20.6L98.55,1.31A57.65,57.65,0,0,1,96.83,26.08Z"/><path class="cls-12" d="M81.26,42c-3.21,13.17,3.29,16.26,7.39,17.09,6.75,1.37,14.44-1.88,21.37-1.72A15.11,15.11,0,0,1,123.26,66c1.18,2.64,2,6.07,4.85,6.85a5.07,5.07,0,0,0,5.25-2.26,8.43,8.43,0,0,0,1.09-5.71c-.73-6.41-5.73-11.79-11.81-14.4s-13.07-2.76-19.72-1.78c-2.33.34-10.76,2.7-13.12-4.87S95.42,22,95.42,22L85.79,10Z"/><path class="cls-13" d="M49.4,81.52c-.43,16.77,13.22,27,15.95,32.05s6.51,13.3-6.39,21.9c-3.55,2.37-6.86,8-4.83,12a6.06,6.06,0,0,0,5.55,3.15c5.91.08,10.61-5.64,14.51-11.51,8.42-12.69,3.89-28.79-3.46-35.33-4.39-3.91-14.12-8.73-12.56-21.75,0,0-1-11.55,4.32-20.54,9.26-15.68,3.24-23.42,3.24-23.42S50,58.13,49.4,81.52Z"/><path class="cls-14" d="M67.22,30.68c.78,1.24-.36,3-1.81,3.23a4.07,4.07,0,0,1-3.7-1.9,19.45,19.45,0,0,1-1.86-4A20.51,20.51,0,0,0,38.28,16.2c-1.59.27-3.4,1-3.82,2.52A3.23,3.23,0,0,0,35.87,22a9.18,9.18,0,0,0,3.54,1.35c5.16,1.19,10.82,2.6,13.85,6.94,1.91,2.74,1.83,7.37,3.82,10.06,2.36,3.2,5.56,3.87,8.08,2"/><path class="cls-15" d="M57.25,54.86c-3.71,1.34-6.49-.64-8.2-2.22S46.12,49,44.53,47.33A16.9,16.9,0,0,0,25.68,43.6a44.12,44.12,0,0,1-4.82,2.28,5.33,5.33,0,0,1-5.07-.66c-2.37-2-1.16-6,.89-8.41a19.64,19.64,0,0,1,17-6.28,25.19,25.19,0,0,1,16,9.06c1.42,1.69,3.18,3.06,4.51,4.83,1.56,2.1,5.25,2.54,9.24-1.86Z"/><path class="cls-16" d="M60.47,50.12c-1,8.46-10.13,14.37-18.32,7.52-6-5-15.06-5.4-22.51-3A26.94,26.94,0,0,0,3,70.11a13.18,13.18,0,0,0-1,7.23,6.62,6.62,0,0,0,4.59,5.29c3,.72,6-1.38,7.83-3.89s2.88-5.52,4.8-7.94a14.32,14.32,0,0,1,15.33-4.54c2.65.88,5,2.54,7.54,3.62S51,74.61,56.22,66.45"/><path class="cls-17" d="M77.08,51.81C68.44,61,72.63,66.69,76,70.66c4.91,5.78,10,11.49,13.94,18s6.88,13.84,7,21.53-2.72,15.71-8.62,20.71-15,6.27-21.28,2.07c-2.71-1.8-4.91-5.37-3.36-8.31,1.12-2.11,3.72-3,6.07-3.08s4.74.31,7-.17c5.89-1.22,9.4-8.09,8.74-14.07s-4.08-11.43-8.5-15.4C64.45,80.55,60.3,72.58,62.29,61.28"/><path class="cls-18" d="M73.62,50.58c-5.93,11.23,2.84,22,11,25.92,4.23,2,9.06,2.65,13.31,4.62s8.11,6.1,7.25,10.54c-.65,3.39-3.74,5.74-5.85,8.53s-2.91,7.39.18,9.16c1.94,1.11,4.44.47,6.44-.5a20.45,20.45,0,0,0,11.24-15.29A20,20,0,0,0,110.33,76c-3.81-3.27-8.69-5.09-13.37-7.07s-24-4.88-7.15-33.83a124.24,124.24,0,0,0,7-18.4c2.77-8.9-15,.2-15,.2Z"/><path class="cls-19" d="M53.61,62.89C48,84.45,33.21,83.19,27.37,84.79s-11.82,3.61-16.2,7.79a20.45,20.45,0,0,0,3.08,32c2.4,1.54,5.71,2.51,8,.78s2.18-5.55,1-8.3-3.18-5.23-3.64-8.21c-.73-4.71,2.64-9.22,6.74-11.65s8.9-3.33,13.42-4.83,13.9-2.74,17.5-17.51Z"/></symbol><symbol id="Aquatic_Male_1" data-name="Aquatic_Male_1" viewBox="0 0 200.6 301.94"><path class="cls-1" d="M86.59,97.53C91,96.37,94.5,92.68,93,80l7.23-11.83L107.55,80c-.37,8.94.72,17.27,5.1,16.65l13,7.48-24.33,26.1-26.45-25Z"/><path class="cls-2" d="M83.79,299.82C69,284.31,61.37,264.22,66.16,251.69s14.28-23.23,24.12-33.25,18.63-15.58,26-27.12c12.84-20.19,17.5-40,12.91-65.37l.19.1c3.46,8.71,8.62,21,10.75,25.9a5,5,0,0,0,4.34,3c14.88.66,28.29,1.64,41.2,5,0,0,15.21,5.05,15,3.56-.52-3.09-3.91-5.13-3.91-5.13-12.87-11.38-34.42-15-44.4-18.12l-.21-.06c-3.15-10-8.1-21.43-12.31-32.26a15.65,15.65,0,0,0-18.24-9.58c-1.36.33-2.45.57-3,.66,0,0,2.1,10.59-18.32,10.59C77.47,109.58,82.52,99,82.52,99c-.58-.09-1.67-.33-3-.66a15.64,15.64,0,0,0-18.24,9.58c-4.21,10.83-9.17,22.22-12.31,32.26l-.36.1c-9.24,2.84-27.38,5.51-46.71,19.43,0,0-2.14,1.39-1.85,2.3.22.71,16.84-4.11,16.84-4.11,16.85-4,24.84-2.32,39.72-3a5,5,0,0,0,4.34-3c1.84-4.26,6.12-14.4,9.29-22.23l.35-.53c-2,14.74,2.48,21.4,6.37,36.19,3.51,13.34,2.77,24-2.34,33.45C66.23,214.27,56.18,228.36,56,245s6,33.2,17.41,46.48Z"/><path class="cls-3" d="M93,80a38.12,38.12,0,0,0-.45,5.86c0,.4,0,1.06-.15,2.4,0,.2-.06.54-.1.82a4,4,0,0,1-.07.51s-.15.77-.26,1.19a9.48,9.48,0,0,1-1.31,3.07A10.3,10.3,0,0,1,88.83,96a12.9,12.9,0,0,1-2.24,1.58,7.06,7.06,0,0,0,2.87-.6A6,6,0,0,0,92,94.74a10.92,10.92,0,0,0,1.54-3.56c.13-.47.27-1.31.27-1.31a3.6,3.6,0,0,0,.1-.56c0-.3.08-.66.1-.88a24.78,24.78,0,0,0,.15-2.55A15.1,15.1,0,0,0,93,80Z"/><path class="cls-3" d="M107.55,80a16.72,16.72,0,0,0-.8,5.92c0,.42,0,1.1.19,2.52,0,.19.07.63.07.63s0,.37.07.57a19.81,19.81,0,0,0,.82,3.68,6,6,0,0,0,1.82,2.84,2.85,2.85,0,0,0,2.93.5,2.74,2.74,0,0,1-2.1-1.32,10.34,10.34,0,0,1-1.14-2.52,19.44,19.44,0,0,1-.75-3.4c0-.2-.07-.55-.07-.55s0-.42-.06-.59c-.14-1.37-.17-2-.19-2.44A31.21,31.21,0,0,0,107.55,80Z"/><path class="cls-3" d="M52.06,139a49.33,49.33,0,0,0-5.77,1.12l-2.39.64c-2.75.71-7.43,1.89-11.35,3.11-2,.63-3.75,1.19-5,1.67l-2.09.75-1.74.68c-1.09.42-2.59,1-4.25,1.78s-3.47,1.63-5.23,2.49-3.38,1.83-4.76,2.61l-3.12,1.92a19.44,19.44,0,0,0-4.45,3.95,24.56,24.56,0,0,0,5.31-2.61l3.07-1.88c1.35-.76,3-1.67,4.69-2.56s3.49-1.76,5.14-2.46,3.11-1.34,4.18-1.75l1.72-.68,2.06-.74c1.26-.47,3-1,5-1.64,3.88-1.21,8.52-2.38,11.28-3.09l2.42-.65A14,14,0,0,0,52.06,139Z"/><path class="cls-3" d="M73.58,121.12a23.05,23.05,0,0,0-2.83,5.2l-1.94,4.84c-1.49,3.67-3.29,8-5,12.11-.88,2.06-1.73,4.07-2.53,5.93l-1.13,2.62a4.12,4.12,0,0,1-1.4,1.59,4.32,4.32,0,0,1-1.67.65c-.49.07-1.1.07-1.54.09l-1.4.06-5.18.16c-3.15.08-7.43.16-11.93.41a125.22,125.22,0,0,0-13.09,1.39c-1.6.26-2.91.5-3.57.63a18.9,18.9,0,0,0-5.59,2,24.94,24.94,0,0,0,5.89-.45l3.53-.61a124.1,124.1,0,0,1,12.92-1.37c4.45-.25,8.72-.33,11.88-.42l5.2-.16,1.41-.06a16.2,16.2,0,0,0,1.73-.11,5.72,5.72,0,0,0,4.24-3.1c.41-.91.76-1.75,1.17-2.7l2.54-5.93c1.75-4.13,3.55-8.45,5-12.13l1.94-4.87A20,20,0,0,0,73.58,121.12Z"/><g id="Aquatic_Male_Head_1-2" data-name="Aquatic_Male_Head_1"><path class="cls-4" d="M101.71.79C80.8-.1,64.52,15.67,64,36.6c-.06,2.16.31,11.83.62,19.17a15.93,15.93,0,0,0,7.83,13.07l23.3,13.74a12.31,12.31,0,0,0,10.08.31l24.39-14a16,16,0,0,0,8-13.22l.67-18c0-20.08-17.09-36-37.16-36.81Z"/></g><path class="cls-5" d="M73.79,40.7,75,39.84c.37-.26.76-.47,1.12-.72.74-.47,1.51-.94,2.52-1.48a5.58,5.58,0,0,1,.75-.35L80,37l.83-.28a7.58,7.58,0,0,1,1.06-.28l.68-.16.61-.08a10.07,10.07,0,0,1,1-.12,19.49,19.49,0,0,1,3.48,0c2.34.28,3.68.36,5.78.58a11.34,11.34,0,0,0-5.62-2.16A20,20,0,0,0,84,34.51c-.32,0-.77.08-1.14.13l-.66.1-.76.17a7.56,7.56,0,0,0-1.18.32l-.92.31-.67.29c-.38.18-.65.28-.84.4a8.63,8.63,0,0,0-2.55,2,10.12,10.12,0,0,0-.84,1.14C74.25,39.8,74,40.24,73.79,40.7Z"/><path class="cls-5" d="M106,37.13a16.41,16.41,0,0,1,2.77-.22c.88,0,1.8,0,3-.06a8.23,8.23,0,0,1,.84,0c.38,0,.89,0,1.56.09a12.7,12.7,0,0,1,1.3.15l.83.12.7.15a12,12,0,0,1,1.21.29,18.07,18.07,0,0,1,3.27,1.17c.54.23,1,.51,1.42.7s.8.45,1.2.64l1.12.68c.38.25.74.54,1.17.86a7.88,7.88,0,0,0-4.22-4.31,19.85,19.85,0,0,0-3.55-1.29c-.36-.11-.87-.22-1.29-.31l-.75-.15-.88-.13a12.12,12.12,0,0,0-1.39-.16c-.72-.08-1.25-.09-1.66-.1a9,9,0,0,0-.91,0,10.57,10.57,0,0,0-3.16.5A8.28,8.28,0,0,0,106,37.13Z"/><path class="cls-6" d="M100.86,59.12c9.21.16,12.56-8.69,12.56-8.69S105.66,52.55,100,52.3a48.64,48.64,0,0,1-12.82-2.23A14.85,14.85,0,0,0,100.86,59.12Z"/><path class="cls-5" d="M100.86,59.12c.51.1,1,.2,1.47.27a8.31,8.31,0,0,0,4.57-.78,7.23,7.23,0,0,0,.82-.44,10.88,10.88,0,0,0,1.43-.94A15.71,15.71,0,0,0,112.3,54c.24-.31.45-.65.66-1a4.71,4.71,0,0,0,.29-.48l.2-.34.23-.46.42-.87c.11-.27.22-.53.32-.79l.3-.74,0-.09-.09,0-.21.06-.41.1-1.43.38-1.21.29-1.33.3c-.88.18-1.72.34-2.53.48-1.61.27-3.05.45-4.26.54s-2.18.11-2.84.09-1,0-1,0-1.47,0-3.88-.38c-1.21-.16-2.64-.4-4.23-.74l-1.21-.29-.63-.16-.36-.1-.65-.19c-.45-.13-.89-.26-1.37-.43l-.71-.25L86,48.81s-.15-.06-.16,0l.06.14a25.05,25.05,0,0,0,1,2.33,12.92,12.92,0,0,0,1.19,2,16.9,16.9,0,0,0,1.16,1.46c.39.46.83.84,1.2,1.22l1.07.89,1.11.76c.35.21.66.37.94.52a11.26,11.26,0,0,0,1.28.6,7.75,7.75,0,0,0,1.68.51A6.46,6.46,0,0,0,98,59.4a11.54,11.54,0,0,0,2.87-.28c-1-.34-1.83-.54-2.66-.87a12.56,12.56,0,0,1-1.29-.46c-.45-.17-1-.31-1.47-.56a11.19,11.19,0,0,1-1.14-.54c-.25-.14-.53-.28-.84-.47l-1-.68-1-.8c-.33-.34-.73-.67-1.08-1.1a15.43,15.43,0,0,1-1.05-1.31c-.15-.24-.31-.47-.46-.7l-.11-.18,0-.09h0l.29.08.65.16,1.26.3c1.63.36,3.11.6,4.35.76,2.49.33,4,.39,4,.39s.38,0,1.09,0a27.94,27.94,0,0,0,3-.08c1.26-.11,2.76-.29,4.41-.57.82-.14,1.69-.3,2.59-.49l1.36-.3.18,0h0s0,0,0,0h0l-.07.12c-.09.14-.17.3-.27.44s-.38.59-.6.88a14.43,14.43,0,0,1-2.81,2.9,9.3,9.3,0,0,1-1.27.84c-.32.17-.53.32-.71.39-1,.48-1.87.82-2.69,1.11-.42.12-.82.31-1.25.43Z"/><path class="cls-3" d="M82.52,99c-1-.47-1.75-.84-2.59-1.16a10.83,10.83,0,0,0-3.13-.7c-.22,0-.51,0-.92,0a11.16,11.16,0,0,0-1.7.08,16.39,16.39,0,0,0-11.82,7c-.17.25-.35.5-.51.75l-.44.78a16.13,16.13,0,0,0-.73,1.52c-.42,1-.72,1.82-1,2.55l-.93,2.34s-1.21,3-2.76,6.86-3.42,8.54-4.67,11.93c-.66,1.76-1,2.86-1.24,3.43A19.08,19.08,0,0,0,49,140.17a24.7,24.7,0,0,0,2.62-5.3c.2-.57.6-1.65,1.24-3.4,1.25-3.36,3.11-8,4.66-11.89l2.75-6.87.93-2.35c.29-.71.62-1.61,1-2.51a10.82,10.82,0,0,1,.66-1.38l.39-.7.46-.68a14.8,14.8,0,0,1,10.68-6.31,9.88,9.88,0,0,1,1.52-.07c.38,0,.64,0,.83,0l3,.24A26.77,26.77,0,0,0,82.52,99Z"/><path class="cls-3" d="M149,139a14.21,14.21,0,0,0,5.33,2.67c.4.13,1,.29,2.41.67,2.56.69,6.86,1.79,10.49,2.82s6.57,2,6.57,2l1.62.56c1,.34,2.4.87,3.94,1.48.78.28,1.58.63,2.39,1s1.65.71,2.44,1.1c1.59.8,3.15,1.54,4.37,2.3.79.46,1.45.82,1.95,1.14l1.09.73a37.32,37.32,0,0,0,5.12,2.88,15.14,15.14,0,0,0-4.24-4.2l-1.12-.77c-.52-.32-1.19-.69-2-1.17-1.26-.78-2.85-1.54-4.48-2.36-.81-.4-1.67-.74-2.49-1.11s-1.65-.73-2.44-1c-1.57-.62-3-1.15-4-1.49l-1.64-.57s-3-1-6.64-2-8-2.16-10.52-2.84l-2.39-.65A43.92,43.92,0,0,0,149,139Z"/><path class="cls-3" d="M127.44,121.12a20,20,0,0,0,1.36,5.78c.35.9,1.07,2.7,1.94,4.88,1.51,3.72,3.32,8.07,5.09,12.23.88,2.08,1.75,4.11,2.55,6l.59,1.38c.21.45.36.85.62,1.36a5.67,5.67,0,0,0,2.06,2.14,5.87,5.87,0,0,0,2.35.8c.74.06,1.22.07,1.69.1l1.42.06s2,.11,5.21.33,7.44.59,11.9,1.13,9.15,1.26,13,2c1.58.31,2.87.58,3.51.72a25.33,25.33,0,0,0,5.88.58,18.82,18.82,0,0,0-5.54-2.14c-.65-.14-2-.42-3.55-.73-3.86-.76-8.61-1.49-13.08-2s-8.81-.91-12-1.14-5.23-.32-5.23-.32l-1.43-.08c-.43,0-1.07,0-1.59-.08a4.32,4.32,0,0,1-1.71-.59A4,4,0,0,1,141,152c-.16-.3-.36-.79-.55-1.23l-.59-1.37c-.8-1.87-1.66-3.9-2.55-6-1.76-4.16-3.57-8.51-5.07-12.21-.88-2.18-1.59-4-1.95-4.86A23.07,23.07,0,0,0,127.44,121.12Z"/><path class="cls-3" d="M118.5,99a27,27,0,0,0,2.86,0l3-.24c.2,0,.46,0,.83,0a10,10,0,0,1,1.53.07,14.75,14.75,0,0,1,10.67,6.31c.16.23.31.46.47.68l.39.7a14.42,14.42,0,0,1,.66,1.38c.39.9.71,1.8,1,2.51l.94,2.35,2.75,6.87c1.55,3.84,3.41,8.53,4.65,11.89l1.25,3.4a24.25,24.25,0,0,0,2.62,5.3,19.39,19.39,0,0,0-1.12-5.83c-.21-.58-.59-1.67-1.25-3.43-1.25-3.39-3.12-8.08-4.67-11.93l-2.75-6.86-.93-2.34c-.3-.73-.6-1.57-1-2.55a12.35,12.35,0,0,0-.73-1.52l-.43-.78-.51-.75A16.45,16.45,0,0,0,133,99.11a16.25,16.25,0,0,0-6.19-1.92,11,11,0,0,0-1.69-.08c-.42,0-.71,0-.92,0a10.9,10.9,0,0,0-3.14.7C120.25,98.15,119.46,98.52,118.5,99Z"/><path class="cls-7" d="M73.35,120.89"/><path class="cls-7" d="M153.41,71.84"/><path class="cls-3" d="M70.57,129.19a26.14,26.14,0,0,0-.9,2.72A16.48,16.48,0,0,0,69.3,135c0,.32,0,.81,0,1.41,0,.3,0,.62,0,1,0,.61.06,1.24.09,1.87s.12,1.3.18,1.95.19,1.31.29,2a62.43,62.43,0,0,0,1.94,7.94c1.62,5.31,3.51,10.73,4.86,16.46A52.24,52.24,0,0,1,78,185.41a36.4,36.4,0,0,1-2.19,8.85,38.65,38.65,0,0,1-1.93,4.19l-2.28,4.11c-3.08,5.49-6.32,10.93-9.14,16.56a70.25,70.25,0,0,0-6.4,17.53,47.28,47.28,0,0,0-.93,9,66.21,66.21,0,0,0,11.77,37.72,70.15,70.15,0,0,0,15.4,15.78c2.91,1.87,2.54,1,2.54,1-.41-.45-3.31-4-3.8-4.66l-1.8-2.19c-1.07-1.43-1.89-2.5-2.48-3.33l-1.22-1.81L75,287.4a4.31,4.31,0,0,1-.29-.45c-.19-.3-.46-.76-.82-1.35-.75-1.18-1.74-3-2.93-5.28a62.32,62.32,0,0,1-3.52-8.74,39.83,39.83,0,0,1-1.9-12.07c0-.56.07-1.12.11-1.69a12.27,12.27,0,0,1,.2-1.71c.11-.57.21-1.15.32-1.73s.34-1.13.52-1.71a48.51,48.51,0,0,1,3.08-7,83.86,83.86,0,0,1,9.39-13.86c3.7-4.55,7.92-9,12.34-13.49s9.35-8.61,14.12-13.15a82.29,82.29,0,0,0,6.81-7.26,64,64,0,0,0,5.72-8.2,97.65,97.65,0,0,0,8.7-17.83,81.93,81.93,0,0,0,4.36-18.8c.17-1.56.24-3.12.37-4.67s.07-3.08.1-4.6-.06-3-.13-4.53-.19-2.71-.29-4c-.19-1.62-.35-3-.42-3.61a19,19,0,0,0-1.68-5.71,25.1,25.1,0,0,0,.1,5.91c.07.66.22,2,.4,3.56.1,1.31.2,2.64.29,4s.09,2.95.13,4.44-.07,3-.1,4.52-.2,3-.37,4.58a80,80,0,0,1-4.27,18.43,95.62,95.62,0,0,1-8.55,17.53A68,68,0,0,1,104.51,204c-4.7,4.48-9.68,8.66-14.14,13.18s-8.69,9-12.45,13.61A85.07,85.07,0,0,0,68.36,245a51.11,51.11,0,0,0-3.18,7.21c-.19.62-.39,1.23-.56,1.84s-.23,1.25-.34,1.86a11.44,11.44,0,0,0-.22,1.82l-.12,1.8a42.17,42.17,0,0,0,2,12.57,62.51,62.51,0,0,0,3.63,9c1.21,2.38,2.23,4.2,3,5.4l.83,1.39c.19.31.3.46.3.46l.57.84L75.48,291c.6.84,1.44,1.94,2.53,3.4l1.84,2.23c.49.63,1.14,1.33,1.88,2.14.37.4,4.65,3.22,4.65,3.22.47,0-3-3.47-3.24-3.68a71,71,0,0,1-14.91-15.75,65.14,65.14,0,0,1-10.92-28.25A52.27,52.27,0,0,1,57.65,237a68.51,68.51,0,0,1,6.27-17.12c2.77-5.56,6-11,9.09-16.49l2.3-4.14a39.19,39.19,0,0,0,2-4.37,37.76,37.76,0,0,0,2.3-9.25,54,54,0,0,0-1.4-18.36c-1.38-5.83-3.29-11.3-4.89-16.55a62.2,62.2,0,0,1-1.89-7.74c-.09-.64-.19-1.27-.28-1.9L71,139.16c0-.61,0-1.21-.08-1.79,0-.34,0-.66,0-1,0-.57,0-1,0-1.35,0-1.2,0-2.15,0-3.06S70.71,130.24,70.57,129.19Z"/><path class="cls-8" d="M82.08,107.09a6.55,6.55,0,0,1-3.92-5.77c0-5.81,5.85-4.6,5.85-4.6-.81,3.75.76,5.77,5,7.17,8.72,2.88,19,.9,21.91,0,4.27-1.32,7.94-4.33,5.28-7.29,0,0,7.06-2,7.06,4.72a7,7,0,0,1-3.92,5.77C116.87,108.45,95.76,113.1,82.08,107.09Z"/></symbol></defs><g id="SEA_1"><use width="98.17" height="60.56" transform="translate(97.85 54.53)" xlink:href="#Aquatic_hair_1"/><use width="160.96" height="151.06" transform="translate(66.71 145.33)" xlink:href="#Aquatic_body_2"/><use width="200.6" height="301.95" transform="translate(83.6 57.84) scale(0.64)" xlink:href="#Aquatic_Male_1"/></g></svg>