<svg xmlns="http://www.w3.org/2000/svg" xmlns:xlink="http://www.w3.org/1999/xlink" viewBox="0 0 300 300"><defs><style>.cls-1{fill:url(#radial-gradient);}.cls-2{fill:url(#radial-gradient-2);}.cls-3{fill:#e0e0e0;}.cls-4,.cls-8{stroke:#dbdbdb;}.cls-4,.cls-7,.cls-8{stroke-miterlimit:10;}.cls-4{stroke-width:1.5px;fill:url(#radial-gradient-3);}.cls-5{fill:#202020;}.cls-6{fill:#fff;}.cls-7{fill:none;stroke:#000;stroke-width:1.2px;}.cls-8{fill:#29abe2;stroke-width:1.24px;}.cls-9{fill:url(#New_Gradient_Swatch_13);}.cls-10{fill:url(#New_Gradient_Swatch_13-2);}.cls-11{fill:url(#New_Gradient_Swatch_13-3);}</style><radialGradient id="radial-gradient" cx="99.93" cy="96.17" fx="116.63529227220099" fy="107.40443202046933" r="30.48" gradientTransform="translate(0 -6.06)" gradientUnits="userSpaceOnUse"><stop offset="0.15" stop-color="#3d8eff"/><stop offset="0.19" stop-color="#459aff"/><stop offset="0.27" stop-color="#59b9ff"/><stop offset="0.36" stop-color="#7bebff"/><stop offset="0.38" stop-color="#81f4ff"/></radialGradient><radialGradient id="radial-gradient-2" cx="104.14" cy="198.06" fx="209.5615571070008" fy="269.51216326197545" r="131.86" gradientTransform="translate(0 -6.06)" gradientUnits="userSpaceOnUse"><stop offset="0.06" stop-color="#3d8eff"/><stop offset="0.16" stop-color="#459aff"/><stop offset="0.33" stop-color="#59b9ff"/><stop offset="0.56" stop-color="#7bebff"/><stop offset="0.6" stop-color="#81f4ff"/></radialGradient><radialGradient id="radial-gradient-3" cx="101.28" cy="41.79" fx="107.81802673187346" r="42.49" gradientTransform="translate(0 -6.06)" gradientUnits="userSpaceOnUse"><stop offset="0.75" stop-color="#81f4ff"/><stop offset="1" stop-color="#3d8eff"/></radialGradient><radialGradient id="New_Gradient_Swatch_13" cx="169.2" cy="37.67" fx="249.0698941334029" fy="89.15849732885783" r="107.56" gradientTransform="translate(-85.49 15.07) scale(1.05 0.98)" gradientUnits="userSpaceOnUse"><stop offset="0.52" stop-color="#fff"/><stop offset="0.59" stop-color="#f7feff"/><stop offset="0.69" stop-color="#e3fdff"/><stop offset="0.81" stop-color="#c1faff"/><stop offset="0.95" stop-color="#92f5ff"/><stop offset="1" stop-color="#81f4ff"/></radialGradient><radialGradient id="New_Gradient_Swatch_13-2" cx="27.39" cy="25.47" fx="44.54544013702281" fy="36.52876713870515" r="23.11" gradientTransform="translate(0 -14.73)" xlink:href="#New_Gradient_Swatch_13"/><radialGradient id="New_Gradient_Swatch_13-3" cx="155.33" cy="27.07" fx="172.3753368918281" fy="38.06126599852285" r="22.96" gradientTransform="translate(0 -14.73)" xlink:href="#New_Gradient_Swatch_13"/><symbol id="Aquatic_body_1" data-name="Aquatic_body_1" viewBox="0 0 184.56 135.5"><path class="cls-3" d="M22.82,93.91a8.72,8.72,0,0,0-1.89,1.39,5.78,5.78,0,0,0-1.21,1.94,8.15,8.15,0,0,0,.07,5.32c.12.34.28.79.56,1.42.15.3.33.67.54,1s.46.82.75,1.32a32.4,32.4,0,0,1,2.2,4.23,7,7,0,0,1,.46,1.84,4.45,4.45,0,0,1,0,.73.55.55,0,0,1,0,.17c0,.1,0,.25-.05.44a5.57,5.57,0,0,1-.53,1.45c-.31.6-.76,1.3-1.21,2.05a9.33,9.33,0,0,0-1.05,2.41,5.84,5.84,0,0,0,0,2.53A8.19,8.19,0,0,0,22,124c.41,1,.76,1.57,1,2a15.09,15.09,0,0,1,1,2.28,5.27,5.27,0,0,1,.19,2.07,3.48,3.48,0,0,1-2.69,3.08A4.71,4.71,0,0,0,25,130.53,5.85,5.85,0,0,0,25.4,128a10.58,10.58,0,0,0-.7-2.79c-.17-.47-.45-1.14-.71-2a4.88,4.88,0,0,1-.2-2.95,7.51,7.51,0,0,1,.89-1.73c.41-.66.92-1.39,1.33-2.15a7.87,7.87,0,0,0,.79-2.18q.06-.47.09-.72a1.18,1.18,0,0,0,0-.25V113a4.45,4.45,0,0,0,0-.83,9,9,0,0,0-.67-2.48,25.87,25.87,0,0,0-2.64-4.5l-.84-1.21c-.25-.35-.41-.63-.58-.89-.3-.51-.48-.87-.62-1.15a8.79,8.79,0,0,1-1-4.46,4.59,4.59,0,0,1,.65-2A5,5,0,0,1,22.82,93.91Z"/><path class="cls-3" d="M38.68,91.25a9.23,9.23,0,0,0-4.37,1.3,7.48,7.48,0,0,0-1.85,1.62,6.25,6.25,0,0,0-1.29,2.7A7.46,7.46,0,0,0,31,98.46a10.35,10.35,0,0,0,.47,2.82,21.19,21.19,0,0,0,1.3,3.24c.57,1.18,1.22,2.36,1.72,3.45a15.55,15.55,0,0,1,1,2.79,7.4,7.4,0,0,1,.21,1.15,5.86,5.86,0,0,1-.52,3.23c-.38.93-1,2-1.45,3.2a7.78,7.78,0,0,0-.66,3.78,7.6,7.6,0,0,0,.66,2.29,16.07,16.07,0,0,0,.84,1.55c.53.85.93,1.43,1.19,1.83A13.31,13.31,0,0,1,37,130a5.81,5.81,0,0,1,.42,2.09,3.58,3.58,0,0,1-2.28,3.42,4.69,4.69,0,0,0,3-3.34,6.21,6.21,0,0,0,.07-2.48,10,10,0,0,0-.95-2.7l-1-1.94a8.44,8.44,0,0,1-1-3.1A5.9,5.9,0,0,1,36,119.3c.45-1,1.08-2.06,1.56-3.18a8.88,8.88,0,0,0,.78-3.14,7.55,7.55,0,0,0,0-1.34,8.71,8.71,0,0,0-.28-1.51,15.6,15.6,0,0,0-1.27-3.25c-.58-1.18-1.3-2.36-1.9-3.44a22.47,22.47,0,0,1-1.39-2.83,9.48,9.48,0,0,1-.62-2.27,5.91,5.91,0,0,1,0-1.23,6.61,6.61,0,0,1,1.92-4A6.12,6.12,0,0,1,38.68,91.25Z"/><path class="cls-3" d="M48.07,94.37c-2.92,1.51-3.91,5-2,8.83.31.64.9,1.64,2.07,3.52a12.29,12.29,0,0,1,1.61,3.57,4.42,4.42,0,0,1,.06,1.51,5.4,5.4,0,0,1-.12.65s-.06.21-.17.56-.33.85-.61,1.43a28.12,28.12,0,0,0-1.74,4,7.39,7.39,0,0,0-.33,2.42,5.71,5.71,0,0,0,.46,2,11.84,11.84,0,0,0,1.17,2c.58.83,1.09,1.49,1.47,2.14a3.91,3.91,0,0,1,.59,1.92,3.17,3.17,0,0,1-.6,1.92A3,3,0,0,1,48,131.92,3.9,3.9,0,0,0,51.28,129a4.57,4.57,0,0,0-.1-2.58,16.81,16.81,0,0,0-1.13-2.56,10.7,10.7,0,0,1-.79-1.82,4.21,4.21,0,0,1-.19-1.26,5.63,5.63,0,0,1,.36-1.62c.33-1,1.11-2.31,1.74-3.58a14.9,14.9,0,0,0,.73-1.7c.15-.48.23-.77.23-.77a7.78,7.78,0,0,0,.18-1,6.68,6.68,0,0,0-.14-2.38A12.58,12.58,0,0,0,50,105.46c-.68-.95-1.19-1.6-1.57-2.1s-.62-.85-.79-1.1A8.46,8.46,0,0,1,46.06,98,3.85,3.85,0,0,1,48.07,94.37Z"/><path class="cls-3" d="M60.49,93.91a8.9,8.9,0,0,0-1.88,1.39,5.78,5.78,0,0,0-1.21,1.94,8.15,8.15,0,0,0,.07,5.32A12.39,12.39,0,0,0,58,104c.15.3.33.67.54,1l.74,1.32a31.22,31.22,0,0,1,2.2,4.23,7.07,7.07,0,0,1,.47,1.84,4.45,4.45,0,0,1,0,.73.55.55,0,0,1,0,.17c0,.1,0,.25-.06.44a4.92,4.92,0,0,1-.53,1.45c-.31.6-.76,1.3-1.2,2.05a9.33,9.33,0,0,0-1.05,2.41,6,6,0,0,0,0,2.53A9.47,9.47,0,0,0,59.7,124c.42,1,.77,1.57,1,2a14,14,0,0,1,1,2.28,5.1,5.1,0,0,1,.2,2.07,3.5,3.5,0,0,1-2.7,3.08,4.71,4.71,0,0,0,3.46-2.87,6,6,0,0,0,.39-2.51,10.6,10.6,0,0,0-.71-2.79c-.16-.47-.44-1.14-.71-2a5,5,0,0,1-.19-2.95,7.83,7.83,0,0,1,.88-1.73c.42-.66.92-1.39,1.33-2.15a7.61,7.61,0,0,0,.8-2.18q.06-.47.09-.72a1.18,1.18,0,0,0,0-.25V113a4.45,4.45,0,0,0,0-.83,9,9,0,0,0-.67-2.48,25.22,25.22,0,0,0-2.65-4.5l-.83-1.21c-.25-.35-.42-.63-.58-.89-.3-.51-.48-.87-.62-1.15a8.69,8.69,0,0,1-1-4.46,4.59,4.59,0,0,1,.65-2A4.94,4.94,0,0,1,60.49,93.91Z"/><path class="cls-3" d="M76.36,91.25A9.23,9.23,0,0,0,72,92.55a7.14,7.14,0,0,0-1.85,1.62,6.25,6.25,0,0,0-1.29,2.7,7.46,7.46,0,0,0-.15,1.59,10.35,10.35,0,0,0,.47,2.82,21.19,21.19,0,0,0,1.3,3.24c.56,1.18,1.22,2.36,1.71,3.45a15.71,15.71,0,0,1,1,2.79,7.4,7.4,0,0,1,.21,1.15,6.23,6.23,0,0,1,0,1,6.63,6.63,0,0,1-.55,2.28c-.38.93-1,2-1.46,3.2a7.89,7.89,0,0,0-.65,3.78,7.32,7.32,0,0,0,.66,2.29A14.14,14.14,0,0,0,72.3,126c.53.85.93,1.43,1.19,1.83a12.5,12.5,0,0,1,1.22,2.2,5.83,5.83,0,0,1,.43,2.09,3.58,3.58,0,0,1-2.28,3.42,4.69,4.69,0,0,0,3-3.34,6.21,6.21,0,0,0,.07-2.48,10,10,0,0,0-1-2.7c-.22-.44-.54-1.08-1-1.94a8.25,8.25,0,0,1-1-3.1,5.87,5.87,0,0,1,.66-2.64c.46-1,1.09-2.06,1.57-3.18A9.1,9.1,0,0,0,76,113a9,9,0,0,0-.05-1.34,10.09,10.09,0,0,0-.28-1.51,16.8,16.8,0,0,0-1.27-3.25c-.59-1.18-1.3-2.36-1.9-3.44a22.72,22.72,0,0,1-1.4-2.83,9.36,9.36,0,0,1-.61-2.27,5.91,5.91,0,0,1,0-1.23,6.61,6.61,0,0,1,1.92-4A6.12,6.12,0,0,1,76.36,91.25Z"/><path class="cls-3" d="M85.75,94.37c-2.93,1.51-3.91,5-2,8.83.31.64.9,1.64,2.07,3.52a12.56,12.56,0,0,1,1.61,3.57,4.42,4.42,0,0,1,.06,1.51c-.06.39-.12.65-.12.65l-.18.56a14.84,14.84,0,0,1-.6,1.43,28.12,28.12,0,0,0-1.74,4,7.41,7.41,0,0,0-.34,2.42,5.93,5.93,0,0,0,.47,2,11.21,11.21,0,0,0,1.17,2c.57.83,1.09,1.49,1.47,2.14a3.8,3.8,0,0,1,.58,1.92,3.09,3.09,0,0,1-.59,1.92,3,3,0,0,1-1.93,1.13A3.9,3.9,0,0,0,89,129a4.57,4.57,0,0,0-.1-2.58,15.94,15.94,0,0,0-1.14-2.56,12.59,12.59,0,0,1-.79-1.82,4.22,4.22,0,0,1-.18-1.26,5.93,5.93,0,0,1,.35-1.62c.34-1,1.12-2.31,1.75-3.58a14.9,14.9,0,0,0,.73-1.7c.14-.48.23-.77.23-.77a7.78,7.78,0,0,0,.18-1,6.68,6.68,0,0,0-.14-2.38,12.76,12.76,0,0,0-2.16-4.28c-.68-.95-1.2-1.6-1.57-2.1s-.62-.85-.79-1.1A8.57,8.57,0,0,1,83.73,98,3.88,3.88,0,0,1,85.75,94.37Z"/><path class="cls-3" d="M98.17,93.91a8.41,8.41,0,0,0-1.88,1.39,6,6,0,0,0-1.22,1.94,8.23,8.23,0,0,0,.08,5.32A14,14,0,0,0,95.7,104c.16.3.33.67.55,1l.74,1.32a31.22,31.22,0,0,1,2.2,4.23,7.07,7.07,0,0,1,.47,1.84,6.56,6.56,0,0,1,0,.73.55.55,0,0,1,0,.17c0,.1,0,.25-.06.44a5.57,5.57,0,0,1-.53,1.45c-.31.6-.76,1.3-1.2,2.05a9.33,9.33,0,0,0-1,2.41,5.85,5.85,0,0,0,0,2.53,9.47,9.47,0,0,0,.57,1.77c.42,1,.77,1.57,1,2a14.16,14.16,0,0,1,1,2.28,5.28,5.28,0,0,1,.2,2.07,3.5,3.5,0,0,1-2.7,3.08,4.71,4.71,0,0,0,3.46-2.87,5.85,5.85,0,0,0,.38-2.51,10.2,10.2,0,0,0-.7-2.79c-.16-.47-.44-1.14-.71-2a5,5,0,0,1-.19-2.95,7.83,7.83,0,0,1,.88-1.73c.42-.66.92-1.39,1.33-2.15a7.61,7.61,0,0,0,.8-2.18q.06-.47.09-.72a1.18,1.18,0,0,0,0-.25V113a4.45,4.45,0,0,0-.05-.83,9,9,0,0,0-.67-2.48,25.83,25.83,0,0,0-2.65-4.5l-.83-1.21c-.25-.35-.42-.63-.58-.89-.3-.51-.49-.87-.62-1.15a8.81,8.81,0,0,1-1-4.46,4.75,4.75,0,0,1,.66-2A4.94,4.94,0,0,1,98.17,93.91Z"/><path class="cls-3" d="M114,91.25a9.23,9.23,0,0,0-4.36,1.3,7.14,7.14,0,0,0-1.85,1.62,6.25,6.25,0,0,0-1.29,2.7,6.85,6.85,0,0,0-.15,1.59,10.67,10.67,0,0,0,.46,2.82,21.34,21.34,0,0,0,1.31,3.24c.56,1.18,1.21,2.36,1.71,3.45a15.71,15.71,0,0,1,1,2.79,7.4,7.4,0,0,1,.21,1.15,6.23,6.23,0,0,1,0,1,6.46,6.46,0,0,1-.56,2.28c-.37.93-1,2-1.45,3.2a7.78,7.78,0,0,0-.66,3.78,7.31,7.31,0,0,0,.67,2.29A14.14,14.14,0,0,0,110,126c.53.85.93,1.43,1.18,1.83a12.61,12.61,0,0,1,1.23,2.2,6.05,6.05,0,0,1,.43,2.09,3.57,3.57,0,0,1-2.29,3.42,4.68,4.68,0,0,0,3-3.34,6.22,6.22,0,0,0,.06-2.48,9.7,9.7,0,0,0-.95-2.7c-.21-.44-.53-1.08-1-1.94a8.25,8.25,0,0,1-1-3.1,5.87,5.87,0,0,1,.66-2.64c.46-1,1.09-2.06,1.56-3.18a8.11,8.11,0,0,0,.74-4.48,10.09,10.09,0,0,0-.28-1.51,16.8,16.8,0,0,0-1.27-3.25c-.59-1.18-1.3-2.36-1.91-3.44a23.94,23.94,0,0,1-1.39-2.83,9.36,9.36,0,0,1-.61-2.27,6.93,6.93,0,0,1,0-1.23,6.62,6.62,0,0,1,1.93-4A6.09,6.09,0,0,1,114,91.25Z"/><path class="cls-3" d="M123.43,94.37c-2.93,1.51-3.91,5-2.06,8.83.31.64.91,1.64,2.08,3.52a12.56,12.56,0,0,1,1.61,3.57,4.42,4.42,0,0,1,.06,1.51c-.06.39-.12.65-.12.65l-.18.56a13,13,0,0,1-.61,1.43,30.65,30.65,0,0,0-1.74,4,7.39,7.39,0,0,0-.33,2.42,6.21,6.21,0,0,0,.46,2,11.1,11.1,0,0,0,1.18,2c.57.83,1.08,1.49,1.46,2.14a3.72,3.72,0,0,1,.59,1.92,3.16,3.16,0,0,1-.59,1.92,3,3,0,0,1-1.93,1.13,3.92,3.92,0,0,0,3.33-2.94,4.57,4.57,0,0,0-.1-2.58,15.94,15.94,0,0,0-1.14-2.56,12.59,12.59,0,0,1-.79-1.82,4.22,4.22,0,0,1-.18-1.26,5.93,5.93,0,0,1,.35-1.62c.33-1,1.12-2.31,1.75-3.58a17,17,0,0,0,.73-1.7c.14-.48.23-.77.23-.77a7.78,7.78,0,0,0,.18-1,6.68,6.68,0,0,0-.14-2.38,12.58,12.58,0,0,0-2.17-4.28c-.68-.95-1.19-1.6-1.56-2.1s-.62-.85-.79-1.1a8.57,8.57,0,0,1-1.6-4.26A3.88,3.88,0,0,1,123.43,94.37Z"/><path class="cls-3" d="M135.85,93.91A8.72,8.72,0,0,0,134,95.3a6,6,0,0,0-1.21,1.94,8.16,8.16,0,0,0,.08,5.32,14,14,0,0,0,.55,1.42c.16.3.33.67.55,1l.74,1.32a32.4,32.4,0,0,1,2.2,4.23,7.5,7.5,0,0,1,.47,1.84,3.7,3.7,0,0,1,0,.73.74.74,0,0,1,0,.17c0,.1,0,.25-.06.44a5.57,5.57,0,0,1-.53,1.45c-.31.6-.76,1.3-1.2,2.05a9.33,9.33,0,0,0-1,2.41,5.85,5.85,0,0,0,0,2.53,9.47,9.47,0,0,0,.57,1.77c.41,1,.76,1.57,1,2a14.16,14.16,0,0,1,1.05,2.28,5.28,5.28,0,0,1,.2,2.07,3.5,3.5,0,0,1-2.7,3.08,4.71,4.71,0,0,0,3.46-2.87,5.85,5.85,0,0,0,.38-2.51,10.58,10.58,0,0,0-.7-2.79c-.17-.47-.44-1.14-.71-2a5,5,0,0,1-.2-2.95,8.41,8.41,0,0,1,.89-1.73c.42-.66.92-1.39,1.33-2.15a7.61,7.61,0,0,0,.8-2.18c0-.31.06-.55.08-.72a2.25,2.25,0,0,0,0-.25V113a5.54,5.54,0,0,0-.05-.83,9.75,9.75,0,0,0-.67-2.48,26.48,26.48,0,0,0-2.65-4.5c-.32-.46-.59-.86-.84-1.21s-.41-.63-.57-.89c-.31-.51-.49-.87-.63-1.15a8.89,8.89,0,0,1-1-4.46,4.73,4.73,0,0,1,.65-2A5.07,5.07,0,0,1,135.85,93.91Z"/><path class="cls-3" d="M151.71,91.25a9.27,9.27,0,0,0-4.37,1.3,7.48,7.48,0,0,0-1.85,1.62,6.48,6.48,0,0,0-1.29,2.7,7.59,7.59,0,0,0-.14,1.59,10.27,10.27,0,0,0,.46,2.82,21.19,21.19,0,0,0,1.3,3.24c.57,1.18,1.22,2.36,1.72,3.45a15.71,15.71,0,0,1,1,2.79,7.4,7.4,0,0,1,.21,1.15,6.23,6.23,0,0,1,0,1,6.69,6.69,0,0,1-.56,2.28c-.37.93-1,2-1.45,3.2a7.78,7.78,0,0,0-.66,3.78,7.6,7.6,0,0,0,.66,2.29,14,14,0,0,0,.85,1.55c.52.85.92,1.43,1.18,1.83a13.31,13.31,0,0,1,1.23,2.2,5.81,5.81,0,0,1,.42,2.09,3.56,3.56,0,0,1-2.28,3.42,4.68,4.68,0,0,0,3-3.34,6.41,6.41,0,0,0,.06-2.48,10,10,0,0,0-.95-2.7c-.21-.44-.53-1.08-1-1.94a8.44,8.44,0,0,1-1-3.1,5.9,5.9,0,0,1,.67-2.64c.46-1,1.08-2.06,1.56-3.18a8.67,8.67,0,0,0,.78-3.14,8.4,8.4,0,0,0,0-1.34,10.09,10.09,0,0,0-.28-1.51,16.8,16.8,0,0,0-1.27-3.25c-.59-1.18-1.3-2.36-1.91-3.44a22.47,22.47,0,0,1-1.39-2.83,9.36,9.36,0,0,1-.61-2.27,6.93,6.93,0,0,1,0-1.23,6.61,6.61,0,0,1,1.92-4A6.14,6.14,0,0,1,151.71,91.25Z"/><path class="cls-3" d="M161.11,94.37c-2.93,1.51-3.91,5-2.06,8.83.31.64.91,1.64,2.08,3.52a12.27,12.27,0,0,1,1.6,3.57,4.22,4.22,0,0,1,.07,1.51c-.06.39-.12.65-.12.65l-.18.56a13,13,0,0,1-.61,1.43,28.12,28.12,0,0,0-1.74,4,7.39,7.39,0,0,0-.33,2.42,6,6,0,0,0,.46,2,11.84,11.84,0,0,0,1.17,2c.58.83,1.09,1.49,1.47,2.14a3.72,3.72,0,0,1,.59,1.92,3.16,3.16,0,0,1-.59,1.92,3,3,0,0,1-1.93,1.13,3.92,3.92,0,0,0,3.33-2.94,4.66,4.66,0,0,0-.11-2.58,16.81,16.81,0,0,0-1.13-2.56,11.57,11.57,0,0,1-.79-1.82,3.92,3.92,0,0,1-.18-1.26,5.58,5.58,0,0,1,.35-1.62c.33-1,1.12-2.31,1.75-3.58.31-.63.56-1.25.73-1.7s.23-.77.23-.77.09-.36.18-1a6.68,6.68,0,0,0-.14-2.38,12.76,12.76,0,0,0-2.17-4.28c-.68-.95-1.19-1.6-1.56-2.1s-.63-.85-.79-1.1a8.39,8.39,0,0,1-1.6-4.26A3.86,3.86,0,0,1,161.11,94.37Z"/><path class="cls-9" d="M57.13,0C35,2.86,15,17.09,6.08,36.23c-8.61,18.56-6.42,41.12,5.49,58a2.28,2.28,0,0,1-.08,2.8c-1.27,1.57-2.77,4.41-.24,7.34,2.22,2.58,5.84,3.29,9.07,2.61s6.15-2.42,9.21-3.71,6.51-2.16,9.62-1C45,104.39,47.58,112.74,53.68,114c7.13,1.48,12.89-7.81,20.15-7.34,6.61.42,10.56,8.59,17,10.12,8.87,2.1,16.24-9.07,25.34-8.87,6.78.15,12.47,6.66,19.25,6.22,7.63-.5,13.35-9.67,20.94-8.69,5.91.77,11.31,7.08,16.67,4.22,5.63-3,2.59-8,.44-10.5a2.87,2.87,0,0,1-.21-3.52C184.6,79,187.1,57.39,178.8,39.18c-8.61-18.9-28-33.16-49.71-36.54"/><path class="cls-3" d="M57.13,0c-1.66.28-3.05.44-4.52.71l-2.29.47a24.15,24.15,0,0,0-2.65.65l-2.29.64c-.49.12-1,.32-1.57.51l-1.63.57A22.9,22.9,0,0,0,40,4.37C38.58,5,37.1,5.54,35.68,6.29L33.5,7.36l-2.14,1.2c-1.45.78-2.83,1.73-4.25,2.64A66,66,0,0,0,11.77,25.58a57.24,57.24,0,0,0-9.83,20A56.21,56.21,0,0,0,.11,57,58.58,58.58,0,0,0,.53,68.58,59.68,59.68,0,0,0,8,90.49c.45.86,1,1.66,1.5,2.47l.79,1.21.39.6a1.67,1.67,0,0,1,.21.38,1.22,1.22,0,0,1,0,.73,1.09,1.09,0,0,1-.15.33,1.76,1.76,0,0,1-.13.18l-.24.31a8,8,0,0,0-1.43,2.9,5.81,5.81,0,0,0,.19,3.4,7.45,7.45,0,0,0,1.82,2.7,9.85,9.85,0,0,0,5.57,2.59,13.37,13.37,0,0,0,5.87-.65,43,43,0,0,0,5.09-2.13,35.75,35.75,0,0,1,4.73-1.94,11.93,11.93,0,0,1,4.64-.58c3,.23,5.3,2.47,7.37,4.91,1,1.21,2.08,2.49,3.25,3.69a13.49,13.49,0,0,0,4.16,3.06,9.27,9.27,0,0,0,5.18.65,14.23,14.23,0,0,0,4.52-1.66c2.69-1.44,4.89-3.15,7.15-4.28a9.21,9.21,0,0,1,6.46-1.21,13.82,13.82,0,0,1,5.37,3.09c1.61,1.33,3.09,2.73,4.63,3.91a16.12,16.12,0,0,0,4.8,2.66,12.14,12.14,0,0,0,2.4.48,17.12,17.12,0,0,0,2.15,0c.65-.11,1.25-.2,1.79-.31l1.42-.42c.83-.29,1.42-.57,1.84-.74l.59-.29.6-.3c.4-.18,1-.5,1.68-.91,1.45-.82,3.47-2.15,6-3.62s5.89-3,9.69-2.27a23.26,23.26,0,0,1,6,2.33,41.21,41.21,0,0,0,7.23,3.15,13.75,13.75,0,0,0,4.48.47,14.26,14.26,0,0,0,4.5-1.23,64.22,64.22,0,0,0,7.81-4.79c2.52-1.61,5.27-3,8.11-2.71a13.84,13.84,0,0,1,4.34,1.38c1.47.68,3,1.5,4.59,2.23a11.55,11.55,0,0,0,5.54,1.27,7.43,7.43,0,0,0,3-.83,8.44,8.44,0,0,0,2.41-1.86,5.59,5.59,0,0,0,1.38-3,7,7,0,0,0-.44-3.16,12.48,12.48,0,0,0-1.38-2.64,14,14,0,0,0-.87-1.16A3.93,3.93,0,0,1,174,98a1.78,1.78,0,0,1,.08-1.65c.49-.77,1-1.55,1.46-2.33s1-1.61,1.42-2.44.94-1.65,1.32-2.52a62.21,62.21,0,0,0,4.07-10.71,58.82,58.82,0,0,0,1.73-23c-.2-1.94-.62-3.84-1-5.74s-1-3.75-1.64-5.56a55.47,55.47,0,0,0-2.15-5.36c-.88-1.71-1.7-3.44-2.73-5s-2.07-3.19-3.13-4.75c-.57-.75-1.17-1.48-1.75-2.22l-.88-1.09-.94-1a65.91,65.91,0,0,0-8-7.61c-1.45-1.1-2.85-2.23-4.36-3.19-.75-.49-1.46-1-2.23-1.47L153,10.89c-.74-.47-1.53-.85-2.3-1.25s-1.54-.81-2.32-1.18l-2.35-1-1.16-.52-.8-.29c-1.25-.46-2.37-.91-3.33-1.22l-2.27-.69-1.37-.42L135.86,4l-2.28-.54c-1.46-.3-2.85-.5-4.49-.82,1.64.32,3,.57,4.47.92l2.25.62,1.25.34,1.35.45,2.25.75c.94.34,2.05.81,3.28,1.29l.78.32,1.15.54L148.17,9c.76.39,1.51.82,2.27,1.22s1.53.81,2.26,1.29l2.22,1.39c.75.45,1.44,1,2.17,1.5,1.47,1,2.84,2.13,4.24,3.25a64.16,64.16,0,0,1,7.73,7.65l.91,1,.84,1.1c.56.73,1.13,1.46,1.67,2.2,1,1.55,2.11,3.06,3,4.7s1.75,3.29,2.58,5a53.59,53.59,0,0,1,2,5.25c.64,1.77,1.05,3.61,1.51,5.43s.72,3.7.88,5.58a57.46,57.46,0,0,1-1.95,22.31,61.78,61.78,0,0,1-4.05,10.32c-.38.83-.88,1.61-1.3,2.41s-.89,1.6-1.39,2.35l-1.5,2.35a4,4,0,0,0-.23,3.63,4.21,4.21,0,0,0,.47.8l.45.56c.26.34.51.68.74,1a9.73,9.73,0,0,1,1.12,2.17,4.75,4.75,0,0,1,.3,2.13,3.19,3.19,0,0,1-.85,1.77,6.33,6.33,0,0,1-1.77,1.33,5.18,5.18,0,0,1-2.06.55,9.36,9.36,0,0,1-4.43-1.1c-1.49-.68-3-1.51-4.54-2.25a16.11,16.11,0,0,0-5.07-1.62,11.26,11.26,0,0,0-5.32.74,24.56,24.56,0,0,0-4.39,2.29,65.36,65.36,0,0,1-7.51,4.58,12.18,12.18,0,0,1-3.68,1,10.75,10.75,0,0,1-3.61-.4,38.31,38.31,0,0,1-6.74-3,26.34,26.34,0,0,0-6.71-2.58,13.67,13.67,0,0,0-6.55.39,24,24,0,0,0-4.88,2.15c-2.74,1.55-4.71,2.85-6.1,3.63-.69.39-1.21.69-1.57.86l-.54.27-.54.26c-.37.14-.9.39-1.61.64a9.33,9.33,0,0,1-6.12.23,13.46,13.46,0,0,1-4-2.25c-1.41-1.06-2.84-2.42-4.55-3.84a25.72,25.72,0,0,0-2.82-2.07,13.13,13.13,0,0,0-3.62-1.54,8.68,8.68,0,0,0-1-.17,4.69,4.69,0,0,0-1.06-.07l-1.08,0-1.07.18a14.61,14.61,0,0,0-4,1.48c-2.51,1.29-4.74,3-7.17,4.32a11.65,11.65,0,0,1-3.72,1.4,6.71,6.71,0,0,1-3.75-.46c-2.44-1-4.38-3.57-6.54-6.06a23.71,23.71,0,0,0-3.76-3.64,10.32,10.32,0,0,0-5.27-2.07C29.13,100,23.46,106.8,16.8,106a7.53,7.53,0,0,1-4.28-1.93,4,4,0,0,1-1.42-3.94,5.87,5.87,0,0,1,1-2.1l.19-.25c.06-.09.2-.26.28-.4a3.2,3.2,0,0,0,.4-1,3.31,3.31,0,0,0-.12-2,4,4,0,0,0-.47-.86L12,92.94l-.77-1.16a25.88,25.88,0,0,1-1.47-2.36A57.9,57.9,0,0,1,2.4,68.32,58.17,58.17,0,0,1,3.46,46a56.34,56.34,0,0,1,9.28-19.69A65.77,65.77,0,0,1,27.57,11.87c1.39-.93,2.73-1.9,4.15-2.7l2.09-1.25,2.13-1.1c1.39-.77,2.85-1.37,4.26-2,.7-.33,1.41-.61,2.13-.87l1.6-.6c.56-.21,1.07-.42,1.55-.55l2.26-.7c.95-.32,1.82-.54,2.62-.73L52.63.8C54.08.49,55.47.28,57.13,0Z"/><path class="cls-10" d="M36.39,10.28C22.11,18,15.08,25.72,12.12,31.74a9.68,9.68,0,0,0-1.3,5.44A4.52,4.52,0,0,0,14.71,41c8.57.95,5.64-23.3,29.43-28.59"/><path class="cls-3" d="M36.39,10.28c-1.08.3-2,.56-2.9.91a21.22,21.22,0,0,0-2.94,1.51l-1.31.83c-.28.18-.59.37-.9.59l-1.2.81c-.44.29-.87.6-1.31.92a56.09,56.09,0,0,0-10.68,9.74,30.14,30.14,0,0,0-3.91,6c-1,2-1.68,4.28-1.12,6.3a5.4,5.4,0,0,0,3.11,3.54,5.26,5.26,0,0,0,1.31.35,3.45,3.45,0,0,0,.48,0h.48a4.53,4.53,0,0,0,1.35-.32,5.31,5.31,0,0,0,1.76-1.15,11.25,11.25,0,0,0,1.53-2c1.86-3.09,3.34-7.47,5.77-11.6A32.48,32.48,0,0,1,30.13,21a25.71,25.71,0,0,1,5.14-4.2,35.42,35.42,0,0,1,3.28-1.72c2.32-1,3.61-1.63,5.59-2.69a14.12,14.12,0,0,0-6.27,1.14,35.79,35.79,0,0,0-3.49,1.82,27.28,27.28,0,0,0-5.49,4.49,33.39,33.39,0,0,0-4.45,6.06c-2.51,4.28-4.05,8.78-5.74,11.57a9.17,9.17,0,0,1-1.28,1.69,3.64,3.64,0,0,1-1.19.79,3,3,0,0,1-.84.2h-.32a1.93,1.93,0,0,1-.32,0,3.58,3.58,0,0,1-.88-.23,3.73,3.73,0,0,1-2.12-2.43c-.39-1.35.08-3.23,1-5.12a29,29,0,0,1,3.7-5.7,54.43,54.43,0,0,1,10.35-9.43l1.28-.9,1.18-.79c.31-.22.61-.41.88-.58l1.28-.82a25.84,25.84,0,0,0,2.68-1.87C34.88,11.68,35.57,11.05,36.39,10.28Z"/><path class="cls-11" d="M146.53,10.81c9.69,5.29,25.38,17.27,24.17,28.92a4.49,4.49,0,0,1-3.74,4c-8.18,1.07.37-18.59-27-31.1"/><path class="cls-3" d="M146.53,10.81a32.84,32.84,0,0,0,4.87,3.94l1.25.86.86.61.55.39.62.45,1.26,1a50.89,50.89,0,0,1,10,10.06,22.74,22.74,0,0,1,3.19,6,13.18,13.18,0,0,1,.68,5.57A3.78,3.78,0,0,1,168,42.43a3.11,3.11,0,0,1-.84.34,2.28,2.28,0,0,1-.31.06l-.33,0a2.57,2.57,0,0,1-.87-.08,1.88,1.88,0,0,1-1-.72,6.3,6.3,0,0,1-.94-1.86c-.57-1.56-1-3.58-1.75-5.74a37.37,37.37,0,0,0-2.86-6.69,32.71,32.71,0,0,0-4.53-6.16,38.53,38.53,0,0,0-5.37-4.71l-1.93-1.32L146,14.76a16.56,16.56,0,0,0-6-2.18,37.9,37.9,0,0,0,5.08,3.63l1.28.79,1.85,1.27a37.18,37.18,0,0,1,5.12,4.5,31.12,31.12,0,0,1,4.3,5.83A35.31,35.31,0,0,1,160.36,35c.69,2.09,1.16,4.07,1.78,5.79a7.7,7.7,0,0,0,1.21,2.33,3.53,3.53,0,0,0,1.88,1.3,4.13,4.13,0,0,0,1.42.13l.48,0a4,4,0,0,0,.48-.1,4.87,4.87,0,0,0,1.28-.52,5.43,5.43,0,0,0,2.64-4,14.73,14.73,0,0,0-.75-6.31,24.34,24.34,0,0,0-3.42-6.5A52.48,52.48,0,0,0,157,16.68l-1.29-1-.62-.46-.57-.41-.89-.62c-.54-.38-1-.67-1.28-.87A17.72,17.72,0,0,0,146.53,10.81Z"/></symbol><symbol id="Aquatic_Male_1" data-name="Aquatic_Male_1" viewBox="0 0 200.6 301.94"><path class="cls-1" d="M86.59,97.53C91,96.37,94.5,92.68,93,80l7.23-11.83L107.55,80c-.37,8.94.72,17.27,5.1,16.65l13,7.48-24.33,26.1-26.45-25Z"/><path class="cls-2" d="M83.79,299.82C69,284.31,61.37,264.22,66.16,251.69s14.28-23.23,24.12-33.25,18.63-15.58,26-27.12c12.84-20.19,17.5-40,12.91-65.37l.19.1c3.46,8.71,8.62,21,10.75,25.9a5,5,0,0,0,4.34,3c14.88.66,28.29,1.64,41.2,5,0,0,15.21,5.05,15,3.56-.52-3.09-3.91-5.13-3.91-5.13-12.87-11.38-34.42-15-44.4-18.12l-.21-.06c-3.15-10-8.1-21.43-12.31-32.26a15.65,15.65,0,0,0-18.24-9.58c-1.36.33-2.45.57-3,.66,0,0,2.1,10.59-18.32,10.59C77.47,109.58,82.52,99,82.52,99c-.58-.09-1.67-.33-3-.66a15.64,15.64,0,0,0-18.24,9.58c-4.21,10.83-9.17,22.22-12.31,32.26l-.36.1c-9.24,2.84-27.38,5.51-46.71,19.43,0,0-2.14,1.39-1.85,2.3.22.71,16.84-4.11,16.84-4.11,16.85-4,24.84-2.32,39.72-3a5,5,0,0,0,4.34-3c1.84-4.26,6.12-14.4,9.29-22.23l.35-.53c-2,14.74,2.48,21.4,6.37,36.19,3.51,13.34,2.77,24-2.34,33.45C66.23,214.27,56.18,228.36,56,245s6,33.2,17.41,46.48Z"/><path class="cls-3" d="M93,80a38.12,38.12,0,0,0-.45,5.86c0,.4,0,1.06-.15,2.4,0,.2-.06.54-.1.82a4,4,0,0,1-.07.51s-.15.77-.26,1.19a9.48,9.48,0,0,1-1.31,3.07A10.3,10.3,0,0,1,88.83,96a12.9,12.9,0,0,1-2.24,1.58,7.06,7.06,0,0,0,2.87-.6A6,6,0,0,0,92,94.74a10.92,10.92,0,0,0,1.54-3.56c.13-.47.27-1.31.27-1.31a3.6,3.6,0,0,0,.1-.56c0-.3.08-.66.1-.88a24.78,24.78,0,0,0,.15-2.55A15.1,15.1,0,0,0,93,80Z"/><path class="cls-3" d="M107.55,80a16.72,16.72,0,0,0-.8,5.92c0,.42,0,1.1.19,2.52,0,.19.07.63.07.63s0,.37.07.57a19.81,19.81,0,0,0,.82,3.68,6,6,0,0,0,1.82,2.84,2.85,2.85,0,0,0,2.93.5,2.74,2.74,0,0,1-2.1-1.32,10.34,10.34,0,0,1-1.14-2.52,19.44,19.44,0,0,1-.75-3.4c0-.2-.07-.55-.07-.55s0-.42-.06-.59c-.14-1.37-.17-2-.19-2.44A31.21,31.21,0,0,0,107.55,80Z"/><path class="cls-3" d="M52.06,139a49.33,49.33,0,0,0-5.77,1.12l-2.39.64c-2.75.71-7.43,1.89-11.35,3.11-2,.63-3.75,1.19-5,1.67l-2.09.75-1.74.68c-1.09.42-2.59,1-4.25,1.78s-3.47,1.63-5.23,2.49-3.38,1.83-4.76,2.61l-3.12,1.92a19.44,19.44,0,0,0-4.45,3.95,24.56,24.56,0,0,0,5.31-2.61l3.07-1.88c1.35-.76,3-1.67,4.69-2.56s3.49-1.76,5.14-2.46,3.11-1.34,4.18-1.75l1.72-.68,2.06-.74c1.26-.47,3-1,5-1.64,3.88-1.21,8.52-2.38,11.28-3.09l2.42-.65A14,14,0,0,0,52.06,139Z"/><path class="cls-3" d="M73.58,121.12a23.05,23.05,0,0,0-2.83,5.2l-1.94,4.84c-1.49,3.67-3.29,8-5,12.11-.88,2.06-1.73,4.07-2.53,5.93l-1.13,2.62a4.12,4.12,0,0,1-1.4,1.59,4.32,4.32,0,0,1-1.67.65c-.49.07-1.1.07-1.54.09l-1.4.06-5.18.16c-3.15.08-7.43.16-11.93.41a125.22,125.22,0,0,0-13.09,1.39c-1.6.26-2.91.5-3.57.63a18.9,18.9,0,0,0-5.59,2,24.94,24.94,0,0,0,5.89-.45l3.53-.61a124.1,124.1,0,0,1,12.92-1.37c4.45-.25,8.72-.33,11.88-.42l5.2-.16,1.41-.06a16.2,16.2,0,0,0,1.73-.11,5.72,5.72,0,0,0,4.24-3.1c.41-.91.76-1.75,1.17-2.7l2.54-5.93c1.75-4.13,3.55-8.45,5-12.13l1.94-4.87A20,20,0,0,0,73.58,121.12Z"/><g id="Aquatic_Male_Head_1-2" data-name="Aquatic_Male_Head_1"><path class="cls-4" d="M101.71.79C80.8-.1,64.52,15.67,64,36.6c-.06,2.16.31,11.83.62,19.17a15.93,15.93,0,0,0,7.83,13.07l23.3,13.74a12.31,12.31,0,0,0,10.08.31l24.39-14a16,16,0,0,0,8-13.22l.67-18c0-20.08-17.09-36-37.16-36.81Z"/></g><path class="cls-5" d="M73.79,40.7,75,39.84c.37-.26.76-.47,1.12-.72.74-.47,1.51-.94,2.52-1.48a5.58,5.58,0,0,1,.75-.35L80,37l.83-.28a7.58,7.58,0,0,1,1.06-.28l.68-.16.61-.08a10.07,10.07,0,0,1,1-.12,19.49,19.49,0,0,1,3.48,0c2.34.28,3.68.36,5.78.58a11.34,11.34,0,0,0-5.62-2.16A20,20,0,0,0,84,34.51c-.32,0-.77.08-1.14.13l-.66.1-.76.17a7.56,7.56,0,0,0-1.18.32l-.92.31-.67.29c-.38.18-.65.28-.84.4a8.63,8.63,0,0,0-2.55,2,10.12,10.12,0,0,0-.84,1.14C74.25,39.8,74,40.24,73.79,40.7Z"/><path class="cls-5" d="M106,37.13a16.41,16.41,0,0,1,2.77-.22c.88,0,1.8,0,3-.06a8.23,8.23,0,0,1,.84,0c.38,0,.89,0,1.56.09a12.7,12.7,0,0,1,1.3.15l.83.12.7.15a12,12,0,0,1,1.21.29,18.07,18.07,0,0,1,3.27,1.17c.54.23,1,.51,1.42.7s.8.45,1.2.64l1.12.68c.38.25.74.54,1.17.86a7.88,7.88,0,0,0-4.22-4.31,19.85,19.85,0,0,0-3.55-1.29c-.36-.11-.87-.22-1.29-.31l-.75-.15-.88-.13a12.12,12.12,0,0,0-1.39-.16c-.72-.08-1.25-.09-1.66-.1a9,9,0,0,0-.91,0,10.57,10.57,0,0,0-3.16.5A8.28,8.28,0,0,0,106,37.13Z"/><path class="cls-6" d="M100.86,59.12c9.21.16,12.56-8.69,12.56-8.69S105.66,52.55,100,52.3a48.64,48.64,0,0,1-12.82-2.23A14.85,14.85,0,0,0,100.86,59.12Z"/><path class="cls-5" d="M100.86,59.12c.51.1,1,.2,1.47.27a8.31,8.31,0,0,0,4.57-.78,7.23,7.23,0,0,0,.82-.44,10.88,10.88,0,0,0,1.43-.94A15.71,15.71,0,0,0,112.3,54c.24-.31.45-.65.66-1a4.71,4.71,0,0,0,.29-.48l.2-.34.23-.46.42-.87c.11-.27.22-.53.32-.79l.3-.74,0-.09-.09,0-.21.06-.41.1-1.43.38-1.21.29-1.33.3c-.88.18-1.72.34-2.53.48-1.61.27-3.05.45-4.26.54s-2.18.11-2.84.09-1,0-1,0-1.47,0-3.88-.38c-1.21-.16-2.64-.4-4.23-.74l-1.21-.29-.63-.16-.36-.1-.65-.19c-.45-.13-.89-.26-1.37-.43l-.71-.25L86,48.81s-.15-.06-.16,0l.06.14a25.05,25.05,0,0,0,1,2.33,12.92,12.92,0,0,0,1.19,2,16.9,16.9,0,0,0,1.16,1.46c.39.46.83.84,1.2,1.22l1.07.89,1.11.76c.35.21.66.37.94.52a11.26,11.26,0,0,0,1.28.6,7.75,7.75,0,0,0,1.68.51A6.46,6.46,0,0,0,98,59.4a11.54,11.54,0,0,0,2.87-.28c-1-.34-1.83-.54-2.66-.87a12.56,12.56,0,0,1-1.29-.46c-.45-.17-1-.31-1.47-.56a11.19,11.19,0,0,1-1.14-.54c-.25-.14-.53-.28-.84-.47l-1-.68-1-.8c-.33-.34-.73-.67-1.08-1.1a15.43,15.43,0,0,1-1.05-1.31c-.15-.24-.31-.47-.46-.7l-.11-.18,0-.09h0l.29.08.65.16,1.26.3c1.63.36,3.11.6,4.35.76,2.49.33,4,.39,4,.39s.38,0,1.09,0a27.94,27.94,0,0,0,3-.08c1.26-.11,2.76-.29,4.41-.57.82-.14,1.69-.3,2.59-.49l1.36-.3.18,0h0s0,0,0,0h0l-.07.12c-.09.14-.17.3-.27.44s-.38.59-.6.88a14.43,14.43,0,0,1-2.81,2.9,9.3,9.3,0,0,1-1.27.84c-.32.17-.53.32-.71.39-1,.48-1.87.82-2.69,1.11-.42.12-.82.31-1.25.43Z"/><path class="cls-3" d="M82.52,99c-1-.47-1.75-.84-2.59-1.16a10.83,10.83,0,0,0-3.13-.7c-.22,0-.51,0-.92,0a11.16,11.16,0,0,0-1.7.08,16.39,16.39,0,0,0-11.82,7c-.17.25-.35.5-.51.75l-.44.78a16.13,16.13,0,0,0-.73,1.52c-.42,1-.72,1.82-1,2.55l-.93,2.34s-1.21,3-2.76,6.86-3.42,8.54-4.67,11.93c-.66,1.76-1,2.86-1.24,3.43A19.08,19.08,0,0,0,49,140.17a24.7,24.7,0,0,0,2.62-5.3c.2-.57.6-1.65,1.24-3.4,1.25-3.36,3.11-8,4.66-11.89l2.75-6.87.93-2.35c.29-.71.62-1.61,1-2.51a10.82,10.82,0,0,1,.66-1.38l.39-.7.46-.68a14.8,14.8,0,0,1,10.68-6.31,9.88,9.88,0,0,1,1.52-.07c.38,0,.64,0,.83,0l3,.24A26.77,26.77,0,0,0,82.52,99Z"/><path class="cls-3" d="M149,139a14.21,14.21,0,0,0,5.33,2.67c.4.13,1,.29,2.41.67,2.56.69,6.86,1.79,10.49,2.82s6.57,2,6.57,2l1.62.56c1,.34,2.4.87,3.94,1.48.78.28,1.58.63,2.39,1s1.65.71,2.44,1.1c1.59.8,3.15,1.54,4.37,2.3.79.46,1.45.82,1.95,1.14l1.09.73a37.32,37.32,0,0,0,5.12,2.88,15.14,15.14,0,0,0-4.24-4.2l-1.12-.77c-.52-.32-1.19-.69-2-1.17-1.26-.78-2.85-1.54-4.48-2.36-.81-.4-1.67-.74-2.49-1.11s-1.65-.73-2.44-1c-1.57-.62-3-1.15-4-1.49l-1.64-.57s-3-1-6.64-2-8-2.16-10.52-2.84l-2.39-.65A43.92,43.92,0,0,0,149,139Z"/><path class="cls-3" d="M127.44,121.12a20,20,0,0,0,1.36,5.78c.35.9,1.07,2.7,1.94,4.88,1.51,3.72,3.32,8.07,5.09,12.23.88,2.08,1.75,4.11,2.55,6l.59,1.38c.21.45.36.85.62,1.36a5.67,5.67,0,0,0,2.06,2.14,5.87,5.87,0,0,0,2.35.8c.74.06,1.22.07,1.69.1l1.42.06s2,.11,5.21.33,7.44.59,11.9,1.13,9.15,1.26,13,2c1.58.31,2.87.58,3.51.72a25.33,25.33,0,0,0,5.88.58,18.82,18.82,0,0,0-5.54-2.14c-.65-.14-2-.42-3.55-.73-3.86-.76-8.61-1.49-13.08-2s-8.81-.91-12-1.14-5.23-.32-5.23-.32l-1.43-.08c-.43,0-1.07,0-1.59-.08a4.32,4.32,0,0,1-1.71-.59A4,4,0,0,1,141,152c-.16-.3-.36-.79-.55-1.23l-.59-1.37c-.8-1.87-1.66-3.9-2.55-6-1.76-4.16-3.57-8.51-5.07-12.21-.88-2.18-1.59-4-1.95-4.86A23.07,23.07,0,0,0,127.44,121.12Z"/><path class="cls-3" d="M118.5,99a27,27,0,0,0,2.86,0l3-.24c.2,0,.46,0,.83,0a10,10,0,0,1,1.53.07,14.75,14.75,0,0,1,10.67,6.31c.16.23.31.46.47.68l.39.7a14.42,14.42,0,0,1,.66,1.38c.39.9.71,1.8,1,2.51l.94,2.35,2.75,6.87c1.55,3.84,3.41,8.53,4.65,11.89l1.25,3.4a24.25,24.25,0,0,0,2.62,5.3,19.39,19.39,0,0,0-1.12-5.83c-.21-.58-.59-1.67-1.25-3.43-1.25-3.39-3.12-8.08-4.67-11.93l-2.75-6.86-.93-2.34c-.3-.73-.6-1.57-1-2.55a12.35,12.35,0,0,0-.73-1.52l-.43-.78-.51-.75A16.45,16.45,0,0,0,133,99.11a16.25,16.25,0,0,0-6.19-1.92,11,11,0,0,0-1.69-.08c-.42,0-.71,0-.92,0a10.9,10.9,0,0,0-3.14.7C120.25,98.15,119.46,98.52,118.5,99Z"/><path class="cls-7" d="M73.35,120.89"/><path class="cls-7" d="M153.41,71.84"/><path class="cls-3" d="M70.57,129.19a26.14,26.14,0,0,0-.9,2.72A16.48,16.48,0,0,0,69.3,135c0,.32,0,.81,0,1.41,0,.3,0,.62,0,1,0,.61.06,1.24.09,1.87s.12,1.3.18,1.95.19,1.31.29,2a62.43,62.43,0,0,0,1.94,7.94c1.62,5.31,3.51,10.73,4.86,16.46A52.24,52.24,0,0,1,78,185.41a36.4,36.4,0,0,1-2.19,8.85,38.65,38.65,0,0,1-1.93,4.19l-2.28,4.11c-3.08,5.49-6.32,10.93-9.14,16.56a70.25,70.25,0,0,0-6.4,17.53,47.28,47.28,0,0,0-.93,9,66.21,66.21,0,0,0,11.77,37.72,70.15,70.15,0,0,0,15.4,15.78c2.91,1.87,2.54,1,2.54,1-.41-.45-3.31-4-3.8-4.66l-1.8-2.19c-1.07-1.43-1.89-2.5-2.48-3.33l-1.22-1.81L75,287.4a4.31,4.31,0,0,1-.29-.45c-.19-.3-.46-.76-.82-1.35-.75-1.18-1.74-3-2.93-5.28a62.32,62.32,0,0,1-3.52-8.74,39.83,39.83,0,0,1-1.9-12.07c0-.56.07-1.12.11-1.69a12.27,12.27,0,0,1,.2-1.71c.11-.57.21-1.15.32-1.73s.34-1.13.52-1.71a48.51,48.51,0,0,1,3.08-7,83.86,83.86,0,0,1,9.39-13.86c3.7-4.55,7.92-9,12.34-13.49s9.35-8.61,14.12-13.15a82.29,82.29,0,0,0,6.81-7.26,64,64,0,0,0,5.72-8.2,97.65,97.65,0,0,0,8.7-17.83,81.93,81.93,0,0,0,4.36-18.8c.17-1.56.24-3.12.37-4.67s.07-3.08.1-4.6-.06-3-.13-4.53-.19-2.71-.29-4c-.19-1.62-.35-3-.42-3.61a19,19,0,0,0-1.68-5.71,25.1,25.1,0,0,0,.1,5.91c.07.66.22,2,.4,3.56.1,1.31.2,2.64.29,4s.09,2.95.13,4.44-.07,3-.1,4.52-.2,3-.37,4.58a80,80,0,0,1-4.27,18.43,95.62,95.62,0,0,1-8.55,17.53A68,68,0,0,1,104.51,204c-4.7,4.48-9.68,8.66-14.14,13.18s-8.69,9-12.45,13.61A85.07,85.07,0,0,0,68.36,245a51.11,51.11,0,0,0-3.18,7.21c-.19.62-.39,1.23-.56,1.84s-.23,1.25-.34,1.86a11.44,11.44,0,0,0-.22,1.82l-.12,1.8a42.17,42.17,0,0,0,2,12.57,62.51,62.51,0,0,0,3.63,9c1.21,2.38,2.23,4.2,3,5.4l.83,1.39c.19.31.3.46.3.46l.57.84L75.48,291c.6.84,1.44,1.94,2.53,3.4l1.84,2.23c.49.63,1.14,1.33,1.88,2.14.37.4,4.65,3.22,4.65,3.22.47,0-3-3.47-3.24-3.68a71,71,0,0,1-14.91-15.75,65.14,65.14,0,0,1-10.92-28.25A52.27,52.27,0,0,1,57.65,237a68.51,68.51,0,0,1,6.27-17.12c2.77-5.56,6-11,9.09-16.49l2.3-4.14a39.19,39.19,0,0,0,2-4.37,37.76,37.76,0,0,0,2.3-9.25,54,54,0,0,0-1.4-18.36c-1.38-5.83-3.29-11.3-4.89-16.55a62.2,62.2,0,0,1-1.89-7.74c-.09-.64-.19-1.27-.28-1.9L71,139.16c0-.61,0-1.21-.08-1.79,0-.34,0-.66,0-1,0-.57,0-1,0-1.35,0-1.2,0-2.15,0-3.06S70.71,130.24,70.57,129.19Z"/><path class="cls-8" d="M82.08,107.09a6.55,6.55,0,0,1-3.92-5.77c0-5.81,5.85-4.6,5.85-4.6-.81,3.75.76,5.77,5,7.17,8.72,2.88,19,.9,21.91,0,4.27-1.32,7.94-4.33,5.28-7.29,0,0,7.06-2,7.06,4.72a7,7,0,0,1-3.92,5.77C116.87,108.45,95.76,113.1,82.08,107.09Z"/></symbol></defs><g id="SEA_1"><use width="184.56" height="135.5" transform="translate(56.7 144.02)" xlink:href="#Aquatic_body_1"/><use width="200.6" height="301.95" transform="translate(83.6 57.84) scale(0.64)" xlink:href="#Aquatic_Male_1"/></g></svg>