<svg xmlns="http://www.w3.org/2000/svg" xmlns:xlink="http://www.w3.org/1999/xlink" viewBox="0 0 300 300"><defs><style>.cls-1{fill:url(#radial-gradient);}.cls-2{fill:url(#radial-gradient-2);}.cls-3{fill:#e0e0e0;}.cls-4{fill:#f87bff;stroke-width:0.7px;}.cls-11,.cls-12,.cls-13,.cls-14,.cls-15,.cls-16,.cls-17,.cls-4,.cls-5{stroke:#dbdbdb;stroke-miterlimit:10;}.cls-11,.cls-12,.cls-13,.cls-14,.cls-15,.cls-16,.cls-17,.cls-5{stroke-width:1.05px;}.cls-5{fill:url(#radial-gradient-3);}.cls-6{fill:#fff;}.cls-7{fill:#202020;}.cls-8{fill:url(#New_Gradient_Swatch_13);}.cls-9{fill:url(#New_Gradient_Swatch_13-2);}.cls-10{fill:url(#New_Gradient_Swatch_13-3);}.cls-11{fill:url(#radial-gradient-4);}.cls-12{fill:url(#radial-gradient-5);}.cls-13{fill:url(#radial-gradient-6);}.cls-14{fill:url(#radial-gradient-7);}.cls-15{fill:url(#radial-gradient-8);}.cls-16{fill:url(#radial-gradient-9);}.cls-17{fill:url(#radial-gradient-10);}</style><radialGradient id="radial-gradient" cx="59.06" cy="58.08" fx="68.4084767524565" r="17.05" gradientTransform="translate(0 -6.01)" gradientUnits="userSpaceOnUse"><stop offset="0.11" stop-color="#3d8eff"/><stop offset="0.16" stop-color="#459aff"/><stop offset="0.24" stop-color="#59b9ff"/><stop offset="0.36" stop-color="#7bebff"/><stop offset="0.38" stop-color="#81f4ff"/></radialGradient><radialGradient id="radial-gradient-2" cx="61.55" cy="118.61" fx="157.32463258174812" fy="181.79080560020424" r="114.74" gradientTransform="translate(0 -6.01)" gradientUnits="userSpaceOnUse"><stop offset="0.31" stop-color="#ff30ff"/><stop offset="0.33" stop-color="#f73cff"/><stop offset="0.39" stop-color="#e45bff"/><stop offset="0.45" stop-color="#c38dff"/><stop offset="0.54" stop-color="#97d2ff"/><stop offset="0.57" stop-color="#81f4ff"/></radialGradient><radialGradient id="radial-gradient-3" cx="59.93" cy="25.86" r="27.02" gradientTransform="translate(0 -6.01)" gradientUnits="userSpaceOnUse"><stop offset="0.75" stop-color="#81f4ff"/><stop offset="1" stop-color="#3d8eff"/></radialGradient><radialGradient id="New_Gradient_Swatch_13" cx="2478.97" cy="791.87" fx="2534.5572877924283" fy="827.7080809613516" r="74.86" gradientTransform="translate(-3252.72 -893.41) scale(1.34 1.19)" gradientUnits="userSpaceOnUse"><stop offset="0.52" stop-color="#fff"/><stop offset="0.59" stop-color="#f7feff"/><stop offset="0.69" stop-color="#e3fdff"/><stop offset="0.81" stop-color="#c1faff"/><stop offset="0.95" stop-color="#92f5ff"/><stop offset="1" stop-color="#81f4ff"/></radialGradient><radialGradient id="New_Gradient_Swatch_13-2" cx="24.64" cy="24.56" fx="38.28242994524214" fy="33.351025726822215" r="18.37" gradientTransform="translate(0 -14.72)" xlink:href="#New_Gradient_Swatch_13"/><radialGradient id="New_Gradient_Swatch_13-3" cx="136.97" cy="27.53" fx="150.14617562699115" fy="36.01739500953924" r="17.74" gradientTransform="translate(0 -14.72)" xlink:href="#New_Gradient_Swatch_13"/><radialGradient id="radial-gradient-4" cx="43.7" cy="89.38" fx="82.82287020362784" fy="45.15142574789838" r="76.21" gradientTransform="translate(0 -5.98)" gradientUnits="userSpaceOnUse"><stop offset="0.26" stop-color="#81f4ff"/><stop offset="0.57" stop-color="#3d8eff"/></radialGradient><radialGradient id="radial-gradient-5" cx="77.13" cy="78.56" fx="149.75008936679984" fy="24.510563701104594" r="90.52" gradientTransform="translate(0 -5.98)" gradientUnits="userSpaceOnUse"><stop offset="0.1" stop-color="#81f4ff"/><stop offset="0.38" stop-color="#3d8eff"/></radialGradient><radialGradient id="radial-gradient-6" cx="45.88" cy="35.03" fx="95.5424940683034" fy="45.798856696420685" r="61.12" gradientTransform="translate(0 -5.98)" gradientUnits="userSpaceOnUse"><stop offset="0.42" stop-color="#81f4ff"/><stop offset="0.69" stop-color="#3d8eff"/></radialGradient><radialGradient id="radial-gradient-7" cx="144.69" cy="106.12" fx="90.19360104631457" fy="142.36608545471287" r="80.5" gradientTransform="translate(0 -5.98)" gradientUnits="userSpaceOnUse"><stop offset="0.64" stop-color="#81f4ff"/><stop offset="0.94" stop-color="#3d8eff"/></radialGradient><radialGradient id="radial-gradient-8" cx="138.89" cy="53.71" fx="122.645341429622" fy="119.13665656415863" r="84.32" gradientTransform="translate(0 -5.98)" gradientUnits="userSpaceOnUse"><stop offset="0.59" stop-color="#81f4ff"/><stop offset="0.82" stop-color="#3d8eff"/></radialGradient><radialGradient id="radial-gradient-9" cx="91.27" cy="65.66" fx="193.67850788896567" fy="128.75794106375074" r="128.09" gradientTransform="translate(0 -5.98)" gradientUnits="userSpaceOnUse"><stop offset="0.33" stop-color="#81f4ff"/><stop offset="0.46" stop-color="#3d8eff"/></radialGradient><radialGradient id="radial-gradient-10" cx="68.67" cy="59" fx="125.38766403856539" fy="93.9431611950724" r="70.94" gradientTransform="translate(0 -5.98)" gradientUnits="userSpaceOnUse"><stop offset="0.23" stop-color="#81f4ff"/><stop offset="0.45" stop-color="#3d8eff"/></radialGradient><symbol id="Aquatic_female_hair_3" data-name="Aquatic_female_hair_3" viewBox="0 0 138.16 102"><path class="cls-11" d="M52.78,85.5c-4.45,8.52-9.33,15.72-22.84,16-6,.11-13.92-2.22-17.6-6.72-2.63-3.22-3.25-7.52-3.26-11.58,0-2.91.28-5.94,1.91-8.4s5-4.31,7.83-3.15c6.09,2.53,1.41,9.3,1.41,9.3-2.2,4.64.28,8.44,5.52,9.55S36.5,89,40,85.09s5.35-8.78,7-13.61,3.22-9.8,6.28-14"/><path class="cls-12" d="M58.34,54.48c-7.09,1.59-12,10.2-19.23,9.19-3.56-.5-6.33-3.35-8.29-6.37s-3.42-6.4-5.89-9A15.88,15.88,0,0,0,4.48,46.64c-2.13,1.63-3.89,4-3.95,6.69s2.08,5.46,4.76,5.37c2.34-.08,4.13-2.11,6.36-2.83,3.87-1.26,7.89,1.73,10.12,5.15S25.3,68.5,28.2,71.37a13,13,0,0,0,17.23.38"/><path class="cls-13" d="M62.69,53.57c-1.45.57-5.48-1.23-8.37-4.85-2.25-2.81-2-8.45-2.2-12S51.93,29.41,50.73,26A15.85,15.85,0,0,0,37.59,15.77c-2.69-.26-5.94.61-6.76,3.18-.75,2.31.92,4.73,2.86,6.18s4.29,2.44,5.87,4.28c2.22,2.57,2.49,6.28,2.24,9.66s-.94,6.82-.22,10.14,5.07,7.67,8.46,9.41"/><path class="cls-14" d="M86.62,84.89c4.45,8.51,9.33,15.72,22.84,16,6,.11,13.92-2.21,17.6-6.72,2.63-3.22,3.24-7.51,3.26-11.58,0-2.9-.29-5.93-1.92-8.39s-5-4.32-7.82-3.15c-6.09,2.52-1.41,9.3-1.41,9.3,2.2,4.64-.28,8.43-5.52,9.54s-10.75-1.51-14.24-5.37-5.35-8.78-7-13.62-3.22-9.8-6.28-14"/><path class="cls-15" d="M79.82,56c7.08,1.59,12,10.2,19.23,9.19,3.56-.49,6.33-3.35,8.28-6.37s3.43-6.4,5.9-9a15.86,15.86,0,0,1,20.44-1.64c2.13,1.62,3.89,4,4,6.69s-2.09,5.45-4.77,5.36c-2.33-.08-4.12-2.11-6.35-2.83-3.88-1.26-7.9,1.73-10.12,5.15s-3.54,7.48-6.44,10.35a13,13,0,0,1-17.22.38"/><path class="cls-16" d="M75.34,52.2a7.79,7.79,0,0,0,8.84-2.14c2.32-2.75,2.63-7.83,3.1-11.39s.75-7.24,2.21-10.53a15.86,15.86,0,0,1,13.9-9.2c2.69-.05,5.87,1.07,6.49,3.69.56,2.36-1.28,4.65-3.33,5.95s-4.46,2.09-6.19,3.8c-2.4,2.4-3,6.07-3,9.47s.4,6.87-.57,10.12-5.64,7.26-9.16,8.73"/><path class="cls-17" d="M61.23,51.07c2.53-1.82,3.71-5.4,3.79-8.8s-.77-6.73-1.47-10c-1.79-8.45-2.59-17.78,1-25.46a12.26,12.26,0,0,1,4.18-5.26,5.51,5.51,0,0,1,6-.15c3.07,2.12,3.15,7.24,1.91,11.07S73.23,19.8,73,23.88c-.37,5.35,2.64,10.19,3.64,15.43a20.94,20.94,0,0,1-2,13.49"/></symbol><symbol id="Aquatic_female_body_2" data-name="Aquatic_female_body_2" viewBox="0 0 159 130.52"><path class="cls-3" d="M18.48,89.43a6.28,6.28,0,0,0-2.86,3.81A9.82,9.82,0,0,0,16,98.79c.12.35.3.83.59,1.47s.69,1.43,1.21,2.47a24.15,24.15,0,0,1,1.46,3.49,8.11,8.11,0,0,1,.29,1.51q0,.28,0,.45v.16a3.07,3.07,0,0,1,0,.5,5,5,0,0,1-.29,1.2c-.35.95-1.17,2.24-1.64,3.38a6.8,6.8,0,0,0-.59,2.52,7.43,7.43,0,0,0,.25,2,15.26,15.26,0,0,0,.86,2.28c.44,1,.86,1.75,1.15,2.48a6.15,6.15,0,0,1,.46,2.15,4.3,4.3,0,0,1-.47,2.1,3.07,3.07,0,0,1-1.84,1.45A4.55,4.55,0,0,0,20.58,125a6.63,6.63,0,0,0,.14-2.65,19.93,19.93,0,0,0-.72-2.83,16.75,16.75,0,0,1-.52-2,5.38,5.38,0,0,1-.06-1.4,5,5,0,0,1,.52-1.62c.39-.84,1.26-2.09,1.8-3.47a7.22,7.22,0,0,0,.45-1.85,4,4,0,0,0,0-.77v-.25a4.26,4.26,0,0,0,0-.65,9.22,9.22,0,0,0-.43-2,20.15,20.15,0,0,0-1.84-3.87l-1.42-2.34c-.33-.55-.52-.91-.67-1.21a11.58,11.58,0,0,1-1.35-4.67A4.37,4.37,0,0,1,18.48,89.43Z"/><path class="cls-3" d="M32.13,86.79a7.17,7.17,0,0,0-6,3.9,6.85,6.85,0,0,0-.74,3,12.27,12.27,0,0,0,.81,4.47c.25.74.64,1.7,1.08,2.7s.89,2,1.24,3a16.69,16.69,0,0,1,.71,2.41,7.83,7.83,0,0,1,.14,1,5.52,5.52,0,0,1,0,.82,6.71,6.71,0,0,1-.35,2c-.24.79-.66,1.71-1,2.69a12.37,12.37,0,0,0-.85,3,7.05,7.05,0,0,0,.15,2.56,9.27,9.27,0,0,0,.65,1.82,22,22,0,0,0,1.12,2.07c.53.89,1,1.66,1.33,2.36a7.31,7.31,0,0,1,.61,2.16,4.57,4.57,0,0,1-.26,2.16,3.28,3.28,0,0,1-1.64,1.69,4.77,4.77,0,0,0,2.69-3.82,7.48,7.48,0,0,0-.1-2.61,16.78,16.78,0,0,0-1-2.78c-.19-.47-.51-1.15-.82-2a8.64,8.64,0,0,1-.38-1.48,5,5,0,0,1,0-1.72,11.63,11.63,0,0,1,.83-2.36,30,30,0,0,0,1.2-2.86,9,9,0,0,0,.5-2.72c0-.35,0-.63,0-.82l0-.3a12.55,12.55,0,0,0-.19-1.28A16.33,16.33,0,0,0,31,102.9c-.87-2.1-2.1-4.23-2.64-5.53a11.57,11.57,0,0,1-1.09-3.7,6.59,6.59,0,0,1,1.06-4.53A5.1,5.1,0,0,1,32.13,86.79Z"/><path class="cls-3" d="M40.22,89.88a5.55,5.55,0,0,0-2.57,4,9.26,9.26,0,0,0,1,5.49c.15.33.37.76.68,1.35s.74,1.37,1.22,2.37a10.18,10.18,0,0,1,.9,2.84,5.39,5.39,0,0,1,0,1.21,3.85,3.85,0,0,1-.08.51s0,.17-.11.45-.21.67-.38,1.12c-.35.91-.9,2.08-1.24,3a12.62,12.62,0,0,0-.64,2.32,7.25,7.25,0,0,0,0,2.08,6.51,6.51,0,0,0,.43,1.52,9.82,9.82,0,0,0,.45,1c1.08,1.92,2.15,3,2.35,4.4a3.45,3.45,0,0,1-.26,2.09A2.48,2.48,0,0,1,40.12,127a3.82,3.82,0,0,0,3-3.51c.24-1.78-.68-3.5-1.37-5.28a5.88,5.88,0,0,1-.45-1.85,4.89,4.89,0,0,1,.13-1.36,11.07,11.07,0,0,1,.62-1.8c.34-.78.91-1.92,1.33-3a14.38,14.38,0,0,0,.47-1.4c.1-.37.14-.61.14-.61a6,6,0,0,0,.12-.76,7.41,7.41,0,0,0,0-1.86,9.21,9.21,0,0,0-.57-2.06,14.56,14.56,0,0,0-.75-1.56c-.62-1.1-1.13-1.82-1.5-2.38s-.61-.92-.81-1.21a10.84,10.84,0,0,1-1.88-4.45,4.68,4.68,0,0,1,.19-2.16A3.56,3.56,0,0,1,40.22,89.88Z"/><path class="cls-3" d="M50.91,89.43a6.28,6.28,0,0,0-2.86,3.81,9.64,9.64,0,0,0,.35,5.55,13.82,13.82,0,0,0,.59,1.47c.29.63.69,1.43,1.21,2.47a23.1,23.1,0,0,1,1.45,3.49,7.49,7.49,0,0,1,.3,1.51,2.52,2.52,0,0,1,0,.45v.16a3.07,3.07,0,0,1,0,.5,4.64,4.64,0,0,1-.3,1.2c-.34.95-1.16,2.24-1.63,3.38a6.8,6.8,0,0,0-.59,2.52,6.73,6.73,0,0,0,.25,2,14.21,14.21,0,0,0,.86,2.28c.43,1,.86,1.75,1.15,2.48a5.92,5.92,0,0,1,.45,2.15,4.09,4.09,0,0,1-.47,2.1,3,3,0,0,1-1.84,1.45A4.54,4.54,0,0,0,53,125a6.63,6.63,0,0,0,.14-2.65,19.93,19.93,0,0,0-.72-2.83,14.85,14.85,0,0,1-.53-2,5.87,5.87,0,0,1,0-1.4,4.78,4.78,0,0,1,.52-1.62c.38-.84,1.26-2.09,1.8-3.47a7.22,7.22,0,0,0,.45-1.85,5.39,5.39,0,0,0,.05-.77v-.25a6.14,6.14,0,0,0,0-.65,9.84,9.84,0,0,0-.43-2,19.53,19.53,0,0,0-1.85-3.87c-.61-1-1.06-1.77-1.41-2.34s-.52-.91-.67-1.21a11.43,11.43,0,0,1-1.35-4.67A4.37,4.37,0,0,1,50.91,89.43Z"/><path class="cls-3" d="M64.56,86.79a7.36,7.36,0,0,0-4.4,1.83,7.16,7.16,0,0,0-1.59,2.07,6.72,6.72,0,0,0-.74,3,12.27,12.27,0,0,0,.81,4.47c.25.74.64,1.7,1.07,2.7s.9,2,1.25,3a16.69,16.69,0,0,1,.71,2.41c.11.61.14,1,.14,1a8,8,0,0,1,0,.82,7.06,7.06,0,0,1-.35,2c-.24.79-.66,1.71-1,2.69a11.93,11.93,0,0,0-.85,3,6.85,6.85,0,0,0,.14,2.56,9.93,9.93,0,0,0,.66,1.82,22,22,0,0,0,1.12,2.07c.52.89,1,1.66,1.33,2.36a7.31,7.31,0,0,1,.61,2.16,4.58,4.58,0,0,1-.27,2.16,3.3,3.3,0,0,1-1.63,1.69,4.77,4.77,0,0,0,2.69-3.82,7.73,7.73,0,0,0-.1-2.61,17.75,17.75,0,0,0-1-2.78c-.2-.47-.51-1.15-.82-2A8.64,8.64,0,0,1,62,117.8a5,5,0,0,1,0-1.72,11.63,11.63,0,0,1,.83-2.36,30,30,0,0,0,1.2-2.86,9,9,0,0,0,.5-2.72,6.48,6.48,0,0,0,0-.82V107a11.33,11.33,0,0,0-.2-1.28,15.51,15.51,0,0,0-.89-2.84c-.86-2.1-2.09-4.23-2.63-5.53a12,12,0,0,1-1.1-3.7,6.65,6.65,0,0,1,1.07-4.53A5.08,5.08,0,0,1,64.56,86.79Z"/><path class="cls-3" d="M72.65,89.88a5.52,5.52,0,0,0-2.57,4,9.25,9.25,0,0,0,1,5.49c.16.33.37.76.69,1.35s.74,1.37,1.22,2.37a10.18,10.18,0,0,1,.9,2.84,5.39,5.39,0,0,1,0,1.21c0,.31-.08.51-.08.51s0,.17-.12.45a9.9,9.9,0,0,1-.38,1.12c-.34.91-.89,2.08-1.23,3a11.88,11.88,0,0,0-.64,2.32,6.91,6.91,0,0,0,0,2.08,6.51,6.51,0,0,0,.43,1.52,9.82,9.82,0,0,0,.45,1c1.08,1.92,2.15,3,2.35,4.4a3.53,3.53,0,0,1-.26,2.09A2.5,2.5,0,0,1,72.54,127a3.82,3.82,0,0,0,3-3.51c.24-1.78-.68-3.5-1.37-5.28a6.16,6.16,0,0,1-.45-1.85,5.31,5.31,0,0,1,.13-1.36,12.29,12.29,0,0,1,.63-1.8c.33-.78.91-1.92,1.33-3a11.83,11.83,0,0,0,.46-1.4c.1-.37.15-.61.15-.61s.06-.28.11-.76a7.35,7.35,0,0,0,0-1.86,9.21,9.21,0,0,0-.57-2.06,14.56,14.56,0,0,0-.75-1.56c-.63-1.1-1.13-1.82-1.5-2.38l-.81-1.21A10.71,10.71,0,0,1,71,93.9a4.81,4.81,0,0,1,.18-2.16A3.63,3.63,0,0,1,72.65,89.88Z"/><path class="cls-3" d="M83.34,89.43a6.24,6.24,0,0,0-2.86,3.81,9.72,9.72,0,0,0,.34,5.55c.12.35.31.83.6,1.47s.69,1.43,1.21,2.47a23.1,23.1,0,0,1,1.45,3.49,7.49,7.49,0,0,1,.3,1.51,4,4,0,0,1,0,.45v.16a2.61,2.61,0,0,1,0,.5,4.56,4.56,0,0,1-.29,1.2c-.34.95-1.16,2.24-1.63,3.38a7,7,0,0,0-.6,2.52,7.43,7.43,0,0,0,.25,2,15.26,15.26,0,0,0,.86,2.28c.44,1,.87,1.75,1.16,2.48a6.13,6.13,0,0,1,.45,2.15,4.09,4.09,0,0,1-.47,2.1,3.07,3.07,0,0,1-1.84,1.45A4.53,4.53,0,0,0,85.43,125a6.45,6.45,0,0,0,.14-2.65,18.67,18.67,0,0,0-.72-2.83,16.75,16.75,0,0,1-.52-2,5.39,5.39,0,0,1,0-1.4,5,5,0,0,1,.51-1.62c.39-.84,1.27-2.09,1.8-3.47a6.89,6.89,0,0,0,.46-1.85,4.42,4.42,0,0,0,0-.77v-.25a6.14,6.14,0,0,0,0-.65,9.31,9.31,0,0,0-.44-2,19,19,0,0,0-1.84-3.87l-1.41-2.34a14,14,0,0,1-2-5.88A4.35,4.35,0,0,1,83.34,89.43Z"/><path class="cls-3" d="M97,86.79a7.36,7.36,0,0,0-4.4,1.83A7.16,7.16,0,0,0,91,90.69a6.72,6.72,0,0,0-.74,3,12.27,12.27,0,0,0,.81,4.47c.25.74.63,1.7,1.07,2.7s.89,2,1.24,3a15.5,15.5,0,0,1,.71,2.41,9.71,9.71,0,0,1,.15,1,8,8,0,0,1,0,.82,7.06,7.06,0,0,1-.35,2c-.25.79-.66,1.71-1,2.69a12.37,12.37,0,0,0-.85,3,7.05,7.05,0,0,0,.15,2.56,10,10,0,0,0,.65,1.82c.47,1,.87,1.62,1.12,2.07.53.89,1,1.66,1.34,2.36a7.62,7.62,0,0,1,.61,2.16,4.58,4.58,0,0,1-.27,2.16A3.3,3.3,0,0,1,94,130.52a4.77,4.77,0,0,0,2.69-3.82,7.73,7.73,0,0,0-.1-2.61,17.75,17.75,0,0,0-1-2.78c-.2-.47-.51-1.15-.82-2a8.64,8.64,0,0,1-.38-1.48,4.76,4.76,0,0,1,0-1.72,11.63,11.63,0,0,1,.83-2.36c.39-.89.87-1.86,1.2-2.86a9,9,0,0,0,.5-2.72c0-.35,0-.63,0-.82l0-.3a9.8,9.8,0,0,0-.19-1.28,15.51,15.51,0,0,0-.89-2.84c-.86-2.1-2.1-4.23-2.63-5.53a11.71,11.71,0,0,1-1.1-3.7,6.59,6.59,0,0,1,1.07-4.53A5.08,5.08,0,0,1,97,86.79Z"/><path class="cls-3" d="M105.07,89.88a5.54,5.54,0,0,0-2.56,4,9.25,9.25,0,0,0,1,5.49c.16.33.37.76.69,1.35s.74,1.37,1.21,2.37a9.87,9.87,0,0,1,.91,2.84,5.39,5.39,0,0,1,0,1.21,4.92,4.92,0,0,1-.09.51s0,.17-.11.45a9.9,9.9,0,0,1-.38,1.12c-.34.91-.89,2.08-1.23,3a11.88,11.88,0,0,0-.64,2.32,6.91,6.91,0,0,0,0,2.08,6.08,6.08,0,0,0,.42,1.52c.17.4.33.7.46,1,1.07,1.92,2.15,3,2.35,4.4a3.53,3.53,0,0,1-.26,2.09A2.52,2.52,0,0,1,105,127a3.82,3.82,0,0,0,3-3.51c.24-1.78-.68-3.5-1.37-5.28a6.16,6.16,0,0,1-.45-1.85,5.31,5.31,0,0,1,.13-1.36,11.21,11.21,0,0,1,.63-1.8c.33-.78.91-1.92,1.32-3a10.44,10.44,0,0,0,.47-1.4c.1-.37.14-.61.14-.61a6,6,0,0,0,.12-.76,7.35,7.35,0,0,0,0-1.86,9.77,9.77,0,0,0-.57-2.06,14.38,14.38,0,0,0-.76-1.56c-.62-1.1-1.13-1.82-1.5-2.38l-.8-1.21a10.71,10.71,0,0,1-1.88-4.45,4.54,4.54,0,0,1,.18-2.16A3.66,3.66,0,0,1,105.07,89.88Z"/><path class="cls-3" d="M115.76,89.43a6.26,6.26,0,0,0-2.85,3.81,9.72,9.72,0,0,0,.34,5.55,14.37,14.37,0,0,0,.6,1.47c.28.63.69,1.43,1.2,2.47a23.08,23.08,0,0,1,1.46,3.49,7.36,7.36,0,0,1,.29,1.51,2.71,2.71,0,0,1,0,.45v.16a2.61,2.61,0,0,1,0,.5,5,5,0,0,1-.29,1.2c-.34.95-1.17,2.24-1.63,3.38a6.82,6.82,0,0,0-.6,2.52,7.43,7.43,0,0,0,.25,2,15.26,15.26,0,0,0,.86,2.28c.44,1,.86,1.75,1.16,2.48a6.37,6.37,0,0,1,.45,2.15,4.09,4.09,0,0,1-.47,2.1,3.07,3.07,0,0,1-1.84,1.45,4.53,4.53,0,0,0,3.18-3.43,6.63,6.63,0,0,0,.14-2.65,19.93,19.93,0,0,0-.72-2.83,16.75,16.75,0,0,1-.52-2,4.57,4.57,0,0,1,.46-3c.39-.84,1.26-2.09,1.8-3.47a7.22,7.22,0,0,0,.45-1.85,4,4,0,0,0,0-.77v-.25a4.26,4.26,0,0,0,0-.65,9.22,9.22,0,0,0-.43-2,19.57,19.57,0,0,0-1.84-3.87l-1.42-2.34c-.33-.55-.52-.91-.67-1.21a11.75,11.75,0,0,1-1.35-4.67A4.39,4.39,0,0,1,115.76,89.43Z"/><path class="cls-3" d="M129.41,86.79A7.36,7.36,0,0,0,125,88.62a7.16,7.16,0,0,0-1.59,2.07,6.85,6.85,0,0,0-.75,3,12.6,12.6,0,0,0,.82,4.47c.25.74.63,1.7,1.07,2.7s.89,2,1.24,3a15.5,15.5,0,0,1,.71,2.41,7.83,7.83,0,0,1,.14,1,5.52,5.52,0,0,1,0,.82,6.39,6.39,0,0,1-.35,2c-.24.79-.65,1.71-1,2.69a12.37,12.37,0,0,0-.85,3,7.05,7.05,0,0,0,.15,2.56,10,10,0,0,0,.65,1.82c.47,1,.87,1.62,1.12,2.07.53.89,1,1.66,1.33,2.36a7.34,7.34,0,0,1,.62,2.16,4.58,4.58,0,0,1-.27,2.16,3.28,3.28,0,0,1-1.64,1.69,4.77,4.77,0,0,0,2.69-3.82,7.48,7.48,0,0,0-.1-2.61,16.78,16.78,0,0,0-1-2.78c-.19-.47-.5-1.15-.81-2a8.62,8.62,0,0,1-.39-1.48,5,5,0,0,1,0-1.72,11,11,0,0,1,.83-2.36c.39-.89.87-1.86,1.2-2.86a9.69,9.69,0,0,0,.5-2.72c0-.35,0-.63,0-.82l0-.3a9.8,9.8,0,0,0-.19-1.28,16.33,16.33,0,0,0-.89-2.84c-.86-2.1-2.1-4.23-2.64-5.53a11.86,11.86,0,0,1-1.09-3.7,6.59,6.59,0,0,1,1.06-4.53A5.1,5.1,0,0,1,129.41,86.79Z"/><path class="cls-3" d="M137.5,89.88a5.51,5.51,0,0,0-2.56,4,9.17,9.17,0,0,0,1,5.49c.16.33.37.76.68,1.35s.74,1.37,1.22,2.37a9.56,9.56,0,0,1,.9,2.84,4.41,4.41,0,0,1,0,1.21,3.85,3.85,0,0,1-.08.51s0,.17-.11.45a9.9,9.9,0,0,1-.38,1.12c-.34.91-.9,2.08-1.23,3a11.93,11.93,0,0,0-.65,2.32,7.25,7.25,0,0,0,0,2.08,6.51,6.51,0,0,0,.43,1.52,9.58,9.58,0,0,0,.46,1c1.07,1.92,2.15,3,2.35,4.4a3.53,3.53,0,0,1-.26,2.09A2.52,2.52,0,0,1,137.4,127a3.82,3.82,0,0,0,3-3.51c.24-1.78-.68-3.5-1.37-5.28a6.16,6.16,0,0,1-.45-1.85,5.31,5.31,0,0,1,.13-1.36,11.21,11.21,0,0,1,.63-1.8c.33-.78.9-1.92,1.32-3a12.1,12.1,0,0,0,.47-1.4c.1-.37.14-.61.14-.61a6,6,0,0,0,.12-.76,7.35,7.35,0,0,0,0-1.86,9.22,9.22,0,0,0-.58-2.06,12.86,12.86,0,0,0-.75-1.56c-.62-1.1-1.13-1.82-1.5-2.38l-.8-1.21a10.74,10.74,0,0,1-1.89-4.45,4.68,4.68,0,0,1,.19-2.16A3.61,3.61,0,0,1,137.5,89.88Z"/><path class="cls-8" d="M46.43,0C17,9.78-15.24,40.51,9.94,83.87h0a1.59,1.59,0,0,1-.62,2.06C6.39,87.87,5,91.24,6.12,94.16c1.27,3.31,5.63,5.7,10,5.48,7.94-.4,13.87-8.13,21.65-6.83s9.71,10.75,17.44,12.56c10.59,2.48,18.07-11.36,29-10.29,9.22.91,14.63,12.08,23.57,10.07,6.25-1.41,8-8.55,14.17-10.13,5.37-1.38,10.51,2.14,15.34,4.47s13.12,2.46,14.15-1.92c.52-2.23-1.34-4.31-2.32-6.44s.84-5.35.84-5.35c12.82-23.24,11.24-49.6-10.25-68.43a85,85,0,0,0-28.34-16"/><path class="cls-3" d="M46.43,0A93.72,93.72,0,0,0,37,3.65c-.51.25-1.3.59-2.24,1.08l-1.54.79-.46.24c-.3.15-.59.32-.88.48l-1.77,1C29,8,27.77,8.66,26.61,9.44a77.83,77.83,0,0,0-6.93,5.17A61.66,61.66,0,0,0,7.5,28.45a51.42,51.42,0,0,0-4.38,8.67A49.43,49.43,0,0,0,.54,46.74,49.43,49.43,0,0,0,.09,56.85,52.1,52.1,0,0,0,1.71,66.91c.36,1.66,1,3.26,1.46,4.89S4.38,75,5,76.54s1.39,3.1,2.19,4.58l1.2,2.23.54,1a.4.4,0,0,1,0,.34.51.51,0,0,1-.11.16L8.75,85l-.2.15a10.16,10.16,0,0,0-1.1.86,9.1,9.1,0,0,0-1.77,2.18,7.66,7.66,0,0,0-.92,5.59,8.46,8.46,0,0,0,3.16,4.59,12.73,12.73,0,0,0,4.81,2.23,13.61,13.61,0,0,0,2.62.33,17.08,17.08,0,0,0,2.59-.21,20.48,20.48,0,0,0,4.76-1.49c3-1.3,5.55-3,8.19-4a14.16,14.16,0,0,1,3.92-1.1,9.76,9.76,0,0,1,3.78.31,10.29,10.29,0,0,1,3.29,1.73,23.62,23.62,0,0,1,2.79,2.7,37.56,37.56,0,0,0,5.72,5.77,12.5,12.5,0,0,0,3.69,1.88,11.74,11.74,0,0,0,4,.58,16.42,16.42,0,0,0,7-1.92,50.43,50.43,0,0,0,5.28-3.17,41.68,41.68,0,0,1,8.14-4.63,12.47,12.47,0,0,1,5.47-.87c.63.06,1.11.17,1.43.22a2.34,2.34,0,0,1,.48.1l.48.15a8.43,8.43,0,0,1,1.39.5,24.14,24.14,0,0,1,5,3c1.07.77,2.23,1.66,3.59,2.62a25.62,25.62,0,0,0,4.8,2.78,11.46,11.46,0,0,0,6.64.73,12.18,12.18,0,0,0,6.39-3.62c1.76-1.72,3.23-3.66,5-5a8.59,8.59,0,0,1,6.45-1.78,22.71,22.71,0,0,1,7.4,2.64c1.27.64,2.54,1.33,3.92,2a18.69,18.69,0,0,0,9.43,1.51,9.2,9.2,0,0,0,1.26-.21,8.4,8.4,0,0,0,1.25-.36,9.29,9.29,0,0,0,1.25-.57,5.77,5.77,0,0,0,1.15-.9,5.12,5.12,0,0,0,.93-1.22,5.8,5.8,0,0,0,.28-.73,2.73,2.73,0,0,0,.19-.76,5.57,5.57,0,0,0-.43-2.91,17.52,17.52,0,0,0-1.17-2.25l-.57-1a6.2,6.2,0,0,1-.41-.87c-.6-2.23,1.56-5.22,2.92-8.19.69-1.51,1.3-3.07,2-4.61s1.08-3.17,1.62-4.76a56.07,56.07,0,0,0,2.24-20.14,49.53,49.53,0,0,0-5.55-19.37A54.61,54.61,0,0,0,141.2,18a62.85,62.85,0,0,0-7.37-5.81c-1.27-.86-2.55-1.69-3.84-2.46-.65-.38-1.29-.77-1.94-1.13l-1.64-.9C124,6.42,121.88,5.47,120.84,5c-3.85-1.7-6.12-2.47-9.43-3.63a84.13,84.13,0,0,1,9.29,3.93c1,.5,3.06,1.5,5.46,2.89l1.6.94c.64.37,1.26.78,1.89,1.17q1.89,1.21,3.75,2.54a63.84,63.84,0,0,1,7.12,5.92A54.36,54.36,0,0,1,152.05,34a48.45,48.45,0,0,1,5,18.84,54.72,54.72,0,0,1-2.45,19.42c-.55,1.53-1.06,3.08-1.63,4.59s-1.26,3-1.94,4.44l-2.23,4.31a11.39,11.39,0,0,0-.92,2.53,6,6,0,0,0,0,2.95,7.9,7.9,0,0,0,.58,1.31l.6,1.07a15.84,15.84,0,0,1,1,2,3.27,3.27,0,0,1,.27,1.7,1.3,1.3,0,0,1-.11.37,2.24,2.24,0,0,1-.14.36,2.57,2.57,0,0,1-.49.62,5.93,5.93,0,0,1-3.5,1.32,15,15,0,0,1-4.18-.17A15.67,15.67,0,0,1,138,98.42c-1.27-.6-2.54-1.3-3.83-2a24.61,24.61,0,0,0-8.25-3,11.75,11.75,0,0,0-4.46.3,11.21,11.21,0,0,0-3.87,2c-2.23,1.69-3.73,3.7-5.33,5.22a9.49,9.49,0,0,1-5,2.89,8.66,8.66,0,0,1-5.11-.59c-3.13-1.38-5.62-3.56-7.83-5.11a26.59,26.59,0,0,0-5.59-3.29,10.65,10.65,0,0,0-1.66-.6l-.58-.17a2.73,2.73,0,0,0-.6-.14c-.4,0-1-.19-1.77-.26a15.08,15.08,0,0,0-6.65,1,43.76,43.76,0,0,0-8.68,4.91,51.34,51.34,0,0,1-5,3,13.86,13.86,0,0,1-5.8,1.64,9,9,0,0,1-3.1-.45A9.79,9.79,0,0,1,52,102.39,37.17,37.17,0,0,1,46.64,97a25.79,25.79,0,0,0-3.14-3,13,13,0,0,0-4.18-2.16,12.23,12.23,0,0,0-4.82-.37,16.89,16.89,0,0,0-4.6,1.3C27,94,24.41,95.68,21.69,96.88s-5.61,2-8.42,1.3a10.3,10.3,0,0,1-3.9-1.76A6.17,6.17,0,0,1,7,93.18a5.28,5.28,0,0,1,.63-3.89A6.75,6.75,0,0,1,9,87.63,6.86,6.86,0,0,1,9.83,87l.3-.22.37-.34a3,3,0,0,0,.54-.88A2.68,2.68,0,0,0,11,83.44l-.64-1.17L9.14,80.11c-.8-1.44-1.45-3-2.18-4.42s-1.29-3-1.85-4.58S4,68,3.63,66.4a51.53,51.53,0,0,1-1.7-9.68A48.72,48.72,0,0,1,2.2,47a48.45,48.45,0,0,1,2.33-9.33,49.78,49.78,0,0,1,4.09-8.51A61.08,61.08,0,0,1,20.27,15.29,79.44,79.44,0,0,1,27,10c1.13-.8,2.29-1.54,3.43-2.27l1.72-1.05c.29-.16.57-.35.86-.5l.45-.25L35,5.09c.92-.51,1.7-.87,2.2-1.14A73.11,73.11,0,0,1,46.43,0Z"/><path class="cls-9" d="M32.26,13.09C21.61,18.65,14.22,27,12,30.69A5.31,5.31,0,0,0,10.9,34a2.86,2.86,0,0,0,2.76,2.26c6.22.41,5.4-12.54,24.85-21.11"/><path class="cls-3" d="M32.26,13.09a18.06,18.06,0,0,0-6.4,2.78c-.4.29-1.08.71-2.4,1.72A59,59,0,0,0,12.53,28.22a19.36,19.36,0,0,0-2.08,3.3,5.51,5.51,0,0,0-.5,1.89,3.37,3.37,0,0,0,.41,1.87A3.71,3.71,0,0,0,12.43,37a3.42,3.42,0,0,0,.94.22,4.77,4.77,0,0,0,.78,0,4.54,4.54,0,0,0,2.08-.59c1.63-.92,2.82-2.79,4.1-4.69a51.47,51.47,0,0,1,4.31-5.8,35.37,35.37,0,0,1,4.89-4.6,39.91,39.91,0,0,1,3.4-2.37,50.48,50.48,0,0,0,5.58-4A16.84,16.84,0,0,0,32,17.58a36.67,36.67,0,0,0-3.57,2.47,37.26,37.26,0,0,0-5.15,4.84,54.55,54.55,0,0,0-4.45,6c-1.26,1.93-2.44,3.57-3.46,4.11a2.87,2.87,0,0,1-1.74.34,2.22,2.22,0,0,1-.53-.12A1.93,1.93,0,0,1,12,34.37a2.29,2.29,0,0,1,.17-2.08A16.38,16.38,0,0,1,14,29.35,57.35,57.35,0,0,1,24.58,19.08c1.28-1,1.94-1.39,2.33-1.68A41.86,41.86,0,0,0,32.26,13.09Z"/><path class="cls-10" d="M136.24,19.58c3.88,2.94,10.71,10.67,12.43,14.66a5.93,5.93,0,0,1,.63,3.52,2.87,2.87,0,0,1-2.79,2.17c-5.81.07-5.64-14.56-21.85-24.52"/><path class="cls-3" d="M136.24,19.58a59.08,59.08,0,0,0,4.33,5.33c.32.35.85.91,1.91,2.13a54.74,54.74,0,0,1,3.52,4.5,20.89,20.89,0,0,1,1.67,2.78,6.48,6.48,0,0,1,.77,2.81,1.88,1.88,0,0,1-1.08,1.67,2.15,2.15,0,0,1-1.72,0,3.19,3.19,0,0,1-1.09-.78,2.37,2.37,0,0,1-.28-.3l-.09-.11a12.24,12.24,0,0,1-1.06-1.54c-.63-1-1.42-2.54-2.34-4.26s-2-3.61-3.22-5.37a41.7,41.7,0,0,0-3.65-4.65,38.76,38.76,0,0,0-3.11-3,15.9,15.9,0,0,0-6.14-3.37,68.25,68.25,0,0,0,4.91,4.77,38.1,38.1,0,0,1,3,2.9A38.88,38.88,0,0,1,136,27.52a59.73,59.73,0,0,1,3.12,5.21c.92,1.7,1.72,3.24,2.4,4.34a14.89,14.89,0,0,0,1.22,1.76l.11.14c.08.09.19.22.36.39a5.11,5.11,0,0,0,1.72,1.2,4,4,0,0,0,3.22-.07,3.9,3.9,0,0,0,1.5-1.28,3.71,3.71,0,0,0,.65-2,8.07,8.07,0,0,0-.95-3.69,21.13,21.13,0,0,0-1.82-3.06,56.32,56.32,0,0,0-3.64-4.65c-1.09-1.25-1.64-1.83-2-2.19A16.25,16.25,0,0,0,136.24,19.58Z"/></symbol><symbol id="Aquatic_Female_body2" data-name="Aquatic_Female_body2" viewBox="0 0 118.56 178.94"><path class="cls-1" d="M49.83,62.44c3.85-.81,5.11-2.62,5.73-4.83s.84-5-.86-6.54l4.18-9.62,3.74,10.43A9,9,0,0,0,62.71,59c1,2,3.14,2.84,5.4,2.81L73,63S75.9,77.65,60.66,77.86C38.81,78.16,49.83,62.44,49.83,62.44Z"/><path class="cls-2" d="M91,90.55c11,2.92,19.47,8.27,27.53,16.3l-3.37-1.26C107.9,101,99,99.85,88.53,99.38a3.47,3.47,0,0,1-3-2.08c-1.91-4.42-6.5-15.14-8.87-21.62,0,0-.92-3.05-.63.49,1.15,14-1.77,23.89-7.44,34.1-4.05,7.3-8.9,10.81-14.34,17.16s-10.68,13.12-13.32,21c-1.89,5.67,0,13.34,2.94,20,1.18,2.67,1.34,4.11,4.81,8.16-1.05.1-4.42-4.3-4.42-4.3a44.32,44.32,0,0,1-9-28.16A48.51,48.51,0,0,1,45.54,115c2.34-3,5.15-5.92,5.64-9.67.55-4.15-1.87-8-3.73-11.76a39.85,39.85,0,0,1-4.61-17.54c-.05-2.31-.89-.38-.89-.38-2.37,6.48-7,17.2-8.88,21.62a3.46,3.46,0,0,1-3,2.08c-10.44.47-19.37,1.63-26.67,6.21L0,106.85c8.06-8,16.53-13.38,27.53-16.3a1.49,1.49,0,0,0,1-.81c2.84-7.53,5.95-15.82,9.83-23.19a12.16,12.16,0,0,1,3.7-4.26c1.51-1,3.75-1.23,5.07,0,0,0-3.81,6.39,4.75,6.61,1.8,0,15.43-.67,17.37-.67,4.91,0,2.18-5.94,2.18-5.94,1.32-1.27,3.55-1.07,5.06,0a12.08,12.08,0,0,1,3.71,4.26c4,7.53,7.12,16,10,23.67C90.39,90.71,91,90.55,91,90.55Z"/><path class="cls-3" d="M54.7,51.07a4.5,4.5,0,0,1,.64,1.76,10.05,10.05,0,0,1,.11,2,9.3,9.3,0,0,1-.2,1.64c-.06.34-.28,1.15-.28,1.15a9.3,9.3,0,0,1-.36,1,4.83,4.83,0,0,1-1.38,1.8,20.69,20.69,0,0,1-3.4,2,5.65,5.65,0,0,0,5.8-3.37A10.44,10.44,0,0,0,56,57.93s.25-.87.31-1.25a10.83,10.83,0,0,0,.22-1.82A3.94,3.94,0,0,0,54.7,51.07Z"/><path class="cls-3" d="M62.62,51.88a6,6,0,0,0-1.24,4.06,9.07,9.07,0,0,0,.29,1.84c0,.2.2.67.2.67a5.34,5.34,0,0,0,.24.6,4.89,4.89,0,0,0,1.76,2.19,4.5,4.5,0,0,0,2.2.8,6,6,0,0,0,2-.2,14.4,14.4,0,0,1-1.85-.6,8.18,8.18,0,0,1-1.75-.91,3.86,3.86,0,0,1-1.37-1.73c-.09-.18-.21-.52-.21-.52s-.14-.41-.18-.59a7.9,7.9,0,0,1-.25-1.61A21.9,21.9,0,0,1,62.62,51.88Z"/><path class="cls-4" d="M55.17,68.64s-3.47,2.85-7.12,1-2.72-8.32,2.81-8.77C48,63,48.23,66.4,49.36,67.57s4-3.21,6.09-1.81c3.59,2.36,5.23.87,7.5,0s5,3,6.1,1.81,1.38-4.58-1.51-6.73c5.54.45,6.48,6.88,2.82,8.77s-7.13-1-7.13-1h0a5.38,5.38,0,0,1-7.9.17Z"/><path class="cls-3" d="M43.23,68.78a12,12,0,0,0-.9,4.08c0,.23,0,.58,0,1v.71c0,.32,0,.64,0,1l0,1.12c0,.76.08,1.54.16,2.33a38.47,38.47,0,0,0,2.34,9.93c.63,1.67,1.37,3.33,2.16,5s1.67,3.18,2.37,4.77a14.69,14.69,0,0,1,1.34,4.83,8.91,8.91,0,0,1-.88,4.56c-1.32,2.78-3.4,4.91-4.91,6.93a46.33,46.33,0,0,0-3.39,5c-.73,1.25-1.1,2-1.1,2l-.27.52c-.19.34-.44.85-.74,1.51a48.09,48.09,0,0,0-2.24,5.62,49.89,49.89,0,0,0-2,8.5A48.24,48.24,0,0,0,36.85,159,49.5,49.5,0,0,0,38.64,164c.35.78.68,1.55,1.06,2.29l.55,1.1c.18.33.35.66.53,1,.53,1,1.06,1.8,1.29,2.21a12.61,12.61,0,0,0,1.32,1.75,19.84,19.84,0,0,0,1.47,1.36,18.64,18.64,0,0,0-.8-1.82,15.55,15.55,0,0,0-1-1.88c-.23-.4-.73-1.17-1.26-2.16-.17-.32-.34-.64-.52-1l-.53-1.07c-.37-.72-.69-1.48-1-2.24a47.35,47.35,0,0,1-1.76-4.82,47.88,47.88,0,0,1-2-10.36,47,47,0,0,1,.31-10.07A49.56,49.56,0,0,1,38.2,130a46.2,46.2,0,0,1,2.19-5.49c.29-.64.54-1.14.72-1.47l.26-.51s.36-.71,1.08-1.93a46.12,46.12,0,0,1,3.31-4.89c1.47-2,3.6-4.11,5.05-7.14a10.18,10.18,0,0,0,1-5.11,15.8,15.8,0,0,0-1.43-5.2c-.73-1.66-1.6-3.24-2.39-4.83s-1.5-3.2-2.12-4.83a37.21,37.21,0,0,1-2.27-9.65c-.08-.77-.12-1.53-.16-2.26l0-1.09c0-.32,0-.63,0-.94v-.7c0-.43,0-.77,0-1A20.24,20.24,0,0,0,43.23,68.78Z"/><path class="cls-3" d="M74.86,67.64a17.11,17.11,0,0,0,.07,4.15c0,.23.07.57.12,1,0,.21.06.44.09.7s.08.69.12,1.05.07.81.11,1.23c.06.83.16,1.68.18,2.55a58.5,58.5,0,0,1-.38,11.2A52,52,0,0,1,72.28,101a71.82,71.82,0,0,1-4.94,10.22,46.36,46.36,0,0,1-5.84,7.58l-4.64,4.85-1.71,1.86s-.62.67-1.67,1.9-2.54,3-4.26,5.22a68.68,68.68,0,0,0-5.47,8.1,47.11,47.11,0,0,0-2.47,5.09,29.48,29.48,0,0,0-1,2.78c-.12.49-.28,1-.38,1.48l-.24,1.52a29.52,29.52,0,0,0,1.68,12,45.75,45.75,0,0,0,2.25,5.45c.43.86.88,1.69,1.32,2.51l.7,1.19.34.58.31.48c.63,1,1.14,1.75,1.43,2.12a12,12,0,0,0,2.95,3,21.07,21.07,0,0,0-2-3.6c-.28-.36-.78-1.14-1.39-2.08l-.3-.47-.34-.57-.68-1.16c-.43-.8-.87-1.61-1.29-2.45a44.77,44.77,0,0,1-2.19-5.31,28.26,28.26,0,0,1-1.63-11.57,19.83,19.83,0,0,1,1.55-5.48,44.61,44.61,0,0,1,2.42-4.95,67.56,67.56,0,0,1,5.37-8c1.71-2.2,3.19-4,4.23-5.18S56,126.26,56,126.26l1.69-1.83,4.65-4.86a47.75,47.75,0,0,0,6-7.76,72.75,72.75,0,0,0,5-10.4,53.19,53.19,0,0,0,3-11.74,60.77,60.77,0,0,0,.38-11.41c0-.89-.12-1.75-.18-2.59,0-.42-.08-.84-.11-1.25s-.09-.71-.13-1.06-.06-.49-.08-.71c-.06-.43-.1-.78-.13-1A14,14,0,0,0,74.86,67.64Z"/><path class="cls-3" d="M47.13,62.33a3,3,0,0,0-1.67-1.24,4.07,4.07,0,0,0-2.38.08,5.39,5.39,0,0,0-1.69.91A12.49,12.49,0,0,0,38.67,65a14.77,14.77,0,0,0-1.15,2c-.35.67-.69,1.34-1,2-1.27,2.6-2.21,4.79-2.21,4.79s-.81,1.83-1.78,4.18-2.09,5.24-2.88,7.3l-.9,2.39a14.89,14.89,0,0,0-.93,4,14.91,14.91,0,0,0,2-3.66c.16-.39.44-1.15.91-2.38.79-2.05,1.9-4.93,2.87-7.27s1.76-4.16,1.76-4.16.94-2.17,2.2-4.74c.32-.65.65-1.31,1-2a14.51,14.51,0,0,1,1.07-1.87A11.56,11.56,0,0,1,42.07,63a4.4,4.4,0,0,1,1.37-.74,6.12,6.12,0,0,1,1.89-.33A3.49,3.49,0,0,1,47.13,62.33Z"/><path class="cls-3" d="M27.53,90.55a12.86,12.86,0,0,0-4.13.66l-1.66.59a59.53,59.53,0,0,0-5.86,2.56c-2,1-3.56,2-3.56,2l-.86.54c-.54.32-1.27.81-2.09,1.36-1.62,1.12-3.52,2.57-4.82,3.68-1,.85-1.61,1.4-1.93,1.68A13,13,0,0,0,0,106.85a17.77,17.77,0,0,0,3.36-2.42c.32-.27.92-.81,1.91-1.65,1.28-1.09,3.15-2.52,4.74-3.62.8-.54,1.51-1,2-1.34l.85-.53s1.54-.93,3.49-1.93a61,61,0,0,1,5.74-2.51l1.63-.58A18.75,18.75,0,0,0,27.53,90.55Z"/><path class="cls-3" d="M42,75.68a16.37,16.37,0,0,0-2,3.65c-.24.61-.73,1.83-1.33,3.32-1,2.47-2.21,5.37-3.38,8.14-.59,1.38-1.16,2.74-1.7,4-.27.62-.52,1.22-.77,1.78A3.84,3.84,0,0,1,32,97.89a3,3,0,0,1-1.87.92l-.92,0s-1.37.06-3.49.21-5,.4-8,.89a47.08,47.08,0,0,0-8.61,2.2c-1.08.41-1.95.77-2.37,1a10.6,10.6,0,0,0-3.41,2.45,28,28,0,0,0,3.87-1.43c.41-.2,1.25-.55,2.3-1a46.83,46.83,0,0,1,8.4-2.14c2.95-.48,5.79-.74,7.9-.89s3.47-.2,3.47-.2l1-.06a4.07,4.07,0,0,0,2.59-1.27,5.13,5.13,0,0,0,1-1.64c.25-.57.5-1.17.77-1.79.54-1.25,1.11-2.61,1.7-4,1.18-2.77,2.39-5.68,3.39-8.16.6-1.49,1.09-2.72,1.33-3.33A14.32,14.32,0,0,0,42,75.68Z"/><path class="cls-3" d="M71.43,62.33a3.47,3.47,0,0,1,1.8-.43,6.12,6.12,0,0,1,1.89.33,4.4,4.4,0,0,1,1.37.74A11.32,11.32,0,0,1,79,65.6,13.46,13.46,0,0,1,80,67.47c.35.67.68,1.33,1,2,1.26,2.57,2.2,4.74,2.2,4.74S84,76,85,78.35s2.08,5.22,2.87,7.27c.46,1.23.75,2,.9,2.38a15.27,15.27,0,0,0,2,3.66,14.89,14.89,0,0,0-.93-4l-.9-2.39c-.79-2.06-1.91-5-2.88-7.3s-1.78-4.18-1.78-4.18S83.32,71.55,82,69c-.31-.65-.65-1.32-1-2a14.77,14.77,0,0,0-1.15-2,12.3,12.3,0,0,0-2.73-2.88,5.28,5.28,0,0,0-1.68-.91,4.07,4.07,0,0,0-2.38-.08A3,3,0,0,0,71.43,62.33Z"/><path class="cls-3" d="M91,90.55a18.5,18.5,0,0,0,3.77,1.72l1.62.58a60,60,0,0,1,5.75,2.51c2,1,3.49,1.93,3.49,1.93l.85.53c.53.32,1.24.8,2,1.34,1.59,1.1,3.46,2.53,4.73,3.62,1,.84,1.6,1.38,1.92,1.65a17.45,17.45,0,0,0,3.36,2.42,13.27,13.27,0,0,0-2.62-3.25c-.32-.28-.92-.83-1.93-1.68-1.3-1.11-3.21-2.56-4.83-3.68-.81-.55-1.54-1-2.08-1.36l-.86-.54s-1.58-1-3.56-2a59.59,59.59,0,0,0-5.87-2.56l-1.66-.59A12.76,12.76,0,0,0,91,90.55Z"/><path class="cls-3" d="M76.61,75.68a14,14,0,0,0,1,4.06c.24.61.73,1.84,1.33,3.33,1,2.48,2.21,5.39,3.38,8.16l1.7,4L84.75,97a5.13,5.13,0,0,0,1,1.64,4.07,4.07,0,0,0,2.58,1.27l1,.06s1.36,0,3.47.2,5,.41,7.9.89a46.83,46.83,0,0,1,8.4,2.14c1,.4,1.89.75,2.3,1a27.94,27.94,0,0,0,3.86,1.43,10.44,10.44,0,0,0-3.4-2.45c-.42-.21-1.29-.57-2.37-1a47.08,47.08,0,0,0-8.61-2.2c-3-.49-5.88-.75-8-.89s-3.5-.21-3.5-.21l-.92,0a3,3,0,0,1-1.87-.92,4.2,4.2,0,0,1-.75-1.33c-.24-.56-.5-1.16-.76-1.78-.54-1.25-1.11-2.61-1.7-4-1.17-2.77-2.38-5.67-3.38-8.14-.6-1.49-1.09-2.71-1.33-3.32A16.37,16.37,0,0,0,76.61,75.68Z"/><path class="cls-5" d="M60,.53C50.67,1.15,39.67,5.8,35.91,21c-.06.25-.12.54-.18.88-2.38,13.73,7.76,29.3,21.69,29.81l2.84.11c12.85.47,24-12.54,24.4-25.39a30.9,30.9,0,0,0,0-3.48C83.36,9.67,71.6,1.33,62.22.6Z"/><path class="cls-6" d="M51.68,28.74c.73,1.21,3.78,3.72,4.94,4.8a3.36,3.36,0,0,0,2.24,1A3.76,3.76,0,0,0,61,33.8c1.66-1.15,4.35-3,5.35-4.46l1.47-1.79c-1.67,2.42-5.13,4-8.64,4s-6.92-1.7-8.51-4.15"/><path class="cls-7" d="M43.15,22.54a16.23,16.23,0,0,1,3.43-2A7.27,7.27,0,0,1,48.13,20l.28-.07.15,0,.14,0a10.73,10.73,0,0,1,2.39-.11c1.64.12,2.58.17,4,.32a7.33,7.33,0,0,0-4-1.43,11.17,11.17,0,0,0-2.64.11l-.15,0a.8.8,0,0,0-.17,0l-.32.07a8.07,8.07,0,0,0-1.76.58A5.53,5.53,0,0,0,43.15,22.54Z"/><path class="cls-7" d="M62.84,20.36a22.93,22.93,0,0,1,4-.1,15.67,15.67,0,0,1,1.67.14l.48.07.44.09a13.53,13.53,0,0,1,2.33.69,15.08,15.08,0,0,1,3.49,1.9,5.33,5.33,0,0,0-3.06-2.93,13.84,13.84,0,0,0-2.54-.76l-.47-.09-.51-.08a13.4,13.4,0,0,0-1.81-.14A6,6,0,0,0,62.84,20.36Z"/><path class="cls-7" d="M50.66,27.38a4.38,4.38,0,0,0,1.54,2.14,7.53,7.53,0,0,0,.92.65,12.15,12.15,0,0,0,6.08,1.71h.62a11.55,11.55,0,0,0,1.51-.17,11.73,11.73,0,0,0,3.5-1.17,10.36,10.36,0,0,0,1.39-.87,4.45,4.45,0,0,0,1.59-2.11c-.71.59-1.19.92-2,1.55a9.38,9.38,0,0,1-1.3.81A11.58,11.58,0,0,1,61.21,31a11.79,11.79,0,0,1-1.42.16H59.2a10.85,10.85,0,0,1-2.31-.26,11.1,11.1,0,0,1-3.4-1.35,8.58,8.58,0,0,1-.87-.6C51.82,28.33,51.35,28,50.66,27.38Z"/><path class="cls-7" d="M51.68,28.74a5.28,5.28,0,0,0,1.49,2.15l.8.75L56.57,34a3.89,3.89,0,0,0,1.47.85,2.71,2.71,0,0,0,.73.11,3.21,3.21,0,0,0,.62,0,4,4,0,0,0,1.37-.53c.94-.61,2-1.36,2.73-1.92s1.06-.83,1.26-1a5.19,5.19,0,0,0,1.59-2.09c-.72.58-1.23.87-2,1.56-.2.17-.58.48-1.23,1s-1.8,1.33-2.66,1.88a2.82,2.82,0,0,1-1.62.48,2.1,2.1,0,0,1-.55-.1,3.16,3.16,0,0,1-1.21-.7l-2.59-2.31-.79-.73C52.88,29.65,52.36,29.34,51.68,28.74Z"/></symbol></defs><g id="SEA_1"><use width="138.15" height="102" transform="translate(84.45 8.05)" xlink:href="#Aquatic_female_hair_3"/><use width="159" height="130.52" transform="translate(72.15 141.42)" xlink:href="#Aquatic_female_body_2"/><use width="118.56" height="178.94" transform="translate(93.22 56.5)" xlink:href="#Aquatic_Female_body2"/></g></svg>