<svg xmlns="http://www.w3.org/2000/svg" xmlns:xlink="http://www.w3.org/1999/xlink" viewBox="0 0 300 300"><defs><style>.cls-1{fill:url(#radial-gradient);}.cls-2{fill:url(#radial-gradient-2);}.cls-3{fill:#e0e0e0;}.cls-4{fill:#f87bff;stroke-width:0.7px;}.cls-4,.cls-5{stroke:#dbdbdb;stroke-miterlimit:10;}.cls-5{stroke-width:1.05px;fill:url(#radial-gradient-3);}.cls-6{fill:#fff;}.cls-7{fill:#202020;}.cls-8{fill:url(#New_Gradient_Swatch_13);}.cls-9{fill:url(#New_Gradient_Swatch_13-2);}.cls-10{fill:url(#New_Gradient_Swatch_13-3);}.cls-11{fill:url(#New_Gradient_Swatch_13-4);}</style><radialGradient id="radial-gradient" cx="59.06" cy="58.08" fx="68.4084767524565" r="17.05" gradientTransform="translate(0 -6.01)" gradientUnits="userSpaceOnUse"><stop offset="0.11" stop-color="#3d8eff"/><stop offset="0.16" stop-color="#459aff"/><stop offset="0.24" stop-color="#59b9ff"/><stop offset="0.36" stop-color="#7bebff"/><stop offset="0.38" stop-color="#81f4ff"/></radialGradient><radialGradient id="radial-gradient-2" cx="61.55" cy="118.61" fx="157.32463258174812" fy="181.79080560020424" r="114.74" gradientTransform="translate(0 -6.01)" gradientUnits="userSpaceOnUse"><stop offset="0.31" stop-color="#ff30ff"/><stop offset="0.33" stop-color="#f73cff"/><stop offset="0.39" stop-color="#e45bff"/><stop offset="0.45" stop-color="#c38dff"/><stop offset="0.54" stop-color="#97d2ff"/><stop offset="0.57" stop-color="#81f4ff"/></radialGradient><radialGradient id="radial-gradient-3" cx="59.93" cy="25.86" r="27.02" gradientTransform="translate(0 -6.01)" gradientUnits="userSpaceOnUse"><stop offset="0.75" stop-color="#81f4ff"/><stop offset="1" stop-color="#3d8eff"/></radialGradient><radialGradient id="New_Gradient_Swatch_13" cx="427.2" cy="-852.97" fx="459.3284316696811" fy="-832.2598196481241" r="43.27" gradientTransform="matrix(0.99, -0.07, 0.08, 0.99, -324.69, 889.33)" gradientUnits="userSpaceOnUse"><stop offset="0.52" stop-color="#fff"/><stop offset="0.59" stop-color="#f7feff"/><stop offset="0.69" stop-color="#e3fdff"/><stop offset="0.81" stop-color="#c1faff"/><stop offset="0.95" stop-color="#92f5ff"/><stop offset="1" stop-color="#81f4ff"/></radialGradient><radialGradient id="New_Gradient_Swatch_13-2" cx="23597.62" cy="856.28" fx="23629.74530530299" fy="876.9875076284535" r="43.27" gradientTransform="matrix(-0.99, -0.07, -0.08, 0.99, 23650.22, 889.33)" xlink:href="#New_Gradient_Swatch_13"/><radialGradient id="New_Gradient_Swatch_13-3" cx="96.37" cy="298.86" fx="154.8434854780357" fy="336.55982969928635" r="78.75" gradientTransform="translate(0 -252.87) scale(1 1.05)" xlink:href="#New_Gradient_Swatch_13"/><radialGradient id="New_Gradient_Swatch_13-4" cx="36.64" cy="29.61" fx="71.9721462125914" fy="52.38388684507284" r="47.58" gradientTransform="translate(0 -5.96)" xlink:href="#New_Gradient_Swatch_13"/><symbol id="Aquatic_female_body_12" data-name="Aquatic_female_body_12" viewBox="0 0 192.99 133.09"><path class="cls-8" d="M29.53,18.82a23.39,23.39,0,0,0-23,6.84,23,23,0,0,0-4,23.48C4.27,43,6,39.86,11.91,37.44c12.9-5.25,14.92-8.51,14.92-8.51a1.53,1.53,0,0,1,.4,2.26C13.91,48.44,20.16,49.64,10.54,55.94c8.18.69,16.53-2.45,21.71-8.16S40,35,37.82,27.68l.38,0c9.6-.52,31.59-1.58,30.41-21.6C44.58,2.29,29.53,18.82,29.53,18.82Z"/><path class="cls-3" d="M29.53,18.82a12.1,12.1,0,0,0-6.85-1.62c-.37,0-.91,0-1.55.12l-1,.13-.28.05-1.31.25a25.73,25.73,0,0,0-4.31,1.39,23.17,23.17,0,0,0-4.11,2.24,21.48,21.48,0,0,0-3.67,3.09,20.67,20.67,0,0,0-3,3.87,21.56,21.56,0,0,0-2.08,4.43A23,23,0,0,0,.23,37.52a22.26,22.26,0,0,0-.17,4.82c0,.8.16,1.59.26,2.38l.23,1.16.06.29a2.53,2.53,0,0,0,.09.34l.31,1c.22.66.39,1.29.64,2s.49,1.34.73,2l.18.5,0,.11s0,.13,0,0l.08-.27L3,50.73c.22-.73.43-1.46.65-2.19.17-.58.34-1.16.53-1.68l.16-.48L4.53,46c.19-.52.41-1,.64-1.5a11.33,11.33,0,0,1,1.68-2.61,13.26,13.26,0,0,1,4.93-3.38,90.71,90.71,0,0,0,10.1-4.75,33.18,33.18,0,0,0,3.65-2.35c.25-.2.5-.38.73-.58l.17-.15.08-.07s0,0,0,0h0s0,0,0,0l-.18.25c-.06.08-.08.11,0,0l-.36.49a77.27,77.27,0,0,0-6.05,9c-.82,1.44-1.52,2.87-2.14,4.24s-1.12,2.72-1.62,3.91a12.2,12.2,0,0,1-1.79,3l-.53.61-.59.55a6,6,0,0,1-.59.53l-.73.58L9.48,55.61l-1.11.82-.28.2-.13.1h.16l.68,0c.88,0,1.8.11,2.56.12l2.22.05a29.15,29.15,0,0,0,7.07-1.1c.72-.2,1.22-.38,1.55-.5l.49-.17s.44-.16,1.27-.5a27.28,27.28,0,0,0,3.45-1.77A26.17,26.17,0,0,0,36.94,42.8a20.93,20.93,0,0,0,2.56-9.19c0-.43,0-.87,0-1.3A11.71,11.71,0,0,0,39.41,31a11.81,11.81,0,0,0-.18-1.33L39.11,29l0-.14v-.11c0-.08-.07-.24-.05-.2l.59,0,2.71-.18a58.19,58.19,0,0,0,11.3-1.84,25,25,0,0,0,10.78-5.73A16,16,0,0,0,68,15.53a18.88,18.88,0,0,0,1.49-6.2c0-.52.06-1.05.06-1.58l0-2.2c0-.11,0-.29,0-.34l-.38,0-.74-.08-1-.11-1.54-.17-1.53-.16-1.54,0c-1,0-2.05,0-3.07,0A47.37,47.37,0,0,0,47.9,6.69c-.92.32-1.85.62-2.75.95L42.52,8.76c-.86.4-1.69.83-2.52,1.25-.42.19-.81.44-1.21.67l-1,.57c-1.65,1-2.95,1.89-3.58,2.37a15.51,15.51,0,0,0-4.68,5.2c2.1-1.28,3.5-2,5.77-3.69.61-.46,1.87-1.32,3.45-2.27l1-.55c.39-.22.76-.46,1.17-.65.8-.39,1.59-.81,2.42-1.2l2.53-1.07c.86-.32,1.75-.6,2.64-.91a45.28,45.28,0,0,1,11.3-2c1,0,2,0,2.95,0l1.47,0,1.48.16,1.48.16.53.06h0V7l0,.74c0,.48,0,1-.06,1.45a15.3,15.3,0,0,1-4.57,10.23,23.23,23.23,0,0,1-10,5.27,57,57,0,0,1-11,1.78l-2.67.17-2,.13-.65,0s-.12,0-.15,0l0,.14.07.29L37,28.37l.14.56.07.28,0,.17.11.6a9.87,9.87,0,0,1,.16,1.2,7.93,7.93,0,0,1,.08,1.19,9.15,9.15,0,0,1,0,1.17,19,19,0,0,1-2.35,8.38,26,26,0,0,1-4.4,5.93,22.86,22.86,0,0,1-4.44,3.47A27.76,27.76,0,0,1,23.23,53L22,53.44l-.45.16c-.31.1-.78.28-1.46.46a27.42,27.42,0,0,1-6.56,1h-.26l.53-.42c.23-.17.44-.38.66-.58l.66-.63.63-.72a14,14,0,0,0,2.06-3.48c.53-1.26,1-2.56,1.61-3.89s1.27-2.7,2.07-4.09a75.3,75.3,0,0,1,5.91-8.8c-.18.23.09-.12.35-.48-.07.09-.05.07,0,0a4.13,4.13,0,0,0,.37-.53c-.11.2-.17.27-.13.22a2.4,2.4,0,0,0,.27-.51,2.48,2.48,0,0,0-.63-2.75,1.48,1.48,0,0,0-.4-.27l-.41.09a7.44,7.44,0,0,0-.88.25l-.57.59-.15.14-.07.06-.15.13c-.19.17-.43.34-.65.52A32.44,32.44,0,0,1,21,32.13,89.74,89.74,0,0,1,11,36.8a15.14,15.14,0,0,0-5.61,3.86,13.62,13.62,0,0,0-1.95,3c-.25.54-.49,1.08-.7,1.64l-.16.41-.11.34h0s0,0,0-.07v-.05l-.1-.46-.21-1.07C2.08,43.68,2,43,1.93,42.22a22.5,22.5,0,0,1,1.21-8.83,20.44,20.44,0,0,1,8-10.46,21.17,21.17,0,0,1,3.79-2.06,23.06,23.06,0,0,1,4-1.29l1.22-.24.25,0,1-.12a13.81,13.81,0,0,1,1.43-.12C25.51,18.94,27.07,18.83,29.53,18.82Z"/><path class="cls-9" d="M163.46,16.71a23.39,23.39,0,0,1,23,6.84,23,23,0,0,1,4,23.48c-1.73-6.15-3.43-9.28-9.38-11.7-12.89-5.26-14.91-8.51-14.91-8.51a1.52,1.52,0,0,0-.41,2.25c13.33,17.26,7.07,18.46,16.7,24.76-8.19.68-16.53-2.45-21.72-8.16s-7.72-12.79-5.57-20.1l-.38,0c-9.6-.52-31.59-1.58-30.4-21.6C148.42.17,163.46,16.71,163.46,16.71Z"/><path class="cls-3" d="M163.46,16.71c2.46,0,4,.12,6.76.24.34,0,.84,0,1.43.11l1,.13c.08,0,.17,0,.26,0l1.21.24a23.91,23.91,0,0,1,4,1.28,21.82,21.82,0,0,1,3.79,2.06,19.82,19.82,0,0,1,3.37,2.84,18.84,18.84,0,0,1,2.71,3.55,20.28,20.28,0,0,1,1.92,4.08,22.5,22.5,0,0,1,1.21,8.83c0,.74-.15,1.46-.24,2.19l-.22,1.06-.1.47v.05c0,.09,0,.08,0,.07h0l-.12-.34-.16-.42c-.21-.55-.45-1.1-.7-1.64a13.44,13.44,0,0,0-1.95-3,15.25,15.25,0,0,0-5.6-3.87A87.23,87.23,0,0,1,172,30a31.66,31.66,0,0,1-3.45-2.21c-.22-.19-.45-.35-.65-.52l-.15-.13-.07-.06-.15-.14-.57-.59a6.94,6.94,0,0,0-.88-.25l-.41-.1a1.51,1.51,0,0,0-.39.27,2.47,2.47,0,0,0-.64,2.75,3.53,3.53,0,0,0,.28.52s0,0-.14-.23a3.84,3.84,0,0,0,.37.54c.06.09.08.11,0,0,.27.35.53.71.36.47a77.52,77.52,0,0,1,5.91,8.81c.79,1.39,1.46,2.76,2.06,4.09s1.08,2.63,1.62,3.89a13.67,13.67,0,0,0,2.06,3.48l.62.72.67.63a7.09,7.09,0,0,0,.65.58l.53.42h-.26a27.31,27.31,0,0,1-6.56-1,14,14,0,0,1-1.46-.46l-.45-.15-1.18-.48a25.2,25.2,0,0,1-3.22-1.64,23,23,0,0,1-4.44-3.47,26.22,26.22,0,0,1-4.41-5.93,19,19,0,0,1-2.34-8.38,11.42,11.42,0,0,1,0-1.17,9.39,9.39,0,0,1,.08-1.19,9.87,9.87,0,0,1,.16-1.2l.11-.61,0-.16.07-.28.14-.56.28-1.12.07-.28,0-.14s-.1,0-.15,0l-.65,0-2-.13-2.67-.17a56.94,56.94,0,0,1-10.94-1.78,23.12,23.12,0,0,1-10-5.28,15.25,15.25,0,0,1-4.56-10.22c0-.48-.06-1-.07-1.46l0-.73c0-.18,0-.09,0-.11h0l.54,0,1.47-.16,1.48-.17,1.48,0c1,0,2,0,2.94,0a45.28,45.28,0,0,1,11.3,2c.89.31,1.78.59,2.64.91l2.54,1.07c.82.38,1.62.8,2.42,1.2.4.19.78.43,1.16.64l1,.56c1.59.95,2.84,1.81,3.45,2.26,2.27,1.66,3.67,2.42,5.77,3.7a15.51,15.51,0,0,0-4.68-5.2,42.88,42.88,0,0,0-3.58-2.37l-1-.58c-.4-.22-.79-.47-1.21-.67-.83-.41-1.66-.84-2.51-1.24l-2.64-1.12c-.9-.34-1.83-.63-2.75-1a47.2,47.2,0,0,0-11.8-2.08c-1,0-2,0-3.06,0l-1.55,0-1.53.17-1.54.17-1,.1-.75.08-.38.05c-.08,0,0,.23-.05.34l0,2.2c0,.52,0,1.05.07,1.58a19.12,19.12,0,0,0,1.48,6.2,16.07,16.07,0,0,0,3.65,5.23,24.93,24.93,0,0,0,10.77,5.73,59.08,59.08,0,0,0,11.3,1.84l2.71.18.59,0s0,.12,0,.2l0,.07v0l0,.15-.12.67a11.81,11.81,0,0,0-.18,1.33,11.69,11.69,0,0,0-.09,1.31c0,.44,0,.88,0,1.31a20.72,20.72,0,0,0,2.57,9.18,26.2,26.2,0,0,0,9.52,10.12A27.27,27.27,0,0,0,169,52.57l1.26.5.49.17c.33.11.84.3,1.56.49a28.44,28.44,0,0,0,7.06,1.11l2.22-.05c.76,0,1.68-.08,2.56-.12l.68,0H185l-.13-.1-.27-.2-1.12-.82-2.43-1.78-.73-.59a7.08,7.08,0,0,1-.59-.52l-.58-.55-.54-.62a11.65,11.65,0,0,1-1.78-3c-.51-1.19-1-2.52-1.62-3.91s-1.32-2.8-2.15-4.25a79,79,0,0,0-6.05-9l-.36-.48c.07.1,0,.07,0,0a2.46,2.46,0,0,1-.18-.24s0,0,0,0h0s0,0,0,0l.09.07.17.14c.22.2.47.38.72.59a34.2,34.2,0,0,0,3.65,2.34,88.88,88.88,0,0,0,10.1,4.76,13.36,13.36,0,0,1,4.93,3.37,11.39,11.39,0,0,1,1.68,2.62c.23.48.45,1,.64,1.49l.15.39.16.47c.2.53.36,1.11.53,1.69s.44,1.46.65,2.19l.32,1.1.08.27c0,.09,0,0,0,0l.05-.12.18-.49.72-2c.25-.67.43-1.3.64-2l.31-1a2.53,2.53,0,0,0,.09-.34l.06-.29.23-1.17a23.22,23.22,0,0,0,.27-2.37,24.77,24.77,0,0,0-1.31-9.57,22.39,22.39,0,0,0-2.08-4.43,20.82,20.82,0,0,0-3-3.87,21.16,21.16,0,0,0-3.67-3.1A23.77,23.77,0,0,0,178.8,17a24.74,24.74,0,0,0-4.3-1.39l-1.31-.25-.28-.05-1-.13c-.64-.1-1.18-.09-1.55-.12A12.1,12.1,0,0,0,163.46,16.71Z"/><path class="cls-10" d="M106.51,18.51c.49,32-10.92,40.64-12.44,54.66A28.31,28.31,0,0,0,107.84,100c8.08,4.69,21.78,4.07,32.1.24a1.13,1.13,0,0,1,1.16,1.84l-1.52,1.75a1.17,1.17,0,0,0,.16,1.68l2.79,2.16a1.17,1.17,0,0,1-.2,2l-4.23,2a1.16,1.16,0,0,0-.4,1.74l2.51,3.31a1.16,1.16,0,0,1-.63,1.82l-3.77.86a1.15,1.15,0,0,0-.63,1.8l1.6,2.18a1.15,1.15,0,0,1-.78,1.83l-4.29.36a1.12,1.12,0,0,0-1,1.2l.21,3.67a1.08,1.08,0,0,1-1.95.75c-10-13.76-42.63-16.49-51.34-20.62C68.07,106,59.41,99.12,54.54,89.91,48,77.6,48.88,58.47,56.16,46.67c10.37-16.79,32.09-17,32.58-33.59L99.11,2.49Z"/><path class="cls-3" d="M106.51,18.51c-.47,1.84-.83,3.36-1.08,5a46.7,46.7,0,0,0-.65,5.45c0,.78-.21,2.06-.37,3.61l-.06.6,0,.15,0,.45a5.93,5.93,0,0,1-.07.59c-.13.78-.25,1.57-.38,2.36a75.64,75.64,0,0,1-2.2,9.66,99.53,99.53,0,0,1-3.54,9.78c-1.34,3.28-2.84,6.61-4,10.19a31,31,0,0,0-1.57,11.27,28.6,28.6,0,0,0,2.92,11c3.3,6.76,9,12.19,15.67,14.51a35.35,35.35,0,0,0,9.82,1.69,51.67,51.67,0,0,0,9-.51,52.29,52.29,0,0,0,7.88-1.76l.89-.28.55-.19h0l0,0-.53.61-.2.24a2.82,2.82,0,0,0-.55,1,2.6,2.6,0,0,0,.72,2.65l2.1,1.64.5.39h0l-.12-.1.12.1h0l-1.69.81c-1.07.52-1.39.67-.28.14l-1.7.82a2.58,2.58,0,0,0-1.57,2.73,2.9,2.9,0,0,0,.7,1.5l.52.69,1,1.34.49.66,0,0h0l-.75.17-1.45.33-.74.16a3.14,3.14,0,0,0-1.28.49,2.61,2.61,0,0,0-1.08,2.22,2.7,2.7,0,0,0,.36,1.2,6.3,6.3,0,0,0,.37.53l.2.28.74,1,.15.21h-.13l-.47,0-3.18.27a2.48,2.48,0,0,0-1.63.83,2.52,2.52,0,0,0-.54,1c-.1.47-.13.41.07-.21a2.58,2.58,0,0,1,.87-1.11,2.36,2.36,0,0,1,1-.43c.2,0,.42-.06.63-.08l.35,0-.77.06a2.59,2.59,0,0,0-1,.36,2.57,2.57,0,0,0-1.15,1.7,1.8,1.8,0,0,0-.05.52,2.35,2.35,0,0,0,0,.26v.2l0,.52c0,.34,0,.67.06,1s0,.55.05.8h0l-.09-.11a6.08,6.08,0,0,0-.39-.47l-.82-.87c-.54-.58-1.12-1.06-1.66-1.56s-1.12-.92-1.68-1.31a43.42,43.42,0,0,0-6.16-3.68,77.33,77.33,0,0,0-8.49-3.46c-2-.68-3.2-1-3.91-1.25l-.91-.28s-2.75-.84-7.68-2.06c-2.46-.61-5.47-1.31-8.92-2.12-1.72-.41-3.55-.84-5.45-1.36a28.9,28.9,0,0,1-5.68-2,57,57,0,0,1-11.72-7.54,41.62,41.62,0,0,1-9.94-12,36.4,36.4,0,0,1-3-7.73,47.8,47.8,0,0,1-1.3-8.54,50,50,0,0,1,.25-8.89,44.19,44.19,0,0,1,1.87-8.84,36.81,36.81,0,0,1,3.71-8.24,33.5,33.5,0,0,1,5.86-6.9c4.52-4.12,10.05-7.06,15.36-10.49a33.79,33.79,0,0,0,7.42-6.15,16.6,16.6,0,0,0,3.91-8.94l.08-1.05s0,0,0,0-.06,0,.13-.14L91.82,12l3.05-3.12,3-3.07.74-.75c.09-.09.07-.08.07-.08h0l2.12,4.56a38.68,38.68,0,0,0,5.72,9,38.69,38.69,0,0,0-3.13-10.17c-.6-1.32-1.82-4-3.3-7.18L99.92.81,99.7.34,99.59.1s0-.1-.06-.1l-.09.09L98,1.6,95.82,3.79l-3,3.07L89.76,10c-.51.53-1,1-1.55,1.58l-.64.66-.19.2c-.07.06,0,.18,0,.26l0,.57-.09,1.17A13.66,13.66,0,0,1,84,21.83a31.09,31.09,0,0,1-6.8,5.6C72,30.75,66.3,33.78,61.44,38.2a35.53,35.53,0,0,0-6.36,7.51,39.5,39.5,0,0,0-4,8.9,47,47,0,0,0-2,9.37,52.79,52.79,0,0,0-.27,9.39,50.62,50.62,0,0,0,1.39,9.09,40,40,0,0,0,3.21,8.37A44.36,44.36,0,0,0,64,103.62a59.5,59.5,0,0,0,12.3,7.92c.49.25,1,.49,1.58.72s1.07.41,1.58.58c1,.35,2,.63,3,.9,2,.52,3.81,1,5.55,1.37,3.46.82,6.44,1.51,8.88,2.11,4.88,1.21,7.56,2,7.56,2l.89.27c.69.21,1.88.56,3.81,1.23a70,70,0,0,1,8.16,3.32,39.18,39.18,0,0,1,5.73,3.41c.52.36,1,.78,1.52,1.19s1,.87,1.47,1.37l.71.76c.13.13.23.28.34.41l.64.81a2.5,2.5,0,0,0,1.66,1,2.46,2.46,0,0,0,1.88-.47,2.44,2.44,0,0,1-1.73.49,1.77,1.77,0,0,1-.55-.12,1.75,1.75,0,0,0,.48.11,2.46,2.46,0,0,0,1.41-.23,2.6,2.6,0,0,0,1.34-1.67,5.54,5.54,0,0,0,0-1.59c0-.33,0-.67-.06-1s-.06-1-.09-1.57h0l.36,0-.35,0s0,0,0,0h0l2.83-.24.47,0,.35,0a4.07,4.07,0,0,0,.49,0,2.47,2.47,0,0,0,1.61-1,2.63,2.63,0,0,0,.51-1.92,2.47,2.47,0,0,0-.37-1c-.1-.17-.22-.32-.34-.49l-.21-.28-.74-1-.18-.25h0l.68-.15,1.45-.33.75-.17a3.22,3.22,0,0,0,1.39-.54,2.6,2.6,0,0,0,1-2.65,2.76,2.76,0,0,0-.28-.72c-.13-.21-.33-.47-.45-.63l-.5-.66c-.5-.66-1-1.34-1.54-2h0l1.54-.74c-1.11.53-.78.38.28-.14l.93-.44.55-.27.37-.17a6.55,6.55,0,0,0,.58-.32,2.58,2.58,0,0,0,1.11-2.3,2.56,2.56,0,0,0-1-1.86l-.48-.38.47.37a2.64,2.64,0,0,1,.33.31l.09.11a2.53,2.53,0,0,0-.55-.52l-.72-.57-1.72-1.32h0l.06-.06.53-.61c.23-.29.68-.74.94-1.13a2.55,2.55,0,0,0,.44-1.21,2.68,2.68,0,0,0-1.05-2.33,2.62,2.62,0,0,0-2.76-.17l-1.14.39c-.27.1-.55.18-.83.26a49.27,49.27,0,0,1-16,2.15,32.44,32.44,0,0,1-9-1.54c-.74-.23-1.45-.56-2.17-.86a22.1,22.1,0,0,1-2.05-1.15,26,26,0,0,1-3.87-3,27.91,27.91,0,0,1-7.73-12.87,25.77,25.77,0,0,1,.61-15.31c1.06-3.35,2.53-6.63,3.89-10a103.47,103.47,0,0,0,3.64-10,78.1,78.1,0,0,0,2.28-10l.39-2.45c0-.2.06-.4.07-.6l.05-.47,0-.16.06-.61c.16-1.6.33-2.92.37-3.72a32.68,32.68,0,0,0-.11-5.62C107.29,21.89,107,20.33,106.51,18.51Z"/></symbol><symbol id="Aquatic_female_hair_2" data-name="Aquatic_female_hair_2" viewBox="0 0 73.02 61.24"><path class="cls-11" d="M51.43,3A35.11,35.11,0,0,1,64.3,11.89C74.12,22.12,74.83,36.44,69,49.06A4.55,4.55,0,0,0,68.6,52c.45,1.16,1.3,2.29,1.06,3.5-.47,2.38-4.26,2.31-6.47,1s-4.55-3.17-7-2.42c-2.83.86-3.62,4.74-6.48,5.5-4.08,1.09-6.55-5-10.76-5.47-5-.58-8.43,6.94-13.26,5.59-3.54-1-4.37-6.1-8-6.82s-6.26,3.49-9.89,3.71a4.61,4.61,0,0,1-4.57-3,4.2,4.2,0,0,1,1.46-4.47A1,1,0,0,0,5,48H5C-6.49,24.47,8.23,7.78,21.67,2.46,21.67,2.46,34.51-3.28,51.43,3Z"/><path class="cls-3" d="M51.43,3a28.18,28.18,0,0,1,4.41,2.1,33.59,33.59,0,0,1,4.42,3.11c.45.36,1.11.93,1.91,1.66.39.37.82.78,1.27,1.23l.59.6c.25.26.48.54.72.81.47.56,1,1.09,1.43,1.7L67.52,16l1.21,2a29,29,0,0,1,3.2,9.23,32.35,32.35,0,0,1,0,10.3,38.49,38.49,0,0,1-3,10.12l-.56,1.24a6.93,6.93,0,0,0-.46,1.42,3.57,3.57,0,0,0,0,1.66,10,10,0,0,0,.56,1.36,2.94,2.94,0,0,1,.42,2c-.14.55-.66.87-1.37,1a5.27,5.27,0,0,1-2.26-.1A6.37,6.37,0,0,1,64.13,56c-.18-.08-.33-.18-.5-.26l-.54-.34a14,14,0,0,0-5-2.42,4.92,4.92,0,0,0-3.14.54,7.45,7.45,0,0,0-2.2,1.92c-1.12,1.35-2,2.64-3.07,3s-2.13,0-3.25-.87S44.24,55.53,43,54.56a9.8,9.8,0,0,0-2.11-1.28,6.35,6.35,0,0,0-2.55-.51,8.12,8.12,0,0,0-4.38,1.48c-2.26,1.52-3.88,3.1-5.42,3.81A3.23,3.23,0,0,1,25,57.81a10.32,10.32,0,0,1-1.94-2.17l-.72-1-.22-.29c-.16-.2-.41-.51-.82-.94a6.89,6.89,0,0,0-2-1.49,5.67,5.67,0,0,0-3.93-.33,15.44,15.44,0,0,0-4.11,2.12c-1.32.85-2.79,1.7-4.22,1.47A3.49,3.49,0,0,1,5,54.1a2.5,2.5,0,0,1-.56-2.32,3,3,0,0,1,.63-1.27,3.08,3.08,0,0,1,.25-.27l.2-.18a2.51,2.51,0,0,0,.36-.37,2.34,2.34,0,0,0,.39-.95,3,3,0,0,0,0-.52c0-.08,0-.17,0-.26l0-.06s0,0-.12,0l-.25,0-.51,0c-.15,0-.43.07-.22,0l.57-.28L6,47.55s.13,0,.11-.06l0,0L6,47.25,5.86,47l-.22-.49-.44-1c-.29-.67-.6-1.35-.91-2a44.29,44.29,0,0,1-2-7.38,29.51,29.51,0,0,1,.1-10.71A29.58,29.58,0,0,1,7.6,13.69,33.83,33.83,0,0,1,18.14,4.45a32.07,32.07,0,0,1,3.21-1.61A22.33,22.33,0,0,1,24.7,1.63,37.87,37.87,0,0,1,31.61.33C32.76.21,33.9.16,35,.13h.81c.49,0,1,0,1.43,0L39.73.3l1.72.21c1.07.1,2,.32,2.88.47s1.66.36,2.43.56c1.56.36,3,.88,4.67,1.44-1.7-.56-3.11-1.09-4.66-1.44A25,25,0,0,0,44.33,1c-.87-.15-1.8-.39-2.87-.5L39.73.24,37.27.05c-.45,0-.93,0-1.43,0H35c-.57,0-1.14,0-1.71,0s-1.15,0-1.73.1a38.65,38.65,0,0,0-7,1.15,23.42,23.42,0,0,0-3.43,1.15A30.68,30.68,0,0,0,17.89,4,35.1,35.1,0,0,0,6.78,13.06,30.16,30.16,0,0,0,.28,36.4a44.56,44.56,0,0,0,1.9,7.87c.58,1.41,1.14,2.76,1.66,4h0l-.07.05-.12.11c-.16.15-.32.31-.46.47A5.62,5.62,0,0,0,2,51.16a5.16,5.16,0,0,0,0,2.47A5.11,5.11,0,0,0,3,55.75a6.07,6.07,0,0,0,3.57,2.07,6.58,6.58,0,0,0,3.6-.44,16,16,0,0,0,2.5-1.32,13.26,13.26,0,0,1,3.38-1.76,3.15,3.15,0,0,1,3.23,1.09c.3.32.5.57.64.74l.19.25.69.92c.23.31.51.71.91,1.18a9,9,0,0,0,1.61,1.57,5.64,5.64,0,0,0,2.85,1.15,6.51,6.51,0,0,0,3.5-.63c2.13-1,3.81-2.76,5.72-4a5.62,5.62,0,0,1,2.94-1.1,4.92,4.92,0,0,1,3.07,1.21c1.07.77,2.13,1.84,3.49,2.84a7.7,7.7,0,0,0,2.48,1.25,4.89,4.89,0,0,0,3.09-.16,6,6,0,0,0,2.38-1.77c.61-.68,1.09-1.38,1.58-2,1-1.26,2-2,3.33-1.82a12.57,12.57,0,0,1,4.35,2l.59.34a5.42,5.42,0,0,0,.69.32,7.2,7.2,0,0,0,1.43.45,7,7,0,0,0,3,0,3.76,3.76,0,0,0,1.53-.72,2.72,2.72,0,0,0,1-1.53,3.16,3.16,0,0,0-.05-1.73,8.3,8.3,0,0,0-.57-1.37,9.39,9.39,0,0,1-.52-1.11,2.27,2.27,0,0,1,0-1,5.45,5.45,0,0,1,.33-1.16L70,48.18a40.94,40.94,0,0,0,2.74-10.51,34.07,34.07,0,0,0-.36-10.5A30.66,30.66,0,0,0,69,17.91c-.43-.67-.85-1.33-1.26-2l-1.38-1.83c-.46-.6-1-1.13-1.47-1.68-.25-.27-.48-.55-.74-.8l-.6-.6c-.45-.44-.89-.85-1.28-1.21-.81-.73-1.47-1.29-1.93-1.65a35.57,35.57,0,0,0-4.45-3.08A29.1,29.1,0,0,0,51.43,3Z"/></symbol><symbol id="Aquatic_Female_body2" data-name="Aquatic_Female_body2" viewBox="0 0 118.56 178.94"><path class="cls-1" d="M49.83,62.44c3.85-.81,5.11-2.62,5.73-4.83s.84-5-.86-6.54l4.18-9.62,3.74,10.43A9,9,0,0,0,62.71,59c1,2,3.14,2.84,5.4,2.81L73,63S75.9,77.65,60.66,77.86C38.81,78.16,49.83,62.44,49.83,62.44Z"/><path class="cls-2" d="M91,90.55c11,2.92,19.47,8.27,27.53,16.3l-3.37-1.26C107.9,101,99,99.85,88.53,99.38a3.47,3.47,0,0,1-3-2.08c-1.91-4.42-6.5-15.14-8.87-21.62,0,0-.92-3.05-.63.49,1.15,14-1.77,23.89-7.44,34.1-4.05,7.3-8.9,10.81-14.34,17.16s-10.68,13.12-13.32,21c-1.89,5.67,0,13.34,2.94,20,1.18,2.67,1.34,4.11,4.81,8.16-1.05.1-4.42-4.3-4.42-4.3a44.32,44.32,0,0,1-9-28.16A48.51,48.51,0,0,1,45.54,115c2.34-3,5.15-5.92,5.64-9.67.55-4.15-1.87-8-3.73-11.76a39.85,39.85,0,0,1-4.61-17.54c-.05-2.31-.89-.38-.89-.38-2.37,6.48-7,17.2-8.88,21.62a3.46,3.46,0,0,1-3,2.08c-10.44.47-19.37,1.63-26.67,6.21L0,106.85c8.06-8,16.53-13.38,27.53-16.3a1.49,1.49,0,0,0,1-.81c2.84-7.53,5.95-15.82,9.83-23.19a12.16,12.16,0,0,1,3.7-4.26c1.51-1,3.75-1.23,5.07,0,0,0-3.81,6.39,4.75,6.61,1.8,0,15.43-.67,17.37-.67,4.91,0,2.18-5.94,2.18-5.94,1.32-1.27,3.55-1.07,5.06,0a12.08,12.08,0,0,1,3.71,4.26c4,7.53,7.12,16,10,23.67C90.39,90.71,91,90.55,91,90.55Z"/><path class="cls-3" d="M54.7,51.07a4.5,4.5,0,0,1,.64,1.76,10.05,10.05,0,0,1,.11,2,9.3,9.3,0,0,1-.2,1.64c-.06.34-.28,1.15-.28,1.15a9.3,9.3,0,0,1-.36,1,4.83,4.83,0,0,1-1.38,1.8,20.69,20.69,0,0,1-3.4,2,5.65,5.65,0,0,0,5.8-3.37A10.44,10.44,0,0,0,56,57.93s.25-.87.31-1.25a10.83,10.83,0,0,0,.22-1.82A3.94,3.94,0,0,0,54.7,51.07Z"/><path class="cls-3" d="M62.62,51.88a6,6,0,0,0-1.24,4.06,9.07,9.07,0,0,0,.29,1.84c0,.2.2.67.2.67a5.34,5.34,0,0,0,.24.6,4.89,4.89,0,0,0,1.76,2.19,4.5,4.5,0,0,0,2.2.8,6,6,0,0,0,2-.2,14.4,14.4,0,0,1-1.85-.6,8.18,8.18,0,0,1-1.75-.91,3.86,3.86,0,0,1-1.37-1.73c-.09-.18-.21-.52-.21-.52s-.14-.41-.18-.59a7.9,7.9,0,0,1-.25-1.61A21.9,21.9,0,0,1,62.62,51.88Z"/><path class="cls-4" d="M55.17,68.64s-3.47,2.85-7.12,1-2.72-8.32,2.81-8.77C48,63,48.23,66.4,49.36,67.57s4-3.21,6.09-1.81c3.59,2.36,5.23.87,7.5,0s5,3,6.1,1.81,1.38-4.58-1.51-6.73c5.54.45,6.48,6.88,2.82,8.77s-7.13-1-7.13-1h0a5.38,5.38,0,0,1-7.9.17Z"/><path class="cls-3" d="M43.23,68.78a12,12,0,0,0-.9,4.08c0,.23,0,.58,0,1v.71c0,.32,0,.64,0,1l0,1.12c0,.76.08,1.54.16,2.33a38.47,38.47,0,0,0,2.34,9.93c.63,1.67,1.37,3.33,2.16,5s1.67,3.18,2.37,4.77a14.69,14.69,0,0,1,1.34,4.83,8.91,8.91,0,0,1-.88,4.56c-1.32,2.78-3.4,4.91-4.91,6.93a46.33,46.33,0,0,0-3.39,5c-.73,1.25-1.1,2-1.1,2l-.27.52c-.19.34-.44.85-.74,1.51a48.09,48.09,0,0,0-2.24,5.62,49.89,49.89,0,0,0-2,8.5A48.24,48.24,0,0,0,36.85,159,49.5,49.5,0,0,0,38.64,164c.35.78.68,1.55,1.06,2.29l.55,1.1c.18.33.35.66.53,1,.53,1,1.06,1.8,1.29,2.21a12.61,12.61,0,0,0,1.32,1.75,19.84,19.84,0,0,0,1.47,1.36,18.64,18.64,0,0,0-.8-1.82,15.55,15.55,0,0,0-1-1.88c-.23-.4-.73-1.17-1.26-2.16-.17-.32-.34-.64-.52-1l-.53-1.07c-.37-.72-.69-1.48-1-2.24a47.35,47.35,0,0,1-1.76-4.82,47.88,47.88,0,0,1-2-10.36,47,47,0,0,1,.31-10.07A49.56,49.56,0,0,1,38.2,130a46.2,46.2,0,0,1,2.19-5.49c.29-.64.54-1.14.72-1.47l.26-.51s.36-.71,1.08-1.93a46.12,46.12,0,0,1,3.31-4.89c1.47-2,3.6-4.11,5.05-7.14a10.18,10.18,0,0,0,1-5.11,15.8,15.8,0,0,0-1.43-5.2c-.73-1.66-1.6-3.24-2.39-4.83s-1.5-3.2-2.12-4.83a37.21,37.21,0,0,1-2.27-9.65c-.08-.77-.12-1.53-.16-2.26l0-1.09c0-.32,0-.63,0-.94v-.7c0-.43,0-.77,0-1A20.24,20.24,0,0,0,43.23,68.78Z"/><path class="cls-3" d="M74.86,67.64a17.11,17.11,0,0,0,.07,4.15c0,.23.07.57.12,1,0,.21.06.44.09.7s.08.69.12,1.05.07.81.11,1.23c.06.83.16,1.68.18,2.55a58.5,58.5,0,0,1-.38,11.2A52,52,0,0,1,72.28,101a71.82,71.82,0,0,1-4.94,10.22,46.36,46.36,0,0,1-5.84,7.58l-4.64,4.85-1.71,1.86s-.62.67-1.67,1.9-2.54,3-4.26,5.22a68.68,68.68,0,0,0-5.47,8.1,47.11,47.11,0,0,0-2.47,5.09,29.48,29.48,0,0,0-1,2.78c-.12.49-.28,1-.38,1.48l-.24,1.52a29.52,29.52,0,0,0,1.68,12,45.75,45.75,0,0,0,2.25,5.45c.43.86.88,1.69,1.32,2.51l.7,1.19.34.58.31.48c.63,1,1.14,1.75,1.43,2.12a12,12,0,0,0,2.95,3,21.07,21.07,0,0,0-2-3.6c-.28-.36-.78-1.14-1.39-2.08l-.3-.47-.34-.57-.68-1.16c-.43-.8-.87-1.61-1.29-2.45a44.77,44.77,0,0,1-2.19-5.31,28.26,28.26,0,0,1-1.63-11.57,19.83,19.83,0,0,1,1.55-5.48,44.61,44.61,0,0,1,2.42-4.95,67.56,67.56,0,0,1,5.37-8c1.71-2.2,3.19-4,4.23-5.18S56,126.26,56,126.26l1.69-1.83,4.65-4.86a47.75,47.75,0,0,0,6-7.76,72.75,72.75,0,0,0,5-10.4,53.19,53.19,0,0,0,3-11.74,60.77,60.77,0,0,0,.38-11.41c0-.89-.12-1.75-.18-2.59,0-.42-.08-.84-.11-1.25s-.09-.71-.13-1.06-.06-.49-.08-.71c-.06-.43-.1-.78-.13-1A14,14,0,0,0,74.86,67.64Z"/><path class="cls-3" d="M47.13,62.33a3,3,0,0,0-1.67-1.24,4.07,4.07,0,0,0-2.38.08,5.39,5.39,0,0,0-1.69.91A12.49,12.49,0,0,0,38.67,65a14.77,14.77,0,0,0-1.15,2c-.35.67-.69,1.34-1,2-1.27,2.6-2.21,4.79-2.21,4.79s-.81,1.83-1.78,4.18-2.09,5.24-2.88,7.3l-.9,2.39a14.89,14.89,0,0,0-.93,4,14.91,14.91,0,0,0,2-3.66c.16-.39.44-1.15.91-2.38.79-2.05,1.9-4.93,2.87-7.27s1.76-4.16,1.76-4.16.94-2.17,2.2-4.74c.32-.65.65-1.31,1-2a14.51,14.51,0,0,1,1.07-1.87A11.56,11.56,0,0,1,42.07,63a4.4,4.4,0,0,1,1.37-.74,6.12,6.12,0,0,1,1.89-.33A3.49,3.49,0,0,1,47.13,62.33Z"/><path class="cls-3" d="M27.53,90.55a12.86,12.86,0,0,0-4.13.66l-1.66.59a59.53,59.53,0,0,0-5.86,2.56c-2,1-3.56,2-3.56,2l-.86.54c-.54.32-1.27.81-2.09,1.36-1.62,1.12-3.52,2.57-4.82,3.68-1,.85-1.61,1.4-1.93,1.68A13,13,0,0,0,0,106.85a17.77,17.77,0,0,0,3.36-2.42c.32-.27.92-.81,1.91-1.65,1.28-1.09,3.15-2.52,4.74-3.62.8-.54,1.51-1,2-1.34l.85-.53s1.54-.93,3.49-1.93a61,61,0,0,1,5.74-2.51l1.63-.58A18.75,18.75,0,0,0,27.53,90.55Z"/><path class="cls-3" d="M42,75.68a16.37,16.37,0,0,0-2,3.65c-.24.61-.73,1.83-1.33,3.32-1,2.47-2.21,5.37-3.38,8.14-.59,1.38-1.16,2.74-1.7,4-.27.62-.52,1.22-.77,1.78A3.84,3.84,0,0,1,32,97.89a3,3,0,0,1-1.87.92l-.92,0s-1.37.06-3.49.21-5,.4-8,.89a47.08,47.08,0,0,0-8.61,2.2c-1.08.41-1.95.77-2.37,1a10.6,10.6,0,0,0-3.41,2.45,28,28,0,0,0,3.87-1.43c.41-.2,1.25-.55,2.3-1a46.83,46.83,0,0,1,8.4-2.14c2.95-.48,5.79-.74,7.9-.89s3.47-.2,3.47-.2l1-.06a4.07,4.07,0,0,0,2.59-1.27,5.13,5.13,0,0,0,1-1.64c.25-.57.5-1.17.77-1.79.54-1.25,1.11-2.61,1.7-4,1.18-2.77,2.39-5.68,3.39-8.16.6-1.49,1.09-2.72,1.33-3.33A14.32,14.32,0,0,0,42,75.68Z"/><path class="cls-3" d="M71.43,62.33a3.47,3.47,0,0,1,1.8-.43,6.12,6.12,0,0,1,1.89.33,4.4,4.4,0,0,1,1.37.74A11.32,11.32,0,0,1,79,65.6,13.46,13.46,0,0,1,80,67.47c.35.67.68,1.33,1,2,1.26,2.57,2.2,4.74,2.2,4.74S84,76,85,78.35s2.08,5.22,2.87,7.27c.46,1.23.75,2,.9,2.38a15.27,15.27,0,0,0,2,3.66,14.89,14.89,0,0,0-.93-4l-.9-2.39c-.79-2.06-1.91-5-2.88-7.3s-1.78-4.18-1.78-4.18S83.32,71.55,82,69c-.31-.65-.65-1.32-1-2a14.77,14.77,0,0,0-1.15-2,12.3,12.3,0,0,0-2.73-2.88,5.28,5.28,0,0,0-1.68-.91,4.07,4.07,0,0,0-2.38-.08A3,3,0,0,0,71.43,62.33Z"/><path class="cls-3" d="M91,90.55a18.5,18.5,0,0,0,3.77,1.72l1.62.58a60,60,0,0,1,5.75,2.51c2,1,3.49,1.93,3.49,1.93l.85.53c.53.32,1.24.8,2,1.34,1.59,1.1,3.46,2.53,4.73,3.62,1,.84,1.6,1.38,1.92,1.65a17.45,17.45,0,0,0,3.36,2.42,13.27,13.27,0,0,0-2.62-3.25c-.32-.28-.92-.83-1.93-1.68-1.3-1.11-3.21-2.56-4.83-3.68-.81-.55-1.54-1-2.08-1.36l-.86-.54s-1.58-1-3.56-2a59.59,59.59,0,0,0-5.87-2.56l-1.66-.59A12.76,12.76,0,0,0,91,90.55Z"/><path class="cls-3" d="M76.61,75.68a14,14,0,0,0,1,4.06c.24.61.73,1.84,1.33,3.33,1,2.48,2.21,5.39,3.38,8.16l1.7,4L84.75,97a5.13,5.13,0,0,0,1,1.64,4.07,4.07,0,0,0,2.58,1.27l1,.06s1.36,0,3.47.2,5,.41,7.9.89a46.83,46.83,0,0,1,8.4,2.14c1,.4,1.89.75,2.3,1a27.94,27.94,0,0,0,3.86,1.43,10.44,10.44,0,0,0-3.4-2.45c-.42-.21-1.29-.57-2.37-1a47.08,47.08,0,0,0-8.61-2.2c-3-.49-5.88-.75-8-.89s-3.5-.21-3.5-.21l-.92,0a3,3,0,0,1-1.87-.92,4.2,4.2,0,0,1-.75-1.33c-.24-.56-.5-1.16-.76-1.78-.54-1.25-1.11-2.61-1.7-4-1.17-2.77-2.38-5.67-3.38-8.14-.6-1.49-1.09-2.71-1.33-3.32A16.37,16.37,0,0,0,76.61,75.68Z"/><path class="cls-5" d="M60,.53C50.67,1.15,39.67,5.8,35.91,21c-.06.25-.12.54-.18.88-2.38,13.73,7.76,29.3,21.69,29.81l2.84.11c12.85.47,24-12.54,24.4-25.39a30.9,30.9,0,0,0,0-3.48C83.36,9.67,71.6,1.33,62.22.6Z"/><path class="cls-6" d="M51.68,28.74c.73,1.21,3.78,3.72,4.94,4.8a3.36,3.36,0,0,0,2.24,1A3.76,3.76,0,0,0,61,33.8c1.66-1.15,4.35-3,5.35-4.46l1.47-1.79c-1.67,2.42-5.13,4-8.64,4s-6.92-1.7-8.51-4.15"/><path class="cls-7" d="M43.15,22.54a16.23,16.23,0,0,1,3.43-2A7.27,7.27,0,0,1,48.13,20l.28-.07.15,0,.14,0a10.73,10.73,0,0,1,2.39-.11c1.64.12,2.58.17,4,.32a7.33,7.33,0,0,0-4-1.43,11.17,11.17,0,0,0-2.64.11l-.15,0a.8.8,0,0,0-.17,0l-.32.07a8.07,8.07,0,0,0-1.76.58A5.53,5.53,0,0,0,43.15,22.54Z"/><path class="cls-7" d="M62.84,20.36a22.93,22.93,0,0,1,4-.1,15.67,15.67,0,0,1,1.67.14l.48.07.44.09a13.53,13.53,0,0,1,2.33.69,15.08,15.08,0,0,1,3.49,1.9,5.33,5.33,0,0,0-3.06-2.93,13.84,13.84,0,0,0-2.54-.76l-.47-.09-.51-.08a13.4,13.4,0,0,0-1.81-.14A6,6,0,0,0,62.84,20.36Z"/><path class="cls-7" d="M50.66,27.38a4.38,4.38,0,0,0,1.54,2.14,7.53,7.53,0,0,0,.92.65,12.15,12.15,0,0,0,6.08,1.71h.62a11.55,11.55,0,0,0,1.51-.17,11.73,11.73,0,0,0,3.5-1.17,10.36,10.36,0,0,0,1.39-.87,4.45,4.45,0,0,0,1.59-2.11c-.71.59-1.19.92-2,1.55a9.38,9.38,0,0,1-1.3.81A11.58,11.58,0,0,1,61.21,31a11.79,11.79,0,0,1-1.42.16H59.2a10.85,10.85,0,0,1-2.31-.26,11.1,11.1,0,0,1-3.4-1.35,8.58,8.58,0,0,1-.87-.6C51.82,28.33,51.35,28,50.66,27.38Z"/><path class="cls-7" d="M51.68,28.74a5.28,5.28,0,0,0,1.49,2.15l.8.75L56.57,34a3.89,3.89,0,0,0,1.47.85,2.71,2.71,0,0,0,.73.11,3.21,3.21,0,0,0,.62,0,4,4,0,0,0,1.37-.53c.94-.61,2-1.36,2.73-1.92s1.06-.83,1.26-1a5.19,5.19,0,0,0,1.59-2.09c-.72.58-1.23.87-2,1.56-.2.17-.58.48-1.23,1s-1.8,1.33-2.66,1.88a2.82,2.82,0,0,1-1.62.48,2.1,2.1,0,0,1-.55-.1,3.16,3.16,0,0,1-1.21-.7l-2.59-2.31-.79-.73C52.88,29.65,52.36,29.34,51.68,28.74Z"/></symbol></defs><g id="SEA_1"><use width="192.99" height="133.09" transform="translate(56.45 143.1)" xlink:href="#Aquatic_female_body_12"/><use width="73.02" height="61.24" transform="translate(115.85 52.17)" xlink:href="#Aquatic_female_hair_2"/><use width="118.56" height="178.94" transform="translate(93.22 56.5)" xlink:href="#Aquatic_Female_body2"/></g></svg>