<svg xmlns="http://www.w3.org/2000/svg" xmlns:xlink="http://www.w3.org/1999/xlink" viewBox="0 0 300 300"><defs><style>.cls-1{fill:url(#radial-gradient);}.cls-2{fill:url(#radial-gradient-2);}.cls-3{fill:#e0e0e0;}.cls-12,.cls-13,.cls-14,.cls-15,.cls-16,.cls-4,.cls-8{stroke:#dbdbdb;}.cls-12,.cls-13,.cls-14,.cls-15,.cls-16,.cls-4,.cls-7,.cls-8{stroke-miterlimit:10;}.cls-4{stroke-width:1.5px;fill:url(#radial-gradient-3);}.cls-5{fill:#202020;}.cls-6{fill:#fff;}.cls-7{fill:none;stroke:#000;stroke-width:1.2px;}.cls-8{fill:#29abe2;stroke-width:1.24px;}.cls-9{fill:url(#New_Gradient_Swatch_13);}.cls-10{fill:url(#New_Gradient_Swatch_13-2);}.cls-11{fill:url(#New_Gradient_Swatch_13-3);}.cls-12,.cls-13,.cls-14,.cls-15,.cls-16{stroke-width:0.96px;}.cls-12{fill:url(#radial-gradient-4);}.cls-13{fill:url(#radial-gradient-5);}.cls-14{fill:url(#radial-gradient-6);}.cls-15{fill:url(#radial-gradient-7);}.cls-16{fill:url(#radial-gradient-8);}</style><radialGradient id="radial-gradient" cx="99.93" cy="96.17" fx="116.63529227220099" fy="107.40443202046933" r="30.48" gradientTransform="translate(0 -6.06)" gradientUnits="userSpaceOnUse"><stop offset="0.15" stop-color="#3d8eff"/><stop offset="0.19" stop-color="#459aff"/><stop offset="0.27" stop-color="#59b9ff"/><stop offset="0.36" stop-color="#7bebff"/><stop offset="0.38" stop-color="#81f4ff"/></radialGradient><radialGradient id="radial-gradient-2" cx="104.14" cy="198.06" fx="209.5615571070008" fy="269.51216326197545" r="131.86" gradientTransform="translate(0 -6.06)" gradientUnits="userSpaceOnUse"><stop offset="0.06" stop-color="#3d8eff"/><stop offset="0.16" stop-color="#459aff"/><stop offset="0.33" stop-color="#59b9ff"/><stop offset="0.56" stop-color="#7bebff"/><stop offset="0.6" stop-color="#81f4ff"/></radialGradient><radialGradient id="radial-gradient-3" cx="101.28" cy="41.79" fx="107.81802673187346" r="42.49" gradientTransform="translate(0 -6.06)" gradientUnits="userSpaceOnUse"><stop offset="0.75" stop-color="#81f4ff"/><stop offset="1" stop-color="#3d8eff"/></radialGradient><radialGradient id="New_Gradient_Swatch_13" cx="426.27" cy="-857.57" fx="456.6705431010526" fy="-837.9735600405854" r="40.94" gradientTransform="matrix(0.99, -0.07, 0.08, 0.99, -325.34, 889.57)" gradientUnits="userSpaceOnUse"><stop offset="0.52" stop-color="#fff"/><stop offset="0.59" stop-color="#f7feff"/><stop offset="0.69" stop-color="#e3fdff"/><stop offset="0.81" stop-color="#c1faff"/><stop offset="0.95" stop-color="#92f5ff"/><stop offset="1" stop-color="#81f4ff"/></radialGradient><radialGradient id="New_Gradient_Swatch_13-2" cx="24265.34" cy="903.2" fx="24295.743914297836" fy="922.8007047482782" r="40.94" gradientTransform="matrix(-0.99, -0.07, -0.08, 0.99, 24322.72, 889.57)" xlink:href="#New_Gradient_Swatch_13"/><radialGradient id="New_Gradient_Swatch_13-3" cx="101.62" cy="306.43" fx="168.68371537078377" fy="349.6553396586188" r="90.31" gradientTransform="translate(0 -253.29) scale(1 1.05)" xlink:href="#New_Gradient_Swatch_13"/><radialGradient id="radial-gradient-4" cx="26.85" cy="53.63" fx="90.36747290040601" fy="92.76740358974018" r="79.44" gradientTransform="translate(0 -5.96)" gradientUnits="userSpaceOnUse"><stop offset="0.23" stop-color="#81f4ff"/><stop offset="0.45" stop-color="#3d8eff"/></radialGradient><radialGradient id="radial-gradient-5" cx="12.42" cy="54.87" fx="57.9911984968363" fy="82.9520406682268" r="56.99" xlink:href="#radial-gradient-4"/><radialGradient id="radial-gradient-6" cx="4.79" cy="58.72" fx="32.762793011387714" fy="75.95695574680965" r="34.99" xlink:href="#radial-gradient-4"/><radialGradient id="radial-gradient-7" cx="47.53" cy="57.99" fx="75.50628293319298" fy="75.2276748093358" r="34.99" xlink:href="#radial-gradient-4"/><radialGradient id="radial-gradient-8" cx="41.55" cy="52.21" fx="76.15184305802474" fy="73.52943101015181" r="43.28" xlink:href="#radial-gradient-4"/><symbol id="Aquatic_hair_2" data-name="Aquatic_hair_2" viewBox="0 0 53.08 57.66"><path class="cls-12" d="M22.63,48c-1.52-8.48-2.36-14-3.89-22.49-.83-4.62-1.63-9.57.2-13.87,2.25-5.29,7.78-8,12.88-10.36,1.66-.76,3.91-1.38,5,.1a3.86,3.86,0,0,1,.4,3.38C33.06,18.7,32,33.89,31.75,48"/><path class="cls-13" d="M20.55,47.9c-2.74-6.06-5.34-13.58-8.08-19.65-.93-2-7.7,4.26-6.89,6.14A76.25,76.25,0,0,0,16.13,52"/><path class="cls-14" d="M9.86,53.27c-.41-1.8-2.73-5.59-4.2-7.88A1.57,1.57,0,0,0,3,45.15L1.07,47.4a2.77,2.77,0,0,0-.19,3.16c1.34,2.09,4.44,5.74,6.64,6.66"/><path class="cls-15" d="M43.22,52.54c.42-1.8,2.73-5.59,4.2-7.88a1.57,1.57,0,0,1,2.64-.24L52,46.67a2.77,2.77,0,0,1,.19,3.16c-1.34,2.09-4.43,5.74-6.63,6.66"/><path class="cls-16" d="M36.45,48.34C37.68,42.11,38.87,36,40.2,29.26A1.62,1.62,0,0,1,42.62,28l4,2.62a2.26,2.26,0,0,1,.69,2.77c-2.87,6.35-4.72,10.29-7.52,16.27"/></symbol><symbol id="Aquatic_body_4" data-name="Aquatic_body_4" viewBox="0 0 197.1 150.52"><path class="cls-9" d="M27.91,15.24A22.14,22.14,0,0,0,6.17,21.72,21.76,21.76,0,0,0,2.36,43.93C4,38.12,5.61,35.15,11.23,32.86c12.21-5,14.12-8,14.12-8a1.44,1.44,0,0,1,.38,2.13C13.12,43.27,19,44.4,9.93,50.37a25.36,25.36,0,0,0,20.55-7.73c4.91-5.4,7.31-12.09,5.27-19l.36,0C45.2,23.11,66,22.1,64.88,3.16,42.14-.4,27.91,15.24,27.91,15.24Z"/><path class="cls-3" d="M27.91,15.24a11.19,11.19,0,0,0-6.21-1.51c-.34,0-.83,0-1.42.09l-1,.12-.26,0H19l-.21,0-1,.2a22.17,22.17,0,0,0-4.11,1.28,21.6,21.6,0,0,0-3.94,2.09,21,21,0,0,0-6.37,6.58,21.57,21.57,0,0,0-2,4.2A21.34,21.34,0,0,0,.23,32.87a21.42,21.42,0,0,0-.18,4.59c0,.76.15,1.51.25,2.25.06.37.14.74.22,1.11,0,.19.06.33.13.58l.28.9c.2.61.36,1.17.59,1.81L2.21,46l.17.47,0,.11s0,.09,0,0l.08-.26.3-1c.21-.69.41-1.38.62-2.07.15-.53.34-1.13.49-1.56.09-.25.17-.5.27-.74.19-.49.4-1,.61-1.42A11.27,11.27,0,0,1,6.44,37a12.81,12.81,0,0,1,4.73-3.2,84,84,0,0,0,9.59-4.53A29.13,29.13,0,0,0,24.21,27c.46-.34,1.05-.87,1-.79h0s0,0,0,0a.46.46,0,0,1-.05.1l-.09.13s0,0,.05-.08c-.16.23-.38.52-.24.34l-.31.41a74,74,0,0,0-5.72,8.54,44.59,44.59,0,0,0-2,4c-.58,1.3-1.06,2.56-1.54,3.69a10.55,10.55,0,0,1-1.71,2.87,8.52,8.52,0,0,1-1.06,1.1,5.27,5.27,0,0,1-.56.5l-.67.52-2.3,1.68-1.06.78-.26.19c-.08,0,0,0,.06,0h.16l.65,0,2.44.14c.37,0,.79,0,1.19,0h.77a28.06,28.06,0,0,0,6.65-1.06c.68-.18,1.15-.37,1.46-.47l.46-.16,1.2-.48a25.81,25.81,0,0,0,3.27-1.68,24.84,24.84,0,0,0,9-9.63,19.78,19.78,0,0,0,2.37-8.72,17.42,17.42,0,0,0-.11-2.49c0-.42-.11-.83-.18-1.25l-.11-.62,0-.15,0-.15s0,0,0,0l.73,0,2.57-.18A55.37,55.37,0,0,0,50.9,22.41a23.54,23.54,0,0,0,10.16-5.54,15.47,15.47,0,0,0,3.36-5A18.22,18.22,0,0,0,65.72,6c0-.5.07-1,0-1.5l0-.91,0-.72V2.46c0-.09-.07-.06-.12-.07l-.18,0L61.93,2A20.33,20.33,0,0,0,59,1.84c-1,0-1.94-.08-2.91,0A42.54,42.54,0,0,0,44.93,3.93a46.56,46.56,0,0,0-5.1,2L37.45,7.12,35.37,8.33c-1.48.92-2.67,1.74-3.23,2.18a14.28,14.28,0,0,0-4.23,4.73,60.54,60.54,0,0,0,5.23-3.37c.55-.42,1.69-1.2,3.11-2.09l2-1.16,2.3-1.15a44.13,44.13,0,0,1,4.9-1.92,40.43,40.43,0,0,1,10.72-2c.93-.1,1.87,0,2.8,0a22,22,0,0,1,2.81.14l2.26.25h0v.53a12.83,12.83,0,0,1,0,1.39,14.69,14.69,0,0,1-4.16,9.81,21.83,21.83,0,0,1-9.43,5.12A52.9,52.9,0,0,1,40,22.5l-2.54.17-1.77.11-.58,0-.31,0h-.15l0,.13L35,24l.26,1,.11.59a11.2,11.2,0,0,1,.17,1.14,17.09,17.09,0,0,1,.1,2.25,18.12,18.12,0,0,1-2.18,8,24.51,24.51,0,0,1-4.17,5.66A21.93,21.93,0,0,1,25.06,46,27,27,0,0,1,22,47.57L20.87,48l-.43.15c-.29.09-.73.27-1.37.43a25.4,25.4,0,0,1-6.23,1h-.39l.54-.42a6.27,6.27,0,0,0,.62-.55,10.55,10.55,0,0,0,1.22-1.27,12.15,12.15,0,0,0,2-3.27c.51-1.2,1-2.43,1.54-3.69a41.42,41.42,0,0,1,2-3.88,72.35,72.35,0,0,1,5.59-8.35l.3-.4.28-.38-.09.13a3.48,3.48,0,0,0,.21-.31,1.79,1.79,0,0,0,.18-.39,2.12,2.12,0,0,0,.13-.69,2.28,2.28,0,0,0-.59-1.63c-.21-.21-.49-.53-.83-.34l-.82.2a11.48,11.48,0,0,1-1.46,1.33,27.26,27.26,0,0,1-3.26,2.11,81.59,81.59,0,0,1-9.43,4.45A14.34,14.34,0,0,0,5.16,35.9,12.89,12.89,0,0,0,3.3,38.76c-.24.52-.47,1-.66,1.56-.11.26-.2.53-.29.79,0,.08,0,0,0,0h0l0-.14,0-.09-.1-.46-.21-1c-.08-.69-.2-1.38-.22-2.08a19.57,19.57,0,0,1,.16-4.25,20.15,20.15,0,0,1,1-4.17,18.9,18.9,0,0,1,1.84-3.88,18.33,18.33,0,0,1,2.62-3.37A18.45,18.45,0,0,1,10.63,19a20.86,20.86,0,0,1,3.64-1.93,21.81,21.81,0,0,1,3.82-1.18l1-.19.22,0h.06l.24,0,.88-.11c.54,0,1-.07,1.31-.09C24.25,15.34,25.67,15.25,27.91,15.24Z"/><path class="cls-10" d="M169.2,15.24a22.13,22.13,0,0,1,21.73,6.48,21.76,21.76,0,0,1,3.82,22.21c-1.65-5.81-3.25-8.78-8.88-11.07-12.2-5-14.11-8-14.11-8a1.44,1.44,0,0,0-.39,2.13c12.61,16.33,6.69,17.46,15.8,23.43a25.37,25.37,0,0,1-20.55-7.73c-4.91-5.4-7.3-12.09-5.27-19l-.36,0c-9.08-.49-29.88-1.5-28.76-20.44C155-.4,169.2,15.24,169.2,15.24Z"/><path class="cls-3" d="M169.2,15.24c2.23,0,3.65.1,6.14.18.31,0,.77,0,1.31.09l.89.11.23,0h.06s0,0,.22,0l1,.19a21.55,21.55,0,0,1,3.82,1.18A20.17,20.17,0,0,1,186.47,19a18.45,18.45,0,0,1,3.24,2.69,17.91,17.91,0,0,1,2.62,3.37,19.47,19.47,0,0,1,1.85,3.88,21.65,21.65,0,0,1,1.18,8.42c0,.7-.14,1.39-.23,2.08l-.21,1-.09.46,0,.09,0,.14h0s0,0,0,0c-.09-.26-.19-.53-.29-.79-.2-.53-.43-1-.67-1.56a12.22,12.22,0,0,0-1.86-2.86,14.34,14.34,0,0,0-5.33-3.65,82.39,82.39,0,0,1-9.43-4.45,28.09,28.09,0,0,1-3.26-2.11,11.48,11.48,0,0,1-1.46-1.33l-.82-.2c-.34-.19-.61.13-.82.34a2.25,2.25,0,0,0-.6,1.63,2.12,2.12,0,0,0,.13.69,2.43,2.43,0,0,0,.18.39c.14.22.21.3.21.31l-.09-.13.28.38.3.4a71.24,71.24,0,0,1,5.6,8.35c.75,1.32,1.38,2.62,1.95,3.88s1,2.49,1.53,3.69a12.68,12.68,0,0,0,2,3.27,11.38,11.38,0,0,0,1.22,1.27,7.65,7.65,0,0,0,.62.55l.54.42h-.39a25.3,25.3,0,0,1-6.22-1c-.64-.16-1.09-.34-1.38-.43l-.43-.15-1.12-.45A25.44,25.44,0,0,1,172.05,46a21.63,21.63,0,0,1-4.21-3.31A24.53,24.53,0,0,1,163.66,37a18.11,18.11,0,0,1-2.17-8,14.23,14.23,0,0,1,.1-2.25,8.93,8.93,0,0,1,.16-1.14l.11-.59.26-1,.26-1,0-.13h-.16l-.31,0-.57,0-1.78-.11-2.53-.17a52.9,52.9,0,0,1-10.39-1.72,21.72,21.72,0,0,1-9.43-5.12,14.7,14.7,0,0,1-4.17-9.81c0-.46-.06-.92,0-1.39V3.93h0l2.26-.25a21.88,21.88,0,0,1,2.8-.14c.94,0,1.87-.08,2.8,0a40.58,40.58,0,0,1,10.73,2,45.73,45.73,0,0,1,4.9,1.92l2.29,1.15,2,1.16c1.43.89,2.57,1.67,3.12,2.09a59,59,0,0,0,5.23,3.37A14.28,14.28,0,0,0,165,10.51c-.57-.44-1.75-1.26-3.23-2.18l-2.09-1.21-2.38-1.19a46.39,46.39,0,0,0-5.09-2A42.54,42.54,0,0,0,141,1.86c-1-.1-1.94,0-2.91,0a20.41,20.41,0,0,0-2.92.15l-3.47.38-.18,0c-.05,0-.15,0-.13.07V3.54l0,.91c0,.5,0,1,0,1.5a17.71,17.71,0,0,0,1.3,5.89,15.44,15.44,0,0,0,3.35,5,23.58,23.58,0,0,0,10.17,5.54,55.39,55.39,0,0,0,10.72,1.78l2.57.18.73,0c.08,0,0,0,0,0l0,.15,0,.15-.11.62a10.79,10.79,0,0,0-.19,1.25,19,19,0,0,0-.11,2.49,19.79,19.79,0,0,0,2.38,8.72,24.83,24.83,0,0,0,9,9.63,26.5,26.5,0,0,0,3.27,1.68l1.2.48.46.16c.31.1.79.29,1.47.47a27.86,27.86,0,0,0,6.64,1.06H185c.4,0,.82,0,1.19,0l2.45-.14.64,0h.16c.05,0,.15,0,.06,0l-.26-.19-1.06-.78-2.3-1.68-.66-.52a5.27,5.27,0,0,1-.56-.5,8,8,0,0,1-1.07-1.1,11.07,11.07,0,0,1-1.71-2.87c-.48-1.13-1-2.39-1.53-3.69s-1.25-2.66-2-4a72.7,72.7,0,0,0-5.72-8.54c.16.2-.07-.1-.3-.41.14.18-.09-.11-.25-.34,0,.05.08.11.06.08a.43.43,0,0,1-.09-.13.23.23,0,0,1-.05-.1c0-.05,0,0,0,0h0a11.89,11.89,0,0,0,.95.79,30,30,0,0,0,3.45,2.25,84.18,84.18,0,0,0,9.6,4.53,12.89,12.89,0,0,1,4.72,3.2,10.92,10.92,0,0,1,1.61,2.5c.22.46.43.93.61,1.42.1.24.19.49.27.74.16.43.34,1,.5,1.56.2.69.41,1.38.61,2.07l.3,1,.08.26c0,.08,0,0,0,0l0-.11.17-.47.69-1.9c.24-.64.39-1.2.59-1.81l.29-.9c.07-.25.08-.39.13-.58.07-.37.15-.74.22-1.11a20.91,20.91,0,0,0,.24-2.25,21.41,21.41,0,0,0-.17-4.59,22,22,0,0,0-1.1-4.51,20.48,20.48,0,0,0-2-4.2,19.61,19.61,0,0,0-2.85-3.67,19.88,19.88,0,0,0-3.52-2.91,20.92,20.92,0,0,0-3.93-2.09,22.51,22.51,0,0,0-4.12-1.28l-1-.2-.2,0H178l-.26,0-1-.12c-.59-.06-1.08-.07-1.41-.09A11.17,11.17,0,0,0,169.2,15.24Z"/><path class="cls-11" d="M113.25,19c.57,36.74-12.51,46.6-14.26,62.69-1.31,12,5.12,24.57,15.79,30.78,9.26,5.39,25,4.67,36.81.28a1.29,1.29,0,0,1,1.33,2.11l-1.74,2a1.36,1.36,0,0,0,.18,1.93l3.2,2.48a1.33,1.33,0,0,1-.23,2.23l-4.85,2.34a1.34,1.34,0,0,0-.46,2l2.88,3.79a1.33,1.33,0,0,1-.72,2.09l-4.33,1a1.32,1.32,0,0,0-.72,2.07l1.84,2.5a1.32,1.32,0,0,1-.9,2.1l-4.92.41a1.29,1.29,0,0,0-1.15,1.38l.25,4.21a1.24,1.24,0,0,1-2.24.86c-11.49-15.79-48.89-18.92-58.88-23.65-11-5.2-20.89-13.14-26.48-23.71-7.46-14.12-6.49-36,1.87-49.59C67.4,32,92.31,31.74,92.87,12.77L104.76.62Z"/><path class="cls-3" d="M113.25,19c0,2.28-.07,4.2-.14,6.23s-.3,4.16-.55,6.87L112,36.63c0,.25-.06.49-.11.74q-.35,2-.69,4c-.36,1.82-.8,3.64-1.24,5.48s-1,3.69-1.64,5.53A118.65,118.65,0,0,1,104,63.43a119.26,119.26,0,0,0-4.56,11.48,32.36,32.36,0,0,0,1.82,24.77,34.31,34.31,0,0,0,7.44,9.92,29,29,0,0,0,2.35,2,26.25,26.25,0,0,0,2.49,1.72,14,14,0,0,0,1.31.76c.46.23.9.49,1.36.69a29.36,29.36,0,0,0,2.77,1.08,39.88,39.88,0,0,0,11.08,1.89,58.6,58.6,0,0,0,10.24-.55,59.32,59.32,0,0,0,8.95-2c.34-.09.68-.2,1-.32l.5-.16.24-.09h0l-.07.08-.14.16-.6.68-.23.27a3.24,3.24,0,0,0-.27.35,2.6,2.6,0,0,0-.35.78,3,3,0,0,0,.82,3l2.35,1.86c.25.19.46.35.61.48h0l-.17-.14.17.13s0,0,0,0h0l-1.87.89c-1.22.58-1.6.76-.33.16l-2.23,1.07a3,3,0,0,0-1.52,3.5,2.79,2.79,0,0,0,.44.92l.45.61.62.82,1.19,1.58.28.38c0,.06,0,0,0,0h0l-2,.45-1.08.24a4.49,4.49,0,0,0-1.58.54,3.07,3.07,0,0,0-1.11,1.3,2.19,2.19,0,1,0,.25-.44,2.92,2.92,0,0,1,.83-.83,2.83,2.83,0,0,1,.78-.37c.15-.06.34-.08.51-.13l.44-.09-.42.09a5.29,5.29,0,0,0-.54.13,3.6,3.6,0,0,0-.92.46,3.16,3.16,0,0,0-1.09,1.63,3.08,3.08,0,0,0,.09,1.9,3.56,3.56,0,0,0,.48.84l.41.57.9,1.22h0l-.8.07-2.61.21-.63,0a3,3,0,0,0-.62.1,2.68,2.68,0,0,0-.5.18,2.54,2.54,0,0,1,.54-.19,4.85,4.85,0,0,1,.76-.11L143,140l-.85.07a3.24,3.24,0,0,0-1.2.32,3,3,0,0,0-1.5,1.79,3.14,3.14,0,0,0-.14,1.18c0,.26,0,.52,0,.77s0,.77.07,1.14l0,.53v.13h0l-.06-.08-.16-.2c-.32-.33-.63-.67-.94-1-.61-.68-1.29-1.22-1.9-1.8s-1.28-1.05-1.92-1.52a47.08,47.08,0,0,0-7.05-4.24,84.78,84.78,0,0,0-9.74-4c-2.28-.78-3.67-1.2-4.48-1.45l-1-.31s-3.14-1-8.75-2.35c-2.8-.7-6.23-1.5-10.15-2.41-2-.46-4-1-6.21-1.52a38.32,38.32,0,0,1-6.48-2.19,66.67,66.67,0,0,1-13.41-8.43A48.15,48.15,0,0,1,55.57,101,39.35,39.35,0,0,1,52,92.27a54.83,54.83,0,0,1-1.71-9.69,65,65,0,0,1,.06-10.15,58.23,58.23,0,0,1,1.89-10.16A38.58,38.58,0,0,1,62.6,44.48c5-4.92,11.25-8.46,17.24-12.31a45.9,45.9,0,0,0,8.41-6.63,18.45,18.45,0,0,0,4.93-9.37,21.07,21.07,0,0,0,.3-2.61l0-.51h0l.19-.2.86-.91L98,8.34l6.39-6.75.23-.24.06-.06h0a2.8,2.8,0,0,0,.19.4l.27.55,1,2,1.4,2.91c2.39,4.93,3.83,7.68,5.75,11.83-1.91-4.16-3.07-7-5.28-12-.3-.68-.74-1.7-1.3-3l-.91-2.06L105.17.61c-.09-.21-.19-.38-.28-.57s-.06,0-.1,0l-.11.11-.23.23L103.8,1,97.2,7.57l-3.53,3.51-.89.88-.26.25c-.15.15-.32.29-.29.52l-.06.74a19.57,19.57,0,0,1-.34,2.42,17.12,17.12,0,0,1-4.77,8.5,44.94,44.94,0,0,1-8.25,6.17c-6,3.66-12.44,7.13-17.84,12.21A40.92,40.92,0,0,0,49.61,61.5a60.43,60.43,0,0,0-2.14,10.64,66.75,66.75,0,0,0-.2,10.66A57.52,57.52,0,0,0,49,93.1a42.1,42.1,0,0,0,3.78,9.47A51.21,51.21,0,0,0,65,117,69.34,69.34,0,0,0,79,126a40.59,40.59,0,0,0,7.08,2.44c2.23.6,4.34,1.1,6.3,1.57,3.94.93,7.33,1.72,10.1,2.42,5.55,1.38,8.6,2.32,8.6,2.32l1,.31c.79.24,2.15.64,4.36,1.41a80.59,80.59,0,0,1,9.32,3.81,44,44,0,0,1,6.53,3.91c.57.42,1.13.88,1.72,1.35s1.15,1,1.66,1.58l2.36,2.48.39.41.19.21a2.14,2.14,0,0,0,.22.1,3,3,0,0,0,1,.23,3,3,0,0,0,2.05-.68,3,3,0,0,1-1.89.68,2.5,2.5,0,0,1-.62-.07,2.87,2.87,0,0,0,.55.07,3,3,0,0,0,1.55-.4,3,3,0,0,0,1.42-1.85,6.23,6.23,0,0,0,.05-1.81c0-.45-.06-.93-.09-1.43s0-.74-.07-1.13l0-.3v-.12h0l.14,0,.32,0-.46,0h0s0,0,0,0l.23,0,2.6-.22.84-.07a5.18,5.18,0,0,0,1.64-.28,3,3,0,0,0,1.84-2.51,3.11,3.11,0,0,1-.76,1.75c-.28.29-.43.38-.4.37a2.88,2.88,0,0,0,.47-.47,3,3,0,0,0,.67-1.52,3.12,3.12,0,0,0-.7-2.44c-.36-.49-.76-1-1.2-1.62l-.14-.2,0,0h0s0,0,0,0h0l.13,0-.13,0h0s0,0,0,0h0L149,136l1.29-.3.72-.16a4.71,4.71,0,0,0,1.43-.47,3,3,0,0,0,1.47-2.6,3,3,0,0,0-.46-1.61c-.15-.24-.38-.53-.52-.72l-.29-.37-2-2.61h0l1.79-.87.33-.16,1.06-.51.62-.31.48-.23a3.46,3.46,0,0,0,.65-.38,3,3,0,0,0,1.16-2.68,3.1,3.1,0,0,0-.59-1.49,3.06,3.06,0,0,0-.6-.59l-.52-.4.49.37c.18.14.3.26.39.34s.18.21.1.12a3.34,3.34,0,0,0-.64-.58l-.78-.59-1.95-1.5h0l.06-.07.59-.69.94-1.1a2.9,2.9,0,0,0,.63-1.42,3,3,0,0,0-1.11-2.75,3,3,0,0,0-3.22-.2l-1.17.41-1,.31a57.07,57.07,0,0,1-18.17,2.6,36.65,36.65,0,0,1-10.31-1.6c-.87-.24-1.68-.61-2.52-.93-.41-.17-.8-.4-1.2-.6A8.16,8.16,0,0,1,115,111a23.31,23.31,0,0,1-2.32-1.54,26,26,0,0,1-2.19-1.76,32.32,32.32,0,0,1-7.07-9.09,30.41,30.41,0,0,1-2.16-23.18A121.27,121.27,0,0,1,105.43,64a116,116,0,0,0,4-11.32c.6-1.87,1-3.78,1.49-5.64s.77-3.73,1.07-5.57c.19-1.36.38-2.7.56-4q.06-.39.09-.75c.17-2,.32-3.6.4-4.57.15-2.74.19-4.89.23-6.92S113.24,21.28,113.25,19Z"/></symbol><symbol id="Aquatic_Male_1" data-name="Aquatic_Male_1" viewBox="0 0 200.6 301.94"><path class="cls-1" d="M86.59,97.53C91,96.37,94.5,92.68,93,80l7.23-11.83L107.55,80c-.37,8.94.72,17.27,5.1,16.65l13,7.48-24.33,26.1-26.45-25Z"/><path class="cls-2" d="M83.79,299.82C69,284.31,61.37,264.22,66.16,251.69s14.28-23.23,24.12-33.25,18.63-15.58,26-27.12c12.84-20.19,17.5-40,12.91-65.37l.19.1c3.46,8.71,8.62,21,10.75,25.9a5,5,0,0,0,4.34,3c14.88.66,28.29,1.64,41.2,5,0,0,15.21,5.05,15,3.56-.52-3.09-3.91-5.13-3.91-5.13-12.87-11.38-34.42-15-44.4-18.12l-.21-.06c-3.15-10-8.1-21.43-12.31-32.26a15.65,15.65,0,0,0-18.24-9.58c-1.36.33-2.45.57-3,.66,0,0,2.1,10.59-18.32,10.59C77.47,109.58,82.52,99,82.52,99c-.58-.09-1.67-.33-3-.66a15.64,15.64,0,0,0-18.24,9.58c-4.21,10.83-9.17,22.22-12.31,32.26l-.36.1c-9.24,2.84-27.38,5.51-46.71,19.43,0,0-2.14,1.39-1.85,2.3.22.71,16.84-4.11,16.84-4.11,16.85-4,24.84-2.32,39.72-3a5,5,0,0,0,4.34-3c1.84-4.26,6.12-14.4,9.29-22.23l.35-.53c-2,14.74,2.48,21.4,6.37,36.19,3.51,13.34,2.77,24-2.34,33.45C66.23,214.27,56.18,228.36,56,245s6,33.2,17.41,46.48Z"/><path class="cls-3" d="M93,80a38.12,38.12,0,0,0-.45,5.86c0,.4,0,1.06-.15,2.4,0,.2-.06.54-.1.82a4,4,0,0,1-.07.51s-.15.77-.26,1.19a9.48,9.48,0,0,1-1.31,3.07A10.3,10.3,0,0,1,88.83,96a12.9,12.9,0,0,1-2.24,1.58,7.06,7.06,0,0,0,2.87-.6A6,6,0,0,0,92,94.74a10.92,10.92,0,0,0,1.54-3.56c.13-.47.27-1.31.27-1.31a3.6,3.6,0,0,0,.1-.56c0-.3.08-.66.1-.88a24.78,24.78,0,0,0,.15-2.55A15.1,15.1,0,0,0,93,80Z"/><path class="cls-3" d="M107.55,80a16.72,16.72,0,0,0-.8,5.92c0,.42,0,1.1.19,2.52,0,.19.07.63.07.63s0,.37.07.57a19.81,19.81,0,0,0,.82,3.68,6,6,0,0,0,1.82,2.84,2.85,2.85,0,0,0,2.93.5,2.74,2.74,0,0,1-2.1-1.32,10.34,10.34,0,0,1-1.14-2.52,19.44,19.44,0,0,1-.75-3.4c0-.2-.07-.55-.07-.55s0-.42-.06-.59c-.14-1.37-.17-2-.19-2.44A31.21,31.21,0,0,0,107.55,80Z"/><path class="cls-3" d="M52.06,139a49.33,49.33,0,0,0-5.77,1.12l-2.39.64c-2.75.71-7.43,1.89-11.35,3.11-2,.63-3.75,1.19-5,1.67l-2.09.75-1.74.68c-1.09.42-2.59,1-4.25,1.78s-3.47,1.63-5.23,2.49-3.38,1.83-4.76,2.61l-3.12,1.92a19.44,19.44,0,0,0-4.45,3.95,24.56,24.56,0,0,0,5.31-2.61l3.07-1.88c1.35-.76,3-1.67,4.69-2.56s3.49-1.76,5.14-2.46,3.11-1.34,4.18-1.75l1.72-.68,2.06-.74c1.26-.47,3-1,5-1.64,3.88-1.21,8.52-2.38,11.28-3.09l2.42-.65A14,14,0,0,0,52.06,139Z"/><path class="cls-3" d="M73.58,121.12a23.05,23.05,0,0,0-2.83,5.2l-1.94,4.84c-1.49,3.67-3.29,8-5,12.11-.88,2.06-1.73,4.07-2.53,5.93l-1.13,2.62a4.12,4.12,0,0,1-1.4,1.59,4.32,4.32,0,0,1-1.67.65c-.49.07-1.1.07-1.54.09l-1.4.06-5.18.16c-3.15.08-7.43.16-11.93.41a125.22,125.22,0,0,0-13.09,1.39c-1.6.26-2.91.5-3.57.63a18.9,18.9,0,0,0-5.59,2,24.94,24.94,0,0,0,5.89-.45l3.53-.61a124.1,124.1,0,0,1,12.92-1.37c4.45-.25,8.72-.33,11.88-.42l5.2-.16,1.41-.06a16.2,16.2,0,0,0,1.73-.11,5.72,5.72,0,0,0,4.24-3.1c.41-.91.76-1.75,1.17-2.7l2.54-5.93c1.75-4.13,3.55-8.45,5-12.13l1.94-4.87A20,20,0,0,0,73.58,121.12Z"/><g id="Aquatic_Male_Head_1-2" data-name="Aquatic_Male_Head_1"><path class="cls-4" d="M101.71.79C80.8-.1,64.52,15.67,64,36.6c-.06,2.16.31,11.83.62,19.17a15.93,15.93,0,0,0,7.83,13.07l23.3,13.74a12.31,12.31,0,0,0,10.08.31l24.39-14a16,16,0,0,0,8-13.22l.67-18c0-20.08-17.09-36-37.16-36.81Z"/></g><path class="cls-5" d="M73.79,40.7,75,39.84c.37-.26.76-.47,1.12-.72.74-.47,1.51-.94,2.52-1.48a5.58,5.58,0,0,1,.75-.35L80,37l.83-.28a7.58,7.58,0,0,1,1.06-.28l.68-.16.61-.08a10.07,10.07,0,0,1,1-.12,19.49,19.49,0,0,1,3.48,0c2.34.28,3.68.36,5.78.58a11.34,11.34,0,0,0-5.62-2.16A20,20,0,0,0,84,34.51c-.32,0-.77.08-1.14.13l-.66.1-.76.17a7.56,7.56,0,0,0-1.18.32l-.92.31-.67.29c-.38.18-.65.28-.84.4a8.63,8.63,0,0,0-2.55,2,10.12,10.12,0,0,0-.84,1.14C74.25,39.8,74,40.24,73.79,40.7Z"/><path class="cls-5" d="M106,37.13a16.41,16.41,0,0,1,2.77-.22c.88,0,1.8,0,3-.06a8.23,8.23,0,0,1,.84,0c.38,0,.89,0,1.56.09a12.7,12.7,0,0,1,1.3.15l.83.12.7.15a12,12,0,0,1,1.21.29,18.07,18.07,0,0,1,3.27,1.17c.54.23,1,.51,1.42.7s.8.45,1.2.64l1.12.68c.38.25.74.54,1.17.86a7.88,7.88,0,0,0-4.22-4.31,19.85,19.85,0,0,0-3.55-1.29c-.36-.11-.87-.22-1.29-.31l-.75-.15-.88-.13a12.12,12.12,0,0,0-1.39-.16c-.72-.08-1.25-.09-1.66-.1a9,9,0,0,0-.91,0,10.57,10.57,0,0,0-3.16.5A8.28,8.28,0,0,0,106,37.13Z"/><path class="cls-6" d="M100.86,59.12c9.21.16,12.56-8.69,12.56-8.69S105.66,52.55,100,52.3a48.64,48.64,0,0,1-12.82-2.23A14.85,14.85,0,0,0,100.86,59.12Z"/><path class="cls-5" d="M100.86,59.12c.51.1,1,.2,1.47.27a8.31,8.31,0,0,0,4.57-.78,7.23,7.23,0,0,0,.82-.44,10.88,10.88,0,0,0,1.43-.94A15.71,15.71,0,0,0,112.3,54c.24-.31.45-.65.66-1a4.71,4.71,0,0,0,.29-.48l.2-.34.23-.46.42-.87c.11-.27.22-.53.32-.79l.3-.74,0-.09-.09,0-.21.06-.41.1-1.43.38-1.21.29-1.33.3c-.88.18-1.72.34-2.53.48-1.61.27-3.05.45-4.26.54s-2.18.11-2.84.09-1,0-1,0-1.47,0-3.88-.38c-1.21-.16-2.64-.4-4.23-.74l-1.21-.29-.63-.16-.36-.1-.65-.19c-.45-.13-.89-.26-1.37-.43l-.71-.25L86,48.81s-.15-.06-.16,0l.06.14a25.05,25.05,0,0,0,1,2.33,12.92,12.92,0,0,0,1.19,2,16.9,16.9,0,0,0,1.16,1.46c.39.46.83.84,1.2,1.22l1.07.89,1.11.76c.35.21.66.37.94.52a11.26,11.26,0,0,0,1.28.6,7.75,7.75,0,0,0,1.68.51A6.46,6.46,0,0,0,98,59.4a11.54,11.54,0,0,0,2.87-.28c-1-.34-1.83-.54-2.66-.87a12.56,12.56,0,0,1-1.29-.46c-.45-.17-1-.31-1.47-.56a11.19,11.19,0,0,1-1.14-.54c-.25-.14-.53-.28-.84-.47l-1-.68-1-.8c-.33-.34-.73-.67-1.08-1.1a15.43,15.43,0,0,1-1.05-1.31c-.15-.24-.31-.47-.46-.7l-.11-.18,0-.09h0l.29.08.65.16,1.26.3c1.63.36,3.11.6,4.35.76,2.49.33,4,.39,4,.39s.38,0,1.09,0a27.94,27.94,0,0,0,3-.08c1.26-.11,2.76-.29,4.41-.57.82-.14,1.69-.3,2.59-.49l1.36-.3.18,0h0s0,0,0,0h0l-.07.12c-.09.14-.17.3-.27.44s-.38.59-.6.88a14.43,14.43,0,0,1-2.81,2.9,9.3,9.3,0,0,1-1.27.84c-.32.17-.53.32-.71.39-1,.48-1.87.82-2.69,1.11-.42.12-.82.31-1.25.43Z"/><path class="cls-3" d="M82.52,99c-1-.47-1.75-.84-2.59-1.16a10.83,10.83,0,0,0-3.13-.7c-.22,0-.51,0-.92,0a11.16,11.16,0,0,0-1.7.08,16.39,16.39,0,0,0-11.82,7c-.17.25-.35.5-.51.75l-.44.78a16.13,16.13,0,0,0-.73,1.52c-.42,1-.72,1.82-1,2.55l-.93,2.34s-1.21,3-2.76,6.86-3.42,8.54-4.67,11.93c-.66,1.76-1,2.86-1.24,3.43A19.08,19.08,0,0,0,49,140.17a24.7,24.7,0,0,0,2.62-5.3c.2-.57.6-1.65,1.24-3.4,1.25-3.36,3.11-8,4.66-11.89l2.75-6.87.93-2.35c.29-.71.62-1.61,1-2.51a10.82,10.82,0,0,1,.66-1.38l.39-.7.46-.68a14.8,14.8,0,0,1,10.68-6.31,9.88,9.88,0,0,1,1.52-.07c.38,0,.64,0,.83,0l3,.24A26.77,26.77,0,0,0,82.52,99Z"/><path class="cls-3" d="M149,139a14.21,14.21,0,0,0,5.33,2.67c.4.13,1,.29,2.41.67,2.56.69,6.86,1.79,10.49,2.82s6.57,2,6.57,2l1.62.56c1,.34,2.4.87,3.94,1.48.78.28,1.58.63,2.39,1s1.65.71,2.44,1.1c1.59.8,3.15,1.54,4.37,2.3.79.46,1.45.82,1.95,1.14l1.09.73a37.32,37.32,0,0,0,5.12,2.88,15.14,15.14,0,0,0-4.24-4.2l-1.12-.77c-.52-.32-1.19-.69-2-1.17-1.26-.78-2.85-1.54-4.48-2.36-.81-.4-1.67-.74-2.49-1.11s-1.65-.73-2.44-1c-1.57-.62-3-1.15-4-1.49l-1.64-.57s-3-1-6.64-2-8-2.16-10.52-2.84l-2.39-.65A43.92,43.92,0,0,0,149,139Z"/><path class="cls-3" d="M127.44,121.12a20,20,0,0,0,1.36,5.78c.35.9,1.07,2.7,1.94,4.88,1.51,3.72,3.32,8.07,5.09,12.23.88,2.08,1.75,4.11,2.55,6l.59,1.38c.21.45.36.85.62,1.36a5.67,5.67,0,0,0,2.06,2.14,5.87,5.87,0,0,0,2.35.8c.74.06,1.22.07,1.69.1l1.42.06s2,.11,5.21.33,7.44.59,11.9,1.13,9.15,1.26,13,2c1.58.31,2.87.58,3.51.72a25.33,25.33,0,0,0,5.88.58,18.82,18.82,0,0,0-5.54-2.14c-.65-.14-2-.42-3.55-.73-3.86-.76-8.61-1.49-13.08-2s-8.81-.91-12-1.14-5.23-.32-5.23-.32l-1.43-.08c-.43,0-1.07,0-1.59-.08a4.32,4.32,0,0,1-1.71-.59A4,4,0,0,1,141,152c-.16-.3-.36-.79-.55-1.23l-.59-1.37c-.8-1.87-1.66-3.9-2.55-6-1.76-4.16-3.57-8.51-5.07-12.21-.88-2.18-1.59-4-1.95-4.86A23.07,23.07,0,0,0,127.44,121.12Z"/><path class="cls-3" d="M118.5,99a27,27,0,0,0,2.86,0l3-.24c.2,0,.46,0,.83,0a10,10,0,0,1,1.53.07,14.75,14.75,0,0,1,10.67,6.31c.16.23.31.46.47.68l.39.7a14.42,14.42,0,0,1,.66,1.38c.39.9.71,1.8,1,2.51l.94,2.35,2.75,6.87c1.55,3.84,3.41,8.53,4.65,11.89l1.25,3.4a24.25,24.25,0,0,0,2.62,5.3,19.39,19.39,0,0,0-1.12-5.83c-.21-.58-.59-1.67-1.25-3.43-1.25-3.39-3.12-8.08-4.67-11.93l-2.75-6.86-.93-2.34c-.3-.73-.6-1.57-1-2.55a12.35,12.35,0,0,0-.73-1.52l-.43-.78-.51-.75A16.45,16.45,0,0,0,133,99.11a16.25,16.25,0,0,0-6.19-1.92,11,11,0,0,0-1.69-.08c-.42,0-.71,0-.92,0a10.9,10.9,0,0,0-3.14.7C120.25,98.15,119.46,98.52,118.5,99Z"/><path class="cls-7" d="M73.35,120.89"/><path class="cls-7" d="M153.41,71.84"/><path class="cls-3" d="M70.57,129.19a26.14,26.14,0,0,0-.9,2.72A16.48,16.48,0,0,0,69.3,135c0,.32,0,.81,0,1.41,0,.3,0,.62,0,1,0,.61.06,1.24.09,1.87s.12,1.3.18,1.95.19,1.31.29,2a62.43,62.43,0,0,0,1.94,7.94c1.62,5.31,3.51,10.73,4.86,16.46A52.24,52.24,0,0,1,78,185.41a36.4,36.4,0,0,1-2.19,8.85,38.65,38.65,0,0,1-1.93,4.19l-2.28,4.11c-3.08,5.49-6.32,10.93-9.14,16.56a70.25,70.25,0,0,0-6.4,17.53,47.28,47.28,0,0,0-.93,9,66.21,66.21,0,0,0,11.77,37.72,70.15,70.15,0,0,0,15.4,15.78c2.91,1.87,2.54,1,2.54,1-.41-.45-3.31-4-3.8-4.66l-1.8-2.19c-1.07-1.43-1.89-2.5-2.48-3.33l-1.22-1.81L75,287.4a4.31,4.31,0,0,1-.29-.45c-.19-.3-.46-.76-.82-1.35-.75-1.18-1.74-3-2.93-5.28a62.32,62.32,0,0,1-3.52-8.74,39.83,39.83,0,0,1-1.9-12.07c0-.56.07-1.12.11-1.69a12.27,12.27,0,0,1,.2-1.71c.11-.57.21-1.15.32-1.73s.34-1.13.52-1.71a48.51,48.51,0,0,1,3.08-7,83.86,83.86,0,0,1,9.39-13.86c3.7-4.55,7.92-9,12.34-13.49s9.35-8.61,14.12-13.15a82.29,82.29,0,0,0,6.81-7.26,64,64,0,0,0,5.72-8.2,97.65,97.65,0,0,0,8.7-17.83,81.93,81.93,0,0,0,4.36-18.8c.17-1.56.24-3.12.37-4.67s.07-3.08.1-4.6-.06-3-.13-4.53-.19-2.71-.29-4c-.19-1.62-.35-3-.42-3.61a19,19,0,0,0-1.68-5.71,25.1,25.1,0,0,0,.1,5.91c.07.66.22,2,.4,3.56.1,1.31.2,2.64.29,4s.09,2.95.13,4.44-.07,3-.1,4.52-.2,3-.37,4.58a80,80,0,0,1-4.27,18.43,95.62,95.62,0,0,1-8.55,17.53A68,68,0,0,1,104.51,204c-4.7,4.48-9.68,8.66-14.14,13.18s-8.69,9-12.45,13.61A85.07,85.07,0,0,0,68.36,245a51.11,51.11,0,0,0-3.18,7.21c-.19.62-.39,1.23-.56,1.84s-.23,1.25-.34,1.86a11.44,11.44,0,0,0-.22,1.82l-.12,1.8a42.17,42.17,0,0,0,2,12.57,62.51,62.51,0,0,0,3.63,9c1.21,2.38,2.23,4.2,3,5.4l.83,1.39c.19.31.3.46.3.46l.57.84L75.48,291c.6.84,1.44,1.94,2.53,3.4l1.84,2.23c.49.63,1.14,1.33,1.88,2.14.37.4,4.65,3.22,4.65,3.22.47,0-3-3.47-3.24-3.68a71,71,0,0,1-14.91-15.75,65.14,65.14,0,0,1-10.92-28.25A52.27,52.27,0,0,1,57.65,237a68.51,68.51,0,0,1,6.27-17.12c2.77-5.56,6-11,9.09-16.49l2.3-4.14a39.19,39.19,0,0,0,2-4.37,37.76,37.76,0,0,0,2.3-9.25,54,54,0,0,0-1.4-18.36c-1.38-5.83-3.29-11.3-4.89-16.55a62.2,62.2,0,0,1-1.89-7.74c-.09-.64-.19-1.27-.28-1.9L71,139.16c0-.61,0-1.21-.08-1.79,0-.34,0-.66,0-1,0-.57,0-1,0-1.35,0-1.2,0-2.15,0-3.06S70.71,130.24,70.57,129.19Z"/><path class="cls-8" d="M82.08,107.09a6.55,6.55,0,0,1-3.92-5.77c0-5.81,5.85-4.6,5.85-4.6-.81,3.75.76,5.77,5,7.17,8.72,2.88,19,.9,21.91,0,4.27-1.32,7.94-4.33,5.28-7.29,0,0,7.06-2,7.06,4.72a7,7,0,0,1-3.92,5.77C116.87,108.45,95.76,113.1,82.08,107.09Z"/></symbol></defs><g id="SEA_1"><use width="53.08" height="57.66" transform="translate(122.03 13.15)" xlink:href="#Aquatic_hair_2"/><use width="197.1" height="150.52" transform="translate(48.2 145.42)" xlink:href="#Aquatic_body_4"/><use width="200.6" height="301.95" transform="translate(83.6 57.84) scale(0.64)" xlink:href="#Aquatic_Male_1"/></g></svg>