<svg xmlns="http://www.w3.org/2000/svg" xmlns:xlink="http://www.w3.org/1999/xlink" viewBox="0 0 300 300"><defs><style>.cls-1{fill:url(#radial-gradient);}.cls-2{fill:url(#radial-gradient-2);}.cls-3{fill:#e0e0e0;}.cls-10,.cls-11,.cls-12,.cls-13,.cls-14,.cls-15,.cls-4,.cls-8,.cls-9{stroke:#dbdbdb;}.cls-10,.cls-11,.cls-12,.cls-13,.cls-14,.cls-15,.cls-4,.cls-7,.cls-8,.cls-9{stroke-miterlimit:10;}.cls-4{stroke-width:1.5px;fill:url(#radial-gradient-3);}.cls-5{fill:#202020;}.cls-6{fill:#fff;}.cls-7{fill:none;stroke:#000;stroke-width:1.2px;}.cls-8{fill:#29abe2;stroke-width:1.24px;}.cls-10,.cls-11,.cls-12,.cls-13,.cls-14,.cls-15,.cls-9{stroke-width:0.96px;}.cls-9{fill:url(#radial-gradient-4);}.cls-10{fill:url(#radial-gradient-5);}.cls-11{fill:url(#radial-gradient-6);}.cls-12{fill:url(#radial-gradient-7);}.cls-13{fill:url(#radial-gradient-8);}.cls-14{fill:url(#radial-gradient-9);}.cls-15{fill:url(#radial-gradient-10);}.cls-16{fill:url(#New_Gradient_Swatch_13);}.cls-17{fill:url(#New_Gradient_Swatch_13-2);}.cls-18{fill:url(#New_Gradient_Swatch_13-3);}</style><radialGradient id="radial-gradient" cx="99.93" cy="96.17" fx="116.63529227220099" fy="107.40443202046933" r="30.48" gradientTransform="translate(0 -6.06)" gradientUnits="userSpaceOnUse"><stop offset="0.15" stop-color="#3d8eff"/><stop offset="0.19" stop-color="#459aff"/><stop offset="0.27" stop-color="#59b9ff"/><stop offset="0.36" stop-color="#7bebff"/><stop offset="0.38" stop-color="#81f4ff"/></radialGradient><radialGradient id="radial-gradient-2" cx="104.14" cy="198.06" fx="209.5615571070008" fy="269.51216326197545" r="131.86" gradientTransform="translate(0 -6.06)" gradientUnits="userSpaceOnUse"><stop offset="0.06" stop-color="#3d8eff"/><stop offset="0.16" stop-color="#459aff"/><stop offset="0.33" stop-color="#59b9ff"/><stop offset="0.56" stop-color="#7bebff"/><stop offset="0.6" stop-color="#81f4ff"/></radialGradient><radialGradient id="radial-gradient-3" cx="101.28" cy="41.79" fx="107.81802673187346" r="42.49" gradientTransform="translate(0 -6.06)" gradientUnits="userSpaceOnUse"><stop offset="0.75" stop-color="#81f4ff"/><stop offset="1" stop-color="#3d8eff"/></radialGradient><radialGradient id="radial-gradient-4" cx="39.68" cy="81.17" fx="75.21379247353289" fy="41.00328762113821" r="69.2" gradientTransform="translate(0 -5.98)" gradientUnits="userSpaceOnUse"><stop offset="0.26" stop-color="#81f4ff"/><stop offset="0.57" stop-color="#3d8eff"/></radialGradient><radialGradient id="radial-gradient-5" cx="70.05" cy="71.34" fx="135.99229430744418" fy="22.258736637980462" r="82.21" gradientTransform="translate(0 -5.98)" gradientUnits="userSpaceOnUse"><stop offset="0.1" stop-color="#81f4ff"/><stop offset="0.38" stop-color="#3d8eff"/></radialGradient><radialGradient id="radial-gradient-6" cx="131.39" cy="96.37" fx="81.9073617513294" fy="129.2866713796576" r="73.11" gradientTransform="translate(0 -5.98)" gradientUnits="userSpaceOnUse"><stop offset="0.64" stop-color="#81f4ff"/><stop offset="0.94" stop-color="#3d8eff"/></radialGradient><radialGradient id="radial-gradient-7" cx="127.26" cy="46.8" fx="112.50706822827128" fy="106.21498500860203" r="76.58" gradientTransform="translate(0 -5.98)" gradientUnits="userSpaceOnUse"><stop offset="0.59" stop-color="#81f4ff"/><stop offset="0.82" stop-color="#3d8eff"/></radialGradient><radialGradient id="radial-gradient-8" cx="40.75" cy="31.81" fx="85.85165860989503" fy="41.591240267258954" r="55.5" gradientTransform="translate(0 -5.98)" gradientUnits="userSpaceOnUse"><stop offset="0.42" stop-color="#81f4ff"/><stop offset="0.69" stop-color="#3d8eff"/></radialGradient><radialGradient id="radial-gradient-9" cx="82.01" cy="59.63" fx="174.7859214528431" fy="116.7864081240171" r="116.03" gradientTransform="translate(0 -5.98)" gradientUnits="userSpaceOnUse"><stop offset="0.33" stop-color="#81f4ff"/><stop offset="0.46" stop-color="#3d8eff"/></radialGradient><radialGradient id="radial-gradient-10" cx="61.45" cy="53.58" fx="112.95488202874941" fy="85.31244343896935" r="64.42" gradientTransform="translate(0 -5.98)" gradientUnits="userSpaceOnUse"><stop offset="0.23" stop-color="#81f4ff"/><stop offset="0.45" stop-color="#3d8eff"/></radialGradient><radialGradient id="New_Gradient_Swatch_13" cx="1717.24" cy="565.27" fx="1755.5339779490898" fy="589.9584969942208" r="51.57" gradientTransform="matrix(1.24, 0, 0, 1.12, -1991.67, -405.28)" gradientUnits="userSpaceOnUse"><stop offset="0.52" stop-color="#fff"/><stop offset="0.59" stop-color="#f7feff"/><stop offset="0.69" stop-color="#e3fdff"/><stop offset="0.81" stop-color="#c1faff"/><stop offset="0.95" stop-color="#92f5ff"/><stop offset="1" stop-color="#81f4ff"/></radialGradient><radialGradient id="New_Gradient_Swatch_13-2" cx="96.14" cy="159.14" fx="121.59541228535545" fy="175.55262205150618" r="34.28" gradientTransform="translate(0 -4.69)" xlink:href="#New_Gradient_Swatch_13"/><radialGradient id="New_Gradient_Swatch_13-3" cx="-1.81" cy="233.78" fx="24.60160552988546" fy="250.80207247843012" r="35.57" gradientTransform="matrix(0.97, 0.01, 0.01, 1, 195.06, -80.92)" xlink:href="#New_Gradient_Swatch_13"/><symbol id="Aquatic_hair_4" data-name="Aquatic_hair_4" viewBox="0 0 126.59 92.63"><path class="cls-9" d="M47.93,77.65c-4,7.73-8.48,14.27-20.74,14.5-5.46.1-12.64-2-16-6.11-2.39-2.92-3-6.82-3-10.52,0-2.63.25-5.38,1.73-7.62S14.54,64,17.09,65c5.53,2.29,1.28,8.45,1.28,8.45-2,4.21.26,7.66,5,8.67s9.75-1.38,12.93-4.88,4.85-8,6.35-12.37S45.6,56,48.38,52.22"/><path class="cls-10" d="M53,49.47c-6.44,1.45-10.93,9.27-17.46,8.35-3.24-.45-5.76-3-7.53-5.79s-3.11-5.81-5.35-8.18A14.42,14.42,0,0,0,4.07,42.36C2.14,43.84.54,46,.48,48.43s1.89,5,4.32,4.88c2.13-.08,3.75-1.92,5.78-2.58,3.52-1.14,7.17,1.58,9.19,4.68s3.21,6.8,5.84,9.4a11.79,11.79,0,0,0,15.64.35"/><path class="cls-11" d="M78.66,77.09c4,7.73,8.48,14.28,20.75,14.5,5.46.1,12.63-2,16-6.11,2.39-2.92,3-6.82,3-10.51,0-2.64-.25-5.39-1.73-7.62s-4.56-3.92-7.11-2.86c-5.53,2.29-1.28,8.44-1.28,8.44,2,4.21-.26,7.66-5,8.67s-9.75-1.38-12.92-4.88-4.86-8-6.36-12.37S81,55.45,78.21,51.66"/><path class="cls-12" d="M73.61,48.91c6.44,1.45,10.94,9.27,17.47,8.35,3.23-.45,5.75-3,7.52-5.78s3.11-5.81,5.35-8.19a14.42,14.42,0,0,1,18.57-1.49,8.31,8.31,0,0,1,3.59,6.08c.06,2.43-1.89,4.95-4.32,4.87-2.13-.08-3.75-1.92-5.77-2.57-3.52-1.15-7.18,1.57-9.19,4.68s-3.22,6.79-5.85,9.39a11.79,11.79,0,0,1-15.64.35"/><path class="cls-13" d="M56,48.65c-1.35.11-4.6-3.76-7.14-6s-2.28-6.1-2.46-9.36-.17-6.6-1.26-9.68a14.4,14.4,0,0,0-11.94-9.31c-2.44-.23-5.39.56-6.14,2.89-.67,2.1.84,4.3,2.6,5.62S33.58,25,35,26.71c2,2.33,2.26,5.7,2,8.77s-.84,6.2-.19,9.21,4.6,7,7.68,8.55"/><path class="cls-14" d="M67.59,49.66c1.34.22,4.88-3.39,7.59-5.4s2.74-5.91,3.17-9.15.68-6.57,2-9.55A14.39,14.39,0,0,1,93,17.2c2.44,0,5.33,1,5.89,3.35.51,2.15-1.16,4.22-3,5.4s-4,1.9-5.61,3.46C88,31.58,87.54,34.92,87.53,38s.37,6.24-.51,9.2-5.13,6.59-8.33,7.93"/><path class="cls-15" d="M54.69,46.38c2.29-1.65,3.37-4.9,3.44-8a39.17,39.17,0,0,0-1.33-9.12c-1.63-7.67-2.35-16.15.9-23.12a11.13,11.13,0,0,1,3.8-4.78A5,5,0,0,1,67,1.23c2.8,1.93,2.87,6.58,1.74,10.06S65.59,18,65.34,21.68c-.33,4.86,2.4,9.26,3.31,14A19,19,0,0,1,66.83,48"/></symbol><symbol id="Aquatic_Male_1" data-name="Aquatic_Male_1" viewBox="0 0 200.6 301.94"><path class="cls-1" d="M86.59,97.53C91,96.37,94.5,92.68,93,80l7.23-11.83L107.55,80c-.37,8.94.72,17.27,5.1,16.65l13,7.48-24.33,26.1-26.45-25Z"/><path class="cls-2" d="M83.79,299.82C69,284.31,61.37,264.22,66.16,251.69s14.28-23.23,24.12-33.25,18.63-15.58,26-27.12c12.84-20.19,17.5-40,12.91-65.37l.19.1c3.46,8.71,8.62,21,10.75,25.9a5,5,0,0,0,4.34,3c14.88.66,28.29,1.64,41.2,5,0,0,15.21,5.05,15,3.56-.52-3.09-3.91-5.13-3.91-5.13-12.87-11.38-34.42-15-44.4-18.12l-.21-.06c-3.15-10-8.1-21.43-12.31-32.26a15.65,15.65,0,0,0-18.24-9.58c-1.36.33-2.45.57-3,.66,0,0,2.1,10.59-18.32,10.59C77.47,109.58,82.52,99,82.52,99c-.58-.09-1.67-.33-3-.66a15.64,15.64,0,0,0-18.24,9.58c-4.21,10.83-9.17,22.22-12.31,32.26l-.36.1c-9.24,2.84-27.38,5.51-46.71,19.43,0,0-2.14,1.39-1.85,2.3.22.71,16.84-4.11,16.84-4.11,16.85-4,24.84-2.32,39.72-3a5,5,0,0,0,4.34-3c1.84-4.26,6.12-14.4,9.29-22.23l.35-.53c-2,14.74,2.48,21.4,6.37,36.19,3.51,13.34,2.77,24-2.34,33.45C66.23,214.27,56.18,228.36,56,245s6,33.2,17.41,46.48Z"/><path class="cls-3" d="M93,80a38.12,38.12,0,0,0-.45,5.86c0,.4,0,1.06-.15,2.4,0,.2-.06.54-.1.82a4,4,0,0,1-.07.51s-.15.77-.26,1.19a9.48,9.48,0,0,1-1.31,3.07A10.3,10.3,0,0,1,88.83,96a12.9,12.9,0,0,1-2.24,1.58,7.06,7.06,0,0,0,2.87-.6A6,6,0,0,0,92,94.74a10.92,10.92,0,0,0,1.54-3.56c.13-.47.27-1.31.27-1.31a3.6,3.6,0,0,0,.1-.56c0-.3.08-.66.1-.88a24.78,24.78,0,0,0,.15-2.55A15.1,15.1,0,0,0,93,80Z"/><path class="cls-3" d="M107.55,80a16.72,16.72,0,0,0-.8,5.92c0,.42,0,1.1.19,2.52,0,.19.07.63.07.63s0,.37.07.57a19.81,19.81,0,0,0,.82,3.68,6,6,0,0,0,1.82,2.84,2.85,2.85,0,0,0,2.93.5,2.74,2.74,0,0,1-2.1-1.32,10.34,10.34,0,0,1-1.14-2.52,19.44,19.44,0,0,1-.75-3.4c0-.2-.07-.55-.07-.55s0-.42-.06-.59c-.14-1.37-.17-2-.19-2.44A31.21,31.21,0,0,0,107.55,80Z"/><path class="cls-3" d="M52.06,139a49.33,49.33,0,0,0-5.77,1.12l-2.39.64c-2.75.71-7.43,1.89-11.35,3.11-2,.63-3.75,1.19-5,1.67l-2.09.75-1.74.68c-1.09.42-2.59,1-4.25,1.78s-3.47,1.63-5.23,2.49-3.38,1.83-4.76,2.61l-3.12,1.92a19.44,19.44,0,0,0-4.45,3.95,24.56,24.56,0,0,0,5.31-2.61l3.07-1.88c1.35-.76,3-1.67,4.69-2.56s3.49-1.76,5.14-2.46,3.11-1.34,4.18-1.75l1.72-.68,2.06-.74c1.26-.47,3-1,5-1.64,3.88-1.21,8.52-2.38,11.28-3.09l2.42-.65A14,14,0,0,0,52.06,139Z"/><path class="cls-3" d="M73.58,121.12a23.05,23.05,0,0,0-2.83,5.2l-1.94,4.84c-1.49,3.67-3.29,8-5,12.11-.88,2.06-1.73,4.07-2.53,5.93l-1.13,2.62a4.12,4.12,0,0,1-1.4,1.59,4.32,4.32,0,0,1-1.67.65c-.49.07-1.1.07-1.54.09l-1.4.06-5.18.16c-3.15.08-7.43.16-11.93.41a125.22,125.22,0,0,0-13.09,1.39c-1.6.26-2.91.5-3.57.63a18.9,18.9,0,0,0-5.59,2,24.94,24.94,0,0,0,5.89-.45l3.53-.61a124.1,124.1,0,0,1,12.92-1.37c4.45-.25,8.72-.33,11.88-.42l5.2-.16,1.41-.06a16.2,16.2,0,0,0,1.73-.11,5.72,5.72,0,0,0,4.24-3.1c.41-.91.76-1.75,1.17-2.7l2.54-5.93c1.75-4.13,3.55-8.45,5-12.13l1.94-4.87A20,20,0,0,0,73.58,121.12Z"/><g id="Aquatic_Male_Head_1-2" data-name="Aquatic_Male_Head_1"><path class="cls-4" d="M101.71.79C80.8-.1,64.52,15.67,64,36.6c-.06,2.16.31,11.83.62,19.17a15.93,15.93,0,0,0,7.83,13.07l23.3,13.74a12.31,12.31,0,0,0,10.08.31l24.39-14a16,16,0,0,0,8-13.22l.67-18c0-20.08-17.09-36-37.16-36.81Z"/></g><path class="cls-5" d="M73.79,40.7,75,39.84c.37-.26.76-.47,1.12-.72.74-.47,1.51-.94,2.52-1.48a5.58,5.58,0,0,1,.75-.35L80,37l.83-.28a7.58,7.58,0,0,1,1.06-.28l.68-.16.61-.08a10.07,10.07,0,0,1,1-.12,19.49,19.49,0,0,1,3.48,0c2.34.28,3.68.36,5.78.58a11.34,11.34,0,0,0-5.62-2.16A20,20,0,0,0,84,34.51c-.32,0-.77.08-1.14.13l-.66.1-.76.17a7.56,7.56,0,0,0-1.18.32l-.92.31-.67.29c-.38.18-.65.28-.84.4a8.63,8.63,0,0,0-2.55,2,10.12,10.12,0,0,0-.84,1.14C74.25,39.8,74,40.24,73.79,40.7Z"/><path class="cls-5" d="M106,37.13a16.41,16.41,0,0,1,2.77-.22c.88,0,1.8,0,3-.06a8.23,8.23,0,0,1,.84,0c.38,0,.89,0,1.56.09a12.7,12.7,0,0,1,1.3.15l.83.12.7.15a12,12,0,0,1,1.21.29,18.07,18.07,0,0,1,3.27,1.17c.54.23,1,.51,1.42.7s.8.45,1.2.64l1.12.68c.38.25.74.54,1.17.86a7.88,7.88,0,0,0-4.22-4.31,19.85,19.85,0,0,0-3.55-1.29c-.36-.11-.87-.22-1.29-.31l-.75-.15-.88-.13a12.12,12.12,0,0,0-1.39-.16c-.72-.08-1.25-.09-1.66-.1a9,9,0,0,0-.91,0,10.57,10.57,0,0,0-3.16.5A8.28,8.28,0,0,0,106,37.13Z"/><path class="cls-6" d="M100.86,59.12c9.21.16,12.56-8.69,12.56-8.69S105.66,52.55,100,52.3a48.64,48.64,0,0,1-12.82-2.23A14.85,14.85,0,0,0,100.86,59.12Z"/><path class="cls-5" d="M100.86,59.12c.51.1,1,.2,1.47.27a8.31,8.31,0,0,0,4.57-.78,7.23,7.23,0,0,0,.82-.44,10.88,10.88,0,0,0,1.43-.94A15.71,15.71,0,0,0,112.3,54c.24-.31.45-.65.66-1a4.71,4.71,0,0,0,.29-.48l.2-.34.23-.46.42-.87c.11-.27.22-.53.32-.79l.3-.74,0-.09-.09,0-.21.06-.41.1-1.43.38-1.21.29-1.33.3c-.88.18-1.72.34-2.53.48-1.61.27-3.05.45-4.26.54s-2.18.11-2.84.09-1,0-1,0-1.47,0-3.88-.38c-1.21-.16-2.64-.4-4.23-.74l-1.21-.29-.63-.16-.36-.1-.65-.19c-.45-.13-.89-.26-1.37-.43l-.71-.25L86,48.81s-.15-.06-.16,0l.06.14a25.05,25.05,0,0,0,1,2.33,12.92,12.92,0,0,0,1.19,2,16.9,16.9,0,0,0,1.16,1.46c.39.46.83.84,1.2,1.22l1.07.89,1.11.76c.35.21.66.37.94.52a11.26,11.26,0,0,0,1.28.6,7.75,7.75,0,0,0,1.68.51A6.46,6.46,0,0,0,98,59.4a11.54,11.54,0,0,0,2.87-.28c-1-.34-1.83-.54-2.66-.87a12.56,12.56,0,0,1-1.29-.46c-.45-.17-1-.31-1.47-.56a11.19,11.19,0,0,1-1.14-.54c-.25-.14-.53-.28-.84-.47l-1-.68-1-.8c-.33-.34-.73-.67-1.08-1.1a15.43,15.43,0,0,1-1.05-1.31c-.15-.24-.31-.47-.46-.7l-.11-.18,0-.09h0l.29.08.65.16,1.26.3c1.63.36,3.11.6,4.35.76,2.49.33,4,.39,4,.39s.38,0,1.09,0a27.94,27.94,0,0,0,3-.08c1.26-.11,2.76-.29,4.41-.57.82-.14,1.69-.3,2.59-.49l1.36-.3.18,0h0s0,0,0,0h0l-.07.12c-.09.14-.17.3-.27.44s-.38.59-.6.88a14.43,14.43,0,0,1-2.81,2.9,9.3,9.3,0,0,1-1.27.84c-.32.17-.53.32-.71.39-1,.48-1.87.82-2.69,1.11-.42.12-.82.31-1.25.43Z"/><path class="cls-3" d="M82.52,99c-1-.47-1.75-.84-2.59-1.16a10.83,10.83,0,0,0-3.13-.7c-.22,0-.51,0-.92,0a11.16,11.16,0,0,0-1.7.08,16.39,16.39,0,0,0-11.82,7c-.17.25-.35.5-.51.75l-.44.78a16.13,16.13,0,0,0-.73,1.52c-.42,1-.72,1.82-1,2.55l-.93,2.34s-1.21,3-2.76,6.86-3.42,8.54-4.67,11.93c-.66,1.76-1,2.86-1.24,3.43A19.08,19.08,0,0,0,49,140.17a24.7,24.7,0,0,0,2.62-5.3c.2-.57.6-1.65,1.24-3.4,1.25-3.36,3.11-8,4.66-11.89l2.75-6.87.93-2.35c.29-.71.62-1.61,1-2.51a10.82,10.82,0,0,1,.66-1.38l.39-.7.46-.68a14.8,14.8,0,0,1,10.68-6.31,9.88,9.88,0,0,1,1.52-.07c.38,0,.64,0,.83,0l3,.24A26.77,26.77,0,0,0,82.52,99Z"/><path class="cls-3" d="M149,139a14.21,14.21,0,0,0,5.33,2.67c.4.13,1,.29,2.41.67,2.56.69,6.86,1.79,10.49,2.82s6.57,2,6.57,2l1.62.56c1,.34,2.4.87,3.94,1.48.78.28,1.58.63,2.39,1s1.65.71,2.44,1.1c1.59.8,3.15,1.54,4.37,2.3.79.46,1.45.82,1.95,1.14l1.09.73a37.32,37.32,0,0,0,5.12,2.88,15.14,15.14,0,0,0-4.24-4.2l-1.12-.77c-.52-.32-1.19-.69-2-1.17-1.26-.78-2.85-1.54-4.48-2.36-.81-.4-1.67-.74-2.49-1.11s-1.65-.73-2.44-1c-1.57-.62-3-1.15-4-1.49l-1.64-.57s-3-1-6.64-2-8-2.16-10.52-2.84l-2.39-.65A43.92,43.92,0,0,0,149,139Z"/><path class="cls-3" d="M127.44,121.12a20,20,0,0,0,1.36,5.78c.35.9,1.07,2.7,1.94,4.88,1.51,3.72,3.32,8.07,5.09,12.23.88,2.08,1.75,4.11,2.55,6l.59,1.38c.21.45.36.85.62,1.36a5.67,5.67,0,0,0,2.06,2.14,5.87,5.87,0,0,0,2.35.8c.74.06,1.22.07,1.69.1l1.42.06s2,.11,5.21.33,7.44.59,11.9,1.13,9.15,1.26,13,2c1.58.31,2.87.58,3.51.72a25.33,25.33,0,0,0,5.88.58,18.82,18.82,0,0,0-5.54-2.14c-.65-.14-2-.42-3.55-.73-3.86-.76-8.61-1.49-13.08-2s-8.81-.91-12-1.14-5.23-.32-5.23-.32l-1.43-.08c-.43,0-1.07,0-1.59-.08a4.32,4.32,0,0,1-1.71-.59A4,4,0,0,1,141,152c-.16-.3-.36-.79-.55-1.23l-.59-1.37c-.8-1.87-1.66-3.9-2.55-6-1.76-4.16-3.57-8.51-5.07-12.21-.88-2.18-1.59-4-1.95-4.86A23.07,23.07,0,0,0,127.44,121.12Z"/><path class="cls-3" d="M118.5,99a27,27,0,0,0,2.86,0l3-.24c.2,0,.46,0,.83,0a10,10,0,0,1,1.53.07,14.75,14.75,0,0,1,10.67,6.31c.16.23.31.46.47.68l.39.7a14.42,14.42,0,0,1,.66,1.38c.39.9.71,1.8,1,2.51l.94,2.35,2.75,6.87c1.55,3.84,3.41,8.53,4.65,11.89l1.25,3.4a24.25,24.25,0,0,0,2.62,5.3,19.39,19.39,0,0,0-1.12-5.83c-.21-.58-.59-1.67-1.25-3.43-1.25-3.39-3.12-8.08-4.67-11.93l-2.75-6.86-.93-2.34c-.3-.73-.6-1.57-1-2.55a12.35,12.35,0,0,0-.73-1.52l-.43-.78-.51-.75A16.45,16.45,0,0,0,133,99.11a16.25,16.25,0,0,0-6.19-1.92,11,11,0,0,0-1.69-.08c-.42,0-.71,0-.92,0a10.9,10.9,0,0,0-3.14.7C120.25,98.15,119.46,98.52,118.5,99Z"/><path class="cls-7" d="M73.35,120.89"/><path class="cls-7" d="M153.41,71.84"/><path class="cls-3" d="M70.57,129.19a26.14,26.14,0,0,0-.9,2.72A16.48,16.48,0,0,0,69.3,135c0,.32,0,.81,0,1.41,0,.3,0,.62,0,1,0,.61.06,1.24.09,1.87s.12,1.3.18,1.95.19,1.31.29,2a62.43,62.43,0,0,0,1.94,7.94c1.62,5.31,3.51,10.73,4.86,16.46A52.24,52.24,0,0,1,78,185.41a36.4,36.4,0,0,1-2.19,8.85,38.65,38.65,0,0,1-1.93,4.19l-2.28,4.11c-3.08,5.49-6.32,10.93-9.14,16.56a70.25,70.25,0,0,0-6.4,17.53,47.28,47.28,0,0,0-.93,9,66.21,66.21,0,0,0,11.77,37.72,70.15,70.15,0,0,0,15.4,15.78c2.91,1.87,2.54,1,2.54,1-.41-.45-3.31-4-3.8-4.66l-1.8-2.19c-1.07-1.43-1.89-2.5-2.48-3.33l-1.22-1.81L75,287.4a4.31,4.31,0,0,1-.29-.45c-.19-.3-.46-.76-.82-1.35-.75-1.18-1.74-3-2.93-5.28a62.32,62.32,0,0,1-3.52-8.74,39.83,39.83,0,0,1-1.9-12.07c0-.56.07-1.12.11-1.69a12.27,12.27,0,0,1,.2-1.71c.11-.57.21-1.15.32-1.73s.34-1.13.52-1.71a48.51,48.51,0,0,1,3.08-7,83.86,83.86,0,0,1,9.39-13.86c3.7-4.55,7.92-9,12.34-13.49s9.35-8.61,14.12-13.15a82.29,82.29,0,0,0,6.81-7.26,64,64,0,0,0,5.72-8.2,97.65,97.65,0,0,0,8.7-17.83,81.93,81.93,0,0,0,4.36-18.8c.17-1.56.24-3.12.37-4.67s.07-3.08.1-4.6-.06-3-.13-4.53-.19-2.71-.29-4c-.19-1.62-.35-3-.42-3.61a19,19,0,0,0-1.68-5.71,25.1,25.1,0,0,0,.1,5.91c.07.66.22,2,.4,3.56.1,1.31.2,2.64.29,4s.09,2.95.13,4.44-.07,3-.1,4.52-.2,3-.37,4.58a80,80,0,0,1-4.27,18.43,95.62,95.62,0,0,1-8.55,17.53A68,68,0,0,1,104.51,204c-4.7,4.48-9.68,8.66-14.14,13.18s-8.69,9-12.45,13.61A85.07,85.07,0,0,0,68.36,245a51.11,51.11,0,0,0-3.18,7.21c-.19.62-.39,1.23-.56,1.84s-.23,1.25-.34,1.86a11.44,11.44,0,0,0-.22,1.82l-.12,1.8a42.17,42.17,0,0,0,2,12.57,62.51,62.51,0,0,0,3.63,9c1.21,2.38,2.23,4.2,3,5.4l.83,1.39c.19.31.3.46.3.46l.57.84L75.48,291c.6.84,1.44,1.94,2.53,3.4l1.84,2.23c.49.63,1.14,1.33,1.88,2.14.37.4,4.65,3.22,4.65,3.22.47,0-3-3.47-3.24-3.68a71,71,0,0,1-14.91-15.75,65.14,65.14,0,0,1-10.92-28.25A52.27,52.27,0,0,1,57.65,237a68.51,68.51,0,0,1,6.27-17.12c2.77-5.56,6-11,9.09-16.49l2.3-4.14a39.19,39.19,0,0,0,2-4.37,37.76,37.76,0,0,0,2.3-9.25,54,54,0,0,0-1.4-18.36c-1.38-5.83-3.29-11.3-4.89-16.55a62.2,62.2,0,0,1-1.89-7.74c-.09-.64-.19-1.27-.28-1.9L71,139.16c0-.61,0-1.21-.08-1.79,0-.34,0-.66,0-1,0-.57,0-1,0-1.35,0-1.2,0-2.15,0-3.06S70.71,130.24,70.57,129.19Z"/><path class="cls-8" d="M82.08,107.09a6.55,6.55,0,0,1-3.92-5.77c0-5.81,5.85-4.6,5.85-4.6-.81,3.75.76,5.77,5,7.17,8.72,2.88,19,.9,21.91,0,4.27-1.32,7.94-4.33,5.28-7.29,0,0,7.06-2,7.06,4.72a7,7,0,0,1-3.92,5.77C116.87,108.45,95.76,113.1,82.08,107.09Z"/></symbol></defs><g id="SEA_1"><use width="126.59" height="92.63" transform="translate(85.34 19.65)" xlink:href="#Aquatic_hair_4"/><path class="cls-16" d="M141.39,195.23c-3.19,6.71-.27,14.59,4.27,20.63s10.64,11.07,14.83,17.31A35.14,35.14,0,0,1,165,263c-3.09,9.94-10.88,18.59-21,23.33,6.76-11.56,3.74-27.12-7-35.91v1.26c1.05,14.6-6.31,16.72-12.79,22.17,2.62-7.28.24-15.16-3.25-22.18s-8.12-13.7-10.26-21.09a27.64,27.64,0,0,1,6.9-26.69s19.39-18.32,25.72-18.54S141.39,195.23,141.39,195.23Z"/><path class="cls-3" d="M141.39,195.23a11.16,11.16,0,0,0-2.14,4.14,11.81,11.81,0,0,0-.17,5.23,21.22,21.22,0,0,0,.56,2.37c.13.5.33,1,.53,1.61l.13.38.29.69q.28.71.63,1.38a26.71,26.71,0,0,0,1.48,2.72,41.79,41.79,0,0,0,3.74,5.14c2.77,3.3,5.93,6.4,8.89,9.76a50.78,50.78,0,0,1,4.14,5.29,34.46,34.46,0,0,1,5.77,19.46,32.61,32.61,0,0,1-3.08,13.39,36.45,36.45,0,0,1-7.9,11,37.78,37.78,0,0,1-5.1,4.15c-.43.32-.9.6-1.35.88l-.68.43-.13.09-.05,0-.15.09h0v0h0l.31-.76a14.54,14.54,0,0,0,.5-1.54,28.37,28.37,0,0,0,1.16-6.17,30,30,0,0,0-1.35-11.22,31.28,31.28,0,0,0-4.19-8.49,34,34,0,0,0-2.51-3l-.64-.69a14.43,14.43,0,0,0-1.15-1.07l-2.2-1.95-.52-.46-.25-.22-.13-.11-.06-.06s0,0,0,.07c0,.44,0,.87,0,1.28,0,.81,0,1.58,0,2.29s.05,1.4.06,2c0,.33,0,.62,0,.89,0,1-.05,1.5-.05,1.5s0,.07,0,.24a6.16,6.16,0,0,1-.05.84c-.05.4-.11.93-.2,1.62-.06.34-.15.71-.24,1.12-.05.21-.09.43-.14.66s-.15.45-.23.69-.17.5-.25.76-.24.52-.36.79a12.82,12.82,0,0,1-.93,1.72A17.68,17.68,0,0,1,130,267.8c-.74.64-1.6,1.28-2.52,2l-1.15.85h0c-.06.35.15-.86.18-1.6a18.92,18.92,0,0,0,.06-2.51,31.06,31.06,0,0,0-2.06-9.83c-1.48-4.16-4.08-8.82-6.92-13.9a87,87,0,0,1-4.08-8.14,38.81,38.81,0,0,1-1.6-4.47,23.76,23.76,0,0,1-.83-4.73A26.4,26.4,0,0,1,117,206.52c.55-.66,1.14-1.29,1.72-1.89l2-1.82c1.33-1.21,2.68-2.41,4-3.58,2.71-2.35,5.46-4.61,8.23-6.71,1.39-1,2.78-2.05,4.19-3a28.1,28.1,0,0,1,4.25-2.36l.25-.11.16-.06.31-.1a5.41,5.41,0,0,1,.58-.18,4.07,4.07,0,0,1,.52-.09,2.54,2.54,0,0,1,.48,0,3.85,3.85,0,0,1,.4,0c.08,0,.21.05.23.08s.07,0,.1.09a.69.69,0,0,1,0,.26,6.68,6.68,0,0,1-.48,2c-.26.69-.53,1.35-.8,2-.55,1.3-1.07,2.59-1.76,4.11a20.22,20.22,0,0,0,3.35-3.14,12.45,12.45,0,0,0,1.35-2A6.5,6.5,0,0,0,147,187a2.93,2.93,0,0,0-.25-1.23,2.64,2.64,0,0,0-1.26-1.32,3.56,3.56,0,0,0-.86-.31,6,6,0,0,0-2.51.08,6.39,6.39,0,0,0-.81.24l-.4.13-.2.08-.3.13a29.56,29.56,0,0,0-4.65,2.58c-1.48,1-2.92,2-4.34,3.06-2.84,2.15-5.61,4.45-8.36,6.82-1.37,1.19-2.73,2.39-4.08,3.62l-2,1.85c-.69.69-1.33,1.39-2,2.12a29.19,29.19,0,0,0-6.44,20.74,26.16,26.16,0,0,0,.92,5.23,42.37,42.37,0,0,0,1.7,4.76,88.4,88.4,0,0,0,4.2,8.38c2.88,5.13,5.37,9.62,6.77,13.54a29.23,29.23,0,0,1,1.91,9,18.12,18.12,0,0,1-.06,2.23,9.05,9.05,0,0,1-.11,1.06,13.79,13.79,0,0,1-.36,1.85c-.49,1.62-1,3.23-1.43,4.66-.11.37-.23.73-.34,1.09l.8-.64,1.59-1.29,3.1-2.45L129,271.8c.93-.7,1.83-1.36,2.64-2.06a19.86,19.86,0,0,0,3.87-4.21,16.07,16.07,0,0,0,1.11-2c.15-.33.31-.64.42-.94s.2-.61.3-.89l.26-.81.17-.75c.1-.48.2-.9.27-1.29.1-.76.17-1.35.22-1.8a6.35,6.35,0,0,0,.06-.93c0-.19,0-.26,0-.26s0-.57.05-1.63c0-.23,0-.5,0-.83h0l0,0,.51.56A26.27,26.27,0,0,1,145,264.49a27.72,27.72,0,0,1,1.24,10.28,26,26,0,0,1-1.06,5.61,12.05,12.05,0,0,1-.46,1.4l-.28.69a15.05,15.05,0,0,1-.64,1.48c-.6,1.12-.92,1.88-1.36,2.8l-.62,1.33-.32.67-.07.17,0,.09s0,.06,0,0l.35-.17,2.81-1.4c.94-.47,1.76-.94,2.66-1.41l.66-.35a6.41,6.41,0,0,0,.56-.32l.73-.45c.48-.31,1-.6,1.43-.94a41.16,41.16,0,0,0,5.43-4.42,39,39,0,0,0,8.44-11.71,35.33,35.33,0,0,0,3.33-14.43,37.09,37.09,0,0,0-6.21-20.92,54,54,0,0,0-4.35-5.56c-3-3.45-6.18-6.53-8.84-9.71a39.57,39.57,0,0,1-3.53-4.83,27.58,27.58,0,0,1-1.36-2.49c-.2-.42-.4-.84-.56-1.27l-.27-.62-.12-.35c-.18-.51-.36-1-.48-1.44a21.46,21.46,0,0,1-.51-2.09,29.89,29.89,0,0,1-.48-4.57A20.62,20.62,0,0,1,141.39,195.23Z"/><path class="cls-3" d="M117.6,203.89a21.39,21.39,0,0,0-1.75,1.25,13.84,13.84,0,0,0-1.58,1.77l-.5.75-.34.5-.18.28c-.23.39-.45.79-.68,1.19-.38.63-.66,1.31-1,2A28.72,28.72,0,0,0,110,230.45c1.82,6.52,5.54,12.41,8.73,18.33a61,61,0,0,1,4.17,9.06,28.87,28.87,0,0,1,1.78,9.35,18.68,18.68,0,0,1-.51,4.51l-.08.34a3.83,3.83,0,0,1-.16.58l-.34,1.11-.34,1.1-.16.55,0,.13c0,.05.06,0,.09-.05l.22-.18,1.78-1.43c.29-.24.59-.49.89-.71l.44-.33a50.27,50.27,0,0,0,6.64-5.41,15.69,15.69,0,0,0,3.8-6.72,26.86,26.86,0,0,0,.76-6.42c0-.94-.07-1.82-.1-2.63,0-.41,0-.81,0-1.19h0c-2,.9-.54.25-1,.46l0,0,.05.05.11.09.2.18.38.35a24.43,24.43,0,0,1,2.28,2.25h0a12.63,12.63,0,0,1,1.13,1.35c.35.46.71.88,1,1.33.56.92,1.18,1.74,1.6,2.61a21.76,21.76,0,0,1,1.19,2.44q.25.58.48,1.14c.15.37.25.74.38,1.09a31.42,31.42,0,0,1,1,3.75c.15,1.1.35,2,.38,2.79s.09,1.41.12,1.91,0,.89,0,1.17c0,.56,0,.74,0,.74a9.66,9.66,0,0,1-.11,1.35c-.05.44-.09,1-.19,1.63s-.27,1.36-.44,2.18-.47,1.7-.82,2.65l-.6,1.46a19.44,19.44,0,0,1-1,2.06q-.42.79-.84,1.62l-.22.41,0,.11s-.06.09,0,.05l.2-.1.81-.4,1.64-.82.84-.42.45-.25a40.47,40.47,0,0,0,3.69-2.27,42.59,42.59,0,0,0,7.38-6.46,38.68,38.68,0,0,0,6.15-9.23,31.91,31.91,0,0,0,2.07-5.57,32.66,32.66,0,0,0,1.1-6,35.78,35.78,0,0,0-1.11-12.6,36.65,36.65,0,0,0-5.57-11.68,99.52,99.52,0,0,0-8.4-9.68,58.2,58.2,0,0,1-7.68-9.54,27.7,27.7,0,0,1-2.49-5.26,20.65,20.65,0,0,1-.73-2.72c-.11-.46-.14-.92-.22-1.37,0-.23,0-.45-.06-.68l0-.45c-.05-.59,0-1.12,0-1.56s.08-.8.1-1c.24-1.74.36-2.73.62-4.3a7.92,7.92,0,0,0-1.81,4.15c0,.26-.08.64-.11,1.12s-.05,1.06,0,1.69l0,.48a6,6,0,0,0,.07.73c.07.48.12,1,.23,1.46a22.68,22.68,0,0,0,.77,2.88,29.52,29.52,0,0,0,2.59,5.49A59.87,59.87,0,0,0,151,223a97.85,97.85,0,0,1,8.3,9.56,35.39,35.39,0,0,1,5.39,11.29A34.57,34.57,0,0,1,165.77,256a33.17,33.17,0,0,1-3.06,11.21,37.34,37.34,0,0,1-6,8.94,41.77,41.77,0,0,1-7.17,6.27,39.38,39.38,0,0,1-3.58,2.2l-.43.25-.05,0-.09.05-.06,0a10.65,10.65,0,0,0,.5-1.07c.21-.53.42-1,.62-1.53.37-1,.6-1.93.86-2.77s.33-1.62.46-2.28.15-1.24.2-1.7a10.53,10.53,0,0,0,.11-1.41s0-.19,0-.78c0-.29,0-.69,0-1.21s-.08-1.18-.13-2-.24-1.76-.39-2.9a32.87,32.87,0,0,0-1-3.91c-.13-.37-.24-.75-.39-1.14l-.5-1.18a23.71,23.71,0,0,0-1.24-2.55c-.44-.91-1.08-1.76-1.67-2.72-.32-.46-.7-.91-1.06-1.38a12.78,12.78,0,0,0-1.18-1.41h0a24.16,24.16,0,0,0-2.38-2.35l-.4-.36-.21-.19-.1-.09,0,0,0,0c-.44.21,1-.47-1,.46h0c0,.38,0,.78,0,1.19,0,.82.06,1.7.1,2.65a25.18,25.18,0,0,1-.72,6.09,14.52,14.52,0,0,1-3.51,6.22,49.73,49.73,0,0,1-6.5,5.27l-.45.34h0l0-.22a19.61,19.61,0,0,0,.54-4.79,29.8,29.8,0,0,0-1.85-9.75,62,62,0,0,0-4.24-9.23c-3.22-6-6.88-11.8-8.63-18.08a27.5,27.5,0,0,1,1.48-18c.32-.64.58-1.3.95-1.9.22-.38.43-.76.64-1.14l.18-.26c.11-.18.22-.34.32-.49l.48-.71a22.4,22.4,0,0,0,1.27-1.9C116.89,205.15,117.22,204.59,117.6,203.89Z"/><path class="cls-17" d="M125.15,154.24s.57,8.89-5.18,14.73-19,7.89-13.85,4.4a15.71,15.71,0,0,0,6-7.91.17.17,0,0,0-.29-.18C106,170.55,99,169.86,91,170.39c-8.27.54-17.15,1.09-23.64,6.24a37.59,37.59,0,0,1,14.13-17.44s10.92-7.3,32.54-10.75c6.26-1,5.48-9.24,8.61-5.33S125.15,154.24,125.15,154.24Z"/><path class="cls-3" d="M125.15,154.24c-.5,2.17-.93,3.55-1.48,6-.08.33-.22.82-.4,1.42l-.33,1q-.27.63-.54,1.29c-.25.47-.46,1-.76,1.43a12.28,12.28,0,0,1-.91,1.39,13,13,0,0,1-1.07,1.31,18.19,18.19,0,0,1-5.9,4.05,27.85,27.85,0,0,1-3.58,1.36c-.61.19-1.24.36-1.87.49-.31.07-.63.13-.94.18l-.47.06-.23,0h-.28l0,0,.7-.51a16.42,16.42,0,0,0,3.12-3,17.87,17.87,0,0,0,1.24-1.79l.27-.47s.13-.22.2-.37l.23-.46a12.75,12.75,0,0,0,.72-1.75l.08-.2v-.43a1,1,0,0,0-.14-.35l-.09-.13a1.55,1.55,0,0,0-.23-.19c-.14-.13-.25,0-.41,0l-.85.16s-.21.14-.33.22l-.38.29-.76.58-.38.29-.33.24-.42.24c-.28.15-.55.34-.84.46l-.87.42-.9.34a20.86,20.86,0,0,1-3.71,1,62.48,62.48,0,0,1-7.52.62c-5,.22-9.46.51-13.33,1.05a37.65,37.65,0,0,0-9.1,2.33A23.44,23.44,0,0,0,70,173.86l-.59.32h0l-.09.06,0,0h0c.07-.14.15-.29.22-.44a34.43,34.43,0,0,1,2.15-3.66,36.65,36.65,0,0,1,5.78-6.76A36.12,36.12,0,0,1,82,159.85a49.9,49.9,0,0,1,5.71-3,91.08,91.08,0,0,1,13.44-4.78c1.18-.33,2.38-.65,3.59-.93s2.41-.57,3.63-.81,2.42-.5,3.64-.7l1.82-.32a8.14,8.14,0,0,0,2-.52A7.6,7.6,0,0,0,119,146.3c.8-1,1.35-2.19,1.92-3a1.91,1.91,0,0,1,.31-.34l0,0a3.39,3.39,0,0,1,.91,1,7.06,7.06,0,0,1,.42.64l.18.34.13.23a13.73,13.73,0,0,1,1,3.09c.47,2.43.81,3.85,1.26,6a12,12,0,0,0,.39-6.38,15.06,15.06,0,0,0-1.15-3.49l-.15-.28-.23-.4a6.13,6.13,0,0,0-.51-.78,4.74,4.74,0,0,0-1.47-1.46,1.69,1.69,0,0,0-1.62,0,2.68,2.68,0,0,0-.92.87c-.75,1.11-1.2,2.11-1.89,3a6,6,0,0,1-2.46,2,6.35,6.35,0,0,1-1.6.41l-1.84.33c-1.23.2-2.46.44-3.69.7s-2.46.52-3.68.83-2.44.6-3.65.94A92.87,92.87,0,0,0,87,155.32a51.75,51.75,0,0,0-5.93,3.11,36.87,36.87,0,0,0-4.77,3.72,38.29,38.29,0,0,0-6,7.07A35.09,35.09,0,0,0,68,173.05l-.27.53c-.15.3-.27.61-.41.9-.25.58-.49,1.13-.72,1.64l-1.13,2.71-.11.26a1.23,1.23,0,0,0,.25-.17l.5-.36.89-.65c.54-.41,1-.71,1.32-.94l1.54-1.05.38-.26.58-.31a22.84,22.84,0,0,1,2.21-1.06,36.56,36.56,0,0,1,8.7-2.22c3.74-.52,8.27-.81,13.16-1a62.4,62.4,0,0,0,7.73-.64,22.3,22.3,0,0,0,4-1l1-.38,1-.46a9.66,9.66,0,0,0,.94-.52l.46-.26a1.07,1.07,0,0,0,.15-.1l.19-.13h0s0,0,0,.08L110,168a15.88,15.88,0,0,1-1.11,1.61,15.23,15.23,0,0,1-2.8,2.7l-.4.28-.56.42a6.23,6.23,0,0,0-.66.63,1.74,1.74,0,0,0-.22.36.77.77,0,0,0-.14.36,1.14,1.14,0,0,0,.09.74,1.21,1.21,0,0,0,.52.53,1.06,1.06,0,0,0,.39.15,1.42,1.42,0,0,0,.44.1,5.45,5.45,0,0,0,.88,0h.34l.27,0,.54-.07c.36-.05.7-.12,1-.19.68-.15,1.35-.33,2-.53a29.64,29.64,0,0,0,3.79-1.44,19.9,19.9,0,0,0,6.44-4.45,12.74,12.74,0,0,0,1.2-1.46,14.86,14.86,0,0,0,1-1.53c.33-.51.56-1.06.83-1.58l.59-1.41.36-1.05c.19-.66.34-1.19.42-1.54A11.88,11.88,0,0,0,125.15,154.24Z"/><path class="cls-18" d="M183.59,149.52c-5.48.88-8.74-4.93-9.86-10.09s-3.36-1-4.86,1.67-1.09,12.62-1.09,12.62-.46,8.85,5.19,14.72,18.54,8.06,13.52,4.54a16.08,16.08,0,0,1-6-7.94.18.18,0,0,1,.29-.19c5.75,5.32,12.56,4.71,20.39,5.32,8,.62,16.7,1.27,23.07,6.46a38.43,38.43,0,0,0-13.93-17.51S198.24,151.24,183.59,149.52Z"/><path class="cls-3" d="M183.59,149.52a8.43,8.43,0,0,1-5.13-2.49,8.29,8.29,0,0,1-.94-1c-.18-.25-.39-.5-.58-.81l-.33-.53-.39-.71c-.25-.5-.49-1-.7-1.54a22.17,22.17,0,0,1-1-3.4c-.1-.33-.16-.66-.3-1a4.25,4.25,0,0,0-.54-1.06,3,3,0,0,0-.61-.56,2.44,2.44,0,0,0-.44-.19c-.16,0-.33,0-.49,0s-.29.06-.44.1a2.13,2.13,0,0,0-.39.15,4.06,4.06,0,0,0-.53.4,15.3,15.3,0,0,0-2.42,3.5,3.28,3.28,0,0,0-.25.46l-.26.57a8.91,8.91,0,0,0-.31,1.09,16,16,0,0,0-.35,2.13c-.16,1.42-.23,2.84-.27,4.26s0,2.86,0,4.3v1q0,.56,0,1.11c0,.74.1,1.48.21,2.21a22.6,22.6,0,0,0,2.82,8.39,17.17,17.17,0,0,0,2.73,3.5,19,19,0,0,0,3.46,2.61,28.25,28.25,0,0,0,7.58,3.12,14.12,14.12,0,0,0,2,.36c.15,0,.44,0,.66.05s.59,0,.86-.06a1.5,1.5,0,0,0,1.12-.77,1.36,1.36,0,0,0-.2-1.31c-.17-.21-.38-.41-.57-.61l-.54-.42c-.51-.39-.91-.69-1.34-1.06a14.71,14.71,0,0,1-2.16-2.33,13.8,13.8,0,0,1-.85-1.25l-.19-.32-.12-.22h0s0,0,0,0l.08.06,0,0,.23.13a17.17,17.17,0,0,0,3.93,1.85c.56.19,1.07.33,1.52.44s.83.2,1.14.25c.61.13.94.18.94.18s.86.16,2.58.33,4.27.27,7.6.49a95.11,95.11,0,0,1,12.36,1.48A29.42,29.42,0,0,1,220.3,175l.93.52.12.07.24.16.48.34,1,.69c.65.45,1.31.93,2,1.44l1,.75.25.19a2.11,2.11,0,0,0-.08-.22l-.21-.51c-.57-1.39-1.17-2.8-1.8-4.21l-.23-.54-.21-.4-.28-.56c-.18-.38-.39-.74-.6-1.11a39.42,39.42,0,0,0-9.47-11.32,27.76,27.76,0,0,0-3.52-2.5c-1.24-.74-2.52-1.43-3.81-2.09a78.17,78.17,0,0,0-8-3.5c-1.36-.52-2.73-1-4.08-1.38l-.87-.25-1.27-.36-1.86-.45a18.68,18.68,0,0,0-3.3-.45,25,25,0,0,0-3,.18c1,.43,1.9.75,2.82,1a32.31,32.31,0,0,0,3.13.88l1.8.44,1.24.36.84.24c1.32.41,2.66.84,4,1.34a76.92,76.92,0,0,1,7.86,3.43c1.26.65,2.52,1.32,3.71,2a26.08,26.08,0,0,1,3.31,2.36,37.51,37.51,0,0,1,9.07,10.82c.2.36.4.71.57,1.07l.27.53.07.14h0l-1.17-.65a30.89,30.89,0,0,0-7.88-2.74,95.45,95.45,0,0,0-12.6-1.51c-3.39-.23-5.9-.32-7.56-.49s-2.46-.32-2.46-.32-.32,0-.89-.16c-.29-.06-.65-.13-1.06-.24s-.88-.23-1.4-.41a15.65,15.65,0,0,1-3.56-1.67l-.12-.07-.17-.12-.48-.38-1-.77-.51-.39c-.1-.1-.11,0-.16-.07l-.12,0-.51-.07-.26,0c-.1,0-.12,0-.26.08a.78.78,0,0,0-.23.23.56.56,0,0,0-.11.19,1.11,1.11,0,0,0-.05.69,12.41,12.41,0,0,0,.45,1.21c.16.42.42.88.63,1.32l.25.45.21.36a15.28,15.28,0,0,0,.94,1.38,16.24,16.24,0,0,0,2.4,2.6c.45.39,1,.8,1.43,1.12l.17.13h0l-.28,0a12.77,12.77,0,0,1-1.75-.33,26.28,26.28,0,0,1-7.1-2.93,15.05,15.05,0,0,1-5.6-5.52,20.62,20.62,0,0,1-2.6-7.75c-.11-.68-.16-1.37-.21-2.06,0-.35,0-.69,0-1v-1.09c0-1.41,0-2.82,0-4.21s.11-2.78.26-4.11a16.89,16.89,0,0,1,.31-1.95c.06-.31.17-.59.25-.87l.16-.36c.06-.12.16-.29.24-.43a14.16,14.16,0,0,1,2.08-3.07,1.64,1.64,0,0,1,.24-.19c.06,0,.07,0,.08,0h0l.08.1a4.91,4.91,0,0,1,.54,1.46,24.94,24.94,0,0,0,1.1,3.63c.23.58.49,1.14.77,1.69.14.27.29.53.44.8l.37.59a10.7,10.7,0,0,0,.67.93,9.66,9.66,0,0,0,1.12,1.22A5.6,5.6,0,0,0,183.59,149.52Z"/><path class="cls-3" d="M81.45,159.19A10.25,10.25,0,0,0,78.12,161c-.16.13-.42.33-.71.59l-.49.43-.33.29-.41.39c-.27.26-.56.52-.83.8-.56.55-1.11,1.14-1.65,1.76a38.11,38.11,0,0,0-5.82,8.8l-.29.63c-.18.36-.36.81-.53,1.22l-.52,1.25-.27.63-.06.16,0,.08s0,0,.06,0l.28-.2,2.22-1.59A2.28,2.28,0,0,1,69,176l.15-.09.29-.18.57-.36a25.86,25.86,0,0,1,5-2.18,48.62,48.62,0,0,1,10.26-1.89c3.29-.3,6.32-.49,8.9-.6s4.72-.21,6.2-.37,2.33-.32,2.33-.32l.49-.09c.35,0,.93-.19,1.84-.42a19.84,19.84,0,0,0,3.65-1.42l1.19-.68,1.21-.85.16-.13h0l-.18.4a15.36,15.36,0,0,1-2,3.09,14.48,14.48,0,0,1-1.82,1.89c-.37.31-.75.63-1.17.92a6.57,6.57,0,0,0-1.36,1.14,1.53,1.53,0,0,0-.28.73.83.83,0,0,0,.36.67,2,2,0,0,0,.68.25,2.89,2.89,0,0,0,.5,0,10.71,10.71,0,0,0,1.89-.17,25,25,0,0,0,3.74-1,25.76,25.76,0,0,0,7.25-3.81,16.73,16.73,0,0,0,5-6.67c.27-.62.49-1.26.7-1.89.11-.32.18-.64.27-1l.13-.47.06-.28c0-.2.09-.4.13-.58.15-.75.25-1.37.29-1.71a8.72,8.72,0,0,0-.3-3.8,36.62,36.62,0,0,0-.71,3.66c0,.33-.14.93-.28,1.64,0,.18-.08.36-.12.56l-.06.27-.12.45c-.09.3-.16.61-.26.91-.2.6-.41,1.21-.67,1.8a15.72,15.72,0,0,1-4.67,6.26,24.46,24.46,0,0,1-7,3.66,22.51,22.51,0,0,1-3.57,1,9.34,9.34,0,0,1-1.69.16c-.14,0-.25,0-.37,0l-.12,0s0,0,0,0a6.33,6.33,0,0,1,1.14-.93,14.1,14.1,0,0,0,1.24-1,14.61,14.61,0,0,0,2-2,16.45,16.45,0,0,0,2.09-3.3c.07-.17.15-.33.22-.49s.22-.58.33-.86a2.86,2.86,0,0,0,.13-.68c-.06-.12,0-.2-.18-.33a.69.69,0,0,0-.24-.15c-.07,0-.1,0-.19,0l-.43.1-.1,0-.14.11-.27.22-.53.45-.13.1-.08.06-.16.11-.3.21-.58.4-1.12.64a19.34,19.34,0,0,1-3.45,1.35c-.86.21-1.42.35-1.76.4l-.47.08s-.81.16-2.26.31-3.56.27-6.15.37-5.63.3-8.94.59a49.64,49.64,0,0,0-10.48,1.94,26.33,26.33,0,0,0-5.17,2.26l-1,.65h0s0,0,0,0l.28-.61A37.61,37.61,0,0,1,74.46,166c.53-.6,1.07-1.17,1.61-1.71.26-.27.54-.52.81-.78l.4-.38.32-.28.47-.41c.29-.26.53-.46.7-.59A20.9,20.9,0,0,0,81.45,159.19Z"/><path class="cls-3" d="M210.35,159.12a20.61,20.61,0,0,0,2.6,2.61c.16.13.4.32.68.58l.46.42.31.28.39.38c.26.25.54.5.8.78.53.54,1,1.11,1.57,1.71a38.23,38.23,0,0,1,5.58,8.48l.28.61.08.18h0s0,0,0,0l-.07-.05-.15-.1-.59-.38a25.74,25.74,0,0,0-5.05-2.36,47.08,47.08,0,0,0-10.32-2.1c-3.28-.33-6.28-.55-8.84-.69s-4.64-.26-6.07-.45-2.22-.34-2.22-.34l-.45-.09c-.33-.06-.86-.2-1.69-.43a17.9,17.9,0,0,1-3.32-1.37l-1.07-.65-.56-.4-.29-.21a2.7,2.7,0,0,1-.37-.28l-.53-.45c-.17-.13-.38-.37-.49-.35l-.4-.1a.19.19,0,0,0-.18,0,.57.57,0,0,0-.23.15.88.88,0,0,0-.18.3,2.71,2.71,0,0,0,.1.63l.32.84.24.53a16.68,16.68,0,0,0,3.9,5.3,15.24,15.24,0,0,0,1.21,1A10.19,10.19,0,0,1,187,174l.08.09h0a1.8,1.8,0,0,1-.37,0A9,9,0,0,1,185,174a22.19,22.19,0,0,1-3.54-1,24.19,24.19,0,0,1-6.86-3.74A16,16,0,0,1,170,163c-.26-.59-.47-1.19-.67-1.79-.1-.3-.17-.61-.26-.91l-.13-.45-.07-.34c0-.19-.09-.38-.13-.55-.14-.71-.24-1.3-.28-1.62a35.44,35.44,0,0,0-.72-3.61,8.49,8.49,0,0,0-.27,3.74c0,.34.14.95.29,1.69,0,.19.08.38.13.57l.08.36.13.47c.09.32.17.64.27.95.21.63.43,1.26.7,1.88a17.1,17.1,0,0,0,4.89,6.67,25.18,25.18,0,0,0,7.15,3.91,24,24,0,0,0,3.7,1,9,9,0,0,0,1.88.18,2.43,2.43,0,0,0,.55-.07,1.08,1.08,0,0,0,.65-.38.74.74,0,0,0,.15-.73,1.55,1.55,0,0,0-.34-.61,10.35,10.35,0,0,0-1.33-1.09c-.41-.3-.78-.62-1.14-.93a15.29,15.29,0,0,1-1.77-1.91,15.69,15.69,0,0,1-1.9-3.07l-.14-.33h0l.12.11,1.14.82,1.14.69a19,19,0,0,0,3.51,1.45c.87.24,1.43.38,1.77.45l.47.09s.82.18,2.29.36,3.59.31,6.13.45,5.55.36,8.79.69a45.76,45.76,0,0,1,10.1,2.05,24.34,24.34,0,0,1,4.85,2.27c.44.23,2.3,1.6,3.65,2.6-.34-.83-.69-1.65-1-2.47-.08-.21-.16-.41-.26-.62l-.2-.44-.29-.62a39.45,39.45,0,0,0-5.72-8.71c-.53-.62-1.07-1.2-1.62-1.75-.26-.29-.54-.54-.81-.81l-.4-.39-.32-.28-.48-.43c-.28-.26-.53-.46-.69-.59A10,10,0,0,0,210.35,159.12Z"/><use width="200.6" height="301.95" transform="translate(83.6 57.84) scale(0.64)" xlink:href="#Aquatic_Male_1"/></g></svg>