<svg xmlns="http://www.w3.org/2000/svg" xmlns:xlink="http://www.w3.org/1999/xlink" viewBox="0 0 300 300"><defs><style>.cls-1{fill:url(#radial-gradient);}.cls-2{fill:url(#radial-gradient-2);}.cls-3{fill:#e0e0e0;}.cls-12,.cls-13,.cls-4,.cls-8{stroke:#dbdbdb;}.cls-12,.cls-13,.cls-4,.cls-7,.cls-8{stroke-miterlimit:10;}.cls-4{stroke-width:1.5px;fill:url(#radial-gradient-3);}.cls-5{fill:#202020;}.cls-6{fill:#fff;}.cls-7{fill:none;stroke:#000;stroke-width:1.2px;}.cls-8{fill:#29abe2;stroke-width:1.24px;}.cls-9{fill:url(#New_Gradient_Swatch_13);}.cls-10{fill:url(#New_Gradient_Swatch_13-2);}.cls-11{fill:url(#New_Gradient_Swatch_13-3);}.cls-12,.cls-13{stroke-width:0.8px;}.cls-12{fill:url(#radial-gradient-4);}.cls-13{fill:url(#radial-gradient-5);}</style><radialGradient id="radial-gradient" cx="99.93" cy="96.17" fx="116.63529227220099" fy="107.40443202046933" r="30.48" gradientTransform="translate(0 -6.06)" gradientUnits="userSpaceOnUse"><stop offset="0.15" stop-color="#3d8eff"/><stop offset="0.19" stop-color="#459aff"/><stop offset="0.27" stop-color="#59b9ff"/><stop offset="0.36" stop-color="#7bebff"/><stop offset="0.38" stop-color="#81f4ff"/></radialGradient><radialGradient id="radial-gradient-2" cx="104.14" cy="198.06" fx="209.5615571070008" fy="269.51216326197545" r="131.86" gradientTransform="translate(0 -6.06)" gradientUnits="userSpaceOnUse"><stop offset="0.06" stop-color="#3d8eff"/><stop offset="0.16" stop-color="#459aff"/><stop offset="0.33" stop-color="#59b9ff"/><stop offset="0.56" stop-color="#7bebff"/><stop offset="0.6" stop-color="#81f4ff"/></radialGradient><radialGradient id="radial-gradient-3" cx="101.28" cy="41.79" fx="107.81802673187346" r="42.49" gradientTransform="translate(0 -6.06)" gradientUnits="userSpaceOnUse"><stop offset="0.75" stop-color="#81f4ff"/><stop offset="1" stop-color="#3d8eff"/></radialGradient><radialGradient id="New_Gradient_Swatch_13" cx="17.47" cy="15.18" fx="34.623545068984015" fy="26.244050986538383" r="23.11" gradientTransform="translate(0 -14.74)" gradientUnits="userSpaceOnUse"><stop offset="0.52" stop-color="#fff"/><stop offset="0.59" stop-color="#f7feff"/><stop offset="0.69" stop-color="#e3fdff"/><stop offset="0.81" stop-color="#c1faff"/><stop offset="0.95" stop-color="#92f5ff"/><stop offset="1" stop-color="#81f4ff"/></radialGradient><radialGradient id="New_Gradient_Swatch_13-2" cx="145.41" cy="16.79" fx="162.45344182378935" fy="27.776549846355188" r="22.96" xlink:href="#New_Gradient_Swatch_13"/><radialGradient id="New_Gradient_Swatch_13-3" cx="902.62" cy="940.04" fx="953.1300075016518" fy="972.6027316718594" r="68.02" gradientTransform="matrix(1.1, 0.05, -0.04, 1.09, -901.3, -991.33)" xlink:href="#New_Gradient_Swatch_13"/><radialGradient id="radial-gradient-4" cx="-7635.04" cy="-1571.72" fx="-7561.834367487528" fy="-1548.7472704180605" r="89.88" gradientTransform="matrix(-0.42, -0.79, 0.14, -0.21, -2943.63, -6357.82)" gradientUnits="userSpaceOnUse"><stop offset="0.49" stop-color="#81f4ff"/><stop offset="0.91" stop-color="#3d8eff"/></radialGradient><radialGradient id="radial-gradient-5" cx="33254.38" cy="1741.93" fx="33327.58257708219" fy="1764.9070981819862" r="89.88" gradientTransform="matrix(0.42, -0.79, -0.14, -0.21, -13548.08, 26772.52)" xlink:href="#radial-gradient-4"/><symbol id="Aquatic_hair_3" data-name="Aquatic_hair_3" viewBox="0 0 61 66.32"><path class="cls-12" d="M28.64,63.13C28.86,47.57,21.86,14.08,2.3,1.91,19.56,20.62,25.09,38.8,24.73,61.28,24.7,63,28.26,61.55,28.64,63.13Z"/><path class="cls-13" d="M32.36,63.13C32.14,47.57,39.14,14.08,58.7,1.91,41.44,20.62,35.91,38.8,36.27,61.28,36.3,63,32.74,61.55,32.36,63.13Z"/></symbol><symbol id="Aquatic_body_3" data-name="Aquatic_body_3" viewBox="0 0 161.69 144.47"><path class="cls-9" d="M26.46,0C12.19,7.75,5.16,15.43,2.2,21.45A9.68,9.68,0,0,0,.9,26.89,4.5,4.5,0,0,0,4.79,30.7c8.57.95,5.64-23.3,29.43-28.58"/><path class="cls-3" d="M26.46,0a29.91,29.91,0,0,0-2.89.91,20.17,20.17,0,0,0-2.94,1.51l-1.31.83c-.28.18-.59.36-.91.58s-.78.54-1.2.82-.86.59-1.3.92A56,56,0,0,0,5.23,15.3a30.64,30.64,0,0,0-3.92,6c-1,2-1.67,4.28-1.11,6.3a5.42,5.42,0,0,0,3.11,3.55,5.15,5.15,0,0,0,1.31.34c.31,0,.48,0,.48,0h.48a4.78,4.78,0,0,0,1.35-.31,5.37,5.37,0,0,0,1.75-1.16,10.44,10.44,0,0,0,1.54-2C12.08,25,13.56,20.6,16,16.48a31.64,31.64,0,0,1,4.22-5.75,26.12,26.12,0,0,1,5.14-4.21A35.36,35.36,0,0,1,28.63,4.8c2.31-1,3.61-1.63,5.59-2.68A14,14,0,0,0,28,3.26a31.69,31.69,0,0,0-3.49,1.82A27.22,27.22,0,0,0,19,9.56a33.74,33.74,0,0,0-4.45,6.06c-2.51,4.29-4,8.78-5.74,11.57A9.17,9.17,0,0,1,7.5,28.88a3.64,3.64,0,0,1-1.19.8,3,3,0,0,1-.84.2H4.83a3.62,3.62,0,0,1-3-2.67c-.39-1.35.08-3.22,1-5.12a28.45,28.45,0,0,1,3.7-5.69A54.13,54.13,0,0,1,16.9,7c.43-.32.85-.62,1.28-.9l1.17-.8c.31-.22.62-.4.89-.58l1.28-.82A24.18,24.18,0,0,0,24.19,2,27.64,27.64,0,0,0,26.46,0Z"/><path class="cls-10" d="M136.61.53C146.3,5.82,162,17.8,160.78,29.44a4.5,4.5,0,0,1-3.74,4c-8.18,1.07.36-18.6-26.95-31.11"/><path class="cls-3" d="M136.61.53a33.26,33.26,0,0,0,4.86,3.94l1.26.85.86.61.55.4.61.45,1.27,1a50.79,50.79,0,0,1,10,10,23,23,0,0,1,3.2,6.05,13.16,13.16,0,0,1,.68,5.57,3.73,3.73,0,0,1-1.81,2.73,3.2,3.2,0,0,1-.84.35,2.23,2.23,0,0,1-.32.06l-.32,0a2.3,2.3,0,0,1-.87-.07,2,2,0,0,1-1-.73,6.05,6.05,0,0,1-.94-1.86c-.57-1.56-1.05-3.58-1.75-5.73a37.76,37.76,0,0,0-2.86-6.7,32,32,0,0,0-4.54-6.15,38.66,38.66,0,0,0-5.36-4.72l-1.93-1.32L136,4.48a16.59,16.59,0,0,0-5.95-2.19,38.45,38.45,0,0,0,5.07,3.64l1.29.79L138.3,8a37.18,37.18,0,0,1,5.12,4.5,30,30,0,0,1,4.29,5.83,35.29,35.29,0,0,1,2.73,6.38c.69,2.09,1.16,4.08,1.78,5.8a8,8,0,0,0,1.2,2.33,3.63,3.63,0,0,0,1.89,1.29,3.94,3.94,0,0,0,1.42.14l.48,0s.17,0,.48-.09A5.11,5.11,0,0,0,159,33.6a5.41,5.41,0,0,0,2.64-4,14.84,14.84,0,0,0-.75-6.3,24.68,24.68,0,0,0-3.42-6.51A52.42,52.42,0,0,0,147.06,6.4l-1.29-1L145.14,5l-.56-.4-.89-.62c-.54-.38-1-.68-1.28-.87A17.48,17.48,0,0,0,136.61.53Z"/><path class="cls-11" d="M70.76,17.53C65.87,21.29,55,29.85,46.26,36.73c-7.65,6-9.07,17.15-7.24,26.61,4.33,22.3,26.45,36.05,29.22,56.72.57,4.24-2.6,8.07-6,10.74a24.58,24.58,0,0,1-19.75,4.51c-7-1.44-13.37-6.21-16.1-12.41-2.28-5.19-1.68-11.7,2.79-15.11s12.91-1.85,14.83,3.45c.91,2.52.63,5.79,3.07,7.19a4.09,4.09,0,0,0,4.78-.64c1.75-1.68,1.78-4.2,1.21-6.45-1.83-7.24-9.75-12.82-17.69-13a19.47,19.47,0,0,0-18.12,11.46c-2.83,6.73-1.31,14.91,3.34,21.1s12.16,10.36,20,11.81c12.35,2.27,25.13-2.08,33.81-10s11.28-19.1,13-30.46.42-23.07-1.84-34.53c-2.53-12.89-6.24-26.62-1-38.42"/><path class="cls-3" d="M70.76,17.53a31.19,31.19,0,0,0-7.38,4.32L45.39,36a20.64,20.64,0,0,0-3.81,4.1,24.08,24.08,0,0,0-2.61,5,31.68,31.68,0,0,0-1.81,11.29,37.87,37.87,0,0,0,.5,5.81l.25,1.45.35,1.43c.24,1,.46,1.91.73,2.86a59,59,0,0,0,4.78,10.87C47.69,85.73,52.69,92,57.2,98.47a78.94,78.94,0,0,1,6.1,10,25.91,25.91,0,0,1,1.2,2.63,25.27,25.27,0,0,1,1,2.69l.85,2.75.54,2.8c.92,3.51-1.26,6.79-3.94,9.26a22.22,22.22,0,0,1-9.52,5.2,23.68,23.68,0,0,1-10.61.38A22.74,22.74,0,0,1,33.52,130a19.55,19.55,0,0,1-6.11-7.59,13.42,13.42,0,0,1-.72-8.92A8.4,8.4,0,0,1,32,107.62a10.34,10.34,0,0,1,7.56.55,7.08,7.08,0,0,1,2.66,2.2,5.67,5.67,0,0,1,.74,1.45,13.78,13.78,0,0,1,.43,1.71,14.33,14.33,0,0,0,1.13,3.82A5.25,5.25,0,0,0,46,119.07a5,5,0,0,0,2,.91,5.36,5.36,0,0,0,4-.79,5.73,5.73,0,0,0,2.22-2.93,8,8,0,0,0,.37-3.19,11.42,11.42,0,0,0-.55-2.7,15.42,15.42,0,0,0-2-4.11,17.24,17.24,0,0,0-2.08-2.58,16.75,16.75,0,0,0-2-1.85,19.42,19.42,0,0,0-2.24-1.56,21.86,21.86,0,0,0-7.21-2.75A20.52,20.52,0,0,0,26.53,99a21.58,21.58,0,0,0-6.19,4.24,19,19,0,0,0-4.52,7,20.73,20.73,0,0,0-1,9.06,24.5,24.5,0,0,0,3,9.27,27.32,27.32,0,0,0,6.64,7.87,33.92,33.92,0,0,0,9.29,5.42,38.15,38.15,0,0,0,22.4,1.54A42.1,42.1,0,0,0,76.75,132.1a35.66,35.66,0,0,0,6.73-10.17,57.62,57.62,0,0,0,3.64-11.58A110.93,110.93,0,0,0,89,98.46a84,84,0,0,0,.18-12,148.53,148.53,0,0,0-3.31-22.95c-.75-3.67-1.49-7.28-2-10.83-.26-1.77-.48-3.54-.61-5.28-.06-.87-.15-1.74-.15-2.6l0-1.29c0-.21,0-.43,0-.64v-.21q0-.86,0-1.62c0-.5.08-1,.11-1.41,0-.86.15-1.55.22-2s.1-.83.15-1.21.11-.74.17-1.09c.1-.7.15-1.36.26-2s.14-1.28.24-1.93.2-1.34.3-2.09c-.43.61-.84,1.19-1.22,1.76a17.08,17.08,0,0,0-.94,1.8,12,12,0,0,0-.72,2c-.11.36-.22.74-.31,1.14s-.13.84-.21,1.28a19.77,19.77,0,0,0-.24,2.14c0,.46-.09,1-.12,1.49s0,1.11,0,1.71v.22c0,.22,0,.45,0,.67l0,1.35c0,.9.1,1.8.16,2.71.14,1.8.37,3.61.63,5.43.54,3.64,1.29,7.28,2,11a146.91,146.91,0,0,1,3.27,22.62,82.15,82.15,0,0,1-.17,11.63,107.7,107.7,0,0,1-1.83,11.61A55.31,55.31,0,0,1,81.37,121a33.47,33.47,0,0,1-6.29,9.52,39.9,39.9,0,0,1-19.51,10.73,35.9,35.9,0,0,1-21-1.44c-6.4-2.49-11.8-6.88-14.76-12.26a22.34,22.34,0,0,1-2.69-8.39,18.31,18.31,0,0,1,.92-8,16.66,16.66,0,0,1,4-6.2,19.47,19.47,0,0,1,5.51-3.77A18.19,18.19,0,0,1,38,99.78a19.5,19.5,0,0,1,6.43,2.46,17.39,17.39,0,0,1,2,1.39,15.72,15.72,0,0,1,1.79,1.63,15.33,15.33,0,0,1,1.82,2.27A12.88,12.88,0,0,1,51.75,111,7.3,7.3,0,0,1,52,115.5a3.49,3.49,0,0,1-1.32,1.77,3,3,0,0,1-2.23.45,2.62,2.62,0,0,1-1.86-1.45,12.17,12.17,0,0,1-.9-3.2,15.22,15.22,0,0,0-.51-2,8.15,8.15,0,0,0-1-2,9.38,9.38,0,0,0-3.52-2.94,12.65,12.65,0,0,0-9.32-.68,10.71,10.71,0,0,0-6.79,7.39,15.69,15.69,0,0,0,.81,10.48,21.9,21.9,0,0,0,6.83,8.51,25,25,0,0,0,10.3,4.66,26,26,0,0,0,11.65-.41,24.65,24.65,0,0,0,10.49-5.73,17.14,17.14,0,0,0,3.83-4.92,10.45,10.45,0,0,0,1-3.14,8.85,8.85,0,0,0-.16-3.27l-.58-3-.9-2.92a25.65,25.65,0,0,0-1.1-2.84,24.72,24.72,0,0,0-1.26-2.77A80.36,80.36,0,0,0,59.1,97.15c-4.58-6.57-9.52-12.76-13.32-19.48A56.73,56.73,0,0,1,41.2,67.26c-.26-.9-.45-1.81-.69-2.71l-.33-1.35-.24-1.36a37.64,37.64,0,0,1-.47-5.47,29.58,29.58,0,0,1,1.67-10.46,21.56,21.56,0,0,1,2.34-4.53,18.69,18.69,0,0,1,3.36-3.62l18-14.09A31.26,31.26,0,0,0,70.76,17.53Z"/></symbol><symbol id="Aquatic_Male_1" data-name="Aquatic_Male_1" viewBox="0 0 200.6 301.94"><path class="cls-1" d="M86.59,97.53C91,96.37,94.5,92.68,93,80l7.23-11.83L107.55,80c-.37,8.94.72,17.27,5.1,16.65l13,7.48-24.33,26.1-26.45-25Z"/><path class="cls-2" d="M83.79,299.82C69,284.31,61.37,264.22,66.16,251.69s14.28-23.23,24.12-33.25,18.63-15.58,26-27.12c12.84-20.19,17.5-40,12.91-65.37l.19.1c3.46,8.71,8.62,21,10.75,25.9a5,5,0,0,0,4.34,3c14.88.66,28.29,1.64,41.2,5,0,0,15.21,5.05,15,3.56-.52-3.09-3.91-5.13-3.91-5.13-12.87-11.38-34.42-15-44.4-18.12l-.21-.06c-3.15-10-8.1-21.43-12.31-32.26a15.65,15.65,0,0,0-18.24-9.58c-1.36.33-2.45.57-3,.66,0,0,2.1,10.59-18.32,10.59C77.47,109.58,82.52,99,82.52,99c-.58-.09-1.67-.33-3-.66a15.64,15.64,0,0,0-18.24,9.58c-4.21,10.83-9.17,22.22-12.31,32.26l-.36.1c-9.24,2.84-27.38,5.51-46.71,19.43,0,0-2.14,1.39-1.85,2.3.22.71,16.84-4.11,16.84-4.11,16.85-4,24.84-2.32,39.72-3a5,5,0,0,0,4.34-3c1.84-4.26,6.12-14.4,9.29-22.23l.35-.53c-2,14.74,2.48,21.4,6.37,36.19,3.51,13.34,2.77,24-2.34,33.45C66.23,214.27,56.18,228.36,56,245s6,33.2,17.41,46.48Z"/><path class="cls-3" d="M93,80a38.12,38.12,0,0,0-.45,5.86c0,.4,0,1.06-.15,2.4,0,.2-.06.54-.1.82a4,4,0,0,1-.07.51s-.15.77-.26,1.19a9.48,9.48,0,0,1-1.31,3.07A10.3,10.3,0,0,1,88.83,96a12.9,12.9,0,0,1-2.24,1.58,7.06,7.06,0,0,0,2.87-.6A6,6,0,0,0,92,94.74a10.92,10.92,0,0,0,1.54-3.56c.13-.47.27-1.31.27-1.31a3.6,3.6,0,0,0,.1-.56c0-.3.08-.66.1-.88a24.78,24.78,0,0,0,.15-2.55A15.1,15.1,0,0,0,93,80Z"/><path class="cls-3" d="M107.55,80a16.72,16.72,0,0,0-.8,5.92c0,.42,0,1.1.19,2.52,0,.19.07.63.07.63s0,.37.07.57a19.81,19.81,0,0,0,.82,3.68,6,6,0,0,0,1.82,2.84,2.85,2.85,0,0,0,2.93.5,2.74,2.74,0,0,1-2.1-1.32,10.34,10.34,0,0,1-1.14-2.52,19.44,19.44,0,0,1-.75-3.4c0-.2-.07-.55-.07-.55s0-.42-.06-.59c-.14-1.37-.17-2-.19-2.44A31.21,31.21,0,0,0,107.55,80Z"/><path class="cls-3" d="M52.06,139a49.33,49.33,0,0,0-5.77,1.12l-2.39.64c-2.75.71-7.43,1.89-11.35,3.11-2,.63-3.75,1.19-5,1.67l-2.09.75-1.74.68c-1.09.42-2.59,1-4.25,1.78s-3.47,1.63-5.23,2.49-3.38,1.83-4.76,2.61l-3.12,1.92a19.44,19.44,0,0,0-4.45,3.95,24.56,24.56,0,0,0,5.31-2.61l3.07-1.88c1.35-.76,3-1.67,4.69-2.56s3.49-1.76,5.14-2.46,3.11-1.34,4.18-1.75l1.72-.68,2.06-.74c1.26-.47,3-1,5-1.64,3.88-1.21,8.52-2.38,11.28-3.09l2.42-.65A14,14,0,0,0,52.06,139Z"/><path class="cls-3" d="M73.58,121.12a23.05,23.05,0,0,0-2.83,5.2l-1.94,4.84c-1.49,3.67-3.29,8-5,12.11-.88,2.06-1.73,4.07-2.53,5.93l-1.13,2.62a4.12,4.12,0,0,1-1.4,1.59,4.32,4.32,0,0,1-1.67.65c-.49.07-1.1.07-1.54.09l-1.4.06-5.18.16c-3.15.08-7.43.16-11.93.41a125.22,125.22,0,0,0-13.09,1.39c-1.6.26-2.91.5-3.57.63a18.9,18.9,0,0,0-5.59,2,24.94,24.94,0,0,0,5.89-.45l3.53-.61a124.1,124.1,0,0,1,12.92-1.37c4.45-.25,8.72-.33,11.88-.42l5.2-.16,1.41-.06a16.2,16.2,0,0,0,1.73-.11,5.72,5.72,0,0,0,4.24-3.1c.41-.91.76-1.75,1.17-2.7l2.54-5.93c1.75-4.13,3.55-8.45,5-12.13l1.94-4.87A20,20,0,0,0,73.58,121.12Z"/><g id="Aquatic_Male_Head_1-2" data-name="Aquatic_Male_Head_1"><path class="cls-4" d="M101.71.79C80.8-.1,64.52,15.67,64,36.6c-.06,2.16.31,11.83.62,19.17a15.93,15.93,0,0,0,7.83,13.07l23.3,13.74a12.31,12.31,0,0,0,10.08.31l24.39-14a16,16,0,0,0,8-13.22l.67-18c0-20.08-17.09-36-37.16-36.81Z"/></g><path class="cls-5" d="M73.79,40.7,75,39.84c.37-.26.76-.47,1.12-.72.74-.47,1.51-.94,2.52-1.48a5.58,5.58,0,0,1,.75-.35L80,37l.83-.28a7.58,7.58,0,0,1,1.06-.28l.68-.16.61-.08a10.07,10.07,0,0,1,1-.12,19.49,19.49,0,0,1,3.48,0c2.34.28,3.68.36,5.78.58a11.34,11.34,0,0,0-5.62-2.16A20,20,0,0,0,84,34.51c-.32,0-.77.08-1.14.13l-.66.1-.76.17a7.56,7.56,0,0,0-1.18.32l-.92.31-.67.29c-.38.18-.65.28-.84.4a8.63,8.63,0,0,0-2.55,2,10.12,10.12,0,0,0-.84,1.14C74.25,39.8,74,40.24,73.79,40.7Z"/><path class="cls-5" d="M106,37.13a16.41,16.41,0,0,1,2.77-.22c.88,0,1.8,0,3-.06a8.23,8.23,0,0,1,.84,0c.38,0,.89,0,1.56.09a12.7,12.7,0,0,1,1.3.15l.83.12.7.15a12,12,0,0,1,1.21.29,18.07,18.07,0,0,1,3.27,1.17c.54.23,1,.51,1.42.7s.8.45,1.2.64l1.12.68c.38.25.74.54,1.17.86a7.88,7.88,0,0,0-4.22-4.31,19.85,19.85,0,0,0-3.55-1.29c-.36-.11-.87-.22-1.29-.31l-.75-.15-.88-.13a12.12,12.12,0,0,0-1.39-.16c-.72-.08-1.25-.09-1.66-.1a9,9,0,0,0-.91,0,10.57,10.57,0,0,0-3.16.5A8.28,8.28,0,0,0,106,37.13Z"/><path class="cls-6" d="M100.86,59.12c9.21.16,12.56-8.69,12.56-8.69S105.66,52.55,100,52.3a48.64,48.64,0,0,1-12.82-2.23A14.85,14.85,0,0,0,100.86,59.12Z"/><path class="cls-5" d="M100.86,59.12c.51.1,1,.2,1.47.27a8.31,8.31,0,0,0,4.57-.78,7.23,7.23,0,0,0,.82-.44,10.88,10.88,0,0,0,1.43-.94A15.71,15.71,0,0,0,112.3,54c.24-.31.45-.65.66-1a4.71,4.71,0,0,0,.29-.48l.2-.34.23-.46.42-.87c.11-.27.22-.53.32-.79l.3-.74,0-.09-.09,0-.21.06-.41.1-1.43.38-1.21.29-1.33.3c-.88.18-1.72.34-2.53.48-1.61.27-3.05.45-4.26.54s-2.18.11-2.84.09-1,0-1,0-1.47,0-3.88-.38c-1.21-.16-2.64-.4-4.23-.74l-1.21-.29-.63-.16-.36-.1-.65-.19c-.45-.13-.89-.26-1.37-.43l-.71-.25L86,48.81s-.15-.06-.16,0l.06.14a25.05,25.05,0,0,0,1,2.33,12.92,12.92,0,0,0,1.19,2,16.9,16.9,0,0,0,1.16,1.46c.39.46.83.84,1.2,1.22l1.07.89,1.11.76c.35.21.66.37.94.52a11.26,11.26,0,0,0,1.28.6,7.75,7.75,0,0,0,1.68.51A6.46,6.46,0,0,0,98,59.4a11.54,11.54,0,0,0,2.87-.28c-1-.34-1.83-.54-2.66-.87a12.56,12.56,0,0,1-1.29-.46c-.45-.17-1-.31-1.47-.56a11.19,11.19,0,0,1-1.14-.54c-.25-.14-.53-.28-.84-.47l-1-.68-1-.8c-.33-.34-.73-.67-1.08-1.1a15.43,15.43,0,0,1-1.05-1.31c-.15-.24-.31-.47-.46-.7l-.11-.18,0-.09h0l.29.08.65.16,1.26.3c1.63.36,3.11.6,4.35.76,2.49.33,4,.39,4,.39s.38,0,1.09,0a27.94,27.94,0,0,0,3-.08c1.26-.11,2.76-.29,4.41-.57.82-.14,1.69-.3,2.59-.49l1.36-.3.18,0h0s0,0,0,0h0l-.07.12c-.09.14-.17.3-.27.44s-.38.59-.6.88a14.43,14.43,0,0,1-2.81,2.9,9.3,9.3,0,0,1-1.27.84c-.32.17-.53.32-.71.39-1,.48-1.87.82-2.69,1.11-.42.12-.82.31-1.25.43Z"/><path class="cls-3" d="M82.52,99c-1-.47-1.75-.84-2.59-1.16a10.83,10.83,0,0,0-3.13-.7c-.22,0-.51,0-.92,0a11.16,11.16,0,0,0-1.7.08,16.39,16.39,0,0,0-11.82,7c-.17.25-.35.5-.51.75l-.44.78a16.13,16.13,0,0,0-.73,1.52c-.42,1-.72,1.82-1,2.55l-.93,2.34s-1.21,3-2.76,6.86-3.42,8.54-4.67,11.93c-.66,1.76-1,2.86-1.24,3.43A19.08,19.08,0,0,0,49,140.17a24.7,24.7,0,0,0,2.62-5.3c.2-.57.6-1.65,1.24-3.4,1.25-3.36,3.11-8,4.66-11.89l2.75-6.87.93-2.35c.29-.71.62-1.61,1-2.51a10.82,10.82,0,0,1,.66-1.38l.39-.7.46-.68a14.8,14.8,0,0,1,10.68-6.31,9.88,9.88,0,0,1,1.52-.07c.38,0,.64,0,.83,0l3,.24A26.77,26.77,0,0,0,82.52,99Z"/><path class="cls-3" d="M149,139a14.21,14.21,0,0,0,5.33,2.67c.4.13,1,.29,2.41.67,2.56.69,6.86,1.79,10.49,2.82s6.57,2,6.57,2l1.62.56c1,.34,2.4.87,3.94,1.48.78.28,1.58.63,2.39,1s1.65.71,2.44,1.1c1.59.8,3.15,1.54,4.37,2.3.79.46,1.45.82,1.95,1.14l1.09.73a37.32,37.32,0,0,0,5.12,2.88,15.14,15.14,0,0,0-4.24-4.2l-1.12-.77c-.52-.32-1.19-.69-2-1.17-1.26-.78-2.85-1.54-4.48-2.36-.81-.4-1.67-.74-2.49-1.11s-1.65-.73-2.44-1c-1.57-.62-3-1.15-4-1.49l-1.64-.57s-3-1-6.64-2-8-2.16-10.52-2.84l-2.39-.65A43.92,43.92,0,0,0,149,139Z"/><path class="cls-3" d="M127.44,121.12a20,20,0,0,0,1.36,5.78c.35.9,1.07,2.7,1.94,4.88,1.51,3.72,3.32,8.07,5.09,12.23.88,2.08,1.75,4.11,2.55,6l.59,1.38c.21.45.36.85.62,1.36a5.67,5.67,0,0,0,2.06,2.14,5.87,5.87,0,0,0,2.35.8c.74.06,1.22.07,1.69.1l1.42.06s2,.11,5.21.33,7.44.59,11.9,1.13,9.15,1.26,13,2c1.58.31,2.87.58,3.51.72a25.33,25.33,0,0,0,5.88.58,18.82,18.82,0,0,0-5.54-2.14c-.65-.14-2-.42-3.55-.73-3.86-.76-8.61-1.49-13.08-2s-8.81-.91-12-1.14-5.23-.32-5.23-.32l-1.43-.08c-.43,0-1.07,0-1.59-.08a4.32,4.32,0,0,1-1.71-.59A4,4,0,0,1,141,152c-.16-.3-.36-.79-.55-1.23l-.59-1.37c-.8-1.87-1.66-3.9-2.55-6-1.76-4.16-3.57-8.51-5.07-12.21-.88-2.18-1.59-4-1.95-4.86A23.07,23.07,0,0,0,127.44,121.12Z"/><path class="cls-3" d="M118.5,99a27,27,0,0,0,2.86,0l3-.24c.2,0,.46,0,.83,0a10,10,0,0,1,1.53.07,14.75,14.75,0,0,1,10.67,6.31c.16.23.31.46.47.68l.39.7a14.42,14.42,0,0,1,.66,1.38c.39.9.71,1.8,1,2.51l.94,2.35,2.75,6.87c1.55,3.84,3.41,8.53,4.65,11.89l1.25,3.4a24.25,24.25,0,0,0,2.62,5.3,19.39,19.39,0,0,0-1.12-5.83c-.21-.58-.59-1.67-1.25-3.43-1.25-3.39-3.12-8.08-4.67-11.93l-2.75-6.86-.93-2.34c-.3-.73-.6-1.57-1-2.55a12.35,12.35,0,0,0-.73-1.52l-.43-.78-.51-.75A16.45,16.45,0,0,0,133,99.11a16.25,16.25,0,0,0-6.19-1.92,11,11,0,0,0-1.69-.08c-.42,0-.71,0-.92,0a10.9,10.9,0,0,0-3.14.7C120.25,98.15,119.46,98.52,118.5,99Z"/><path class="cls-7" d="M73.35,120.89"/><path class="cls-7" d="M153.41,71.84"/><path class="cls-3" d="M70.57,129.19a26.14,26.14,0,0,0-.9,2.72A16.48,16.48,0,0,0,69.3,135c0,.32,0,.81,0,1.41,0,.3,0,.62,0,1,0,.61.06,1.24.09,1.87s.12,1.3.18,1.95.19,1.31.29,2a62.43,62.43,0,0,0,1.94,7.94c1.62,5.31,3.51,10.73,4.86,16.46A52.24,52.24,0,0,1,78,185.41a36.4,36.4,0,0,1-2.19,8.85,38.65,38.65,0,0,1-1.93,4.19l-2.28,4.11c-3.08,5.49-6.32,10.93-9.14,16.56a70.25,70.25,0,0,0-6.4,17.53,47.28,47.28,0,0,0-.93,9,66.21,66.21,0,0,0,11.77,37.72,70.15,70.15,0,0,0,15.4,15.78c2.91,1.87,2.54,1,2.54,1-.41-.45-3.31-4-3.8-4.66l-1.8-2.19c-1.07-1.43-1.89-2.5-2.48-3.33l-1.22-1.81L75,287.4a4.31,4.31,0,0,1-.29-.45c-.19-.3-.46-.76-.82-1.35-.75-1.18-1.74-3-2.93-5.28a62.32,62.32,0,0,1-3.52-8.74,39.83,39.83,0,0,1-1.9-12.07c0-.56.07-1.12.11-1.69a12.27,12.27,0,0,1,.2-1.71c.11-.57.21-1.15.32-1.73s.34-1.13.52-1.71a48.51,48.51,0,0,1,3.08-7,83.86,83.86,0,0,1,9.39-13.86c3.7-4.55,7.92-9,12.34-13.49s9.35-8.61,14.12-13.15a82.29,82.29,0,0,0,6.81-7.26,64,64,0,0,0,5.72-8.2,97.65,97.65,0,0,0,8.7-17.83,81.93,81.93,0,0,0,4.36-18.8c.17-1.56.24-3.12.37-4.67s.07-3.08.1-4.6-.06-3-.13-4.53-.19-2.71-.29-4c-.19-1.62-.35-3-.42-3.61a19,19,0,0,0-1.68-5.71,25.1,25.1,0,0,0,.1,5.91c.07.66.22,2,.4,3.56.1,1.31.2,2.64.29,4s.09,2.95.13,4.44-.07,3-.1,4.52-.2,3-.37,4.58a80,80,0,0,1-4.27,18.43,95.62,95.62,0,0,1-8.55,17.53A68,68,0,0,1,104.51,204c-4.7,4.48-9.68,8.66-14.14,13.18s-8.69,9-12.45,13.61A85.07,85.07,0,0,0,68.36,245a51.11,51.11,0,0,0-3.18,7.21c-.19.62-.39,1.23-.56,1.84s-.23,1.25-.34,1.86a11.44,11.44,0,0,0-.22,1.82l-.12,1.8a42.17,42.17,0,0,0,2,12.57,62.51,62.51,0,0,0,3.63,9c1.21,2.38,2.23,4.2,3,5.4l.83,1.39c.19.31.3.46.3.46l.57.84L75.48,291c.6.84,1.44,1.94,2.53,3.4l1.84,2.23c.49.63,1.14,1.33,1.88,2.14.37.4,4.65,3.22,4.65,3.22.47,0-3-3.47-3.24-3.68a71,71,0,0,1-14.91-15.75,65.14,65.14,0,0,1-10.92-28.25A52.27,52.27,0,0,1,57.65,237a68.51,68.51,0,0,1,6.27-17.12c2.77-5.56,6-11,9.09-16.49l2.3-4.14a39.19,39.19,0,0,0,2-4.37,37.76,37.76,0,0,0,2.3-9.25,54,54,0,0,0-1.4-18.36c-1.38-5.83-3.29-11.3-4.89-16.55a62.2,62.2,0,0,1-1.89-7.74c-.09-.64-.19-1.27-.28-1.9L71,139.16c0-.61,0-1.21-.08-1.79,0-.34,0-.66,0-1,0-.57,0-1,0-1.35,0-1.2,0-2.15,0-3.06S70.71,130.24,70.57,129.19Z"/><path class="cls-8" d="M82.08,107.09a6.55,6.55,0,0,1-3.92-5.77c0-5.81,5.85-4.6,5.85-4.6-.81,3.75.76,5.77,5,7.17,8.72,2.88,19,.9,21.91,0,4.27-1.32,7.94-4.33,5.28-7.29,0,0,7.06-2,7.06,4.72a7,7,0,0,1-3.92,5.77C116.87,108.45,95.76,113.1,82.08,107.09Z"/></symbol></defs><g id="SEA_1"><use width="61" height="66.32" transform="translate(117.86 2.28)" xlink:href="#Aquatic_hair_3"/><use width="161.69" height="144.47" transform="translate(66.63 154.31)" xlink:href="#Aquatic_body_3"/><use width="200.6" height="301.95" transform="translate(83.6 57.84) scale(0.64)" xlink:href="#Aquatic_Male_1"/></g></svg>