<svg xmlns="http://www.w3.org/2000/svg" xmlns:xlink="http://www.w3.org/1999/xlink" viewBox="0 0 300 300"><defs><style>.cls-1{fill:url(#radial-gradient);}.cls-2{fill:url(#radial-gradient-2);}.cls-3{fill:#e0e0e0;}.cls-4{fill:#f87bff;stroke-width:0.7px;}.cls-13,.cls-14,.cls-15,.cls-16,.cls-17,.cls-4,.cls-5{stroke:#dbdbdb;stroke-miterlimit:10;}.cls-13,.cls-14,.cls-15,.cls-16,.cls-17,.cls-5{stroke-width:1.05px;}.cls-5{fill:url(#radial-gradient-3);}.cls-6{fill:#fff;}.cls-7{fill:#202020;}.cls-8{fill:url(#New_Gradient_Swatch_13);}.cls-9{fill:url(#New_Gradient_Swatch_13-2);}.cls-10{fill:url(#New_Gradient_Swatch_13-3);}.cls-11{fill:url(#New_Gradient_Swatch_13-4);}.cls-12{fill:url(#New_Gradient_Swatch_13-5);}.cls-13{fill:url(#radial-gradient-4);}.cls-14{fill:url(#radial-gradient-5);}.cls-15{fill:url(#radial-gradient-6);}.cls-16{fill:url(#radial-gradient-7);}.cls-17{fill:url(#radial-gradient-8);}</style><radialGradient id="radial-gradient" cx="59.06" cy="58.08" fx="68.4084767524565" r="17.05" gradientTransform="translate(0 -6.01)" gradientUnits="userSpaceOnUse"><stop offset="0.11" stop-color="#3d8eff"/><stop offset="0.16" stop-color="#459aff"/><stop offset="0.24" stop-color="#59b9ff"/><stop offset="0.36" stop-color="#7bebff"/><stop offset="0.38" stop-color="#81f4ff"/></radialGradient><radialGradient id="radial-gradient-2" cx="61.55" cy="118.61" fx="157.32463258174812" fy="181.79080560020424" r="114.74" gradientTransform="translate(0 -6.01)" gradientUnits="userSpaceOnUse"><stop offset="0.31" stop-color="#ff30ff"/><stop offset="0.33" stop-color="#f73cff"/><stop offset="0.39" stop-color="#e45bff"/><stop offset="0.45" stop-color="#c38dff"/><stop offset="0.54" stop-color="#97d2ff"/><stop offset="0.57" stop-color="#81f4ff"/></radialGradient><radialGradient id="radial-gradient-3" cx="59.93" cy="25.86" r="27.02" gradientTransform="translate(0 -6.01)" gradientUnits="userSpaceOnUse"><stop offset="0.75" stop-color="#81f4ff"/><stop offset="1" stop-color="#3d8eff"/></radialGradient><radialGradient id="New_Gradient_Swatch_13" cx="27.09" cy="33.11" fx="53.48188356956423" fy="50.12056432866301" r="35.54" gradientTransform="translate(0 -6)" gradientUnits="userSpaceOnUse"><stop offset="0.52" stop-color="#fff"/><stop offset="0.59" stop-color="#f7feff"/><stop offset="0.69" stop-color="#e3fdff"/><stop offset="0.81" stop-color="#c1faff"/><stop offset="0.95" stop-color="#92f5ff"/><stop offset="1" stop-color="#81f4ff"/></radialGradient><radialGradient id="New_Gradient_Swatch_13-2" cx="112.57" cy="33.11" fx="138.9612952790801" fy="50.12056432877071" r="35.54" xlink:href="#New_Gradient_Swatch_13"/><radialGradient id="New_Gradient_Swatch_13-3" cx="27.09" cy="28.36" fx="55.97200921293005" fy="46.97783585316681" r="38.89" xlink:href="#New_Gradient_Swatch_13"/><radialGradient id="New_Gradient_Swatch_13-4" cx="112.57" cy="30.55" fx="140.27563018981203" fy="48.406207505587204" r="37.31" xlink:href="#New_Gradient_Swatch_13"/><radialGradient id="New_Gradient_Swatch_13-5" cx="61.98" cy="89.81" fx="105.19172560755877" fy="117.66793992761527" r="58.19" xlink:href="#New_Gradient_Swatch_13"/><radialGradient id="radial-gradient-4" cx="25.77" cy="48.04" fx="80.66190916194765" fy="81.85951549080247" r="68.65" gradientTransform="translate(0 -5.96)" gradientUnits="userSpaceOnUse"><stop offset="0.23" stop-color="#81f4ff"/><stop offset="0.45" stop-color="#3d8eff"/></radialGradient><radialGradient id="radial-gradient-5" cx="11.42" cy="51.28" fx="50.86225530297561" fy="75.58334322737267" r="49.34" xlink:href="#radial-gradient-4"/><radialGradient id="radial-gradient-6" cx="4.22" cy="56.28" fx="28.355495046213306" fy="71.14985604189263" r="30.19" xlink:href="#radial-gradient-4"/><radialGradient id="radial-gradient-7" cx="46.81" cy="56.28" fx="70.95278450357839" fy="71.14985604195965" r="30.19" xlink:href="#radial-gradient-4"/><radialGradient id="radial-gradient-8" cx="39.69" cy="50.14" fx="69.78444928052173" fy="68.68719289241601" r="37.64" xlink:href="#radial-gradient-4"/><symbol id="Aquatic_female_body_13" data-name="Aquatic_female_body_13" viewBox="0 0 139.87 144.58"><path class="cls-8" d="M8.51,32.9A41.46,41.46,0,0,0,1,56.45c4.6-7.88,13.48-12,21.74-15.87,8.05-3.77,15.5-5.87,19.4-13.63a.2.2,0,0,1,.38.07,17.38,17.38,0,0,1-3,10.54c-3.85,5.63,8.88-1.78,12.44-10.07s-.6-17.18-.6-17.18"/><path class="cls-3" d="M8.51,32.9a15.84,15.84,0,0,0-4.29,5.53c-.14.29-.34.69-.55,1.19-.11.25-.23.52-.35.81s-.12.29-.19.44l-.36,1a41.69,41.69,0,0,0-2,7.44c-.13.66-.22,1.33-.31,2,0,.34-.08.67-.11,1l0,.51,0,.25c0,.11,0,.3,0,.46C.15,54.78.07,56.06.06,57.34l0,1.92v.45s0,.11,0,.07l.07-.12.15-.22.56-.89L1.85,56.9l1-1.54.52-.76.25-.36.14-.17.58-.67a26.39,26.39,0,0,1,2.48-2.48,38.66,38.66,0,0,1,5.57-4,117.55,117.55,0,0,1,11-5.61c3.27-1.51,6.08-2.67,8-3.63,1-.47,1.72-.86,2.23-1.15l.77-.43.46-.28c.33-.21.88-.53,1.7-1.12a20.61,20.61,0,0,0,3.17-2.75,13.55,13.55,0,0,0,1-1.1l.5-.63.13-.19.1-.15h0s0,0,0,0,0,.33-.08.51c-.06.35-.13.72-.22,1.11a16.47,16.47,0,0,1-2.23,5.18A6,6,0,0,0,37.87,39a1.3,1.3,0,0,0,.53,1.18,1.86,1.86,0,0,0,1.39.2,8.17,8.17,0,0,0,2.32-1c.59-.34,1.15-.71,1.71-1.11a32.35,32.35,0,0,0,6.09-5.75,22.53,22.53,0,0,0,2.38-3.61,14,14,0,0,0,.86-2,16.5,16.5,0,0,0,.62-2c.17-.69.26-1.38.37-2.06,0-.34.07-.68.1-1,0-.17,0-.33,0-.5v-.21c0-.38,0-.75,0-1.1a25.74,25.74,0,0,0-.24-3.19,13,13,0,0,0-2.73-6.48c.36,2.43.47,4,.89,6.73a26.36,26.36,0,0,1,.2,2.95c0,.32,0,.66,0,1v.19c0,.15,0,.31,0,.46l-.09.93c-.1.61-.18,1.24-.34,1.86a14.79,14.79,0,0,1-.55,1.83,11.62,11.62,0,0,1-.76,1.78,20.61,20.61,0,0,1-2.18,3.29,30.45,30.45,0,0,1-5.73,5.41c-.51.37-1,.71-1.55,1a8.67,8.67,0,0,1-1.06.55h0l0-.06.36-.55A18.35,18.35,0,0,0,43,32c.11-.43.18-.85.25-1.24l.09-.57c0-.27.06-.66.09-1a7.28,7.28,0,0,0,.05-.9c0-.28,0-.56,0-.78s0-.48,0-.65l-.14-.37c-.07-.17-.17-.21-.25-.32a1.26,1.26,0,0,0-.3-.17.77.77,0,0,0-.28-.07c-.08,0-.09,0-.16,0l-.33.19-.63.36c-.27.4-.56.9-.83,1.33l-.77,1.25q-.24.29-.45.57a11,11,0,0,1-.88,1,19.17,19.17,0,0,1-2.89,2.51c-.76.54-1.27.84-1.59,1l-.43.26-.74.41c-.47.28-1.2.65-2.13,1.11-1.87.92-4.65,2.07-8,3.61a117.93,117.93,0,0,0-11.18,5.7,40.6,40.6,0,0,0-5.84,4.22A28.82,28.82,0,0,0,3,52.17l-.62.72-.18.21,0,0-.06.08h0s0,0,0,0l.08-.76c0-.33.06-.65.11-1,.09-.64.17-1.28.3-1.91a39.42,39.42,0,0,1,1.94-7.12c.12-.31.24-.61.35-.91l.18-.43c.12-.27.22-.53.33-.77.2-.48.39-.86.52-1.14A66.66,66.66,0,0,0,8.51,32.9Z"/><path class="cls-9" d="M131.35,32.9a41.4,41.4,0,0,1,7.51,23.55c-4.6-7.88-13.48-12-21.75-15.87-8-3.77-15.49-5.87-19.39-13.63a.2.2,0,0,0-.38.07,17.38,17.38,0,0,0,3,10.54c3.85,5.63-8.88-1.78-12.44-10.07s.59-17.18.59-17.18"/><path class="cls-3" d="M131.35,32.9A66.86,66.86,0,0,0,134,39.23c.13.28.32.66.52,1.14.1.24.21.5.33.77l.18.43c.11.3.23.6.35.91a39.42,39.42,0,0,1,1.94,7.12c.12.63.21,1.27.3,1.91,0,.32.08.64.11,1l.07.76s0,0,0,0h0l-.05-.08,0,0-.18-.21-.62-.72a28.82,28.82,0,0,0-2.65-2.65,40.6,40.6,0,0,0-5.84-4.22,119.14,119.14,0,0,0-11.18-5.7c-3.34-1.54-6.12-2.69-8-3.61-.93-.46-1.66-.83-2.14-1.11l-.74-.41-.42-.26c-.32-.2-.84-.5-1.59-1a19.15,19.15,0,0,1-2.9-2.51,12.74,12.74,0,0,1-.87-1c-.14-.19-.3-.38-.45-.57l-.77-1.25c-.27-.43-.56-.93-.83-1.33l-.63-.36L97.56,26c-.07-.05-.09-.06-.16,0a.87.87,0,0,0-.29.07,1.16,1.16,0,0,0-.29.17c-.08.11-.18.15-.25.32s-.09.24-.14.37,0,.42,0,.65,0,.5,0,.78,0,.57,0,.9.06.69.1,1,.06.38.08.57c.08.39.15.81.26,1.24a18.35,18.35,0,0,0,2.47,5.77l.36.55c.06.09,0,0,0,.06h0a8.67,8.67,0,0,1-1.06-.55q-.78-.47-1.56-1a30.7,30.7,0,0,1-5.72-5.41,20.61,20.61,0,0,1-2.18-3.29,11.62,11.62,0,0,1-.76-1.78,14.84,14.84,0,0,1-.56-1.83c-.15-.62-.24-1.25-.34-1.86,0-.31,0-.62-.08-.93,0-.15,0-.31,0-.46V21c0-.35,0-.69,0-1A28.39,28.39,0,0,1,87.64,17c.42-2.72.52-4.3.88-6.73a13.1,13.1,0,0,0-2.72,6.48A25.74,25.74,0,0,0,85.56,20c0,.35,0,.72,0,1.1v.21c0,.17,0,.33,0,.5,0,.34.06.68.1,1,.1.68.2,1.37.37,2.06a16.5,16.5,0,0,0,.62,2,14,14,0,0,0,.85,2A21.93,21.93,0,0,0,90,32.52a32.35,32.35,0,0,0,6.09,5.75c.55.4,1.12.77,1.7,1.11a8.41,8.41,0,0,0,2.33,1,1.86,1.86,0,0,0,1.39-.2A1.3,1.3,0,0,0,102,39a6,6,0,0,0-1.07-2.32,16.24,16.24,0,0,1-2.23-5.18c-.09-.39-.16-.76-.23-1.11,0-.18,0-.35-.07-.51s0,0,0,0h0l.1.15.13.19.5.63a13.55,13.55,0,0,0,1,1.1,20.61,20.61,0,0,0,3.17,2.75c.82.59,1.37.91,1.7,1.12l.46.28.77.43c.51.29,1.26.68,2.23,1.15,1.92,1,4.74,2.12,8,3.63a117.55,117.55,0,0,1,11,5.61,38.66,38.66,0,0,1,5.57,4,27.64,27.64,0,0,1,2.48,2.48l.57.67.15.17.25.36.52.76L138,56.9l1,1.65.57.89.14.22.07.12s0-.05,0-.07l0-.45,0-1.92c0-1.28-.09-2.56-.14-3.84,0-.16,0-.35,0-.46l0-.25-.05-.51c0-.34-.06-.67-.11-1-.1-.67-.19-1.34-.31-2a41.69,41.69,0,0,0-2-7.44c-.12-.33-.25-.65-.37-1l-.18-.44c-.13-.29-.24-.56-.35-.81-.21-.5-.42-.9-.55-1.19A15.86,15.86,0,0,0,131.35,32.9Z"/><path class="cls-10" d="M51.34,10.31s4.15,8.88.6,17.18S35.65,43.19,39.5,37.56a17.38,17.38,0,0,0,3-10.54.2.2,0,0,0-.38-.07c-3.9,7.76-11.35,9.86-19.4,13.63C14.49,44.44,5.61,48.57,1,56.45A41.46,41.46,0,0,1,8.51,32.9,52.77,52.77,0,0,1,24.59,21C29,19,39.5,16.7,40.36,15a93.78,93.78,0,0,1,9.08-14S49.8,7.16,51.34,10.31Z"/><path class="cls-3" d="M51.34,10.31a16.43,16.43,0,0,0,.55,2.52l.21.71.06.24c.06.22.11.45.17.68.16.69.31,1.39.41,2.11a20.54,20.54,0,0,1-.47,8.93,19.49,19.49,0,0,1-4.85,7.9A31.13,31.13,0,0,1,44,36.55,17.4,17.4,0,0,1,40.12,39a2.29,2.29,0,0,1-.92.22c-.1,0-.05,0-.07-.05a1.71,1.71,0,0,1,.1-.39,17,17,0,0,1,1.11-1.84,18,18,0,0,0,2.52-7.95q0-.48,0-1v-.54c0-.15,0-.32,0-.45l-.12-.29a.52.52,0,0,0-.53-.2c-.15,0-.31.11-.46.42l-.51.92a20,20,0,0,1-7.72,7.28c-2.94,1.68-5.91,2.87-8.62,4.09A123.32,123.32,0,0,0,11.49,46a35.84,35.84,0,0,0-7.28,5.71,20.44,20.44,0,0,0-2,2.42s-.23.29-.63.87l-.14.23h0c0-.09,0-.19,0-.3A41.57,41.57,0,0,1,3.25,44.35,40,40,0,0,1,6.07,37.6c.6-1.16,1.29-2.32,2-3.48l.59-.86a6.27,6.27,0,0,1,.66-.76c.49-.52,1-1,1.52-1.53a49.3,49.3,0,0,1,15.25-10.2c3-1.12,6.15-2,9.26-3A23,23,0,0,0,40,15.82a2.36,2.36,0,0,0,.88-1l.56-1.07c.38-.7.77-1.4,1.18-2.09C44.2,8.86,46,6.23,47.75,3.75l1.36-1.83c.09-.12,0,0,0-.06h0s0-.18,0,.36c.07.75.16,1.49.26,2.22l.18,1.08.16.89c.14.71.28,1.28.36,1.56a5.82,5.82,0,0,0,1.19,2.34c-.17-.91-.24-1.5-.51-2.52-.08-.27-.21-.83-.35-1.51l-.16-.87c-.06-.36-.11-.71-.17-1.07-.1-.72-.19-1.45-.26-2.18,0-.2-.1-1.17-.14-1.9a1.32,1.32,0,0,0,0-.26l-.18.22L49.2.66l-.65.83L47.18,3.34c-1.81,2.5-3.57,5.14-5.2,7.92-.41.7-.8,1.41-1.19,2.12l-.56,1.08a1.56,1.56,0,0,1-.66.78,22,22,0,0,1-4.41,1.84c-3.08,1-6.23,1.9-9.28,3A50.07,50.07,0,0,0,10.39,30.47c-.53.51-1,1-1.54,1.55a7.86,7.86,0,0,0-.73.84l-.59.88a39.17,39.17,0,0,0-2.08,3.53,40.9,40.9,0,0,0-2.86,6.87A42.39,42.39,0,0,0,1.16,50.2,45.77,45.77,0,0,0,.7,55c0,.59,0,1.14,0,1.66,0,.26,0,.52,0,.76v.27s0,0,0,0l.21-.32,1.22-1.94c.39-.56.61-.84.61-.84l.46-.63c.35-.38.81-1,1.53-1.72a35.17,35.17,0,0,1,7.15-5.61,124.41,124.41,0,0,1,13.33-6.72c2.7-1.22,5.68-2.41,8.69-4.12a20.79,20.79,0,0,0,8-7.54l.34-.61h0V28c0,.3,0,.61,0,.92a17.2,17.2,0,0,1-2.42,7.63,16.11,16.11,0,0,0-1.16,2,1.43,1.43,0,0,0-.14.7,2,2,0,0,0,0,.24,1.88,1.88,0,0,0,.16.23c.06.08.15.09.23.14a.55.55,0,0,0,.22.07,2.76,2.76,0,0,0,1.28-.25,18.53,18.53,0,0,0,4-2.5,31.75,31.75,0,0,0,3.54-3.23,20,20,0,0,0,5-8.18,21.18,21.18,0,0,0,.49-9.23c-.1-.74-.25-1.46-.41-2.17l-.18-.7-.07-.25-.21-.73A6.67,6.67,0,0,0,51.34,10.31Z"/><path class="cls-11" d="M131.35,32.9a41.4,41.4,0,0,1,7.51,23.55c-4.6-7.88-13.48-12-21.75-15.87-8-3.77-15.49-5.87-19.39-13.63a.2.2,0,0,0-.38.07,17.38,17.38,0,0,0,3,10.54c3.85,5.63-8.88-1.78-12.44-10.07s.59-17.18.59-17.18l2.62-5.06s6.26,12.1,9.94,13a125.82,125.82,0,0,1,19.66,7.35A48.62,48.62,0,0,1,131.35,32.9Z"/><path class="cls-3" d="M131.35,32.9a11.81,11.81,0,0,0,1.12,2.34c.06.11.15.26.27.44l.17.3a1,1,0,0,0,.1.17l.24.43c.12.22.26.45.38.69.24.47.5.94.73,1.43A41.31,41.31,0,0,1,138.24,52c.06.61.14,1.22.17,1.83l.05.93v.26c0,.16,0,.15,0,.14l-.2-.31c-.09-.14-.19-.26-.28-.39l-.57-.77a28.33,28.33,0,0,0-5.5-5.33A72.58,72.58,0,0,0,119,41.09c-4.26-2.07-8.45-3.65-11.9-5.52a27,27,0,0,1-4.55-3,19.44,19.44,0,0,1-3.08-3.32,18.87,18.87,0,0,1-1-1.6l-.2-.37a3.23,3.23,0,0,0-.41-.66c-.18-.21-.8-.15-.81.23a1.65,1.65,0,0,0-.1.59c0,.14,0,.28,0,.42s0,.43,0,.63c0,.4,0,.74.07,1a17.83,17.83,0,0,0,2.67,7.72c.28.45.56.84.75,1.2a1.39,1.39,0,0,1,.25.75.82.82,0,0,1-.23,0,2.23,2.23,0,0,1-.43-.1,6.86,6.86,0,0,1-.77-.31,15.61,15.61,0,0,1-1.76-1l-.41-.27-.53-.38c-.35-.26-.88-.65-1.55-1.22A28.65,28.65,0,0,1,89.74,30,18.17,18.17,0,0,1,87,17.48a26.82,26.82,0,0,1,.8-4.05c.2-.69.42-1.39.68-2.09.14-.34.26-.7.43-1l.54-1L91.14,6c.38.69.78,1.39,1.17,2.1s.89,1.52,1.36,2.29a41.81,41.81,0,0,0,4.33,6,10.78,10.78,0,0,0,1.56,1.44,5.1,5.1,0,0,0,2,.91c1.38.37,2.8.82,4.24,1.3,2.88,1,5.86,2,8.84,3.23,1.48.6,3,1.22,4.42,1.91a47.6,47.6,0,0,1,4.22,2.28q2.06,1.23,4,2.6l.86.64.43.33.62.49a13.92,13.92,0,0,0,2.16,1.41,7.24,7.24,0,0,0-1.72-2l-.63-.5-.44-.33-.87-.65q-1.92-1.38-4-2.63a46.3,46.3,0,0,0-4.28-2.32c-1.47-.69-3-1.32-4.46-1.92-3-1.19-6-2.28-8.88-3.24-1.45-.49-2.87-.94-4.28-1.32a4.37,4.37,0,0,1-1.82-.79,10.38,10.38,0,0,1-1.45-1.36A40.59,40.59,0,0,1,94.27,10c-.47-.76-.92-1.52-1.35-2.27l-.63-1.12L91.6,5.37l-.29-.56-.15-.28c0-.09,0,0-.07,0L91,4.72l-.53,1-.56,1.1c-.38.72-.74,1.43-1.1,2.13l-.54,1c-.19.37-.31.73-.46,1.09-.27.71-.49,1.43-.69,2.14a27,27,0,0,0-.82,4.16,18.83,18.83,0,0,0,2.85,13,29.38,29.38,0,0,0,5.44,6c.69.57,1.23,1,1.59,1.24l.55.4.41.27A15.8,15.8,0,0,0,99,39.39a6.82,6.82,0,0,0,.87.35,2.75,2.75,0,0,0,.56.12,1,1,0,0,0,.8-.21,1.67,1.67,0,0,0,.16-.24,1.87,1.87,0,0,0,0-.25,1.32,1.32,0,0,0-.05-.41,3.06,3.06,0,0,0-.28-.67c-.23-.42-.52-.82-.78-1.24a17.11,17.11,0,0,1-2.56-7.42c0-.26-.06-.59-.07-1,0-.19,0-.39,0-.6v-.27h0s0,0,0,0,.14.26.22.39a17.67,17.67,0,0,0,1,1.65,20.18,20.18,0,0,0,3.2,3.45,27.64,27.64,0,0,0,4.67,3.1c3.52,1.9,7.69,3.47,11.93,5.54A71.46,71.46,0,0,1,131.51,49a27.52,27.52,0,0,1,5.36,5.2l.56.75c.09.13.19.24.27.38l.31.48,1,1.59.12.2.07.1a.15.15,0,0,0,0,0v-.47l0-.85,0-1.61,0-1c0-.62-.11-1.24-.17-1.86A42.16,42.16,0,0,0,135,38.39c-.23-.5-.5-1-.74-1.46-.12-.24-.26-.47-.39-.7l-.24-.43-.1-.17a3.49,3.49,0,0,1-.18-.31l-.28-.44A7.62,7.62,0,0,0,131.35,32.9Z"/><path class="cls-12" d="M65.27,51.1c-2.84,6.59-.51,15.32,3.52,21.25S78.24,83.2,82,89.33a37.08,37.08,0,0,1-14.67,52.18c6-11.35,3.32-26.62-6.19-35.24v1.23c.93,14.33-5.61,16.42-11.36,21.77,2.32-7.14.21-14.88-2.89-21.76s-7.2-13.45-9.1-20.7-1.08-18.17,6.15-26.2c0,0,29.87-25.42,26.83-20.69A46.29,46.29,0,0,0,65.27,51.1Z"/><path class="cls-3" d="M65.27,51.1a12.41,12.41,0,0,0-2.18,4.63A14.73,14.73,0,0,0,63,61.45c.09.6.27,1.49.55,2.58.15.54.3,1.13.52,1.75.09.26.18.52.26.78l.53,1.35c.38.9.81,1.79,1.28,2.68s1,1.75,1.58,2.61,1.17,1.66,1.8,2.47c2.49,3.27,5.37,6.36,8,9.7a38,38,0,0,1,6.33,11.09,36.88,36.88,0,0,1,2.1,12.93,34.7,34.7,0,0,1-2.69,12.83,35.94,35.94,0,0,1-7,10.78,35,35,0,0,1-4.64,4.17c-.4.32-.83.59-1.25.89l-.05,0h0s0,0,0,0l.07-.19.13-.37c.14-.51.28-1,.41-1.51a28.93,28.93,0,0,0,.63-3c.16-1,.22-2,.32-2.95a33.13,33.13,0,0,0-1.24-10.81,31.83,31.83,0,0,0-3.76-8.34l-1.14-1.63a6.92,6.92,0,0,0-.57-.74l-.75-.88-.54-.64-.54-.54-1.07-1.07-2-2c-.16-.15-.33-.33-.47-.45v.65c0,.43,0,.85,0,1.25,0,.82,0,1.52,0,2.21s0,1.31,0,1.89,0,1.22,0,1.35c0,1,0,1.53,0,1.59,0,.73-.1,1.09-.11,1.27l0,.19-.11.9a19.24,19.24,0,0,1-.91,3.44,15.1,15.1,0,0,1-4.44,6l-1,.89c-.33.26-.66.54-1,.82l-.14.11v0l0-.14c0-.3,0-.6.07-.9a21,21,0,0,0,.06-2.26,32.91,32.91,0,0,0-1.69-9.36c-1.24-4.08-3.57-8.74-6.15-13.84-1.28-2.56-2.6-5.25-3.71-8.13a42.85,42.85,0,0,1-1.45-4.45,25.39,25.39,0,0,1-.74-4.68,27.7,27.7,0,0,1,5.43-18.83l.81-1a3.64,3.64,0,0,1,.3-.35l.51-.44,2.06-1.74L51.58,56c2.74-2.29,5.48-4.55,8.19-6.75l4-3.24,2-1.56,1-.74.27-.2h0s0,0,0,0h0a1.39,1.39,0,0,1-.06.28,20.73,20.73,0,0,0-1.73,7.36c1-1.57,1.85-2.79,2.71-4.11.44-.67.86-1.32,1.33-2.1.2-.33.41-.68.61-1s.4-.69.7-1.15A11.93,11.93,0,0,0,72,40.2l.19-.52c0-.09.06-.19.1-.29s.1-.25.06-.25-.14-.3-.22-.47a.67.67,0,0,0-.16-.24l-.24-.22-.18-.13a1.16,1.16,0,0,0-.41-.13l-.26,0c-.09,0-.22,0-.33,0a3.84,3.84,0,0,0-1,.37,4.86,4.86,0,0,0-.6.34l-.32.2-.32.21-.49.33-1,.71-1.74,1.29-1,.8-2,1.59L58,47c-2.73,2.2-5.47,4.47-8.22,6.77l-4.14,3.46L43.58,59l-.51.44a5.09,5.09,0,0,0-.61.65l-.9,1.09a28.89,28.89,0,0,0-5,10,30.56,30.56,0,0,0-1,5.39A31,31,0,0,0,35.55,82a29.71,29.71,0,0,0,.82,5.19,48,48,0,0,0,1.55,4.75c1.17,3,2.54,5.8,3.82,8.38,2.61,5.14,4.83,9.61,6,13.43a30.79,30.79,0,0,1,1.56,8.58c0,.68,0,1.35,0,2l0,.48,0,.23c0,.08,0,.3-.07.44-.11.63-.22,1.26-.33,1.87-.32,1.35-.85,3-1.21,4.33-.09.34-.19.67-.28,1l-.14.5-.08.24,0,.12s.05,0,.07-.05l1.36-1.22,2.69-2.38.65-.58.58-.48,1.14-.94,1.32-1.09,1.11-.94a17.82,17.82,0,0,0,5.19-7.12,21.26,21.26,0,0,0,1.07-4l.12-1s0,0,0-.21.1-.61.13-1.41c0-.07,0-.67,0-1.74a1.42,1.42,0,0,0,0-.32v-.15h0l.11.13.26.31a6.08,6.08,0,0,1,.52.68c.34.47.68,1,1,1.47a29.53,29.53,0,0,1,3.41,7.6A30,30,0,0,1,69,129.9c-.09.88-.14,1.79-.29,2.69a26.7,26.7,0,0,1-.57,2.71c-.12.45-.24.9-.37,1.36-.35.84-.71,1.69-1.06,2.55-.76,1.77-1.32,3.31-2,5l-.12.31,0,.08.07,0,.16-.09.65-.35,1.3-.72c.87-.47,1.72-1,2.57-1.46l1.28-.74a13.59,13.59,0,0,0,1.25-.81c.44-.32.91-.62,1.34-1a38.5,38.5,0,0,0,5-4.49,38.9,38.9,0,0,0,7.55-11.61,37.64,37.64,0,0,0,2.91-13.87,39.66,39.66,0,0,0-2.26-13.92,40.84,40.84,0,0,0-6.76-11.89c-2.73-3.46-5.58-6.54-8-9.67q-.9-1.17-1.71-2.34c-.52-.78-1-1.56-1.43-2.36s-.81-1.62-1.16-2.43l-.48-1.23c-.08-.24-.16-.47-.23-.7-.21-.56-.34-1.1-.48-1.59a22,22,0,0,1-.5-2.31,49.66,49.66,0,0,1-.58-5.07A21.58,21.58,0,0,1,65.27,51.1Z"/><path class="cls-3" d="M43.88,60.61a17.78,17.78,0,0,0-1.58,1.25,12.89,12.89,0,0,0-1.39,1.72l-.44.72-.3.48c-.05.09-.1.18-.16.27l0,0-.15.28-.48.94c-.34.62-.58,1.29-.88,2a30.72,30.72,0,0,0-1.39,18.25c1.55,6.35,4.88,12.21,7.73,18.06s5.25,12,5.32,18a21.22,21.22,0,0,1-.41,4.39l-.14.65c-.08.38-.21.76-.3,1.1-.2.72-.4,1.43-.59,2.14-.07.16,0,0,.11,0l.21-.19.41-.37.82-.73.82-.73.61-.51a44.94,44.94,0,0,0,6.13-5.55,16.53,16.53,0,0,0,2.12-3.26c.23-.58.5-1.14.68-1.71s.37-1.13.49-1.7a27.43,27.43,0,0,0,.62-6.17c0-.9,0-1.75-.08-2.53v-1.1c.2-.1-1.77.78-.93.41h0q.39.38.72.72a23.62,23.62,0,0,1,2.07,2.27,27,27,0,0,1,3.28,5.19l.58,1.19c.17.4.31.79.46,1.17s.28.74.42,1.09.21.71.32,1a34.92,34.92,0,0,1,.87,3.57c.13,1,.28,1.91.34,2.64a27.31,27.31,0,0,1,.1,2.91c0,.53,0,.69,0,.69v.34a6.66,6.66,0,0,1-.06,1l-.15,1.57c-.07.62-.23,1.32-.37,2.12s-.43,1.64-.66,2.59c-.15.47-.34.94-.52,1.43a11.37,11.37,0,0,1-.63,1.54q-.36.78-.75,1.59c-.12.27-.25.54-.38.81l-.2.42-.09.2s0,.05,0,.05l0,0,.1-.05L69.3,141a40.32,40.32,0,0,0,3.47-2.32A38.37,38.37,0,0,0,85,123a37.93,37.93,0,0,0-3.15-34.83,96.5,96.5,0,0,0-7.62-9.71,55.06,55.06,0,0,1-6.89-9.56,28.35,28.35,0,0,1-2.14-5.2l-.34-1.33c-.09-.44-.17-.88-.26-1.33s-.12-.88-.16-1.32,0-.74-.07-1.1c0-.55,0-1,0-1.46s.06-.75.09-1l.51-4A7.91,7.91,0,0,0,63.39,56c0,.24-.06.6-.1,1s0,1,0,1.56c0,.39,0,.78.07,1.17s.11.93.17,1.4l.27,1.4.36,1.4a29.53,29.53,0,0,0,2.22,5.4,56.17,56.17,0,0,0,7,9.77,94.06,94.06,0,0,1,7.54,9.59A36.83,36.83,0,0,1,84,122.53,37.21,37.21,0,0,1,72.09,137.8a36.64,36.64,0,0,1-3.36,2.26l-.21.12a13.11,13.11,0,0,0,.64-1.56c.18-.52.38-1,.53-1.5.25-1,.55-1.87.69-2.69s.31-1.56.38-2.2.12-1.2.17-1.64a8.89,8.89,0,0,0,.06-1v-.35l0-.72a27.26,27.26,0,0,0-.11-3c-.06-.76-.21-1.67-.35-2.74a34,34,0,0,0-.91-3.71q-.15-.52-.33-1.08l-.43-1.14c-.16-.39-.3-.8-.48-1.2l-.59-1.25A28.48,28.48,0,0,0,64.39,109h0a25.09,25.09,0,0,0-2.15-2.37c-.24-.24-.49-.48-.75-.75h0c.84-.37-1.15.49-.94.41v.52c0,.19,0,.38,0,.58,0,.79,0,1.64.08,2.55a26.51,26.51,0,0,1-.59,5.91c-.11.53-.31,1-.46,1.59s-.42,1-.64,1.59a14.42,14.42,0,0,1-2,3,44.54,44.54,0,0,1-6,5.41l-.2.17,0,0h0l.09-.44a22.13,22.13,0,0,0,.43-4.62c-.07-6.34-2.51-12.64-5.43-18.5s-6.15-11.68-7.65-17.82a29.69,29.69,0,0,1,1.34-17.57c.29-.63.52-1.28.85-1.87l.46-.9.14-.27,0,0,.16-.26.28-.46.41-.69A17.58,17.58,0,0,0,43,62.36C43.28,61.82,43.55,61.28,43.88,60.61Z"/></symbol><symbol id="Aquatic_female_hair_1" data-name="Aquatic_female_hair_1" viewBox="0 0 51.68 55.34"><path class="cls-13" d="M22.16,43c-1.31-7.58-2-12.52-3.33-20.1-.71-4.13-1.39-8.55.17-12.39,1.93-4.73,6.66-7.19,11-9.27,1.42-.67,3.34-1.23,4.31.09a3.63,3.63,0,0,1,.34,3C31.08,16.81,30.19,30.39,30,43"/><path class="cls-14" d="M18.37,44.71C16,39,13.8,31.91,11.45,26.2c-.79-1.93-6.58,4-5.89,5.78a73.67,73.67,0,0,0,9,16.6"/><path class="cls-15" d="M8.55,51.14C8.2,49.44,6.22,45.87,5,43.72a1.29,1.29,0,0,0-2.26-.23L1,45.61a2.83,2.83,0,0,0-.17,3c1.15,2,3.8,5.41,5.68,6.27"/><path class="cls-16" d="M43.12,51.14c.36-1.7,2.34-5.27,3.6-7.42A1.28,1.28,0,0,1,49,43.49l1.67,2.12a2.81,2.81,0,0,1,.16,3c-1.14,2-3.79,5.41-5.67,6.27"/><path class="cls-17" d="M35.32,46.5c1-5.87,2.08-11.68,3.21-18,.22-1.22,1.24-1.83,2.07-1.24l3.46,2.47a2.29,2.29,0,0,1,.59,2.62c-2.46,6-4,9.69-6.43,15.32"/></symbol><symbol id="Aquatic_Female_body2" data-name="Aquatic_Female_body2" viewBox="0 0 118.56 178.94"><path class="cls-1" d="M49.83,62.44c3.85-.81,5.11-2.62,5.73-4.83s.84-5-.86-6.54l4.18-9.62,3.74,10.43A9,9,0,0,0,62.71,59c1,2,3.14,2.84,5.4,2.81L73,63S75.9,77.65,60.66,77.86C38.81,78.16,49.83,62.44,49.83,62.44Z"/><path class="cls-2" d="M91,90.55c11,2.92,19.47,8.27,27.53,16.3l-3.37-1.26C107.9,101,99,99.85,88.53,99.38a3.47,3.47,0,0,1-3-2.08c-1.91-4.42-6.5-15.14-8.87-21.62,0,0-.92-3.05-.63.49,1.15,14-1.77,23.89-7.44,34.1-4.05,7.3-8.9,10.81-14.34,17.16s-10.68,13.12-13.32,21c-1.89,5.67,0,13.34,2.94,20,1.18,2.67,1.34,4.11,4.81,8.16-1.05.1-4.42-4.3-4.42-4.3a44.32,44.32,0,0,1-9-28.16A48.51,48.51,0,0,1,45.54,115c2.34-3,5.15-5.92,5.64-9.67.55-4.15-1.87-8-3.73-11.76a39.85,39.85,0,0,1-4.61-17.54c-.05-2.31-.89-.38-.89-.38-2.37,6.48-7,17.2-8.88,21.62a3.46,3.46,0,0,1-3,2.08c-10.44.47-19.37,1.63-26.67,6.21L0,106.85c8.06-8,16.53-13.38,27.53-16.3a1.49,1.49,0,0,0,1-.81c2.84-7.53,5.95-15.82,9.83-23.19a12.16,12.16,0,0,1,3.7-4.26c1.51-1,3.75-1.23,5.07,0,0,0-3.81,6.39,4.75,6.61,1.8,0,15.43-.67,17.37-.67,4.91,0,2.18-5.94,2.18-5.94,1.32-1.27,3.55-1.07,5.06,0a12.08,12.08,0,0,1,3.71,4.26c4,7.53,7.12,16,10,23.67C90.39,90.71,91,90.55,91,90.55Z"/><path class="cls-3" d="M54.7,51.07a4.5,4.5,0,0,1,.64,1.76,10.05,10.05,0,0,1,.11,2,9.3,9.3,0,0,1-.2,1.64c-.06.34-.28,1.15-.28,1.15a9.3,9.3,0,0,1-.36,1,4.83,4.83,0,0,1-1.38,1.8,20.69,20.69,0,0,1-3.4,2,5.65,5.65,0,0,0,5.8-3.37A10.44,10.44,0,0,0,56,57.93s.25-.87.31-1.25a10.83,10.83,0,0,0,.22-1.82A3.94,3.94,0,0,0,54.7,51.07Z"/><path class="cls-3" d="M62.62,51.88a6,6,0,0,0-1.24,4.06,9.07,9.07,0,0,0,.29,1.84c0,.2.2.67.2.67a5.34,5.34,0,0,0,.24.6,4.89,4.89,0,0,0,1.76,2.19,4.5,4.5,0,0,0,2.2.8,6,6,0,0,0,2-.2,14.4,14.4,0,0,1-1.85-.6,8.18,8.18,0,0,1-1.75-.91,3.86,3.86,0,0,1-1.37-1.73c-.09-.18-.21-.52-.21-.52s-.14-.41-.18-.59a7.9,7.9,0,0,1-.25-1.61A21.9,21.9,0,0,1,62.62,51.88Z"/><path class="cls-4" d="M55.17,68.64s-3.47,2.85-7.12,1-2.72-8.32,2.81-8.77C48,63,48.23,66.4,49.36,67.57s4-3.21,6.09-1.81c3.59,2.36,5.23.87,7.5,0s5,3,6.1,1.81,1.38-4.58-1.51-6.73c5.54.45,6.48,6.88,2.82,8.77s-7.13-1-7.13-1h0a5.38,5.38,0,0,1-7.9.17Z"/><path class="cls-3" d="M43.23,68.78a12,12,0,0,0-.9,4.08c0,.23,0,.58,0,1v.71c0,.32,0,.64,0,1l0,1.12c0,.76.08,1.54.16,2.33a38.47,38.47,0,0,0,2.34,9.93c.63,1.67,1.37,3.33,2.16,5s1.67,3.18,2.37,4.77a14.69,14.69,0,0,1,1.34,4.83,8.91,8.91,0,0,1-.88,4.56c-1.32,2.78-3.4,4.91-4.91,6.93a46.33,46.33,0,0,0-3.39,5c-.73,1.25-1.1,2-1.1,2l-.27.52c-.19.34-.44.85-.74,1.51a48.09,48.09,0,0,0-2.24,5.62,49.89,49.89,0,0,0-2,8.5A48.24,48.24,0,0,0,36.85,159,49.5,49.5,0,0,0,38.64,164c.35.78.68,1.55,1.06,2.29l.55,1.1c.18.33.35.66.53,1,.53,1,1.06,1.8,1.29,2.21a12.61,12.61,0,0,0,1.32,1.75,19.84,19.84,0,0,0,1.47,1.36,18.64,18.64,0,0,0-.8-1.82,15.55,15.55,0,0,0-1-1.88c-.23-.4-.73-1.17-1.26-2.16-.17-.32-.34-.64-.52-1l-.53-1.07c-.37-.72-.69-1.48-1-2.24a47.35,47.35,0,0,1-1.76-4.82,47.88,47.88,0,0,1-2-10.36,47,47,0,0,1,.31-10.07A49.56,49.56,0,0,1,38.2,130a46.2,46.2,0,0,1,2.19-5.49c.29-.64.54-1.14.72-1.47l.26-.51s.36-.71,1.08-1.93a46.12,46.12,0,0,1,3.31-4.89c1.47-2,3.6-4.11,5.05-7.14a10.18,10.18,0,0,0,1-5.11,15.8,15.8,0,0,0-1.43-5.2c-.73-1.66-1.6-3.24-2.39-4.83s-1.5-3.2-2.12-4.83a37.21,37.21,0,0,1-2.27-9.65c-.08-.77-.12-1.53-.16-2.26l0-1.09c0-.32,0-.63,0-.94v-.7c0-.43,0-.77,0-1A20.24,20.24,0,0,0,43.23,68.78Z"/><path class="cls-3" d="M74.86,67.64a17.11,17.11,0,0,0,.07,4.15c0,.23.07.57.12,1,0,.21.06.44.09.7s.08.69.12,1.05.07.81.11,1.23c.06.83.16,1.68.18,2.55a58.5,58.5,0,0,1-.38,11.2A52,52,0,0,1,72.28,101a71.82,71.82,0,0,1-4.94,10.22,46.36,46.36,0,0,1-5.84,7.58l-4.64,4.85-1.71,1.86s-.62.67-1.67,1.9-2.54,3-4.26,5.22a68.68,68.68,0,0,0-5.47,8.1,47.11,47.11,0,0,0-2.47,5.09,29.48,29.48,0,0,0-1,2.78c-.12.49-.28,1-.38,1.48l-.24,1.52a29.52,29.52,0,0,0,1.68,12,45.75,45.75,0,0,0,2.25,5.45c.43.86.88,1.69,1.32,2.51l.7,1.19.34.58.31.48c.63,1,1.14,1.75,1.43,2.12a12,12,0,0,0,2.95,3,21.07,21.07,0,0,0-2-3.6c-.28-.36-.78-1.14-1.39-2.08l-.3-.47-.34-.57-.68-1.16c-.43-.8-.87-1.61-1.29-2.45a44.77,44.77,0,0,1-2.19-5.31,28.26,28.26,0,0,1-1.63-11.57,19.83,19.83,0,0,1,1.55-5.48,44.61,44.61,0,0,1,2.42-4.95,67.56,67.56,0,0,1,5.37-8c1.71-2.2,3.19-4,4.23-5.18S56,126.26,56,126.26l1.69-1.83,4.65-4.86a47.75,47.75,0,0,0,6-7.76,72.75,72.75,0,0,0,5-10.4,53.19,53.19,0,0,0,3-11.74,60.77,60.77,0,0,0,.38-11.41c0-.89-.12-1.75-.18-2.59,0-.42-.08-.84-.11-1.25s-.09-.71-.13-1.06-.06-.49-.08-.71c-.06-.43-.1-.78-.13-1A14,14,0,0,0,74.86,67.64Z"/><path class="cls-3" d="M47.13,62.33a3,3,0,0,0-1.67-1.24,4.07,4.07,0,0,0-2.38.08,5.39,5.39,0,0,0-1.69.91A12.49,12.49,0,0,0,38.67,65a14.77,14.77,0,0,0-1.15,2c-.35.67-.69,1.34-1,2-1.27,2.6-2.21,4.79-2.21,4.79s-.81,1.83-1.78,4.18-2.09,5.24-2.88,7.3l-.9,2.39a14.89,14.89,0,0,0-.93,4,14.91,14.91,0,0,0,2-3.66c.16-.39.44-1.15.91-2.38.79-2.05,1.9-4.93,2.87-7.27s1.76-4.16,1.76-4.16.94-2.17,2.2-4.74c.32-.65.65-1.31,1-2a14.51,14.51,0,0,1,1.07-1.87A11.56,11.56,0,0,1,42.07,63a4.4,4.4,0,0,1,1.37-.74,6.12,6.12,0,0,1,1.89-.33A3.49,3.49,0,0,1,47.13,62.33Z"/><path class="cls-3" d="M27.53,90.55a12.86,12.86,0,0,0-4.13.66l-1.66.59a59.53,59.53,0,0,0-5.86,2.56c-2,1-3.56,2-3.56,2l-.86.54c-.54.32-1.27.81-2.09,1.36-1.62,1.12-3.52,2.57-4.82,3.68-1,.85-1.61,1.4-1.93,1.68A13,13,0,0,0,0,106.85a17.77,17.77,0,0,0,3.36-2.42c.32-.27.92-.81,1.91-1.65,1.28-1.09,3.15-2.52,4.74-3.62.8-.54,1.51-1,2-1.34l.85-.53s1.54-.93,3.49-1.93a61,61,0,0,1,5.74-2.51l1.63-.58A18.75,18.75,0,0,0,27.53,90.55Z"/><path class="cls-3" d="M42,75.68a16.37,16.37,0,0,0-2,3.65c-.24.61-.73,1.83-1.33,3.32-1,2.47-2.21,5.37-3.38,8.14-.59,1.38-1.16,2.74-1.7,4-.27.62-.52,1.22-.77,1.78A3.84,3.84,0,0,1,32,97.89a3,3,0,0,1-1.87.92l-.92,0s-1.37.06-3.49.21-5,.4-8,.89a47.08,47.08,0,0,0-8.61,2.2c-1.08.41-1.95.77-2.37,1a10.6,10.6,0,0,0-3.41,2.45,28,28,0,0,0,3.87-1.43c.41-.2,1.25-.55,2.3-1a46.83,46.83,0,0,1,8.4-2.14c2.95-.48,5.79-.74,7.9-.89s3.47-.2,3.47-.2l1-.06a4.07,4.07,0,0,0,2.59-1.27,5.13,5.13,0,0,0,1-1.64c.25-.57.5-1.17.77-1.79.54-1.25,1.11-2.61,1.7-4,1.18-2.77,2.39-5.68,3.39-8.16.6-1.49,1.09-2.72,1.33-3.33A14.32,14.32,0,0,0,42,75.68Z"/><path class="cls-3" d="M71.43,62.33a3.47,3.47,0,0,1,1.8-.43,6.12,6.12,0,0,1,1.89.33,4.4,4.4,0,0,1,1.37.74A11.32,11.32,0,0,1,79,65.6,13.46,13.46,0,0,1,80,67.47c.35.67.68,1.33,1,2,1.26,2.57,2.2,4.74,2.2,4.74S84,76,85,78.35s2.08,5.22,2.87,7.27c.46,1.23.75,2,.9,2.38a15.27,15.27,0,0,0,2,3.66,14.89,14.89,0,0,0-.93-4l-.9-2.39c-.79-2.06-1.91-5-2.88-7.3s-1.78-4.18-1.78-4.18S83.32,71.55,82,69c-.31-.65-.65-1.32-1-2a14.77,14.77,0,0,0-1.15-2,12.3,12.3,0,0,0-2.73-2.88,5.28,5.28,0,0,0-1.68-.91,4.07,4.07,0,0,0-2.38-.08A3,3,0,0,0,71.43,62.33Z"/><path class="cls-3" d="M91,90.55a18.5,18.5,0,0,0,3.77,1.72l1.62.58a60,60,0,0,1,5.75,2.51c2,1,3.49,1.93,3.49,1.93l.85.53c.53.32,1.24.8,2,1.34,1.59,1.1,3.46,2.53,4.73,3.62,1,.84,1.6,1.38,1.92,1.65a17.45,17.45,0,0,0,3.36,2.42,13.27,13.27,0,0,0-2.62-3.25c-.32-.28-.92-.83-1.93-1.68-1.3-1.11-3.21-2.56-4.83-3.68-.81-.55-1.54-1-2.08-1.36l-.86-.54s-1.58-1-3.56-2a59.59,59.59,0,0,0-5.87-2.56l-1.66-.59A12.76,12.76,0,0,0,91,90.55Z"/><path class="cls-3" d="M76.61,75.68a14,14,0,0,0,1,4.06c.24.61.73,1.84,1.33,3.33,1,2.48,2.21,5.39,3.38,8.16l1.7,4L84.75,97a5.13,5.13,0,0,0,1,1.64,4.07,4.07,0,0,0,2.58,1.27l1,.06s1.36,0,3.47.2,5,.41,7.9.89a46.83,46.83,0,0,1,8.4,2.14c1,.4,1.89.75,2.3,1a27.94,27.94,0,0,0,3.86,1.43,10.44,10.44,0,0,0-3.4-2.45c-.42-.21-1.29-.57-2.37-1a47.08,47.08,0,0,0-8.61-2.2c-3-.49-5.88-.75-8-.89s-3.5-.21-3.5-.21l-.92,0a3,3,0,0,1-1.87-.92,4.2,4.2,0,0,1-.75-1.33c-.24-.56-.5-1.16-.76-1.78-.54-1.25-1.11-2.61-1.7-4-1.17-2.77-2.38-5.67-3.38-8.14-.6-1.49-1.09-2.71-1.33-3.32A16.37,16.37,0,0,0,76.61,75.68Z"/><path class="cls-5" d="M60,.53C50.67,1.15,39.67,5.8,35.91,21c-.06.25-.12.54-.18.88-2.38,13.73,7.76,29.3,21.69,29.81l2.84.11c12.85.47,24-12.54,24.4-25.39a30.9,30.9,0,0,0,0-3.48C83.36,9.67,71.6,1.33,62.22.6Z"/><path class="cls-6" d="M51.68,28.74c.73,1.21,3.78,3.72,4.94,4.8a3.36,3.36,0,0,0,2.24,1A3.76,3.76,0,0,0,61,33.8c1.66-1.15,4.35-3,5.35-4.46l1.47-1.79c-1.67,2.42-5.13,4-8.64,4s-6.92-1.7-8.51-4.15"/><path class="cls-7" d="M43.15,22.54a16.23,16.23,0,0,1,3.43-2A7.27,7.27,0,0,1,48.13,20l.28-.07.15,0,.14,0a10.73,10.73,0,0,1,2.39-.11c1.64.12,2.58.17,4,.32a7.33,7.33,0,0,0-4-1.43,11.17,11.17,0,0,0-2.64.11l-.15,0a.8.8,0,0,0-.17,0l-.32.07a8.07,8.07,0,0,0-1.76.58A5.53,5.53,0,0,0,43.15,22.54Z"/><path class="cls-7" d="M62.84,20.36a22.93,22.93,0,0,1,4-.1,15.67,15.67,0,0,1,1.67.14l.48.07.44.09a13.53,13.53,0,0,1,2.33.69,15.08,15.08,0,0,1,3.49,1.9,5.33,5.33,0,0,0-3.06-2.93,13.84,13.84,0,0,0-2.54-.76l-.47-.09-.51-.08a13.4,13.4,0,0,0-1.81-.14A6,6,0,0,0,62.84,20.36Z"/><path class="cls-7" d="M50.66,27.38a4.38,4.38,0,0,0,1.54,2.14,7.53,7.53,0,0,0,.92.65,12.15,12.15,0,0,0,6.08,1.71h.62a11.55,11.55,0,0,0,1.51-.17,11.73,11.73,0,0,0,3.5-1.17,10.36,10.36,0,0,0,1.39-.87,4.45,4.45,0,0,0,1.59-2.11c-.71.59-1.19.92-2,1.55a9.38,9.38,0,0,1-1.3.81A11.58,11.58,0,0,1,61.21,31a11.79,11.79,0,0,1-1.42.16H59.2a10.85,10.85,0,0,1-2.31-.26,11.1,11.1,0,0,1-3.4-1.35,8.58,8.58,0,0,1-.87-.6C51.82,28.33,51.35,28,50.66,27.38Z"/><path class="cls-7" d="M51.68,28.74a5.28,5.28,0,0,0,1.49,2.15l.8.75L56.57,34a3.89,3.89,0,0,0,1.47.85,2.71,2.71,0,0,0,.73.11,3.21,3.21,0,0,0,.62,0,4,4,0,0,0,1.37-.53c.94-.61,2-1.36,2.73-1.92s1.06-.83,1.26-1a5.19,5.19,0,0,0,1.59-2.09c-.72.58-1.23.87-2,1.56-.2.17-.58.48-1.23,1s-1.8,1.33-2.66,1.88a2.82,2.82,0,0,1-1.62.48,2.1,2.1,0,0,1-.55-.1,3.16,3.16,0,0,1-1.21-.7l-2.59-2.31-.79-.73C52.88,29.65,52.36,29.34,51.68,28.74Z"/></symbol></defs><g id="SEA_1"><use width="139.87" height="144.58" transform="translate(83.07 132.96)" xlink:href="#Aquatic_female_body_13"/><use width="51.68" height="55.34" transform="translate(129.04 17.71)" xlink:href="#Aquatic_female_hair_1"/><use width="118.56" height="178.94" transform="translate(93.22 56.5)" xlink:href="#Aquatic_Female_body2"/></g></svg>