<svg xmlns="http://www.w3.org/2000/svg" xmlns:xlink="http://www.w3.org/1999/xlink" viewBox="0 0 300 300"><defs><style>.cls-1{fill:url(#radial-gradient);}.cls-2{fill:url(#radial-gradient-2);}.cls-3{fill:#e0e0e0;}.cls-4{fill:#f87bff;stroke-width:0.7px;}.cls-4,.cls-5{stroke:#dbdbdb;stroke-miterlimit:10;}.cls-5{stroke-width:1.05px;fill:url(#radial-gradient-3);}.cls-6{fill:#fff;}.cls-7{fill:#202020;}.cls-8{fill:url(#New_Gradient_Swatch_13);}.cls-9{fill:url(#New_Gradient_Swatch_13-2);}.cls-10{fill:url(#New_Gradient_Swatch_13-3);}.cls-11{fill:url(#New_Gradient_Swatch_13-4);}</style><radialGradient id="radial-gradient" cx="59.06" cy="58.08" fx="68.4084767524565" r="17.05" gradientTransform="translate(0 -6.01)" gradientUnits="userSpaceOnUse"><stop offset="0.11" stop-color="#3d8eff"/><stop offset="0.16" stop-color="#459aff"/><stop offset="0.24" stop-color="#59b9ff"/><stop offset="0.36" stop-color="#7bebff"/><stop offset="0.38" stop-color="#81f4ff"/></radialGradient><radialGradient id="radial-gradient-2" cx="61.55" cy="118.61" fx="157.32463258174812" fy="181.79080560020424" r="114.74" gradientTransform="translate(0 -6.01)" gradientUnits="userSpaceOnUse"><stop offset="0.31" stop-color="#ff30ff"/><stop offset="0.33" stop-color="#f73cff"/><stop offset="0.39" stop-color="#e45bff"/><stop offset="0.45" stop-color="#c38dff"/><stop offset="0.54" stop-color="#97d2ff"/><stop offset="0.57" stop-color="#81f4ff"/></radialGradient><radialGradient id="radial-gradient-3" cx="59.93" cy="25.86" r="27.02" gradientTransform="translate(0 -6.01)" gradientUnits="userSpaceOnUse"><stop offset="0.75" stop-color="#81f4ff"/><stop offset="1" stop-color="#3d8eff"/></radialGradient><radialGradient id="New_Gradient_Swatch_13" cx="14.7" cy="11.46" fx="28.341769339235647" fy="20.25801987288066" r="18.37" gradientTransform="translate(0 -14.74)" gradientUnits="userSpaceOnUse"><stop offset="0.52" stop-color="#fff"/><stop offset="0.59" stop-color="#f7feff"/><stop offset="0.69" stop-color="#e3fdff"/><stop offset="0.81" stop-color="#c1faff"/><stop offset="0.95" stop-color="#92f5ff"/><stop offset="1" stop-color="#81f4ff"/></radialGradient><radialGradient id="New_Gradient_Swatch_13-2" cx="127.03" cy="14.43" fx="140.2055150209846" fy="22.92438915559766" r="17.74" xlink:href="#New_Gradient_Swatch_13"/><radialGradient id="New_Gradient_Swatch_13-3" cx="-1419.78" cy="-537.2" fx="-1354.6851398916087" fy="-495.23290966768315" r="87.66" gradientTransform="matrix(0.88, 0.01, 0.01, 0.89, 1296.03, 548.22)" xlink:href="#New_Gradient_Swatch_13"/><radialGradient id="New_Gradient_Swatch_13-4" cx="36.64" cy="29.61" fx="71.9721462125914" fy="52.38388684507284" r="47.58" gradientTransform="translate(0 -5.96)" xlink:href="#New_Gradient_Swatch_13"/><symbol id="Aquatic_female_body_14" data-name="Aquatic_female_body_14" viewBox="0 0 140.37 140.61"><path class="cls-8" d="M22.32,0C11.67,5.56,4.28,13.87,2,17.6a5.36,5.36,0,0,0-1,3.34,2.84,2.84,0,0,0,2.76,2.25c6.22.42,5.4-12.54,24.85-21.11"/><path class="cls-3" d="M22.32,0a18.15,18.15,0,0,0-6.41,2.77c-.39.29-1.08.71-2.39,1.73A58.07,58.07,0,0,0,2.59,15.13a18.4,18.4,0,0,0-2.08,3.3A5.51,5.51,0,0,0,0,20.31a3.39,3.39,0,0,0,.41,1.88,3.8,3.8,0,0,0,2.07,1.69,4,4,0,0,0,.93.22,5,5,0,0,0,.79,0,4.54,4.54,0,0,0,2.08-.59c1.63-.93,2.82-2.8,4.1-4.69A50.59,50.59,0,0,1,14.7,13a34.77,34.77,0,0,1,4.89-4.6A38.46,38.46,0,0,1,23,6.06a49.19,49.19,0,0,0,5.58-4A17.17,17.17,0,0,0,22,4.48,37.44,37.44,0,0,0,18.44,7a36.66,36.66,0,0,0-5.15,4.84,54.55,54.55,0,0,0-4.45,6c-1.26,1.92-2.44,3.57-3.46,4.11a2.87,2.87,0,0,1-1.74.34,2.22,2.22,0,0,1-.53-.12,1.93,1.93,0,0,1-1.06-.85,2.31,2.31,0,0,1,.17-2.09,17.24,17.24,0,0,1,1.86-2.94A57.27,57.27,0,0,1,14.64,6C15.92,5,16.58,4.6,17,4.31A41.3,41.3,0,0,0,22.32,0Z"/><path class="cls-9" d="M126.3,6.48c3.88,2.94,10.71,10.68,12.43,14.67a5.92,5.92,0,0,1,.63,3.52,2.88,2.88,0,0,1-2.79,2.17c-5.81.07-5.64-14.57-21.85-24.52"/><path class="cls-3" d="M126.3,6.48a56.42,56.42,0,0,0,4.33,5.33c.32.35.85.92,1.91,2.14a56.15,56.15,0,0,1,3.52,4.49,21,21,0,0,1,1.67,2.79A6.48,6.48,0,0,1,138.5,24a1.88,1.88,0,0,1-1.08,1.67,2.19,2.19,0,0,1-1.72,0,3.33,3.33,0,0,1-1.09-.78,3.22,3.22,0,0,1-.28-.3l-.09-.11A12.24,12.24,0,0,1,133.18,23c-.63-1-1.42-2.54-2.34-4.26a60.48,60.48,0,0,0-3.22-5.37A41.87,41.87,0,0,0,124,8.72a38,38,0,0,0-3.11-3,15.64,15.64,0,0,0-6.14-3.37,68.21,68.21,0,0,0,4.91,4.76,41,41,0,0,1,3,2.91,40,40,0,0,1,3.49,4.44,59.73,59.73,0,0,1,3.12,5.21c.92,1.69,1.72,3.24,2.4,4.34a14.15,14.15,0,0,0,1.22,1.75l.11.14c.08.09.19.23.36.4A5.11,5.11,0,0,0,135,27.46a4,4,0,0,0,3.22-.07,3.72,3.72,0,0,0,2.15-3.26,8,8,0,0,0-1-3.69,21.13,21.13,0,0,0-1.82-3.06A56.77,56.77,0,0,0,134,12.73c-1.09-1.25-1.64-1.83-2-2.19A16.5,16.5,0,0,0,126.3,6.48Z"/><path class="cls-10" d="M73.59,23.6a33.55,33.55,0,0,0-1.65,9.79c-.14,9,2,20.93,4.22,30.34,2.66,11.17,4.38,22.61,3.25,33.81s-3.16,22.3-11.18,30.35-20.13,12.77-32.11,11c-7.63-1.14-15-5-19.78-10.87s-6.56-13.87-4.12-20.58a18.58,18.58,0,0,1,17-11.89c7.65-.12,15.51,5.07,17.58,12.1.65,2.19.73,4.66-.89,6.37a3.85,3.85,0,0,1-4.57.8c-2.41-1.28-2.28-4.5-3.26-6.94C36,102.73,27.77,101.5,23.61,105s-4.46,9.91-2,14.92c2.9,6,9.22,10.43,16,11.6a23.3,23.3,0,0,0,18.82-5.13c3.18-2.74,6.06-6.61,5.33-10.75C58.2,95.47,36.32,82.77,31.2,61.05,29,51.83,29.92,40.88,37,34.69,45.13,27.62,55.24,18.83,59.79,15c0,0,5.83-6.25,7.43-8.81S81.66,2.68,79.06,10C76.33,17.65,74.29,21.44,73.59,23.6Z"/><path class="cls-3" d="M73.59,23.6A20,20,0,0,0,71.46,28a18.05,18.05,0,0,0-.88,5.39c0,.57,0,1.45,0,2.51,0,.54,0,1.13.06,1.75l0,.65c0,.42,0,.85.08,1.28.06.85.14,1.71.22,2.58.17,1.73.38,3.47.64,5.24.49,3.53,1.14,7.13,1.89,10.79.39,1.83.79,3.67,1.23,5.53s.86,3.68,1.24,5.56c.78,3.75,1.41,7.6,1.85,11.51a84.13,84.13,0,0,1,.5,11.91c-.07,2-.22,4-.45,6.05s-.48,4.07-.82,6.09a53.62,53.62,0,0,1-3.16,11.81,34.31,34.31,0,0,1-2.78,5.39,31.31,31.31,0,0,1-3.77,4.73,37.66,37.66,0,0,1-21.44,10.73A33.58,33.58,0,0,1,34,137.09a31.41,31.41,0,0,1-10.73-4.6,25.3,25.3,0,0,1-7.78-8.12,21.4,21.4,0,0,1-3-10.33,16.21,16.21,0,0,1,2.83-9.68,17.53,17.53,0,0,1,7.49-6.1,16.89,16.89,0,0,1,9-1.19,18.47,18.47,0,0,1,7.87,3.24,16.59,16.59,0,0,1,3,2.7,13.43,13.43,0,0,1,2.06,3.13c1.06,2.15,1.5,4.6.73,6.11a2.56,2.56,0,0,1-3.63,1.27c-1.09-.62-1.46-2.38-1.87-4a11.48,11.48,0,0,0-.84-2.52,5.94,5.94,0,0,0-.65-1.13,6.13,6.13,0,0,0-.77-1,9.32,9.32,0,0,0-3.14-2.19,11.25,11.25,0,0,0-2.19-.72,7.59,7.59,0,0,0-.77-.15l-.78-.1a12.93,12.93,0,0,0-2.29,0,11.72,11.72,0,0,0-3.64.93c-.35.16-.69.37-1.05.56s-.69.49-1,.75a10.91,10.91,0,0,0-1.85,2c-2.31,3.14-3,8.14-1.22,13a22.19,22.19,0,0,0,11.58,12A24.4,24.4,0,0,0,51,131.3a23.5,23.5,0,0,0,9-6.54,14.13,14.13,0,0,0,2.91-5.28,9.63,9.63,0,0,0,.33-3.23l-.11-.82-.16-.72-.34-1.43-.34-1.44c-.11-.48-.31-.94-.46-1.41-.34-.93-.64-1.88-1-2.8l-1.25-2.72c-.41-.92-1-1.76-1.42-2.65a89.32,89.32,0,0,0-6.79-10c-4.9-6.48-10.24-12.78-14.22-20A49.59,49.59,0,0,1,32.58,60.9a35.65,35.65,0,0,1-.86-12.12,21.48,21.48,0,0,1,4.2-11c.32-.36.62-.75,1-1.09l1-1,2.38-2.06L45,29.56l9.36-8.1,4.61-4,1.15-1,.28-.25.15-.12.11-.1a1.36,1.36,0,0,0,.12-.12l.54-.58,2-2.25c1.33-1.51,2.64-3,3.89-4.61.31-.4.62-.81.92-1.27L68.31,7s.06-.15.08-.11l.06-.06a1.48,1.48,0,0,1,.33-.24,7.68,7.68,0,0,1,2.3-.74,10.81,10.81,0,0,1,5,.21,3.18,3.18,0,0,1,1.62,1,2.06,2.06,0,0,1,.29.72,3.17,3.17,0,0,1,0,.44v.16a4,4,0,0,1-.14.74c0,.12-.08.25-.11.37s-.11.3-.16.44L77,11.57c-.36,1-.66,1.76-.86,2.28a47.59,47.59,0,0,0-1.67,5,29,29,0,0,0-.9,4.78c1-1.49,1.91-2.65,2.73-4a30.22,30.22,0,0,0,2.37-4.77l.89-2.32c.18-.5.38-1,.6-1.63,0-.14.11-.29.16-.44l.17-.56a6.51,6.51,0,0,0,.23-1.24l0-.31a6.18,6.18,0,0,0-.05-1A4.73,4.73,0,0,0,80,5.53a5.86,5.86,0,0,0-3-2.06,13.45,13.45,0,0,0-6.35-.3,9.9,9.9,0,0,0-3.2,1.07,4.06,4.06,0,0,0-.85.62,3,3,0,0,0-.42.49l-.22.32c-.24.36-.52.74-.81,1.11-1.17,1.5-2.47,3-3.78,4.46l-2,2.22-.48.52-.47.41-1.15,1-4.61,4-9.37,8.11L38.51,31.6l-2.38,2.06L34.9,34.84c-.39.4-.74.85-1.11,1.28A24.13,24.13,0,0,0,29,48.48a38.47,38.47,0,0,0,.92,13.06,52.16,52.16,0,0,0,4.78,12c4.16,7.51,9.61,13.9,14.44,20.29a86.42,86.42,0,0,1,6.58,9.75c.45.84,1,1.65,1.36,2.51s.78,1.71,1.18,2.56.62,1.74.94,2.61c.14.43.33.86.43,1.3l.31,1.33.31,1.32.16.66.07.57a6.69,6.69,0,0,1-.24,2.3A11.62,11.62,0,0,1,57.87,123a20.74,20.74,0,0,1-7.94,5.77,22.12,22.12,0,0,1-9.13,1.69,20.91,20.91,0,0,1-8.38-2A19.47,19.47,0,0,1,22.25,118a13.39,13.39,0,0,1-.78-5.91,9.44,9.44,0,0,1,1.66-4.56,7.27,7.27,0,0,1,5.61-3.12,11.58,11.58,0,0,1,1.79,0l.61.08a4.39,4.39,0,0,1,.6.12,8.2,8.2,0,0,1,1.69.55,6.32,6.32,0,0,1,3.87,5,22.18,22.18,0,0,0,.77,2.73,5.74,5.74,0,0,0,2.29,3,5.1,5.1,0,0,0,4.19.53,5.38,5.38,0,0,0,2-1.1,5.78,5.78,0,0,0,1.37-1.82,7.63,7.63,0,0,0,.57-4.37A11.45,11.45,0,0,0,48,107a13.84,13.84,0,0,0-.81-2,16.34,16.34,0,0,0-2.45-3.73,18.89,18.89,0,0,0-3.42-3.12,21.14,21.14,0,0,0-9.05-3.73,19.69,19.69,0,0,0-10.46,1.37,20.33,20.33,0,0,0-8.67,7.06,19.05,19.05,0,0,0-3.32,11.28,24.24,24.24,0,0,0,3.37,11.66,28,28,0,0,0,8.6,9,34.32,34.32,0,0,0,11.66,5,36.48,36.48,0,0,0,12.89.5,40.41,40.41,0,0,0,23-11.52,34.75,34.75,0,0,0,4.12-5.17,36.56,36.56,0,0,0,3-5.83,56.18,56.18,0,0,0,3.33-12.41c.35-2.08.61-4.17.84-6.24s.39-4.17.46-6.25a87.91,87.91,0,0,0-.51-12.3c-.45-4-1.1-7.94-1.89-11.76-.39-1.91-.83-3.79-1.26-5.64s-.83-3.65-1.21-5.46q-1.12-5.41-1.87-10.62c-.25-1.73-.45-3.44-.62-5.12-.08-.84-.16-1.68-.22-2.51l-.08-1.24,0-.62c0-.61,0-1.17-.07-1.69,0-1,0-1.85,0-2.4,0-2,.1-3.57.13-5.09S73.47,25.39,73.59,23.6Z"/></symbol><symbol id="Aquatic_female_hair_2" data-name="Aquatic_female_hair_2" viewBox="0 0 73.02 61.24"><path class="cls-11" d="M51.43,3A35.11,35.11,0,0,1,64.3,11.89C74.12,22.12,74.83,36.44,69,49.06A4.55,4.55,0,0,0,68.6,52c.45,1.16,1.3,2.29,1.06,3.5-.47,2.38-4.26,2.31-6.47,1s-4.55-3.17-7-2.42c-2.83.86-3.62,4.74-6.48,5.5-4.08,1.09-6.55-5-10.76-5.47-5-.58-8.43,6.94-13.26,5.59-3.54-1-4.37-6.1-8-6.82s-6.26,3.49-9.89,3.71a4.61,4.61,0,0,1-4.57-3,4.2,4.2,0,0,1,1.46-4.47A1,1,0,0,0,5,48H5C-6.49,24.47,8.23,7.78,21.67,2.46,21.67,2.46,34.51-3.28,51.43,3Z"/><path class="cls-3" d="M51.43,3a28.18,28.18,0,0,1,4.41,2.1,33.59,33.59,0,0,1,4.42,3.11c.45.36,1.11.93,1.91,1.66.39.37.82.78,1.27,1.23l.59.6c.25.26.48.54.72.81.47.56,1,1.09,1.43,1.7L67.52,16l1.21,2a29,29,0,0,1,3.2,9.23,32.35,32.35,0,0,1,0,10.3,38.49,38.49,0,0,1-3,10.12l-.56,1.24a6.93,6.93,0,0,0-.46,1.42,3.57,3.57,0,0,0,0,1.66,10,10,0,0,0,.56,1.36,2.94,2.94,0,0,1,.42,2c-.14.55-.66.87-1.37,1a5.27,5.27,0,0,1-2.26-.1A6.37,6.37,0,0,1,64.13,56c-.18-.08-.33-.18-.5-.26l-.54-.34a14,14,0,0,0-5-2.42,4.92,4.92,0,0,0-3.14.54,7.45,7.45,0,0,0-2.2,1.92c-1.12,1.35-2,2.64-3.07,3s-2.13,0-3.25-.87S44.24,55.53,43,54.56a9.8,9.8,0,0,0-2.11-1.28,6.35,6.35,0,0,0-2.55-.51,8.12,8.12,0,0,0-4.38,1.48c-2.26,1.52-3.88,3.1-5.42,3.81A3.23,3.23,0,0,1,25,57.81a10.32,10.32,0,0,1-1.94-2.17l-.72-1-.22-.29c-.16-.2-.41-.51-.82-.94a6.89,6.89,0,0,0-2-1.49,5.67,5.67,0,0,0-3.93-.33,15.44,15.44,0,0,0-4.11,2.12c-1.32.85-2.79,1.7-4.22,1.47A3.49,3.49,0,0,1,5,54.1a2.5,2.5,0,0,1-.56-2.32,3,3,0,0,1,.63-1.27,3.08,3.08,0,0,1,.25-.27l.2-.18a2.51,2.51,0,0,0,.36-.37,2.34,2.34,0,0,0,.39-.95,3,3,0,0,0,0-.52c0-.08,0-.17,0-.26l0-.06s0,0-.12,0l-.25,0-.51,0c-.15,0-.43.07-.22,0l.57-.28L6,47.55s.13,0,.11-.06l0,0L6,47.25,5.86,47l-.22-.49-.44-1c-.29-.67-.6-1.35-.91-2a44.29,44.29,0,0,1-2-7.38,29.51,29.51,0,0,1,.1-10.71A29.58,29.58,0,0,1,7.6,13.69,33.83,33.83,0,0,1,18.14,4.45a32.07,32.07,0,0,1,3.21-1.61A22.33,22.33,0,0,1,24.7,1.63,37.87,37.87,0,0,1,31.61.33C32.76.21,33.9.16,35,.13h.81c.49,0,1,0,1.43,0L39.73.3l1.72.21c1.07.1,2,.32,2.88.47s1.66.36,2.43.56c1.56.36,3,.88,4.67,1.44-1.7-.56-3.11-1.09-4.66-1.44A25,25,0,0,0,44.33,1c-.87-.15-1.8-.39-2.87-.5L39.73.24,37.27.05c-.45,0-.93,0-1.43,0H35c-.57,0-1.14,0-1.71,0s-1.15,0-1.73.1a38.65,38.65,0,0,0-7,1.15,23.42,23.42,0,0,0-3.43,1.15A30.68,30.68,0,0,0,17.89,4,35.1,35.1,0,0,0,6.78,13.06,30.16,30.16,0,0,0,.28,36.4a44.56,44.56,0,0,0,1.9,7.87c.58,1.41,1.14,2.76,1.66,4h0l-.07.05-.12.11c-.16.15-.32.31-.46.47A5.62,5.62,0,0,0,2,51.16a5.16,5.16,0,0,0,0,2.47A5.11,5.11,0,0,0,3,55.75a6.07,6.07,0,0,0,3.57,2.07,6.58,6.58,0,0,0,3.6-.44,16,16,0,0,0,2.5-1.32,13.26,13.26,0,0,1,3.38-1.76,3.15,3.15,0,0,1,3.23,1.09c.3.32.5.57.64.74l.19.25.69.92c.23.31.51.71.91,1.18a9,9,0,0,0,1.61,1.57,5.64,5.64,0,0,0,2.85,1.15,6.51,6.51,0,0,0,3.5-.63c2.13-1,3.81-2.76,5.72-4a5.62,5.62,0,0,1,2.94-1.1,4.92,4.92,0,0,1,3.07,1.21c1.07.77,2.13,1.84,3.49,2.84a7.7,7.7,0,0,0,2.48,1.25,4.89,4.89,0,0,0,3.09-.16,6,6,0,0,0,2.38-1.77c.61-.68,1.09-1.38,1.58-2,1-1.26,2-2,3.33-1.82a12.57,12.57,0,0,1,4.35,2l.59.34a5.42,5.42,0,0,0,.69.32,7.2,7.2,0,0,0,1.43.45,7,7,0,0,0,3,0,3.76,3.76,0,0,0,1.53-.72,2.72,2.72,0,0,0,1-1.53,3.16,3.16,0,0,0-.05-1.73,8.3,8.3,0,0,0-.57-1.37,9.39,9.39,0,0,1-.52-1.11,2.27,2.27,0,0,1,0-1,5.45,5.45,0,0,1,.33-1.16L70,48.18a40.94,40.94,0,0,0,2.74-10.51,34.07,34.07,0,0,0-.36-10.5A30.66,30.66,0,0,0,69,17.91c-.43-.67-.85-1.33-1.26-2l-1.38-1.83c-.46-.6-1-1.13-1.47-1.68-.25-.27-.48-.55-.74-.8l-.6-.6c-.45-.44-.89-.85-1.28-1.21-.81-.73-1.47-1.29-1.93-1.65a35.57,35.57,0,0,0-4.45-3.08A29.1,29.1,0,0,0,51.43,3Z"/></symbol><symbol id="Aquatic_Female_body2" data-name="Aquatic_Female_body2" viewBox="0 0 118.56 178.94"><path class="cls-1" d="M49.83,62.44c3.85-.81,5.11-2.62,5.73-4.83s.84-5-.86-6.54l4.18-9.62,3.74,10.43A9,9,0,0,0,62.71,59c1,2,3.14,2.84,5.4,2.81L73,63S75.9,77.65,60.66,77.86C38.81,78.16,49.83,62.44,49.83,62.44Z"/><path class="cls-2" d="M91,90.55c11,2.92,19.47,8.27,27.53,16.3l-3.37-1.26C107.9,101,99,99.85,88.53,99.38a3.47,3.47,0,0,1-3-2.08c-1.91-4.42-6.5-15.14-8.87-21.62,0,0-.92-3.05-.63.49,1.15,14-1.77,23.89-7.44,34.1-4.05,7.3-8.9,10.81-14.34,17.16s-10.68,13.12-13.32,21c-1.89,5.67,0,13.34,2.94,20,1.18,2.67,1.34,4.11,4.81,8.16-1.05.1-4.42-4.3-4.42-4.3a44.32,44.32,0,0,1-9-28.16A48.51,48.51,0,0,1,45.54,115c2.34-3,5.15-5.92,5.64-9.67.55-4.15-1.87-8-3.73-11.76a39.85,39.85,0,0,1-4.61-17.54c-.05-2.31-.89-.38-.89-.38-2.37,6.48-7,17.2-8.88,21.62a3.46,3.46,0,0,1-3,2.08c-10.44.47-19.37,1.63-26.67,6.21L0,106.85c8.06-8,16.53-13.38,27.53-16.3a1.49,1.49,0,0,0,1-.81c2.84-7.53,5.95-15.82,9.83-23.19a12.16,12.16,0,0,1,3.7-4.26c1.51-1,3.75-1.23,5.07,0,0,0-3.81,6.39,4.75,6.61,1.8,0,15.43-.67,17.37-.67,4.91,0,2.18-5.94,2.18-5.94,1.32-1.27,3.55-1.07,5.06,0a12.08,12.08,0,0,1,3.71,4.26c4,7.53,7.12,16,10,23.67C90.39,90.71,91,90.55,91,90.55Z"/><path class="cls-3" d="M54.7,51.07a4.5,4.5,0,0,1,.64,1.76,10.05,10.05,0,0,1,.11,2,9.3,9.3,0,0,1-.2,1.64c-.06.34-.28,1.15-.28,1.15a9.3,9.3,0,0,1-.36,1,4.83,4.83,0,0,1-1.38,1.8,20.69,20.69,0,0,1-3.4,2,5.65,5.65,0,0,0,5.8-3.37A10.44,10.44,0,0,0,56,57.93s.25-.87.31-1.25a10.83,10.83,0,0,0,.22-1.82A3.94,3.94,0,0,0,54.7,51.07Z"/><path class="cls-3" d="M62.62,51.88a6,6,0,0,0-1.24,4.06,9.07,9.07,0,0,0,.29,1.84c0,.2.2.67.2.67a5.34,5.34,0,0,0,.24.6,4.89,4.89,0,0,0,1.76,2.19,4.5,4.5,0,0,0,2.2.8,6,6,0,0,0,2-.2,14.4,14.4,0,0,1-1.85-.6,8.18,8.18,0,0,1-1.75-.91,3.86,3.86,0,0,1-1.37-1.73c-.09-.18-.21-.52-.21-.52s-.14-.41-.18-.59a7.9,7.9,0,0,1-.25-1.61A21.9,21.9,0,0,1,62.62,51.88Z"/><path class="cls-4" d="M55.17,68.64s-3.47,2.85-7.12,1-2.72-8.32,2.81-8.77C48,63,48.23,66.4,49.36,67.57s4-3.21,6.09-1.81c3.59,2.36,5.23.87,7.5,0s5,3,6.1,1.81,1.38-4.58-1.51-6.73c5.54.45,6.48,6.88,2.82,8.77s-7.13-1-7.13-1h0a5.38,5.38,0,0,1-7.9.17Z"/><path class="cls-3" d="M43.23,68.78a12,12,0,0,0-.9,4.08c0,.23,0,.58,0,1v.71c0,.32,0,.64,0,1l0,1.12c0,.76.08,1.54.16,2.33a38.47,38.47,0,0,0,2.34,9.93c.63,1.67,1.37,3.33,2.16,5s1.67,3.18,2.37,4.77a14.69,14.69,0,0,1,1.34,4.83,8.91,8.91,0,0,1-.88,4.56c-1.32,2.78-3.4,4.91-4.91,6.93a46.33,46.33,0,0,0-3.39,5c-.73,1.25-1.1,2-1.1,2l-.27.52c-.19.34-.44.85-.74,1.51a48.09,48.09,0,0,0-2.24,5.62,49.89,49.89,0,0,0-2,8.5A48.24,48.24,0,0,0,36.85,159,49.5,49.5,0,0,0,38.64,164c.35.78.68,1.55,1.06,2.29l.55,1.1c.18.33.35.66.53,1,.53,1,1.06,1.8,1.29,2.21a12.61,12.61,0,0,0,1.32,1.75,19.84,19.84,0,0,0,1.47,1.36,18.64,18.64,0,0,0-.8-1.82,15.55,15.55,0,0,0-1-1.88c-.23-.4-.73-1.17-1.26-2.16-.17-.32-.34-.64-.52-1l-.53-1.07c-.37-.72-.69-1.48-1-2.24a47.35,47.35,0,0,1-1.76-4.82,47.88,47.88,0,0,1-2-10.36,47,47,0,0,1,.31-10.07A49.56,49.56,0,0,1,38.2,130a46.2,46.2,0,0,1,2.19-5.49c.29-.64.54-1.14.72-1.47l.26-.51s.36-.71,1.08-1.93a46.12,46.12,0,0,1,3.31-4.89c1.47-2,3.6-4.11,5.05-7.14a10.18,10.18,0,0,0,1-5.11,15.8,15.8,0,0,0-1.43-5.2c-.73-1.66-1.6-3.24-2.39-4.83s-1.5-3.2-2.12-4.83a37.21,37.21,0,0,1-2.27-9.65c-.08-.77-.12-1.53-.16-2.26l0-1.09c0-.32,0-.63,0-.94v-.7c0-.43,0-.77,0-1A20.24,20.24,0,0,0,43.23,68.78Z"/><path class="cls-3" d="M74.86,67.64a17.11,17.11,0,0,0,.07,4.15c0,.23.07.57.12,1,0,.21.06.44.09.7s.08.69.12,1.05.07.81.11,1.23c.06.83.16,1.68.18,2.55a58.5,58.5,0,0,1-.38,11.2A52,52,0,0,1,72.28,101a71.82,71.82,0,0,1-4.94,10.22,46.36,46.36,0,0,1-5.84,7.58l-4.64,4.85-1.71,1.86s-.62.67-1.67,1.9-2.54,3-4.26,5.22a68.68,68.68,0,0,0-5.47,8.1,47.11,47.11,0,0,0-2.47,5.09,29.48,29.48,0,0,0-1,2.78c-.12.49-.28,1-.38,1.48l-.24,1.52a29.52,29.52,0,0,0,1.68,12,45.75,45.75,0,0,0,2.25,5.45c.43.86.88,1.69,1.32,2.51l.7,1.19.34.58.31.48c.63,1,1.14,1.75,1.43,2.12a12,12,0,0,0,2.95,3,21.07,21.07,0,0,0-2-3.6c-.28-.36-.78-1.14-1.39-2.08l-.3-.47-.34-.57-.68-1.16c-.43-.8-.87-1.61-1.29-2.45a44.77,44.77,0,0,1-2.19-5.31,28.26,28.26,0,0,1-1.63-11.57,19.83,19.83,0,0,1,1.55-5.48,44.61,44.61,0,0,1,2.42-4.95,67.56,67.56,0,0,1,5.37-8c1.71-2.2,3.19-4,4.23-5.18S56,126.26,56,126.26l1.69-1.83,4.65-4.86a47.75,47.75,0,0,0,6-7.76,72.75,72.75,0,0,0,5-10.4,53.19,53.19,0,0,0,3-11.74,60.77,60.77,0,0,0,.38-11.41c0-.89-.12-1.75-.18-2.59,0-.42-.08-.84-.11-1.25s-.09-.71-.13-1.06-.06-.49-.08-.71c-.06-.43-.1-.78-.13-1A14,14,0,0,0,74.86,67.64Z"/><path class="cls-3" d="M47.13,62.33a3,3,0,0,0-1.67-1.24,4.07,4.07,0,0,0-2.38.08,5.39,5.39,0,0,0-1.69.91A12.49,12.49,0,0,0,38.67,65a14.77,14.77,0,0,0-1.15,2c-.35.67-.69,1.34-1,2-1.27,2.6-2.21,4.79-2.21,4.79s-.81,1.83-1.78,4.18-2.09,5.24-2.88,7.3l-.9,2.39a14.89,14.89,0,0,0-.93,4,14.91,14.91,0,0,0,2-3.66c.16-.39.44-1.15.91-2.38.79-2.05,1.9-4.93,2.87-7.27s1.76-4.16,1.76-4.16.94-2.17,2.2-4.74c.32-.65.65-1.31,1-2a14.51,14.51,0,0,1,1.07-1.87A11.56,11.56,0,0,1,42.07,63a4.4,4.4,0,0,1,1.37-.74,6.12,6.12,0,0,1,1.89-.33A3.49,3.49,0,0,1,47.13,62.33Z"/><path class="cls-3" d="M27.53,90.55a12.86,12.86,0,0,0-4.13.66l-1.66.59a59.53,59.53,0,0,0-5.86,2.56c-2,1-3.56,2-3.56,2l-.86.54c-.54.32-1.27.81-2.09,1.36-1.62,1.12-3.52,2.57-4.82,3.68-1,.85-1.61,1.4-1.93,1.68A13,13,0,0,0,0,106.85a17.77,17.77,0,0,0,3.36-2.42c.32-.27.92-.81,1.91-1.65,1.28-1.09,3.15-2.52,4.74-3.62.8-.54,1.51-1,2-1.34l.85-.53s1.54-.93,3.49-1.93a61,61,0,0,1,5.74-2.51l1.63-.58A18.75,18.75,0,0,0,27.53,90.55Z"/><path class="cls-3" d="M42,75.68a16.37,16.37,0,0,0-2,3.65c-.24.61-.73,1.83-1.33,3.32-1,2.47-2.21,5.37-3.38,8.14-.59,1.38-1.16,2.74-1.7,4-.27.62-.52,1.22-.77,1.78A3.84,3.84,0,0,1,32,97.89a3,3,0,0,1-1.87.92l-.92,0s-1.37.06-3.49.21-5,.4-8,.89a47.08,47.08,0,0,0-8.61,2.2c-1.08.41-1.95.77-2.37,1a10.6,10.6,0,0,0-3.41,2.45,28,28,0,0,0,3.87-1.43c.41-.2,1.25-.55,2.3-1a46.83,46.83,0,0,1,8.4-2.14c2.95-.48,5.79-.74,7.9-.89s3.47-.2,3.47-.2l1-.06a4.07,4.07,0,0,0,2.59-1.27,5.13,5.13,0,0,0,1-1.64c.25-.57.5-1.17.77-1.79.54-1.25,1.11-2.61,1.7-4,1.18-2.77,2.39-5.68,3.39-8.16.6-1.49,1.09-2.72,1.33-3.33A14.32,14.32,0,0,0,42,75.68Z"/><path class="cls-3" d="M71.43,62.33a3.47,3.47,0,0,1,1.8-.43,6.12,6.12,0,0,1,1.89.33,4.4,4.4,0,0,1,1.37.74A11.32,11.32,0,0,1,79,65.6,13.46,13.46,0,0,1,80,67.47c.35.67.68,1.33,1,2,1.26,2.57,2.2,4.74,2.2,4.74S84,76,85,78.35s2.08,5.22,2.87,7.27c.46,1.23.75,2,.9,2.38a15.27,15.27,0,0,0,2,3.66,14.89,14.89,0,0,0-.93-4l-.9-2.39c-.79-2.06-1.91-5-2.88-7.3s-1.78-4.18-1.78-4.18S83.32,71.55,82,69c-.31-.65-.65-1.32-1-2a14.77,14.77,0,0,0-1.15-2,12.3,12.3,0,0,0-2.73-2.88,5.28,5.28,0,0,0-1.68-.91,4.07,4.07,0,0,0-2.38-.08A3,3,0,0,0,71.43,62.33Z"/><path class="cls-3" d="M91,90.55a18.5,18.5,0,0,0,3.77,1.72l1.62.58a60,60,0,0,1,5.75,2.51c2,1,3.49,1.93,3.49,1.93l.85.53c.53.32,1.24.8,2,1.34,1.59,1.1,3.46,2.53,4.73,3.62,1,.84,1.6,1.38,1.92,1.65a17.45,17.45,0,0,0,3.36,2.42,13.27,13.27,0,0,0-2.62-3.25c-.32-.28-.92-.83-1.93-1.68-1.3-1.11-3.21-2.56-4.83-3.68-.81-.55-1.54-1-2.08-1.36l-.86-.54s-1.58-1-3.56-2a59.59,59.59,0,0,0-5.87-2.56l-1.66-.59A12.76,12.76,0,0,0,91,90.55Z"/><path class="cls-3" d="M76.61,75.68a14,14,0,0,0,1,4.06c.24.61.73,1.84,1.33,3.33,1,2.48,2.21,5.39,3.38,8.16l1.7,4L84.75,97a5.13,5.13,0,0,0,1,1.64,4.07,4.07,0,0,0,2.58,1.27l1,.06s1.36,0,3.47.2,5,.41,7.9.89a46.83,46.83,0,0,1,8.4,2.14c1,.4,1.89.75,2.3,1a27.94,27.94,0,0,0,3.86,1.43,10.44,10.44,0,0,0-3.4-2.45c-.42-.21-1.29-.57-2.37-1a47.08,47.08,0,0,0-8.61-2.2c-3-.49-5.88-.75-8-.89s-3.5-.21-3.5-.21l-.92,0a3,3,0,0,1-1.87-.92,4.2,4.2,0,0,1-.75-1.33c-.24-.56-.5-1.16-.76-1.78-.54-1.25-1.11-2.61-1.7-4-1.17-2.77-2.38-5.67-3.38-8.14-.6-1.49-1.09-2.71-1.33-3.32A16.37,16.37,0,0,0,76.61,75.68Z"/><path class="cls-5" d="M60,.53C50.67,1.15,39.67,5.8,35.91,21c-.06.25-.12.54-.18.88-2.38,13.73,7.76,29.3,21.69,29.81l2.84.11c12.85.47,24-12.54,24.4-25.39a30.9,30.9,0,0,0,0-3.48C83.36,9.67,71.6,1.33,62.22.6Z"/><path class="cls-6" d="M51.68,28.74c.73,1.21,3.78,3.72,4.94,4.8a3.36,3.36,0,0,0,2.24,1A3.76,3.76,0,0,0,61,33.8c1.66-1.15,4.35-3,5.35-4.46l1.47-1.79c-1.67,2.42-5.13,4-8.64,4s-6.92-1.7-8.51-4.15"/><path class="cls-7" d="M43.15,22.54a16.23,16.23,0,0,1,3.43-2A7.27,7.27,0,0,1,48.13,20l.28-.07.15,0,.14,0a10.73,10.73,0,0,1,2.39-.11c1.64.12,2.58.17,4,.32a7.33,7.33,0,0,0-4-1.43,11.17,11.17,0,0,0-2.64.11l-.15,0a.8.8,0,0,0-.17,0l-.32.07a8.07,8.07,0,0,0-1.76.58A5.53,5.53,0,0,0,43.15,22.54Z"/><path class="cls-7" d="M62.84,20.36a22.93,22.93,0,0,1,4-.1,15.67,15.67,0,0,1,1.67.14l.48.07.44.09a13.53,13.53,0,0,1,2.33.69,15.08,15.08,0,0,1,3.49,1.9,5.33,5.33,0,0,0-3.06-2.93,13.84,13.84,0,0,0-2.54-.76l-.47-.09-.51-.08a13.4,13.4,0,0,0-1.81-.14A6,6,0,0,0,62.84,20.36Z"/><path class="cls-7" d="M50.66,27.38a4.38,4.38,0,0,0,1.54,2.14,7.53,7.53,0,0,0,.92.65,12.15,12.15,0,0,0,6.08,1.71h.62a11.55,11.55,0,0,0,1.51-.17,11.73,11.73,0,0,0,3.5-1.17,10.36,10.36,0,0,0,1.39-.87,4.45,4.45,0,0,0,1.59-2.11c-.71.59-1.19.92-2,1.55a9.38,9.38,0,0,1-1.3.81A11.58,11.58,0,0,1,61.21,31a11.79,11.79,0,0,1-1.42.16H59.2a10.85,10.85,0,0,1-2.31-.26,11.1,11.1,0,0,1-3.4-1.35,8.58,8.58,0,0,1-.87-.6C51.82,28.33,51.35,28,50.66,27.38Z"/><path class="cls-7" d="M51.68,28.74a5.28,5.28,0,0,0,1.49,2.15l.8.75L56.57,34a3.89,3.89,0,0,0,1.47.85,2.71,2.71,0,0,0,.73.11,3.21,3.21,0,0,0,.62,0,4,4,0,0,0,1.37-.53c.94-.61,2-1.36,2.73-1.92s1.06-.83,1.26-1a5.19,5.19,0,0,0,1.59-2.09c-.72.58-1.23.87-2,1.56-.2.17-.58.48-1.23,1s-1.8,1.33-2.66,1.88a2.82,2.82,0,0,1-1.62.48,2.1,2.1,0,0,1-.55-.1,3.16,3.16,0,0,1-1.21-.7l-2.59-2.31-.79-.73C52.88,29.65,52.36,29.34,51.68,28.74Z"/></symbol></defs><g id="SEA_1"><use width="140.37" height="140.61" transform="translate(82.09 154.52)" xlink:href="#Aquatic_female_body_14"/><use width="73.02" height="61.24" transform="translate(115.85 52.17)" xlink:href="#Aquatic_female_hair_2"/><use width="118.56" height="178.94" transform="translate(93.22 56.5)" xlink:href="#Aquatic_Female_body2"/></g></svg>