<svg xmlns="http://www.w3.org/2000/svg" xmlns:xlink="http://www.w3.org/1999/xlink" viewBox="0 0 300 300"><defs><style>.cls-1{fill:url(#radial-gradient);}.cls-2{fill:url(#radial-gradient-2);}.cls-3{fill:#e0e0e0;}.cls-4{fill:#f87bff;stroke-width:0.7px;}.cls-10,.cls-11,.cls-12,.cls-13,.cls-14,.cls-15,.cls-16,.cls-17,.cls-18,.cls-19,.cls-20,.cls-21,.cls-22,.cls-23,.cls-24,.cls-25,.cls-4,.cls-5,.cls-8,.cls-9{stroke:#dbdbdb;stroke-miterlimit:10;}.cls-19,.cls-20,.cls-21,.cls-22,.cls-23,.cls-24,.cls-25,.cls-5,.cls-8,.cls-9{stroke-width:1.05px;}.cls-5{fill:url(#radial-gradient-3);}.cls-6{fill:#fff;}.cls-7{fill:#202020;}.cls-8{fill:url(#radial-gradient-4);}.cls-9{fill:url(#radial-gradient-5);}.cls-10,.cls-11,.cls-13,.cls-14,.cls-15,.cls-16,.cls-17{stroke-width:0.77px;}.cls-10{fill:url(#radial-gradient-6);}.cls-11{fill:url(#radial-gradient-7);}.cls-12{stroke-width:0.67px;fill:url(#radial-gradient-8);}.cls-13{fill:url(#radial-gradient-9);}.cls-14{fill:url(#radial-gradient-10);}.cls-15{fill:url(#radial-gradient-11);}.cls-16{fill:url(#radial-gradient-12);}.cls-17{fill:url(#radial-gradient-13);}.cls-18{stroke-width:0.81px;fill:url(#radial-gradient-14);}.cls-19{fill:url(#radial-gradient-15);}.cls-20{fill:url(#radial-gradient-16);}.cls-21{fill:url(#radial-gradient-17);}.cls-22{fill:url(#radial-gradient-18);}.cls-23{fill:url(#radial-gradient-19);}.cls-24{fill:url(#radial-gradient-20);}.cls-25{fill:url(#radial-gradient-21);}</style><radialGradient id="radial-gradient" cx="59.06" cy="58.08" fx="68.4084767524565" r="17.05" gradientTransform="translate(0 -6.01)" gradientUnits="userSpaceOnUse"><stop offset="0.11" stop-color="#3d8eff"/><stop offset="0.16" stop-color="#459aff"/><stop offset="0.24" stop-color="#59b9ff"/><stop offset="0.36" stop-color="#7bebff"/><stop offset="0.38" stop-color="#81f4ff"/></radialGradient><radialGradient id="radial-gradient-2" cx="61.55" cy="118.61" fx="157.32463258174812" fy="181.79080560020424" r="114.74" gradientTransform="translate(0 -6.01)" gradientUnits="userSpaceOnUse"><stop offset="0.31" stop-color="#ff30ff"/><stop offset="0.33" stop-color="#f73cff"/><stop offset="0.39" stop-color="#e45bff"/><stop offset="0.45" stop-color="#c38dff"/><stop offset="0.54" stop-color="#97d2ff"/><stop offset="0.57" stop-color="#81f4ff"/></radialGradient><radialGradient id="radial-gradient-3" cx="59.93" cy="25.86" r="27.02" gradientTransform="translate(0 -6.01)" gradientUnits="userSpaceOnUse"><stop offset="0.75" stop-color="#81f4ff"/><stop offset="1" stop-color="#3d8eff"/></radialGradient><radialGradient id="radial-gradient-4" cx="24.26" cy="23.82" fx="47.93535559680953" fy="-2.938449646459972" r="46.11" gradientTransform="translate(0 -5.99)" gradientUnits="userSpaceOnUse"><stop offset="0.26" stop-color="#81f4ff"/><stop offset="0.57" stop-color="#3d8eff"/></radialGradient><radialGradient id="radial-gradient-5" cx="149.73" cy="36.11" fx="119.25972415835875" fy="56.38047856825893" r="45.02" gradientTransform="translate(0 -5.99)" gradientUnits="userSpaceOnUse"><stop offset="0.64" stop-color="#81f4ff"/><stop offset="0.94" stop-color="#3d8eff"/></radialGradient><radialGradient id="radial-gradient-6" cx="127.4" cy="44.62" fx="76.1324921323129" fy="78.71967155381714" r="75.75" xlink:href="#radial-gradient-5"/><radialGradient id="radial-gradient-7" cx="126.77" cy="65.11" fx="71.60801743930367" fy="101.79983971339045" r="81.49" xlink:href="#radial-gradient-5"/><radialGradient id="radial-gradient-8" cx="-2811.15" cy="-417.35" fx="-2866.7775685943334" fy="-380.3468487757271" r="82.19" gradientTransform="matrix(0.79, -0.01, -0.01, 0.94, 2289.78, 482.88)" xlink:href="#radial-gradient-5"/><radialGradient id="radial-gradient-9" cx="55.19" cy="29.01" fx="77.90827891402833" fy="3.327762702463005" r="44.25" xlink:href="#radial-gradient-4"/><radialGradient id="radial-gradient-10" cx="46.47" cy="39.2" fx="72.3897025316374" fy="9.891615280157772" r="50.49" xlink:href="#radial-gradient-4"/><radialGradient id="radial-gradient-11" cx="42.34" cy="59.7" fx="74.26626288519839" fy="23.605347756055203" r="62.19" xlink:href="#radial-gradient-4"/><radialGradient id="radial-gradient-12" cx="91.42" cy="118.7" fx="45.18098012893799" fy="149.44672166293867" r="68.3" xlink:href="#radial-gradient-5"/><radialGradient id="radial-gradient-13" cx="110.62" cy="98.35" fx="56.29039341399084" fy="134.48311898930928" r="80.26" xlink:href="#radial-gradient-5"/><radialGradient id="radial-gradient-14" cx="25.21" cy="230.22" fx="67.89705831247922" fy="181.9715917002714" r="83.14" gradientTransform="matrix(1.01, -0.03, -0.03, 1.09, 23.52, -170.34)" xlink:href="#radial-gradient-4"/><radialGradient id="radial-gradient-15" cx="43.7" cy="89.38" fx="82.82287020362784" fy="45.15142574789838" r="76.21" gradientTransform="translate(0 -5.98)" xlink:href="#radial-gradient-4"/><radialGradient id="radial-gradient-16" cx="77.13" cy="78.56" fx="149.75008936679984" fy="24.510563701104594" r="90.52" gradientTransform="translate(0 -5.98)" gradientUnits="userSpaceOnUse"><stop offset="0.1" stop-color="#81f4ff"/><stop offset="0.38" stop-color="#3d8eff"/></radialGradient><radialGradient id="radial-gradient-17" cx="45.88" cy="35.03" fx="95.5424940683034" fy="45.798856696420685" r="61.12" gradientTransform="translate(0 -5.98)" gradientUnits="userSpaceOnUse"><stop offset="0.42" stop-color="#81f4ff"/><stop offset="0.69" stop-color="#3d8eff"/></radialGradient><radialGradient id="radial-gradient-18" cx="144.69" cy="106.12" fx="90.19360104631457" fy="142.36608545471287" r="80.5" gradientTransform="translate(0 -5.98)" xlink:href="#radial-gradient-5"/><radialGradient id="radial-gradient-19" cx="138.89" cy="53.71" fx="122.645341429622" fy="119.13665656415863" r="84.32" gradientTransform="translate(0 -5.98)" gradientUnits="userSpaceOnUse"><stop offset="0.59" stop-color="#81f4ff"/><stop offset="0.82" stop-color="#3d8eff"/></radialGradient><radialGradient id="radial-gradient-20" cx="91.27" cy="65.66" fx="193.67850788896567" fy="128.75794106375074" r="128.09" gradientTransform="translate(0 -5.98)" gradientUnits="userSpaceOnUse"><stop offset="0.33" stop-color="#81f4ff"/><stop offset="0.46" stop-color="#3d8eff"/></radialGradient><radialGradient id="radial-gradient-21" cx="68.67" cy="59" fx="125.38766403856539" fy="93.9431611950724" r="70.94" gradientTransform="translate(0 -5.98)" gradientUnits="userSpaceOnUse"><stop offset="0.23" stop-color="#81f4ff"/><stop offset="0.45" stop-color="#3d8eff"/></radialGradient><symbol id="Aquatic_female_hair_3" data-name="Aquatic_female_hair_3" viewBox="0 0 138.16 102"><path class="cls-19" d="M52.78,85.5c-4.45,8.52-9.33,15.72-22.84,16-6,.11-13.92-2.22-17.6-6.72-2.63-3.22-3.25-7.52-3.26-11.58,0-2.91.28-5.94,1.91-8.4s5-4.31,7.83-3.15c6.09,2.53,1.41,9.3,1.41,9.3-2.2,4.64.28,8.44,5.52,9.55S36.5,89,40,85.09s5.35-8.78,7-13.61,3.22-9.8,6.28-14"/><path class="cls-20" d="M58.34,54.48c-7.09,1.59-12,10.2-19.23,9.19-3.56-.5-6.33-3.35-8.29-6.37s-3.42-6.4-5.89-9A15.88,15.88,0,0,0,4.48,46.64c-2.13,1.63-3.89,4-3.95,6.69s2.08,5.46,4.76,5.37c2.34-.08,4.13-2.11,6.36-2.83,3.87-1.26,7.89,1.73,10.12,5.15S25.3,68.5,28.2,71.37a13,13,0,0,0,17.23.38"/><path class="cls-21" d="M62.69,53.57c-1.45.57-5.48-1.23-8.37-4.85-2.25-2.81-2-8.45-2.2-12S51.93,29.41,50.73,26A15.85,15.85,0,0,0,37.59,15.77c-2.69-.26-5.94.61-6.76,3.18-.75,2.31.92,4.73,2.86,6.18s4.29,2.44,5.87,4.28c2.22,2.57,2.49,6.28,2.24,9.66s-.94,6.82-.22,10.14,5.07,7.67,8.46,9.41"/><path class="cls-22" d="M86.62,84.89c4.45,8.51,9.33,15.72,22.84,16,6,.11,13.92-2.21,17.6-6.72,2.63-3.22,3.24-7.51,3.26-11.58,0-2.9-.29-5.93-1.92-8.39s-5-4.32-7.82-3.15c-6.09,2.52-1.41,9.3-1.41,9.3,2.2,4.64-.28,8.43-5.52,9.54s-10.75-1.51-14.24-5.37-5.35-8.78-7-13.62-3.22-9.8-6.28-14"/><path class="cls-23" d="M79.82,56c7.08,1.59,12,10.2,19.23,9.19,3.56-.49,6.33-3.35,8.28-6.37s3.43-6.4,5.9-9a15.86,15.86,0,0,1,20.44-1.64c2.13,1.62,3.89,4,4,6.69s-2.09,5.45-4.77,5.36c-2.33-.08-4.12-2.11-6.35-2.83-3.88-1.26-7.9,1.73-10.12,5.15s-3.54,7.48-6.44,10.35a13,13,0,0,1-17.22.38"/><path class="cls-24" d="M75.34,52.2a7.79,7.79,0,0,0,8.84-2.14c2.32-2.75,2.63-7.83,3.1-11.39s.75-7.24,2.21-10.53a15.86,15.86,0,0,1,13.9-9.2c2.69-.05,5.87,1.07,6.49,3.69.56,2.36-1.28,4.65-3.33,5.95s-4.46,2.09-6.19,3.8c-2.4,2.4-3,6.07-3,9.47s.4,6.87-.57,10.12-5.64,7.26-9.16,8.73"/><path class="cls-25" d="M61.23,51.07c2.53-1.82,3.71-5.4,3.79-8.8s-.77-6.73-1.47-10c-1.79-8.45-2.59-17.78,1-25.46a12.26,12.26,0,0,1,4.18-5.26,5.51,5.51,0,0,1,6-.15c3.07,2.12,3.15,7.24,1.91,11.07S73.23,19.8,73,23.88c-.37,5.35,2.64,10.19,3.64,15.43a20.94,20.94,0,0,1-2,13.49"/></symbol><symbol id="Aquatic_female_body_11" data-name="Aquatic_female_body_11" viewBox="0 0 142.22 125.52"><path class="cls-8" d="M24.57,6.34c-10.65,5.55-20.7,14.78-23,18.51A5.4,5.4,0,0,0,.55,28.2a2.85,2.85,0,0,0,2.76,2.25c6.23.41,8.06-13.46,27.52-22"/><path class="cls-9" d="M128.55,12.82c3.88,2.94,10.71,10.68,12.43,14.67a5.85,5.85,0,0,1,.63,3.52,2.87,2.87,0,0,1-2.78,2.17C133,33.24,133.18,18.61,117,8.65"/><path class="cls-10" d="M82,21.1c-2,7-3.5,11.61-.08,11.89a6.27,6.27,0,0,0,4.87-1.68,31.66,31.66,0,0,0,3.27-4.26,22.4,22.4,0,0,1,17.13-8.94,8.14,8.14,0,0,1,4.69,1,3.71,3.71,0,0,1,1.7,4.16,4.2,4.2,0,0,1-3.3,2.36c-1.4.26-2.83.13-4.24.29-4.38.49-7.21,1.44-10.51,4.36s-8.08,9.15-12.48,9.28c0,0-8.19,1.85-9.66-2.3s-1.54-16.67-1.54-16.67L83.43,1.06A46.72,46.72,0,0,1,82,21.1Z"/><path class="cls-11" d="M69.44,34c-2.6,10.65,2.66,13.14,6,13.82,5.46,1.11,11.68-1.52,17.28-1.39a12.21,12.21,0,0,1,10.71,6.93c1,2.14,1.59,4.91,3.92,5.54a4.1,4.1,0,0,0,4.26-1.83,6.89,6.89,0,0,0,.88-4.62c-.59-5.18-4.64-9.54-9.56-11.64s-10.57-2.24-16-1.45c-1.89.28-8.71,2.18-10.62-3.94s4.55-17.66,4.55-17.66L73.1,8.06Z"/><path class="cls-12" d="M43.66,66c-.35,13.56,10.69,21.88,12.9,25.93s4.49,14.07-5.94,21c-2.88,1.92-5.56,6.5-3.92,9.73a4.92,4.92,0,0,0,4.5,2.55c4.77.07,8.58-4.56,11.73-9.31,6.82-10.27,5.3-22.07-1.53-30.79C47.61,67.48,50,57,54.25,49.76c7.5-12.68,2.63-18.95,2.63-18.95S44.14,47,43.66,66Z"/><path class="cls-13" d="M61.68,21.89c.63,1-3.89,5.37-5.06,5.54a3.3,3.3,0,0,1-3-1.54,16.11,16.11,0,0,1-1.5-3.2,16.57,16.57,0,0,0-17.45-9.58c-1.29.21-2.75.77-3.1,2a2.64,2.64,0,0,0,1.14,2.68,7.64,7.64,0,0,0,2.87,1.09c4.17,1,8.75,2.1,11.2,5.61,1.55,2.21,1.49,6,3.09,8.14,1.91,2.59,4.5,3.13,6.55,1.63"/><path class="cls-14" d="M50,44.38c-3,1.09-5.25-.52-6.63-1.8S41,39.66,39.72,38.29a13.64,13.64,0,0,0-15.24-3,35.76,35.76,0,0,1-3.91,1.85,4.35,4.35,0,0,1-4.1-.53c-1.92-1.67-.94-4.89.72-6.82A15.94,15.94,0,0,1,31,24.7a20.4,20.4,0,0,1,13,7.32c1.15,1.38,2.57,2.48,3.64,3.92,1.27,1.69,4.25,2.05,7.48-1.51Z"/><path class="cls-15" d="M52.62,40.54c-.83,6.85-8.19,11.63-14.82,6.08-4.86-4-12.18-4.36-18.21-2.44A21.81,21.81,0,0,0,6.15,56.71a10.76,10.76,0,0,0-.84,5.85A5.38,5.38,0,0,0,9,66.85c2.44.58,4.87-1.12,6.33-3.16s2.33-4.45,3.89-6.41a11.58,11.58,0,0,1,12.4-3.68c2.15.71,4,2,6.1,2.93S45,60.36,49.18,53.75"/><path class="cls-16" d="M67.35,33.53c-7,7.43-4.9,20.42-2.16,23.63,4,4.68,8,9.3,11.28,14.54S82,82.9,82.16,89.11s-2.2,12.72-7,16.76S63.07,110.94,58,107.55c-2.19-1.46-4-4.35-2.71-6.73.9-1.71,3-2.4,4.91-2.49s3.83.25,5.7-.14c4.76-1,7.6-6.54,7.07-11.38a20.24,20.24,0,0,0-6.87-12.46c-10.23-9.18-13.59-15.64-12-24.78"/><path class="cls-17" d="M63.25,40.92c-4.79,9.09,2.3,17.81,8.89,21,3.42,1.64,7.32,2.14,10.77,3.73s6.55,4.94,5.86,8.53c-.52,2.74-3,4.65-4.74,6.9s-2.35,6,.15,7.41c1.57.9,3.59.38,5.21-.41a16.49,16.49,0,0,0,9.09-12.36A16.24,16.24,0,0,0,93,61.47c-3.08-2.64-7-4.11-10.81-5.72s-19.45-4-5.79-27.36A102,102,0,0,0,82,13.5c2.24-7.2-12.11.17-12.11.17Z"/><path class="cls-18" d="M49.16,45.42c-5.14,19.14-17.26,18.4-22.1,20s-9.79,3.49-13.49,7.28A20.1,20.1,0,0,0,8,87.58a17.22,17.22,0,0,0,7.25,13.2c1.93,1.3,4.63,2.06,6.53.48s1.93-4.94,1-7.33S20.33,89.4,20,86.79c-.48-4.13,2.41-8.19,5.84-10.44s7.38-3.16,11.13-4.6S48.48,69,51.81,55.88Z"/></symbol><symbol id="Aquatic_Female_body2" data-name="Aquatic_Female_body2" viewBox="0 0 118.56 178.94"><path class="cls-1" d="M49.83,62.44c3.85-.81,5.11-2.62,5.73-4.83s.84-5-.86-6.54l4.18-9.62,3.74,10.43A9,9,0,0,0,62.71,59c1,2,3.14,2.84,5.4,2.81L73,63S75.9,77.65,60.66,77.86C38.81,78.16,49.83,62.44,49.83,62.44Z"/><path class="cls-2" d="M91,90.55c11,2.92,19.47,8.27,27.53,16.3l-3.37-1.26C107.9,101,99,99.85,88.53,99.38a3.47,3.47,0,0,1-3-2.08c-1.91-4.42-6.5-15.14-8.87-21.62,0,0-.92-3.05-.63.49,1.15,14-1.77,23.89-7.44,34.1-4.05,7.3-8.9,10.81-14.34,17.16s-10.68,13.12-13.32,21c-1.89,5.67,0,13.34,2.94,20,1.18,2.67,1.34,4.11,4.81,8.16-1.05.1-4.42-4.3-4.42-4.3a44.32,44.32,0,0,1-9-28.16A48.51,48.51,0,0,1,45.54,115c2.34-3,5.15-5.92,5.64-9.67.55-4.15-1.87-8-3.73-11.76a39.85,39.85,0,0,1-4.61-17.54c-.05-2.31-.89-.38-.89-.38-2.37,6.48-7,17.2-8.88,21.62a3.46,3.46,0,0,1-3,2.08c-10.44.47-19.37,1.63-26.67,6.21L0,106.85c8.06-8,16.53-13.38,27.53-16.3a1.49,1.49,0,0,0,1-.81c2.84-7.53,5.95-15.82,9.83-23.19a12.16,12.16,0,0,1,3.7-4.26c1.51-1,3.75-1.23,5.07,0,0,0-3.81,6.39,4.75,6.61,1.8,0,15.43-.67,17.37-.67,4.91,0,2.18-5.94,2.18-5.94,1.32-1.27,3.55-1.07,5.06,0a12.08,12.08,0,0,1,3.71,4.26c4,7.53,7.12,16,10,23.67C90.39,90.71,91,90.55,91,90.55Z"/><path class="cls-3" d="M54.7,51.07a4.5,4.5,0,0,1,.64,1.76,10.05,10.05,0,0,1,.11,2,9.3,9.3,0,0,1-.2,1.64c-.06.34-.28,1.15-.28,1.15a9.3,9.3,0,0,1-.36,1,4.83,4.83,0,0,1-1.38,1.8,20.69,20.69,0,0,1-3.4,2,5.65,5.65,0,0,0,5.8-3.37A10.44,10.44,0,0,0,56,57.93s.25-.87.31-1.25a10.83,10.83,0,0,0,.22-1.82A3.94,3.94,0,0,0,54.7,51.07Z"/><path class="cls-3" d="M62.62,51.88a6,6,0,0,0-1.24,4.06,9.07,9.07,0,0,0,.29,1.84c0,.2.2.67.2.67a5.34,5.34,0,0,0,.24.6,4.89,4.89,0,0,0,1.76,2.19,4.5,4.5,0,0,0,2.2.8,6,6,0,0,0,2-.2,14.4,14.4,0,0,1-1.85-.6,8.18,8.18,0,0,1-1.75-.91,3.86,3.86,0,0,1-1.37-1.73c-.09-.18-.21-.52-.21-.52s-.14-.41-.18-.59a7.9,7.9,0,0,1-.25-1.61A21.9,21.9,0,0,1,62.62,51.88Z"/><path class="cls-4" d="M55.17,68.64s-3.47,2.85-7.12,1-2.72-8.32,2.81-8.77C48,63,48.23,66.4,49.36,67.57s4-3.21,6.09-1.81c3.59,2.36,5.23.87,7.5,0s5,3,6.1,1.81,1.38-4.58-1.51-6.73c5.54.45,6.48,6.88,2.82,8.77s-7.13-1-7.13-1h0a5.38,5.38,0,0,1-7.9.17Z"/><path class="cls-3" d="M43.23,68.78a12,12,0,0,0-.9,4.08c0,.23,0,.58,0,1v.71c0,.32,0,.64,0,1l0,1.12c0,.76.08,1.54.16,2.33a38.47,38.47,0,0,0,2.34,9.93c.63,1.67,1.37,3.33,2.16,5s1.67,3.18,2.37,4.77a14.69,14.69,0,0,1,1.34,4.83,8.91,8.91,0,0,1-.88,4.56c-1.32,2.78-3.4,4.91-4.91,6.93a46.33,46.33,0,0,0-3.39,5c-.73,1.25-1.1,2-1.1,2l-.27.52c-.19.34-.44.85-.74,1.51a48.09,48.09,0,0,0-2.24,5.62,49.89,49.89,0,0,0-2,8.5A48.24,48.24,0,0,0,36.85,159,49.5,49.5,0,0,0,38.64,164c.35.78.68,1.55,1.06,2.29l.55,1.1c.18.33.35.66.53,1,.53,1,1.06,1.8,1.29,2.21a12.61,12.61,0,0,0,1.32,1.75,19.84,19.84,0,0,0,1.47,1.36,18.64,18.64,0,0,0-.8-1.82,15.55,15.55,0,0,0-1-1.88c-.23-.4-.73-1.17-1.26-2.16-.17-.32-.34-.64-.52-1l-.53-1.07c-.37-.72-.69-1.48-1-2.24a47.35,47.35,0,0,1-1.76-4.82,47.88,47.88,0,0,1-2-10.36,47,47,0,0,1,.31-10.07A49.56,49.56,0,0,1,38.2,130a46.2,46.2,0,0,1,2.19-5.49c.29-.64.54-1.14.72-1.47l.26-.51s.36-.71,1.08-1.93a46.12,46.12,0,0,1,3.31-4.89c1.47-2,3.6-4.11,5.05-7.14a10.18,10.18,0,0,0,1-5.11,15.8,15.8,0,0,0-1.43-5.2c-.73-1.66-1.6-3.24-2.39-4.83s-1.5-3.2-2.12-4.83a37.21,37.21,0,0,1-2.27-9.65c-.08-.77-.12-1.53-.16-2.26l0-1.09c0-.32,0-.63,0-.94v-.7c0-.43,0-.77,0-1A20.24,20.24,0,0,0,43.23,68.78Z"/><path class="cls-3" d="M74.86,67.64a17.11,17.11,0,0,0,.07,4.15c0,.23.07.57.12,1,0,.21.06.44.09.7s.08.69.12,1.05.07.81.11,1.23c.06.83.16,1.68.18,2.55a58.5,58.5,0,0,1-.38,11.2A52,52,0,0,1,72.28,101a71.82,71.82,0,0,1-4.94,10.22,46.36,46.36,0,0,1-5.84,7.58l-4.64,4.85-1.71,1.86s-.62.67-1.67,1.9-2.54,3-4.26,5.22a68.68,68.68,0,0,0-5.47,8.1,47.11,47.11,0,0,0-2.47,5.09,29.48,29.48,0,0,0-1,2.78c-.12.49-.28,1-.38,1.48l-.24,1.52a29.52,29.52,0,0,0,1.68,12,45.75,45.75,0,0,0,2.25,5.45c.43.86.88,1.69,1.32,2.51l.7,1.19.34.58.31.48c.63,1,1.14,1.75,1.43,2.12a12,12,0,0,0,2.95,3,21.07,21.07,0,0,0-2-3.6c-.28-.36-.78-1.14-1.39-2.08l-.3-.47-.34-.57-.68-1.16c-.43-.8-.87-1.61-1.29-2.45a44.77,44.77,0,0,1-2.19-5.31,28.26,28.26,0,0,1-1.63-11.57,19.83,19.83,0,0,1,1.55-5.48,44.61,44.61,0,0,1,2.42-4.95,67.56,67.56,0,0,1,5.37-8c1.71-2.2,3.19-4,4.23-5.18S56,126.26,56,126.26l1.69-1.83,4.65-4.86a47.75,47.75,0,0,0,6-7.76,72.75,72.75,0,0,0,5-10.4,53.19,53.19,0,0,0,3-11.74,60.77,60.77,0,0,0,.38-11.41c0-.89-.12-1.75-.18-2.59,0-.42-.08-.84-.11-1.25s-.09-.71-.13-1.06-.06-.49-.08-.71c-.06-.43-.1-.78-.13-1A14,14,0,0,0,74.86,67.64Z"/><path class="cls-3" d="M47.13,62.33a3,3,0,0,0-1.67-1.24,4.07,4.07,0,0,0-2.38.08,5.39,5.39,0,0,0-1.69.91A12.49,12.49,0,0,0,38.67,65a14.77,14.77,0,0,0-1.15,2c-.35.67-.69,1.34-1,2-1.27,2.6-2.21,4.79-2.21,4.79s-.81,1.83-1.78,4.18-2.09,5.24-2.88,7.3l-.9,2.39a14.89,14.89,0,0,0-.93,4,14.91,14.91,0,0,0,2-3.66c.16-.39.44-1.15.91-2.38.79-2.05,1.9-4.93,2.87-7.27s1.76-4.16,1.76-4.16.94-2.17,2.2-4.74c.32-.65.65-1.31,1-2a14.51,14.51,0,0,1,1.07-1.87A11.56,11.56,0,0,1,42.07,63a4.4,4.4,0,0,1,1.37-.74,6.12,6.12,0,0,1,1.89-.33A3.49,3.49,0,0,1,47.13,62.33Z"/><path class="cls-3" d="M27.53,90.55a12.86,12.86,0,0,0-4.13.66l-1.66.59a59.53,59.53,0,0,0-5.86,2.56c-2,1-3.56,2-3.56,2l-.86.54c-.54.32-1.27.81-2.09,1.36-1.62,1.12-3.52,2.57-4.82,3.68-1,.85-1.61,1.4-1.93,1.68A13,13,0,0,0,0,106.85a17.77,17.77,0,0,0,3.36-2.42c.32-.27.92-.81,1.91-1.65,1.28-1.09,3.15-2.52,4.74-3.62.8-.54,1.51-1,2-1.34l.85-.53s1.54-.93,3.49-1.93a61,61,0,0,1,5.74-2.51l1.63-.58A18.75,18.75,0,0,0,27.53,90.55Z"/><path class="cls-3" d="M42,75.68a16.37,16.37,0,0,0-2,3.65c-.24.61-.73,1.83-1.33,3.32-1,2.47-2.21,5.37-3.38,8.14-.59,1.38-1.16,2.74-1.7,4-.27.62-.52,1.22-.77,1.78A3.84,3.84,0,0,1,32,97.89a3,3,0,0,1-1.87.92l-.92,0s-1.37.06-3.49.21-5,.4-8,.89a47.08,47.08,0,0,0-8.61,2.2c-1.08.41-1.95.77-2.37,1a10.6,10.6,0,0,0-3.41,2.45,28,28,0,0,0,3.87-1.43c.41-.2,1.25-.55,2.3-1a46.83,46.83,0,0,1,8.4-2.14c2.95-.48,5.79-.74,7.9-.89s3.47-.2,3.47-.2l1-.06a4.07,4.07,0,0,0,2.59-1.27,5.13,5.13,0,0,0,1-1.64c.25-.57.5-1.17.77-1.79.54-1.25,1.11-2.61,1.7-4,1.18-2.77,2.39-5.68,3.39-8.16.6-1.49,1.09-2.72,1.33-3.33A14.32,14.32,0,0,0,42,75.68Z"/><path class="cls-3" d="M71.43,62.33a3.47,3.47,0,0,1,1.8-.43,6.12,6.12,0,0,1,1.89.33,4.4,4.4,0,0,1,1.37.74A11.32,11.32,0,0,1,79,65.6,13.46,13.46,0,0,1,80,67.47c.35.67.68,1.33,1,2,1.26,2.57,2.2,4.74,2.2,4.74S84,76,85,78.35s2.08,5.22,2.87,7.27c.46,1.23.75,2,.9,2.38a15.27,15.27,0,0,0,2,3.66,14.89,14.89,0,0,0-.93-4l-.9-2.39c-.79-2.06-1.91-5-2.88-7.3s-1.78-4.18-1.78-4.18S83.32,71.55,82,69c-.31-.65-.65-1.32-1-2a14.77,14.77,0,0,0-1.15-2,12.3,12.3,0,0,0-2.73-2.88,5.28,5.28,0,0,0-1.68-.91,4.07,4.07,0,0,0-2.38-.08A3,3,0,0,0,71.43,62.33Z"/><path class="cls-3" d="M91,90.55a18.5,18.5,0,0,0,3.77,1.72l1.62.58a60,60,0,0,1,5.75,2.51c2,1,3.49,1.93,3.49,1.93l.85.53c.53.32,1.24.8,2,1.34,1.59,1.1,3.46,2.53,4.73,3.62,1,.84,1.6,1.38,1.92,1.65a17.45,17.45,0,0,0,3.36,2.42,13.27,13.27,0,0,0-2.62-3.25c-.32-.28-.92-.83-1.93-1.68-1.3-1.11-3.21-2.56-4.83-3.68-.81-.55-1.54-1-2.08-1.36l-.86-.54s-1.58-1-3.56-2a59.59,59.59,0,0,0-5.87-2.56l-1.66-.59A12.76,12.76,0,0,0,91,90.55Z"/><path class="cls-3" d="M76.61,75.68a14,14,0,0,0,1,4.06c.24.61.73,1.84,1.33,3.33,1,2.48,2.21,5.39,3.38,8.16l1.7,4L84.75,97a5.13,5.13,0,0,0,1,1.64,4.07,4.07,0,0,0,2.58,1.27l1,.06s1.36,0,3.47.2,5,.41,7.9.89a46.83,46.83,0,0,1,8.4,2.14c1,.4,1.89.75,2.3,1a27.94,27.94,0,0,0,3.86,1.43,10.44,10.44,0,0,0-3.4-2.45c-.42-.21-1.29-.57-2.37-1a47.08,47.08,0,0,0-8.61-2.2c-3-.49-5.88-.75-8-.89s-3.5-.21-3.5-.21l-.92,0a3,3,0,0,1-1.87-.92,4.2,4.2,0,0,1-.75-1.33c-.24-.56-.5-1.16-.76-1.78-.54-1.25-1.11-2.61-1.7-4-1.17-2.77-2.38-5.67-3.38-8.14-.6-1.49-1.09-2.71-1.33-3.32A16.37,16.37,0,0,0,76.61,75.68Z"/><path class="cls-5" d="M60,.53C50.67,1.15,39.67,5.8,35.91,21c-.06.25-.12.54-.18.88-2.38,13.73,7.76,29.3,21.69,29.81l2.84.11c12.85.47,24-12.54,24.4-25.39a30.9,30.9,0,0,0,0-3.48C83.36,9.67,71.6,1.33,62.22.6Z"/><path class="cls-6" d="M51.68,28.74c.73,1.21,3.78,3.72,4.94,4.8a3.36,3.36,0,0,0,2.24,1A3.76,3.76,0,0,0,61,33.8c1.66-1.15,4.35-3,5.35-4.46l1.47-1.79c-1.67,2.42-5.13,4-8.64,4s-6.92-1.7-8.51-4.15"/><path class="cls-7" d="M43.15,22.54a16.23,16.23,0,0,1,3.43-2A7.27,7.27,0,0,1,48.13,20l.28-.07.15,0,.14,0a10.73,10.73,0,0,1,2.39-.11c1.64.12,2.58.17,4,.32a7.33,7.33,0,0,0-4-1.43,11.17,11.17,0,0,0-2.64.11l-.15,0a.8.8,0,0,0-.17,0l-.32.07a8.07,8.07,0,0,0-1.76.58A5.53,5.53,0,0,0,43.15,22.54Z"/><path class="cls-7" d="M62.84,20.36a22.93,22.93,0,0,1,4-.1,15.67,15.67,0,0,1,1.67.14l.48.07.44.09a13.53,13.53,0,0,1,2.33.69,15.08,15.08,0,0,1,3.49,1.9,5.33,5.33,0,0,0-3.06-2.93,13.84,13.84,0,0,0-2.54-.76l-.47-.09-.51-.08a13.4,13.4,0,0,0-1.81-.14A6,6,0,0,0,62.84,20.36Z"/><path class="cls-7" d="M50.66,27.38a4.38,4.38,0,0,0,1.54,2.14,7.53,7.53,0,0,0,.92.65,12.15,12.15,0,0,0,6.08,1.71h.62a11.55,11.55,0,0,0,1.51-.17,11.73,11.73,0,0,0,3.5-1.17,10.36,10.36,0,0,0,1.39-.87,4.45,4.45,0,0,0,1.59-2.11c-.71.59-1.19.92-2,1.55a9.38,9.38,0,0,1-1.3.81A11.58,11.58,0,0,1,61.21,31a11.79,11.79,0,0,1-1.42.16H59.2a10.85,10.85,0,0,1-2.31-.26,11.1,11.1,0,0,1-3.4-1.35,8.58,8.58,0,0,1-.87-.6C51.82,28.33,51.35,28,50.66,27.38Z"/><path class="cls-7" d="M51.68,28.74a5.28,5.28,0,0,0,1.49,2.15l.8.75L56.57,34a3.89,3.89,0,0,0,1.47.85,2.71,2.71,0,0,0,.73.11,3.21,3.21,0,0,0,.62,0,4,4,0,0,0,1.37-.53c.94-.61,2-1.36,2.73-1.92s1.06-.83,1.26-1a5.19,5.19,0,0,0,1.59-2.09c-.72.58-1.23.87-2,1.56-.2.17-.58.48-1.23,1s-1.8,1.33-2.66,1.88a2.82,2.82,0,0,1-1.62.48,2.1,2.1,0,0,1-.55-.1,3.16,3.16,0,0,1-1.21-.7l-2.59-2.31-.79-.73C52.88,29.65,52.36,29.34,51.68,28.74Z"/></symbol></defs><g id="SEA_1"><use width="138.15" height="102" transform="translate(84.45 8.05)" xlink:href="#Aquatic_female_hair_3"/><use width="142.22" height="125.52" transform="translate(80.16 147.54)" xlink:href="#Aquatic_female_body_11"/><use width="118.56" height="178.94" transform="translate(93.22 56.5)" xlink:href="#Aquatic_Female_body2"/></g></svg>