<?xml version="1.0" encoding="UTF-8" standalone="no"?>
<svg
   viewBox="0 0 300 300"
   version="1.1"
   id="svg58"
   sodipodi:docname="9.svg"
   inkscape:version="1.2 (dc2aedaf03, 2022-05-15)"
   xmlns:inkscape="http://www.inkscape.org/namespaces/inkscape"
   xmlns:sodipodi="http://sodipodi.sourceforge.net/DTD/sodipodi-0.dtd"
   xmlns="http://www.w3.org/2000/svg"
   xmlns:svg="http://www.w3.org/2000/svg">
  <sodipodi:namedview
     id="namedview60"
     pagecolor="#ffffff"
     bordercolor="#666666"
     borderopacity="1.0"
     inkscape:showpageshadow="2"
     inkscape:pageopacity="0.0"
     inkscape:pagecheckerboard="0"
     inkscape:deskcolor="#d1d1d1"
     showgrid="false"
     inkscape:zoom="3.51"
     inkscape:cx="59.116809"
     inkscape:cy="150"
     inkscape:window-width="1276"
     inkscape:window-height="1568"
     inkscape:window-x="1200"
     inkscape:window-y="174"
     inkscape:window-maximized="1"
     inkscape:current-layer="svg58" />
  <defs
     id="defs27">
    <style
       id="style2">.cls-1{fill:#e0e0e0;}.cls-2{stroke:#dbdbdb;stroke-miterlimit:10;stroke-width:0.9px;fill:url(#New_Gradient_Swatch_5);}.cls-3{fill:#fff;}.cls-4{fill:#202020;}.cls-5{fill:#231f20;}.cls-6{font-size:38.14px;font-family:ArialMT, Arial;}</style>
    <radialGradient
       id="New_Gradient_Swatch_5"
       cx="147.1"
       cy="155.18"
       fx="183.41337990879214"
       fy="178.44105815072396"
       r="115.86"
       gradientTransform="matrix(-0.53, -0.84, 0.82, -0.52, 99.01, 359.7)"
       gradientUnits="userSpaceOnUse">
      <stop
         offset="0.41"
         stop-color="#81f4ff"
         id="stop4" />
      <stop
         offset="0.45"
         stop-color="#71dcff"
         id="stop6" />
      <stop
         offset="0.54"
         stop-color="#55b2ff"
         id="stop8" />
      <stop
         offset="0.61"
         stop-color="#4398ff"
         id="stop10" />
      <stop
         offset="0.65"
         stop-color="#3d8eff"
         id="stop12" />
      <stop
         offset="0.75"
         stop-color="#3d8eff"
         id="stop14" />
      <stop
         offset="0.77"
         stop-color="#478bff"
         id="stop16" />
      <stop
         offset="0.81"
         stop-color="#6284ff"
         id="stop18" />
      <stop
         offset="0.86"
         stop-color="#8e78ff"
         id="stop20" />
      <stop
         offset="0.92"
         stop-color="#cb68ff"
         id="stop22" />
      <stop
         offset="0.94"
         stop-color="#de63ff"
         id="stop24" />
    </radialGradient>
  </defs>
  <g
     id="SEA_2">
    <path
       class="cls-1"
       d="M106.36,87.53c.27-.3.41-.47.39-.5a2.09,2.09,0,0,0-.15-.15,1.93,1.93,0,0,0-.15-.16,2.48,2.48,0,0,0-.51.39,2.62,2.62,0,0,0-.39.5,1.19,1.19,0,0,0,.16.16,2.09,2.09,0,0,0,.15.15S106.06,87.8,106.36,87.53Z"
       id="path29" />
  </g>
  <g
     id="SEA_1">
    <path
       class="cls-2"
       d="M77.59,165.1c-2,2.35-4.18,4.77-7,6s-6.65.88-8.48-1.63a6.76,6.76,0,0,1-.49-6.39,14.82,14.82,0,0,1,4-5.29c3.36-3.09,7.91-5.72,12.32-4.52,3.45.93,5.91,4,7.51,7.2s2.6,6.68,4.48,9.72,5,5.66,8.57,5.62c2.82,0,6.66-2.93,7.05-6.06a3.64,3.64,0,0,0-.63-2.42A55.18,55.18,0,1,1,185.43,170l-.14.34c-.51,1.67,1.37,2.84,3,3.44a6.82,6.82,0,0,0,5.09-.55c6.47-3,9.09-10.68,11-17.55s4.5-14.53,10.92-17.66c4.91-2.4,11.22-.85,14.95,3a11.47,11.47,0,0,1,2.52,4s1.29,4.12.72,6.25a6.51,6.51,0,0,1-4.16,4.66c-4.23,1.33-9.13-2.8-8.54-7.19-4.22,2.66-5.31,8.18-6.53,13-1.77,7-4.83,14.11-10.56,18.57s-15.58,5.44-21,.58c0,0,5.38,9.06,20.87,4.59,7.05-2,12.21-8,18.18-12.29a69.23,69.23,0,0,1,17.62-9.07c3.14-1.08,6.83-1.88,9.59,0,3,2,3.51,6.41,1.86,9.57s-4.94,5.15-8.32,6.27-7,1.53-10.4,2.4c-6.61,1.67-12.63,5-18.78,8s-12.72,5.5-19.54,5.37-14-2.67-16.84-8.89l.21,1c1.81,6.66,8.85,10,15.65,11.19s13.74-.19,20.53-1.45,13.81-2.43,20.52-.83c4,.94,8.12,3.3,9.17,7.27,1.13,4.26-2,8.8-6,10.49s-8.73,1.11-12.93-.22S216,211,211.74,209.76c-9.29-2.61-19.83-.36-28.51-4.58-14.29-7-17.69-16.15-17.69-16.15-.9,4.37,2.72,7.78,5.29,11.43s5.88,6.7,8.54,10.28a36.45,36.45,0,0,1,7.15,22c-.06,4.79-1.24,9.87-4.69,13.21s-9.63,4.08-12.93.6c-3-3.13-2.62-8.14-1.41-12.3s3.08-8.34,2.46-12.63c-.87-6.08-6.35-10.23-11.08-14.15s-8.11-14.65-8.11-14.65c.27,10.35-1.83,15.41-6.87,23.32-.36.72-.72,1.8-1.08,2.52a8.12,8.12,0,0,0,.36,6.47c1.8,3.24,6.84,5,6.48,9.36-.72,5.39-6.48,7.55-11.15,7.55a16.82,16.82,0,0,1-6.12-1.08A15.64,15.64,0,0,1,123,228.72C122,219.37,129.5,212.89,133.1,205c1.44-3.6,4-10.41,2.47-14.22,0,0-9.12,12.12-13.28,19.79-4.05,7.46-14.82,19.86-22.54,24-3.35,1.8-7.36,2.84-11.09,1.65a7.58,7.58,0,0,1-5.12-9.35c1.1-4.56,4.74-8.13,8.35-10.88a133.94,133.94,0,0,1,11.69-7.41c7.35-4.49,16.43-11.45,17.24-20.64a45.47,45.47,0,0,1-42.4,19.3c-4.84-.45-26.17-3.92-21.51-13.38C59.82,187.94,68.6,188,75,189.55s12.65,4.59,19.25,4.27c7.25-.35,18-6,18.07-15.18a17.83,17.83,0,0,1-11,11c-6.1,2.2-16.12,1-19.12-4.7-1.43-2.76-6-14.39-7.75-16.24"
       id="path32" />
    <path
       class="cls-3"
       d="M113.31,150.39a11.56,11.56,0,0,1,7.21-12.24,13.27,13.27,0,0,1,15,3.59,13,13,0,0,1,.62,15.39,12.8,12.8,0,0,1-14.72,4.41c-5.14-2-8.8-6.39-7.91-11.84"
       id="path34" />
    <path
       class="cls-4"
       d="M113.31,150.39c.2-1.15.34-1.89.52-3.18,0-.17.06-.44.13-.76l.13-.52.07-.27.12-.35c.08-.23.15-.47.25-.7a12,12,0,0,1,.69-1.39,11.4,11.4,0,0,1,5-4.46,12.32,12.32,0,0,1,7.09-1,12.9,12.9,0,0,1,6.29,2.73,11.42,11.42,0,0,1,3.4,4.69,12.34,12.34,0,0,1,.87,4,11.82,11.82,0,0,1,0,1.52l0,.4c0,.26-.07.63-.14,1.11a12.34,12.34,0,0,1-1.36,3.81,11.56,11.56,0,0,1-4.07,4.12,12.81,12.81,0,0,1-6.61,1.82,12.6,12.6,0,0,1-6.83-2.18,12.08,12.08,0,0,1-2.66-2.3,9.79,9.79,0,0,1-1.7-2.74,8.64,8.64,0,0,1-.53-1.82c-.2-1.27-.31-2-.45-3.16a5.68,5.68,0,0,0-.42,3.31,9.63,9.63,0,0,0,.58,2l.14.35c0,.13.13.26.19.39a7.44,7.44,0,0,0,.44.78,10.88,10.88,0,0,0,1.08,1.47,12.93,12.93,0,0,0,2.84,2.46,15.7,15.7,0,0,0,3.47,1.69,12.36,12.36,0,0,0,3.84.63,13.61,13.61,0,0,0,7.08-1.95,12.4,12.4,0,0,0,4.38-4.43,13.05,13.05,0,0,0,1.45-4.09c.08-.52.15-.92.16-1.19l0-.43a13.46,13.46,0,0,0,0-1.62,13.05,13.05,0,0,0-.93-4.23,12.47,12.47,0,0,0-1.39-2.6,12.06,12.06,0,0,0-2.27-2.44,13.87,13.87,0,0,0-6.73-2.93,13.13,13.13,0,0,0-7.59,1.09,12.24,12.24,0,0,0-5.43,4.81,12.46,12.46,0,0,0-.75,1.51,6.71,6.71,0,0,0-.27.75l-.13.38-.08.29-.13.57c-.08.34-.11.62-.15.81A6.71,6.71,0,0,0,113.31,150.39Z"
       id="path36" />
    <ellipse
       class="cls-5"
       cx="126.71"
       cy="149.5"
       rx="5.55"
       ry="5.64"
       transform="matrix(0.23, -0.97, 0.97, 0.23, -47.83, 238.62)"
       id="ellipse38" />
    <circle
       class="cls-3"
       cx="123.84"
       cy="146.43"
       r="2.79"
       id="circle40" />
    <path
       class="cls-3"
       d="M150.43,150.39a11.55,11.55,0,0,1,7.21-12.24,13.28,13.28,0,0,1,15,3.59,13,13,0,0,1,.62,15.39,12.81,12.81,0,0,1-14.73,4.41c-5.13-2-8.79-6.39-7.9-11.84"
       id="path42" />
    <path
       class="cls-4"
       d="M150.43,150.39c.2-1.15.33-1.89.51-3.18,0-.17.07-.44.14-.76l.13-.52.07-.27.11-.35a6.61,6.61,0,0,1,.26-.7,12,12,0,0,1,.69-1.39,11.37,11.37,0,0,1,5-4.46,12.32,12.32,0,0,1,7.09-1,12.86,12.86,0,0,1,6.29,2.73,11.36,11.36,0,0,1,3.41,4.69,12.34,12.34,0,0,1,.87,4,14.76,14.76,0,0,1,0,1.52l0,.4c0,.26-.08.63-.15,1.11a12.28,12.28,0,0,1-1.35,3.81,11.64,11.64,0,0,1-4.07,4.12,12.85,12.85,0,0,1-6.62,1.82,13.35,13.35,0,0,1-9.49-4.48,10,10,0,0,1-1.69-2.74,8.06,8.06,0,0,1-.53-1.82c-.2-1.27-.32-2-.45-3.16a5.68,5.68,0,0,0-.42,3.31,8.86,8.86,0,0,0,.57,2l.15.35a3.49,3.49,0,0,0,.19.39,7.37,7.37,0,0,0,.43.78,11.81,11.81,0,0,0,1.08,1.47,13.22,13.22,0,0,0,2.85,2.46,15.49,15.49,0,0,0,3.47,1.69,12.31,12.31,0,0,0,3.84.63,13.57,13.57,0,0,0,7.07-1.95,12.24,12.24,0,0,0,4.38-4.43,13.12,13.12,0,0,0,1.46-4.09c.08-.52.15-.92.16-1.19l0-.43a13.39,13.39,0,0,0-2.32-8.45,12.41,12.41,0,0,0-2.28-2.44,13.84,13.84,0,0,0-6.72-2.93A13.12,13.12,0,0,0,157,138a12.21,12.21,0,0,0-5.44,4.81,12.38,12.38,0,0,0-.74,1.51,6.77,6.77,0,0,0-.28.75l-.12.38-.08.29-.14.57c-.07.34-.11.62-.14.81A6.59,6.59,0,0,0,150.43,150.39Z"
       id="path44" />
    <ellipse
       class="cls-5"
       cx="161.24"
       cy="149.5"
       rx="5.55"
       ry="5.64"
       transform="translate(-21.21 272.23) rotate(-76.77)"
       id="ellipse46" />
    <circle
       class="cls-3"
       cx="158.36"
       cy="146.43"
       r="2.79"
       id="circle48" />
    <path
       class="cls-3"
       d="M145.13,170.53c5.59.1,7.63-5.28,7.63-5.28a33.08,33.08,0,0,1-8.14,1.13,29.46,29.46,0,0,1-7.79-1.35A9,9,0,0,0,145.13,170.53Z"
       id="path50" />
    <path
       class="cls-4"
       d="M145.13,170.53a5.13,5.13,0,0,0,3.67-.31,8.91,8.91,0,0,0,1.37-.84,9.72,9.72,0,0,0,1.91-2c.15-.19.27-.39.4-.59a2.82,2.82,0,0,0,.18-.29l.12-.21.14-.27c.19-.37.33-.71.45-1l.18-.46,0-.05h0l-.13,0-.25.06-.87.23-.73.18-.82.18-1.53.29c-1,.16-1.86.27-2.6.33a15.8,15.8,0,0,1-2.35,0s-.9,0-2.37-.23c-.73-.1-1.6-.24-2.56-.45l-.74-.18-.38-.09-.62-.18-.83-.26-.43-.15-.22-.08s-.09,0-.1,0l0,.08a14.4,14.4,0,0,0,.59,1.42,7.73,7.73,0,0,0,.73,1.22,8.85,8.85,0,0,0,.7.89,9.51,9.51,0,0,0,1.38,1.28,8.35,8.35,0,0,0,2,1.14,5.83,5.83,0,0,0,3.67.26c-1.23-.38-2-.64-3.3-1.15a8.13,8.13,0,0,1-1.81-1,10.26,10.26,0,0,1-1.24-1.16,8.55,8.55,0,0,1-.63-.8,6.8,6.8,0,0,1-.38-.58h0l.18.05.39.1.77.18c1,.21,1.89.36,2.65.46,1.51.2,2.43.23,2.43.23a5.78,5.78,0,0,0,.67,0,17.87,17.87,0,0,0,1.82-.05c.77-.06,1.68-.17,2.68-.34l1.57-.3.83-.18.11,0h0s0-.06,0,.07-.1.18-.16.27-.23.36-.37.53a8.78,8.78,0,0,1-1.71,1.77,8,8,0,0,1-1.2.74A18.53,18.53,0,0,1,145.13,170.53Z"
       id="path52" />
  </g>
</svg>
