<svg xmlns="http://www.w3.org/2000/svg" xmlns:xlink="http://www.w3.org/1999/xlink" viewBox="0 0 148.68 148.68"><defs><style>.cls-1{stroke:#58ff58;stroke-miterlimit:10;stroke-width:5px;fill:url(#New_Gradient_Swatch_9);}.cls-2{fill:#333;}.cls-3{fill:#58ff58;}</style><radialGradient id="New_Gradient_Swatch_9" cx="74.34" cy="74.34" r="56.5" gradientUnits="userSpaceOnUse"><stop offset="0.34" stop-color="#f2f2f2"/><stop offset="0.99" stop-color="#ccc"/></radialGradient></defs><g id="MULTI"><circle id="SVGID" class="cls-1" cx="74.34" cy="74.34" r="56.5"/><path class="cls-2" d="M75.74,99.57H51.64A11.38,11.38,0,0,1,40.28,88.21V60A11.38,11.38,0,0,1,51.64,48.66h41A11.38,11.38,0,0,1,104,60V88.21A11.4,11.4,0,0,1,93.8,99.51v12.61Z"/><path class="cls-3" d="M92.65,49.77A10.28,10.28,0,0,1,102.9,60V88.21A10.28,10.28,0,0,1,92.7,98.46V110L76.08,98.46H51.64A10.28,10.28,0,0,1,41.39,88.21V60A10.28,10.28,0,0,1,51.64,49.77h41m0-2.21h-41A12.47,12.47,0,0,0,39.18,60V88.21a12.47,12.47,0,0,0,12.46,12.46H75.39l16,11.15,3.47,2.41V100.46a12.48,12.48,0,0,0,10.2-12.25V60A12.47,12.47,0,0,0,92.65,47.56Z"/></g></svg>