<svg xmlns="http://www.w3.org/2000/svg" xmlns:xlink="http://www.w3.org/1999/xlink" viewBox="0 0 148.68 148.68"><defs><style>.cls-1{fill:url(#New_Gradient_Swatch_1);}.cls-2{fill:#58ff58;}.cls-3{fill:#e6e6e6;stroke:#58ff58;stroke-miterlimit:10;stroke-width:2.21px;}</style><radialGradient id="New_Gradient_Swatch_1" cx="74.34" cy="74.34" r="59" gradientTransform="translate(127.11 -16.59) rotate(75.13)" gradientUnits="userSpaceOnUse"><stop offset="0.07" stop-color="#919191"/><stop offset="0.21" stop-color="#828283"/><stop offset="0.47" stop-color="#5c5c60"/><stop offset="0.83" stop-color="#1f1f27"/><stop offset="1" stop-color="#00000a"/></radialGradient></defs><g id="MULTI"><g id="SVGID"><circle class="cls-1" cx="74.34" cy="74.34" r="59" transform="translate(-16.59 127.11) rotate(-75.13)"/><path class="cls-2" d="M74.34,17.84a56.5,56.5,0,1,1-56.5,56.5,56.49,56.49,0,0,1,56.5-56.5m0-5a61.5,61.5,0,1,0,61.5,61.5,61.57,61.57,0,0,0-61.5-61.5Z"/></g><path class="cls-3" d="M92.65,49.77h-41A10.28,10.28,0,0,0,41.39,60V88.21A10.28,10.28,0,0,0,51.64,98.46H76.08L92.7,110V98.46a10.28,10.28,0,0,0,10.2-10.25V60A10.28,10.28,0,0,0,92.65,49.77Z"/></g></svg>