<svg xmlns="http://www.w3.org/2000/svg" xmlns:xlink="http://www.w3.org/1999/xlink" viewBox="0 0 148.68 148.68"><defs><style>.cls-1{fill:url(#New_Gradient_Swatch_9);}.cls-2{fill:#333;}.cls-3{fill:#fff;}</style><radialGradient id="New_Gradient_Swatch_9" cx="377.03" cy="187.51" r="56.38" gradientTransform="translate(-309.78 -98.2) rotate(-2.25)" gradientUnits="userSpaceOnUse"><stop offset="0.34" stop-color="#f2f2f2"/><stop offset="0.99" stop-color="#ccc"/></radialGradient></defs><g id="MULTI"><circle class="cls-1" cx="74.34" cy="74.34" r="56.38"/><polygon class="cls-2" points="34.17 77.78 48.73 63.21 63.87 78.35 96.33 45.9 110.89 60.47 63.87 107.48 34.17 77.78"/><path class="cls-3" d="M96.33,47.26l13.2,13.21L64,106l-.09.08L35.53,77.78l13.2-13.2L63.87,79.72,96.33,47.26m0-2.72L95,45.9,63.87,77,50.1,63.21l-1.37-1.36-1.36,1.36L34.17,76.42l-1.36,1.36,1.36,1.36,28.34,28.35,1.36,1.36,1.36-1.36.09-.09,45.57-45.57,1.37-1.36-1.37-1.37L97.69,45.9l-1.36-1.36Z"/></g></svg>