<svg xmlns="http://www.w3.org/2000/svg" xmlns:xlink="http://www.w3.org/1999/xlink" viewBox="0 0 148.68 148.68"><defs><style>.cls-1{stroke:#58ff58;stroke-miterlimit:10;stroke-width:5px;fill:url(#New_Gradient_Swatch_9);}.cls-2{fill:#333;}.cls-3{fill:#58ff58;}</style><radialGradient id="New_Gradient_Swatch_9" cx="74.34" cy="74.34" r="56.38" gradientUnits="userSpaceOnUse"><stop offset="0.34" stop-color="#f2f2f2"/><stop offset="0.99" stop-color="#ccc"/></radialGradient></defs><g id="MULTI"><circle class="cls-1" cx="74.34" cy="74.34" r="56.38"/><polygon class="cls-2" points="33.97 77.78 48.73 63.02 63.87 78.16 96.33 45.7 111.09 60.47 63.87 107.68 33.97 77.78"/><path class="cls-3" d="M96.33,47.26l13.2,13.21L64,106l-.09.08L35.53,77.78l13.2-13.2L63.87,79.72,96.33,47.26m0-3.12L94.77,45.7,63.87,76.6,50.3,63l-1.57-1.56L47.17,63,34,76.22l-1.56,1.56L34,79.34l28.34,28.34,1.56,1.56,1.56-1.55.09-.09L111.09,62l1.56-1.56-1.56-1.56L97.89,45.7l-1.56-1.56Z"/></g></svg>