<svg xmlns="http://www.w3.org/2000/svg" xmlns:xlink="http://www.w3.org/1999/xlink" viewBox="0 0 148.68 148.68"><defs><style>.cls-1{fill:url(#New_Gradient_Swatch_9);}.cls-2{fill:#333;}.cls-3{fill:#fff;}</style><radialGradient id="New_Gradient_Swatch_9" cx="74.34" cy="74.34" r="56.5" gradientUnits="userSpaceOnUse"><stop offset="0.34" stop-color="#f2f2f2"/><stop offset="0.99" stop-color="#ccc"/></radialGradient></defs><g id="MULTI"><circle id="SVGID" class="cls-1" cx="74.34" cy="74.34" r="56.5"/><path class="cls-2" d="M47.39,110.82a3.19,3.19,0,0,1-3.18-3.18V47.56a3.19,3.19,0,0,1,3.18-3.18h1.18a3.19,3.19,0,0,1,3.14,2.68,19.44,19.44,0,0,1,10.86-3.18c6.07,0,11.42,2.42,14.29,3.72.51.23.92.42,1.24.55,6,2.41,9.79,3.3,13.85,3.3A40.44,40.44,0,0,0,102,50a4.22,4.22,0,0,1,1-.13,3.66,3.66,0,0,1,3.75,3.55V87.52a3.6,3.6,0,0,1-2.69,3.41,40.28,40.28,0,0,1-11.68,2h0c-4.49,0-9-1-15.06-3.45-.33-.13-.79-.33-1.35-.58-3-1.33-9.2-4.1-14.9-4.1-3.79,0-6.73,1.25-8.73,3.72-.34.42-.58.74-.58,1v18.16a3.18,3.18,0,0,1-3.18,3.18Z"/><path class="cls-3" d="M62.57,44.94c6.95,0,13.07,3.37,15.14,4.2,5.66,2.25,9.75,3.37,14.24,3.37A41.75,41.75,0,0,0,102.25,51a3.18,3.18,0,0,1,.74-.09,2.59,2.59,0,0,1,2.69,2.48V87.52a2.55,2.55,0,0,1-1.93,2.39,39.64,39.64,0,0,1-11.38,1.92c-4.6,0-9-1.12-14.66-3.37C75.58,87.61,68,83.7,61.06,83.7c-3.61,0-7.07,1-9.55,4.11a2.76,2.76,0,0,0-.82,1.67v18.16a2.12,2.12,0,0,1-2.12,2.12H47.39a2.11,2.11,0,0,1-2.11-2.12V47.56a2.11,2.11,0,0,1,2.11-2.11h1.18a2.12,2.12,0,0,1,2.12,2.11v1.57a18.28,18.28,0,0,1,11.88-4.19m0-2.12h0a20.45,20.45,0,0,0-10.3,2.66,4.25,4.25,0,0,0-3.7-2.16H47.39a4.24,4.24,0,0,0-4.24,4.24v60.08a4.24,4.24,0,0,0,4.24,4.24h1.18a4.25,4.25,0,0,0,4.25-4.24v-18a4.43,4.43,0,0,1,.34-.45c1.81-2.24,4.39-3.32,7.9-3.32,5.47,0,11.55,2.7,14.46,4,.59.26,1.06.47,1.4.6C83.12,92.9,87.74,94,92.37,94a41.39,41.39,0,0,0,12-2,4.66,4.66,0,0,0,3.45-4.43V53.37A4.73,4.73,0,0,0,103,48.76a4.89,4.89,0,0,0-1.26.16A39.82,39.82,0,0,1,92,50.39c-3.91,0-7.56-.88-13.46-3.23-.3-.12-.7-.3-1.19-.52-3-1.34-8.43-3.82-14.73-3.82Z"/></g></svg>