<svg xmlns="http://www.w3.org/2000/svg" xmlns:xlink="http://www.w3.org/1999/xlink" viewBox="0 0 148.68 148.68"><defs><style>.cls-1{fill:url(#New_Gradient_Swatch_1);}.cls-2{fill:#e6e6e6;stroke:#fff;stroke-miterlimit:10;stroke-width:1.47px;}</style><radialGradient id="New_Gradient_Swatch_1" cx="74.34" cy="74.34" r="56.5" gradientUnits="userSpaceOnUse"><stop offset="0.07" stop-color="#919191"/><stop offset="0.21" stop-color="#828283"/><stop offset="0.47" stop-color="#5c5c60"/><stop offset="0.83" stop-color="#1f1f27"/><stop offset="1" stop-color="#00000a"/></radialGradient></defs><g id="MULTI"><circle id="SVGID" class="cls-1" cx="74.34" cy="74.34" r="56.5"/><path class="cls-2" d="M105.68,53.37A2.65,2.65,0,0,0,102.25,51c-10,2.53-15,1.94-24.54-1.84-3.23-1.29-16.28-8.76-27,0V47.56a2.12,2.12,0,0,0-2.12-2.11H47.39a2.11,2.11,0,0,0-2.11,2.11v60.08a2.11,2.11,0,0,0,2.11,2.12h1.18a2.12,2.12,0,0,0,2.12-2.12V89.48a2.76,2.76,0,0,1,.82-1.67c7.27-9,23-.64,26.2.65,9.93,4,16,4.41,26,1.45a2.55,2.55,0,0,0,1.93-2.39Z"/></g></svg>