<svg xmlns="http://www.w3.org/2000/svg" xmlns:xlink="http://www.w3.org/1999/xlink" viewBox="0 0 148.68 148.68"><defs><style>.cls-1{stroke:#58ff58;stroke-miterlimit:10;stroke-width:5px;fill:url(#New_Gradient_Swatch_9);}.cls-2{fill:#333;}.cls-3{fill:#58ff58;}</style><radialGradient id="New_Gradient_Swatch_9" cx="74.34" cy="74.34" r="56.5" gradientUnits="userSpaceOnUse"><stop offset="0.34" stop-color="#f2f2f2"/><stop offset="0.99" stop-color="#ccc"/></radialGradient></defs><g id="MULTI"><circle id="SVGID" class="cls-1" cx="74.34" cy="74.34" r="56.5"/><path class="cls-2" d="M47.39,110.86a3.23,3.23,0,0,1-3.22-3.22V47.56a3.23,3.23,0,0,1,3.22-3.22h1.18A3.23,3.23,0,0,1,51.74,47a19.48,19.48,0,0,1,10.83-3.15c6.08,0,11.43,2.42,14.31,3.73.5.23.92.41,1.24.54,6,2.41,9.78,3.3,13.83,3.3a40.3,40.3,0,0,0,10-1.5,4.3,4.3,0,0,1,1-.13,3.7,3.7,0,0,1,3.79,3.59V87.52A3.64,3.64,0,0,1,104.07,91a40.45,40.45,0,0,1-11.7,2h0c-4.49,0-9-1-15.07-3.45-.33-.13-.79-.34-1.36-.59-3-1.33-9.19-4.09-14.88-4.09-3.78,0-6.71,1.25-8.7,3.71-.33.41-.57.72-.57,1v18.16a3.22,3.22,0,0,1-3.22,3.22Z"/><path class="cls-3" d="M62.57,44.94c6.95,0,13.07,3.37,15.14,4.2,5.66,2.25,9.75,3.37,14.24,3.37A41.75,41.75,0,0,0,102.25,51a3.18,3.18,0,0,1,.74-.09,2.59,2.59,0,0,1,2.69,2.48V87.52a2.55,2.55,0,0,1-1.93,2.39,39.64,39.64,0,0,1-11.38,1.92c-4.6,0-9-1.12-14.66-3.37C75.58,87.61,68,83.7,61.06,83.7c-3.61,0-7.07,1-9.55,4.11a2.76,2.76,0,0,0-.82,1.67v18.16a2.12,2.12,0,0,1-2.12,2.12H47.39a2.11,2.11,0,0,1-2.11-2.12V47.56a2.11,2.11,0,0,1,2.11-2.11h1.18a2.12,2.12,0,0,1,2.12,2.11v1.57a18.28,18.28,0,0,1,11.88-4.19m0-2.2h0a20.59,20.59,0,0,0-10.28,2.63,4.33,4.33,0,0,0-3.72-2.13H47.39a4.33,4.33,0,0,0-4.32,4.32v60.08A4.33,4.33,0,0,0,47.39,112h1.18a4.33,4.33,0,0,0,4.33-4.32v-18a4.35,4.35,0,0,1,.32-.43c1.8-2.22,4.36-3.29,7.84-3.29,5.45,0,11.52,2.69,14.43,4l1.4.61C83.1,93,87.73,94,92.37,94a41.56,41.56,0,0,0,12-2,4.74,4.74,0,0,0,3.51-4.51V53.37a4.8,4.8,0,0,0-4.9-4.69,5,5,0,0,0-1.28.16A39.68,39.68,0,0,1,92,50.31c-3.9,0-7.54-.88-13.43-3.22l-1.19-.53c-3-1.33-8.44-3.82-14.76-3.82Z"/></g></svg>