<?xml version="1.0" encoding="UTF-8" standalone="no"?>
<svg
   viewBox="0 0 148.68 148.68"
   version="1.1"
   id="svg18"
   sodipodi:docname="refresh-light-green.svg"
   inkscape:version="1.2 (dc2aedaf03, 2022-05-15)"
   xmlns:inkscape="http://www.inkscape.org/namespaces/inkscape"
   xmlns:sodipodi="http://sodipodi.sourceforge.net/DTD/sodipodi-0.dtd"
   xmlns="http://www.w3.org/2000/svg"
   xmlns:svg="http://www.w3.org/2000/svg">
  <sodipodi:namedview
     id="namedview20"
     pagecolor="#ffffff"
     bordercolor="#666666"
     borderopacity="1.0"
     inkscape:showpageshadow="2"
     inkscape:pageopacity="0.0"
     inkscape:pagecheckerboard="0"
     inkscape:deskcolor="#d1d1d1"
     showgrid="false"
     inkscape:zoom="7.0823248"
     inkscape:cx="110.69811"
     inkscape:cy="94.38991"
     inkscape:window-width="1499"
     inkscape:window-height="1236"
     inkscape:window-x="1440"
     inkscape:window-y="307"
     inkscape:window-maximized="1"
     inkscape:current-layer="svg18" />
  <defs
     id="defs9">
    <style
       id="style2">.cls-1{fill:url(#New_Gradient_Swatch_9);}.cls-2{fill:#333;}.cls-3{fill:#fff;}</style>
    <radialGradient
       id="New_Gradient_Swatch_9"
       cx="377.03"
       cy="187.51"
       r="56.38"
       gradientTransform="rotate(-2.25,-2655.2111,7838.3691)"
       gradientUnits="userSpaceOnUse">
      <stop
         offset="0.34"
         stop-color="#f2f2f2"
         id="stop4" />
      <stop
         offset="0.99"
         stop-color="#ccc"
         id="stop6" />
    </radialGradient>
  </defs>
  <circle
     class="cls-1"
     cx="74.339996"
     cy="74.339996"
     r="56.380001"
     id="circle11"
     style="fill:url(#New_Gradient_Swatch_9);stroke:#57ff57;stroke-opacity:1;stroke-width:5;stroke-dasharray:none" />
  <path
     d="m 109.81075,87.910679 -12.702853,-2.92123 c -1.166558,2.199357 -2.703633,4.266304 -4.641065,6.103992 -9.742562,9.238299 -25.54585,9.238299 -35.291374,0 -9.746577,-9.242116 -9.746577,-24.225211 0,-33.465677 8.396845,-7.96497 21.288496,-9.045237 30.929422,-3.281607 l -8.209615,7.785461 31.754055,6.464196 -6.82031,-30.106705 -7.514863,7.126725 C 82.520631,35.18485 61.527641,36.294211 48.098343,49.022571 c -14.756895,13.992596 -14.756895,36.680819 0,50.673749 14.757414,13.99258 38.689229,13.99258 53.447007,0.001 3.6679,-3.481613 6.42263,-7.501303 8.2654,-11.78761 z"
     id="path3247"
     style="fill:#333333;fill-opacity:1;stroke-width:2;stroke:#57ff57;stroke-opacity:1;stroke-dasharray:none" />
</svg>
