<svg xmlns="http://www.w3.org/2000/svg" xmlns:xlink="http://www.w3.org/1999/xlink" viewBox="0 0 148.68 148.68"><defs><style>.cls-1{fill:url(#New_Gradient_Swatch_9);}.cls-2{fill:#333;}.cls-3{fill:#fff;}</style><radialGradient id="New_Gradient_Swatch_9" cx="74.34" cy="74.34" r="56.5" gradientUnits="userSpaceOnUse"><stop offset="0.34" stop-color="#f2f2f2"/><stop offset="0.99" stop-color="#ccc"/></radialGradient></defs><g id="MULTI"><circle id="SVGID" class="cls-1" cx="74.34" cy="74.34" r="56.5"/><polygon class="cls-2" points="81.84 110.13 81.84 73.86 58.48 73.86 58.48 89.13 33 65.39 58.48 41.64 58.48 56.91 98.8 56.91 98.8 110.13 81.84 110.13"/><path class="cls-3" d="M57.38,44.18V58H97.7v51H82.94V72.76H57.38V86.6L34.62,65.39,57.38,44.18m2.21-5.08-3.71,3.46L33.12,63.77l-1.73,1.62L33.12,67,55.88,88.21l3.71,3.46V75H80.74v36.26H99.9V55.8H59.59V39.1Z"/></g></svg>