<svg xmlns="http://www.w3.org/2000/svg" xmlns:xlink="http://www.w3.org/1999/xlink" viewBox="0 0 148.68 148.68"><defs><style>.cls-1{fill:url(#New_Gradient_Swatch_9);}.cls-2{fill:#333;}.cls-3{fill:#fff;}</style><radialGradient id="New_Gradient_Swatch_9" cx="376.9" cy="194.15" r="56.38" gradientTransform="translate(-309.91 -104.83) rotate(-2.25)" gradientUnits="userSpaceOnUse"><stop offset="0.34" stop-color="#f2f2f2"/><stop offset="0.99" stop-color="#ccc"/></radialGradient></defs><g id="MULTI"><circle class="cls-1" cx="74.34" cy="74.34" r="56.38"/><polygon class="cls-2" points="41.48 93.26 60.38 74.34 41.48 55.45 55.42 41.48 74.33 60.38 93.23 41.5 107.19 55.44 88.29 74.34 107.2 93.26 93.23 107.2 74.33 88.3 55.42 107.2 41.48 93.26"/><path class="cls-3" d="M55.42,42.84l18.91,18.9,18.9-18.88,12.6,12.58-18.9,18.9,18.91,18.92L93.23,105.84l-18.9-18.9-18.91,18.9L42.84,93.26l18.9-18.92-18.9-18.9,12.58-12.6m0-2.72-1.36,1.36L41.48,54.08l-1.36,1.37,1.36,1.36L59,74.34,41.48,91.9l-1.36,1.36,1.36,1.36L54.06,107.2l1.36,1.36,1.36-1.36L74.33,89.66,91.87,107.2l1.36,1.36,1.37-1.36,12.6-12.58,1.37-1.36L107.2,91.9,89.66,74.34l17.53-17.53,1.37-1.37-1.37-1.36L94.6,41.5l-1.37-1.36L91.87,41.5,74.33,59,56.78,41.48l-1.36-1.36Z"/></g></svg>