<svg xmlns="http://www.w3.org/2000/svg" xmlns:xlink="http://www.w3.org/1999/xlink" viewBox="0 0 148.68 148.68"><defs><style>.cls-1{stroke:#58ff58;stroke-miterlimit:10;stroke-width:5px;fill:url(#New_Gradient_Swatch_9);}.cls-2{fill:#333;}.cls-3{fill:#58ff58;}</style><radialGradient id="New_Gradient_Swatch_9" cx="74.34" cy="74.34" r="56.38" gradientUnits="userSpaceOnUse"><stop offset="0.34" stop-color="#f2f2f2"/><stop offset="0.99" stop-color="#ccc"/></radialGradient></defs><g id="MULTI"><circle class="cls-1" cx="74.34" cy="74.34" r="56.38"/><polygon class="cls-2" points="41.28 93.26 60.18 74.34 41.28 55.45 55.42 41.28 74.33 60.18 93.23 41.3 107.39 55.44 88.49 74.34 107.4 93.26 93.23 107.39 74.33 88.5 55.42 107.4 41.28 93.26"/><path class="cls-3" d="M55.42,42.84l18.91,18.9,18.9-18.88,12.6,12.58-18.9,18.9,18.91,18.92L93.23,105.84l-18.9-18.9-18.91,18.9L42.84,93.26l18.9-18.92-18.9-18.9,12.58-12.6m0-3.12-1.56,1.56L41.28,53.89l-1.56,1.56L41.28,57,58.62,74.34,41.28,91.7l-1.56,1.56,1.56,1.56L53.86,107.4,55.42,109,57,107.4,74.33,90.06,91.67,107.4,93.23,109l1.56-1.55L107.4,94.82,109,93.26,107.4,91.7,90.05,74.34,107.39,57,109,55.44l-1.56-1.56L94.79,41.3l-1.56-1.56L91.68,41.3,74.33,58.62,57,41.28l-1.56-1.56Z"/></g></svg>