<svg xmlns="http://www.w3.org/2000/svg" xmlns:xlink="http://www.w3.org/1999/xlink" viewBox="0 0 2440.66 300"><defs><style>.cls-1{fill:url(#New_Gradient_Swatch_9);}.cls-2{fill:#fff;stroke-linejoin:round;stroke-width:1.26px;}.cls-2,.cls-5{stroke:#000;stroke-linecap:round;}.cls-3{fill:url(#New_Gradient_Swatch_10);}.cls-4{fill:#f4f4f4;}.cls-5{fill:none;stroke-miterlimit:10;stroke-width:1.26px;}.cls-6{fill:url(#New_Gradient_Swatch_12);}.cls-7{fill:url(#New_Gradient_Swatch_11);}.cls-8{font-size:25.53px;font-family:ArialMT, Arial;}.cls-9{letter-spacing:-0.02em;}.cls-10{letter-spacing:0em;}.cls-11{letter-spacing:-0.02em;}.cls-12{letter-spacing:-0.11em;}.cls-13{letter-spacing:-0.06em;}.cls-14{font-size:37.93px;font-family:MyriadPro-Regular, Myriad Pro;}.cls-15{fill:url(#New_Gradient_Swatch_17);}.cls-16{fill:#ff9838;}.cls-17{fill:url(#New_Gradient_Swatch_9-2);}.cls-18{fill:#489fff;}.cls-19{fill:url(#New_Gradient_Swatch_10-2);}.cls-20{fill:#9bcfe7;}.cls-21{fill:url(#New_Gradient_Swatch_12-2);}.cls-22{fill:#f54fb2;}.cls-23{fill:url(#New_Gradient_Swatch_17-2);}.cls-24{fill:url(#New_Gradient_Swatch_9-3);}.cls-25{fill:url(#New_Gradient_Swatch_10-3);}.cls-26{fill:url(#New_Gradient_Swatch_12-3);}</style><radialGradient id="New_Gradient_Swatch_9" cx="314.96" cy="66.32" r="37.96" gradientTransform="translate(65.97 25.91)" gradientUnits="userSpaceOnUse"><stop offset="0.12" stop-color="#339dd4"/><stop offset="0.32" stop-color="#3199d4"/><stop offset="0.5" stop-color="#2a8ed6"/><stop offset="0.68" stop-color="#1f7cd8"/><stop offset="0.86" stop-color="#1062db"/><stop offset="1" stop-color="#0046de"/></radialGradient><radialGradient id="New_Gradient_Swatch_10" cx="-952.45" cy="-653.47" r="42.99" gradientTransform="translate(1310.59 671.24) scale(0.88)" gradientUnits="userSpaceOnUse"><stop offset="0.41" stop-color="#e7f6fd"/><stop offset="0.52" stop-color="#dff2fb"/><stop offset="0.68" stop-color="#cae7f5"/><stop offset="0.88" stop-color="#a8d6eb"/><stop offset="0.94" stop-color="#9bcfe7"/></radialGradient><radialGradient id="New_Gradient_Swatch_12" cx="591.45" cy="68" r="37.96" gradientTransform="translate(65.97 25.91)" gradientUnits="userSpaceOnUse"><stop offset="0.09" stop-color="#ff54b5"/><stop offset="0.38" stop-color="#fd53b4"/><stop offset="0.54" stop-color="#f54fb2"/><stop offset="0.66" stop-color="#e748ae"/><stop offset="0.77" stop-color="#d33ea8"/><stop offset="0.87" stop-color="#ba31a1"/><stop offset="0.96" stop-color="#9b2298"/><stop offset="0.98" stop-color="#961f96"/></radialGradient><radialGradient id="New_Gradient_Swatch_11" cx="-844.1" cy="-657.64" r="42.99" gradientTransform="translate(1310.59 671.24) scale(0.88)" gradientUnits="userSpaceOnUse"><stop offset="0.32" stop-color="#fefbdb"/><stop offset="0.46" stop-color="#fbf7d5"/><stop offset="0.65" stop-color="#f4eac4"/><stop offset="0.87" stop-color="#e8d6a7"/><stop offset="1" stop-color="#dfc793"/></radialGradient><radialGradient id="New_Gradient_Swatch_17" cx="336.88" cy="266.92" r="26.51" gradientUnits="userSpaceOnUse"><stop offset="0.17" stop-color="#ffb800"/><stop offset="0.32" stop-color="#fba900"/><stop offset="0.62" stop-color="#f18300"/><stop offset="0.73" stop-color="#ec7200"/></radialGradient><radialGradient id="New_Gradient_Swatch_9-2" cx="642.99" cy="266.92" r="26.51" gradientTransform="matrix(1, 0, 0, 1, 0, 0)" xlink:href="#New_Gradient_Swatch_9"/><radialGradient id="New_Gradient_Swatch_10-2" cx="950.55" cy="266.92" r="26.51" gradientTransform="matrix(1, 0, 0, 1, 0, 0)" xlink:href="#New_Gradient_Swatch_10"/><radialGradient id="New_Gradient_Swatch_12-2" cx="34.94" cy="266.92" r="26.51" gradientTransform="matrix(1, 0, 0, 1, 0, 0)" xlink:href="#New_Gradient_Swatch_12"/><radialGradient id="New_Gradient_Swatch_17-2" cx="1563.4" cy="266.92" r="26.51" xlink:href="#New_Gradient_Swatch_17"/><radialGradient id="New_Gradient_Swatch_9-3" cx="1869.51" cy="266.92" r="26.51" gradientTransform="matrix(1, 0, 0, 1, 0, 0)" xlink:href="#New_Gradient_Swatch_9"/><radialGradient id="New_Gradient_Swatch_10-3" cx="2177.07" cy="266.92" r="26.51" gradientTransform="matrix(1, 0, 0, 1, 0, 0)" xlink:href="#New_Gradient_Swatch_10"/><radialGradient id="New_Gradient_Swatch_12-3" cx="1261.46" cy="266.92" r="26.51" gradientTransform="matrix(1, 0, 0, 1, 0, 0)" xlink:href="#New_Gradient_Swatch_12"/></defs><g id="Birds"><circle id="SVGID" class="cls-1" cx="379.36" cy="91.9" r="37.77"/><path class="cls-2" d="M350.46,86.08c.71,4.59,6.57,8.17,13.7,8.17s13-3.58,13.7-8.17Z"/><path d="M353.09,86.7a3.88,3.88,0,0,0,0,.48,2.82,2.82,0,1,0,5.63,0,3.88,3.88,0,0,0,0-.48Z"/><path class="cls-2" d="M380.87,86.08c.71,4.59,6.57,8.17,13.7,8.17s13-3.58,13.7-8.17Z"/><path d="M383.9,86.7a3.88,3.88,0,0,0,0,.48,2.82,2.82,0,1,0,5.63,0,2.61,2.61,0,0,0-.05-.48Z"/><circle class="cls-3" cx="473.82" cy="97.12" r="37.77"/><ellipse cx="460.08" cy="91.4" rx="5.51" ry="9.92"/><ellipse class="cls-4" cx="460.9" cy="87.73" rx="2.65" ry="4.78"/><ellipse cx="487.55" cy="91.4" rx="5.51" ry="9.92"/><ellipse class="cls-4" cx="488.37" cy="87.73" rx="2.65" ry="4.78"/><ellipse cx="473.82" cy="116.58" rx="4.46" ry="5.34"/><ellipse class="cls-4" cx="473.82" cy="118.87" rx="2.86" ry="1.53"/><path class="cls-5" d="M464.28,71.56a24.38,24.38,0,0,0-11.41,5"/><path class="cls-5" d="M483.35,71.56a24.38,24.38,0,0,1,11.41,5"/><circle id="SVGID-2" data-name="SVGID" class="cls-6" cx="654.48" cy="93.57" r="37.77"/><ellipse cx="641.27" cy="90.67" rx="5.3" ry="9.54"/><ellipse class="cls-4" cx="642.06" cy="87.14" rx="2.55" ry="4.59"/><ellipse cx="667.69" cy="90.67" rx="5.3" ry="9.54"/><ellipse class="cls-4" cx="668.47" cy="87.14" rx="2.55" ry="4.59"/><path class="cls-5" d="M645.37,69.93A24.26,24.26,0,0,0,636,72"/><path class="cls-5" d="M663.59,69.93A24.22,24.22,0,0,1,673,72"/><path class="cls-5" d="M660.83,115.43a12.85,12.85,0,0,1-6.35,1.6,13.21,13.21,0,0,1-5.57-1.19"/><circle class="cls-7" cx="569.01" cy="93.47" r="37.77"/><ellipse cx="555.27" cy="87.74" rx="5.51" ry="9.92"/><ellipse class="cls-4" cx="556.09" cy="84.07" rx="2.65" ry="4.78"/><ellipse cx="582.74" cy="87.74" rx="5.51" ry="9.92"/><ellipse class="cls-4" cx="583.56" cy="84.07" rx="2.65" ry="4.78"/><ellipse cx="569.01" cy="112.92" rx="4.46" ry="5.34"/><ellipse class="cls-4" cx="569.01" cy="115.21" rx="2.86" ry="1.53"/><path class="cls-5" d="M559.47,67.9a24.38,24.38,0,0,0-11.41,5"/><path class="cls-5" d="M578.54,67.9a24.38,24.38,0,0,1,11.41,5"/></g><g id="TXT_etc" data-name="TXT, etc"><text class="cls-8" transform="translate(15.58 32.23)">Kid<tspan class="cls-9" x="36.9" y="0">’</tspan><tspan class="cls-10" x="42.11" y="0">s Go Server // Character Designs // 20210529</tspan></text><text class="cls-8" transform="translate(1550.43 32.23)">Milk<tspan class="cls-11" x="45.37" y="0"> </tspan><tspan class="cls-12" x="52" y="0">T</tspan><tspan x="64.77" y="0">eeth LLC // nicksnyde</tspan><tspan class="cls-13" x="310.26" y="0">r</tspan><tspan class="cls-10" x="317.35" y="0">.tv</tspan></text><text class="cls-14" transform="translate(16.41 81.85)">WISDOM SPECIES</text><rect class="cls-15" x="310.37" y="240.4" width="53.02" height="53.02"/><rect class="cls-16" x="367.48" y="240.4" width="53.02" height="53.02"/><rect class="cls-17" x="616.48" y="240.4" width="53.02" height="53.02"/><rect class="cls-18" x="673.59" y="240.4" width="53.02" height="53.02"/><rect class="cls-19" x="924.04" y="240.4" width="53.02" height="53.02"/><rect class="cls-20" x="980.38" y="240.4" width="53.02" height="53.02"/><rect class="cls-21" x="8.42" y="240.4" width="53.02" height="53.02"/><rect class="cls-22" x="66.31" y="240.4" width="53.02" height="53.02"/><rect class="cls-23" x="1536.89" y="240.4" width="53.02" height="53.02"/><rect class="cls-16" x="1594" y="240.4" width="53.02" height="53.02"/><rect class="cls-24" x="1843" y="240.4" width="53.02" height="53.02"/><rect class="cls-18" x="1900.11" y="240.4" width="53.02" height="53.02"/><rect class="cls-25" x="2150.56" y="240.4" width="53.02" height="53.02"/><rect class="cls-20" x="2206.9" y="240.4" width="53.02" height="53.02"/><rect class="cls-26" x="1234.94" y="240.4" width="53.02" height="53.02"/><rect class="cls-22" x="1292.83" y="240.4" width="53.02" height="53.02"/></g></svg>