<svg xmlns="http://www.w3.org/2000/svg" xmlns:xlink="http://www.w3.org/1999/xlink" viewBox="0 0 300 300"><defs><style>.cls-1{fill:#f54fb2;}.cls-2{fill:#202020;}.cls-3{fill:url(#radial-gradient);}.cls-4{fill:url(#radial-gradient-2);}.cls-5{fill:url(#New_Gradient_Swatch_1);}.cls-15,.cls-18,.cls-6{fill:none;stroke-miterlimit:10;}.cls-6{stroke:#3c3c3c;}.cls-7{fill:url(#radial-gradient-3);}.cls-8{fill:url(#New_Gradient_Swatch_12);}.cls-9{fill:url(#New_Gradient_Swatch_12-2);}.cls-10{fill:url(#New_Gradient_Swatch_12-3);}.cls-11{fill:url(#New_Gradient_Swatch_12-4);}.cls-12{fill:url(#New_Gradient_Swatch_12-5);}.cls-13{fill:url(#New_Gradient_Swatch_12-6);}.cls-14{fill:url(#radial-gradient-4);}.cls-15,.cls-18{stroke:#000;}.cls-15{stroke-width:0.56px;}.cls-16{fill:#fff;}.cls-17{fill:#231f20;}.cls-18{stroke-width:0.5px;}</style><radialGradient id="radial-gradient" cx="85.08" cy="69.98" fy="184.54765253172343" r="115.94" gradientUnits="userSpaceOnUse"><stop offset="0.06" stop-color="#6a999e"/><stop offset="0.08" stop-color="#6ea8ae"/><stop offset="0.11" stop-color="#77cdd6"/><stop offset="0.14" stop-color="#81f4ff"/><stop offset="0.19" stop-color="#9ff7ff"/><stop offset="0.24" stop-color="#bdf9ff"/><stop offset="0.31" stop-color="#d5fbff"/><stop offset="0.37" stop-color="#e8fdff"/><stop offset="0.45" stop-color="#f5feff"/><stop offset="0.56" stop-color="#fdffff"/><stop offset="0.76" stop-color="#fff"/></radialGradient><radialGradient id="radial-gradient-2" cx="5867.92" cy="16487.53" r="5.25" gradientTransform="matrix(-0.12, 0.99, -0.99, -0.12, 17030.12, -3860.12)" gradientUnits="userSpaceOnUse"><stop offset="0.28" stop-color="#fff"/><stop offset="0.41" stop-color="#fbfbfb"/><stop offset="0.54" stop-color="#efefef"/><stop offset="0.67" stop-color="#dadada"/><stop offset="0.8" stop-color="#bebebe"/><stop offset="0.93" stop-color="#9a9a9a"/><stop offset="0.95" stop-color="#949494"/></radialGradient><radialGradient id="New_Gradient_Swatch_1" cx="5881.19" cy="16487.87" r="5.25" gradientTransform="matrix(-0.12, 0.99, -0.99, -0.12, 17030.12, -3860.12)" gradientUnits="userSpaceOnUse"><stop offset="0.07" stop-color="#919191"/><stop offset="0.21" stop-color="#828283"/><stop offset="0.47" stop-color="#5c5c60"/><stop offset="0.83" stop-color="#1f1f27"/><stop offset="1" stop-color="#00000a"/></radialGradient><radialGradient id="radial-gradient-3" cx="64.74" cy="43.22" fy="34.74744746936601" r="78.16" gradientTransform="translate(0 10.62) scale(1 0.75)" gradientUnits="userSpaceOnUse"><stop offset="0.09" stop-color="#ff54b5"/><stop offset="0.31" stop-color="#fc53b4"/><stop offset="0.45" stop-color="#f34eb2"/><stop offset="0.57" stop-color="#e446ad"/><stop offset="0.69" stop-color="#cf3ca7"/><stop offset="0.79" stop-color="#b32e9f"/><stop offset="0.87" stop-color="#961f96"/></radialGradient><radialGradient id="New_Gradient_Swatch_12" cx="5.74" cy="43.19" r="0.04" gradientUnits="userSpaceOnUse"><stop offset="0.09" stop-color="#ff54b5"/><stop offset="0.38" stop-color="#fd53b4"/><stop offset="0.54" stop-color="#f54fb2"/><stop offset="0.66" stop-color="#e748ae"/><stop offset="0.77" stop-color="#d33ea8"/><stop offset="0.87" stop-color="#ba31a1"/><stop offset="0.96" stop-color="#9b2298"/><stop offset="0.98" stop-color="#961f96"/></radialGradient><radialGradient id="New_Gradient_Swatch_12-2" cx="5.83" cy="43.37" r="0.11" xlink:href="#New_Gradient_Swatch_12"/><radialGradient id="New_Gradient_Swatch_12-3" cx="5.51" cy="42.76" r="0.17" xlink:href="#New_Gradient_Swatch_12"/><radialGradient id="New_Gradient_Swatch_12-4" cx="5.67" cy="43.06" r="0.07" xlink:href="#New_Gradient_Swatch_12"/><radialGradient id="New_Gradient_Swatch_12-5" cx="5.29" cy="42.3" r="0.2" xlink:href="#New_Gradient_Swatch_12"/><radialGradient id="New_Gradient_Swatch_12-6" cx="5.16" cy="42.05" r="0" xlink:href="#New_Gradient_Swatch_12"/><radialGradient id="radial-gradient-4" cx="75.55" cy="4.67" r="0" gradientUnits="userSpaceOnUse"><stop offset="0.09" stop-color="#ff54b5"/><stop offset="0.38" stop-color="#fd53b4"/><stop offset="0.55" stop-color="#f54fb2"/><stop offset="0.68" stop-color="#e748ae"/><stop offset="0.79" stop-color="#d33ea8"/><stop offset="0.89" stop-color="#ba31a1"/><stop offset="0.99" stop-color="#9b2298"/><stop offset="1" stop-color="#961f96"/></radialGradient><symbol id="Wisdom_Body_1" data-name="Wisdom_Body_1" viewBox="0 0 199.72 121.79"><path class="cls-1" d="M26.32,14.6A36.11,36.11,0,0,1,9.43,20.29c-1.63.09-3.57-.14-4.37-1.7a4,4,0,0,1,.56-3.95,15.59,15.59,0,0,1,3-2.72A2.28,2.28,0,0,0,9.64,10,1.87,1.87,0,0,0,8.59,8.74,13.29,13.29,0,0,0,4.76,7.68,5.53,5.53,0,0,1,1.27,5.8C.44,4.67.41,2.74,1.53,2a3.48,3.48,0,0,1,1.8-.47L19.75.37"/><path class="cls-2" d="M26.32,14.6a48.2,48.2,0,0,0-4.54,1.79c-.25.11-.62.28-1.08.47-.24.1-.49.21-.77.31-.58.23-1.34.51-2.07.75A37.9,37.9,0,0,1,13,19.17c-.86.17-1.75.28-2.63.38a10.47,10.47,0,0,1-2.56,0,2.86,2.86,0,0,1-1.9-.94,2.34,2.34,0,0,1-.43-1.88,5.34,5.34,0,0,1,2.13-3.18l1.35-1.08a4.77,4.77,0,0,0,1-1.13,2.24,2.24,0,0,0,.35-1.12,1.89,1.89,0,0,0,0-.44,2.23,2.23,0,0,0-.87-1.31A7.44,7.44,0,0,0,6.3,7.3,9.16,9.16,0,0,1,2.44,6,2.58,2.58,0,0,1,1.38,4.36a1.91,1.91,0,0,1,.48-1.81c.4-.38,1.31-.37,2.24-.44l2.71-.18,5.1-.35,3-.21a18,18,0,0,0,4.84-1A18.19,18.19,0,0,0,14.82.05l-3,.2L6.72.59,4,.78c-.46,0-.89,0-1.41.11A3.11,3.11,0,0,0,1,1.51,2.72,2.72,0,0,0,.11,3a3.89,3.89,0,0,0,0,1.59A4,4,0,0,0,1.63,7.1,10.12,10.12,0,0,0,6,8.6a6.3,6.3,0,0,1,2.55.93c.42.35.37.53.39.53s.11.17-.15.61a3.11,3.11,0,0,1-.75.8L6.73,12.55a9.32,9.32,0,0,0-1.55,1.58,5.49,5.49,0,0,0-1,2.42,3.7,3.7,0,0,0,.71,2.92,4.23,4.23,0,0,0,2.74,1.42,12,12,0,0,0,2.88,0c.93-.1,1.86-.22,2.75-.39a42.07,42.07,0,0,0,5.07-1.3c.75-.25,1.54-.54,2.14-.78.29-.1.55-.22.79-.32.49-.2.87-.38,1.12-.49A11.13,11.13,0,0,0,26.32,14.6Z"/><path class="cls-1" d="M173.4,14.6a36.14,36.14,0,0,0,16.89,5.69c1.63.09,3.58-.14,4.38-1.7a4,4,0,0,0-.57-3.95,15.53,15.53,0,0,0-2.95-2.72A2.24,2.24,0,0,1,190.09,10a1.86,1.86,0,0,1,1-1.23A13.27,13.27,0,0,1,195,7.68a5.5,5.5,0,0,0,3.48-1.88c.84-1.13.86-3.06-.25-3.84a3.53,3.53,0,0,0-1.8-.47L180,.37"/><path class="cls-2" d="M173.4,14.6a11.31,11.31,0,0,0,4,3l1.12.49c.24.1.5.22.79.32.6.24,1.39.53,2.14.78a42.07,42.07,0,0,0,5.07,1.3c.9.17,1.82.29,2.75.39a12,12,0,0,0,2.88,0,4.28,4.28,0,0,0,2.75-1.42,3.73,3.73,0,0,0,.7-2.92,5.48,5.48,0,0,0-1-2.42A9.75,9.75,0,0,0,193,12.55l-1.35-1.08a3.3,3.3,0,0,1-.75-.8.79.79,0,0,1-.15-.61s0-.18.39-.53a6.37,6.37,0,0,1,2.55-.93,10.08,10.08,0,0,0,4.41-1.5,4,4,0,0,0,1.57-2.51,4.07,4.07,0,0,0,0-1.59,2.8,2.8,0,0,0-.92-1.49,3.11,3.11,0,0,0-1.58-.62c-.51-.06-1-.08-1.41-.11L193,.59,187.9.25l-3-.2A18.14,18.14,0,0,0,180,.37a17.8,17.8,0,0,0,4.83,1l3,.21,5.1.35,2.71.18c.93.07,1.84.06,2.25.44a1.94,1.94,0,0,1,.48,1.81A2.62,2.62,0,0,1,197.29,6a9.25,9.25,0,0,1-3.86,1.26,7.43,7.43,0,0,0-3.12,1.19,2.12,2.12,0,0,0-.86,1.31,1.38,1.38,0,0,0,0,.44,2.24,2.24,0,0,0,.35,1.12,4.38,4.38,0,0,0,1,1.13l1.34,1.08a5.34,5.34,0,0,1,2.13,3.18,2.37,2.37,0,0,1-.42,1.88,2.91,2.91,0,0,1-1.91.94,10.39,10.39,0,0,1-2.55,0c-.89-.1-1.77-.21-2.64-.38a38.32,38.32,0,0,1-4.89-1.25c-.73-.24-1.49-.52-2.07-.75-.28-.1-.53-.21-.76-.31-.47-.19-.84-.36-1.09-.47A48.2,48.2,0,0,0,173.4,14.6Z"/><path class="cls-1" d="M79.94,96.77c-2.74,5.63-5.68,13.78-6.51,20-.22,1.6-.1,3.66,1.37,4.22s2.86-.9,3.62-2.28,1.62-3,3.15-3.25a3.66,3.66,0,0,1,3.13,1.78,15.46,15.46,0,0,0,2.31,3c1,.79,2.58,1,3.38,0a3.53,3.53,0,0,0,.54-2.16,68.64,68.64,0,0,0-2.78-21"/><path class="cls-2" d="M79.94,96.77A14.83,14.83,0,0,0,77.33,101c-.1.26-.26.64-.45,1.12-.09.24-.2.51-.31.79-.24.64-.55,1.49-.84,2.29a62.59,62.59,0,0,0-2.92,11.21,7.88,7.88,0,0,0,0,3.13,3.25,3.25,0,0,0,.82,1.52,2.56,2.56,0,0,0,1.64.74,2.94,2.94,0,0,0,1.6-.44,5,5,0,0,0,1.09-.92,9,9,0,0,0,1.32-2,4.73,4.73,0,0,1,1.84-2.17,1.56,1.56,0,0,1,.62-.16H82a1,1,0,0,1,.23,0,2.53,2.53,0,0,1,.65.28,6.41,6.41,0,0,1,2,2.23,9.85,9.85,0,0,0,1.49,1.88,3.68,3.68,0,0,0,2.81,1,2.48,2.48,0,0,0,1.63-.76,3,3,0,0,0,.72-1.61,10.13,10.13,0,0,0,.09-1.52c0-.49,0-1,0-1.47a70.79,70.79,0,0,0-1-11.49c-.24-1.33-.46-2.43-.59-3a14.4,14.4,0,0,0-1.86-4.6,25,25,0,0,0,.56,4.88c.12.54.34,1.61.57,2.92a67.12,67.12,0,0,1,1,11.26v1.45a9.05,9.05,0,0,1-.08,1.33c-.12.81-.51,1.19-1.15,1.25-1.4.12-2.35-1.17-3.07-2.31a12.24,12.24,0,0,0-1.15-1.59,5.46,5.46,0,0,0-1.24-1,3.66,3.66,0,0,0-1-.43,1.9,1.9,0,0,0-.4-.06,3.24,3.24,0,0,0-.41,0,3,3,0,0,0-1.14.28,6.11,6.11,0,0,0-2.43,2.73A8.42,8.42,0,0,1,77,119.54a2.34,2.34,0,0,1-1.64.91,1.41,1.41,0,0,1-1.24-1.26,6.47,6.47,0,0,1,0-2.6,61,61,0,0,1,2.86-11c.28-.79.59-1.62.83-2.25l.3-.78.44-1.11A23,23,0,0,0,79.94,96.77Z"/><path class="cls-1" d="M121.11,96.4c2.74,5.63,4.94,14.15,5.77,20.38.21,1.6.1,3.66-1.37,4.22s-2.87-.9-3.63-2.28-1.61-3-3.15-3.25a3.63,3.63,0,0,0-3.12,1.78,15.9,15.9,0,0,1-2.32,3c-1,.79-2.58,1-3.37,0a3.4,3.4,0,0,1-.54-2.16,68.63,68.63,0,0,1,2.77-21"/><path class="cls-2" d="M121.11,96.4a29.06,29.06,0,0,0,1.25,4.74c.09.26.23.65.39,1.13.08.24.17.51.27.79.21.64.47,1.49.71,2.3a82,82,0,0,1,2.43,11.13,7.28,7.28,0,0,1,0,2.63c-.18.79-.63,1.27-1.21,1.33a2.2,2.2,0,0,1-1.65-.86,7.6,7.6,0,0,1-1.15-1.72,6.25,6.25,0,0,0-2.39-2.76,2.78,2.78,0,0,0-1.55-.31,2,2,0,0,0-.4.06,3.2,3.2,0,0,0-1,.41,5.19,5.19,0,0,0-1.26,1,11.57,11.57,0,0,0-1.17,1.6c-.73,1.14-1.66,2.45-3.07,2.35-.65,0-1.05-.42-1.18-1.22a24.63,24.63,0,0,1-.08-2.78A69.56,69.56,0,0,1,111,105c.23-1.31.45-2.38.57-2.92a23.51,23.51,0,0,0,.56-4.88,14.4,14.4,0,0,0-1.86,4.6c-.12.54-.35,1.64-.59,3a71.17,71.17,0,0,0-1,11.52c0,.49,0,1,0,1.47a10.33,10.33,0,0,0,.1,1.53,2.85,2.85,0,0,0,.75,1.61,2.49,2.49,0,0,0,1.64.72,3.72,3.72,0,0,0,2.8-1.06,10.46,10.46,0,0,0,1.48-1.89,6.18,6.18,0,0,1,2-2.22,2.2,2.2,0,0,1,.65-.26,1.31,1.31,0,0,1,.23,0,1.56,1.56,0,0,1,.85.18,5.08,5.08,0,0,1,1.83,2.21,8.91,8.91,0,0,0,1.34,2,4.86,4.86,0,0,0,1.12.9,2.74,2.74,0,0,0,1.63.37,2.48,2.48,0,0,0,1.61-.81,3.43,3.43,0,0,0,.76-1.54,8.19,8.19,0,0,0,0-3.12A83,83,0,0,0,125,105c-.24-.81-.51-1.68-.73-2.33l-.26-.81c-.18-.49-.32-.88-.41-1.15A13.09,13.09,0,0,0,121.11,96.4Z"/></symbol><symbol id="Wisdom_Body_MASTER_1_3" data-name="Wisdom_Body_MASTER_1 3" viewBox="0 0 168.36 135.63"><path class="cls-3" d="M67.62,135l2.69-1.28a6.47,6.47,0,0,0,2-7.39l0-.16a20,20,0,0,0,7.05-9.27c1.59-4,2.43-11.21,3.1-16.12,1,.15,3,.53,4,.59.49,4.82,1.25,11.38,2.88,15.53a20,20,0,0,0,7.2,9.36v0l-.06.26-.08-.08A6.79,6.79,0,0,0,101,135l2,.31c4-1.09,6.3-4.16,5.42-7.23h-.07l0-.17c4-.51,7.61-3.31,9.89-6.79,2.57-3.91,3.73-8.59,4.67-13.2a181.35,181.35,0,0,0,3.53-41.13L136.22,72a142.44,142.44,0,0,1,16,14.09,30,30,0,0,0,3.71,3c0-13.24,6.07-44.94,11-54.87-17.65-2.48-30.19-9.3-30.17-9.71-3-1.86-13.67-6.55-16.55-13.32-.51-.73-4.5-9.57-5-10.29l-.39-.06C98.7,15.9,71.92,14.64,53.22,1.35l-1.35-.29c-.27,1.26-3,8.93-3.38,9.73l0,0-3.8,4.87c-4.63,4.62-11.75,10-29.4,15.48l-13.78,3C2.91,38.33,6.94,46,7,51.84c0,.59,4.14,22.33,6.07,36.67a77.07,77.07,0,0,1,22-17.9l7.32-3.52A174,174,0,0,0,45.82,108c.94,4.61,2.1,9.29,4.66,13.2,2.27,3.46,5.85,6.22,9.83,6.76,0,.06,0,.12,0,.19s0,.12,0,.18c-.76,3,2.42,5.8,4.83,6.91Z"/><path class="cls-2" d="M115.36.65a21,21,0,0,0,1.53,4.69c.11.25.29.62.5,1.09l.36.76c.42.88.86,1.8,1.3,2.74l.35.7,0,.07h0l-.35.22-.73.46a64,64,0,0,1-28.3,9.8c-1.29.08-2.56.2-3.83.23H82.46l-3.67-.26c-1.2-.09-2.43-.23-3.59-.32A47.66,47.66,0,0,1,63,18.15a44.4,44.4,0,0,1-7.84-3.66c-1.78-1.06-2.72-1.75-2.72-1.75s-.13-.07-1-.71c-.42-.31-1-.77-1.85-1.46-.3-.26-.21-.18-.23-.19h0l0-.12c.07-.16.13-.33.19-.5l.86-2.33c.2-.58.72-2,1.44-4.17.18-.54.37-1.12.56-1.75h5.86l25-.08,27.09-.08a18,18,0,0,0,4.89-.68,17.72,17.72,0,0,0-4.9-.65L83.38.08l-25,.07-4.79,0H51.48a9.29,9.29,0,0,0-.27.94c-.18.61-.37,1.18-.55,1.71C50,5,49.43,6.4,49.23,7l-.85,2.32-.18.48c-.05.12-.09.23-.14.34s-.12.3-.19.45-.08.15-.07.21l.18.15.34.3.43.36c.86.72,1.48,1.19,1.92,1.52.88.65,1,.72,1,.72s1,.72,2.8,1.81a46,46,0,0,0,8.07,3.77,48.59,48.59,0,0,0,12.53,2.75l3.58.32,3.75.27h3.85c1.3,0,2.61-.16,3.92-.24a65.39,65.39,0,0,0,28.89-10l.73-.46.36-.23.73-.44a1.42,1.42,0,0,0,.34-.22l-.21-.37-.38-.67-.39-.78L119,6.62l-.36-.76c-.22-.46-.39-.84-.51-1.08A15.77,15.77,0,0,0,115.36.65Z"/><path class="cls-2" d="M49.92,7.84A14,14,0,0,0,53.78,11l1.07.59.75.39c.64.33,1.5.75,2.31,1.13s1.72.78,2.63,1.15l2.87,1,2.94,1.05c1,.32,2,.61,3,.86A54.86,54.86,0,0,0,80.3,18.73c2.93.14,4.82.06,4.82.06s1.89,0,4.81-.29a64.06,64.06,0,0,0,10.84-2.07A60.49,60.49,0,0,0,112,11.94c1.22-.61,2.19-1.14,2.68-1.41a14.6,14.6,0,0,0,3.88-3.09,23.5,23.5,0,0,0-4.52,1.93c-.48.26-1.45.78-2.64,1.38a59.82,59.82,0,0,1-11,4.4,62.51,62.51,0,0,1-10.61,2c-2.85.29-4.7.3-4.7.3s-1.85.07-4.72-.07A53.81,53.81,0,0,1,69.7,15.85c-1-.25-2-.53-3-.84l-2.89-1-2.81-1c-.9-.36-1.76-.74-2.57-1.12s-1.64-.79-2.27-1.11l-.73-.38-1-.57A24.9,24.9,0,0,0,49.92,7.84Z"/><path class="cls-2" d="M48.72,11c-.69.56-1.24,1-1.77,1.54a19.08,19.08,0,0,0-1.83,1.75c-.18.2-.5.46-.86.8l-.61.56-.39.37a6,6,0,0,1-.54.46l-1.13.91c-.75.63-1.57,1.21-2.42,1.8A82.22,82.22,0,0,1,14.36,30.5c-2.25.62-4.51,1.12-6.72,1.53l-3.3.52L.38,33A2,2,0,0,0,0,33l.17.36.35.71.48,1,.62,1.4c.38.92.77,1.83,1.09,2.73.67,1.78,1.22,3.49,1.7,5.07,1,3.16,1.61,5.8,2,7.65s.66,2.89.66,2.89.21,1,.6,2.9.87,4.54,1.4,7.81,1.08,7.13,1.62,11.35c.25,2.11.51,4.31.77,6.57.11,1.12.23,2.27.35,3.42.08.85.17,1.69.25,2.54l.18,1.76L13.21,90l.94-1.23.47-.63.28-.34L16,86.41c.78-.88,1.55-1.78,2.37-2.62A60.77,60.77,0,0,1,23.51,79,67.8,67.8,0,0,1,29,74.87c.93-.62,1.84-1.23,2.76-1.79.47-.27.92-.55,1.37-.82l1.27-.71c1.16-.67,2.14-1.14,2.62-1.41a22.69,22.69,0,0,0,4.14-2.66A14.86,14.86,0,0,0,36.38,69c-.49.26-1.49.74-2.67,1.42l-1.29.72L31,72c-.94.56-1.88,1.18-2.82,1.81C26.33,75,24.48,76.45,22.66,78a62.05,62.05,0,0,0-5.24,4.91c-.84.86-1.62,1.77-2.42,2.67l-1.14,1.39-.28.35-.06.08-.13.17-.13.17h0s0,0,0-.07l-.09-.87c-.11-1.16-.23-2.31-.35-3.44-.26-2.26-.52-4.47-.77-6.58-.54-4.24-1.09-8.12-1.63-11.41s-1.05-6-1.41-7.85-.6-2.92-.6-2.92-.24-1-.66-2.92-1.1-4.52-2.06-7.73c-.48-1.59-1-3.33-1.73-5.15-.32-.91-.71-1.84-1.11-2.79l-.63-1.43L2,34.14H2l2.51-.26,3.35-.53c2.26-.43,4.55-.93,6.84-1.56A84,84,0,0,0,39.94,20.25c.87-.61,1.71-1.21,2.48-1.86.4-.31.78-.62,1.16-.93a6.44,6.44,0,0,0,.56-.48l.4-.38c.23-.2.44-.4.63-.58.38-.36.7-.63.89-.84a15.3,15.3,0,0,0,1.64-2.06A19.72,19.72,0,0,0,48.72,11Z"/><path class="cls-2" d="M44.26,45.1A17.05,17.05,0,0,0,43,49.88c0,.27-.08.69-.14,1.2,0,.25-.06.53-.1.84s0,.48-.08.73l-.09.84c0,.57-.1,1.15-.16,1.75C42,60,41.66,65.67,41.65,71.09s.23,10.58.52,14.38c.15,1.9.28,3.46.41,4.55l.17,1.7s.26,2.45.8,6.22,1.37,8.87,2.68,14.16a33,33,0,0,0,2.93,7.75,18.38,18.38,0,0,0,5.1,6A14.85,14.85,0,0,0,57,127.4a7.18,7.18,0,0,0,5,.41,28.55,28.55,0,0,1-4.47-1.62,13.41,13.41,0,0,1-2.46-1.46,15.79,15.79,0,0,1-2.56-2.4,18.07,18.07,0,0,1-2.16-3.13,32.26,32.26,0,0,1-2.81-7.43c-1.28-5.19-2.09-10.28-2.65-14s-.8-6.18-.8-6.18S44,91,43.9,89.89s-.26-2.63-.4-4.52c-.29-3.78-.54-8.9-.52-14.28s.31-11,.74-15.73c.06-.59.11-1.17.16-1.74,0-.28.06-.56.08-.83l.09-.73c0-.3.06-.58.09-.83.06-.51.11-.92.14-1.19A19.37,19.37,0,0,0,44.26,45.1Z"/><path class="cls-2" d="M69.3,127.59a8.25,8.25,0,0,0,4.65-1.9,16.92,16.92,0,0,0,1.58-1.46,20.88,20.88,0,0,0,3.2-4.39,24.59,24.59,0,0,0,1.46-3.12s.48-1.21.92-2.8a42.13,42.13,0,0,0,1.07-5c.25-1.56.36-2.52.42-3a16.19,16.19,0,0,0-.07-4.38l-.27,0,.28.49c0-.2,0-.39,0-.56l-.27,0a19.26,19.26,0,0,0-1,4.26c-.06.49-.18,1.45-.42,3a42.14,42.14,0,0,1-1,4.81,27.57,27.57,0,0,1-.88,2.69,22.92,22.92,0,0,1-1.38,3,20.35,20.35,0,0,1-3,4.11,17.19,17.19,0,0,1-1.46,1.36C71.58,125.88,70.74,126.59,69.3,127.59Z"/><path class="cls-2" d="M74.49,98.26a12.58,12.58,0,0,0,4.46,2.2c.34.08.89.25,2.06.49.84.17,2.28.43,3.51.55.62.08,1.18.12,1.59.14l.67,0s.86,0,2,.06,2.43-.06,3.37-.15c1.58-.15,2.55-.32,3.06-.4a12.41,12.41,0,0,0,4.64-1.8,32.59,32.59,0,0,0-4.87.5c-.49.06-1.42.23-2.94.37-.92.08-2.2.14-3.26.15l-1.88,0-.65,0c-.39,0-.94-.07-1.53-.14-1.19-.12-2.58-.37-3.39-.54-1.13-.23-1.66-.39-2-.46A32,32,0,0,0,74.49,98.26Z"/><path class="cls-2" d="M60.45,127.9a4.24,4.24,0,0,0,.57,5,8.58,8.58,0,0,0,1.66,1.52,11.19,11.19,0,0,0,1.15.69l.35.17a1.22,1.22,0,0,0,.27.09l.2,0c.27.05.53.12.79.16a7.94,7.94,0,0,0,1.34,0l.56,0,.46-.09.51-.11.61-.22a7.15,7.15,0,0,0,4.15-4.3,5.18,5.18,0,0,0-.54-4.61l-.19,0a2.12,2.12,0,0,1-.11.21s0,.07,0,.11,0,.13,0,.1.06-.1.09-.14l.18-.12-.19,0a9.86,9.86,0,0,1-.49,4.11,5.63,5.63,0,0,1-1.46,2.25,5.49,5.49,0,0,1-1.92,1.24l-.49.18-.41.09-.38.07-.46,0a5.86,5.86,0,0,1-1.08,0l-.64-.14-.17,0-.07,0-.31-.14a9.46,9.46,0,0,1-1-.6A7.76,7.76,0,0,1,62,132a7.51,7.51,0,0,1-1.19-1.95A5,5,0,0,1,60.45,127.9Z"/><path class="cls-2" d="M82.65,22.24A18.07,18.07,0,0,0,82,27.13c0,4.62,0,27.76,0,27.76s0,22.1,0,26.52a17.62,17.62,0,0,0,.67,4.89,17.72,17.72,0,0,0,.65-4.9c0-4.41,0-26.52,0-26.52s0-23.13,0-27.75A18,18,0,0,0,82.65,22.24Z"/><path class="cls-2" d="M87.41,22.24a18,18,0,0,0-.66,4.89V81.41a18.07,18.07,0,0,0,.66,4.89,18.07,18.07,0,0,0,.66-4.89V27.13A18,18,0,0,0,87.41,22.24Z"/><path class="cls-2" d="M124.68,45.1a18.94,18.94,0,0,0,0,4.94c0,.27.07.68.13,1.19,0,.25.06.53.1.83s0,.48.08.73,0,.55.08.83c0,.57.11,1.15.16,1.74.44,4.74.73,10.36.74,15.73s-.23,10.5-.51,14.28c-.15,1.89-.28,3.44-.4,4.52s-.18,1.68-.18,1.68-.25,2.43-.8,6.18-1.37,8.83-2.65,14a31.37,31.37,0,0,1-2.81,7.43,18,18,0,0,1-2.15,3.13,16.26,16.26,0,0,1-2.57,2.4,13.42,13.42,0,0,1-2.45,1.46,28.65,28.65,0,0,1-4.48,1.62,7.18,7.18,0,0,0,5-.41,14.84,14.84,0,0,0,2.71-1.59,18.47,18.47,0,0,0,5.09-6,33,33,0,0,0,2.93-7.75c1.31-5.29,2.12-10.38,2.68-14.16s.8-6.22.8-6.22.06-.61.18-1.7.25-2.65.4-4.55c.29-3.8.55-9,.52-14.38S127,60,126.55,55.24c0-.6-.11-1.18-.16-1.75,0-.28-.06-.56-.08-.84l-.09-.73c0-.31-.07-.59-.1-.84-.06-.51-.1-.93-.14-1.2A16.72,16.72,0,0,0,124.68,45.1Z"/><path class="cls-2" d="M99.65,127.59c-1.44-1-2.29-1.71-3.82-2.92a17.73,17.73,0,0,1-1.45-1.36,20.35,20.35,0,0,1-3-4.11,22.92,22.92,0,0,1-1.38-3,25.91,25.91,0,0,1-.89-2.69,44.4,44.4,0,0,1-1-4.81c-.24-1.52-.35-2.48-.42-3a18.72,18.72,0,0,0-1-4.26l-.27,0c0,.17,0,.36,0,.56l.29-.49-.27,0a15.42,15.42,0,0,0-.07,4.38c.06.51.17,1.47.41,3a44.25,44.25,0,0,0,1.07,5,28.64,28.64,0,0,0,.93,2.8,23.65,23.65,0,0,0,1.45,3.12,21.24,21.24,0,0,0,3.2,4.39A15.34,15.34,0,0,0,95,125.69,8.25,8.25,0,0,0,99.65,127.59Z"/><path class="cls-2" d="M108.5,127.9a5.36,5.36,0,0,1-.4,2.19,7.87,7.87,0,0,1-1.2,1.95,7.06,7.06,0,0,1-1.4,1.27,9.46,9.46,0,0,1-1,.6l-.3.14-.08,0-.16,0-.64.14a6,6,0,0,1-1.09,0l-.45,0a2.1,2.1,0,0,1-.38-.07l-.41-.09-.49-.18a5.44,5.44,0,0,1-1.93-1.24,5.63,5.63,0,0,1-1.46-2.25,10,10,0,0,1-.49-4.11l-.19,0,.18.12s.17.12.1.14.06-.07,0-.1a.54.54,0,0,0-.05-.11l-.11-.21-.19,0a5.21,5.21,0,0,0-.54,4.61,6.9,6.9,0,0,0,1.78,2.78,7,7,0,0,0,2.37,1.52l.61.22.51.11.47.09.56,0a8,8,0,0,0,1.34,0c.25,0,.52-.11.78-.16l.2,0a1.07,1.07,0,0,0,.27-.09l.35-.17a10.19,10.19,0,0,0,1.15-.69,8.26,8.26,0,0,0,1.66-1.52A4.22,4.22,0,0,0,108.5,127.9Z"/><path class="cls-2" d="M51.2,3.7A15.14,15.14,0,0,0,55,6.91L56,7.54l.73.42c.61.32,1.39.79,2.17,1.17,1.55.83,3.31,1.62,5.13,2.39a58.8,58.8,0,0,0,5.7,1.94,49,49,0,0,0,10.45,1.71c1.41.06,2.57.1,3.37.06l1.25,0s1.82,0,4.61-.33a67.4,67.4,0,0,0,10.38-2,53,53,0,0,0,10.85-4.19c1.21-.65,2.17-1.24,2.64-1.56s.8-.57,1.14-.83a12,12,0,0,0,.88-.86,10.83,10.83,0,0,0,1.42-1.93c-.78.43-1.36.83-2,1.18-.33.18-.65.39-1,.61s-.74.44-1.15.72-1.37.86-2.54,1.49a51.35,51.35,0,0,1-10.57,4.08,65.46,65.46,0,0,1-10.18,1.94c-2.73.29-4.5.32-4.5.32l-1.23,0c-.78,0-1.91,0-3.28-.07a48.12,48.12,0,0,1-10.17-1.67,53.94,53.94,0,0,1-5.54-1.89c-1.79-.75-3.5-1.53-5-2.34-.75-.37-1.53-.82-2.12-1.14l-.73-.42-1-.6A22.22,22.22,0,0,0,51.2,3.7Z"/><circle id="SVGID" class="cls-4" cx="56.45" cy="30.03" r="5.23"/><circle id="SVGID-2" data-name="SVGID" class="cls-5" cx="54.57" cy="43.11" r="5.23"/><path class="cls-2" d="M10.19,34a21.71,21.71,0,0,0,1,4.81c.11.33.31.85.65,2,.78,2.39,1.93,6.48,2.79,10s1.47,6.43,1.47,6.43.52,2.45,1.09,5.59,1.16,7,1.51,9.73c.2,1.54.29,2.49.34,3a22.75,22.75,0,0,0,1,4.81,15,15,0,0,0,.28-4.94c0-.51-.14-1.47-.34-3-.34-2.77-.94-6.64-1.52-9.8s-1.1-5.62-1.1-5.62-.6-2.94-1.47-6.48-2-7.66-2.82-10.08c-.35-1.12-.55-1.64-.66-2A15.29,15.29,0,0,0,10.19,34Z"/><path class="cls-2" d="M119.64,11a21.76,21.76,0,0,0,1,2.16,15.3,15.3,0,0,0,1.64,2.06c.19.21.51.48.89.84.19.18.4.38.63.58l.41.38a5.11,5.11,0,0,0,.55.48l1.16.93c.77.65,1.62,1.25,2.48,1.86a84,84,0,0,0,25.23,11.54c2.29.63,4.59,1.13,6.84,1.56l3.36.53,2.5.26h0l-.19.41c-.22.48-.43,1-.64,1.43-.39,1-.78,1.88-1.11,2.79-.69,1.82-1.24,3.56-1.73,5.15-1,3.21-1.62,5.87-2.05,7.73s-.66,2.92-.66,2.92-.22,1-.6,2.92-.89,4.57-1.41,7.85-1.1,7.17-1.64,11.41c-.25,2.11-.51,4.32-.77,6.58-.11,1.13-.23,2.28-.35,3.44l-.09.87c0,.1,0,.07,0,.07h0l-.13-.17-.13-.17-.07-.08-.28-.35-1.14-1.39c-.79-.9-1.58-1.81-2.42-2.67A63.5,63.5,0,0,0,145.71,78c-1.82-1.51-3.68-2.93-5.56-4.2-.94-.63-1.87-1.25-2.81-1.81l-1.4-.85-1.28-.72c-1.18-.68-2.19-1.16-2.68-1.42a14.8,14.8,0,0,0-4.73-1.48,22.6,22.6,0,0,0,4.13,2.66c.48.27,1.47.74,2.63,1.41l1.26.71,1.37.83c.92.55,1.84,1.16,2.76,1.78A64.43,64.43,0,0,1,144.85,79a59.27,59.27,0,0,1,5.12,4.8c.83.84,1.6,1.74,2.38,2.62l1.11,1.36.28.34.47.63.95,1.23.93,1.23.18-1.76c.09-.85.17-1.69.26-2.54.12-1.15.23-2.3.35-3.42.26-2.26.52-4.46.76-6.57.54-4.22,1.09-8.08,1.63-11.35s1-6,1.4-7.81.6-2.9.6-2.9.23-1,.65-2.89,1.08-4.49,2-7.65c.48-1.58,1-3.29,1.71-5.07.32-.9.7-1.81,1.08-2.73.21-.46.42-.93.62-1.4s.33-.67.49-1l.34-.71.17-.36A2,2,0,0,0,168,33l-4-.43L160.73,32c-2.22-.41-4.47-.91-6.73-1.53a82.34,82.34,0,0,1-24.81-11.35c-.84-.59-1.67-1.17-2.42-1.8l-1.13-.91a5.82,5.82,0,0,1-.53-.46l-.4-.37c-.21-.2-.42-.38-.6-.56-.37-.34-.68-.6-.87-.8a18,18,0,0,0-1.83-1.75C120.88,12,120.33,11.52,119.64,11Z"/><path class="cls-2" d="M158.17,34a15.81,15.81,0,0,0-2.3,4.39c-.1.33-.31.85-.65,2-.8,2.42-2,6.54-2.82,10.08s-1.47,6.48-1.47,6.48-.53,2.46-1.11,5.62-1.17,7-1.52,9.8c-.2,1.56-.29,2.52-.34,3a14.71,14.71,0,0,0,.29,4.94,22.76,22.76,0,0,0,1-4.81c.06-.5.15-1.45.35-3,.34-2.75.93-6.59,1.5-9.73s1.09-5.59,1.09-5.59.6-2.92,1.47-6.43,2-7.6,2.8-10c.34-1.11.54-1.63.64-2A21.16,21.16,0,0,0,158.17,34Z"/><path class="cls-6" d="M157.48,123.06"/></symbol><symbol id="Wisdom_Head1" data-name="Wisdom_Head1" viewBox="0 0 126.51 95.46"><path class="cls-7" d="M126,22.85C125.59,7,108.59,1,96.93,1a33,33,0,0,0-5.85.78A26.23,26.23,0,0,0,85.37,4.4a22.67,22.67,0,0,0-3.56,2.71C78.2,5.22,62.55,1.84,44.29,6.94c-1.72-1.72-6.7-3.94-10-5a33.41,33.41,0,0,0-5.24-.68A37,37,0,0,0,13.59,4c-11,5-16,17-11.79,27.89.51,1.75,1.13,3.48,1.79,5.15a51.56,51.56,0,0,0,3.26,6.61c2.25,3.83,4.4,6.37,5.09,6.83.79,2.42,3,12.76,3.84,14.52s1.6,3.22,2.29,4.44A53.81,53.81,0,0,0,25.59,79a54.42,54.42,0,0,0,4.62,4.21C38.59,92,49.59,93,60.65,94.73a50.83,50.83,0,0,0,6.76,0,43.33,43.33,0,0,0,19.8-6.18c10.26-6.15,18.4-16.07,23.44-26.92.77-1.94,1.54-4,2.19-6.11a43.46,43.46,0,0,0,1.49-5.92c.84-.47,6-6.2,7.4-12.39a17.64,17.64,0,0,0,2.06-3.6,30.54,30.54,0,0,0,2.06-7.26A32.4,32.4,0,0,0,126,22.85Z"/><path class="cls-8" d="M5.71,43.15l0,.09Z"/><path class="cls-9" d="M5.88,43.46l-.12-.22C5.89,43.49,5.94,43.56,5.88,43.46Z"/><path class="cls-10" d="M5.41,42.55l.21.42Z"/><path class="cls-11" d="M5.62,43l.09.18Z"/><path class="cls-12" d="M5.41,42.55l-.24-.48v0Z"/><polygon class="cls-13" points="5.16 42.04 5.16 42.05 5.16 42.04 5.16 42.04"/><polygon class="cls-14" points="75.55 4.67 75.54 4.67 75.55 4.67 75.55 4.67"/><path class="cls-15" d="M16.74,3c9-5,24.88-1.51,30,7.37"/><path class="cls-15" d="M16.36,53.53C11,50.91,6.32,44.71,4,37.19"/><path class="cls-2" d="M16.74,3,21.47,1.9a14.69,14.69,0,0,1,2-.35,25.11,25.11,0,0,1,5.77-.1c1,.12,1.93.22,2.58.37L32.86,2l.24.06.65.18a20.42,20.42,0,0,1,2.15.67,25.34,25.34,0,0,1,4.93,2.37l1.51,1.07c.37.31.62.55.81.71,1.48,1.29,2.27,2,3.57,3.24A8.75,8.75,0,0,0,44,6.1c-.2-.17-.47-.44-.87-.76L41.55,4.19a26.12,26.12,0,0,0-5.2-2.5A22.62,22.62,0,0,0,34.09,1L33.41.8,33.15.74,32,.52c-.69-.16-1.65-.27-2.7-.4a26.07,26.07,0,0,0-6.08.11,15.34,15.34,0,0,0-2.1.38A9.35,9.35,0,0,0,16.74,3Z"/><path class="cls-2" d="M16.36,53.53l-3.59-3.26c-.24-.23-.66-.58-1.44-1.41-.31-.34-.84-.91-1.25-1.44s-.75-1-.75-1l-.6-.86c-.33-.49-.72-1.09-1-1.54C7,42.75,6.57,41.9,6.35,41.45A35.91,35.91,0,0,0,4,37.19,12.14,12.14,0,0,0,5.15,42c.23.47.64,1.36,1.46,2.73.26.46.67,1.09,1,1.6l.65.9s.33.47.77,1,1,1.16,1.32,1.52c.83.87,1.27,1.24,1.53,1.48A9.18,9.18,0,0,0,16.36,53.53Z"/><path class="cls-15" d="M109.05,3c-9-5-24.88-1.51-30,7.37"/><path class="cls-15" d="M121.84,37.19c-2.37,7.52-7.07,13.72-12.4,16.34"/><path class="cls-2" d="M109.05,3A9.35,9.35,0,0,0,104.63.61a15,15,0,0,0-2.1-.38A26.06,26.06,0,0,0,96.45.12c-1,.13-2,.24-2.69.4L92.64.74,92.39.8,91.71,1a21.83,21.83,0,0,0-2.26.71,26.49,26.49,0,0,0-5.21,2.5l-1.6,1.15c-.4.32-.68.59-.87.76a8.6,8.6,0,0,0-2.69,4.23c1.3-1.2,2.08-1.95,3.57-3.24.18-.16.44-.4.81-.71L85,5.31a25.62,25.62,0,0,1,4.93-2.37,21.24,21.24,0,0,1,2.16-.67l.65-.18L92.94,2,94,1.82c.65-.15,1.57-.25,2.57-.37a25.1,25.1,0,0,1,5.77.1,15.34,15.34,0,0,1,2,.35Z"/><path class="cls-2" d="M121.84,37.19a35.92,35.92,0,0,0-2.4,4.26c-.14.31-.38.81-.93,1.81-.23.4-.62,1.08-1,1.65s-.68,1-.68,1l-.62.85c-.37.46-.8,1-1.15,1.4a21.61,21.61,0,0,1-2.06,2.1l-3.58,3.26a9.15,9.15,0,0,0,4.46-2.27,22.07,22.07,0,0,0,2.19-2.21c.37-.39.82-1,1.2-1.47s.65-.9.65-.9.33-.47.71-1.06.79-1.29,1-1.71c.57-1,.81-1.57,1-1.89A12.17,12.17,0,0,0,121.84,37.19Z"/><path class="cls-2" d="M113.83,50.09a32.34,32.34,0,0,0-2.12,5.08l-.44,1.26c-.09.27-.2.56-.32.87s-.29.76-.44,1.15-.36.88-.54,1.32c-.36.9-.8,1.79-1.22,2.72A64.15,64.15,0,0,1,92.57,83.67a46.53,46.53,0,0,1-11.1,7,39.84,39.84,0,0,1-10.64,3,45.11,45.11,0,0,1-7.68.29c-.92,0-1.64-.09-2.13-.12l-.75,0s-1.05-.05-2.88-.31l-1.52-.19-1.78-.33c-1.28-.2-2.71-.57-4.27-1a49.17,49.17,0,0,1-10.35-4,49.78,49.78,0,0,1-15.35-12.7,50.48,50.48,0,0,1-4-5.61A55.43,55.43,0,0,1,17,63.72c-.46-1-.89-2-1.28-2.95-.19-.49-.4-1-.57-1.46s-.33-.9-.48-1.34c-.49-1.41-.83-2.59-1-3.17a34.1,34.1,0,0,0-1.9-5.17,14.63,14.63,0,0,0,.46,5.56c.16.61.52,1.82,1,3.27.16.45.33.91.49,1.37s.39,1,.59,1.5q.6,1.52,1.32,3a54.72,54.72,0,0,0,3.27,6A53,53,0,0,0,23,76.17,51.53,51.53,0,0,0,38.77,89.24a50.35,50.35,0,0,0,10.66,4.17c1.61.4,3.07.78,4.38,1l1.83.33,1.56.2c1.88.26,2.94.31,2.94.31l.77.06c.5,0,1.24.11,2.19.12a46.34,46.34,0,0,0,7.93-.3,41.53,41.53,0,0,0,11-3.11,48.28,48.28,0,0,0,11.46-7.19A65.36,65.36,0,0,0,110.1,63.13c.44-.94.88-1.86,1.25-2.77.19-.46.37-.91.56-1.36l.45-1.18c.12-.32.23-.62.32-.9l.44-1.29A14.68,14.68,0,0,0,113.83,50.09Z"/><path class="cls-2" d="M44,7.16a27,27,0,0,0,4.85-.72c.34-.07.87-.21,2-.44a64.89,64.89,0,0,1,6.69-.94c1.17-.1,2.25-.17,3-.19l1.27,0h1.07c.67,0,1.6,0,2.64,0A58.78,58.78,0,0,1,72,5.42c1.52.2,2.46.41,3,.48a26.19,26.19,0,0,0,4.88.49A13.57,13.57,0,0,0,75.15,4.6c-.5-.08-1.46-.3-3-.5a60.85,60.85,0,0,0-6.53-.57c-1.06,0-2,0-2.68,0h-1.1l-1.29,0c-.8,0-1.9.1-3.1.19a62.7,62.7,0,0,0-6.84,1c-1.15.23-1.7.38-2.05.45A13.5,13.5,0,0,0,44,7.16Z"/><path d="M60.51,30.53v7.15a.28.28,0,0,0,.56,0V30.53a.28.28,0,0,0-.56,0Z"/><path d="M66.77,37.68V30.53a.28.28,0,0,0-.56,0v7.15a.28.28,0,0,0,.56,0Z"/><path class="cls-2" d="M60.79,30.53c-.43.33-.65.56-.66,1v5.22c0,.4.23.63.66,1,.42-.34.65-.57.66-1V31.49C61.44,31.09,61.21,30.86,60.79,30.53Z"/><path class="cls-2" d="M60.51,30.53a18.07,18.07,0,0,0-.66,4.89c0,.35,0,.91,0,2.08v.17a.92.92,0,0,0,.22.61,1,1,0,0,0,.68.33.89.89,0,0,0,.61-.18.91.91,0,0,0,.36-.53,1.52,1.52,0,0,0,0-.24.25.25,0,0,1,0-.08v-3A16,16,0,0,0,61.55,32c0-.38-.12-.75-.2-1.13,0-.09,0-.18-.07-.28a.43.43,0,0,0-.24-.38c-.28-.15-.61.1-.53.34.06-.24.33-.2.36-.1s0,.05,0,.14l-.06.28c-.08.38-.15.75-.21,1.13a18.68,18.68,0,0,0-.18,2.57v3.11h.39c.05,0,0,0,0,0s0-.07,0-.06,0,.05,0,.07h.43V37.5c0-1.17,0-1.73,0-2.08A18.07,18.07,0,0,0,60.51,30.53Z"/><path class="cls-2" d="M66.49,37.68c.42-.34.65-.57.66-1V31.49c0-.4-.24-.63-.66-1-.43.33-.66.56-.67,1v5.22C65.83,37.11,66.06,37.34,66.49,37.68Z"/><path class="cls-2" d="M66.77,37.68a18.15,18.15,0,0,0,.66-4.9V30.54a.94.94,0,0,0-.21-.61.89.89,0,0,0-.69-.33.85.85,0,0,0-.61.17.93.93,0,0,0-.35.53.88.88,0,0,0,0,.24v3.11a18.57,18.57,0,0,0,.18,2.57c.06.38.12.75.21,1.13l.06.29a.51.51,0,0,0,.24.38c.28.15.62-.11.54-.34a.21.21,0,0,1-.37.09c0-.05,0-.05,0-.13s0-.2.07-.29c.08-.38.15-.75.2-1.13a17.13,17.13,0,0,0,.18-2.57V30.54h-.39s0,0,0,0,0,.07,0,.06,0,0,0-.07H66.1v2.24A17.75,17.75,0,0,0,66.77,37.68Z"/><ellipse class="cls-16" cx="20.06" cy="23.88" rx="19.71" ry="20.9"/><path class="cls-2" d="M.36,23.88c.26-.85.43-1.55.61-2.27.11-.36.2-.73.29-1.13s.16-.84.3-1.31c.06-.26.16-.65.28-1.14a6.2,6.2,0,0,1,.25-.77l.34-1a10.53,10.53,0,0,1,.47-1.11c.18-.36.32-.75.53-1.12l.63-1.1A19.38,19.38,0,0,1,7.41,8.79,18.21,18.21,0,0,1,12,5.56,18,18,0,0,1,23.32,4,18.55,18.55,0,0,1,33,9.06,20.15,20.15,0,0,1,38,17a21.52,21.52,0,0,1,1.13,6.41,15.74,15.74,0,0,1,0,1.81l0,.63s0,.22-.08.63-.12,1-.29,1.79a21.3,21.3,0,0,1-2.3,6.08A19.54,19.54,0,0,1,30,41.14a17.24,17.24,0,0,1-4.9,2.24,17,17,0,0,1-5.62.69,17.09,17.09,0,0,1-5.68-1.13,17.42,17.42,0,0,1-5-2.85A21.26,21.26,0,0,1,6.6,38.18,22.27,22.27,0,0,1,4.85,36a21.12,21.12,0,0,1-1.44-2.32c-.21-.39-.37-.8-.56-1.2l-.27-.59c-.05-.1-.08-.2-.12-.3l-.07-.22c-.21-.62-.43-1.17-.55-1.65s-.22-.88-.28-1.14a13.34,13.34,0,0,1-.3-1.31c-.09-.4-.18-.77-.29-1.13-.18-.72-.35-1.41-.61-2.26A16.11,16.11,0,0,0,0,26.24c0,.39,0,.79.05,1.23a6.79,6.79,0,0,0,.21,1.4c.07.28.17.7.29,1.21s.37,1.1.59,1.76l.08.23a1.75,1.75,0,0,0,.12.32l.29.63c.2.43.37.87.6,1.28a23.41,23.41,0,0,0,1.52,2.47,24.14,24.14,0,0,0,1.88,2.32,21.1,21.1,0,0,0,2.26,2,18.74,18.74,0,0,0,5.39,3,18.61,18.61,0,0,0,6.1,1.22,19.31,19.31,0,0,0,11.29-3.15A20.76,20.76,0,0,0,37.49,35a22.61,22.61,0,0,0,2.45-6.47c.18-.81.23-1.46.31-1.9s.08-.67.08-.67l0-.67c0-.44.1-1.09,0-1.92a22.66,22.66,0,0,0-1.21-6.81,21.38,21.38,0,0,0-5.27-8.45A19.82,19.82,0,0,0,23.56,2.65,19.26,19.26,0,0,0,11.42,4.37,19.05,19.05,0,0,0,6.49,7.82a20.55,20.55,0,0,0-3.57,4.43c-.23.39-.45.79-.67,1.17s-.38.8-.57,1.2a11,11,0,0,0-.5,1.18L.82,16.85a6.52,6.52,0,0,0-.27.82c-.12.52-.22.93-.29,1.21a6.88,6.88,0,0,0-.21,1.41c0,.43,0,.83,0,1.22A16.24,16.24,0,0,0,.36,23.88Z"/><ellipse class="cls-16" cx="106.45" cy="23.88" rx="19.71" ry="20.9"/><path class="cls-2" d="M126.15,23.88c-.26.85-.43,1.54-.61,2.26-.11.36-.2.73-.29,1.13a13.34,13.34,0,0,1-.3,1.31c-.06.26-.16.65-.28,1.14,0,.24-.16.49-.24.77l-.35,1a10.53,10.53,0,0,1-.47,1.11c-.18.37-.32.75-.53,1.12l-.63,1.1A19.39,19.39,0,0,1,119.11,39a18.34,18.34,0,0,1-15.92,4.83,18.47,18.47,0,0,1-9.68-5.1,20.24,20.24,0,0,1-5-7.92,21.57,21.57,0,0,1-1.13-6.42c-.05-.78,0-1.39,0-1.8l0-.64s0-.22.08-.63.12-1,.29-1.79a21.19,21.19,0,0,1,2.31-6.08,19.41,19.41,0,0,1,6.38-6.8,17.52,17.52,0,0,1,4.9-2.24,17.28,17.28,0,0,1,5.62-.69,17.09,17.09,0,0,1,5.68,1.13,17.42,17.42,0,0,1,5,2.85,22.58,22.58,0,0,1,2.11,1.91,23.65,23.65,0,0,1,1.76,2.18,22.65,22.65,0,0,1,1.43,2.32c.21.39.37.8.56,1.2l.27.59a2.85,2.85,0,0,1,.12.31l.07.21c.21.62.43,1.17.55,1.65s.22.88.28,1.14c.14.47.22.91.3,1.31s.18.77.29,1.13c.18.72.35,1.42.61,2.27a16.24,16.24,0,0,0,.36-2.37c0-.39,0-.79-.05-1.22a6.88,6.88,0,0,0-.21-1.41c-.07-.28-.17-.69-.29-1.21s-.37-1.1-.59-1.76l-.08-.23a2.08,2.08,0,0,0-.12-.32l-.29-.63c-.2-.42-.37-.86-.6-1.28A25.65,25.65,0,0,0,122.76,11a25.31,25.31,0,0,0-1.87-2.32,22.22,22.22,0,0,0-2.27-2,18.74,18.74,0,0,0-5.39-3.05A19.41,19.41,0,0,0,95.84,5.49,20.94,20.94,0,0,0,89,12.75a22.61,22.61,0,0,0-2.45,6.47c-.18.82-.23,1.47-.31,1.9s-.08.67-.08.67l0,.67c0,.45-.1,1.09-.05,1.92a22.76,22.76,0,0,0,1.21,6.82,21.35,21.35,0,0,0,5.27,8.44A19.75,19.75,0,0,0,103,45.1,19.61,19.61,0,0,0,120,39.93a20.55,20.55,0,0,0,3.57-4.43c.23-.39.45-.78.67-1.17s.38-.8.57-1.19a11.12,11.12,0,0,0,.5-1.19l.36-1a7.21,7.21,0,0,0,.27-.83c.12-.51.22-.93.29-1.21a6.79,6.79,0,0,0,.21-1.4c0-.44.05-.84.05-1.23A16.11,16.11,0,0,0,126.15,23.88Z"/><ellipse class="cls-17" cx="20.15" cy="23.62" rx="12.52" ry="12.72" transform="translate(-7.46 37.83) rotate(-76.77)"/><circle class="cls-16" cx="14.09" cy="16.7" r="6.3"/><ellipse class="cls-17" cx="105.77" cy="23.62" rx="12.52" ry="12.72" transform="translate(58.56 121.18) rotate(-76.77)"/><circle class="cls-16" cx="99.7" cy="16.7" r="6.3"/><path class="cls-16" d="M56,55.81s10.49-2.06,17.21,0C70.11,57.88,64.77,59.94,56,55.81Z"/><path class="cls-18" d="M24.31,53.32C26.36,57,30.37,59,34.58,59.53a19.79,19.79,0,0,0,4.21.11c13.31-4,27-7.34,40.67-2.33,7,2.68,17.4,4.35,22.1-2.76"/><path class="cls-18" d="M54.83,55.4c6.14,3.22,13.16,4.39,19.3.3"/><path class="cls-18" d="M49.29,61.15a27.78,27.78,0,0,0,15.5,5.38c5.08,0,10.72-1.21,14.57-4.42"/><path class="cls-2" d="M24.31,53.32a7.89,7.89,0,0,0,1.17,2.52A8.13,8.13,0,0,0,27.76,58c.28.18.72.43,1.27.71.28.13.58.29.92.42l.28.11.35.14.71.24c.49.15,1,.29,1.51.41a20.23,20.23,0,0,0,3.29.45c.57,0,1.15,0,1.74,0,.29,0,.59,0,.88,0a1,1,0,0,0,.37-.07l.21-.06.41-.12c2.2-.66,4.46-1.29,6.69-1.88A88.25,88.25,0,0,1,58.33,56c1.6-.18,2.92-.29,3.84-.33l1.44,0s.51,0,1.43,0l1.66,0,2.17.15c.8.07,1.66.2,2.58.31s1.88.34,2.88.55a54.16,54.16,0,0,1,6.28,1.94,36,36,0,0,0,6.93,1.62A21.66,21.66,0,0,0,94.29,60a14.36,14.36,0,0,0,3.44-1.15A7.47,7.47,0,0,0,100.19,57a7.75,7.75,0,0,0,.78-1.12c.2-.42.39-.84.59-1.3l-1.08.88c-.33.27-.71.47-1,.71a23.12,23.12,0,0,1-2.39,1.39,13.1,13.1,0,0,1-3.07,1,20.31,20.31,0,0,1-6.26.1,34.11,34.11,0,0,1-6.63-1.55c-1-.39-2.15-.75-3.24-1.11s-2.17-.58-3.19-.87-2-.41-3-.56-1.85-.25-2.67-.33l-2.24-.15-1.72,0c-1,0-1.48,0-1.48,0l-1.48.06c-.94,0-2.29.14-3.93.32A92.2,92.2,0,0,0,46,56.8c-2.24.59-4.53,1.23-6.74,1.9l-.41.12-.2.06s0,0,0,0l-.82,0c-.54,0-1.08,0-1.61,0a19.09,19.09,0,0,1-3-.41,16.66,16.66,0,0,1-2.6-.82c-.31-.12-.58-.26-.83-.38-.5-.25-.89-.47-1.14-.63a26.33,26.33,0,0,1-2.28-1.6A16.81,16.81,0,0,1,24.31,53.32Z"/><path class="cls-2" d="M54.83,55.4a12,12,0,0,0,5,2.84,20.13,20.13,0,0,0,2.39.55c.26,0,.7.12,1.07.16L64,59l.59.05,1,0a16.32,16.32,0,0,0,3.6-.43,9,9,0,0,0,4.95-2.95c-1.91.63-3.13,1-5.29,1.47a14.94,14.94,0,0,1-3.27.38l-.94,0c-.31,0-.55,0-.55,0l-.63-.06-1-.14a21.53,21.53,0,0,1-2.23-.51C58.06,56.15,56.79,55.85,54.83,55.4Z"/><path class="cls-2" d="M49.29,61.15a12.35,12.35,0,0,0,4.52,3.51c.37.17,1,.46,2.24,1a28.28,28.28,0,0,0,4.78,1.31,24.85,24.85,0,0,0,5.87.31,30.73,30.73,0,0,0,4.65-.63,22,22,0,0,0,3.43-1,9.7,9.7,0,0,0,4.58-3.47c-1.83.83-3,1.23-5.12,2A21,21,0,0,1,71,65.1a28.92,28.92,0,0,1-4.42.61c-1.45.09-2.57,0-2.57,0a24.33,24.33,0,0,1-2.94-.33,26.18,26.18,0,0,1-4.52-1.25c-1.22-.45-1.78-.73-2.13-.89C52.38,62.32,51.17,61.87,49.29,61.15Z"/></symbol></defs><g id="WISDOMS"><use width="199.72" height="121.79" transform="translate(50.39 169.25) scale(0.99)" xlink:href="#Wisdom_Body_1"/><use width="168.36" height="135.63" transform="translate(65.4 133.69) scale(0.99)" xlink:href="#Wisdom_Body_MASTER_1_3"/><use width="126.51" height="95.46" transform="translate(87.02 50.5) scale(0.99)" xlink:href="#Wisdom_Head1"/></g></svg>