<?xml version="1.0" encoding="UTF-8" standalone="no"?>
<svg
   viewBox="0 0 300 300"
   version="1.1"
   id="svg178"
   sodipodi:docname="2.svg"
   inkscape:version="1.2 (dc2aedaf03, 2022-05-15)"
   xmlns:inkscape="http://www.inkscape.org/namespaces/inkscape"
   xmlns:sodipodi="http://sodipodi.sourceforge.net/DTD/sodipodi-0.dtd"
   xmlns:xlink="http://www.w3.org/1999/xlink"
   xmlns="http://www.w3.org/2000/svg"
   xmlns:svg="http://www.w3.org/2000/svg">
  <sodipodi:namedview
     id="namedview180"
     pagecolor="#ffffff"
     bordercolor="#666666"
     borderopacity="1.0"
     inkscape:showpageshadow="2"
     inkscape:pageopacity="0.0"
     inkscape:pagecheckerboard="0"
     inkscape:deskcolor="#d1d1d1"
     showgrid="false"
     inkscape:zoom="3.51"
     inkscape:cx="150.2849"
     inkscape:cy="150"
     inkscape:window-width="1276"
     inkscape:window-height="1568"
     inkscape:window-x="1200"
     inkscape:window-y="174"
     inkscape:window-maximized="1"
     inkscape:current-layer="svg178" />
  <defs
     id="defs166">
    <style
       id="style2">.cls-1{fill:#fbb03b;}.cls-2{fill:#202020;}.cls-3{fill:url(#radial-gradient);}.cls-4{fill:url(#New_Gradient_Swatch_16);}.cls-5{fill:url(#radial-gradient-2);}.cls-6{fill:url(#New_Gradient_Swatch_1);}.cls-7{fill:#a6a6a6;}.cls-13,.cls-8{fill:none;}.cls-8{stroke:#d6d6d6;}.cls-10,.cls-13,.cls-14,.cls-8,.cls-9{stroke-miterlimit:10;}.cls-10,.cls-13,.cls-14,.cls-9{stroke:#000;}.cls-9{stroke-width:1.12px;fill:url(#New_Gradient_Swatch_17);}.cls-10,.cls-15{fill:#fff;}.cls-10{stroke-width:1.22px;}.cls-11{fill:#b24654;}.cls-12{fill:#fb6c54;}.cls-13{stroke-width:0.24px;}.cls-14{stroke-width:0.36px;}.cls-16{font-size:38.14px;font-family:ArialMT, Arial;}</style>
    <radialGradient
       id="radial-gradient"
       cx="86.51"
       cy="27.04"
       r="0.4"
       gradientUnits="userSpaceOnUse">
      <stop
         offset="0"
         stop-color="#055d66"
         id="stop4" />
      <stop
         offset="0.41"
         stop-color="#011517"
         id="stop6" />
    </radialGradient>
    <radialGradient
       id="New_Gradient_Swatch_16"
       cx="84.64"
       cy="77.93"
       fy="187.40879993014232"
       r="133.74"
       gradientUnits="userSpaceOnUse">
      <stop
         offset="0.22"
         id="stop9" />
      <stop
         offset="0.37"
         stop-color="#01010c"
         id="stop11" />
      <stop
         offset="0.61"
         stop-color="#020326"
         id="stop13" />
      <stop
         offset="0.64"
         stop-color="#060729"
         id="stop15" />
      <stop
         offset="0.68"
         stop-color="#111233"
         id="stop17" />
      <stop
         offset="0.71"
         stop-color="#242544"
         id="stop19" />
      <stop
         offset="0.75"
         stop-color="#3f405b"
         id="stop21" />
      <stop
         offset="0.78"
         stop-color="#626379"
         id="stop23" />
      <stop
         offset="0.81"
         stop-color="#8d8d9d"
         id="stop25" />
      <stop
         offset="0.85"
         stop-color="#bfc0c8"
         id="stop27" />
      <stop
         offset="0.88"
         stop-color="#f8f8f9"
         id="stop29" />
      <stop
         offset="0.88"
         stop-color="#fff"
         id="stop31" />
    </radialGradient>
    <radialGradient
       id="radial-gradient-2"
       cx="5867.92"
       cy="16487.53"
       r="5.25"
       gradientTransform="matrix(-0.12, 0.99, -0.99, -0.12, 17030.12, -3860.12)"
       gradientUnits="userSpaceOnUse">
      <stop
         offset="0.28"
         stop-color="#fff"
         id="stop34" />
      <stop
         offset="0.41"
         stop-color="#fbfbfb"
         id="stop36" />
      <stop
         offset="0.54"
         stop-color="#efefef"
         id="stop38" />
      <stop
         offset="0.67"
         stop-color="#dadada"
         id="stop40" />
      <stop
         offset="0.8"
         stop-color="#bebebe"
         id="stop42" />
      <stop
         offset="0.93"
         stop-color="#9a9a9a"
         id="stop44" />
      <stop
         offset="0.95"
         stop-color="#949494"
         id="stop46" />
    </radialGradient>
    <radialGradient
       id="New_Gradient_Swatch_1"
       cx="5881.19"
       cy="16487.87"
       r="5.25"
       gradientTransform="matrix(-0.12, 0.99, -0.99, -0.12, 17030.12, -3860.12)"
       gradientUnits="userSpaceOnUse">
      <stop
         offset="0.07"
         stop-color="#919191"
         id="stop49" />
      <stop
         offset="0.21"
         stop-color="#828283"
         id="stop51" />
      <stop
         offset="0.47"
         stop-color="#5c5c60"
         id="stop53" />
      <stop
         offset="0.83"
         stop-color="#1f1f27"
         id="stop55" />
      <stop
         offset="1"
         stop-color="#00000a"
         id="stop57" />
    </radialGradient>
    <radialGradient
       id="New_Gradient_Swatch_17"
       cx="66.73"
       cy="86.09"
       r="75.7"
       gradientUnits="userSpaceOnUse">
      <stop
         offset="0.17"
         stop-color="#ffb800"
         id="stop60" />
      <stop
         offset="0.32"
         stop-color="#fba900"
         id="stop62" />
      <stop
         offset="0.62"
         stop-color="#f18300"
         id="stop64" />
      <stop
         offset="0.73"
         stop-color="#ec7200"
         id="stop66" />
    </radialGradient>
    <symbol
       id="Wisdom_Body_1_5"
       data-name="Wisdom_Body_1 5"
       viewBox="0 0 205.05 133.79">
      <path
         class="cls-1"
         d="M22.37,3.86c-1.68,1.74-4.72,1.28-6.9.14S11.35,1.17,8.91.73,3.37,2,3.88,4.35c.28,1.33,1.61,2.21,2.93,2.74a15.1,15.1,0,0,1,3.86,1.72c1.1.86,1.71,2.53.82,3.59a3.81,3.81,0,0,1-1.54.95,36.09,36.09,0,0,1-4.68,1.54,10.59,10.59,0,0,0-2.77,1A4.26,4.26,0,0,0,2.65,23C4.55,24,7,23.56,9,22.61s3.68-2.33,5.68-3.21c-.6,2.27-2.59,3.91-4.08,5.77s-2.48,4.6-1,6.44c1.37,1.69,4.21,1.64,6.1.49s3.06-3.09,4.17-4.94c2.27-3.75,4.75-7.57,8.53-10"
         id="path69" />
      <path
         class="cls-2"
         d="M22.37,3.86a4.12,4.12,0,0,1-2.12.58,9.83,9.83,0,0,1-2.32-.25,8.1,8.1,0,0,1-1.07-.31c-.22-.08-.47-.18-.72-.3l-.32-.15L15.4,3.2l-.85-.5-1.8-1.1A9.87,9.87,0,0,0,8.26,0,5.9,5.9,0,0,0,5.69.53a4.57,4.57,0,0,0-2.1,1.79,3,3,0,0,0-.08,3,4.88,4.88,0,0,0,2,1.94C7.12,8.09,8.78,8.33,10,9.13s1.7,2.34.87,3A6.64,6.64,0,0,1,9,13c-.7.27-1.39.51-2.08.72s-1.36.41-2,.58a12.71,12.71,0,0,0-2,.64,4.64,4.64,0,0,0-1.78,1.32,4.43,4.43,0,0,0-.9,1.85A5.22,5.22,0,0,0,.5,21.59a4.4,4.4,0,0,0,1.88,2A5.56,5.56,0,0,0,4,24.13l.59.08a4.21,4.21,0,0,0,.65,0,8.38,8.38,0,0,0,2.25-.35A15.07,15.07,0,0,0,11.37,22l1.2-.74.65-.39,0,0h0s0,0,0,0-.17.25-.26.38a30.3,30.3,0,0,1-2.23,2.64,9.26,9.26,0,0,0-2.53,4.75A4.28,4.28,0,0,0,9,32a4.42,4.42,0,0,0,3.24,1.6,6.4,6.4,0,0,0,3.54-.77,9,9,0,0,0,2.7-2.39,25.07,25.07,0,0,0,1.91-2.87c.58-.95,1.16-1.88,1.75-2.78.29-.44.59-.88.89-1.31l.41-.55.42-.55c.53-.7,1-1.23,1.28-1.54,1.35-1.45,2-2.32,3.23-3.62a9.44,9.44,0,0,0-4.21,2.73c-.29.32-.79.88-1.36,1.61l-.43.57-.42.58q-.48.66-.93,1.35c-1.24,1.81-2.28,3.87-3.58,5.55a7.82,7.82,0,0,1-2.3,2.05,5.11,5.11,0,0,1-2.8.61,3.14,3.14,0,0,1-2.29-1.09,2.92,2.92,0,0,1-.52-2.3,6.28,6.28,0,0,1,.85-2.27,11.37,11.37,0,0,1,1.36-1.79A32.82,32.82,0,0,0,14.08,22c.1-.15.2-.29.29-.45a6.24,6.24,0,0,0,.44-.81,4.88,4.88,0,0,0,.33-.78c.09-.25.16-.49.23-.73s.15-.49.22-.74a1.53,1.53,0,0,0,.1-.34l-.38.18L13.9,19c-.45.22-1,.51-1.35.72l-.67.4-1.2.75a14.17,14.17,0,0,1-3.55,1.72,7.1,7.1,0,0,1-1.9.29,3.89,3.89,0,0,1-.53,0l-.46-.06A4.34,4.34,0,0,1,3,22.41,3,3,0,0,1,1.7,21a3.88,3.88,0,0,1-.26-2.58,3.2,3.2,0,0,1,1.92-2.26c1.07-.46,2.54-.69,4-1.17.71-.22,1.43-.47,2.15-.74a7.71,7.71,0,0,0,2.27-1.15,2.57,2.57,0,0,0,.79-1.36,3,3,0,0,0-.09-1.51A4.08,4.08,0,0,0,10.71,8c-1.54-1-3.25-1.24-4.52-2A3.64,3.64,0,0,1,4.7,4.67,1.68,1.68,0,0,1,4.74,3,4.12,4.12,0,0,1,8.23,1.34a8.59,8.59,0,0,1,3.84,1.41l1.79,1.09.89.53.45.24.38.18a7.68,7.68,0,0,0,.83.34,8.58,8.58,0,0,0,1.24.36,5.27,5.27,0,0,0,2.79-.1A3.47,3.47,0,0,0,22.37,3.86Z"
         id="path71" />
      <path
         class="cls-1"
         d="M80.28,94.92c1.25,5.26,2.46,10.94-.15,15.82A106.8,106.8,0,0,1,74,121.37c-2.19,3.07-3,7.49,0,10a8.48,8.48,0,0,0,4.55,1.71,6.55,6.55,0,0,0,4.34-.81c3.54-2.43.43-8.12,3.56-10.94,1.21-1.09,3-1.43,4.47-2.3a5,5,0,0,0,1.63-7,22.53,22.53,0,0,0-2.38-2.41A9.57,9.57,0,0,1,88.4,98.2"
         id="path73" />
      <path
         class="cls-2"
         d="M80.28,94.92a24.84,24.84,0,0,0,.35,4.9c.05.27.1.67.17,1.17q0,.38.09.81l0,.32,0,.39c0,.26,0,.53,0,.8,0,.54,0,1.1,0,1.66a13.89,13.89,0,0,1-.6,3.44,19.21,19.21,0,0,1-1.59,3.41c-1.24,2.32-2.53,4.7-3.91,6.93-.35.56-.71,1.1-1.06,1.64s-.77,1.07-1.1,1.67a11,11,0,0,0-1.31,3.73,7.29,7.29,0,0,0,.37,3.72,6.21,6.21,0,0,0,2.09,2.64,9.49,9.49,0,0,0,4.51,1.58,9.68,9.68,0,0,0,1.78,0l.47-.05a6.86,6.86,0,0,0,1.34-.3,5,5,0,0,0,1.9-1.17,5.16,5.16,0,0,0,1.3-2.56c.45-2,0-4.29.67-6.34A3.93,3.93,0,0,1,88,121.08a23.3,23.3,0,0,0,3.62-1.76,5.88,5.88,0,0,0,2.33-3.75,5.35,5.35,0,0,0-1.12-4.28c-.94-1.12-2-1.85-2.75-2.76a9.62,9.62,0,0,1-1.65-2.91,8.88,8.88,0,0,1-.5-2.74,17.74,17.74,0,0,1,.49-4.68,6.35,6.35,0,0,0-1.81,4.71,9.78,9.78,0,0,0,.56,3.15l.14.38c0,.15.13.3.19.44a7,7,0,0,0,.43.87A10.63,10.63,0,0,0,89,109.39c.87,1.06,2,1.83,2.73,2.75a4,4,0,0,1,.84,3.21,4.55,4.55,0,0,1-1.8,2.9,24.28,24.28,0,0,1-3.42,1.63,5.27,5.27,0,0,0-2.8,3,12.14,12.14,0,0,0-.48,3.59,16.56,16.56,0,0,1-.24,2.9,3.9,3.9,0,0,1-.94,1.91,3.7,3.7,0,0,1-1.39.84,5.21,5.21,0,0,1-1.07.24,2.94,2.94,0,0,1-.4,0,7.72,7.72,0,0,1-1.56,0,8.29,8.29,0,0,1-3.86-1.34A4.77,4.77,0,0,1,73,129a5.94,5.94,0,0,1-.29-3,9.33,9.33,0,0,1,1.16-3.26,15.65,15.65,0,0,1,1-1.58c.37-.55.74-1.11,1.09-1.68,1.42-2.28,2.71-4.68,4-7a20.68,20.68,0,0,0,1.68-3.63,15.51,15.51,0,0,0,.67-3.77c0-.61,0-1.21,0-1.78,0-.29,0-.58,0-.85l0-.42,0-.33c0-.3-.06-.59-.09-.85-.08-.52-.13-.94-.19-1.21A14.34,14.34,0,0,0,80.28,94.92Z"
         id="path75" />
      <path
         class="cls-1"
         d="M182.68,3.86c1.68,1.74,4.72,1.28,6.9.14s4.12-2.83,6.56-3.27,5.54,1.3,5,3.62c-.28,1.33-1.61,2.21-2.93,2.74a15.1,15.1,0,0,0-3.86,1.72c-1.1.86-1.71,2.53-.82,3.59a3.81,3.81,0,0,0,1.54.95,36.09,36.09,0,0,0,4.68,1.54,10.59,10.59,0,0,1,2.77,1A4.26,4.26,0,0,1,202.4,23c-1.9,1.05-4.35.59-6.31-.36s-3.68-2.33-5.68-3.21c.6,2.27,2.59,3.91,4.08,5.77s2.48,4.6,1,6.44c-1.37,1.69-4.21,1.64-6.1.49s-3.06-3.09-4.17-4.94c-2.27-3.75-4.75-7.57-8.53-10"
         id="path77" />
      <path
         class="cls-2"
         d="M182.68,3.87a3.49,3.49,0,0,0,1.93,1.52,5.27,5.27,0,0,0,2.79.1,8.58,8.58,0,0,0,1.24-.36,7.68,7.68,0,0,0,.83-.34l.38-.18.45-.24.89-.53L193,2.75a8.59,8.59,0,0,1,3.84-1.41A4.1,4.1,0,0,1,200.31,3a1.68,1.68,0,0,1,0,1.68,3.58,3.58,0,0,1-1.49,1.38c-1.27.73-3,1-4.52,2a4.08,4.08,0,0,0-1.72,2.22,3,3,0,0,0-.09,1.51,2.57,2.57,0,0,0,.79,1.36,7.71,7.71,0,0,0,2.27,1.15c.72.27,1.44.52,2.15.74,1.41.48,2.88.71,3.95,1.17a3.2,3.2,0,0,1,1.92,2.26,3.88,3.88,0,0,1-.26,2.58,3,3,0,0,1-1.31,1.4,4.34,4.34,0,0,1-1.23.42l-.46.06a3.89,3.89,0,0,1-.53,0,7.1,7.1,0,0,1-1.9-.29,14.17,14.17,0,0,1-3.55-1.72l-1.2-.75-.67-.4c-.36-.21-.9-.5-1.35-.72l-1.41-.65-.38-.18a2.37,2.37,0,0,0,.1.34c.07.25.14.49.22.74s.14.48.23.73a4.88,4.88,0,0,0,.33.78,6.24,6.24,0,0,0,.44.81c.09.16.19.3.29.45a32.82,32.82,0,0,0,2.32,2.75,11.37,11.37,0,0,1,1.36,1.79,6.28,6.28,0,0,1,.85,2.27,2.92,2.92,0,0,1-.52,2.3,3.14,3.14,0,0,1-2.29,1.09,5.13,5.13,0,0,1-2.8-.61,7.82,7.82,0,0,1-2.3-2.05c-1.3-1.68-2.34-3.74-3.58-5.55-.3-.46-.61-.91-.92-1.35l-.43-.58-.43-.57c-.57-.73-1.07-1.29-1.36-1.61a9.44,9.44,0,0,0-4.21-2.73c1.19,1.3,1.88,2.17,3.23,3.62.27.31.75.84,1.28,1.54l.42.55.41.55.9,1.31c.59.9,1.16,1.83,1.74,2.78a25.07,25.07,0,0,0,1.91,2.87,9,9,0,0,0,2.7,2.39,6.4,6.4,0,0,0,3.54.77A4.42,4.42,0,0,0,196,32a4.28,4.28,0,0,0,.79-3.31,9.26,9.26,0,0,0-2.53-4.75,32.22,32.22,0,0,1-2.23-2.64c-.09-.13-.18-.25-.26-.38s0,0,0,0h0l.05,0,.65.39,1.2.74a15.07,15.07,0,0,0,3.88,1.86,8.43,8.43,0,0,0,2.25.35,4.21,4.21,0,0,0,.65,0l.59-.08a5.56,5.56,0,0,0,1.62-.55,4.4,4.4,0,0,0,1.88-2,5.22,5.22,0,0,0,.35-3.47,4.43,4.43,0,0,0-.9-1.85A4.64,4.64,0,0,0,202.22,15a12.71,12.71,0,0,0-2.05-.64c-.67-.17-1.34-.36-2-.58s-1.38-.45-2.08-.72a6.64,6.64,0,0,1-1.85-.89c-.83-.65-.29-2.31.87-3s2.85-1,4.44-1.91a4.88,4.88,0,0,0,2-1.94,3,3,0,0,0-.08-3,4.57,4.57,0,0,0-2.1-1.79A5.87,5.87,0,0,0,196.79,0a9.87,9.87,0,0,0-4.49,1.6l-1.8,1.1-.85.5-.42.23-.32.15a6.94,6.94,0,0,1-.72.3,8.1,8.1,0,0,1-1.07.31,9.83,9.83,0,0,1-2.32.25A4.2,4.2,0,0,1,182.68,3.87Z"
         id="path79" />
      <path
         class="cls-1"
         d="M124.77,94.92c-1.25,5.26-2.46,10.94.15,15.82a106.8,106.8,0,0,0,6.18,10.63c2.19,3.07,3,7.49,0,10a8.48,8.48,0,0,1-4.55,1.71,6.55,6.55,0,0,1-4.34-.81c-3.54-2.43-.43-8.12-3.56-10.94-1.21-1.09-3-1.43-4.47-2.3a5,5,0,0,1-1.63-7,22.53,22.53,0,0,1,2.38-2.41,9.57,9.57,0,0,0,1.71-11.37"
         id="path81" />
      <path
         class="cls-2"
         d="M124.77,94.92a14.34,14.34,0,0,0-1.66,4.69c-.06.27-.11.69-.19,1.21,0,.26-.06.55-.09.85l0,.33,0,.42c0,.27,0,.56,0,.85,0,.57,0,1.17,0,1.78a15.51,15.51,0,0,0,.67,3.77,20.68,20.68,0,0,0,1.68,3.63c1.25,2.33,2.54,4.73,4,7,.35.57.72,1.13,1.09,1.68a17.79,17.79,0,0,1,1,1.58,9.51,9.51,0,0,1,1.15,3.26,5.94,5.94,0,0,1-.29,3,4.77,4.77,0,0,1-1.63,2.06,8.29,8.29,0,0,1-3.86,1.34,7.72,7.72,0,0,1-1.56,0,2.94,2.94,0,0,1-.4,0,5.21,5.21,0,0,1-1.07-.24,3.86,3.86,0,0,1-1.39-.84,3.9,3.9,0,0,1-.94-1.91,16.56,16.56,0,0,1-.24-2.9,12.14,12.14,0,0,0-.48-3.59,5.28,5.28,0,0,0-2.79-3,23.9,23.9,0,0,1-3.43-1.63,4.55,4.55,0,0,1-1.8-2.9,4,4,0,0,1,.84-3.21c.74-.92,1.86-1.69,2.73-2.75a10.63,10.63,0,0,0,1.13-1.64,7,7,0,0,0,.43-.87,3.43,3.43,0,0,0,.19-.44l.14-.38a9.78,9.78,0,0,0,.56-3.15,6.35,6.35,0,0,0-1.81-4.71,17.74,17.74,0,0,1,.49,4.68,8.88,8.88,0,0,1-.5,2.74,9.62,9.62,0,0,1-1.65,2.91c-.73.91-1.81,1.64-2.75,2.76a5.35,5.35,0,0,0-1.12,4.28,5.88,5.88,0,0,0,2.33,3.75,23.3,23.3,0,0,0,3.62,1.76,3.93,3.93,0,0,1,2.14,2.27c.64,2.05.22,4.35.67,6.34a5.16,5.16,0,0,0,1.3,2.56,5,5,0,0,0,1.9,1.17,6.86,6.86,0,0,0,1.34.3l.47.05a9.78,9.78,0,0,0,1.79,0,9.49,9.49,0,0,0,4.5-1.58,6.21,6.21,0,0,0,2.09-2.64,7.29,7.29,0,0,0,.37-3.72,11,11,0,0,0-1.31-3.73,17.88,17.88,0,0,0-1.1-1.67c-.35-.54-.71-1.08-1.06-1.64-1.38-2.23-2.67-4.61-3.91-6.93a19.21,19.21,0,0,1-1.59-3.41,13.89,13.89,0,0,1-.6-3.44c0-.56,0-1.12,0-1.66,0-.27,0-.54,0-.8l0-.39,0-.32q0-.43.09-.81c.07-.5.12-.9.17-1.17A24.84,24.84,0,0,0,124.77,94.92Z"
         id="path83" />
    </symbol>
    <symbol
       id="Wisdom_Body_MASTER_1_2"
       data-name="Wisdom_Body_MASTER_1 2"
       viewBox="0 0 168.36 135.63">
      <path
         class="cls-3"
         d="M86.49,26.76c-.89.56-.36.66.51.47A4.66,4.66,0,0,1,86.49,26.76Z"
         id="path86" />
      <path
         class="cls-4"
         d="M67.62,135l2.69-1.28a6.47,6.47,0,0,0,2-7.39l0-.16a20,20,0,0,0,7.05-9.27c1.59-4,2.43-11.21,3.1-16.12,1,.15,3,.53,4,.59.49,4.82,1.25,11.38,2.88,15.53a20,20,0,0,0,7.2,9.36v0l-.06.26-.08-.08A6.79,6.79,0,0,0,101,135l2,.31c4-1.09,6.3-4.16,5.42-7.23h-.07l0-.17c4-.51,7.61-3.31,9.89-6.79,2.57-3.91,3.73-8.59,4.67-13.2a181.35,181.35,0,0,0,3.53-41.13L136.22,72a142.44,142.44,0,0,1,16,14.09,30,30,0,0,0,3.71,3c0-13.24,6.07-44.94,11-54.87-17.65-2.48-30.19-9.3-30.17-9.71-3-1.86-13.67-6.55-16.55-13.32-.51-.73-4.5-9.57-5-10.29l-.39-.06c-.46.43-61,1-61.65.54l-1.35-.29c-.27,1.26-3,8.93-3.38,9.73l0,0-3.8,4.87c-4.63,4.62-11.75,10-29.4,15.48l-13.78,3C2.91,38.33,6.94,46,7,51.84c0,.59,4.14,22.33,6.07,36.67a77.07,77.07,0,0,1,22-17.9l7.32-3.52A174,174,0,0,0,45.82,108c.94,4.61,2.1,9.29,4.66,13.2,2.27,3.46,5.85,6.22,9.83,6.76,0,.06,0,.12,0,.19s0,.12,0,.18c-.76,3,2.42,5.8,4.83,6.91Z"
         id="path88" />
      <circle
         id="SVGID"
         class="cls-5"
         cx="56.45"
         cy="30.03"
         r="5.23" />
      <circle
         id="SVGID-2"
         data-name="SVGID"
         class="cls-6"
         cx="54.57"
         cy="43.11"
         r="5.23" />
      <path
         class="cls-7"
         d="M115.36.65a21,21,0,0,0,1.53,4.69c.11.25.29.62.5,1.09l.36.76c.42.88.86,1.8,1.3,2.74l.35.7,0,.07h0l-.35.22-.73.46a64,64,0,0,1-28.3,9.8c-1.29.08-2.56.2-3.83.23H82.46l-3.67-.26c-1.2-.09-2.43-.23-3.59-.32A47.66,47.66,0,0,1,63,18.15a44.4,44.4,0,0,1-7.84-3.66c-1.78-1.06-2.72-1.75-2.72-1.75s-.13-.07-1-.71c-.42-.31-1-.77-1.85-1.46-.3-.26-.21-.18-.23-.19h0l0-.12c.07-.16.13-.33.19-.5l.86-2.33c.2-.58.72-2,1.44-4.17.18-.54.37-1.12.56-1.75h5.86l25-.08,27.09-.08a18,18,0,0,0,4.89-.68,17.72,17.72,0,0,0-4.9-.65L83.38.08l-25,.07-4.79,0H51.48a9.29,9.29,0,0,0-.27.94c-.18.61-.37,1.18-.55,1.71C50,5,49.43,6.4,49.23,7l-.85,2.32-.18.48c-.05.12-.09.23-.14.34s-.12.3-.19.45-.08.15-.07.21l.18.15.34.3.43.36c.86.72,1.48,1.19,1.92,1.52.88.65,1,.72,1,.72s1,.72,2.8,1.81a46,46,0,0,0,8.07,3.77,48.59,48.59,0,0,0,12.53,2.75l3.58.32,3.75.27h3.85c1.3,0,2.61-.16,3.92-.24a65.39,65.39,0,0,0,28.89-10l.73-.46.36-.23.73-.44a1.42,1.42,0,0,0,.34-.22l-.21-.37-.38-.67-.39-.78L119,6.62l-.36-.76c-.22-.46-.39-.84-.51-1.08A15.77,15.77,0,0,0,115.36.65Z"
         id="path92" />
      <path
         class="cls-7"
         d="M49.92,7.84A14,14,0,0,0,53.78,11l1.07.59.75.39c.64.33,1.5.75,2.31,1.13s1.72.78,2.63,1.15l2.87,1,2.94,1.05c1,.32,2,.61,3,.86A54.86,54.86,0,0,0,80.3,18.73c2.93.14,4.82.06,4.82.06s1.89,0,4.81-.29a64.06,64.06,0,0,0,10.84-2.07A60.49,60.49,0,0,0,112,11.94c1.22-.61,2.19-1.14,2.68-1.41a14.6,14.6,0,0,0,3.88-3.09,23.5,23.5,0,0,0-4.52,1.93c-.48.26-1.45.78-2.64,1.38a59.82,59.82,0,0,1-11,4.4,62.51,62.51,0,0,1-10.61,2c-2.85.29-4.7.3-4.7.3s-1.85.07-4.72-.07A53.81,53.81,0,0,1,69.7,15.85c-1-.25-2-.53-3-.84l-2.89-1-2.81-1c-.9-.36-1.76-.74-2.57-1.12s-1.64-.79-2.27-1.11l-.73-.38-1-.57A24.9,24.9,0,0,0,49.92,7.84Z"
         id="path94" />
      <path
         class="cls-7"
         d="M48.72,11c-.69.56-1.24,1-1.77,1.54a19.08,19.08,0,0,0-1.83,1.75c-.18.2-.5.46-.86.8l-.61.56-.39.37a6,6,0,0,1-.54.46l-1.13.91c-.75.63-1.57,1.21-2.42,1.8A82.22,82.22,0,0,1,14.36,30.5c-2.25.62-4.51,1.12-6.72,1.53l-3.3.52L.38,33A2,2,0,0,0,0,33l.17.36.35.71.48,1,.62,1.4c.38.92.77,1.83,1.09,2.73.67,1.78,1.22,3.49,1.7,5.07,1,3.16,1.61,5.8,2,7.65s.66,2.89.66,2.89.21,1,.6,2.9.87,4.54,1.4,7.81,1.08,7.13,1.62,11.35c.25,2.11.51,4.31.77,6.57.11,1.12.23,2.27.35,3.42.08.85.17,1.69.25,2.54l.18,1.76L13.21,90l.94-1.23.47-.63.28-.34L16,86.41c.78-.88,1.55-1.78,2.37-2.62A60.77,60.77,0,0,1,23.51,79,67.8,67.8,0,0,1,29,74.87c.93-.62,1.84-1.23,2.76-1.79.47-.27.92-.55,1.37-.82l1.27-.71c1.16-.67,2.14-1.14,2.62-1.41a22.69,22.69,0,0,0,4.14-2.66A14.86,14.86,0,0,0,36.38,69c-.49.26-1.49.74-2.67,1.42l-1.29.72L31,72c-.94.56-1.88,1.18-2.82,1.81C26.33,75,24.48,76.45,22.66,78a62.05,62.05,0,0,0-5.24,4.91c-.84.86-1.62,1.77-2.42,2.67l-1.14,1.39-.28.35-.06.08-.13.17-.13.17h0s0,0,0-.07l-.09-.87c-.11-1.16-.23-2.31-.35-3.44-.26-2.26-.52-4.47-.77-6.58-.54-4.24-1.09-8.12-1.63-11.41s-1.05-6-1.41-7.85-.6-2.92-.6-2.92-.24-1-.66-2.92-1.1-4.52-2.06-7.73c-.48-1.59-1-3.33-1.73-5.15-.32-.91-.71-1.84-1.11-2.79l-.63-1.43L2,34.14H2l2.51-.26,3.35-.53c2.26-.43,4.55-.93,6.84-1.56A84,84,0,0,0,39.94,20.25c.87-.61,1.71-1.21,2.48-1.86.4-.31.78-.62,1.16-.93a6.44,6.44,0,0,0,.56-.48l.4-.38c.23-.2.44-.4.63-.58.38-.36.7-.63.89-.84a15.3,15.3,0,0,0,1.64-2.06A19.72,19.72,0,0,0,48.72,11Z"
         id="path96" />
      <path
         class="cls-7"
         d="M44.26,45.1A17.05,17.05,0,0,0,43,49.88c0,.27-.08.69-.14,1.2,0,.25-.06.53-.1.84s0,.48-.08.73l-.09.84c0,.57-.1,1.15-.16,1.75C42,60,41.66,65.67,41.65,71.09s.23,10.58.52,14.38c.15,1.9.28,3.46.41,4.55l.17,1.7s.26,2.45.8,6.22,1.37,8.87,2.68,14.16a33,33,0,0,0,2.93,7.75,18.38,18.38,0,0,0,5.1,6A14.85,14.85,0,0,0,57,127.4a7.18,7.18,0,0,0,5,.41,28.55,28.55,0,0,1-4.47-1.62,13.41,13.41,0,0,1-2.46-1.46,15.79,15.79,0,0,1-2.56-2.4,18.07,18.07,0,0,1-2.16-3.13,32.26,32.26,0,0,1-2.81-7.43c-1.28-5.19-2.09-10.28-2.65-14s-.8-6.18-.8-6.18S44,91,43.9,89.89s-.26-2.63-.4-4.52c-.29-3.78-.54-8.9-.52-14.28s.31-11,.74-15.73c.06-.59.11-1.17.16-1.74,0-.28.06-.56.08-.83l.09-.73c0-.3.06-.58.09-.83.06-.51.11-.92.14-1.19A19.37,19.37,0,0,0,44.26,45.1Z"
         id="path98" />
      <path
         class="cls-7"
         d="M69.3,127.59a8.25,8.25,0,0,0,4.65-1.9,16.92,16.92,0,0,0,1.58-1.46,20.88,20.88,0,0,0,3.2-4.39,24.59,24.59,0,0,0,1.46-3.12s.48-1.21.92-2.8a42.13,42.13,0,0,0,1.07-5c.25-1.56.36-2.52.42-3a16.19,16.19,0,0,0-.07-4.38l-.27,0,.28.49c0-.2,0-.39,0-.56l-.27,0a19.26,19.26,0,0,0-1,4.26c-.06.49-.18,1.45-.42,3a42.14,42.14,0,0,1-1,4.81,27.57,27.57,0,0,1-.88,2.69,22.92,22.92,0,0,1-1.38,3,20.35,20.35,0,0,1-3,4.11,17.19,17.19,0,0,1-1.46,1.36C71.58,125.88,70.74,126.59,69.3,127.59Z"
         id="path100" />
      <path
         class="cls-7"
         d="M74.49,98.26a12.58,12.58,0,0,0,4.46,2.2c.34.08.89.25,2.06.49.84.17,2.28.43,3.51.55.62.08,1.18.12,1.59.14l.67,0s.86,0,2,.06,2.43-.06,3.37-.15c1.58-.15,2.55-.32,3.06-.4a12.41,12.41,0,0,0,4.64-1.8,32.59,32.59,0,0,0-4.87.5c-.49.06-1.42.23-2.94.37-.92.08-2.2.14-3.26.15l-1.88,0-.65,0c-.39,0-.94-.07-1.53-.14-1.19-.12-2.58-.37-3.39-.54-1.13-.23-1.66-.39-2-.46A32,32,0,0,0,74.49,98.26Z"
         id="path102" />
      <path
         class="cls-7"
         d="M60.45,127.9a4.24,4.24,0,0,0,.57,5,8.58,8.58,0,0,0,1.66,1.52,11.19,11.19,0,0,0,1.15.69l.35.17a1.22,1.22,0,0,0,.27.09l.2,0c.27.05.53.12.79.16a7.94,7.94,0,0,0,1.34,0l.56,0,.46-.09.51-.11.61-.22a7.15,7.15,0,0,0,4.15-4.3,5.18,5.18,0,0,0-.54-4.61l-.19,0a2.12,2.12,0,0,1-.11.21s0,.07,0,.11,0,.13,0,.1.06-.1.09-.14l.18-.12-.19,0a9.86,9.86,0,0,1-.49,4.11,5.63,5.63,0,0,1-1.46,2.25,5.49,5.49,0,0,1-1.92,1.24l-.49.18-.41.09-.38.07-.46,0a5.86,5.86,0,0,1-1.08,0l-.64-.14-.17,0-.07,0-.31-.14a9.46,9.46,0,0,1-1-.6A7.76,7.76,0,0,1,62,132a7.51,7.51,0,0,1-1.19-1.95A5,5,0,0,1,60.45,127.9Z"
         id="path104" />
      <path
         class="cls-7"
         d="M82.65,22.24A18.07,18.07,0,0,0,82,27.13c0,4.62,0,27.76,0,27.76s0,22.1,0,26.52a17.62,17.62,0,0,0,.67,4.89,17.72,17.72,0,0,0,.65-4.9c0-4.41,0-26.52,0-26.52s0-23.13,0-27.75A18,18,0,0,0,82.65,22.24Z"
         id="path106" />
      <path
         class="cls-7"
         d="M87.41,22.24a18,18,0,0,0-.66,4.89V81.41a18.07,18.07,0,0,0,.66,4.89,18.07,18.07,0,0,0,.66-4.89V27.13A18,18,0,0,0,87.41,22.24Z"
         id="path108" />
      <path
         class="cls-7"
         d="M124.68,45.1a18.94,18.94,0,0,0,0,4.94c0,.27.07.68.13,1.19,0,.25.06.53.1.83s0,.48.08.73,0,.55.08.83c0,.57.11,1.15.16,1.74.44,4.74.73,10.36.74,15.73s-.23,10.5-.51,14.28c-.15,1.89-.28,3.44-.4,4.52s-.18,1.68-.18,1.68-.25,2.43-.8,6.18-1.37,8.83-2.65,14a31.37,31.37,0,0,1-2.81,7.43,18,18,0,0,1-2.15,3.13,16.26,16.26,0,0,1-2.57,2.4,13.42,13.42,0,0,1-2.45,1.46,28.65,28.65,0,0,1-4.48,1.62,7.18,7.18,0,0,0,5-.41,14.84,14.84,0,0,0,2.71-1.59,18.47,18.47,0,0,0,5.09-6,33,33,0,0,0,2.93-7.75c1.31-5.29,2.12-10.38,2.68-14.16s.8-6.22.8-6.22.06-.61.18-1.7.25-2.65.4-4.55c.29-3.8.55-9,.52-14.38S127,60,126.55,55.24c0-.6-.11-1.18-.16-1.75,0-.28-.06-.56-.08-.84l-.09-.73c0-.31-.07-.59-.1-.84-.06-.51-.1-.93-.14-1.2A16.72,16.72,0,0,0,124.68,45.1Z"
         id="path110" />
      <path
         class="cls-7"
         d="M99.65,127.59c-1.44-1-2.29-1.71-3.82-2.92a17.73,17.73,0,0,1-1.45-1.36,20.35,20.35,0,0,1-3-4.11,22.92,22.92,0,0,1-1.38-3,25.91,25.91,0,0,1-.89-2.69,44.4,44.4,0,0,1-1-4.81c-.24-1.52-.35-2.48-.42-3a18.72,18.72,0,0,0-1-4.26l-.27,0c0,.17,0,.36,0,.56l.29-.49-.27,0a15.42,15.42,0,0,0-.07,4.38c.06.51.17,1.47.41,3a44.25,44.25,0,0,0,1.07,5,28.64,28.64,0,0,0,.93,2.8,23.65,23.65,0,0,0,1.45,3.12,21.24,21.24,0,0,0,3.2,4.39A15.34,15.34,0,0,0,95,125.69,8.25,8.25,0,0,0,99.65,127.59Z"
         id="path112" />
      <path
         class="cls-7"
         d="M108.5,127.9a5.36,5.36,0,0,1-.4,2.19,7.87,7.87,0,0,1-1.2,1.95,7.06,7.06,0,0,1-1.4,1.27,9.46,9.46,0,0,1-1,.6l-.3.14-.08,0-.16,0-.64.14a6,6,0,0,1-1.09,0l-.45,0a2.1,2.1,0,0,1-.38-.07l-.41-.09-.49-.18a5.44,5.44,0,0,1-1.93-1.24,5.63,5.63,0,0,1-1.46-2.25,10,10,0,0,1-.49-4.11l-.19,0,.18.12s.17.12.1.14.06-.07,0-.1a.54.54,0,0,0-.05-.11l-.11-.21-.19,0a5.21,5.21,0,0,0-.54,4.61,6.9,6.9,0,0,0,1.78,2.78,7,7,0,0,0,2.37,1.52l.61.22.51.11.47.09.56,0a8,8,0,0,0,1.34,0c.25,0,.52-.11.78-.16l.2,0a1.07,1.07,0,0,0,.27-.09l.35-.17a10.19,10.19,0,0,0,1.15-.69,8.26,8.26,0,0,0,1.66-1.52A4.22,4.22,0,0,0,108.5,127.9Z"
         id="path114" />
      <path
         class="cls-7"
         d="M51.2,3.7A15.14,15.14,0,0,0,55,6.91L56,7.54l.73.42c.61.32,1.39.79,2.17,1.17,1.55.83,3.31,1.62,5.13,2.39a58.8,58.8,0,0,0,5.7,1.94,49,49,0,0,0,10.45,1.71c1.41.06,2.57.1,3.37.06l1.25,0s1.82,0,4.61-.33a67.4,67.4,0,0,0,10.38-2,53,53,0,0,0,10.85-4.19c1.21-.65,2.17-1.24,2.64-1.56s.8-.57,1.14-.83a12,12,0,0,0,.88-.86,10.83,10.83,0,0,0,1.42-1.93c-.78.43-1.36.83-2,1.18-.33.18-.65.39-1,.61s-.74.44-1.15.72-1.37.86-2.54,1.49a51.35,51.35,0,0,1-10.57,4.08,65.46,65.46,0,0,1-10.18,1.94c-2.73.29-4.5.32-4.5.32l-1.23,0c-.78,0-1.91,0-3.28-.07a48.12,48.12,0,0,1-10.17-1.67,53.94,53.94,0,0,1-5.54-1.89c-1.79-.75-3.5-1.53-5-2.34-.75-.37-1.53-.82-2.12-1.14l-.73-.42-1-.6A22.22,22.22,0,0,0,51.2,3.7Z"
         id="path116" />
      <path
         class="cls-7"
         d="M10.19,34a21.71,21.71,0,0,0,1,4.81c.11.33.31.85.65,2,.78,2.39,1.93,6.48,2.79,10s1.47,6.43,1.47,6.43.52,2.45,1.09,5.59,1.16,7,1.51,9.73c.2,1.54.29,2.49.34,3a22.75,22.75,0,0,0,1,4.81,15,15,0,0,0,.28-4.94c0-.51-.14-1.47-.34-3-.34-2.77-.94-6.64-1.52-9.8s-1.1-5.62-1.1-5.62-.6-2.94-1.47-6.48-2-7.66-2.82-10.08c-.35-1.12-.55-1.64-.66-2A15.29,15.29,0,0,0,10.19,34Z"
         id="path118" />
      <path
         class="cls-7"
         d="M119.64,11a21.76,21.76,0,0,0,1,2.16,15.3,15.3,0,0,0,1.64,2.06c.19.21.51.48.89.84.19.18.4.38.63.58l.41.38a5.11,5.11,0,0,0,.55.48l1.16.93c.77.65,1.62,1.25,2.48,1.86a84,84,0,0,0,25.23,11.54c2.29.63,4.59,1.13,6.84,1.56l3.36.53,2.5.26h0l-.19.41c-.22.48-.43,1-.64,1.43-.39,1-.78,1.88-1.11,2.79-.69,1.82-1.24,3.56-1.73,5.15-1,3.21-1.62,5.87-2.05,7.73s-.66,2.92-.66,2.92-.22,1-.6,2.92-.89,4.57-1.41,7.85-1.1,7.17-1.64,11.41c-.25,2.11-.51,4.32-.77,6.58-.11,1.13-.23,2.28-.35,3.44l-.09.87c0,.1,0,.07,0,.07h0l-.13-.17-.13-.17-.07-.08-.28-.35-1.14-1.39c-.79-.9-1.58-1.81-2.42-2.67A63.5,63.5,0,0,0,145.71,78c-1.82-1.51-3.68-2.93-5.56-4.2-.94-.63-1.87-1.25-2.81-1.81l-1.4-.85-1.28-.72c-1.18-.68-2.19-1.16-2.68-1.42a14.8,14.8,0,0,0-4.73-1.48,22.6,22.6,0,0,0,4.13,2.66c.48.27,1.47.74,2.63,1.41l1.26.71,1.37.83c.92.55,1.84,1.16,2.76,1.78A64.43,64.43,0,0,1,144.85,79a59.27,59.27,0,0,1,5.12,4.8c.83.84,1.6,1.74,2.38,2.62l1.11,1.36.28.34.47.63.95,1.23.93,1.23.18-1.76c.09-.85.17-1.69.26-2.54.12-1.15.23-2.3.35-3.42.26-2.26.52-4.46.76-6.57.54-4.22,1.09-8.08,1.63-11.35s1-6,1.4-7.81.6-2.9.6-2.9.23-1,.65-2.89,1.08-4.49,2-7.65c.48-1.58,1-3.29,1.71-5.07.32-.9.7-1.81,1.08-2.73.21-.46.42-.93.62-1.4s.33-.67.49-1l.34-.71.17-.36A2,2,0,0,0,168,33l-4-.43L160.73,32c-2.22-.41-4.47-.91-6.73-1.53a82.34,82.34,0,0,1-24.81-11.35c-.84-.59-1.67-1.17-2.42-1.8l-1.13-.91a5.82,5.82,0,0,1-.53-.46l-.4-.37c-.21-.2-.42-.38-.6-.56-.37-.34-.68-.6-.87-.8a18,18,0,0,0-1.83-1.75C120.88,12,120.33,11.52,119.64,11Z"
         id="path120" />
      <path
         class="cls-7"
         d="M158.17,34a15.81,15.81,0,0,0-2.3,4.39c-.1.33-.31.85-.65,2-.8,2.42-2,6.54-2.82,10.08s-1.47,6.48-1.47,6.48-.53,2.46-1.11,5.62-1.17,7-1.52,9.8c-.2,1.56-.29,2.52-.34,3a14.71,14.71,0,0,0,.29,4.94,22.76,22.76,0,0,0,1-4.81c.06-.5.15-1.45.35-3,.34-2.75.93-6.59,1.5-9.73s1.09-5.59,1.09-5.59.6-2.92,1.47-6.43,2-7.6,2.8-10c.34-1.11.54-1.63.64-2A21.16,21.16,0,0,0,158.17,34Z"
         id="path122" />
      <path
         class="cls-8"
         d="M157.48,123.06"
         id="path124" />
    </symbol>
    <symbol
       id="Wisdom_Head5"
       data-name="Wisdom_Head5"
       viewBox="0 0 132.21 129.93">
      <path
         class="cls-9"
         d="M31.28,116c-4.08-4.07-7-9.14-9.87-14.14C18.17,96.23,8,79,7.75,77c-.61-5.18,38.57-26.48,42.81-29.52l.81-.48a30.32,30.32,0,0,1,31.54.48h0c4.24,3,43.42,24.34,42.81,29.52-.23,2-10.42,19.23-13.66,24.89-2.87,5-5.79,10.07-9.87,14.14-.31.3-.77.7-1.35,1.18a53.8,53.8,0,0,1-66.42,1.36A35.84,35.84,0,0,1,31.28,116Z"
         id="path127" />
      <path
         class="cls-2"
         d="M64.25,56.31c-.52.17-.82.29-.91.62l-.54,2.16-.53,2.16c-.07.33.13.58.53,1,.53-.16.82-.29.92-.62l.53-2.15.53-2.16C64.85,57,64.65,56.7,64.25,56.31Z"
         id="path129" />
      <path
         class="cls-2"
         d="M69,56.1c-.38.42-.57.69-.49,1s.62,2.28.62,2.28.51,1.89.61,2.28.41.47.95.63c.37-.42.57-.69.48-1S70.58,59,70.58,59s-.51-1.89-.62-2.28S69.56,56.26,69,56.1Z"
         id="path131" />
      <ellipse
         class="cls-10"
         cx="19.42"
         cy="36.37"
         rx="18.81"
         ry="17.74"
         id="ellipse133" />
      <ellipse
         class="cls-10"
         cx="112.78"
         cy="36.95"
         rx="18.81"
         ry="17.74"
         id="ellipse135" />
      <path
         class="cls-11"
         d="M42.71,80.2a.47.47,0,0,0-.21.8,36.42,36.42,0,0,0,50.1-.14s.05-1.12-3-1.84a96.51,96.51,0,0,0-22.92-1.85,169.63,169.63,0,0,0-22.28,2.69C43.69,80,43.13,80.11,42.71,80.2Z"
         id="path137" />
      <ellipse
         class="cls-10"
         cx="65.13"
         cy="18.35"
         rx="18.81"
         ry="17.74"
         id="ellipse139" />
      <path
         class="cls-2"
         d="M17.47,75.13a10,10,0,0,0,4.2,3.74c.29.13.72.35,1.27.57.28.11.58.24.91.35s.53.19.81.28l.93.29c.63.17,1.29.34,2,.47a34.88,34.88,0,0,0,8.78.59,85.2,85.2,0,0,0,9.17-1c3-.49,5.91-1,8.62-1.27s5.2-.53,7.32-.67,3.87-.19,5.09-.22l1.9,0s2.75-.05,7,.13A132.38,132.38,0,0,1,91.38,80c3,.51,6.05,1.12,9.12,1.37a30,30,0,0,0,4.54,0c.75,0,1.48-.14,2.2-.25.35-.07.71-.13,1.06-.21l.51-.12.45-.12a16.91,16.91,0,0,0,3.27-1.25,8.23,8.23,0,0,0,4-4,34.87,34.87,0,0,1-4.62,2.69,16.2,16.2,0,0,1-3,1.14l-.41.11-.48.11c-.32.08-.65.12-1,.19-.67.11-1.35.19-2,.24a28.46,28.46,0,0,1-4.32-.06c-3-.23-6-.83-9-1.34A133.78,133.78,0,0,0,75.5,76.82c-4.3-.18-7.07-.13-7.07-.13l-1.93,0c-1.23,0-3,.09-5.14.22s-4.67.34-7.41.68-5.69.79-8.68,1.27a84.29,84.29,0,0,1-9,1,33.13,33.13,0,0,1-8.4-.57c-.65-.12-1.27-.28-1.86-.45l-.88-.26-.76-.26c-.31-.11-.59-.23-.85-.33-.52-.2-.92-.41-1.19-.53C20.35,76.54,19.21,76.05,17.47,75.13Z"
         id="path141" />
      <path
         class="cls-12"
         d="M49.62,85.47c9.7-7.4,24.75-6.57,33.58,1.84,0,0-10.19,4.75-16.88,3.67C51.66,88.62,49.62,85.47,49.62,85.47Z"
         id="path143" />
      <path
         class="cls-2"
         d="M41.87,80.39a13.3,13.3,0,0,0,3.75,4.14c.33.21.83.63,2,1.33a35.7,35.7,0,0,0,5.22,2.74,37.9,37.9,0,0,0,6.57,2.14,37.44,37.44,0,0,0,5.69.83c1.48.08,2.41.08,2.41.08H68c.35,0,.86,0,1.5,0a38.51,38.51,0,0,0,5-.62,37,37,0,0,0,6-1.71,39.49,39.49,0,0,0,5.34-2.48c1.54-.89,2.45-1.53,2.92-1.85a13.35,13.35,0,0,0,3.84-4.07,42,42,0,0,0-4.68,2.85c-.46.31-1.33.91-2.82,1.76a37,37,0,0,1-10.92,4,35,35,0,0,1-4.75.6c-.6.05-1.09,0-1.43.05h-.52a34.63,34.63,0,0,1-7.77-.88,36.87,36.87,0,0,1-6.31-2,33.8,33.8,0,0,1-5-2.64c-1.1-.67-1.58-1.06-1.9-1.27A41.75,41.75,0,0,0,41.87,80.39Z"
         id="path145" />
      <path
         class="cls-2"
         d="M49.62,85.47c1.84-.71,3-1.19,5-2.09a17.26,17.26,0,0,1,2.1-.81,25.36,25.36,0,0,1,6-1.27,21.52,21.52,0,0,1,2.74-.11H66.6l1,.09a21.43,21.43,0,0,1,2.36.31,26.83,26.83,0,0,1,5.56,1.61l1.89.87,1.05.61c1.92,1.1,3,1.71,4.77,2.62a11.36,11.36,0,0,0-4-3.91l-1.11-.64c-.52-.26-1.19-.55-2-.93a28.5,28.5,0,0,0-5.88-1.7,19.72,19.72,0,0,0-2.49-.32l-1-.09-1.21,0a24.09,24.09,0,0,0-2.9.11,26.92,26.92,0,0,0-6.3,1.34A18.24,18.24,0,0,0,54,82,11.24,11.24,0,0,0,49.62,85.47Z"
         id="path147" />
      <path
         class="cls-13"
         d="M58.38,96.1a24.62,24.62,0,0,0,9.49,1.62A23.1,23.1,0,0,0,77.1,95.8"
         id="path149" />
      <path
         class="cls-2"
         d="M58.38,96.1a10.59,10.59,0,0,0,5.19,2.1c.4.06,1,.15,2.38.23.4,0,1.34,0,1.34,0s.79,0,1.23,0A25.75,25.75,0,0,0,72,98.09,10.12,10.12,0,0,0,77.1,95.8c-1.93.35-3.17.45-5.36.83a27.52,27.52,0,0,1-3.28.32L67.3,97l-1.27,0c-1.27-.08-1.88-.16-2.26-.21C61.57,96.41,60.32,96.36,58.38,96.1Z"
         id="path151" />
      <ellipse
         class="cls-14"
         cx="23.49"
         cy="37.56"
         rx="4.4"
         ry="8.8"
         id="ellipse153" />
      <circle
         class="cls-15"
         cx="21.27"
         cy="34.19"
         r="2.99"
         id="circle155" />
      <ellipse
         class="cls-14"
         cx="64.94"
         cy="19.8"
         rx="4.4"
         ry="8.8"
         id="ellipse157" />
      <circle
         class="cls-15"
         cx="62.72"
         cy="16.42"
         r="2.99"
         id="circle159" />
      <circle
         class="cls-15"
         cx="106.15"
         cy="35.17"
         r="2.99"
         id="circle161" />
      <ellipse
         class="cls-14"
         cx="108.37"
         cy="38.55"
         rx="4.4"
         ry="8.8"
         id="ellipse163" />
    </symbol>
  </defs>
  <g
     id="WISDOMS">
    <use
       width="205.05"
       height="133.79"
       transform="translate(46.18 164.52) scale(0.99)"
       xlink:href="#Wisdom_Body_1_5"
       id="use168" />
    <use
       width="168.36"
       height="135.63"
       transform="translate(65.3 133.56) scale(0.99)"
       xlink:href="#Wisdom_Body_MASTER_1_2"
       id="use170" />
    <use
       width="132.21"
       height="129.93"
       transform="translate(82.48 15.53) scale(0.99)"
       xlink:href="#Wisdom_Head5"
       id="use172" />
  </g>
</svg>
