<svg xmlns="http://www.w3.org/2000/svg" xmlns:xlink="http://www.w3.org/1999/xlink" viewBox="0 0 300 300"><defs><style>.cls-1{fill:#9bcfe7;}.cls-2{fill:#202020;}.cls-3{fill:url(#radial-gradient);}.cls-4{fill:url(#radial-gradient-2);}.cls-5{fill:url(#New_Gradient_Swatch_1);}.cls-6{fill:none;stroke:#3c3c3c;}.cls-6,.cls-9{stroke-miterlimit:10;}.cls-7{fill:url(#New_Gradient_Swatch_10);}.cls-8{fill:#fff;}.cls-9{stroke:#000;stroke-width:0.34px;}</style><radialGradient id="radial-gradient" cx="85.08" cy="69.98" fy="184.54765253172343" r="115.94" gradientUnits="userSpaceOnUse"><stop offset="0.06" stop-color="#6a999e"/><stop offset="0.08" stop-color="#6ea8ae"/><stop offset="0.11" stop-color="#77cdd6"/><stop offset="0.14" stop-color="#81f4ff"/><stop offset="0.19" stop-color="#9ff7ff"/><stop offset="0.24" stop-color="#bdf9ff"/><stop offset="0.31" stop-color="#d5fbff"/><stop offset="0.37" stop-color="#e8fdff"/><stop offset="0.45" stop-color="#f5feff"/><stop offset="0.56" stop-color="#fdffff"/><stop offset="0.76" stop-color="#fff"/></radialGradient><radialGradient id="radial-gradient-2" cx="5867.92" cy="16487.53" r="5.25" gradientTransform="matrix(-0.12, 0.99, -0.99, -0.12, 17030.12, -3860.12)" gradientUnits="userSpaceOnUse"><stop offset="0.28" stop-color="#fff"/><stop offset="0.41" stop-color="#fbfbfb"/><stop offset="0.54" stop-color="#efefef"/><stop offset="0.67" stop-color="#dadada"/><stop offset="0.8" stop-color="#bebebe"/><stop offset="0.93" stop-color="#9a9a9a"/><stop offset="0.95" stop-color="#949494"/></radialGradient><radialGradient id="New_Gradient_Swatch_1" cx="5881.19" cy="16487.87" r="5.25" gradientTransform="matrix(-0.12, 0.99, -0.99, -0.12, 17030.12, -3860.12)" gradientUnits="userSpaceOnUse"><stop offset="0.07" stop-color="#919191"/><stop offset="0.21" stop-color="#828283"/><stop offset="0.47" stop-color="#5c5c60"/><stop offset="0.83" stop-color="#1f1f27"/><stop offset="1" stop-color="#00000a"/></radialGradient><radialGradient id="New_Gradient_Swatch_10" cx="148.32" cy="91.32" fx="82.95935346018315" r="84.98" gradientUnits="userSpaceOnUse"><stop offset="0.41" stop-color="#e7f6fd"/><stop offset="0.52" stop-color="#dff2fb"/><stop offset="0.68" stop-color="#cae7f5"/><stop offset="0.88" stop-color="#a8d6eb"/><stop offset="0.94" stop-color="#9bcfe7"/></radialGradient><symbol id="Wisdom_Body_1_10" data-name="Wisdom_Body_1 10" viewBox="0 0 199.72 121.79"><path class="cls-1" d="M26.32,14.6A36.11,36.11,0,0,1,9.43,20.29c-1.63.09-3.57-.14-4.37-1.7a4,4,0,0,1,.56-3.95,15.59,15.59,0,0,1,3-2.72A2.28,2.28,0,0,0,9.64,10,1.87,1.87,0,0,0,8.59,8.74,13.29,13.29,0,0,0,4.76,7.68,5.53,5.53,0,0,1,1.27,5.8C.44,4.67.41,2.74,1.53,2a3.48,3.48,0,0,1,1.8-.47L19.75.37"/><path class="cls-2" d="M26.32,14.6a48.2,48.2,0,0,0-4.54,1.79c-.25.11-.62.28-1.08.47-.24.1-.49.21-.77.31-.58.23-1.34.51-2.07.75A37.9,37.9,0,0,1,13,19.17c-.86.17-1.75.28-2.63.38a10.47,10.47,0,0,1-2.56,0,2.86,2.86,0,0,1-1.9-.94,2.34,2.34,0,0,1-.43-1.88,5.34,5.34,0,0,1,2.13-3.18l1.35-1.08a4.77,4.77,0,0,0,1-1.13,2.24,2.24,0,0,0,.35-1.12,1.89,1.89,0,0,0,0-.44,2.27,2.27,0,0,0-.87-1.32A7.58,7.58,0,0,0,6.3,7.3,9.16,9.16,0,0,1,2.44,6,2.58,2.58,0,0,1,1.38,4.36a1.91,1.91,0,0,1,.48-1.81c.4-.38,1.31-.37,2.24-.44l2.71-.19,5.1-.34,3-.21a18.36,18.36,0,0,0,4.84-1A17.78,17.78,0,0,0,14.82.05l-3,.2L6.72.59,4,.78c-.46,0-.89,0-1.41.11A3.11,3.11,0,0,0,1,1.51,2.68,2.68,0,0,0,.11,3a3.89,3.89,0,0,0,0,1.59A4,4,0,0,0,1.63,7.1,10.25,10.25,0,0,0,6,8.6a6.3,6.3,0,0,1,2.55.93c.42.35.37.53.39.53s.11.17-.15.61a3.11,3.11,0,0,1-.75.8L6.73,12.55a9.71,9.71,0,0,0-1.55,1.58,5.49,5.49,0,0,0-1,2.42,3.7,3.7,0,0,0,.71,2.92,4.23,4.23,0,0,0,2.74,1.42,12,12,0,0,0,2.88,0c.93-.1,1.86-.22,2.75-.4a40.31,40.31,0,0,0,5.07-1.29c.75-.25,1.54-.54,2.14-.77.29-.11.55-.23.79-.33.49-.2.87-.38,1.12-.49A11.13,11.13,0,0,0,26.32,14.6Z"/><path class="cls-1" d="M173.4,14.6a36.14,36.14,0,0,0,16.89,5.69c1.63.09,3.58-.14,4.38-1.7a4,4,0,0,0-.57-3.95,15.53,15.53,0,0,0-2.95-2.72A2.24,2.24,0,0,1,190.09,10a1.86,1.86,0,0,1,1-1.23A13.36,13.36,0,0,1,195,7.68a5.5,5.5,0,0,0,3.48-1.88c.84-1.13.86-3.06-.25-3.84a3.53,3.53,0,0,0-1.8-.47L180,.37"/><path class="cls-2" d="M173.4,14.6a11.31,11.31,0,0,0,4,3l1.12.49c.24.1.5.22.79.33.6.23,1.39.52,2.14.77a40.31,40.31,0,0,0,5.07,1.29c.9.18,1.82.3,2.75.4a12,12,0,0,0,2.88,0,4.28,4.28,0,0,0,2.75-1.42,3.73,3.73,0,0,0,.7-2.92,5.48,5.48,0,0,0-1-2.42A10.17,10.17,0,0,0,193,12.55l-1.35-1.08a3.3,3.3,0,0,1-.75-.8.79.79,0,0,1-.15-.61s0-.18.39-.53a6.37,6.37,0,0,1,2.55-.93,10.21,10.21,0,0,0,4.41-1.5,4,4,0,0,0,1.57-2.51,3.72,3.72,0,0,0,0-1.59,2.76,2.76,0,0,0-.92-1.49,3.11,3.11,0,0,0-1.58-.62c-.51-.06-1-.08-1.41-.11L193,.59,187.9.25l-3-.2A17.73,17.73,0,0,0,180,.38a18.2,18.2,0,0,0,4.83,1l3,.21,5.1.34,2.71.19c.93.07,1.84.06,2.25.44a1.94,1.94,0,0,1,.48,1.81A2.62,2.62,0,0,1,197.29,6a9.25,9.25,0,0,1-3.86,1.26,7.57,7.57,0,0,0-3.12,1.18,2.16,2.16,0,0,0-.86,1.32,1.38,1.38,0,0,0,0,.44,2.24,2.24,0,0,0,.35,1.12,4.38,4.38,0,0,0,1,1.13l1.34,1.08a5.34,5.34,0,0,1,2.13,3.18,2.37,2.37,0,0,1-.42,1.88,2.91,2.91,0,0,1-1.91.94,10.39,10.39,0,0,1-2.55,0c-.89-.1-1.77-.21-2.64-.38a38.32,38.32,0,0,1-4.89-1.25c-.73-.24-1.49-.52-2.07-.75-.28-.1-.53-.21-.76-.31-.47-.19-.84-.36-1.09-.47A48.2,48.2,0,0,0,173.4,14.6Z"/><path class="cls-1" d="M79.94,96.77c-2.74,5.63-5.68,13.78-6.51,20-.22,1.6-.1,3.66,1.37,4.22s2.86-.9,3.62-2.28,1.62-3,3.15-3.25a3.66,3.66,0,0,1,3.13,1.78,15.46,15.46,0,0,0,2.31,3c1,.79,2.58,1,3.38,0a3.53,3.53,0,0,0,.54-2.16,68.64,68.64,0,0,0-2.78-21"/><path class="cls-2" d="M79.94,96.77A14.83,14.83,0,0,0,77.33,101c-.1.26-.26.64-.45,1.12-.09.24-.2.51-.31.79-.24.64-.55,1.49-.84,2.29a62.59,62.59,0,0,0-2.92,11.21,7.88,7.88,0,0,0,0,3.13,3.25,3.25,0,0,0,.82,1.52,2.56,2.56,0,0,0,1.64.74,2.94,2.94,0,0,0,1.6-.44,5,5,0,0,0,1.09-.92,9,9,0,0,0,1.32-2,4.73,4.73,0,0,1,1.84-2.17,1.56,1.56,0,0,1,.62-.16,1.34,1.34,0,0,1,.23,0,1,1,0,0,1,.23,0,2.39,2.39,0,0,1,.65.28,6.41,6.41,0,0,1,2,2.23,9.85,9.85,0,0,0,1.49,1.88,3.68,3.68,0,0,0,2.81,1,2.48,2.48,0,0,0,1.63-.76,3,3,0,0,0,.72-1.61,10.13,10.13,0,0,0,.09-1.52c0-.49,0-1,0-1.47a70.79,70.79,0,0,0-1-11.49c-.24-1.33-.46-2.43-.59-3a14.4,14.4,0,0,0-1.86-4.6,25,25,0,0,0,.56,4.88c.12.54.34,1.61.57,2.92a67.14,67.14,0,0,1,1,11.27v1.44A10.8,10.8,0,0,1,90.2,119c-.12.81-.52,1.19-1.16,1.25-1.4.12-2.34-1.17-3.07-2.31a12.24,12.24,0,0,0-1.15-1.59,5.46,5.46,0,0,0-1.24-1,3.66,3.66,0,0,0-1-.43,2.67,2.67,0,0,0-.4-.07h-.41a3,3,0,0,0-1.14.28,6.11,6.11,0,0,0-2.43,2.73A8.42,8.42,0,0,1,77,119.54a2.39,2.39,0,0,1-1.64.92,1.44,1.44,0,0,1-1.24-1.27,6.47,6.47,0,0,1,0-2.6,61,61,0,0,1,2.86-11c.28-.79.59-1.62.83-2.25l.3-.78.44-1.11A23,23,0,0,0,79.94,96.77Z"/><path class="cls-1" d="M121.11,96.4c2.74,5.63,4.94,14.15,5.77,20.38.21,1.6.1,3.66-1.37,4.22s-2.87-.9-3.63-2.28-1.61-3-3.15-3.25a3.63,3.63,0,0,0-3.12,1.78,15.9,15.9,0,0,1-2.32,3c-1,.79-2.58,1-3.37,0a3.4,3.4,0,0,1-.54-2.16,68.63,68.63,0,0,1,2.77-21"/><path class="cls-2" d="M121.11,96.4a29.06,29.06,0,0,0,1.25,4.74c.09.26.23.65.39,1.13.08.24.17.51.27.79.21.64.47,1.49.71,2.3a82.2,82.2,0,0,1,2.43,11.12,7.33,7.33,0,0,1,0,2.64c-.18.8-.63,1.27-1.21,1.33a2.2,2.2,0,0,1-1.65-.86,7.6,7.6,0,0,1-1.15-1.72,6.25,6.25,0,0,0-2.39-2.76,2.78,2.78,0,0,0-1.55-.31,2,2,0,0,0-.4.06,3.2,3.2,0,0,0-1,.41,5.19,5.19,0,0,0-1.26,1,11.57,11.57,0,0,0-1.17,1.6c-.73,1.14-1.65,2.45-3.07,2.35-.65,0-1.05-.42-1.18-1.22a24.56,24.56,0,0,1-.08-2.78A69.56,69.56,0,0,1,111,105c.23-1.31.45-2.38.57-2.92a23.51,23.51,0,0,0,.56-4.88,14.4,14.4,0,0,0-1.86,4.6c-.12.54-.35,1.64-.59,3a71.17,71.17,0,0,0-1,11.52c0,.49,0,1,0,1.47a10.33,10.33,0,0,0,.1,1.53,2.91,2.91,0,0,0,.75,1.61,2.49,2.49,0,0,0,1.64.72,3.72,3.72,0,0,0,2.8-1.06,10.46,10.46,0,0,0,1.48-1.89,6.18,6.18,0,0,1,2-2.22,2.2,2.2,0,0,1,.65-.26,1.31,1.31,0,0,1,.23,0,1.56,1.56,0,0,1,.85.18,5.08,5.08,0,0,1,1.83,2.21,8.91,8.91,0,0,0,1.34,2,4.86,4.86,0,0,0,1.12.9,2.74,2.74,0,0,0,1.63.37,2.48,2.48,0,0,0,1.61-.81,3.43,3.43,0,0,0,.76-1.54,8.19,8.19,0,0,0,0-3.12A83,83,0,0,0,125,105c-.24-.81-.51-1.68-.73-2.33l-.26-.81c-.18-.49-.32-.88-.41-1.15A13.09,13.09,0,0,0,121.11,96.4Z"/></symbol><symbol id="Wisdom_Body_MASTER_1_3" data-name="Wisdom_Body_MASTER_1 3" viewBox="0 0 168.36 135.63"><path class="cls-3" d="M67.62,135l2.69-1.28a6.47,6.47,0,0,0,2-7.39l0-.16a20,20,0,0,0,7.05-9.27c1.59-4,2.43-11.21,3.1-16.12,1,.15,3,.53,4,.59.49,4.82,1.25,11.38,2.88,15.53a20,20,0,0,0,7.2,9.36v0l-.06.26-.08-.08A6.79,6.79,0,0,0,101,135l2,.31c4-1.09,6.3-4.16,5.42-7.23h-.07l0-.17c4-.51,7.61-3.31,9.89-6.79,2.57-3.91,3.73-8.59,4.67-13.2a181.35,181.35,0,0,0,3.53-41.13L136.22,72a142.44,142.44,0,0,1,16,14.09,30,30,0,0,0,3.71,3c0-13.24,6.07-44.94,11-54.87-17.65-2.48-30.19-9.3-30.17-9.71-3-1.86-13.67-6.55-16.55-13.32-.51-.73-4.5-9.57-5-10.29l-.39-.06C98.7,15.9,71.92,14.64,53.22,1.35l-1.35-.29c-.27,1.26-3,8.93-3.38,9.73l0,0-3.8,4.87c-4.63,4.62-11.75,10-29.4,15.48l-13.78,3C2.91,38.33,6.94,46,7,51.84c0,.59,4.14,22.33,6.07,36.67a77.07,77.07,0,0,1,22-17.9l7.32-3.52A174,174,0,0,0,45.82,108c.94,4.61,2.1,9.29,4.66,13.2,2.27,3.46,5.85,6.22,9.83,6.76,0,.06,0,.12,0,.19s0,.12,0,.18c-.76,3,2.42,5.8,4.83,6.91Z"/><path class="cls-2" d="M115.36.65a21,21,0,0,0,1.53,4.69c.11.25.29.62.5,1.09l.36.76c.42.88.86,1.8,1.3,2.74l.35.7,0,.07h0l-.35.22-.73.46a64,64,0,0,1-28.3,9.8c-1.29.08-2.56.2-3.83.23H82.46l-3.67-.26c-1.2-.09-2.43-.23-3.59-.32A47.66,47.66,0,0,1,63,18.15a44.4,44.4,0,0,1-7.84-3.66c-1.78-1.06-2.72-1.75-2.72-1.75s-.13-.07-1-.71c-.42-.31-1-.77-1.85-1.46-.3-.26-.21-.18-.23-.19h0l0-.12c.07-.16.13-.33.19-.5l.86-2.33c.2-.58.72-2,1.44-4.17.18-.54.37-1.12.56-1.75h5.86l25-.08,27.09-.08a18,18,0,0,0,4.89-.68,17.72,17.72,0,0,0-4.9-.65L83.38.08l-25,.07-4.79,0H51.48a9.29,9.29,0,0,0-.27.94c-.18.61-.37,1.18-.55,1.71C50,5,49.43,6.4,49.23,7l-.85,2.32-.18.48c-.05.12-.09.23-.14.34s-.12.3-.19.45-.08.15-.07.21l.18.15.34.3.43.36c.86.72,1.48,1.19,1.92,1.52.88.65,1,.72,1,.72s1,.72,2.8,1.81a46,46,0,0,0,8.07,3.77,48.59,48.59,0,0,0,12.53,2.75l3.58.32,3.75.27h3.85c1.3,0,2.61-.16,3.92-.24a65.39,65.39,0,0,0,28.89-10l.73-.46.36-.23.73-.44a1.42,1.42,0,0,0,.34-.22l-.21-.37-.38-.67-.39-.78L119,6.62l-.36-.76c-.22-.46-.39-.84-.51-1.08A15.77,15.77,0,0,0,115.36.65Z"/><path class="cls-2" d="M49.92,7.84A14,14,0,0,0,53.78,11l1.07.59.75.39c.64.33,1.5.75,2.31,1.13s1.72.78,2.63,1.15l2.87,1,2.94,1.05c1,.32,2,.61,3,.86A54.86,54.86,0,0,0,80.3,18.73c2.93.14,4.82.06,4.82.06s1.89,0,4.81-.29a64.06,64.06,0,0,0,10.84-2.07A60.49,60.49,0,0,0,112,11.94c1.22-.61,2.19-1.14,2.68-1.41a14.6,14.6,0,0,0,3.88-3.09,23.5,23.5,0,0,0-4.52,1.93c-.48.26-1.45.78-2.64,1.38a59.82,59.82,0,0,1-11,4.4,62.51,62.51,0,0,1-10.61,2c-2.85.29-4.7.3-4.7.3s-1.85.07-4.72-.07A53.81,53.81,0,0,1,69.7,15.85c-1-.25-2-.53-3-.84l-2.89-1-2.81-1c-.9-.36-1.76-.74-2.57-1.12s-1.64-.79-2.27-1.11l-.73-.38-1-.57A24.9,24.9,0,0,0,49.92,7.84Z"/><path class="cls-2" d="M48.72,11c-.69.56-1.24,1-1.77,1.54a19.08,19.08,0,0,0-1.83,1.75c-.18.2-.5.46-.86.8l-.61.56-.39.37a6,6,0,0,1-.54.46l-1.13.91c-.75.63-1.57,1.21-2.42,1.8A82.22,82.22,0,0,1,14.36,30.5c-2.25.62-4.51,1.12-6.72,1.53l-3.3.52L.38,33A2,2,0,0,0,0,33l.17.36.35.71.48,1,.62,1.4c.38.92.77,1.83,1.09,2.73.67,1.78,1.22,3.49,1.7,5.07,1,3.16,1.61,5.8,2,7.65s.66,2.89.66,2.89.21,1,.6,2.9.87,4.54,1.4,7.81,1.08,7.13,1.62,11.35c.25,2.11.51,4.31.77,6.57.11,1.12.23,2.27.35,3.42.08.85.17,1.69.25,2.54l.18,1.76L13.21,90l.94-1.23.47-.63.28-.34L16,86.41c.78-.88,1.55-1.78,2.37-2.62A60.77,60.77,0,0,1,23.51,79,67.8,67.8,0,0,1,29,74.87c.93-.62,1.84-1.23,2.76-1.79.47-.27.92-.55,1.37-.82l1.27-.71c1.16-.67,2.14-1.14,2.62-1.41a22.69,22.69,0,0,0,4.14-2.66A14.86,14.86,0,0,0,36.38,69c-.49.26-1.49.74-2.67,1.42l-1.29.72L31,72c-.94.56-1.88,1.18-2.82,1.81C26.33,75,24.48,76.45,22.66,78a62.05,62.05,0,0,0-5.24,4.91c-.84.86-1.62,1.77-2.42,2.67l-1.14,1.39-.28.35-.06.08-.13.17-.13.17h0s0,0,0-.07l-.09-.87c-.11-1.16-.23-2.31-.35-3.44-.26-2.26-.52-4.47-.77-6.58-.54-4.24-1.09-8.12-1.63-11.41s-1.05-6-1.41-7.85-.6-2.92-.6-2.92-.24-1-.66-2.92-1.1-4.52-2.06-7.73c-.48-1.59-1-3.33-1.73-5.15-.32-.91-.71-1.84-1.11-2.79l-.63-1.43L2,34.14H2l2.51-.26,3.35-.53c2.26-.43,4.55-.93,6.84-1.56A84,84,0,0,0,39.94,20.25c.87-.61,1.71-1.21,2.48-1.86.4-.31.78-.62,1.16-.93a6.44,6.44,0,0,0,.56-.48l.4-.38c.23-.2.44-.4.63-.58.38-.36.7-.63.89-.84a15.3,15.3,0,0,0,1.64-2.06A19.72,19.72,0,0,0,48.72,11Z"/><path class="cls-2" d="M44.26,45.1A17.05,17.05,0,0,0,43,49.88c0,.27-.08.69-.14,1.2,0,.25-.06.53-.1.84s0,.48-.08.73l-.09.84c0,.57-.1,1.15-.16,1.75C42,60,41.66,65.67,41.65,71.09s.23,10.58.52,14.38c.15,1.9.28,3.46.41,4.55l.17,1.7s.26,2.45.8,6.22,1.37,8.87,2.68,14.16a33,33,0,0,0,2.93,7.75,18.38,18.38,0,0,0,5.1,6A14.85,14.85,0,0,0,57,127.4a7.18,7.18,0,0,0,5,.41,28.55,28.55,0,0,1-4.47-1.62,13.41,13.41,0,0,1-2.46-1.46,15.79,15.79,0,0,1-2.56-2.4,18.07,18.07,0,0,1-2.16-3.13,32.26,32.26,0,0,1-2.81-7.43c-1.28-5.19-2.09-10.28-2.65-14s-.8-6.18-.8-6.18S44,91,43.9,89.89s-.26-2.63-.4-4.52c-.29-3.78-.54-8.9-.52-14.28s.31-11,.74-15.73c.06-.59.11-1.17.16-1.74,0-.28.06-.56.08-.83l.09-.73c0-.3.06-.58.09-.83.06-.51.11-.92.14-1.19A19.37,19.37,0,0,0,44.26,45.1Z"/><path class="cls-2" d="M69.3,127.59a8.25,8.25,0,0,0,4.65-1.9,16.92,16.92,0,0,0,1.58-1.46,20.88,20.88,0,0,0,3.2-4.39,24.59,24.59,0,0,0,1.46-3.12s.48-1.21.92-2.8a42.13,42.13,0,0,0,1.07-5c.25-1.56.36-2.52.42-3a16.19,16.19,0,0,0-.07-4.38l-.27,0,.28.49c0-.2,0-.39,0-.56l-.27,0a19.26,19.26,0,0,0-1,4.26c-.06.49-.18,1.45-.42,3a42.14,42.14,0,0,1-1,4.81,27.57,27.57,0,0,1-.88,2.69,22.92,22.92,0,0,1-1.38,3,20.35,20.35,0,0,1-3,4.11,17.19,17.19,0,0,1-1.46,1.36C71.58,125.88,70.74,126.59,69.3,127.59Z"/><path class="cls-2" d="M74.49,98.26a12.58,12.58,0,0,0,4.46,2.2c.34.08.89.25,2.06.49.84.17,2.28.43,3.51.55.62.08,1.18.12,1.59.14l.67,0s.86,0,2,.06,2.43-.06,3.37-.15c1.58-.15,2.55-.32,3.06-.4a12.41,12.41,0,0,0,4.64-1.8,32.59,32.59,0,0,0-4.87.5c-.49.06-1.42.23-2.94.37-.92.08-2.2.14-3.26.15l-1.88,0-.65,0c-.39,0-.94-.07-1.53-.14-1.19-.12-2.58-.37-3.39-.54-1.13-.23-1.66-.39-2-.46A32,32,0,0,0,74.49,98.26Z"/><path class="cls-2" d="M60.45,127.9a4.24,4.24,0,0,0,.57,5,8.58,8.58,0,0,0,1.66,1.52,11.19,11.19,0,0,0,1.15.69l.35.17a1.22,1.22,0,0,0,.27.09l.2,0c.27.05.53.12.79.16a7.94,7.94,0,0,0,1.34,0l.56,0,.46-.09.51-.11.61-.22a7.15,7.15,0,0,0,4.15-4.3,5.18,5.18,0,0,0-.54-4.61l-.19,0a2.12,2.12,0,0,1-.11.21s0,.07,0,.11,0,.13,0,.1.06-.1.09-.14l.18-.12-.19,0a9.86,9.86,0,0,1-.49,4.11,5.63,5.63,0,0,1-1.46,2.25,5.49,5.49,0,0,1-1.92,1.24l-.49.18-.41.09-.38.07-.46,0a5.86,5.86,0,0,1-1.08,0l-.64-.14-.17,0-.07,0-.31-.14a9.46,9.46,0,0,1-1-.6A7.76,7.76,0,0,1,62,132a7.51,7.51,0,0,1-1.19-1.95A5,5,0,0,1,60.45,127.9Z"/><path class="cls-2" d="M82.65,22.24A18.07,18.07,0,0,0,82,27.13c0,4.62,0,27.76,0,27.76s0,22.1,0,26.52a17.62,17.62,0,0,0,.67,4.89,17.72,17.72,0,0,0,.65-4.9c0-4.41,0-26.52,0-26.52s0-23.13,0-27.75A18,18,0,0,0,82.65,22.24Z"/><path class="cls-2" d="M87.41,22.24a18,18,0,0,0-.66,4.89V81.41a18.07,18.07,0,0,0,.66,4.89,18.07,18.07,0,0,0,.66-4.89V27.13A18,18,0,0,0,87.41,22.24Z"/><path class="cls-2" d="M124.68,45.1a18.94,18.94,0,0,0,0,4.94c0,.27.07.68.13,1.19,0,.25.06.53.1.83s0,.48.08.73,0,.55.08.83c0,.57.11,1.15.16,1.74.44,4.74.73,10.36.74,15.73s-.23,10.5-.51,14.28c-.15,1.89-.28,3.44-.4,4.52s-.18,1.68-.18,1.68-.25,2.43-.8,6.18-1.37,8.83-2.65,14a31.37,31.37,0,0,1-2.81,7.43,18,18,0,0,1-2.15,3.13,16.26,16.26,0,0,1-2.57,2.4,13.42,13.42,0,0,1-2.45,1.46,28.65,28.65,0,0,1-4.48,1.62,7.18,7.18,0,0,0,5-.41,14.84,14.84,0,0,0,2.71-1.59,18.47,18.47,0,0,0,5.09-6,33,33,0,0,0,2.93-7.75c1.31-5.29,2.12-10.38,2.68-14.16s.8-6.22.8-6.22.06-.61.18-1.7.25-2.65.4-4.55c.29-3.8.55-9,.52-14.38S127,60,126.55,55.24c0-.6-.11-1.18-.16-1.75,0-.28-.06-.56-.08-.84l-.09-.73c0-.31-.07-.59-.1-.84-.06-.51-.1-.93-.14-1.2A16.72,16.72,0,0,0,124.68,45.1Z"/><path class="cls-2" d="M99.65,127.59c-1.44-1-2.29-1.71-3.82-2.92a17.73,17.73,0,0,1-1.45-1.36,20.35,20.35,0,0,1-3-4.11,22.92,22.92,0,0,1-1.38-3,25.91,25.91,0,0,1-.89-2.69,44.4,44.4,0,0,1-1-4.81c-.24-1.52-.35-2.48-.42-3a18.72,18.72,0,0,0-1-4.26l-.27,0c0,.17,0,.36,0,.56l.29-.49-.27,0a15.42,15.42,0,0,0-.07,4.38c.06.51.17,1.47.41,3a44.25,44.25,0,0,0,1.07,5,28.64,28.64,0,0,0,.93,2.8,23.65,23.65,0,0,0,1.45,3.12,21.24,21.24,0,0,0,3.2,4.39A15.34,15.34,0,0,0,95,125.69,8.25,8.25,0,0,0,99.65,127.59Z"/><path class="cls-2" d="M108.5,127.9a5.36,5.36,0,0,1-.4,2.19,7.87,7.87,0,0,1-1.2,1.95,7.06,7.06,0,0,1-1.4,1.27,9.46,9.46,0,0,1-1,.6l-.3.14-.08,0-.16,0-.64.14a6,6,0,0,1-1.09,0l-.45,0a2.1,2.1,0,0,1-.38-.07l-.41-.09-.49-.18a5.44,5.44,0,0,1-1.93-1.24,5.63,5.63,0,0,1-1.46-2.25,10,10,0,0,1-.49-4.11l-.19,0,.18.12s.17.12.1.14.06-.07,0-.1a.54.54,0,0,0-.05-.11l-.11-.21-.19,0a5.21,5.21,0,0,0-.54,4.61,6.9,6.9,0,0,0,1.78,2.78,7,7,0,0,0,2.37,1.52l.61.22.51.11.47.09.56,0a8,8,0,0,0,1.34,0c.25,0,.52-.11.78-.16l.2,0a1.07,1.07,0,0,0,.27-.09l.35-.17a10.19,10.19,0,0,0,1.15-.69,8.26,8.26,0,0,0,1.66-1.52A4.22,4.22,0,0,0,108.5,127.9Z"/><path class="cls-2" d="M51.2,3.7A15.14,15.14,0,0,0,55,6.91L56,7.54l.73.42c.61.32,1.39.79,2.17,1.17,1.55.83,3.31,1.62,5.13,2.39a58.8,58.8,0,0,0,5.7,1.94,49,49,0,0,0,10.45,1.71c1.41.06,2.57.1,3.37.06l1.25,0s1.82,0,4.61-.33a67.4,67.4,0,0,0,10.38-2,53,53,0,0,0,10.85-4.19c1.21-.65,2.17-1.24,2.64-1.56s.8-.57,1.14-.83a12,12,0,0,0,.88-.86,10.83,10.83,0,0,0,1.42-1.93c-.78.43-1.36.83-2,1.18-.33.18-.65.39-1,.61s-.74.44-1.15.72-1.37.86-2.54,1.49a51.35,51.35,0,0,1-10.57,4.08,65.46,65.46,0,0,1-10.18,1.94c-2.73.29-4.5.32-4.5.32l-1.23,0c-.78,0-1.91,0-3.28-.07a48.12,48.12,0,0,1-10.17-1.67,53.94,53.94,0,0,1-5.54-1.89c-1.79-.75-3.5-1.53-5-2.34-.75-.37-1.53-.82-2.12-1.14l-.73-.42-1-.6A22.22,22.22,0,0,0,51.2,3.7Z"/><circle id="SVGID" class="cls-4" cx="56.45" cy="30.03" r="5.23"/><circle id="SVGID-2" data-name="SVGID" class="cls-5" cx="54.57" cy="43.11" r="5.23"/><path class="cls-2" d="M10.19,34a21.71,21.71,0,0,0,1,4.81c.11.33.31.85.65,2,.78,2.39,1.93,6.48,2.79,10s1.47,6.43,1.47,6.43.52,2.45,1.09,5.59,1.16,7,1.51,9.73c.2,1.54.29,2.49.34,3a22.75,22.75,0,0,0,1,4.81,15,15,0,0,0,.28-4.94c0-.51-.14-1.47-.34-3-.34-2.77-.94-6.64-1.52-9.8s-1.1-5.62-1.1-5.62-.6-2.94-1.47-6.48-2-7.66-2.82-10.08c-.35-1.12-.55-1.64-.66-2A15.29,15.29,0,0,0,10.19,34Z"/><path class="cls-2" d="M119.64,11a21.76,21.76,0,0,0,1,2.16,15.3,15.3,0,0,0,1.64,2.06c.19.21.51.48.89.84.19.18.4.38.63.58l.41.38a5.11,5.11,0,0,0,.55.48l1.16.93c.77.65,1.62,1.25,2.48,1.86a84,84,0,0,0,25.23,11.54c2.29.63,4.59,1.13,6.84,1.56l3.36.53,2.5.26h0l-.19.41c-.22.48-.43,1-.64,1.43-.39,1-.78,1.88-1.11,2.79-.69,1.82-1.24,3.56-1.73,5.15-1,3.21-1.62,5.87-2.05,7.73s-.66,2.92-.66,2.92-.22,1-.6,2.92-.89,4.57-1.41,7.85-1.1,7.17-1.64,11.41c-.25,2.11-.51,4.32-.77,6.58-.11,1.13-.23,2.28-.35,3.44l-.09.87c0,.1,0,.07,0,.07h0l-.13-.17-.13-.17-.07-.08-.28-.35-1.14-1.39c-.79-.9-1.58-1.81-2.42-2.67A63.5,63.5,0,0,0,145.71,78c-1.82-1.51-3.68-2.93-5.56-4.2-.94-.63-1.87-1.25-2.81-1.81l-1.4-.85-1.28-.72c-1.18-.68-2.19-1.16-2.68-1.42a14.8,14.8,0,0,0-4.73-1.48,22.6,22.6,0,0,0,4.13,2.66c.48.27,1.47.74,2.63,1.41l1.26.71,1.37.83c.92.55,1.84,1.16,2.76,1.78A64.43,64.43,0,0,1,144.85,79a59.27,59.27,0,0,1,5.12,4.8c.83.84,1.6,1.74,2.38,2.62l1.11,1.36.28.34.47.63.95,1.23.93,1.23.18-1.76c.09-.85.17-1.69.26-2.54.12-1.15.23-2.3.35-3.42.26-2.26.52-4.46.76-6.57.54-4.22,1.09-8.08,1.63-11.35s1-6,1.4-7.81.6-2.9.6-2.9.23-1,.65-2.89,1.08-4.49,2-7.65c.48-1.58,1-3.29,1.71-5.07.32-.9.7-1.81,1.08-2.73.21-.46.42-.93.62-1.4s.33-.67.49-1l.34-.71.17-.36A2,2,0,0,0,168,33l-4-.43L160.73,32c-2.22-.41-4.47-.91-6.73-1.53a82.34,82.34,0,0,1-24.81-11.35c-.84-.59-1.67-1.17-2.42-1.8l-1.13-.91a5.82,5.82,0,0,1-.53-.46l-.4-.37c-.21-.2-.42-.38-.6-.56-.37-.34-.68-.6-.87-.8a18,18,0,0,0-1.83-1.75C120.88,12,120.33,11.52,119.64,11Z"/><path class="cls-2" d="M158.17,34a15.81,15.81,0,0,0-2.3,4.39c-.1.33-.31.85-.65,2-.8,2.42-2,6.54-2.82,10.08s-1.47,6.48-1.47,6.48-.53,2.46-1.11,5.62-1.17,7-1.52,9.8c-.2,1.56-.29,2.52-.34,3a14.71,14.71,0,0,0,.29,4.94,22.76,22.76,0,0,0,1-4.81c.06-.5.15-1.45.35-3,.34-2.75.93-6.59,1.5-9.73s1.09-5.59,1.09-5.59.6-2.92,1.47-6.43,2-7.6,2.8-10c.34-1.11.54-1.63.64-2A21.16,21.16,0,0,0,158.17,34Z"/><path class="cls-6" d="M157.48,123.06"/></symbol></defs><g id="WISDOMS"><use width="199.72" height="121.79" transform="translate(50.39 169.25) scale(0.99)" xlink:href="#Wisdom_Body_1_10"/><use width="168.36" height="135.63" transform="translate(65.4 133.69) scale(0.99)" xlink:href="#Wisdom_Body_MASTER_1_3"/><path class="cls-7" d="M146.29,148.56c1.47-1.38,4.07-.39,5.13,1.34s1.1,3.85,1.39,5.85c.67,4.52,3.09,9.07,7.25,10.95s10,0,11.19-4.45c1.75-6.54-6.69-11.8-6.83-18.56,0-1.94,1-4.17,2.9-4.47,2.62-.4,4.14,2.74,5.44,5.05,1.78,3.16,5,5.77,8.61,5.81s7.24-3.25,6.68-6.83c-.5-3.24-3.73-5.17-6.43-7s-5.45-4.9-4.38-8l-.25.63A45.59,45.59,0,0,0,181.46,56a5,5,0,0,0-1.32-.78c-1.27-1-1.32-3-.63-4.49A16,16,0,0,1,182.58,47c2.85-3.07,4.9-7.35,3.83-11.39s-6.35-6.83-9.72-4.35c-2.63,1.93-2.85,5.67-3.26,8.9s-2,7.06-5.19,7.4c-2.55.27-4.83-2-5.33-4.54s.35-5.09,1.45-7.4,2.48-4.53,3.13-7c1.13-4.34-.41-9.43-4.14-11.92s-9.49-1.66-11.91,2.11c-1.53,2.38-1.63,5.38-1.43,8.19s.63,8.6,0,11.35c-1,4.58-3.38,0-3.38,0-.63-2.75-.2-8.53,0-11.35s.09-5.81-1.43-8.19c-2.42-3.77-8.17-4.6-11.91-2.11s-5.27,7.58-4.14,11.92c.65,2.48,2,4.69,3.13,7s1.95,4.89,1.45,7.4-2.78,4.81-5.33,4.54c-3.24-.34-4.78-4.16-5.19-7.4s-.64-7-3.26-8.9c-3.37-2.48-8.65.31-9.72,4.35s1,8.32,3.82,11.39a16,16,0,0,1,3.07,3.77c.7,1.47.65,3.47-.62,4.49a9.89,9.89,0,0,0-1.8,1.19,45.59,45.59,0,0,0,5,72.47l-.25-.63c1.07,3.09-1.68,6.14-4.38,8s-5.93,3.77-6.43,7c-.56,3.58,3,6.87,6.68,6.83s6.83-2.65,8.6-5.81c1.3-2.31,2.82-5.45,5.45-5.05,1.91.3,2.94,2.53,2.9,4.47-.14,6.76-8.58,12-6.83,18.56,1.18,4.41,7,6.33,11.19,4.45s6.58-6.43,7.24-10.95c.3-2,.34-4.13,1.4-5.85s3.65-2.72,5.13-1.34"/><path class="cls-2" d="M146.29,148.56a2.6,2.6,0,0,1,2.19-.09,5,5,0,0,1,1.92,1.25,3,3,0,0,1,.52.72,5,5,0,0,1,.28.57l.13.33,0,.08.09.32c.07.21.12.42.17.64.09.44.17.9.23,1.36.13.93.21,1.91.41,2.91a17.49,17.49,0,0,0,2.14,5.72,12.58,12.58,0,0,0,4.41,4.47,9.43,9.43,0,0,0,6.33,1.14,8.82,8.82,0,0,0,5.67-3.27,6.55,6.55,0,0,0,1.28-3.17,8.14,8.14,0,0,0,.07-1.71,10.31,10.31,0,0,0-.3-1.66,21.57,21.57,0,0,0-2.92-5.79,35.1,35.1,0,0,1-3.07-5.39,10.22,10.22,0,0,1-.46-1.42l-.17-.72-.07-.73a4.75,4.75,0,0,1,.46-2.72,2.51,2.51,0,0,1,1.89-1.49,2.69,2.69,0,0,1,2.24,1,13.49,13.49,0,0,1,1.71,2.49,23.7,23.7,0,0,0,1.73,2.81,11.75,11.75,0,0,0,5.35,4.06c4.35,1.84,10.22-1.34,10.26-6.41a6.46,6.46,0,0,0-1.11-3.34,11.17,11.17,0,0,0-2.29-2.45c-1.68-1.4-3.59-2.36-5-3.7a9.81,9.81,0,0,1-1.88-2.21,4.23,4.23,0,0,1-.74-3.19l.08-.31.05-.15c1.18.42-1.6-.63-1.32-.5l0,.05,0,.09-.14.35,0,.09c.46.39-1.07-.79,1,.87l0,0,.16-.12.64-.45,1.27-.89c.42-.31.81-.64,1.22-1h0l.56-.45A47.46,47.46,0,0,0,197.9,96.32a42.29,42.29,0,0,0,.26-8.16A44,44,0,0,0,197,80.49,47.12,47.12,0,0,0,184.92,58.3c-.6-.61-1.16-1.19-1.75-1.71l-.86-.77-.41-.37a5.45,5.45,0,0,0-.51-.37q-.25-.16-.51-.3c-.14-.07-.45-.2-.36-.17a1.9,1.9,0,0,1-.42-.52,2.76,2.76,0,0,1-.33-1.38,4.29,4.29,0,0,1,.77-2.38,12.29,12.29,0,0,1,1.17-1.45l.59-.61A17.2,17.2,0,0,0,187,40.61a10.41,10.41,0,0,0,.22-4.51,7.61,7.61,0,0,0-2.07-4,8.28,8.28,0,0,0-3.77-2.26,6.05,6.05,0,0,0-4.4.36,6.56,6.56,0,0,0-2.87,3.19,14.75,14.75,0,0,0-1,3.87c-.2,1.27-.29,2.55-.5,3.69a11.52,11.52,0,0,1-1.11,3.26,5.07,5.07,0,0,1-2.12,2.26,3.33,3.33,0,0,1-2.81.11,4.8,4.8,0,0,1-2.22-1.94,5.59,5.59,0,0,1-.86-2.82A12.8,12.8,0,0,1,165,36c.88-1.86,1.94-3.64,2.69-5.59a12.85,12.85,0,0,0,.84-6c-.42-4-2.78-7.61-6.23-9a9.82,9.82,0,0,0-9.78,1.3,8.26,8.26,0,0,0-2.61,3.9,14.45,14.45,0,0,0-.62,4.23c0,1.36.1,2.64.18,3.85s.14,2.37.18,3.49a28.29,28.29,0,0,1-.27,6.05,6.33,6.33,0,0,1-.37,1.16c0,.08-.09.13-.12.19l-.06.1-.05,0s0,.06,0,0,0,0,0,0a1.3,1.3,0,0,1-.59-.44,5.87,5.87,0,0,1-.62-.86l-.14-.23c0-.07,0,0,0-.07s-.07-.34-.09-.51q-.07-.52-.12-1c0-.68-.07-1.31-.07-1.92,0-2.41.1-4.2.17-5.37s.11-1.74.11-1.74.06-.57.1-1.81a14.88,14.88,0,0,0-.8-5.68,8.19,8.19,0,0,0-2.75-3.64,9.81,9.81,0,0,0-11.63.25,11.35,11.35,0,0,0-3.89,6.68,12.6,12.6,0,0,0-.08,4.34A15.67,15.67,0,0,0,129.68,32c1.3,2.78,3.12,5.5,3.46,8.71A6,6,0,0,1,132,45.13a3.86,3.86,0,0,1-4.16,1.55c-1.55-.45-2.64-2.08-3.26-3.85A13.63,13.63,0,0,1,123.9,40c-.13-1-.24-2.06-.42-3.13a14.74,14.74,0,0,0-.87-3.26,6.93,6.93,0,0,0-2.15-2.89,5.58,5.58,0,0,0-3.59-1.14,7.65,7.65,0,0,0-3.61,1.09,8.45,8.45,0,0,0-2.76,2.63A7.94,7.94,0,0,0,109.27,37a12.67,12.67,0,0,0,2,7.5,19,19,0,0,0,2.44,3.15,18.35,18.35,0,0,1,2.46,2.86,3.87,3.87,0,0,1,.47,3.25,2,2,0,0,1-.39.65.53.53,0,0,1-.13.13s-.09.09-.07.08l-.44.24c-.31.19-.62.38-.92.6a7.68,7.68,0,0,0-.84.72A47.23,47.23,0,0,0,98.58,86.75a45.24,45.24,0,0,0,3.12,21,47.18,47.18,0,0,0,14.67,19.64c.84.71,1.78,1.29,2.68,1.94l.17.12,0,0c.47-.38-1,.85,1.06-.84l0,0,0-.1-.15-.38,0-.1c-2.64,1-.73.28-1.32.5v0l0,0,0,.17a2,2,0,0,1,.08.33,4.07,4.07,0,0,1,0,1.39c-.42,1.89-2,3.55-3.71,4.83a31,31,0,0,0-5.52,4.33,7.24,7.24,0,0,0-1.71,3.43,5.83,5.83,0,0,0,.72,3.86h0a4.25,4.25,0,0,0,.42.66h0a7.82,7.82,0,0,0,5.7,3.2,9.4,9.4,0,0,0,6.23-2.07,13.52,13.52,0,0,0,2.34-2.32,19.75,19.75,0,0,0,1.72-2.74,15.13,15.13,0,0,1,1.65-2.51,3.06,3.06,0,0,1,2.16-1.23c1.66-.07,2.76,2,2.66,3.86a12.72,12.72,0,0,1-1.93,5.63c-1.05,1.8-2.3,3.53-3.37,5.43a11,11,0,0,0-1.7,6.47,7,7,0,0,0,1.21,3.28,7.67,7.67,0,0,0,2.58,2.3,9.77,9.77,0,0,0,6.61,1.09,10.61,10.61,0,0,0,5.71-3.39,15.41,15.41,0,0,0,3.18-5.67,18.09,18.09,0,0,0,.73-3.14c.15-1.05.24-2.07.42-3l.12-.57,0-.09c0-.13.07-.26.1-.38a4.78,4.78,0,0,1,1-2,5,5,0,0,1,1.92-1.25,2.6,2.6,0,0,1,2.19.09,2.64,2.64,0,0,0-2.37-1.1,4.09,4.09,0,0,0-2.75,1.3,5.94,5.94,0,0,0-1.37,2.51c-.05.15-.09.29-.13.44l0,.11-.13.64c-.2,1.06-.29,2.1-.43,3.09a18.06,18.06,0,0,1-.67,2.91,14.21,14.21,0,0,1-2.89,5.16,9.14,9.14,0,0,1-4.94,2.94,8.36,8.36,0,0,1-5.65-.92,5.85,5.85,0,0,1-3.09-4.51,9.72,9.72,0,0,1,1.54-5.64c1-1.8,2.26-3.53,3.35-5.4a13.93,13.93,0,0,0,2.12-6.3,6,6,0,0,0-.88-3.42,4.24,4.24,0,0,0-1.31-1.36,3.49,3.49,0,0,0-1.88-.52,4.4,4.4,0,0,0-3.21,1.71,16.08,16.08,0,0,0-1.82,2.74,17.94,17.94,0,0,1-1.6,2.56,11.64,11.64,0,0,1-2.08,2.07,8.05,8.05,0,0,1-5.28,1.79,6.42,6.42,0,0,1-4.66-2.62h0a5,5,0,0,1-.34-.53,4.4,4.4,0,0,1-.55-2.93,5.71,5.71,0,0,1,1.38-2.75,30.77,30.77,0,0,1,5.3-4.12,14.47,14.47,0,0,0,2.58-2.43,7.74,7.74,0,0,0,1.66-3.25,5.06,5.06,0,0,0,0-1.9,3.94,3.94,0,0,0-.1-.47l-.07-.23V128c-.59.22,1.31-.51-1.32.47l0,.1.15.38,0,.1,0,0c2.08-1.67.56-.47,1-.85h0l-.16-.12c-.87-.63-1.79-1.19-2.6-1.88a45.66,45.66,0,0,1-14.22-19,43.66,43.66,0,0,1-3-20.34,45.94,45.94,0,0,1,14.85-29.64,6.52,6.52,0,0,1,.73-.62c.26-.19.53-.36.81-.53l.45-.25a2,2,0,0,0,.31-.25,1.73,1.73,0,0,0,.23-.24,3.51,3.51,0,0,0,.64-1.08,5.18,5.18,0,0,0-.58-4.46,18.6,18.6,0,0,0-2.64-3.1,17.56,17.56,0,0,1-2.27-2.93,11.21,11.21,0,0,1-1.84-6.64,6.47,6.47,0,0,1,1-3.07,6.88,6.88,0,0,1,2.3-2.19c1.8-1.08,4.12-1.26,5.62,0s2.17,3.27,2.5,5.26c.17,1,.28,2,.41,3.08a15.55,15.55,0,0,0,.72,3.12,9.5,9.5,0,0,0,1.51,2.82,5.44,5.44,0,0,0,2.65,1.9,4.74,4.74,0,0,0,3.24-.15A6,6,0,0,0,133.06,46a6.88,6.88,0,0,0,1.3-2.66,8.66,8.66,0,0,0,.17-2.81,15.8,15.8,0,0,0-1.49-5c-.7-1.49-1.47-2.85-2.1-4.2a14.59,14.59,0,0,1-1.32-4,11,11,0,0,1,.08-3.85,9.91,9.91,0,0,1,3.38-5.86,8.05,8.05,0,0,1,5.42-1.73A8.15,8.15,0,0,1,143,17.45a6.9,6.9,0,0,1,2.28,3,13.49,13.49,0,0,1,.7,5.14c0,1.17-.09,1.75-.09,1.75s0,.57-.12,1.75-.19,3-.17,5.48c0,.62,0,1.29.08,2,0,.36.07.73.13,1.11,0,.2.07.4.1.6l.05.23.12.23.16.27a7.4,7.4,0,0,0,.79,1.08,2.4,2.4,0,0,0,1.48.89,1.11,1.11,0,0,0,.62-.07,1.17,1.17,0,0,0,.5-.3l.2-.18.13-.19a4,4,0,0,0,.24-.38,8.65,8.65,0,0,0,.49-1.49A30.23,30.23,0,0,0,151,32c0-1.14-.11-2.32-.19-3.55s-.19-2.47-.17-3.74a12.82,12.82,0,0,1,.55-3.81,6.84,6.84,0,0,1,2.17-3.25,8.44,8.44,0,0,1,8.35-1.09c2.89,1.19,5,4.36,5.38,7.91a11.37,11.37,0,0,1-.76,5.39c-.68,1.8-1.72,3.55-2.64,5.49a14.06,14.06,0,0,0-1.62,6.53,6.75,6.75,0,0,0,4,6,4.76,4.76,0,0,0,4-.16,6.58,6.58,0,0,0,2.73-2.85A12.87,12.87,0,0,0,174,41.21c.25-1.29.32-2.51.52-3.73a13.16,13.16,0,0,1,.93-3.51,5.14,5.14,0,0,1,2.24-2.53c2-1,4.81-.18,6.51,1.64s2.2,4.59,1.5,7.17a15.61,15.61,0,0,1-4.37,7l-.61.64a12.69,12.69,0,0,0-1.31,1.64,5.59,5.59,0,0,0-1,3.13,4.21,4.21,0,0,0,.5,2.08,3.32,3.32,0,0,0,.82,1,5.88,5.88,0,0,0,.55.27c.14.07.27.15.4.23l.35.26.4.36.82.75c.58.49,1.13,1.06,1.7,1.65a46.08,46.08,0,0,1,6.76,8.92,46.83,46.83,0,0,1,5,12.61,43.43,43.43,0,0,1,1.1,7.44,40.44,40.44,0,0,1-.26,7.9,45.91,45.91,0,0,1-16.12,29.33l-.54.44h0c-.39.31-.78.63-1.18.93l-1.23.87-.62.43-.16.11,0,0c2,1.7.58.45,1,.81l0-.09.14-.35,0-.09,0,0c.29.08-2.5-.91-1.33-.46l-.06.21-.11.44a5.26,5.26,0,0,0-.08.89,6.18,6.18,0,0,0,1,3.29,11.61,11.61,0,0,0,2.14,2.52,20.32,20.32,0,0,0,2.58,2c.86.58,1.72,1.16,2.49,1.8,1.57,1.25,2.84,2.88,2.89,4.73a5.46,5.46,0,0,1-2.84,4.57,6.08,6.08,0,0,1-2.69.89A7.35,7.35,0,0,1,179,149a10.48,10.48,0,0,1-4.7-3.59c-1.22-1.56-1.94-3.7-3.55-5.42a5.2,5.2,0,0,0-1.48-1.1,3.29,3.29,0,0,0-1.93-.32,3.41,3.41,0,0,0-1.82.76,4.81,4.81,0,0,0-1.16,1.48,6.2,6.2,0,0,0-.62,3.47l.09.86.19.83a14.93,14.93,0,0,0,.52,1.6,36.11,36.11,0,0,0,3.2,5.62,20.48,20.48,0,0,1,2.74,5.39,10,10,0,0,1,.26,1.41,6.51,6.51,0,0,1-.07,1.4,5.12,5.12,0,0,1-1,2.54,7.48,7.48,0,0,1-4.77,2.72,8,8,0,0,1-5.4-1,11.1,11.1,0,0,1-3.9-4,15.84,15.84,0,0,1-2-5.25c-.18-.91-.27-1.86-.4-2.83-.06-.49-.14-1-.25-1.48-.05-.25-.12-.49-.19-.74l-.12-.37,0-.1c-.05-.14-.1-.27-.16-.4a4.81,4.81,0,0,0-.35-.72,4.22,4.22,0,0,0-.73-1,4.12,4.12,0,0,0-2.76-1.3A2.64,2.64,0,0,0,146.29,148.56Z"/><ellipse class="cls-8" cx="116.09" cy="97.31" rx="21.43" ry="23.84" transform="translate(-6.29 8.03) rotate(-3.86)"/><path class="cls-2" d="M117.7,121.1c-.92-.23-1.66-.35-2.43-.52-.39-.09-.78-.18-1.2-.25s-.89-.16-1.39-.28l-1.2-.26-.82-.27-1.1-.37-1.24-.55a20,20,0,0,1-7-5.29A24.15,24.15,0,0,1,97.86,108a25.51,25.51,0,0,1-2.42-12.8,24.17,24.17,0,0,1,3.91-11.78,20.91,20.91,0,0,1,7.73-7.06,18.59,18.59,0,0,1,7-2.07c.87-.12,1.56,0,2-.08s.71,0,.71,0l.7.07a11.87,11.87,0,0,1,2,.29,18.91,18.91,0,0,1,6.74,2.72,23,23,0,0,1,7.23,7.62,25.28,25.28,0,0,1,3.36,12,24.62,24.62,0,0,1-3,12.66,21.69,21.69,0,0,1-3.8,5.08l-1.11,1.06-1.2.93a9.72,9.72,0,0,1-1.22.83l-.62.39-.31.2-.23.11-1.65.8-1.16.42c-.48.19-.92.35-1.33.47s-.79.26-1.16.41c-.74.27-1.46.49-2.33.84a14.8,14.8,0,0,0,2.53.17c.41,0,.83-.09,1.29-.17a6.36,6.36,0,0,0,1.46-.39l1.25-.45,1.77-.86.25-.12.33-.2.66-.42a11.31,11.31,0,0,0,1.32-.89l1.27-1,1.19-1.13a23.38,23.38,0,0,0,4-5.4,26.06,26.06,0,0,0,3.14-13.38,26.68,26.68,0,0,0-3.55-12.65,24.46,24.46,0,0,0-7.69-8.1,20.23,20.23,0,0,0-7.23-2.91,14.11,14.11,0,0,0-2.14-.31l-.76-.08s-.26,0-.76,0a18.29,18.29,0,0,0-2.17.08,20,20,0,0,0-7.47,2.22,22.31,22.31,0,0,0-8.26,7.53A25.73,25.73,0,0,0,94,95.11a26.94,26.94,0,0,0,2.55,13.5,25.63,25.63,0,0,0,3.7,5.63,24.87,24.87,0,0,0,4.81,4.2,22,22,0,0,0,2.64,1.44l1.32.59,1.18.39.88.29,1.29.27a6.53,6.53,0,0,0,1.5.2c.47,0,.89,0,1.31,0A15.1,15.1,0,0,0,117.7,121.1Z"/><ellipse class="cls-9" cx="124.84" cy="101.69" rx="4.16" ry="8.31"/><ellipse class="cls-8" cx="180.17" cy="97.31" rx="21.43" ry="23.84" transform="translate(-5.17 10.25) rotate(-3.21)"/><path class="cls-2" d="M181.51,121.12c-.91-.24-1.65-.37-2.42-.55q-.57-.15-1.2-.27a12.24,12.24,0,0,1-1.38-.29l-1.2-.28-.81-.28-1.11-.37-1.22-.57a22.33,22.33,0,0,1-2.46-1.37,23.81,23.81,0,0,1-4.46-4,24.2,24.2,0,0,1-3.43-5.35A25.54,25.54,0,0,1,159.55,95a24.17,24.17,0,0,1,4-11.74,21,21,0,0,1,7.81-7,18.52,18.52,0,0,1,7-2,19.38,19.38,0,0,1,2-.06c.47,0,.71,0,.71,0l.71.08a13.38,13.38,0,0,1,2,.3,19.28,19.28,0,0,1,6.71,2.8,23,23,0,0,1,7.14,7.71,25.26,25.26,0,0,1,3.23,12,24.76,24.76,0,0,1-3.11,12.63,22.46,22.46,0,0,1-3.86,5l-1.13,1-1.2.91a11.07,11.07,0,0,1-1.24.82l-.62.38-.31.19-.23.11-1.66.79-1.16.4a13.19,13.19,0,0,1-1.34.45c-.42.13-.8.26-1.17.41-.74.26-1.46.47-2.34.81a16.12,16.12,0,0,0,2.53.2,12.6,12.6,0,0,0,1.29-.16,5.8,5.8,0,0,0,1.47-.38l1.25-.43,1.79-.84.24-.11.33-.21.67-.4a12.74,12.74,0,0,0,1.33-.88l1.28-1,1.21-1.12a23.44,23.44,0,0,0,4.1-5.36,26.1,26.1,0,0,0,3.29-13.34,26.69,26.69,0,0,0-3.41-12.69,24.51,24.51,0,0,0-7.6-8.19,20.63,20.63,0,0,0-7.19-3,14.7,14.7,0,0,0-2.14-.33l-.76-.09h-.76a19.68,19.68,0,0,0-2.17.06,20.16,20.16,0,0,0-7.5,2.13,22.39,22.39,0,0,0-8.34,7.43,25.73,25.73,0,0,0-4.28,12.43,26.9,26.9,0,0,0,2.4,13.53,24.25,24.25,0,0,0,8.39,9.93,26.31,26.31,0,0,0,2.62,1.47l1.32.6,1.18.41.87.29,1.29.29a6.58,6.58,0,0,0,1.5.21c.47,0,.89,0,1.31,0A16,16,0,0,0,181.51,121.12Z"/><circle class="cls-8" cx="122.74" cy="98.5" r="2.83"/><ellipse class="cls-9" cx="170.77" cy="101.69" rx="4.16" ry="8.31"/><circle class="cls-8" cx="168.68" cy="98.5" r="2.83"/><path class="cls-8" d="M144.07,122.1a25.26,25.26,0,0,0,9.8.5C152.48,127.35,148.33,131.9,144.07,122.1Z"/><path class="cls-2" d="M138.71,119.83a7.79,7.79,0,0,0,4.47,2.87,19.46,19.46,0,0,0,2.22.46c.53.1,1.43.19,2.2.25s1.4.06,1.4.06.52,0,1.2,0,1.49,0,2.08-.07c1.68-.11,2.7-.28,3.24-.35a11.79,11.79,0,0,0,4.94-1.89c-1.86.14-3.06.17-5.15.5-.52.07-1.51.22-3.12.33-.57,0-1.35.08-2,.07s-1.16,0-1.16,0-.6,0-1.33-.07-1.58-.15-2.08-.24c-1.18-.18-1.73-.34-2.08-.41l-2.52-.71c-.36-.12-.73-.23-1.12-.34Z"/><path class="cls-2" d="M144.09,122.72c.75,1.46.83,2.67,2.26,4.27a4.47,4.47,0,0,0,.57.54,3.78,3.78,0,0,0,1.34.75,1.61,1.61,0,0,0,.45.1l.24,0,.21,0a4.6,4.6,0,0,0,2-.46,4.46,4.46,0,0,0,1.09-.78,5.47,5.47,0,0,0,1.39-2.28c.25-.72.33-1.41.58-2.21-1.2,1.22-1.63,2.37-2.85,3.56a3.06,3.06,0,0,1-2.17.88h-.26a1.18,1.18,0,0,1-.27-.07,2.6,2.6,0,0,1-.9-.51,4,4,0,0,1-.45-.42C146.06,124.81,145.51,123.72,144.09,122.72Z"/></g></svg>