<svg xmlns="http://www.w3.org/2000/svg" xmlns:xlink="http://www.w3.org/1999/xlink" viewBox="0 0 300 300"><defs><style>.cls-1{fill:#489fff;}.cls-2{fill:#202020;}.cls-3{fill:url(#radial-gradient);}.cls-4{fill:url(#radial-gradient-2);}.cls-5{fill:url(#radial-gradient-3);}.cls-6{fill:url(#New_Gradient_Swatch_1);}.cls-7{fill:#a6a6a6;}.cls-8{fill:none;stroke:#d6d6d6;}.cls-11,.cls-8{stroke-miterlimit:10;}.cls-9{fill:#0046de;}.cls-10{fill:url(#radial-gradient-4);}.cls-11,.cls-13{fill:#fff;}.cls-11{stroke:#231f20;stroke-width:1.2px;}.cls-12{fill:#231f20;}.cls-14{fill:url(#New_Gradient_Swatch_1-2);}.cls-15{fill:url(#radial-gradient-5);}.cls-16{fill:url(#New_Gradient_Swatch_1-3);}.cls-17{fill:url(#radial-gradient-6);}</style><radialGradient id="radial-gradient" cx="86.51" cy="27.04" r="0.4" gradientUnits="userSpaceOnUse"><stop offset="0.22"/><stop offset="0.37" stop-color="#01010c"/><stop offset="0.61" stop-color="#020326"/></radialGradient><radialGradient id="radial-gradient-2" cx="84.64" cy="104.71" fy="216.19378665237105" r="136.19" gradientUnits="userSpaceOnUse"><stop offset="0.13"/><stop offset="0.35" stop-color="#01010c"/><stop offset="0.69" stop-color="#020326"/><stop offset="0.72" stop-color="#060729"/><stop offset="0.75" stop-color="#111233"/><stop offset="0.78" stop-color="#242544"/><stop offset="0.81" stop-color="#3f405b"/><stop offset="0.84" stop-color="#626379"/><stop offset="0.87" stop-color="#8d8d9d"/><stop offset="0.9" stop-color="#bfc0c8"/><stop offset="0.93" stop-color="#f8f8f9"/><stop offset="0.93" stop-color="#fff"/></radialGradient><radialGradient id="radial-gradient-3" cx="5867.92" cy="16487.53" r="5.25" gradientTransform="matrix(-0.12, 0.99, -0.99, -0.12, 17030.12, -3860.12)" gradientUnits="userSpaceOnUse"><stop offset="0.28" stop-color="#fff"/><stop offset="0.41" stop-color="#fbfbfb"/><stop offset="0.54" stop-color="#efefef"/><stop offset="0.67" stop-color="#dadada"/><stop offset="0.8" stop-color="#bebebe"/><stop offset="0.93" stop-color="#9a9a9a"/><stop offset="0.95" stop-color="#949494"/></radialGradient><radialGradient id="New_Gradient_Swatch_1" cx="5881.19" cy="16487.87" r="5.25" gradientTransform="matrix(-0.12, 0.99, -0.99, -0.12, 17030.12, -3860.12)" gradientUnits="userSpaceOnUse"><stop offset="0.07" stop-color="#919191"/><stop offset="0.21" stop-color="#828283"/><stop offset="0.47" stop-color="#5c5c60"/><stop offset="0.83" stop-color="#1f1f27"/><stop offset="1" stop-color="#00000a"/></radialGradient><radialGradient id="radial-gradient-4" cx="114.18" cy="49.6" fy="68.92270212306467" r="63.87" gradientUnits="userSpaceOnUse"><stop offset="0.1" stop-color="#339dd4"/><stop offset="0.25" stop-color="#3199d4"/><stop offset="0.38" stop-color="#2a8ed6"/><stop offset="0.5" stop-color="#1f7cd8"/><stop offset="0.62" stop-color="#1062db"/><stop offset="0.72" stop-color="#0046de"/></radialGradient><radialGradient id="New_Gradient_Swatch_1-2" cx="-1576.84" cy="-193.22" r="2.6" gradientTransform="matrix(0.94, 0.11, -0.11, 0.94, 1561.77, 372.56)" xlink:href="#New_Gradient_Swatch_1"/><radialGradient id="radial-gradient-5" cx="-1570.23" cy="-193.99" r="2.6" gradientTransform="matrix(0.94, 0.11, -0.11, 0.94, 1561.77, 372.56)" xlink:href="#radial-gradient-3"/><radialGradient id="New_Gradient_Swatch_1-3" cx="-1563.62" cy="-194.77" r="2.6" gradientTransform="matrix(0.94, 0.11, -0.11, 0.94, 1561.77, 372.56)" xlink:href="#New_Gradient_Swatch_1"/><radialGradient id="radial-gradient-6" cx="-1557.01" cy="-195.54" r="2.6" gradientTransform="matrix(0.94, 0.11, -0.11, 0.94, 1561.77, 372.56)" xlink:href="#radial-gradient-3"/><symbol id="Wisdom_Body_1_9" data-name="Wisdom_Body_1 9" viewBox="0 0 199.72 121.79"><path class="cls-1" d="M26.32,14.6A36.11,36.11,0,0,1,9.43,20.29c-1.63.09-3.57-.14-4.37-1.7a4,4,0,0,1,.56-3.95,15.59,15.59,0,0,1,3-2.72A2.28,2.28,0,0,0,9.64,10,1.87,1.87,0,0,0,8.59,8.74,13.29,13.29,0,0,0,4.76,7.68,5.53,5.53,0,0,1,1.27,5.8C.44,4.67.41,2.74,1.53,2a3.48,3.48,0,0,1,1.8-.47L19.75.37"/><path class="cls-2" d="M26.32,14.6a48.2,48.2,0,0,0-4.54,1.79c-.25.11-.62.28-1.08.47-.24.1-.49.21-.77.31-.58.23-1.34.51-2.07.75A37.9,37.9,0,0,1,13,19.17c-.86.17-1.75.28-2.63.38a10.47,10.47,0,0,1-2.56,0,2.86,2.86,0,0,1-1.9-.94,2.34,2.34,0,0,1-.43-1.88,5.34,5.34,0,0,1,2.13-3.18l1.35-1.08a4.77,4.77,0,0,0,1-1.13,2.24,2.24,0,0,0,.35-1.12,1.89,1.89,0,0,0,0-.44,2.23,2.23,0,0,0-.87-1.31A7.44,7.44,0,0,0,6.3,7.3,9.16,9.16,0,0,1,2.44,6,2.58,2.58,0,0,1,1.38,4.36a1.91,1.91,0,0,1,.48-1.81c.4-.38,1.31-.37,2.24-.44l2.71-.18,5.1-.35,3-.21a18,18,0,0,0,4.84-1A18.19,18.19,0,0,0,14.82.05l-3,.2L6.72.59,4,.78c-.46,0-.89,0-1.41.11A3.11,3.11,0,0,0,1,1.51,2.72,2.72,0,0,0,.11,3a3.89,3.89,0,0,0,0,1.59A4,4,0,0,0,1.63,7.1,10.12,10.12,0,0,0,6,8.6a6.3,6.3,0,0,1,2.55.93c.42.35.37.53.39.53s.11.17-.15.61a3.11,3.11,0,0,1-.75.8L6.73,12.55a9.32,9.32,0,0,0-1.55,1.58,5.49,5.49,0,0,0-1,2.42,3.7,3.7,0,0,0,.71,2.92,4.23,4.23,0,0,0,2.74,1.42,12,12,0,0,0,2.88,0c.93-.1,1.86-.22,2.75-.39a42.07,42.07,0,0,0,5.07-1.3c.75-.25,1.54-.54,2.14-.78.29-.1.55-.22.79-.32.49-.2.87-.38,1.12-.49A11.13,11.13,0,0,0,26.32,14.6Z"/><path class="cls-1" d="M173.4,14.6a36.14,36.14,0,0,0,16.89,5.69c1.63.09,3.58-.14,4.38-1.7a4,4,0,0,0-.57-3.95,15.53,15.53,0,0,0-2.95-2.72A2.24,2.24,0,0,1,190.09,10a1.86,1.86,0,0,1,1-1.23A13.27,13.27,0,0,1,195,7.68a5.5,5.5,0,0,0,3.48-1.88c.84-1.13.86-3.06-.25-3.84a3.53,3.53,0,0,0-1.8-.47L180,.37"/><path class="cls-2" d="M173.4,14.6a11.31,11.31,0,0,0,4,3l1.12.49c.24.1.5.22.79.32.6.24,1.39.53,2.14.78a42.07,42.07,0,0,0,5.07,1.3c.9.17,1.82.29,2.75.39a12,12,0,0,0,2.88,0,4.28,4.28,0,0,0,2.75-1.42,3.73,3.73,0,0,0,.7-2.92,5.48,5.48,0,0,0-1-2.42A9.75,9.75,0,0,0,193,12.55l-1.35-1.08a3.3,3.3,0,0,1-.75-.8.79.79,0,0,1-.15-.61s0-.18.39-.53a6.37,6.37,0,0,1,2.55-.93,10.08,10.08,0,0,0,4.41-1.5,4,4,0,0,0,1.57-2.51,4.07,4.07,0,0,0,0-1.59,2.8,2.8,0,0,0-.92-1.49,3.11,3.11,0,0,0-1.58-.62c-.51-.06-1-.08-1.41-.11L193,.59,187.9.25l-3-.2A18.14,18.14,0,0,0,180,.37a17.8,17.8,0,0,0,4.83,1l3,.21,5.1.35,2.71.18c.93.07,1.84.06,2.25.44a1.94,1.94,0,0,1,.48,1.81A2.62,2.62,0,0,1,197.29,6a9.25,9.25,0,0,1-3.86,1.26,7.43,7.43,0,0,0-3.12,1.19,2.12,2.12,0,0,0-.86,1.31,1.38,1.38,0,0,0,0,.44,2.24,2.24,0,0,0,.35,1.12,4.38,4.38,0,0,0,1,1.13l1.34,1.08a5.34,5.34,0,0,1,2.13,3.18,2.37,2.37,0,0,1-.42,1.88,2.91,2.91,0,0,1-1.91.94,10.39,10.39,0,0,1-2.55,0c-.89-.1-1.77-.21-2.64-.38a38.32,38.32,0,0,1-4.89-1.25c-.73-.24-1.49-.52-2.07-.75-.28-.1-.53-.21-.76-.31-.47-.19-.84-.36-1.09-.47A48.2,48.2,0,0,0,173.4,14.6Z"/><path class="cls-1" d="M79.94,96.77c-2.74,5.63-5.68,13.78-6.51,20-.22,1.6-.1,3.66,1.37,4.22s2.86-.9,3.62-2.28,1.62-3,3.15-3.25a3.66,3.66,0,0,1,3.13,1.78,15.46,15.46,0,0,0,2.31,3c1,.79,2.58,1,3.38,0a3.53,3.53,0,0,0,.54-2.16,68.64,68.64,0,0,0-2.78-21"/><path class="cls-2" d="M79.94,96.77A14.83,14.83,0,0,0,77.33,101c-.1.26-.26.64-.45,1.12-.09.24-.2.51-.31.79-.24.64-.55,1.49-.84,2.29a62.59,62.59,0,0,0-2.92,11.21,7.88,7.88,0,0,0,0,3.13,3.25,3.25,0,0,0,.82,1.52,2.56,2.56,0,0,0,1.64.74,2.94,2.94,0,0,0,1.6-.44,5,5,0,0,0,1.09-.92,9,9,0,0,0,1.32-2,4.73,4.73,0,0,1,1.84-2.17,1.56,1.56,0,0,1,.62-.16H82a1,1,0,0,1,.23,0,2.53,2.53,0,0,1,.65.28,6.41,6.41,0,0,1,2,2.23,9.85,9.85,0,0,0,1.49,1.88,3.68,3.68,0,0,0,2.81,1,2.48,2.48,0,0,0,1.63-.76,3,3,0,0,0,.72-1.61,10.13,10.13,0,0,0,.09-1.52c0-.49,0-1,0-1.47a70.79,70.79,0,0,0-1-11.49c-.24-1.33-.46-2.43-.59-3a14.4,14.4,0,0,0-1.86-4.6,25,25,0,0,0,.56,4.88c.12.54.34,1.61.57,2.92a67.12,67.12,0,0,1,1,11.26v1.45a9.05,9.05,0,0,1-.08,1.33c-.12.81-.51,1.19-1.15,1.25-1.4.12-2.35-1.17-3.07-2.31a12.24,12.24,0,0,0-1.15-1.59,5.46,5.46,0,0,0-1.24-1,3.66,3.66,0,0,0-1-.43,1.9,1.9,0,0,0-.4-.06,3.24,3.24,0,0,0-.41,0,3,3,0,0,0-1.14.28,6.11,6.11,0,0,0-2.43,2.73A8.42,8.42,0,0,1,77,119.54a2.34,2.34,0,0,1-1.64.91,1.41,1.41,0,0,1-1.24-1.26,6.47,6.47,0,0,1,0-2.6,61,61,0,0,1,2.86-11c.28-.79.59-1.62.83-2.25l.3-.78.44-1.11A23,23,0,0,0,79.94,96.77Z"/><path class="cls-1" d="M121.11,96.4c2.74,5.63,4.94,14.15,5.77,20.38.21,1.6.1,3.66-1.37,4.22s-2.87-.9-3.63-2.28-1.61-3-3.15-3.25a3.63,3.63,0,0,0-3.12,1.78,15.9,15.9,0,0,1-2.32,3c-1,.79-2.58,1-3.37,0a3.4,3.4,0,0,1-.54-2.16,68.63,68.63,0,0,1,2.77-21"/><path class="cls-2" d="M121.11,96.4a29.06,29.06,0,0,0,1.25,4.74c.09.26.23.65.39,1.13.08.24.17.51.27.79.21.64.47,1.49.71,2.3a82,82,0,0,1,2.43,11.13,7.28,7.28,0,0,1,0,2.63c-.18.79-.63,1.27-1.21,1.33a2.2,2.2,0,0,1-1.65-.86,7.6,7.6,0,0,1-1.15-1.72,6.25,6.25,0,0,0-2.39-2.76,2.78,2.78,0,0,0-1.55-.31,2,2,0,0,0-.4.06,3.2,3.2,0,0,0-1,.41,5.19,5.19,0,0,0-1.26,1,11.57,11.57,0,0,0-1.17,1.6c-.73,1.14-1.66,2.45-3.07,2.35-.65,0-1.05-.42-1.18-1.22a24.63,24.63,0,0,1-.08-2.78A69.56,69.56,0,0,1,111,105c.23-1.31.45-2.38.57-2.92a23.51,23.51,0,0,0,.56-4.88,14.4,14.4,0,0,0-1.86,4.6c-.12.54-.35,1.64-.59,3a71.17,71.17,0,0,0-1,11.52c0,.49,0,1,0,1.47a10.33,10.33,0,0,0,.1,1.53,2.85,2.85,0,0,0,.75,1.61,2.49,2.49,0,0,0,1.64.72,3.72,3.72,0,0,0,2.8-1.06,10.46,10.46,0,0,0,1.48-1.89,6.18,6.18,0,0,1,2-2.22,2.2,2.2,0,0,1,.65-.26,1.31,1.31,0,0,1,.23,0,1.56,1.56,0,0,1,.85.18,5.08,5.08,0,0,1,1.83,2.21,8.91,8.91,0,0,0,1.34,2,4.86,4.86,0,0,0,1.12.9,2.74,2.74,0,0,0,1.63.37,2.48,2.48,0,0,0,1.61-.81,3.43,3.43,0,0,0,.76-1.54,8.19,8.19,0,0,0,0-3.12A83,83,0,0,0,125,105c-.24-.81-.51-1.68-.73-2.33l-.26-.81c-.18-.49-.32-.88-.41-1.15A13.09,13.09,0,0,0,121.11,96.4Z"/></symbol><symbol id="Wisdom_Body_MASTER_1_4" data-name="Wisdom_Body_MASTER_1 4" viewBox="0 0 168.36 137.67"><path class="cls-3" d="M86.49,26.76c-.89.56-.36.66.51.47A4.66,4.66,0,0,1,86.49,26.76Z"/><path class="cls-4" d="M136.78,24.48c-3-1.86-13.88-9.28-16.76-16-.51-.73-4.3-6.85-4.76-7.57l-.39-.06c-15-.1-49.89,0-61.65.54l-1.35-.29c-.27,1.26-3,8.93-3.38,9.73l0,0-3.8,4.87c-4.63,4.62-11.75,10-29.4,15.48l-13.78,3C2.91,38.33,6.94,46,7,51.84c0,.59,4.14,22.33,6.07,36.67a77.07,77.07,0,0,1,22-17.9l8.09-4.2c-.13,4.34.3,15.61-.21,28-.17,4.12-1,25.28-9.22,29.76,47,22,83.65,11.9,102-.63-7.51-1.66-10.26-16.85-10.85-26.73-.14-2.24.34-22.29.5-24.67s.27-4.27.24-5.45L136.22,72a109.74,109.74,0,0,1,8.71,7.14c3.88,3.24,5.88,8.24,11,10,0-2.22.19-4.94.49-8,1.52-15.23,6.42-38.63,10.56-46.9C149.3,31.71,136.76,24.89,136.78,24.48Z"/><circle id="SVGID" class="cls-5" cx="56.45" cy="30.03" r="5.23"/><circle id="SVGID-2" data-name="SVGID" class="cls-6" cx="54.57" cy="43.11" r="5.23"/><path class="cls-7" d="M115.36.65a21,21,0,0,0,1.53,4.69c.11.25.29.62.5,1.09l.36.76c.42.88.86,1.8,1.3,2.74l.35.7,0,.07h0l-.35.22-.73.46a64.16,64.16,0,0,1-28.3,9.81c-1.29.07-2.56.2-3.83.23H82.46l-3.67-.26c-1.2-.09-2.43-.23-3.59-.32A47.47,47.47,0,0,1,63,18.15a44.4,44.4,0,0,1-7.84-3.66c-1.78-1.06-2.72-1.75-2.72-1.75s-.13-.07-1-.71c-.42-.31-1-.77-1.85-1.46-.3-.26-.21-.18-.23-.19h0l0-.12c.07-.16.13-.33.19-.5.25-.68.54-1.46.85-2.33.21-.58.73-2,1.45-4.17.18-.54.37-1.12.56-1.75,0,0,0,0,0,0h5.85l25-.08,27.08-.08a18.07,18.07,0,0,0,4.9-.68,17.72,17.72,0,0,0-4.9-.65L83.38.08l-25,.07-4.79,0H51.48a9.29,9.29,0,0,0-.27.94c-.18.61-.37,1.18-.55,1.71C50,5,49.43,6.4,49.23,7l-.85,2.32-.18.48c-.05.12-.09.23-.14.34s-.12.3-.19.45-.08.15-.07.21l.18.15.34.3.43.36c.86.72,1.48,1.19,1.92,1.52.88.65,1,.73,1,.73s1,.71,2.8,1.8a46,46,0,0,0,8.07,3.77,48.59,48.59,0,0,0,12.53,2.75l3.58.32,3.75.27h3.85c1.3,0,2.61-.16,3.92-.24a65.39,65.39,0,0,0,28.89-10l.73-.46.36-.23.73-.44a1.42,1.42,0,0,0,.34-.22l-.21-.37-.38-.67-.39-.78L119,6.62l-.36-.76c-.22-.46-.4-.83-.51-1.08A15.77,15.77,0,0,0,115.36.65Z"/><path class="cls-7" d="M49.92,7.84A14,14,0,0,0,53.78,11l1.07.59.75.39c.64.33,1.5.75,2.31,1.13s1.72.78,2.63,1.15l2.87,1,2.94,1.05c1,.32,2,.61,3,.86A54.86,54.86,0,0,0,80.3,18.73c2.93.14,4.82.06,4.82.06s1.89,0,4.81-.29a64.06,64.06,0,0,0,10.84-2.07A60.49,60.49,0,0,0,112,11.94c1.22-.61,2.19-1.14,2.68-1.41a14.6,14.6,0,0,0,3.88-3.09,24.14,24.14,0,0,0-4.52,1.93c-.48.26-1.45.78-2.64,1.38a59.82,59.82,0,0,1-11,4.4,61.54,61.54,0,0,1-10.61,2c-2.85.29-4.7.3-4.7.3s-1.85.07-4.72-.07A53.81,53.81,0,0,1,69.7,15.85c-1-.25-2-.53-3-.84l-2.89-1-2.81-1c-.9-.36-1.76-.74-2.57-1.12s-1.64-.79-2.27-1.11l-.73-.38-1-.57A24.9,24.9,0,0,0,49.92,7.84Z"/><path class="cls-7" d="M48.72,11c-.69.56-1.24,1-1.77,1.54a19.08,19.08,0,0,0-1.83,1.75c-.18.2-.5.46-.86.81l-.61.55-.39.37a6,6,0,0,1-.54.46l-1.13.91c-.75.63-1.57,1.21-2.42,1.8A82.22,82.22,0,0,1,14.36,30.5c-2.25.62-4.51,1.12-6.72,1.53l-3.3.53L.38,33A2,2,0,0,0,0,33l.17.36.35.72.48,1,.62,1.4c.38.93.77,1.83,1.09,2.73.67,1.78,1.22,3.49,1.7,5.07,1,3.16,1.61,5.8,2,7.65s.66,2.89.66,2.89.21,1,.6,2.9.87,4.54,1.4,7.81,1.08,7.13,1.62,11.35c.25,2.11.51,4.31.77,6.57.11,1.12.23,2.27.35,3.42.08.85.17,1.69.25,2.54l.18,1.76L13.21,90l.94-1.23.47-.62.28-.35L16,86.41c.78-.88,1.55-1.78,2.37-2.62A62.45,62.45,0,0,1,23.51,79,67.8,67.8,0,0,1,29,74.87c.93-.62,1.84-1.23,2.76-1.78l1.37-.83,1.27-.71c1.15-.67,2.14-1.14,2.62-1.41a22.69,22.69,0,0,0,4.14-2.66A14.86,14.86,0,0,0,36.38,69c-.49.26-1.49.74-2.67,1.42l-1.29.72L31,72c-.93.56-1.87,1.18-2.81,1.81C26.33,75,24.48,76.45,22.66,78a62.05,62.05,0,0,0-5.24,4.91c-.84.86-1.62,1.77-2.42,2.67l-1.14,1.39-.28.35-.06.08-.13.17-.13.17h0s0,0,0-.07l-.09-.87c-.11-1.16-.23-2.31-.35-3.44-.26-2.26-.52-4.47-.77-6.58-.54-4.24-1.09-8.12-1.63-11.41s-1.05-6-1.41-7.85-.6-2.92-.6-2.92l-.66-2.91c-.44-1.87-1.1-4.53-2.06-7.73-.48-1.6-1-3.34-1.73-5.16-.32-.91-.71-1.84-1.11-2.79l-.63-1.43L2,34.14H2l2.51-.26,3.35-.53c2.26-.43,4.55-.93,6.84-1.56A84,84,0,0,0,39.94,20.25c.87-.61,1.71-1.21,2.48-1.86.4-.31.78-.62,1.16-.93a6.44,6.44,0,0,0,.56-.48l.4-.38c.23-.2.44-.4.63-.58.38-.36.7-.63.89-.84a15.3,15.3,0,0,0,1.64-2.06A19.72,19.72,0,0,0,48.72,11Z"/><path class="cls-7" d="M44.26,45.11A15,15,0,0,0,43,49.91c0,.28-.06.69-.1,1.21,0,.25,0,.54-.06.84-.05.79-.1,1.59-.15,2.41s-.08,1.87-.12,2.83c-.06,1.92-.09,3.89-.08,5.9,0,4,.14,8.22.2,12.53s0,8.73-.14,13.22c-.06,2.24-.21,4.5-.32,6.76s-.32,4.54-.64,6.79a57.4,57.4,0,0,1-2.83,13.18,19.7,19.7,0,0,1-3.14,5.69,26.58,26.58,0,0,1-2.87,2.92s-.13.09-.08.12l.18.1.37.2L34,125l.88.48,1.45.79a92.24,92.24,0,0,0,11.75,5.1,96.43,96.43,0,0,0,11.31,3.3c3.62.85,7.06,1.46,10.24,1.89a120.16,120.16,0,0,0,15.32,1.11c3.67,0,5.74-.09,5.74-.09l.79,0c.53,0,1.33,0,2.42-.13,2.16-.15,5.47-.4,10-1.09,2.24-.37,4.8-.8,7.63-1.48a83.45,83.45,0,0,0,9.32-2.73,64.59,64.59,0,0,0,10.68-4.9c.93-.53,1.83-1.15,2.77-1.75l1.88-1.36.68-.49.34-.25c.11-.09.32-.18.06-.2-.58-.14-1.19-.27-1.72-.44-.25-.07-.6-.16-.77-.23l-.35-.16a6.75,6.75,0,0,1-.69-.39,8.12,8.12,0,0,1-1.24-1,12.22,12.22,0,0,1-2-2.79,34.62,34.62,0,0,1-3.13-9.88,99.29,99.29,0,0,1-1.41-13c-.23-4.66-.26-9.6-.13-14.64q.09-3.78.29-7.61l.22-3.83c.09-1.31.07-2.59.09-3.87,0-2.55,0-5.1-.06-7.61,0-1.25-.08-2.5-.15-3.74,0-.42,0-.84-.07-1.25s0-.8-.07-1.16c-.06-.71-.11-1.3-.13-1.66a15,15,0,0,0-1.22-4.8,22.69,22.69,0,0,0-.11,4.92c0,.35.07.93.13,1.64,0,.35,0,.74.07,1.14s0,.82.07,1.24c.06,1.23.11,2.46.14,3.71.07,2.49.09,5,.06,7.56,0,1.28,0,2.56-.08,3.8L124.74,73c-.14,2.56-.24,5.12-.3,7.65-.13,5.06-.1,10,.14,14.74.49,9.38,1.75,17.84,4.7,23.4a13.81,13.81,0,0,0,2.21,3.09,10,10,0,0,0,1.46,1.22c.28.16.53.34.82.47l.43.2.09,0h0l-.17.12-.66.48c-.91.58-1.79,1.19-2.69,1.7a63.29,63.29,0,0,1-10.46,4.8,80.47,80.47,0,0,1-9.18,2.68c-2.79.67-5.31,1.11-7.52,1.47-4.45.68-7.72.92-9.86,1.08-1.07.09-1.86.09-2.39.12l-.78,0s-2,.11-5.68.08a117.2,117.2,0,0,1-15.15-1.1c-3.14-.42-6.54-1-10.12-1.87a95.88,95.88,0,0,1-11.17-3.25,92.36,92.36,0,0,1-11.57-5l-1.43-.78-.57-.31s0,0,0,0a20.11,20.11,0,0,0,1.74-1.88,20.82,20.82,0,0,0,3.36-6.06A59.46,59.46,0,0,0,43,102.55c.32-2.28.43-4.57.64-6.85s.27-4.55.33-6.8c.15-4.52.16-9,.14-13.29s-.18-8.52-.21-12.51q0-3,.09-5.85c0-1,.07-1.89.11-2.81s.1-1.61.15-2.39c0-.3,0-.58.06-.83,0-.51.07-.92.09-1.19A22.11,22.11,0,0,0,44.26,45.11Z"/><path class="cls-8" d="M69.3,127.59"/><path class="cls-7" d="M82.65,22.24A18.07,18.07,0,0,0,82,27.13c0,4.62,0,27.76,0,27.76s0,22.1,0,26.52a17.62,17.62,0,0,0,.67,4.89,17.7,17.7,0,0,0,.65-4.89c0-4.42,0-26.52,0-26.52s0-23.14,0-27.76A18,18,0,0,0,82.65,22.24Z"/><path class="cls-7" d="M87.41,22.24a18,18,0,0,0-.66,4.89V81.41a18.07,18.07,0,0,0,.66,4.89,18.07,18.07,0,0,0,.66-4.89V27.13A18,18,0,0,0,87.41,22.24Z"/><path class="cls-7" d="M51.2,3.7A15.37,15.37,0,0,0,55,6.92L56,7.54l.73.42c.61.33,1.39.79,2.17,1.17,1.55.83,3.31,1.62,5.13,2.39a58.8,58.8,0,0,0,5.7,1.94,49,49,0,0,0,10.45,1.71c1.41.06,2.57.1,3.37.07l1.25,0s1.82,0,4.61-.33a67.4,67.4,0,0,0,10.38-2,53,53,0,0,0,10.85-4.19c1.21-.65,2.17-1.24,2.64-1.56s.8-.57,1.14-.83a12,12,0,0,0,.88-.86,10.83,10.83,0,0,0,1.42-1.93c-.78.43-1.36.83-2,1.18-.33.18-.65.39-1,.61s-.74.45-1.15.72-1.37.86-2.54,1.49a51.35,51.35,0,0,1-10.57,4.08,65.46,65.46,0,0,1-10.18,1.94c-2.73.29-4.5.32-4.5.32l-1.23,0c-.78,0-1.91,0-3.28-.07a48.12,48.12,0,0,1-10.17-1.67,53.94,53.94,0,0,1-5.54-1.89c-1.79-.75-3.5-1.52-5-2.34-.75-.37-1.53-.82-2.12-1.14-.27-.14-.51-.29-.73-.42l-1-.6A22.22,22.22,0,0,0,51.2,3.7Z"/><path class="cls-7" d="M10.19,34a21.71,21.71,0,0,0,1,4.81c.11.33.31.85.65,2,.78,2.39,1.93,6.48,2.79,10s1.47,6.44,1.47,6.44.52,2.44,1.09,5.58,1.16,7,1.5,9.73c.21,1.54.3,2.49.35,3a22.75,22.75,0,0,0,1,4.81,15,15,0,0,0,.28-4.94c0-.51-.14-1.47-.34-3-.34-2.77-.94-6.63-1.52-9.8s-1.1-5.62-1.1-5.62-.6-2.94-1.47-6.48-2-7.66-2.82-10.08c-.35-1.12-.55-1.64-.66-2A15.29,15.29,0,0,0,10.19,34Z"/><path class="cls-7" d="M119.64,11a21.76,21.76,0,0,0,1,2.16,15.3,15.3,0,0,0,1.64,2.06c.19.21.51.48.89.84.19.18.4.38.63.58l.41.38a5.11,5.11,0,0,0,.55.48l1.16.93c.77.65,1.62,1.25,2.48,1.86a84,84,0,0,0,25.23,11.54c2.29.63,4.59,1.13,6.84,1.56l3.36.53,2.5.26h0l-.19.41c-.22.48-.43,1-.64,1.43-.39,1-.78,1.88-1.11,2.79-.69,1.82-1.24,3.56-1.73,5.16-1,3.2-1.62,5.86-2.05,7.73L160,54.57s-.22,1-.6,2.92-.89,4.57-1.41,7.85-1.1,7.17-1.64,11.41c-.25,2.11-.51,4.32-.77,6.58-.11,1.13-.23,2.28-.35,3.44l-.09.87c0,.1,0,.07,0,.07h0l-.13-.17-.13-.17-.07-.08-.28-.35-1.14-1.39c-.79-.9-1.58-1.81-2.42-2.67A65.26,65.26,0,0,0,145.71,78c-1.82-1.51-3.68-2.93-5.56-4.2-.94-.63-1.87-1.25-2.81-1.81l-1.4-.85-1.28-.72c-1.18-.68-2.19-1.16-2.68-1.42a14.8,14.8,0,0,0-4.73-1.48,22.6,22.6,0,0,0,4.13,2.66c.48.27,1.47.74,2.63,1.41l1.26.71,1.37.83c.92.55,1.84,1.16,2.76,1.78A64.43,64.43,0,0,1,144.85,79a60.87,60.87,0,0,1,5.12,4.8c.83.84,1.6,1.74,2.37,2.62l1.12,1.36.28.35.47.62.95,1.23.93,1.23.18-1.76c.09-.85.17-1.69.26-2.54.12-1.15.23-2.3.35-3.42.26-2.26.52-4.46.76-6.57.54-4.22,1.09-8.08,1.63-11.35s1-6,1.4-7.81.6-2.9.6-2.9.23-1,.65-2.89,1.08-4.49,2-7.65c.48-1.58,1-3.29,1.71-5.07.32-.9.7-1.8,1.08-2.73.21-.46.42-.93.62-1.4l.49-1,.34-.72.17-.36A2,2,0,0,0,168,33l-4-.42L160.73,32c-2.22-.41-4.48-.91-6.73-1.53a82.34,82.34,0,0,1-24.81-11.35c-.84-.59-1.67-1.17-2.42-1.8l-1.13-.91a5.82,5.82,0,0,1-.53-.46l-.4-.37-.6-.55c-.37-.35-.68-.61-.87-.81a19.14,19.14,0,0,0-1.83-1.75C120.88,12,120.33,11.52,119.64,11Z"/><path class="cls-7" d="M158.17,34a15.81,15.81,0,0,0-2.3,4.39c-.1.33-.31.85-.65,2-.8,2.42-2,6.54-2.82,10.08s-1.47,6.48-1.47,6.48-.53,2.46-1.11,5.62-1.17,7-1.52,9.8c-.2,1.56-.29,2.52-.34,3a14.71,14.71,0,0,0,.29,4.94,22.76,22.76,0,0,0,1-4.81c.06-.5.15-1.45.35-3,.34-2.75.93-6.59,1.5-9.73s1.09-5.58,1.09-5.58.6-2.93,1.47-6.44,2-7.6,2.8-10c.34-1.11.54-1.63.64-2A21.71,21.71,0,0,0,158.17,34Z"/><path class="cls-8" d="M157.48,123.06"/></symbol><symbol id="Wisdom_Head3_3" data-name="Wisdom_Head3 3" viewBox="0 0 228.36 117.44"><path class="cls-9" d="M88.9,13.37c-1.22-1.92-3.66-2.24-6-2.93C61.46,3.94,53.88,41,53.33,42.3c-3.81,9.15-7.93,16.44-17,14.6-8.15-1.65-5.77-12.34-5.77-12.34a9.41,9.41,0,0,0,2.7,1.77c7.37,3,13.69-6.52,5.37-15.07C35.57,28.12,23.89,27,19.74,37a28.53,28.53,0,0,0-1.2,19.25A22.42,22.42,0,0,0,30.34,70s14,5,20.16.45,20-28.74,20-28.74l2.61-3.09"/><path class="cls-2" d="M88.9,13.37a4.41,4.41,0,0,0-3.16-2.71L85,10.43l-2.8-.75a16.08,16.08,0,0,0-8.51.08A18.89,18.89,0,0,0,66,14.54c-4.36,4.38-7.29,10.12-9.56,15.91a92.9,92.9,0,0,0-2.9,8.83c-.19.74-.39,1.47-.59,2.2a4.89,4.89,0,0,1-.33,1l-.44,1c-.6,1.37-1.21,2.72-1.88,4a33.17,33.17,0,0,1-2.18,3.67,17.87,17.87,0,0,1-2.69,3,11.16,11.16,0,0,1-3.3,1.92c-.3.09-.61.15-.9.23a4,4,0,0,1-.91.16l-.9.1-.91,0A12.06,12.06,0,0,1,35.14,56a6.26,6.26,0,0,1-2.52-1.82,7.08,7.08,0,0,1-1.35-2.61,11.56,11.56,0,0,1-.46-2.73,17.31,17.31,0,0,1,0-2.51c0-.24,0-.48.08-.7h0l.11.08.42.31c.28.19.56.35.83.5a6.91,6.91,0,0,0,1.55.6,7.42,7.42,0,0,0,2.17.36l1.07-.09a5.07,5.07,0,0,0,1-.25A6.54,6.54,0,0,0,41.28,45a8.16,8.16,0,0,0,1.78-6.05,11.91,11.91,0,0,0-1.48-4.64l-1.06-1.62c-.36-.47-.73-.86-1.05-1.24L39,30.86l-.53-.45a6.89,6.89,0,0,0-1-.63A11.48,11.48,0,0,0,36,29.16l-1-.29s-.48-.11-1.38-.25a15.56,15.56,0,0,0-3.95,0,13.64,13.64,0,0,0-5.77,2.22c-.51.33-1,.78-1.46,1.18s-.9,1-1.33,1.48A20.47,20.47,0,0,0,20,35.27c-.3.64-.68,1.29-.93,2a31.37,31.37,0,0,0-2.14,9.25,25.91,25.91,0,0,0,1.33,10.64,24.09,24.09,0,0,0,6.37,9.74,20,20,0,0,0,5.08,3.44l.35.17a2.86,2.86,0,0,0,.41.14l.73.24,1.48.43c1,.27,2,.53,3,.73a38.57,38.57,0,0,0,6.19.84,18.37,18.37,0,0,0,6.32-.66,14.16,14.16,0,0,0,1.51-.63,10,10,0,0,0,1.39-.89c.4-.35.84-.69,1.2-1.06l1.09-1.15c1.38-1.57,2.65-3.19,3.85-4.85,2.4-3.3,4.6-6.67,6.69-10q1.56-2.48,3-4.91l2.73-4.57L70.9,42l.34-.42.33-.43c.21-.29.39-.56.56-.83.33-.54.61-1.08.93-1.73-.59.43-1.07.79-1.55,1.21-.24.21-.47.44-.72.69l-.38.4-.19.22-.1.11a.91.91,0,0,0-.14.18c-.24.4-.7,1.2-1.27,2.18-.89,1.48-1.79,3-2.72,4.56s-2,3.25-3,4.89C60.89,56.35,58.7,59.7,56.32,63c-1.18,1.64-2.44,3.24-3.77,4.76a10.35,10.35,0,0,1-4.71,3.41,17,17,0,0,1-5.93.61,38.07,38.07,0,0,1-6-.81c-1-.2-2-.45-2.94-.72-.48-.13-1-.27-1.44-.42l-.71-.23a1.51,1.51,0,0,1-.31-.11l-.33-.15a19.24,19.24,0,0,1-4.8-3.25,23.2,23.2,0,0,1-6.08-9.29A24.88,24.88,0,0,1,18,46.57a30.07,30.07,0,0,1,2.07-8.92,11.89,11.89,0,0,1,9.75-7.92,14.32,14.32,0,0,1,3.66,0c.83.13,1.26.23,1.26.23l.91.27a6,6,0,0,1,3,1.93A11.78,11.78,0,0,1,42,39a7.08,7.08,0,0,1-1.53,5.25,5.36,5.36,0,0,1-2.67,1.82,4.06,4.06,0,0,1-.85.21l-.9.08A7.24,7.24,0,0,1,34.15,46a6,6,0,0,1-1.34-.52,8.51,8.51,0,0,1-.73-.45l-.38-.27-.3-.23c-.13-.11-.27-.22-.4-.35l-.42-.37-.21-.19-.1-.09s-.08-.1-.08,0L30,44.59l-.09.54c0,.19-.07.4-.07.46s-.05.41-.07.62a19.6,19.6,0,0,0-.05,2.68,13.11,13.11,0,0,0,.51,3,8.32,8.32,0,0,0,1.55,3,7.48,7.48,0,0,0,3,2.15,13,13,0,0,0,3.77.69l1,0,1-.11a4.47,4.47,0,0,0,1-.18c.33-.09.67-.16,1-.26a12.23,12.23,0,0,0,3.67-2.13,23.38,23.38,0,0,0,5.14-7c.68-1.32,1.3-2.68,1.9-4.07l.45-1a7.29,7.29,0,0,0,.39-1.14c.19-.73.39-1.46.58-2.2a90.65,90.65,0,0,1,2.87-8.72c2.23-5.7,5.12-11.33,9.3-15.52A17.81,17.81,0,0,1,74,10.82a15,15,0,0,1,7.92-.06l2.77.74.72.21a16.85,16.85,0,0,1,1.9.67A5.13,5.13,0,0,1,88.9,13.37Z"/><path class="cls-9" d="M64.22,27.53c-4.63,13.12-6.56,24.31-9.4,31.05C52.16,64.92,45.2,69.8,37.45,70.52s-15.82-2.7-19.91-8.46c-2.1-3-4.17-7-8.17-6.85s-5.84,4.5-5.55,8c.83,9.66,11.06,18,22.23,18.14,0,0,15.66,2.43,23.26-1.37,0,0,16.15-5.94,17.82-15"/><path class="cls-2" d="M64.22,27.53a13.9,13.9,0,0,0-1.83,3.68l-.31.95c-.06.21-.13.43-.21.67l-1,3.26c-.34,1.19-.7,2.42-1.06,3.67-1.43,5-2.72,10.56-4.55,16.06a26.9,26.9,0,0,1-1.66,4,16.77,16.77,0,0,1-2.52,3.48,21.15,21.15,0,0,1-7,5,22,22,0,0,1-8.21,1.82A23.15,23.15,0,0,1,28,68.82a21.86,21.86,0,0,1-6.5-3.49,19,19,0,0,1-4.34-4.87A18.85,18.85,0,0,0,13.4,56,6.15,6.15,0,0,0,9,54.69,5.37,5.37,0,0,0,6.2,55.76a5.58,5.58,0,0,0-.6.51l-.19.19-.31.36a6.13,6.13,0,0,0-.74,1.12,9.46,9.46,0,0,0-1.11,4.81,17.11,17.11,0,0,0,2.08,7.08A21,21,0,0,0,7.87,73.5a24.91,24.91,0,0,0,3.59,3.32A25.86,25.86,0,0,0,16,79.53a25.62,25.62,0,0,0,5.24,1.76,9.47,9.47,0,0,0,1.41.26c.47.07.94.15,1.42.2l1.45.09.37,0a1.33,1.33,0,0,1,.28,0l.72.09q2.88.38,5.83.54A51.81,51.81,0,0,0,44.58,82l1.48-.32c.49-.11,1-.28,1.45-.42a10.68,10.68,0,0,0,1.42-.55l.65-.27.69-.27a56.85,56.85,0,0,0,5.28-2.5h0a33.48,33.48,0,0,0,8.9-6.6c.27-.28.49-.57.7-.83A11.64,11.64,0,0,0,66,69a6.35,6.35,0,0,0,1.1-4,36.31,36.31,0,0,1-2,3.43,12.93,12.93,0,0,1-.83,1.13c-.2.24-.4.51-.65.78A32.73,32.73,0,0,1,55,76.7h0a55.64,55.64,0,0,1-5.17,2.44l-.66.26-.71.3a9.5,9.5,0,0,1-1.32.51c-.45.13-.9.29-1.37.4l-1.41.3a51,51,0,0,1-11.65.5c-1.94-.1-3.86-.28-5.74-.52l-.71-.1a3,3,0,0,0-.42,0l-.35,0-1.38-.08c-.46-.05-.91-.13-1.36-.19a10.2,10.2,0,0,1-1.34-.25,25.09,25.09,0,0,1-5-1.68,24.27,24.27,0,0,1-4.28-2.6A23.16,23.16,0,0,1,8.7,72.78,20.67,20.67,0,0,1,6.3,69.3a16,16,0,0,1-1.95-6.59,8.43,8.43,0,0,1,1-4.24,5.39,5.39,0,0,1,.64-1l.25-.3a7.06,7.06,0,0,1,.65-.57,4.33,4.33,0,0,1,2.25-.85,4.94,4.94,0,0,1,3.61,1.13,17.41,17.41,0,0,1,3.47,4.16,24.81,24.81,0,0,0,2,2.65,19.75,19.75,0,0,0,2.6,2.47,23.4,23.4,0,0,0,6.83,3.67,24.07,24.07,0,0,0,8.3,1.29,23,23,0,0,0,8.63-1.92A22.18,22.18,0,0,0,51.91,64a18,18,0,0,0,2.67-3.7,28.55,28.55,0,0,0,1.74-4.15c1.86-5.59,3.14-11.12,4.57-16.12l1-3.65,1-3.25.2-.66c.14-.4.24-.73.31-.95A16.35,16.35,0,0,0,64.22,27.53Z"/><path class="cls-9" d="M64.46,58.68C66,64.8,60.66,72.57,53.65,76.09c-5.43,2.73-11.07,4.76-17,5s-12-.4-17.92.19C5.37,82.56.55,91.4.55,96.5c0,2,.24,4.59,2.16,6.12,6,4.59,11.26-1.79,15.68-5.46a16.8,16.8,0,0,1,2-1.37,11.22,11.22,0,0,1,2.24-1,35.51,35.51,0,0,1,18.1-3.45C57.39,93,69,84.23,75.2,76.15"/><path class="cls-2" d="M64.46,58.68A30,30,0,0,1,64,62.62c0,.21-.08.54-.19.93l-.19.64-.06.21a2.92,2.92,0,0,1-.14.38l-.3.77q-.33.77-.75,1.53a20.43,20.43,0,0,1-2,2.93,22.65,22.65,0,0,1-5.76,4.92,53.39,53.39,0,0,1-7.42,3.38,35.84,35.84,0,0,1-8.12,2,66,66,0,0,1-8.45.2c-5.62-.1-11.24-.33-16.33,1a22.73,22.73,0,0,0-6.84,3A17.94,17.94,0,0,0,2.66,89,14.91,14.91,0,0,0,.31,94.05,12.55,12.55,0,0,0,0,96.39a16.81,16.81,0,0,0,.09,2,8.13,8.13,0,0,0,.72,2.71,4.51,4.51,0,0,0,.51.88,4.91,4.91,0,0,0,.67.79,5.43,5.43,0,0,0,1,.72c.2.13.4.28.63.41l.79.36a6.91,6.91,0,0,0,4.38.32,13.38,13.38,0,0,0,4.94-2.61c1.61-1.24,3.19-2.76,4.91-4.22.44-.35.93-.64,1.4-1l.71-.48c.25-.14.51-.27.77-.4s.53-.24.81-.34l.41-.14.29-.12.21-.1c.54-.27,1.11-.51,1.7-.75a34.22,34.22,0,0,1,15.65-2.51,42.92,42.92,0,0,0,8.63,0,39.53,39.53,0,0,0,8.39-1.95,38.55,38.55,0,0,0,7.5-3.72,39.47,39.47,0,0,0,3.29-2.32l1.52-1.25,1.3-1.19C72,80.64,72.64,80,73,79.63a13,13,0,0,0,1.33-1.72,17,17,0,0,0,.9-1.76c-.58.44-1.06.82-1.52,1.24a17.09,17.09,0,0,0-1.51,1.48c-.33.32-.94,1-1.74,1.74l-1.27,1.16L67.68,83c-1,.78-2.06,1.56-3.19,2.26a38.28,38.28,0,0,1-7.28,3.61,38.69,38.69,0,0,1-8.14,1.89,42.11,42.11,0,0,1-8.4,0,35.38,35.38,0,0,0-16.18,2.58c-.6.25-1.19.5-1.77.78l-.21.11c-.13.06,0,0-.14,0l-.46.17c-.31.11-.6.24-.89.37s-.57.29-.84.44l-.77.52c-.51.35-1,.66-1.5,1-1.79,1.53-3.33,3-4.88,4.2a12.35,12.35,0,0,1-4.53,2.42,5.82,5.82,0,0,1-3.7-.27l-.68-.3c-.2-.12-.38-.25-.55-.36a4.57,4.57,0,0,1-.82-.61,4,4,0,0,1-.53-.62,4.46,4.46,0,0,1-.42-.72,7.31,7.31,0,0,1-.62-2.36,14.73,14.73,0,0,1-.07-1.82,10.12,10.12,0,0,1,.28-2.09,13.69,13.69,0,0,1,2.17-4.68,16.84,16.84,0,0,1,4.5-4.29,21.36,21.36,0,0,1,6.5-2.81c4.86-1.23,10.41-1,16-.92a68.91,68.91,0,0,0,8.6-.2,37,37,0,0,0,8.37-2.06,54.6,54.6,0,0,0,7.6-3.46,23.48,23.48,0,0,0,6-5.18,20.84,20.84,0,0,0,2.14-3.09c.29-.54.56-1.08.8-1.63l.33-.83a3,3,0,0,0,.14-.42l.07-.22.2-.69c.12-.43.16-.79.21-1A6.26,6.26,0,0,0,64.46,58.68Z"/><path class="cls-9" d="M94,62.12c2.09,6.19.71,15.56-10.13,24.68C77.84,91.91,69.49,94,61.49,94.26c-2.26.07-4.36.15-6.39.28-1,.07-9.16-.5-12.14,6.91-1.82,4.52-1.4,9.61-5,13.27S27.66,117.4,26,112.05l-.08-.27C23.79,102,30.88,91.6,39.7,87.61c1-.48,2.07-.92,3.13-1.31a39.09,39.09,0,0,1,9.89-2.19C82.2,81.45,82,67,80.78,60.28"/><path class="cls-2" d="M94,62.12c.08,1.46.09,2.39.23,4,0,.22,0,.56,0,1a5.09,5.09,0,0,1,0,.67l0,.69c0,.31-.07.61-.1.92a15.56,15.56,0,0,1-.32,1.87c-.12.63-.35,1.24-.52,1.88s-.46,1.25-.74,1.86A33.71,33.71,0,0,1,81.25,88.09c-5.1,3.4-11.41,5-17.56,5.5-3.06.17-6.25.3-9.21.41a14.06,14.06,0,0,0-8.59,2.63,11,11,0,0,0-2.82,3.31,17.39,17.39,0,0,0-1.43,3.81,65.1,65.1,0,0,1-1.77,6.88,11.24,11.24,0,0,1-1.42,2.64,7.66,7.66,0,0,1-1.87,1.86,6.86,6.86,0,0,1-6.61.65,4.76,4.76,0,0,1-.62-.32l-.22-.12a1.51,1.51,0,0,1-.19-.14c-.12-.1-.32-.23-.56-.42a6.56,6.56,0,0,1-1.55-2.16c-.1-.28-.22-.55-.33-.88s-.11-.66-.17-1a15.81,15.81,0,0,1-.22-2.39,19.66,19.66,0,0,1,.88-5.73,24.32,24.32,0,0,1,8.61-11.9,22,22,0,0,1,3.58-2.23c.63-.33,1.31-.61,2-.89s1.36-.58,2-.85a38.29,38.29,0,0,1,8.87-2c1.54-.16,3.13-.37,4.7-.56L58,84l1.18-.23,2.35-.46c.39-.08.78-.14,1.17-.23l1.16-.33,2.3-.64c.77-.21,1.5-.56,2.24-.82a18.45,18.45,0,0,0,2.19-.93l2.11-1.09c.68-.41,1.32-.87,2-1.31a14.24,14.24,0,0,0,1.8-1.49,10.72,10.72,0,0,0,.85-.79l.75-.89c.25-.3.51-.58.73-.89l.61-1c.19-.33.42-.63.58-1l.46-1a12.11,12.11,0,0,0,.72-2.1,6.53,6.53,0,0,0,.25-1.06l.15-.89c.11-.57.09-1.1.14-1.54a7.74,7.74,0,0,0,0-1c0-.44,0-.83-.07-1.18s-.12-.68-.19-1a11.13,11.13,0,0,0-.67-1.87c-.07.73-.09,1.33-.14,1.95,0,.32,0,.63,0,1s0,.71,0,1.13a7.16,7.16,0,0,1,0,1,11.79,11.79,0,0,1-.13,1.44l-.14.84a5.68,5.68,0,0,1-.23,1,11.52,11.52,0,0,1-.67,2l-.43,1a9.46,9.46,0,0,1-.54.91l-.56.9c-.21.29-.46.55-.68.83l-.7.83a9.46,9.46,0,0,1-.8.75A13,13,0,0,1,74,77.1c-.62.41-1.22.85-1.87,1.24l-2,1a17.24,17.24,0,0,1-2.12.89c-.73.26-1.43.59-2.18.8l-2.25.63L62.41,82c-.38.09-.76.15-1.15.23l-2.3.45-1.16.22-1.16.14c-1.57.19-3.1.4-4.67.56a35.64,35.64,0,0,0-17,6.2,25.44,25.44,0,0,0-9,12.46,20.31,20.31,0,0,0-.93,6.07,16.54,16.54,0,0,0,.23,2.55c.08.41.09.73.21,1.16s.25.68.37,1a7.68,7.68,0,0,0,1.83,2.54c.28.24.51.39.66.51l.23.16.25.14a6.79,6.79,0,0,0,.74.38,7.76,7.76,0,0,0,3,.65A7.88,7.88,0,0,0,37.2,116a10.5,10.5,0,0,0,3.7-5,67.73,67.73,0,0,0,1.81-7A16.64,16.64,0,0,1,44,100.47a10.09,10.09,0,0,1,2.53-3,13,13,0,0,1,7.93-2.39c3.08-.12,6.07-.24,9.27-.41,6.29-.46,12.78-2.15,18.1-5.68a32.26,32.26,0,0,0,3.68-2.94c.59-.5,1.13-1.06,1.67-1.6s1.06-1.1,1.56-1.67a29.78,29.78,0,0,0,4.81-7.36c.29-.65.52-1.31.77-2s.42-1.32.55-2a16.91,16.91,0,0,0,.34-2c0-.33.1-.65.11-1l0-.73a5.87,5.87,0,0,0,0-.72c0-.44,0-.8,0-1A8.17,8.17,0,0,0,94,62.12Z"/><path class="cls-9" d="M139.46,13.37c1.22-1.92,3.67-2.24,6-2.93C166.9,3.94,174.48,41,175,42.3c3.81,9.15,7.93,16.44,17,14.6,8.15-1.65,5.78-12.34,5.78-12.34a9.44,9.44,0,0,1-2.71,1.77c-7.37,3-13.68-6.52-5.37-15.07,3-3.14,14.73-4.28,18.88,5.77a28.53,28.53,0,0,1,1.2,19.25A22.42,22.42,0,0,1,198,70s-14,5-20.16.45-20-28.74-20-28.74l-2.61-3.09"/><path class="cls-2" d="M139.46,13.37a5.13,5.13,0,0,1,1.59-1,16.85,16.85,0,0,1,1.9-.67l.72-.21,2.77-.74a15,15,0,0,1,7.92.06,17.74,17.74,0,0,1,7.18,4.51c4.18,4.19,7.07,9.82,9.3,15.52a90.65,90.65,0,0,1,2.87,8.72c.2.74.39,1.47.59,2.2a6.36,6.36,0,0,0,.38,1.14l.45,1c.6,1.39,1.22,2.75,1.91,4.07a23.18,23.18,0,0,0,5.13,7,12.23,12.23,0,0,0,3.67,2.13c.33.1.67.17,1,.26a4.39,4.39,0,0,0,1,.18l1,.11,1,0a12.89,12.89,0,0,0,3.77-.69,7.41,7.41,0,0,0,3-2.15,8.16,8.16,0,0,0,1.55-3,13.11,13.11,0,0,0,.51-3,19.6,19.6,0,0,0,0-2.68c0-.21-.05-.41-.07-.62s0-.27-.07-.46l-.09-.54-.21-1.05c0-.07,0,0-.08,0l-.1.09-.21.19-.42.37c-.13.13-.27.24-.4.35l-.3.23-.38.27a8.51,8.51,0,0,1-.73.45,6,6,0,0,1-1.34.52,7.24,7.24,0,0,1-1.86.31l-.9-.08a4.06,4.06,0,0,1-.85-.21,5.36,5.36,0,0,1-2.67-1.82A7.08,7.08,0,0,1,186.4,39a11.78,11.78,0,0,1,3.31-6.85,6,6,0,0,1,3-1.93l.91-.27s.44-.1,1.27-.23a14.24,14.24,0,0,1,3.65,0,12.28,12.28,0,0,1,5.29,2,12.42,12.42,0,0,1,4.47,5.89,30.38,30.38,0,0,1,2.06,8.92,24.88,24.88,0,0,1-1.27,10.2A23.2,23.2,0,0,1,203,66.06a19.24,19.24,0,0,1-4.8,3.25l-.33.15a1.51,1.51,0,0,1-.31.11l-.71.23c-.47.15-1,.29-1.44.42-1,.27-2,.52-2.94.72a37.92,37.92,0,0,1-6,.81,17.06,17.06,0,0,1-5.93-.61,10.28,10.28,0,0,1-4.7-3.41c-1.34-1.52-2.6-3.12-3.78-4.76-2.38-3.27-4.57-6.62-6.65-9.91-1-1.64-2-3.28-3-4.89s-1.83-3.08-2.72-4.56c-.57-1-1-1.78-1.27-2.18a.64.64,0,0,0-.14-.18l-.1-.11c-.06-.08-.13-.15-.19-.22l-.38-.4a9.18,9.18,0,0,0-.72-.69,19.52,19.52,0,0,0-1.55-1.21,18.43,18.43,0,0,0,.94,1.73c.16.27.34.54.55.83l.33.43.34.42,1.23,2.14,2.73,4.57q1.47,2.43,3,4.91c2.09,3.3,4.29,6.67,6.69,10,1.2,1.66,2.47,3.28,3.85,4.85l1.09,1.15c.36.37.8.71,1.2,1.06a10,10,0,0,0,1.39.89,14.16,14.16,0,0,0,1.51.63,18.37,18.37,0,0,0,6.32.66,38.57,38.57,0,0,0,6.19-.84c1-.2,2-.46,3-.73l1.47-.43.74-.24a3.29,3.29,0,0,0,.4-.14l.35-.17a20,20,0,0,0,5.08-3.44,24.09,24.09,0,0,0,6.37-9.74,26.09,26.09,0,0,0,1.34-10.64,31.69,31.69,0,0,0-2.15-9.25c-.25-.68-.63-1.33-.93-2s-.77-1.19-1.13-1.76-.89-1-1.34-1.48-1-.85-1.46-1.18a13.6,13.6,0,0,0-5.76-2.22,15.63,15.63,0,0,0-4,0c-.9.14-1.37.25-1.37.25l-1,.29a12.12,12.12,0,0,0-1.47.62,6.89,6.89,0,0,0-1,.63l-.53.45-.47.54c-.32.38-.69.77-1,1.24l-1.06,1.62a12.08,12.08,0,0,0-1.48,4.64A8.16,8.16,0,0,0,187.08,45a6.59,6.59,0,0,0,3.18,2.16,5.07,5.07,0,0,0,1,.25l1.07.09a7.54,7.54,0,0,0,2.18-.36,7,7,0,0,0,1.54-.6c.27-.15.55-.31.83-.5l.43-.31.1-.08h0c0,.22,0,.46.08.7a18.8,18.8,0,0,1,.05,2.51,12.12,12.12,0,0,1-.47,2.73,7.08,7.08,0,0,1-1.35,2.61A6.26,6.26,0,0,1,193.22,56a12.06,12.06,0,0,1-3.41.62l-.91,0-.9-.1a4,4,0,0,1-.91-.16c-.29-.08-.6-.14-.89-.23a11.08,11.08,0,0,1-3.31-1.92,17.87,17.87,0,0,1-2.69-3A33.17,33.17,0,0,1,178,47.51c-.67-1.28-1.28-2.63-1.88-4l-.43-1a4.37,4.37,0,0,1-.34-1c-.2-.73-.39-1.46-.59-2.2a92.9,92.9,0,0,0-2.9-8.83c-2.27-5.79-5.2-11.53-9.56-15.91a18.82,18.82,0,0,0-7.64-4.78,16.08,16.08,0,0,0-8.51-.08l-2.8.75-.75.23A4.41,4.41,0,0,0,139.46,13.37Z"/><path class="cls-9" d="M164.14,27.53c4.63,13.12,6.56,24.31,9.4,31.05,2.67,6.34,9.63,11.22,17.38,11.94s15.82-2.7,19.91-8.46c2.09-3,4.17-7,8.16-6.85s5.85,4.5,5.55,8c-.82,9.66-11.06,18-22.22,18.14,0,0-15.67,2.43-23.27-1.37,0,0-16.15-5.94-17.81-15"/><path class="cls-2" d="M164.14,27.53a16.35,16.35,0,0,0,.78,4l.31.95.2.66,1,3.25,1.05,3.65c1.43,5,2.71,10.53,4.57,16.12a28.55,28.55,0,0,0,1.74,4.15,18,18,0,0,0,2.68,3.7,22,22,0,0,0,7.38,5.21,23,23,0,0,0,8.63,1.92,24,24,0,0,0,8.3-1.29,23.4,23.4,0,0,0,6.83-3.67,19.75,19.75,0,0,0,2.6-2.47,24.81,24.81,0,0,0,2-2.65,17.41,17.41,0,0,1,3.47-4.16,5,5,0,0,1,3.61-1.13,4.33,4.33,0,0,1,2.25.85,5.63,5.63,0,0,1,.65.57l.25.3a5.39,5.39,0,0,1,.64,1,8.43,8.43,0,0,1,1,4.24,16.15,16.15,0,0,1-1.94,6.59,20.75,20.75,0,0,1-2.41,3.48,23.16,23.16,0,0,1-3.43,3.15,24.27,24.27,0,0,1-4.28,2.6,24.88,24.88,0,0,1-5,1.68,10.2,10.2,0,0,1-1.34.25c-.45.06-.9.14-1.36.19l-1.38.08-.35,0a3,3,0,0,0-.42,0l-.7.1c-1.89.24-3.81.42-5.75.52a51,51,0,0,1-11.65-.5l-1.41-.3c-.47-.11-.92-.27-1.37-.4a9.5,9.5,0,0,1-1.32-.51l-.71-.3-.66-.26a55.64,55.64,0,0,1-5.17-2.44,32.67,32.67,0,0,1-8.6-6.37c-.26-.27-.46-.54-.66-.78-.38-.48-.67-.88-.83-1.13a34.11,34.11,0,0,1-2-3.43,6.28,6.28,0,0,0,1.09,4,11.64,11.64,0,0,0,.88,1.23c.21.26.44.55.7.83a33.37,33.37,0,0,0,8.91,6.6h0a55.48,55.48,0,0,0,5.27,2.5l.69.27.65.27a10.68,10.68,0,0,0,1.42.55c.48.14,1,.31,1.45.42l1.48.32a51.87,51.87,0,0,0,11.92.52c2-.11,3.91-.29,5.82-.54l.72-.09a1.33,1.33,0,0,1,.28,0l.37,0,1.45-.09c.48,0,.95-.13,1.43-.2a9.58,9.58,0,0,0,1.4-.26,24.47,24.47,0,0,0,9.73-4.47,24.4,24.4,0,0,0,3.59-3.32A21.68,21.68,0,0,0,223,69.83a17.09,17.09,0,0,0,2.07-7.08,9.57,9.57,0,0,0-1.1-4.81,6.64,6.64,0,0,0-.75-1.12l-.31-.36-.19-.19a4.72,4.72,0,0,0-.6-.51,5.33,5.33,0,0,0-2.81-1.07A6.16,6.16,0,0,0,215,56a18.85,18.85,0,0,0-3.71,4.42,19,19,0,0,1-4.34,4.87,21.86,21.86,0,0,1-6.5,3.49,23.15,23.15,0,0,1-7.92,1.23,22,22,0,0,1-8.21-1.82,21.15,21.15,0,0,1-7-5,17.15,17.15,0,0,1-2.52-3.48,28,28,0,0,1-1.66-4c-1.83-5.5-3.11-11-4.55-16.06-.36-1.25-.71-2.48-1.06-3.67l-1-3.26c-.08-.24-.15-.46-.21-.67l-.31-.95A13.9,13.9,0,0,0,164.14,27.53Z"/><path class="cls-9" d="M163.9,58.68c-1.58,6.12,3.81,13.89,10.81,17.41,5.43,2.73,11.07,4.76,17,5s12-.4,17.92.19C223,82.56,227.81,91.4,227.81,96.5c0,2-.24,4.59-2.15,6.12-6,4.59-11.27-1.79-15.69-5.46a16.8,16.8,0,0,0-2-1.37,11.22,11.22,0,0,0-2.24-1,35.51,35.51,0,0,0-18.1-3.45C171,93,159.34,84.23,153.16,76.15"/><path class="cls-2" d="M163.9,58.68a6.26,6.26,0,0,0-.65,4.12c.06.24.09.6.21,1l.2.69.07.22a2.1,2.1,0,0,0,.15.42c.1.27.21.55.32.83.24.55.51,1.09.8,1.63a20.84,20.84,0,0,0,2.14,3.09,23.48,23.48,0,0,0,6.05,5.18,54.6,54.6,0,0,0,7.6,3.46,37,37,0,0,0,8.37,2.06,68.91,68.91,0,0,0,8.6.2c5.63-.11,11.19-.31,16,.92a21.36,21.36,0,0,1,6.5,2.81,16.84,16.84,0,0,1,4.5,4.29A13.92,13.92,0,0,1,227,94.31a10.85,10.85,0,0,1,.28,2.09,16.82,16.82,0,0,1-.08,1.82,7.31,7.31,0,0,1-.62,2.36,5.12,5.12,0,0,1-.41.72,4.65,4.65,0,0,1-.54.62,4.57,4.57,0,0,1-.82.61c-.17.11-.35.24-.55.36l-.68.3a5.82,5.82,0,0,1-3.7.27,12.24,12.24,0,0,1-4.52-2.42c-1.56-1.19-3.1-2.67-4.89-4.2-.47-.37-1-.68-1.49-1l-.78-.52c-.27-.15-.55-.3-.84-.44s-.58-.26-.89-.37l-.46-.17c-.13,0,0,0-.13,0l-.22-.11c-.58-.28-1.17-.53-1.77-.78a35.38,35.38,0,0,0-16.18-2.58,42,42,0,0,1-8.39,0,38.63,38.63,0,0,1-8.15-1.89,38.28,38.28,0,0,1-7.28-3.61c-1.12-.7-2.17-1.48-3.19-2.26l-1.48-1.22-1.27-1.16c-.8-.75-1.41-1.42-1.74-1.74a17.09,17.09,0,0,0-1.51-1.48c-.46-.42-.94-.8-1.52-1.24a17,17,0,0,0,.9,1.76,13.91,13.91,0,0,0,1.33,1.72c.33.32,1,1,1.78,1.79l1.31,1.19L160,83.86a39.47,39.47,0,0,0,3.29,2.32,38.55,38.55,0,0,0,7.5,3.72,39.68,39.68,0,0,0,8.39,1.95,42.93,42.93,0,0,0,8.63,0,34.26,34.26,0,0,1,15.66,2.51c.58.24,1.15.48,1.69.75l.21.1.29.12.41.14c.28.1.55.22.81.34s.52.26.77.4l.72.48c.47.33.95.62,1.39,1,1.72,1.46,3.3,3,4.91,4.22a13.46,13.46,0,0,0,4.94,2.61,6.91,6.91,0,0,0,4.38-.32l.79-.36c.23-.13.44-.28.63-.41a5.54,5.54,0,0,0,1-.72,5.71,5.71,0,0,0,.67-.79,5.26,5.26,0,0,0,.51-.88,8.41,8.41,0,0,0,.71-2.71,14.85,14.85,0,0,0,.09-2,11.08,11.08,0,0,0-.31-2.34A14.91,14.91,0,0,0,225.7,89a18,18,0,0,0-4.79-4.58,22.86,22.86,0,0,0-6.84-3c-5.09-1.28-10.71-1-16.33-1a66.06,66.06,0,0,1-8.45-.2,35.84,35.84,0,0,1-8.12-2,53.93,53.93,0,0,1-7.42-3.38A22.83,22.83,0,0,1,168,70a20.43,20.43,0,0,1-2-2.93c-.27-.51-.53-1-.75-1.53l-.3-.77a2.92,2.92,0,0,1-.14-.38l-.06-.21c-.06-.23-.13-.44-.19-.64-.11-.39-.14-.72-.19-.93A30,30,0,0,1,163.9,58.68Z"/><path class="cls-9" d="M134.33,62.12c-2.09,6.19-.71,15.56,10.13,24.68,6.06,5.11,14.41,7.24,22.41,7.46,2.26.07,4.37.15,6.39.28,1,.07,9.16-.5,12.14,6.91,1.82,4.52,1.4,9.61,5,13.27s10.28,2.68,11.92-2.67l.08-.27c2.15-9.8-4.94-20.18-13.76-24.17-1-.48-2.07-.92-3.13-1.31a39.09,39.09,0,0,0-9.89-2.19C146.16,81.45,146.37,67,147.58,60.28"/><path class="cls-2" d="M134.33,62.12A8.17,8.17,0,0,0,133,66.07c0,.23,0,.59,0,1,0,.22,0,.46,0,.72s0,.48,0,.73.07.65.1,1a16.91,16.91,0,0,0,.34,2c.13.67.37,1.32.55,2s.48,1.31.77,2a29.54,29.54,0,0,0,4.82,7.36c.49.57,1,1.14,1.55,1.67s1.08,1.1,1.67,1.6A32.26,32.26,0,0,0,146.49,89c5.32,3.53,11.81,5.22,18.1,5.68,3.2.17,6.19.29,9.27.41a13,13,0,0,1,7.94,2.39,10.05,10.05,0,0,1,2.52,3,16.64,16.64,0,0,1,1.33,3.56,67.73,67.73,0,0,0,1.81,7,10.56,10.56,0,0,0,3.7,5,8,8,0,0,0,7.68.76,6.45,6.45,0,0,0,.73-.38l.25-.14.23-.16c.15-.12.38-.27.66-.51a7.54,7.54,0,0,0,1.83-2.54c.12-.31.27-.66.37-1a10.16,10.16,0,0,0,.21-1.16,16.54,16.54,0,0,0,.23-2.55,20.31,20.31,0,0,0-.93-6.07,25.44,25.44,0,0,0-9-12.46,35.6,35.6,0,0,0-17-6.2c-1.57-.16-3.1-.37-4.66-.56l-1.17-.14-1.15-.22-2.31-.45c-.39-.08-.77-.14-1.15-.23l-1.13-.32-2.25-.63c-.75-.21-1.45-.54-2.18-.8a17.1,17.1,0,0,1-2.11-.89l-2-1c-.64-.39-1.25-.83-1.87-1.24a13,13,0,0,1-1.71-1.41c-.26-.25-.56-.47-.8-.75l-.7-.83c-.22-.28-.47-.54-.68-.83l-.56-.9a9.46,9.46,0,0,1-.54-.91l-.42-1a10.74,10.74,0,0,1-.68-2,5.68,5.68,0,0,1-.23-1l-.14-.84a11.79,11.79,0,0,1-.13-1.44,7.16,7.16,0,0,1,0-1c0-.42,0-.78,0-1.13s0-.65,0-1c-.05-.62-.07-1.22-.14-1.95a10.24,10.24,0,0,0-.66,1.87,9.3,9.3,0,0,0-.2,1c0,.35-.06.74-.07,1.18a7.74,7.74,0,0,0,0,1c0,.44,0,1,.14,1.54l.16.89a5.6,5.6,0,0,0,.24,1.06,12.11,12.11,0,0,0,.72,2.1l.46,1c.16.35.39.65.58,1l.61,1c.22.31.49.59.73.89l.75.89a10.72,10.72,0,0,0,.85.79,14.24,14.24,0,0,0,1.8,1.49c.66.44,1.29.9,2,1.31l2.11,1.09a18.45,18.45,0,0,0,2.19.93c.75.26,1.47.61,2.24.82l2.31.64,1.15.33c.39.09.78.15,1.17.23l2.35.46,1.18.23,1.18.14c1.57.19,3.17.4,4.71.56a38.32,38.32,0,0,1,8.86,2c.7.27,1.37.57,2.05.85s1.36.56,2,.89a22.53,22.53,0,0,1,3.59,2.23,24.36,24.36,0,0,1,8.6,11.9,19.66,19.66,0,0,1,.88,5.73,14.62,14.62,0,0,1-.22,2.39c-.06.34-.1.75-.17,1s-.23.6-.33.88a6.56,6.56,0,0,1-1.55,2.16c-.24.19-.43.32-.56.42a1.51,1.51,0,0,1-.19.14l-.21.12a5.87,5.87,0,0,1-.63.32,6.86,6.86,0,0,1-6.61-.65,7.66,7.66,0,0,1-1.87-1.86,11.24,11.24,0,0,1-1.42-2.64,65.1,65.1,0,0,1-1.77-6.88,17.39,17.39,0,0,0-1.43-3.81,11,11,0,0,0-2.82-3.31A14.06,14.06,0,0,0,173.88,94c-2.95-.11-6.15-.24-9.21-.41-6.15-.45-12.46-2.1-17.56-5.5A33.71,33.71,0,0,1,135.79,75c-.28-.61-.5-1.25-.73-1.86s-.41-1.25-.52-1.88a15.61,15.61,0,0,1-.33-1.87c0-.31-.1-.61-.1-.92l0-.69a5.09,5.09,0,0,1,0-.67c0-.41,0-.75,0-1C134.24,64.51,134.25,63.58,134.33,62.12Z"/><path class="cls-10" d="M160.67,36c0-.22-5.44-20.3-11.7-26.83A21,21,0,0,0,144.09,6c-7.57-4.15-13.79.2-15.72,1.11a16.82,16.82,0,0,0-13-6.36c-7.11-.1-9.07,4-9.6,4.53,0,0,0,0,0,0C96.53.11,88.26,4,82,11.24,78.1,15.83,68,32.8,68,32.8c-21.3,47.71,28.36,62.27,36.94,64.57a32.75,32.75,0,0,0,16.88,0C130.3,95.17,181.63,82.94,160.67,36Z"/><path class="cls-2" d="M83.11,9.8c1.29-1,2.15-1.58,3.57-2.73A14.69,14.69,0,0,1,88.19,6a18,18,0,0,1,4-1.9A16.73,16.73,0,0,1,95,3.45l.7-.08A14.21,14.21,0,0,1,97.4,3.3a13.24,13.24,0,0,1,4.11.71,11.92,11.92,0,0,1,2.4,1.13,39.77,39.77,0,0,1,3.63,2.55,7.27,7.27,0,0,0-3-3.59,13.09,13.09,0,0,0-2.66-1.26,14.51,14.51,0,0,0-4.49-.77,16.59,16.59,0,0,0-1.87.07l-.75.09a17.4,17.4,0,0,0-3,.69,18.77,18.77,0,0,0-4.32,2,16.42,16.42,0,0,0-1.61,1.16A9.24,9.24,0,0,0,83.11,9.8Z"/><path class="cls-2" d="M105.76,5.06a29.56,29.56,0,0,1,3.67-2.43A14.66,14.66,0,0,1,111.11,2a13.48,13.48,0,0,1,3.59-.68,13.35,13.35,0,0,1,1.65,0,6.21,6.21,0,0,1,.69.05l.58.07a12.22,12.22,0,0,1,1.41.24,15.52,15.52,0,0,1,3.29,1.14,12.82,12.82,0,0,1,2.29,1.38c1.44,1.09,2.26,1.69,3.49,2.76a7.67,7.67,0,0,0-2.75-3.75,13.32,13.32,0,0,0-2.5-1.5A15.94,15.94,0,0,0,119.3.41a14.4,14.4,0,0,0-1.53-.26l-.62-.08a5.79,5.79,0,0,0-.74,0,13.09,13.09,0,0,0-1.78,0,14.83,14.83,0,0,0-3.91.75,15.24,15.24,0,0,0-1.87.77A6.85,6.85,0,0,0,105.76,5.06Z"/><path class="cls-2" d="M152.27,14.07a6.79,6.79,0,0,0-1.47-4.42,11.36,11.36,0,0,0-1.34-1.5A16.7,16.7,0,0,0,144.61,5a20,20,0,0,0-3.47-1.17s-.34-.09-.9-.2A12.26,12.26,0,0,0,138,3.33a14.74,14.74,0,0,0-8.12,2,7.68,7.68,0,0,0-3.17,3.41c1.35-.91,2.23-1.42,3.78-2.35a15.82,15.82,0,0,1,2.45-1.09,13.68,13.68,0,0,1,5-.68,11.35,11.35,0,0,1,2.07.24l.84.19a19.16,19.16,0,0,1,3.27,1.11A15.92,15.92,0,0,1,148.61,9a12.63,12.63,0,0,1,1.22,1.35A29.25,29.25,0,0,1,152.27,14.07Z"/><path class="cls-2" d="M159.16,32.8a15,15,0,0,0,1.2,3.92c.09.2.24.51.41.9l.25.64,1.32,3.45c.4,1.29.8,2.62,1.22,4a39.32,39.32,0,0,1,.85,17.92,32.79,32.79,0,0,1-9.21,16.47,54.9,54.9,0,0,1-15.11,10.34,90.42,90.42,0,0,1-14.63,5.44c-2.18.6-4.19,1.17-5.94,1.51a32.35,32.35,0,0,1-4.6.55c-1.28,0-2.28,0-3,0s-1-.07-1-.07-.36,0-1-.09-1.66-.21-2.92-.46a77,77,0,0,1-10.31-3.17,75.46,75.46,0,0,1-13.94-7,56.51,56.51,0,0,1-7.11-5.45,42.73,42.73,0,0,1-6.18-7,33.41,33.41,0,0,1-4.32-8.53,36,36,0,0,1-1.77-9.37A41.92,41.92,0,0,1,64,47.46c.14-.74.24-1.49.41-2.22s.37-1.45.55-2.16.33-1.43.58-2.11l.63-1.88c.35-1.05.62-1.91.82-2.33a14.65,14.65,0,0,0,1-4,15,15,0,0,0-2,3.57c-.2.42-.49,1.3-.84,2.37-.21.63-.43,1.26-.64,1.9s-.39,1.43-.59,2.15L63.28,45c-.17.74-.27,1.51-.42,2.27a42.89,42.89,0,0,0-.64,9.53,36.57,36.57,0,0,0,1.83,9.66,34.23,34.23,0,0,0,4.46,8.8,43.44,43.44,0,0,0,6.34,7.25,58.3,58.3,0,0,0,7.26,5.55,80.34,80.34,0,0,0,24.63,10.31c1.3.26,2.32.4,3,.47s1.08.1,1.08.1.37,0,1.07.07,1.74.06,3.06,0a33.5,33.5,0,0,0,4.76-.57c1.84-.36,3.82-.92,6-1.52a91.35,91.35,0,0,0,14.81-5.52A55.91,55.91,0,0,0,156,80.85a34,34,0,0,0,9.51-17,40.53,40.53,0,0,0-.87-18.44c-.42-1.38-.84-2.73-1.24-4L162,37.84l-.25-.65-.42-.92A14.87,14.87,0,0,0,159.16,32.8Z"/><ellipse class="cls-11" cx="92.3" cy="61.09" rx="10.59" ry="10.12" transform="translate(-8.23 107.41) rotate(-58.23)"/><ellipse class="cls-12" cx="92.28" cy="61.82" rx="7.49" ry="7.37" transform="translate(-11.7 22.77) rotate(-13.23)"/><circle class="cls-13" cx="88.27" cy="57.74" r="3.71"/><ellipse class="cls-11" cx="135" cy="61.09" rx="10.59" ry="10.12" transform="translate(11.99 143.71) rotate(-58.23)"/><ellipse class="cls-12" cx="134.98" cy="61.82" rx="7.49" ry="7.37" transform="translate(-10.57 32.54) rotate(-13.23)"/><circle class="cls-13" cx="130.97" cy="57.74" r="3.71"/><ellipse class="cls-11" cx="113.95" cy="37.9" rx="10.59" ry="10.12" transform="translate(21.74 114.83) rotate(-58.23)"/><ellipse class="cls-12" cx="113.93" cy="38.63" rx="7.49" ry="7.37" transform="translate(-5.82 27.11) rotate(-13.23)"/><circle class="cls-13" cx="109.92" cy="34.56" r="3.71"/><path class="cls-13" d="M98.17,12.35V37.1c0,9.2,7,16.68,15.72,16.68S129.6,46.3,129.6,37.1V12.35Zm29.75,25c0,8.22-6.3,14.9-14,14.9s-14-6.68-14-14.9V23.47h28.07Z"/><circle id="SVGID-3" data-name="SVGID" class="cls-14" cx="104.46" cy="18.16" r="2.45"/><circle id="SVGID-4" data-name="SVGID" class="cls-15" cx="110.74" cy="18.16" r="2.45"/><circle id="SVGID-5" data-name="SVGID" class="cls-16" cx="117.03" cy="18.16" r="2.45"/><circle id="SVGID-6" data-name="SVGID" class="cls-17" cx="123.31" cy="18.16" r="2.45"/><path class="cls-13" d="M121.49,77.48A9.44,9.44,0,0,1,114.07,82a9.19,9.19,0,0,1-7.65-4s5.12,1.59,7.47,1.49A19.14,19.14,0,0,0,121.49,77.48Z"/><path class="cls-2" d="M125.13,76.07a31.16,31.16,0,0,0-3.21,1.18c-.22.07-.56.26-1.32.51a22.25,22.25,0,0,1-4,1c-.71.08-1.35.16-1.82.17l-.77,0h-.65a14.31,14.31,0,0,1-1.59-.08,20.68,20.68,0,0,1-3.81-.67,18.49,18.49,0,0,1-2-.65,31.29,31.29,0,0,0-3.25-1.06,8,8,0,0,0,2.91,1.93,18.63,18.63,0,0,0,2,.68,20.74,20.74,0,0,0,4,.7,15.6,15.6,0,0,0,1.66.08h.68l.8,0c.49,0,1.16-.09,1.9-.18a22.07,22.07,0,0,0,4.14-1c.8-.26,1.15-.46,1.38-.54A8,8,0,0,0,125.13,76.07Z"/><path class="cls-2" d="M121.61,77.49c-.91.81-1.52,1.31-2.57,2.16a10.85,10.85,0,0,1-1.15.78,8.78,8.78,0,0,1-2.18.9,7.87,7.87,0,0,1-1.48.24,8.47,8.47,0,0,1-1.28,0,8.84,8.84,0,0,1-2.17-.55,9,9,0,0,1-1.78-.94c-1.11-.78-1.74-1.23-2.71-2a5.83,5.83,0,0,0,2.19,2.75,9.48,9.48,0,0,0,2,1,8.78,8.78,0,0,0,2.41.6,8.79,8.79,0,0,0,3.09-.23,9.71,9.71,0,0,0,2.42-1,9.29,9.29,0,0,0,1.25-.86A5.93,5.93,0,0,0,121.61,77.49Z"/></symbol></defs><g id="WISDOMS"><use width="199.72" height="121.79" transform="translate(50.39 168.25) scale(0.99)" xlink:href="#Wisdom_Body_1_9"/><use width="168.36" height="137.67" transform="translate(65.4 132.69) scale(0.99)" xlink:href="#Wisdom_Body_MASTER_1_4"/><use width="228.36" height="117.44" transform="translate(34.28 46.15)" xlink:href="#Wisdom_Head3_3"/></g></svg>