<svg xmlns="http://www.w3.org/2000/svg" xmlns:xlink="http://www.w3.org/1999/xlink" viewBox="0 0 300 300"><defs><style>.cls-1{fill:#489fff;}.cls-2{fill:#202020;}.cls-3{fill:url(#radial-gradient);}.cls-4{fill:url(#radial-gradient-2);}.cls-5{fill:url(#radial-gradient-3);}.cls-6{fill:url(#New_Gradient_Swatch_1);}.cls-7{fill:#a6a6a6;}.cls-8{fill:none;stroke:#d6d6d6;}.cls-10,.cls-11,.cls-13,.cls-14,.cls-8{stroke-miterlimit:10;}.cls-9{fill:#339dd4;}.cls-10,.cls-11,.cls-13,.cls-14{stroke:#000;}.cls-10{stroke-width:1.05px;fill:url(#radial-gradient-4);}.cls-11,.cls-12,.cls-13{fill:#fff;}.cls-11{stroke-linecap:round;stroke-width:0.94px;}.cls-13{stroke-width:1.22px;}.cls-14{stroke-width:0.34px;}.cls-15{fill:url(#New_Gradient_Swatch_1-2);}</style><radialGradient id="radial-gradient" cx="86.51" cy="27.04" r="0.4" gradientUnits="userSpaceOnUse"><stop offset="0.22"/><stop offset="0.37" stop-color="#01010c"/><stop offset="0.61" stop-color="#020326"/></radialGradient><radialGradient id="radial-gradient-2" cx="84.64" cy="104.71" fy="216.19378665237105" r="136.19" gradientUnits="userSpaceOnUse"><stop offset="0.13"/><stop offset="0.35" stop-color="#01010c"/><stop offset="0.69" stop-color="#020326"/><stop offset="0.72" stop-color="#060729"/><stop offset="0.75" stop-color="#111233"/><stop offset="0.78" stop-color="#242544"/><stop offset="0.81" stop-color="#3f405b"/><stop offset="0.84" stop-color="#626379"/><stop offset="0.87" stop-color="#8d8d9d"/><stop offset="0.9" stop-color="#bfc0c8"/><stop offset="0.93" stop-color="#f8f8f9"/><stop offset="0.93" stop-color="#fff"/></radialGradient><radialGradient id="radial-gradient-3" cx="5867.92" cy="16487.53" r="5.25" gradientTransform="matrix(-0.12, 0.99, -0.99, -0.12, 17030.12, -3860.12)" gradientUnits="userSpaceOnUse"><stop offset="0.28" stop-color="#fff"/><stop offset="0.41" stop-color="#fbfbfb"/><stop offset="0.54" stop-color="#efefef"/><stop offset="0.67" stop-color="#dadada"/><stop offset="0.8" stop-color="#bebebe"/><stop offset="0.93" stop-color="#9a9a9a"/><stop offset="0.95" stop-color="#949494"/></radialGradient><radialGradient id="New_Gradient_Swatch_1" cx="5881.19" cy="16487.87" r="5.25" gradientTransform="matrix(-0.12, 0.99, -0.99, -0.12, 17030.12, -3860.12)" gradientUnits="userSpaceOnUse"><stop offset="0.07" stop-color="#919191"/><stop offset="0.21" stop-color="#828283"/><stop offset="0.47" stop-color="#5c5c60"/><stop offset="0.83" stop-color="#1f1f27"/><stop offset="1" stop-color="#00000a"/></radialGradient><radialGradient id="radial-gradient-4" cx="79.4" cy="100.63" fy="118.68062096307979" r="57.33" gradientUnits="userSpaceOnUse"><stop offset="0.08" stop-color="#339dd4"/><stop offset="0.26" stop-color="#2d94d5"/><stop offset="0.55" stop-color="#1e7ad8"/><stop offset="0.91" stop-color="#0651dd"/><stop offset="1" stop-color="#0046de"/></radialGradient><radialGradient id="New_Gradient_Swatch_1-2" cx="78.2" cy="67.98" r="10.46" gradientTransform="matrix(1, 0, 0, 1, 0, 0)" xlink:href="#New_Gradient_Swatch_1"/><symbol id="Wisdom_Body_1_9" data-name="Wisdom_Body_1 9" viewBox="0 0 199.72 121.79"><path class="cls-1" d="M26.32,14.6A36.11,36.11,0,0,1,9.43,20.29c-1.63.09-3.57-.14-4.37-1.7a4,4,0,0,1,.56-3.95,15.59,15.59,0,0,1,3-2.72A2.28,2.28,0,0,0,9.64,10,1.87,1.87,0,0,0,8.59,8.74,13.29,13.29,0,0,0,4.76,7.68,5.53,5.53,0,0,1,1.27,5.8C.44,4.67.41,2.74,1.53,2a3.48,3.48,0,0,1,1.8-.47L19.75.37"/><path class="cls-2" d="M26.32,14.6a48.2,48.2,0,0,0-4.54,1.79c-.25.11-.62.28-1.08.47-.24.1-.49.21-.77.31-.58.23-1.34.51-2.07.75A37.9,37.9,0,0,1,13,19.17c-.86.17-1.75.28-2.63.38a10.47,10.47,0,0,1-2.56,0,2.86,2.86,0,0,1-1.9-.94,2.34,2.34,0,0,1-.43-1.88,5.34,5.34,0,0,1,2.13-3.18l1.35-1.08a4.77,4.77,0,0,0,1-1.13,2.24,2.24,0,0,0,.35-1.12,1.89,1.89,0,0,0,0-.44,2.23,2.23,0,0,0-.87-1.31A7.44,7.44,0,0,0,6.3,7.3,9.16,9.16,0,0,1,2.44,6,2.58,2.58,0,0,1,1.38,4.36a1.91,1.91,0,0,1,.48-1.81c.4-.38,1.31-.37,2.24-.44l2.71-.18,5.1-.35,3-.21a18,18,0,0,0,4.84-1A18.19,18.19,0,0,0,14.82.05l-3,.2L6.72.59,4,.78c-.46,0-.89,0-1.41.11A3.11,3.11,0,0,0,1,1.51,2.72,2.72,0,0,0,.11,3a3.89,3.89,0,0,0,0,1.59A4,4,0,0,0,1.63,7.1,10.12,10.12,0,0,0,6,8.6a6.3,6.3,0,0,1,2.55.93c.42.35.37.53.39.53s.11.17-.15.61a3.11,3.11,0,0,1-.75.8L6.73,12.55a9.32,9.32,0,0,0-1.55,1.58,5.49,5.49,0,0,0-1,2.42,3.7,3.7,0,0,0,.71,2.92,4.23,4.23,0,0,0,2.74,1.42,12,12,0,0,0,2.88,0c.93-.1,1.86-.22,2.75-.39a42.07,42.07,0,0,0,5.07-1.3c.75-.25,1.54-.54,2.14-.78.29-.1.55-.22.79-.32.49-.2.87-.38,1.12-.49A11.13,11.13,0,0,0,26.32,14.6Z"/><path class="cls-1" d="M173.4,14.6a36.14,36.14,0,0,0,16.89,5.69c1.63.09,3.58-.14,4.38-1.7a4,4,0,0,0-.57-3.95,15.53,15.53,0,0,0-2.95-2.72A2.24,2.24,0,0,1,190.09,10a1.86,1.86,0,0,1,1-1.23A13.27,13.27,0,0,1,195,7.68a5.5,5.5,0,0,0,3.48-1.88c.84-1.13.86-3.06-.25-3.84a3.53,3.53,0,0,0-1.8-.47L180,.37"/><path class="cls-2" d="M173.4,14.6a11.31,11.31,0,0,0,4,3l1.12.49c.24.1.5.22.79.32.6.24,1.39.53,2.14.78a42.07,42.07,0,0,0,5.07,1.3c.9.17,1.82.29,2.75.39a12,12,0,0,0,2.88,0,4.28,4.28,0,0,0,2.75-1.42,3.73,3.73,0,0,0,.7-2.92,5.48,5.48,0,0,0-1-2.42A9.75,9.75,0,0,0,193,12.55l-1.35-1.08a3.3,3.3,0,0,1-.75-.8.79.79,0,0,1-.15-.61s0-.18.39-.53a6.37,6.37,0,0,1,2.55-.93,10.08,10.08,0,0,0,4.41-1.5,4,4,0,0,0,1.57-2.51,4.07,4.07,0,0,0,0-1.59,2.8,2.8,0,0,0-.92-1.49,3.11,3.11,0,0,0-1.58-.62c-.51-.06-1-.08-1.41-.11L193,.59,187.9.25l-3-.2A18.14,18.14,0,0,0,180,.37a17.8,17.8,0,0,0,4.83,1l3,.21,5.1.35,2.71.18c.93.07,1.84.06,2.25.44a1.94,1.94,0,0,1,.48,1.81A2.62,2.62,0,0,1,197.29,6a9.25,9.25,0,0,1-3.86,1.26,7.43,7.43,0,0,0-3.12,1.19,2.12,2.12,0,0,0-.86,1.31,1.38,1.38,0,0,0,0,.44,2.24,2.24,0,0,0,.35,1.12,4.38,4.38,0,0,0,1,1.13l1.34,1.08a5.34,5.34,0,0,1,2.13,3.18,2.37,2.37,0,0,1-.42,1.88,2.91,2.91,0,0,1-1.91.94,10.39,10.39,0,0,1-2.55,0c-.89-.1-1.77-.21-2.64-.38a38.32,38.32,0,0,1-4.89-1.25c-.73-.24-1.49-.52-2.07-.75-.28-.1-.53-.21-.76-.31-.47-.19-.84-.36-1.09-.47A48.2,48.2,0,0,0,173.4,14.6Z"/><path class="cls-1" d="M79.94,96.77c-2.74,5.63-5.68,13.78-6.51,20-.22,1.6-.1,3.66,1.37,4.22s2.86-.9,3.62-2.28,1.62-3,3.15-3.25a3.66,3.66,0,0,1,3.13,1.78,15.46,15.46,0,0,0,2.31,3c1,.79,2.58,1,3.38,0a3.53,3.53,0,0,0,.54-2.16,68.64,68.64,0,0,0-2.78-21"/><path class="cls-2" d="M79.94,96.77A14.83,14.83,0,0,0,77.33,101c-.1.26-.26.64-.45,1.12-.09.24-.2.51-.31.79-.24.64-.55,1.49-.84,2.29a62.59,62.59,0,0,0-2.92,11.21,7.88,7.88,0,0,0,0,3.13,3.25,3.25,0,0,0,.82,1.52,2.56,2.56,0,0,0,1.64.74,2.94,2.94,0,0,0,1.6-.44,5,5,0,0,0,1.09-.92,9,9,0,0,0,1.32-2,4.73,4.73,0,0,1,1.84-2.17,1.56,1.56,0,0,1,.62-.16H82a1,1,0,0,1,.23,0,2.53,2.53,0,0,1,.65.28,6.41,6.41,0,0,1,2,2.23,9.85,9.85,0,0,0,1.49,1.88,3.68,3.68,0,0,0,2.81,1,2.48,2.48,0,0,0,1.63-.76,3,3,0,0,0,.72-1.61,10.13,10.13,0,0,0,.09-1.52c0-.49,0-1,0-1.47a70.79,70.79,0,0,0-1-11.49c-.24-1.33-.46-2.43-.59-3a14.4,14.4,0,0,0-1.86-4.6,25,25,0,0,0,.56,4.88c.12.54.34,1.61.57,2.92a67.12,67.12,0,0,1,1,11.26v1.45a9.05,9.05,0,0,1-.08,1.33c-.12.81-.51,1.19-1.15,1.25-1.4.12-2.35-1.17-3.07-2.31a12.24,12.24,0,0,0-1.15-1.59,5.46,5.46,0,0,0-1.24-1,3.66,3.66,0,0,0-1-.43,1.9,1.9,0,0,0-.4-.06,3.24,3.24,0,0,0-.41,0,3,3,0,0,0-1.14.28,6.11,6.11,0,0,0-2.43,2.73A8.42,8.42,0,0,1,77,119.54a2.34,2.34,0,0,1-1.64.91,1.41,1.41,0,0,1-1.24-1.26,6.47,6.47,0,0,1,0-2.6,61,61,0,0,1,2.86-11c.28-.79.59-1.62.83-2.25l.3-.78.44-1.11A23,23,0,0,0,79.94,96.77Z"/><path class="cls-1" d="M121.11,96.4c2.74,5.63,4.94,14.15,5.77,20.38.21,1.6.1,3.66-1.37,4.22s-2.87-.9-3.63-2.28-1.61-3-3.15-3.25a3.63,3.63,0,0,0-3.12,1.78,15.9,15.9,0,0,1-2.32,3c-1,.79-2.58,1-3.37,0a3.4,3.4,0,0,1-.54-2.16,68.63,68.63,0,0,1,2.77-21"/><path class="cls-2" d="M121.11,96.4a29.06,29.06,0,0,0,1.25,4.74c.09.26.23.65.39,1.13.08.24.17.51.27.79.21.64.47,1.49.71,2.3a82,82,0,0,1,2.43,11.13,7.28,7.28,0,0,1,0,2.63c-.18.79-.63,1.27-1.21,1.33a2.2,2.2,0,0,1-1.65-.86,7.6,7.6,0,0,1-1.15-1.72,6.25,6.25,0,0,0-2.39-2.76,2.78,2.78,0,0,0-1.55-.31,2,2,0,0,0-.4.06,3.2,3.2,0,0,0-1,.41,5.19,5.19,0,0,0-1.26,1,11.57,11.57,0,0,0-1.17,1.6c-.73,1.14-1.66,2.45-3.07,2.35-.65,0-1.05-.42-1.18-1.22a24.63,24.63,0,0,1-.08-2.78A69.56,69.56,0,0,1,111,105c.23-1.31.45-2.38.57-2.92a23.51,23.51,0,0,0,.56-4.88,14.4,14.4,0,0,0-1.86,4.6c-.12.54-.35,1.64-.59,3a71.17,71.17,0,0,0-1,11.52c0,.49,0,1,0,1.47a10.33,10.33,0,0,0,.1,1.53,2.85,2.85,0,0,0,.75,1.61,2.49,2.49,0,0,0,1.64.72,3.72,3.72,0,0,0,2.8-1.06,10.46,10.46,0,0,0,1.48-1.89,6.18,6.18,0,0,1,2-2.22,2.2,2.2,0,0,1,.65-.26,1.31,1.31,0,0,1,.23,0,1.56,1.56,0,0,1,.85.18,5.08,5.08,0,0,1,1.83,2.21,8.91,8.91,0,0,0,1.34,2,4.86,4.86,0,0,0,1.12.9,2.74,2.74,0,0,0,1.63.37,2.48,2.48,0,0,0,1.61-.81,3.43,3.43,0,0,0,.76-1.54,8.19,8.19,0,0,0,0-3.12A83,83,0,0,0,125,105c-.24-.81-.51-1.68-.73-2.33l-.26-.81c-.18-.49-.32-.88-.41-1.15A13.09,13.09,0,0,0,121.11,96.4Z"/></symbol><symbol id="Wisdom_Body_MASTER_1_4" data-name="Wisdom_Body_MASTER_1 4" viewBox="0 0 168.36 137.67"><path class="cls-3" d="M86.49,26.76c-.89.56-.36.66.51.47A4.66,4.66,0,0,1,86.49,26.76Z"/><path class="cls-4" d="M136.78,24.48c-3-1.86-13.88-9.28-16.76-16-.51-.73-4.3-6.85-4.76-7.57l-.39-.06c-15-.1-49.89,0-61.65.54l-1.35-.29c-.27,1.26-3,8.93-3.38,9.73l0,0-3.8,4.87c-4.63,4.62-11.75,10-29.4,15.48l-13.78,3C2.91,38.33,6.94,46,7,51.84c0,.59,4.14,22.33,6.07,36.67a77.07,77.07,0,0,1,22-17.9l8.09-4.2c-.13,4.34.3,15.61-.21,28-.17,4.12-1,25.28-9.22,29.76,47,22,83.65,11.9,102-.63-7.51-1.66-10.26-16.85-10.85-26.73-.14-2.24.34-22.29.5-24.67s.27-4.27.24-5.45L136.22,72a109.74,109.74,0,0,1,8.71,7.14c3.88,3.24,5.88,8.24,11,10,0-2.22.19-4.94.49-8,1.52-15.23,6.42-38.63,10.56-46.9C149.3,31.71,136.76,24.89,136.78,24.48Z"/><circle id="SVGID" class="cls-5" cx="56.45" cy="30.03" r="5.23"/><circle id="SVGID-2" data-name="SVGID" class="cls-6" cx="54.57" cy="43.11" r="5.23"/><path class="cls-7" d="M115.36.65a21,21,0,0,0,1.53,4.69c.11.25.29.62.5,1.09l.36.76c.42.88.86,1.8,1.3,2.74l.35.7,0,.07h0l-.35.22-.73.46a64.16,64.16,0,0,1-28.3,9.81c-1.29.07-2.56.2-3.83.23H82.46l-3.67-.26c-1.2-.09-2.43-.23-3.59-.32A47.47,47.47,0,0,1,63,18.15a44.4,44.4,0,0,1-7.84-3.66c-1.78-1.06-2.72-1.75-2.72-1.75s-.13-.07-1-.71c-.42-.31-1-.77-1.85-1.46-.3-.26-.21-.18-.23-.19h0l0-.12c.07-.16.13-.33.19-.5.25-.68.54-1.46.85-2.33.21-.58.73-2,1.45-4.17.18-.54.37-1.12.56-1.75,0,0,0,0,0,0h5.85l25-.08,27.08-.08a18.07,18.07,0,0,0,4.9-.68,17.72,17.72,0,0,0-4.9-.65L83.38.08l-25,.07-4.79,0H51.48a9.29,9.29,0,0,0-.27.94c-.18.61-.37,1.18-.55,1.71C50,5,49.43,6.4,49.23,7l-.85,2.32-.18.48c-.05.12-.09.23-.14.34s-.12.3-.19.45-.08.15-.07.21l.18.15.34.3.43.36c.86.72,1.48,1.19,1.92,1.52.88.65,1,.73,1,.73s1,.71,2.8,1.8a46,46,0,0,0,8.07,3.77,48.59,48.59,0,0,0,12.53,2.75l3.58.32,3.75.27h3.85c1.3,0,2.61-.16,3.92-.24a65.39,65.39,0,0,0,28.89-10l.73-.46.36-.23.73-.44a1.42,1.42,0,0,0,.34-.22l-.21-.37-.38-.67-.39-.78L119,6.62l-.36-.76c-.22-.46-.4-.83-.51-1.08A15.77,15.77,0,0,0,115.36.65Z"/><path class="cls-7" d="M49.92,7.84A14,14,0,0,0,53.78,11l1.07.59.75.39c.64.33,1.5.75,2.31,1.13s1.72.78,2.63,1.15l2.87,1,2.94,1.05c1,.32,2,.61,3,.86A54.86,54.86,0,0,0,80.3,18.73c2.93.14,4.82.06,4.82.06s1.89,0,4.81-.29a64.06,64.06,0,0,0,10.84-2.07A60.49,60.49,0,0,0,112,11.94c1.22-.61,2.19-1.14,2.68-1.41a14.6,14.6,0,0,0,3.88-3.09,24.14,24.14,0,0,0-4.52,1.93c-.48.26-1.45.78-2.64,1.38a59.82,59.82,0,0,1-11,4.4,61.54,61.54,0,0,1-10.61,2c-2.85.29-4.7.3-4.7.3s-1.85.07-4.72-.07A53.81,53.81,0,0,1,69.7,15.85c-1-.25-2-.53-3-.84l-2.89-1-2.81-1c-.9-.36-1.76-.74-2.57-1.12s-1.64-.79-2.27-1.11l-.73-.38-1-.57A24.9,24.9,0,0,0,49.92,7.84Z"/><path class="cls-7" d="M48.72,11c-.69.56-1.24,1-1.77,1.54a19.08,19.08,0,0,0-1.83,1.75c-.18.2-.5.46-.86.81l-.61.55-.39.37a6,6,0,0,1-.54.46l-1.13.91c-.75.63-1.57,1.21-2.42,1.8A82.22,82.22,0,0,1,14.36,30.5c-2.25.62-4.51,1.12-6.72,1.53l-3.3.53L.38,33A2,2,0,0,0,0,33l.17.36.35.72.48,1,.62,1.4c.38.93.77,1.83,1.09,2.73.67,1.78,1.22,3.49,1.7,5.07,1,3.16,1.61,5.8,2,7.65s.66,2.89.66,2.89.21,1,.6,2.9.87,4.54,1.4,7.81,1.08,7.13,1.62,11.35c.25,2.11.51,4.31.77,6.57.11,1.12.23,2.27.35,3.42.08.85.17,1.69.25,2.54l.18,1.76L13.21,90l.94-1.23.47-.62.28-.35L16,86.41c.78-.88,1.55-1.78,2.37-2.62A62.45,62.45,0,0,1,23.51,79,67.8,67.8,0,0,1,29,74.87c.93-.62,1.84-1.23,2.76-1.78l1.37-.83,1.27-.71c1.15-.67,2.14-1.14,2.62-1.41a22.69,22.69,0,0,0,4.14-2.66A14.86,14.86,0,0,0,36.38,69c-.49.26-1.49.74-2.67,1.42l-1.29.72L31,72c-.93.56-1.87,1.18-2.81,1.81C26.33,75,24.48,76.45,22.66,78a62.05,62.05,0,0,0-5.24,4.91c-.84.86-1.62,1.77-2.42,2.67l-1.14,1.39-.28.35-.06.08-.13.17-.13.17h0s0,0,0-.07l-.09-.87c-.11-1.16-.23-2.31-.35-3.44-.26-2.26-.52-4.47-.77-6.58-.54-4.24-1.09-8.12-1.63-11.41s-1.05-6-1.41-7.85-.6-2.92-.6-2.92l-.66-2.91c-.44-1.87-1.1-4.53-2.06-7.73-.48-1.6-1-3.34-1.73-5.16-.32-.91-.71-1.84-1.11-2.79l-.63-1.43L2,34.14H2l2.51-.26,3.35-.53c2.26-.43,4.55-.93,6.84-1.56A84,84,0,0,0,39.94,20.25c.87-.61,1.71-1.21,2.48-1.86.4-.31.78-.62,1.16-.93a6.44,6.44,0,0,0,.56-.48l.4-.38c.23-.2.44-.4.63-.58.38-.36.7-.63.89-.84a15.3,15.3,0,0,0,1.64-2.06A19.72,19.72,0,0,0,48.72,11Z"/><path class="cls-7" d="M44.26,45.11A15,15,0,0,0,43,49.91c0,.28-.06.69-.1,1.21,0,.25,0,.54-.06.84-.05.79-.1,1.59-.15,2.41s-.08,1.87-.12,2.83c-.06,1.92-.09,3.89-.08,5.9,0,4,.14,8.22.2,12.53s0,8.73-.14,13.22c-.06,2.24-.21,4.5-.32,6.76s-.32,4.54-.64,6.79a57.4,57.4,0,0,1-2.83,13.18,19.7,19.7,0,0,1-3.14,5.69,26.58,26.58,0,0,1-2.87,2.92s-.13.09-.08.12l.18.1.37.2L34,125l.88.48,1.45.79a92.24,92.24,0,0,0,11.75,5.1,96.43,96.43,0,0,0,11.31,3.3c3.62.85,7.06,1.46,10.24,1.89a120.16,120.16,0,0,0,15.32,1.11c3.67,0,5.74-.09,5.74-.09l.79,0c.53,0,1.33,0,2.42-.13,2.16-.15,5.47-.4,10-1.09,2.24-.37,4.8-.8,7.63-1.48a83.45,83.45,0,0,0,9.32-2.73,64.59,64.59,0,0,0,10.68-4.9c.93-.53,1.83-1.15,2.77-1.75l1.88-1.36.68-.49.34-.25c.11-.09.32-.18.06-.2-.58-.14-1.19-.27-1.72-.44-.25-.07-.6-.16-.77-.23l-.35-.16a6.75,6.75,0,0,1-.69-.39,8.12,8.12,0,0,1-1.24-1,12.22,12.22,0,0,1-2-2.79,34.62,34.62,0,0,1-3.13-9.88,99.29,99.29,0,0,1-1.41-13c-.23-4.66-.26-9.6-.13-14.64q.09-3.78.29-7.61l.22-3.83c.09-1.31.07-2.59.09-3.87,0-2.55,0-5.1-.06-7.61,0-1.25-.08-2.5-.15-3.74,0-.42,0-.84-.07-1.25s0-.8-.07-1.16c-.06-.71-.11-1.3-.13-1.66a15,15,0,0,0-1.22-4.8,22.69,22.69,0,0,0-.11,4.92c0,.35.07.93.13,1.64,0,.35,0,.74.07,1.14s0,.82.07,1.24c.06,1.23.11,2.46.14,3.71.07,2.49.09,5,.06,7.56,0,1.28,0,2.56-.08,3.8L124.74,73c-.14,2.56-.24,5.12-.3,7.65-.13,5.06-.1,10,.14,14.74.49,9.38,1.75,17.84,4.7,23.4a13.81,13.81,0,0,0,2.21,3.09,10,10,0,0,0,1.46,1.22c.28.16.53.34.82.47l.43.2.09,0h0l-.17.12-.66.48c-.91.58-1.79,1.19-2.69,1.7a63.29,63.29,0,0,1-10.46,4.8,80.47,80.47,0,0,1-9.18,2.68c-2.79.67-5.31,1.11-7.52,1.47-4.45.68-7.72.92-9.86,1.08-1.07.09-1.86.09-2.39.12l-.78,0s-2,.11-5.68.08a117.2,117.2,0,0,1-15.15-1.1c-3.14-.42-6.54-1-10.12-1.87a95.88,95.88,0,0,1-11.17-3.25,92.36,92.36,0,0,1-11.57-5l-1.43-.78-.57-.31s0,0,0,0a20.11,20.11,0,0,0,1.74-1.88,20.82,20.82,0,0,0,3.36-6.06A59.46,59.46,0,0,0,43,102.55c.32-2.28.43-4.57.64-6.85s.27-4.55.33-6.8c.15-4.52.16-9,.14-13.29s-.18-8.52-.21-12.51q0-3,.09-5.85c0-1,.07-1.89.11-2.81s.1-1.61.15-2.39c0-.3,0-.58.06-.83,0-.51.07-.92.09-1.19A22.11,22.11,0,0,0,44.26,45.11Z"/><path class="cls-8" d="M69.3,127.59"/><path class="cls-7" d="M82.65,22.24A18.07,18.07,0,0,0,82,27.13c0,4.62,0,27.76,0,27.76s0,22.1,0,26.52a17.62,17.62,0,0,0,.67,4.89,17.7,17.7,0,0,0,.65-4.89c0-4.42,0-26.52,0-26.52s0-23.14,0-27.76A18,18,0,0,0,82.65,22.24Z"/><path class="cls-7" d="M87.41,22.24a18,18,0,0,0-.66,4.89V81.41a18.07,18.07,0,0,0,.66,4.89,18.07,18.07,0,0,0,.66-4.89V27.13A18,18,0,0,0,87.41,22.24Z"/><path class="cls-7" d="M51.2,3.7A15.37,15.37,0,0,0,55,6.92L56,7.54l.73.42c.61.33,1.39.79,2.17,1.17,1.55.83,3.31,1.62,5.13,2.39a58.8,58.8,0,0,0,5.7,1.94,49,49,0,0,0,10.45,1.71c1.41.06,2.57.1,3.37.07l1.25,0s1.82,0,4.61-.33a67.4,67.4,0,0,0,10.38-2,53,53,0,0,0,10.85-4.19c1.21-.65,2.17-1.24,2.64-1.56s.8-.57,1.14-.83a12,12,0,0,0,.88-.86,10.83,10.83,0,0,0,1.42-1.93c-.78.43-1.36.83-2,1.18-.33.18-.65.39-1,.61s-.74.45-1.15.72-1.37.86-2.54,1.49a51.35,51.35,0,0,1-10.57,4.08,65.46,65.46,0,0,1-10.18,1.94c-2.73.29-4.5.32-4.5.32l-1.23,0c-.78,0-1.91,0-3.28-.07a48.12,48.12,0,0,1-10.17-1.67,53.94,53.94,0,0,1-5.54-1.89c-1.79-.75-3.5-1.52-5-2.34-.75-.37-1.53-.82-2.12-1.14-.27-.14-.51-.29-.73-.42l-1-.6A22.22,22.22,0,0,0,51.2,3.7Z"/><path class="cls-7" d="M10.19,34a21.71,21.71,0,0,0,1,4.81c.11.33.31.85.65,2,.78,2.39,1.93,6.48,2.79,10s1.47,6.44,1.47,6.44.52,2.44,1.09,5.58,1.16,7,1.5,9.73c.21,1.54.3,2.49.35,3a22.75,22.75,0,0,0,1,4.81,15,15,0,0,0,.28-4.94c0-.51-.14-1.47-.34-3-.34-2.77-.94-6.63-1.52-9.8s-1.1-5.62-1.1-5.62-.6-2.94-1.47-6.48-2-7.66-2.82-10.08c-.35-1.12-.55-1.64-.66-2A15.29,15.29,0,0,0,10.19,34Z"/><path class="cls-7" d="M119.64,11a21.76,21.76,0,0,0,1,2.16,15.3,15.3,0,0,0,1.64,2.06c.19.21.51.48.89.84.19.18.4.38.63.58l.41.38a5.11,5.11,0,0,0,.55.48l1.16.93c.77.65,1.62,1.25,2.48,1.86a84,84,0,0,0,25.23,11.54c2.29.63,4.59,1.13,6.84,1.56l3.36.53,2.5.26h0l-.19.41c-.22.48-.43,1-.64,1.43-.39,1-.78,1.88-1.11,2.79-.69,1.82-1.24,3.56-1.73,5.16-1,3.2-1.62,5.86-2.05,7.73L160,54.57s-.22,1-.6,2.92-.89,4.57-1.41,7.85-1.1,7.17-1.64,11.41c-.25,2.11-.51,4.32-.77,6.58-.11,1.13-.23,2.28-.35,3.44l-.09.87c0,.1,0,.07,0,.07h0l-.13-.17-.13-.17-.07-.08-.28-.35-1.14-1.39c-.79-.9-1.58-1.81-2.42-2.67A65.26,65.26,0,0,0,145.71,78c-1.82-1.51-3.68-2.93-5.56-4.2-.94-.63-1.87-1.25-2.81-1.81l-1.4-.85-1.28-.72c-1.18-.68-2.19-1.16-2.68-1.42a14.8,14.8,0,0,0-4.73-1.48,22.6,22.6,0,0,0,4.13,2.66c.48.27,1.47.74,2.63,1.41l1.26.71,1.37.83c.92.55,1.84,1.16,2.76,1.78A64.43,64.43,0,0,1,144.85,79a60.87,60.87,0,0,1,5.12,4.8c.83.84,1.6,1.74,2.37,2.62l1.12,1.36.28.35.47.62.95,1.23.93,1.23.18-1.76c.09-.85.17-1.69.26-2.54.12-1.15.23-2.3.35-3.42.26-2.26.52-4.46.76-6.57.54-4.22,1.09-8.08,1.63-11.35s1-6,1.4-7.81.6-2.9.6-2.9.23-1,.65-2.89,1.08-4.49,2-7.65c.48-1.58,1-3.29,1.71-5.07.32-.9.7-1.8,1.08-2.73.21-.46.42-.93.62-1.4l.49-1,.34-.72.17-.36A2,2,0,0,0,168,33l-4-.42L160.73,32c-2.22-.41-4.48-.91-6.73-1.53a82.34,82.34,0,0,1-24.81-11.35c-.84-.59-1.67-1.17-2.42-1.8l-1.13-.91a5.82,5.82,0,0,1-.53-.46l-.4-.37-.6-.55c-.37-.35-.68-.61-.87-.81a19.14,19.14,0,0,0-1.83-1.75C120.88,12,120.33,11.52,119.64,11Z"/><path class="cls-7" d="M158.17,34a15.81,15.81,0,0,0-2.3,4.39c-.1.33-.31.85-.65,2-.8,2.42-2,6.54-2.82,10.08s-1.47,6.48-1.47,6.48-.53,2.46-1.11,5.62-1.17,7-1.52,9.8c-.2,1.56-.29,2.52-.34,3a14.71,14.71,0,0,0,.29,4.94,22.76,22.76,0,0,0,1-4.81c.06-.5.15-1.45.35-3,.34-2.75.93-6.59,1.5-9.73s1.09-5.58,1.09-5.58.6-2.93,1.47-6.44,2-7.6,2.8-10c.34-1.11.54-1.63.64-2A21.71,21.71,0,0,0,158.17,34Z"/><path class="cls-8" d="M157.48,123.06"/></symbol><symbol id="Wisdom_Head4_4" data-name="Wisdom_Head4 4" viewBox="0 0 158.05 140.56"><path class="cls-9" d="M75.22,61.91c-.56-10.52,0-48.26,2.79-58.42.38-1.39,1.28-3.1,2.7-2.84s1.65,2,1.69,3.3c.21,7.88.69,50.79.9,58.67"/><path class="cls-2" d="M75.22,61.91a18.74,18.74,0,0,0,.48-4.64c0-1.25,0-3.74,0-6.78,0-7,.19-15.26.55-23.15A193.13,193.13,0,0,1,78,6.49c.09-.69.26-1.32.39-1.92a9,9,0,0,1,.44-1.64c.37-1,1-1.61,1.41-1.66a.93.93,0,0,1,1,.44,2.66,2.66,0,0,1,.24.44,5.63,5.63,0,0,1,.31,2.24c0,1.6.06,3.89.1,6.68.09,5.57.2,13.12.32,21,.17,10.56.34,22.08.4,25.92a17.09,17.09,0,0,0,.7,4.61A16.87,16.87,0,0,0,83.86,58c-.06-3.84-.24-15.36-.4-25.92-.12-7.91-.24-15.46-.32-21,0-2.78-.08-5.08-.11-6.67a9.13,9.13,0,0,0-.18-2,4.59,4.59,0,0,0-.22-.71,2.83,2.83,0,0,0-.37-.7A2.19,2.19,0,0,0,80,0a2.56,2.56,0,0,0-1.46.9,5.36,5.36,0,0,0-.88,1.53,6.2,6.2,0,0,0-.3.89c-.07.3-.13.6-.21.92-.13.63-.3,1.29-.4,2a193.18,193.18,0,0,0-1.84,21c-.36,7.91-.54,16.18-.55,23.2,0,1.71,0,3.34,0,4.87,0,.28,0,.55,0,.79,0,.49,0,.88,0,1.14A15.61,15.61,0,0,0,75.22,61.91Z"/><path class="cls-9" d="M69.71,62.36C68.4,47.12,61,22.11,57.11,9.66A2.46,2.46,0,0,1,57,7.8a2.33,2.33,0,0,1,2.75-.66A5.93,5.93,0,0,1,62.09,9c9.07,10.7,16.18,39.67,16.24,52.83"/><path class="cls-2" d="M69.71,62.36a14.54,14.54,0,0,0,.08-4.68c0-.26-.09-.65-.16-1.13,0-.25-.07-.51-.12-.79q-.17-1-.36-2.13c-.12-.77-.28-1.56-.43-2.37-1.21-6.45-3-14-5-21.11s-4-13.91-5.48-18.89c-.33-1.2-.91-2.52-.73-3s1-.71,1.58-.6a2.74,2.74,0,0,1,1.26.57,3.36,3.36,0,0,1,.41.35,5.61,5.61,0,0,1,.4.4,13.42,13.42,0,0,1,1,1.3,21.94,21.94,0,0,1,1.53,2.16,34.74,34.74,0,0,1,1.76,3,73.27,73.27,0,0,1,3.72,8.1c1.17,3.11,2.39,6.49,3.4,10s2,7.17,2.73,10.75c.4,1.78.7,3.55,1,5.27.14.87.28,1.72.41,2.56.06.42.14.83.18,1.24l.15,1.13c.16,1.26.27,2.29.31,2.8a23.06,23.06,0,0,0,.88,4.56,13.29,13.29,0,0,0,.37-4.67c0-.53-.15-1.57-.31-2.84,0-.38-.1-.76-.14-1.15s-.13-.84-.19-1.26c-.14-.85-.27-1.71-.41-2.58C77.32,47.6,77,45.81,76.6,44c-.76-3.61-1.71-7.28-2.75-10.84s-2.25-7-3.44-10.13a77.67,77.67,0,0,0-3.78-8.24,34.26,34.26,0,0,0-1.82-3.09,21.9,21.9,0,0,0-1.59-2.24,12.34,12.34,0,0,0-1.57-1.85,5.83,5.83,0,0,0-.51-.43,4.05,4.05,0,0,0-1.85-.82,3.6,3.6,0,0,0-1.5.12,2.13,2.13,0,0,0-1.45,1.36,3.41,3.41,0,0,0,.18,2c.17.56.35,1.15.55,1.77,1.53,5,3.54,11.72,5.46,18.85s3.75,14.61,5,21c.15.8.31,1.58.43,2.35s.24,1.42.36,2.1c0,.28.08.55.12.78.07.48.12.87.16,1.12A19.81,19.81,0,0,0,69.71,62.36Z"/><path class="cls-9" d="M75.51,67.79c-9.07-28.37-16-35.59-20.59-40.08a29.08,29.08,0,0,0-13.33-7.83A1.29,1.29,0,0,0,40.35,22,123,123,0,0,1,52.77,38.43c4.14,6.89,10.67,24.36,10.87,32.39"/><path class="cls-2" d="M75.51,67.79a17,17,0,0,0-.86-4.59c-.08-.25-.21-.62-.36-1.08L74,61.37c-.23-.67-.47-1.35-.72-2.06s-.53-1.51-.83-2.28a116.51,116.51,0,0,0-9.26-20,47.11,47.11,0,0,0-6.64-8.61,36.25,36.25,0,0,0-7.11-5.89,26.85,26.85,0,0,0-5.81-2.76c-.74-.24-1.32-.4-1.73-.5a2,2,0,0,0-.58-.09h-.23a2.05,2.05,0,0,0-.87.32,2,2,0,0,0-.67.84,1.92,1.92,0,0,0,0,1.46,2.51,2.51,0,0,0,.43.66l.43.5c.29.35.61.72,1,1.12l2.28,2.74c1.66,2,3.58,4.45,5.51,7.19,1,1.37,1.92,2.82,2.85,4.35a52.08,52.08,0,0,1,2.55,4.81c1.58,3.36,3,6.9,4.23,10.38.63,1.73,1.19,3.47,1.72,5.16.25.84.49,1.68.73,2.5s.42,1.58.61,2.35c.29,1.23.52,2.23.6,2.74a37.92,37.92,0,0,0,1.19,4.47,11.1,11.1,0,0,0,0-4.71c-.08-.52-.31-1.55-.6-2.8-.2-.78-.41-1.57-.62-2.38s-.49-1.68-.74-2.54c-.53-1.71-1.11-3.46-1.74-5.22-1.26-3.51-2.68-7.08-4.28-10.48a55,55,0,0,0-2.61-4.94c-1-1.55-1.93-3-2.9-4.41-2-2.78-3.89-5.23-5.57-7.27l-2.3-2.75-1-1.13a5.75,5.75,0,0,1-.65-.81.7.7,0,0,1,.25-.8.47.47,0,0,1,.27-.1h.08a1,1,0,0,1,.31.06c.38.09.94.24,1.63.47a25.82,25.82,0,0,1,5.55,2.63,35.34,35.34,0,0,1,6.87,5.71,46.38,46.38,0,0,1,6.47,8.39,116.41,116.41,0,0,1,9.15,19.73c.67,1.89,1.29,3.61,1.81,5.06.15.46.28.82.36,1.07A16.69,16.69,0,0,0,75.51,67.79Z"/><path class="cls-9" d="M65.5,65.93c-12.56-23-23.13-30.85-34.7-34.2-.9-.26-2.07-.4-2.58.38a2.06,2.06,0,0,0,.67,2.51c17,14.43,23.59,28.52,25,36"/><path class="cls-2" d="M65.5,65.93a16.53,16.53,0,0,0-1.72-4.34l-.59-1-.41-.68c-.3-.49-.6-1-.92-1.53s-.69-1.12-1.06-1.69A85.19,85.19,0,0,0,49.73,42.48a43.52,43.52,0,0,0-13.41-9.41,42.78,42.78,0,0,0-4.91-1.8,6.52,6.52,0,0,0-1.5-.35,2.85,2.85,0,0,0-.61,0,2.24,2.24,0,0,0-.65.12,1.89,1.89,0,0,0-1.26,1.57,3,3,0,0,0,1.11,2.51L30.68,37A98.47,98.47,0,0,1,41.79,48.72a78.08,78.08,0,0,1,5.27,7.47c.8,1.28,1.52,2.57,2.21,3.84l.94,1.9c.16.31.29.63.43.94s.26.58.38.87c.49,1.15.87,2.11,1,2.6a33.75,33.75,0,0,0,1.82,4.24,11.19,11.19,0,0,0-.64-4.66c-.16-.5-.55-1.49-1-2.68l-.39-.88c-.14-.32-.28-.65-.44-1-.31-.64-.64-1.29-1-2-.7-1.29-1.43-2.61-2.24-3.91a78.15,78.15,0,0,0-5.36-7.59A98.91,98.91,0,0,0,31.52,36.1l-2.2-1.94a1.77,1.77,0,0,1-.68-1.41c.1-.67.77-.56.75-.59a3.8,3.8,0,0,1,1.66.31,41.41,41.41,0,0,1,4.76,1.75,42.13,42.13,0,0,1,13,9.16,83.69,83.69,0,0,1,10.9,14c.36.56.72,1.12,1,1.67l.91,1.52.41.68c.25.41.45.74.58,1A17.12,17.12,0,0,0,65.5,65.93Z"/><path class="cls-9" d="M56.43,69C47.91,55,31.66,43.4,20.35,41.24,19.22,41,17.81,41,17.22,42c-.84,1.39.81,2.93,2.19,3.74,9.32,5.5,21.87,20.35,27,30"/><path class="cls-2" d="M56.43,69a13.51,13.51,0,0,0-2.09-4.2c-.15-.21-.39-.53-.67-.93-.15-.19-.31-.41-.49-.63L52.1,61.9c-.38-.48-.78-1-1.22-1.45A73.63,73.63,0,0,0,38.22,49a55.5,55.5,0,0,0-13.67-7.3A26.71,26.71,0,0,0,21.84,41a15.35,15.35,0,0,0-2.16-.44,4.56,4.56,0,0,0-1.55.09,2.43,2.43,0,0,0-.58.22,1.87,1.87,0,0,0-.53.38,2.21,2.21,0,0,0-.65,1.72c.17,1.7,1.9,2.86,3.58,3.87A44.45,44.45,0,0,1,25.47,51a81,81,0,0,1,5.94,5.74c2,2.08,3.92,4.29,5.71,6.52.9,1.1,1.77,2.21,2.59,3.31l1.2,1.62L42,69.72c.73,1,1.28,1.92,1.57,2.34A17.56,17.56,0,0,0,45,74c.44.56.9,1.07,1.47,1.67-.22-.79-.42-1.46-.68-2.14a16.13,16.13,0,0,0-1.15-2.17C44.33,71,43.76,70.06,43,69l-1.09-1.56L40.72,65.8c-.83-1.11-1.71-2.23-2.62-3.35-1.81-2.25-3.78-4.48-5.77-6.59a81.42,81.42,0,0,0-6-5.82,45.81,45.81,0,0,0-5.67-4.31,14.09,14.09,0,0,1-2.16-1.52,2.4,2.4,0,0,1-.84-1.38,1,1,0,0,1,.28-.73.74.74,0,0,1,.24-.17,1,1,0,0,1,.31-.12,3.27,3.27,0,0,1,1.12-.05,14.23,14.23,0,0,1,2,.41,24.63,24.63,0,0,1,2.6.76,53.86,53.86,0,0,1,13.35,7.14A73,73,0,0,1,49.93,61.28c.43.47.82.95,1.2,1.42L52.19,64c.18.21.33.42.47.62l.67.9A24.14,24.14,0,0,0,56.43,69Z"/><path class="cls-9" d="M50.15,73.8C33.22,56.54,16.77,51.86,1.87,52.45a1.11,1.11,0,0,0-.44,2.08c5.33,3,11.14,5,16.62,7.76,6.49,3.21,19.28,11,23.88,20.39"/><path class="cls-2" d="M50.15,73.8a16.64,16.64,0,0,0-2.89-3.68c-.19-.18-.49-.44-.85-.76-.18-.17-.39-.34-.6-.53l-1.45-1.3-1.68-1.36c-.58-.46-1.16-1-1.78-1.42L39,63.37c-1.26-1-2.68-1.8-4.06-2.73a67.27,67.27,0,0,0-9-4.59,58.87,58.87,0,0,0-9.19-2.91A56,56,0,0,0,8.68,52,53.67,53.67,0,0,0,3,51.81h-.9a2.39,2.39,0,0,0-.87.13,1.71,1.71,0,0,0-.54.38.92.92,0,0,0-.14.17,1.71,1.71,0,0,0-.32.77,1.82,1.82,0,0,0,.12,1,1.86,1.86,0,0,0,.38.53,2.56,2.56,0,0,0,.52.37c1.18.66,2.91,1.54,5,2.53,4.25,2,10.2,4.19,15.86,7.54a79.28,79.28,0,0,1,8.23,5.52c1.29,1,2.53,2,3.67,3.09.57.53,1.15,1,1.66,1.59l.79.8c.13.13.25.27.37.41l.31.35c.84.92,1.45,1.75,1.77,2.15.59.73,1,1.35,1.49,1.87s.88,1.06,1.46,1.67a17.13,17.13,0,0,0-.68-2.16A11.42,11.42,0,0,0,40,78.39c-.32-.42-1-1.28-1.83-2.24l-.32-.36a5.14,5.14,0,0,0-.38-.42l-.81-.82c-.53-.57-1.12-1.09-1.7-1.64-1.18-1.09-2.45-2.13-3.76-3.16a82,82,0,0,0-8.37-5.61C17,60.73,11,58.53,6.85,56.55c-2.11-1-3.8-1.84-5-2.49a1.38,1.38,0,0,1-.26-.16.61.61,0,0,1-.1-.14.64.64,0,0,1,0-.3.49.49,0,0,1,.09-.22.38.38,0,0,1,.16-.13,7.81,7.81,0,0,1,1.31,0,51.68,51.68,0,0,1,5.52.15,52.94,52.94,0,0,1,7.9,1.16,56.36,56.36,0,0,1,9,2.85,65.09,65.09,0,0,1,8.8,4.5c1.36.91,2.75,1.72,4,2.68l1.87,1.35c.6.47,1.17.94,1.74,1.4l1.66,1.34L45,69.77l.59.52.85.75A17.71,17.71,0,0,0,50.15,73.8Z"/><path class="cls-9" d="M35,85.91c-4.82-5-14.5-10.15-20.12-12.11-4.6-1.6-9.35-3-13.61-5.25a1.13,1.13,0,0,1,.41-2.13,55.43,55.43,0,0,1,30,4.37L47.37,79l-6.2,11.9L30.08,82.48"/><path class="cls-2" d="M35,85.91a11.42,11.42,0,0,0-3.1-3.53l-.92-.7-.66-.46-.82-.57L28.53,80c-.66-.42-1.33-.85-2-1.27A73.18,73.18,0,0,0,17.17,74c-3.44-1.37-7-2.37-10.39-3.69a50,50,0,0,1-4.87-2.13c-.47-.24-.56-.3-.63-.49a.5.5,0,0,1,.41-.64c.12,0,.39,0,.58-.07l1.22-.14a56.35,56.35,0,0,1,8.79-.17,53.51,53.51,0,0,1,6,.71c1.43.26,2.23.43,2.23.43l.62.15c.41.1,1,.22,1.79.45a54.92,54.92,0,0,1,6.52,2.16c.67.28,1.37.55,2.09.9l2.24,1.16,5,2.59,5.54,2.89,1.47.76.73.38h0L45.1,82c-1.22,2.35-2.57,5-4,7.59l-.19.38h0s0,0,0,0l-.22-.17-1.79-1.35-2.69-2-2.09-1.58a17.06,17.06,0,0,0-4.06-2.29,17.13,17.13,0,0,0,3.3,3.29l2.08,1.58,2.7,2.05,1.78,1.35.64.48.45.34.22.17.11.09s0-.06.08-.08l.83-1.61,3.95-7.58c.61-1.16,1.2-2.3,1.78-3.42l.2-.38c0-.1-.22-.14-.33-.21l-.75-.4-.75-.39L44.9,77l-5.56-2.9-5-2.59-2.25-1.17c-.73-.35-1.48-.64-2.17-.93a58.76,58.76,0,0,0-6.65-2.21c-.79-.22-1.42-.35-1.84-.45l-.63-.15s-.82-.18-2.29-.45a54.83,54.83,0,0,0-6.18-.72,56.35,56.35,0,0,0-9,.17l-1.25.14c-.23,0-.38,0-.68.09a1.66,1.66,0,0,0-.86.42A1.77,1.77,0,0,0,.09,68.1a1.7,1.7,0,0,0,.57.82,4.41,4.41,0,0,0,.68.39,52.24,52.24,0,0,0,5,2.19c3.42,1.33,7.05,2.35,10.36,3.68a71.87,71.87,0,0,1,9.16,4.65c.69.41,1.35.83,2,1.25l.94.62.79.55.65.45.89.67A34,34,0,0,0,35,85.91Z"/><path class="cls-9" d="M31.28,91.94A27.17,27.17,0,0,0,18,85.41c-4.71-1-9.46-1.15-14.2-1.65-1-.11-2.32-.55-2.45-1.79s.9-1.83,1.77-2.19a32.76,32.76,0,0,1,26.14.87L44,88.93l-6.6,9Z"/><path class="cls-2" d="M31.28,91.94a10,10,0,0,0-3.34-3.34c-.22-.15-.57-.34-1-.6l-.71-.38-.33-.17-.42-.21c-.28-.14-.58-.27-.88-.4-.59-.26-1.21-.51-1.85-.74a40.48,40.48,0,0,0-8.48-2c-3-.4-6.09-.59-9.07-.87A14.48,14.48,0,0,1,3.1,83,1.46,1.46,0,0,1,2,82a1.19,1.19,0,0,1,.56-1.23,3.19,3.19,0,0,1,.77-.43L4.25,80a30.38,30.38,0,0,1,7-1.69,33.52,33.52,0,0,1,5-.21l1.37.08.49,0,.69.08c.46,0,1.12.15,2,.29a33.81,33.81,0,0,1,6.76,2l1,.45c.15.07.4.16.48.21l.52.29,2.16,1.22,4.66,2.62,5,2.81,1.7.95-1.5,2c-1.24,1.7-2.51,3.42-3.75,5.1l-.46.63,0,.06h0s0,0,0,0L37,96.66l-.5-.49L35,94.74a16.66,16.66,0,0,0-3.74-2.8,17.11,17.11,0,0,0,2.86,3.69c.29.29.82.82,1.46,1.44l.49.49.29.28.53.53.28.27.13.13s.1.16.13.06c.45-.6.89-1.21,1.34-1.82,1.23-1.68,2.5-3.41,3.75-5.1l2-2.73.22-.3.11-.15a1,1,0,0,0-.15-.09l-.64-.36-.86-.49-1.28-.71-5-2.8L32.3,81.65l-2.16-1.21-.52-.3c-.27-.13-.39-.17-.59-.26L28,79.42a35.93,35.93,0,0,0-7-2c-.87-.14-1.56-.26-2-.3L18.2,77l-.51,0-1.43-.09a34.89,34.89,0,0,0-5.18.21,31.33,31.33,0,0,0-7.26,1.76l-1,.37a4.7,4.7,0,0,0-1.06.6,2.9,2.9,0,0,0-.87,1,2.3,2.3,0,0,0-.15,1.46,2.34,2.34,0,0,0,.78,1.26,3.36,3.36,0,0,0,1.2.62A5.62,5.62,0,0,0,4,84.41l1.13.11c3,.29,6.08.48,9,.87a39.2,39.2,0,0,1,8.21,1.9c.61.22,1.21.45,1.78.71.28.12.56.24.83.38l.4.2.32.15.68.37c.41.24.74.42,1,.56C28.87,90.66,29.82,91.15,31.28,91.94Z"/><path class="cls-9" d="M88.34,62.36c1.31-15.24,8.73-40.25,12.6-52.7A2.41,2.41,0,0,0,101,7.8a2.31,2.31,0,0,0-2.74-.66A5.89,5.89,0,0,0,96,9c-9.07,10.7-16.18,39.67-16.24,52.83"/><path class="cls-2" d="M88.34,62.36a19.81,19.81,0,0,0,1.16-4.51c0-.25.1-.64.16-1.12,0-.23.08-.5.13-.78.11-.68.23-1.38.35-2.1s.28-1.55.43-2.35c1.2-6.41,3-13.91,5-21S99.46,16.6,101,11.63l.54-1.77a3.41,3.41,0,0,0,.18-2,2.11,2.11,0,0,0-1.45-1.36,3.6,3.6,0,0,0-1.5-.12,4.11,4.11,0,0,0-1.85.82,5.83,5.83,0,0,0-.51.43,12.34,12.34,0,0,0-1.57,1.85,21.9,21.9,0,0,0-1.59,2.24c-.57.9-1.22,1.91-1.82,3.09A77.67,77.67,0,0,0,87.64,23c-1.19,3.14-2.42,6.56-3.43,10.13s-2,7.23-2.76,10.84c-.41,1.8-.71,3.59-1,5.33-.13.87-.27,1.73-.4,2.58-.07.42-.15.84-.19,1.26l-.15,1.15c-.16,1.27-.28,2.31-.3,2.84a13.07,13.07,0,0,0,.36,4.67,22.36,22.36,0,0,0,.88-4.56c0-.51.15-1.54.32-2.8,0-.37.09-.75.14-1.13s.12-.82.18-1.24c.14-.84.27-1.69.41-2.56.33-1.72.63-3.49,1-5.27.75-3.58,1.69-7.23,2.73-10.75s2.22-6.92,3.39-10a73.27,73.27,0,0,1,3.72-8.1c.58-1.15,1.22-2.13,1.76-3a21.94,21.94,0,0,1,1.53-2.16,11.87,11.87,0,0,1,1.05-1.3,4.72,4.72,0,0,1,.39-.4,3.36,3.36,0,0,1,.41-.35,2.79,2.79,0,0,1,1.26-.57c.56-.11,1.45.09,1.58.6s-.4,1.84-.73,3c-1.53,5-3.55,11.75-5.48,18.89s-3.76,14.66-5,21.11c-.15.81-.31,1.6-.43,2.37s-.24,1.44-.36,2.13c-.05.28-.09.54-.12.79-.07.48-.12.87-.16,1.13A14.53,14.53,0,0,0,88.34,62.36Z"/><path class="cls-9" d="M82.54,67.79c9.08-28.37,16-35.59,20.59-40.08a29.08,29.08,0,0,1,13.33-7.83A1.29,1.29,0,0,1,117.7,22a123,123,0,0,0-12.42,16.45c-4.13,6.89-10.67,24.36-10.87,32.39"/><path class="cls-2" d="M82.54,67.79a16.69,16.69,0,0,0,2-4.19c.08-.25.21-.61.36-1.07.52-1.45,1.14-3.17,1.81-5.06a116.41,116.41,0,0,1,9.15-19.73,46,46,0,0,1,6.48-8.39,35,35,0,0,1,6.86-5.71A25.82,25.82,0,0,1,114.8,21c.7-.23,1.25-.38,1.63-.47a1,1,0,0,1,.31-.06h.08a.47.47,0,0,1,.27.1.7.7,0,0,1,.25.8,5.75,5.75,0,0,1-.65.81l-1,1.13-2.3,2.75c-1.67,2-3.61,4.49-5.57,7.27-1,1.39-2,2.86-2.9,4.41a55,55,0,0,0-2.61,4.94c-1.6,3.4-3,7-4.28,10.48-.63,1.76-1.2,3.51-1.74,5.22-.25.86-.5,1.7-.74,2.54s-.42,1.6-.62,2.38c-.29,1.25-.52,2.28-.6,2.8a11.1,11.1,0,0,0,0,4.71,37.92,37.92,0,0,0,1.19-4.47c.08-.51.31-1.51.6-2.74l.61-2.35c.24-.82.48-1.66.73-2.5.53-1.69,1.09-3.43,1.72-5.16,1.25-3.48,2.65-7,4.23-10.38A52.08,52.08,0,0,1,106,38.41c.93-1.53,1.89-3,2.85-4.35,1.93-2.74,3.85-5.16,5.51-7.19l2.29-2.74,1-1.12.43-.5a2.79,2.79,0,0,0,.44-.66,2,2,0,0,0,0-1.46,1.86,1.86,0,0,0-1.54-1.16h-.23a2,2,0,0,0-.58.09c-.4.1-1,.26-1.73.5a26.85,26.85,0,0,0-5.81,2.76,36.25,36.25,0,0,0-7.11,5.89,47.11,47.11,0,0,0-6.64,8.61,116.51,116.51,0,0,0-9.26,20c-.3.77-.56,1.54-.83,2.28s-.49,1.39-.72,2.06l-.27.75c-.15.46-.28.83-.36,1.08A17.4,17.4,0,0,0,82.54,67.79Z"/><path class="cls-9" d="M92.55,65.93c12.56-23,23.13-30.85,34.7-34.2.9-.26,2.07-.4,2.58.38a2.06,2.06,0,0,1-.67,2.51c-17,14.43-23.59,28.52-25,36"/><path class="cls-2" d="M92.55,65.93a17.12,17.12,0,0,0,2.81-3.71c.13-.23.33-.56.58-1l.41-.68.92-1.52c.32-.55.68-1.11,1-1.67a84.08,84.08,0,0,1,10.89-14,42.25,42.25,0,0,1,13-9.15A41.41,41.41,0,0,1,127,32.47a3.8,3.8,0,0,1,1.66-.31.72.72,0,0,1,.76.59,1.82,1.82,0,0,1-.69,1.41l-2.2,1.94a98.91,98.91,0,0,0-11.26,11.84,78.15,78.15,0,0,0-5.36,7.59c-.81,1.3-1.54,2.62-2.24,3.91l-1,2c-.16.32-.29.65-.44,1l-.39.88c-.5,1.19-.89,2.18-1.05,2.68a11.19,11.19,0,0,0-.64,4.66A35.26,35.26,0,0,0,106,66.34c.16-.49.54-1.45,1-2.6.12-.29.25-.57.38-.87s.27-.63.43-.94l1-1.9c.68-1.27,1.4-2.56,2.2-3.84a78.08,78.08,0,0,1,5.27-7.47A98.47,98.47,0,0,1,127.37,37l2.18-1.93a3,3,0,0,0,1.11-2.51A1.87,1.87,0,0,0,129.4,31a2.24,2.24,0,0,0-.65-.12,2.77,2.77,0,0,0-.6,0,6.47,6.47,0,0,0-1.51.35,42.78,42.78,0,0,0-4.91,1.8,43.64,43.64,0,0,0-13.41,9.41A85.19,85.19,0,0,0,97.25,56.7c-.37.57-.73,1.13-1.06,1.69l-.92,1.53-.41.68-.59,1A16.53,16.53,0,0,0,92.55,65.93Z"/><path class="cls-9" d="M101.62,69C110.14,55,126.39,43.4,137.71,41.24c1.12-.22,2.53-.27,3.13.72.83,1.39-.82,2.93-2.2,3.74-9.32,5.5-21.87,20.35-27,30"/><path class="cls-2" d="M101.62,69a23.56,23.56,0,0,0,3.1-3.46l.67-.9a6.13,6.13,0,0,1,.48-.62l1-1.3c.38-.47.77-1,1.2-1.42a72.72,72.72,0,0,1,12.45-11.21,53.64,53.64,0,0,1,13.34-7.14,24.63,24.63,0,0,1,2.6-.76,14.54,14.54,0,0,1,2-.41,3.27,3.27,0,0,1,1.12.05,1,1,0,0,1,.31.12.74.74,0,0,1,.24.17,1,1,0,0,1,.28.73,2.4,2.4,0,0,1-.84,1.38,13.61,13.61,0,0,1-2.16,1.52A45.81,45.81,0,0,0,131.76,50a81.35,81.35,0,0,0-6,5.82c-2,2.11-4,4.34-5.78,6.59-.91,1.12-1.79,2.24-2.62,3.35l-1.21,1.65L115,69c-.73,1-1.29,1.94-1.59,2.38a16.13,16.13,0,0,0-1.15,2.17c-.26.68-.46,1.35-.68,2.14.57-.6,1-1.11,1.48-1.67a19,19,0,0,0,1.41-2c.29-.42.84-1.3,1.57-2.34l1.08-1.54,1.2-1.62c.82-1.1,1.69-2.21,2.59-3.31,1.79-2.23,3.74-4.44,5.71-6.52A81,81,0,0,1,132.58,51a43.76,43.76,0,0,1,5.53-4.2c1.67-1,3.4-2.17,3.57-3.87A2.21,2.21,0,0,0,141,41.2a1.87,1.87,0,0,0-.53-.38,2.43,2.43,0,0,0-.58-.22,4.54,4.54,0,0,0-1.55-.09,15.35,15.35,0,0,0-2.16.44,26.71,26.71,0,0,0-2.71.79A55.28,55.28,0,0,0,119.84,49a73.34,73.34,0,0,0-12.67,11.41c-.44.48-.83,1-1.22,1.45l-1.08,1.32c-.18.22-.34.44-.48.63l-.68.93A13.51,13.51,0,0,0,101.62,69Z"/><path class="cls-9" d="M107.9,73.8c16.93-17.26,33.38-21.94,48.28-21.35a1.11,1.11,0,0,1,.44,2.08c-5.33,3-11.14,5-16.62,7.76-6.49,3.21-19.28,11-23.88,20.39"/><path class="cls-2" d="M107.9,73.8A17.71,17.71,0,0,0,111.64,71l.85-.75.59-.52,1.43-1.28,1.66-1.34c.57-.46,1.14-.93,1.74-1.4l1.87-1.35c1.25-1,2.64-1.77,4-2.68a65.09,65.09,0,0,1,8.8-4.5,56.36,56.36,0,0,1,9-2.85,53.12,53.12,0,0,1,7.9-1.16,51.8,51.8,0,0,1,5.53-.15,8,8,0,0,1,1.31,0,.39.39,0,0,1,.15.13.38.38,0,0,1,.09.22.53.53,0,0,1,0,.3.61.61,0,0,1-.1.14,1.38,1.38,0,0,1-.26.16c-1.15.65-2.85,1.51-5,2.49-4.19,2-10.19,4.18-16,7.59a82,82,0,0,0-8.37,5.61c-1.31,1-2.58,2.07-3.76,3.16-.58.55-1.17,1.07-1.7,1.64l-.81.82a5.14,5.14,0,0,0-.38.42l-.32.36c-.87,1-1.5,1.82-1.83,2.24a11.42,11.42,0,0,0-1.27,2.13,17.13,17.13,0,0,0-.68,2.16c.58-.61,1-1.13,1.47-1.67s.89-1.14,1.49-1.87c.31-.4.92-1.23,1.76-2.15l.31-.35a4.86,4.86,0,0,1,.38-.41l.78-.8c.51-.55,1.09-1.06,1.66-1.59,1.14-1.06,2.38-2.08,3.67-3.09a79.28,79.28,0,0,1,8.23-5.52c5.66-3.35,11.61-5.54,15.86-7.54,2.13-1,3.86-1.87,5-2.53a2.56,2.56,0,0,0,.52-.37,1.86,1.86,0,0,0,.38-.53,1.82,1.82,0,0,0,.12-1,1.58,1.58,0,0,0-.32-.77.92.92,0,0,0-.14-.17,1.71,1.71,0,0,0-.54-.38,2.39,2.39,0,0,0-.87-.13H155a53.67,53.67,0,0,0-5.65.14,55.7,55.7,0,0,0-8.07,1.19,59,59,0,0,0-9.2,2.91,66.56,66.56,0,0,0-9,4.59c-1.39.93-2.8,1.76-4.07,2.73l-1.9,1.38c-.62.47-1.2,1-1.77,1.42l-1.69,1.36-1.45,1.3-.6.53-.85.76A16.64,16.64,0,0,0,107.9,73.8Z"/><path class="cls-9" d="M123.07,85.91c4.82-5,14.5-10.15,20.12-12.11,4.6-1.6,9.35-3,13.61-5.25a1.13,1.13,0,0,0-.41-2.13,55.43,55.43,0,0,0-29.95,4.37L110.68,79l6.2,11.9L128,82.48"/><path class="cls-2" d="M123.07,85.91a34,34,0,0,0,3.87-2.54l.89-.67.65-.45.8-.55c.3-.21.62-.41.93-.62.64-.42,1.3-.84,2-1.25a71.36,71.36,0,0,1,9.17-4.65c3.3-1.33,6.93-2.35,10.35-3.68a52.24,52.24,0,0,0,5-2.19,4.41,4.41,0,0,0,.68-.39,1.7,1.7,0,0,0,.57-.82,1.75,1.75,0,0,0-.49-1.85,1.66,1.66,0,0,0-.86-.42c-.3-.06-.45-.06-.68-.09l-1.25-.14a56.35,56.35,0,0,0-9-.17,54.83,54.83,0,0,0-6.18.72c-1.47.27-2.29.45-2.29.45l-.63.15c-.42.1-1,.23-1.84.45a58.76,58.76,0,0,0-6.65,2.21c-.69.29-1.44.58-2.17.93l-2.25,1.17c-1.55.81-3.21,1.68-5,2.59L113.15,77l-1.46.76-.76.39-.75.4c-.1.07-.3.11-.33.21l.2.38,1.78,3.42,4,7.58.83,1.61s0,.12.08.08l.11-.09.22-.17.45-.34.64-.48,1.78-1.35,2.7-2.05,2.08-1.58A16.91,16.91,0,0,0,128,82.48a16.93,16.93,0,0,0-4.07,2.29l-2.09,1.58-2.69,2-1.78,1.35-.23.17c-.06,0,0,0,0,0h0l-.2-.38c-1.38-2.64-2.73-5.24-4-7.59l-1.42-2.71h0l.73-.38,1.47-.76,5.54-2.89,5-2.59,2.24-1.16c.72-.35,1.43-.62,2.09-.9a54.92,54.92,0,0,1,6.52-2.16c.77-.23,1.38-.35,1.79-.45l.62-.15s.8-.17,2.24-.43a52.93,52.93,0,0,1,6-.71,56.24,56.24,0,0,1,8.78.17l1.22.14c.19,0,.46,0,.58.07a.5.5,0,0,1,.41.64c-.07.19-.16.25-.63.49a50,50,0,0,1-4.87,2.13c-3.38,1.32-7,2.32-10.38,3.69a73.33,73.33,0,0,0-9.34,4.74c-.7.42-1.37.85-2,1.27l-1,.63-.82.57-.65.46-.92.7A11.58,11.58,0,0,0,123.07,85.91Z"/><path class="cls-9" d="M126.77,91.94a27.17,27.17,0,0,1,13.3-6.53c4.71-1,9.46-1.15,14.2-1.65,1-.11,2.32-.55,2.45-1.79s-.9-1.83-1.77-2.19a32.76,32.76,0,0,0-26.14.87l-14.7,8.28,6.59,9Z"/><path class="cls-2" d="M126.77,91.94c1.46-.79,2.41-1.28,4-2.28.21-.14.55-.32.95-.56l.69-.37.31-.15.4-.2c.27-.14.55-.26.83-.38.57-.26,1.17-.49,1.78-.71a39.2,39.2,0,0,1,8.21-1.9c2.95-.39,6-.58,9-.87l1.13-.11a5.62,5.62,0,0,0,1.22-.22,3.28,3.28,0,0,0,1.2-.62,2.29,2.29,0,0,0,.63-2.72,2.9,2.9,0,0,0-.87-1,4.7,4.7,0,0,0-1.06-.6l-1-.37A31.33,31.33,0,0,0,147,77.08a34.89,34.89,0,0,0-5.18-.21l-1.43.09-.5,0-.73.08c-.47,0-1.16.16-2,.3a35.93,35.93,0,0,0-7,2l-1.06.46c-.2.09-.32.13-.59.26l-.51.3-2.17,1.21-4.66,2.63-5,2.8-1.28.71-.86.49-.64.36a1,1,0,0,0-.15.09l.11.15.22.3,2,2.73c1.25,1.69,2.52,3.42,3.75,5.1l1.34,1.82c0,.1.08,0,.13-.06l.14-.13.27-.27.53-.53.29-.28.49-.49c.64-.62,1.17-1.15,1.46-1.44a17.11,17.11,0,0,0,2.86-3.69,16.66,16.66,0,0,0-3.74,2.8l-1.46,1.43-.5.49-.28.28h0l0-.06-.46-.63-3.75-5.1-1.5-2,1.7-.95,5-2.81,4.66-2.62,2.16-1.22.52-.29c.09,0,.33-.14.48-.21l1-.45a34,34,0,0,1,6.76-2c.84-.14,1.5-.26,2-.29l.7-.08.48,0,1.38-.08a33.56,33.56,0,0,1,5,.21,30.31,30.31,0,0,1,7,1.69l.94.36a3.19,3.19,0,0,1,.77.43,1.16,1.16,0,0,1,.56,1.23A1.46,1.46,0,0,1,155,83a14.52,14.52,0,0,1-2.09.28c-3,.28-6.08.47-9.08.87a40.62,40.62,0,0,0-8.48,2c-.64.23-1.26.48-1.85.74l-.88.4-.42.21-.33.17-.71.38c-.43.26-.78.45-1,.6A10,10,0,0,0,126.77,91.94Z"/><ellipse class="cls-10" cx="79.4" cy="100.63" rx="50.07" ry="39.4"/><path class="cls-11" d="M37.55,95.85C41.61,83.9,58.8,74.92,79.4,74.92s37.8,9,41.86,20.93h7.83c-3-19.51-24.1-34.62-49.69-34.62S32.72,76.34,29.72,95.85Z"/><path class="cls-12" d="M90.12,128.78c-7.77,4-11.45,5.24-21.79-.15a44.14,44.14,0,0,0,10.69,1C83.9,129.36,90.12,128.78,90.12,128.78Z"/><path class="cls-2" d="M62.14,127.63a10.18,10.18,0,0,0,2.94,1l.75.14.52.1,1.13.17c1.6.27,3.51.47,5.34.62,3.67.29,7,.21,7,.21s2,0,4.52-.21,5.59-.55,7.77-.92c1-.15,1.57-.28,1.88-.33a10.34,10.34,0,0,0,3-1,12.87,12.87,0,0,0-3.1.19c-.31.05-.9.17-1.87.32-2.15.36-5.19.74-7.7.92s-4.47.2-4.47.2-3.3.08-6.92-.2c-1.81-.16-3.7-.36-5.28-.62l-1.12-.17L66,128l-.74-.13A12.39,12.39,0,0,0,62.14,127.63Z"/><path class="cls-2" d="M68.33,128.63a9.48,9.48,0,0,0,2.6,1.72c.2.09.51.26,1.2.54a27.39,27.39,0,0,0,4.24,1.39,16.55,16.55,0,0,0,2,.31,6.38,6.38,0,0,0,.84,0h.72a14.86,14.86,0,0,0,1.76-.15,17.73,17.73,0,0,0,4.08-1.19c.93-.37,1.47-.65,1.77-.78a10,10,0,0,0,2.58-1.75,12.32,12.32,0,0,0-2.94,1c-.29.11-.83.39-1.72.75a17.05,17.05,0,0,1-3.9,1.14,13.29,13.29,0,0,1-2.32.14,7.29,7.29,0,0,1-.8-.06,14.69,14.69,0,0,1-1.89-.29,26.82,26.82,0,0,1-4.09-1.35c-.68-.27-1-.44-1.19-.52A14,14,0,0,0,68.33,128.63Z"/><ellipse class="cls-13" cx="49.02" cy="104.75" rx="23.9" ry="22.54"/><ellipse class="cls-13" cx="110.72" cy="104.75" rx="23.9" ry="22.54"/><ellipse class="cls-14" cx="57.81" cy="109.42" rx="4.12" ry="8.24"/><circle class="cls-12" cx="55.73" cy="106.27" r="2.8"/><ellipse class="cls-14" cx="100.91" cy="109.42" rx="4.12" ry="8.24"/><circle class="cls-12" cx="98.83" cy="106.27" r="2.8"/><path class="cls-12" d="M78.82,54.44a14,14,0,0,1,7.49,25.29A14,14,0,0,1,64.83,64.41a14.33,14.33,0,0,1,12.77-10"/><path d="M78.82,54.44a13.65,13.65,0,0,1,5.25,1.17,15.68,15.68,0,0,1,4.49,3.08,14.53,14.53,0,0,1,3,4.57,14.17,14.17,0,0,1,1,5.43,14.92,14.92,0,0,1-4.24,10,13.85,13.85,0,0,1-4.66,3.07,15.5,15.5,0,0,1-5.47,1,15.81,15.81,0,0,1-5.48-1,13.94,13.94,0,0,1-4.65-3.08,14.87,14.87,0,0,1-4.24-10,14.13,14.13,0,0,1,1-5.43,14.73,14.73,0,0,1,3-4.57,15.57,15.57,0,0,1,4.48-3.08,13.74,13.74,0,0,1,5.26-1.17C70.4,55,64.25,61.6,64.78,68.65a15.6,15.6,0,0,0,1.19,5A14.27,14.27,0,0,0,68.86,78a13,13,0,0,0,4.3,2.77,14.74,14.74,0,0,0,5,.91,14.5,14.5,0,0,0,5.05-.91A13,13,0,0,0,87.56,78a14.27,14.27,0,0,0,2.89-4.26,15.34,15.34,0,0,0,1.19-5C92.17,61.6,86,55,78.82,54.44Z"/><circle class="cls-15" cx="78.2" cy="67.98" r="10.46"/></symbol></defs><g id="WISDOMS"><use width="199.72" height="121.79" transform="translate(50.39 168.25) scale(0.99)" xlink:href="#Wisdom_Body_1_9"/><use width="168.36" height="137.67" transform="translate(65.4 132.69) scale(0.99)" xlink:href="#Wisdom_Body_MASTER_1_4"/><use width="158.05" height="140.56" transform="translate(69.95 4.83) scale(0.99)" xlink:href="#Wisdom_Head4_4"/></g></svg>