<svg xmlns="http://www.w3.org/2000/svg" xmlns:xlink="http://www.w3.org/1999/xlink" viewBox="0 0 300 300"><defs><style>.cls-1{fill:#ff9838;}.cls-2{fill:#202020;}.cls-3{fill:url(#radial-gradient);}.cls-4{fill:url(#radial-gradient-2);}.cls-5{fill:url(#New_Gradient_Swatch_1);}.cls-6{fill:none;stroke:#3c3c3c;}.cls-10,.cls-11,.cls-6{stroke-miterlimit:10;}.cls-7{fill:#ec7200;}.cls-8{fill:url(#New_Gradient_Swatch_17);}.cls-10,.cls-11,.cls-9{fill:#fff;}.cls-10,.cls-11{stroke:#000;}.cls-10{stroke-width:1.19px;}.cls-11{stroke-width:0.9px;}</style><radialGradient id="radial-gradient" cx="85.08" cy="69.98" fy="184.54765253172343" r="115.94" gradientUnits="userSpaceOnUse"><stop offset="0.06" stop-color="#6a999e"/><stop offset="0.08" stop-color="#6ea8ae"/><stop offset="0.11" stop-color="#77cdd6"/><stop offset="0.14" stop-color="#81f4ff"/><stop offset="0.19" stop-color="#9ff7ff"/><stop offset="0.24" stop-color="#bdf9ff"/><stop offset="0.31" stop-color="#d5fbff"/><stop offset="0.37" stop-color="#e8fdff"/><stop offset="0.45" stop-color="#f5feff"/><stop offset="0.56" stop-color="#fdffff"/><stop offset="0.76" stop-color="#fff"/></radialGradient><radialGradient id="radial-gradient-2" cx="5867.92" cy="16487.53" r="5.25" gradientTransform="matrix(-0.12, 0.99, -0.99, -0.12, 17030.12, -3860.12)" gradientUnits="userSpaceOnUse"><stop offset="0.28" stop-color="#fff"/><stop offset="0.41" stop-color="#fbfbfb"/><stop offset="0.54" stop-color="#efefef"/><stop offset="0.67" stop-color="#dadada"/><stop offset="0.8" stop-color="#bebebe"/><stop offset="0.93" stop-color="#9a9a9a"/><stop offset="0.95" stop-color="#949494"/></radialGradient><radialGradient id="New_Gradient_Swatch_1" cx="5881.19" cy="16487.87" r="5.25" gradientTransform="matrix(-0.12, 0.99, -0.99, -0.12, 17030.12, -3860.12)" gradientUnits="userSpaceOnUse"><stop offset="0.07" stop-color="#919191"/><stop offset="0.21" stop-color="#828283"/><stop offset="0.47" stop-color="#5c5c60"/><stop offset="0.83" stop-color="#1f1f27"/><stop offset="1" stop-color="#00000a"/></radialGradient><radialGradient id="New_Gradient_Swatch_17" cx="96.45" cy="56.38" r="53.49" gradientUnits="userSpaceOnUse"><stop offset="0.17" stop-color="#ffb800"/><stop offset="0.32" stop-color="#fba900"/><stop offset="0.62" stop-color="#f18300"/><stop offset="0.73" stop-color="#ec7200"/></radialGradient><symbol id="Wisdom_Body_1_8" data-name="Wisdom_Body_1 8" viewBox="0 0 199.72 121.79"><path class="cls-1" d="M26.32,14.6A36.11,36.11,0,0,1,9.43,20.29c-1.63.09-3.57-.14-4.37-1.7a4,4,0,0,1,.56-3.95,15.59,15.59,0,0,1,3-2.72A2.28,2.28,0,0,0,9.64,10,1.87,1.87,0,0,0,8.59,8.74,13.29,13.29,0,0,0,4.76,7.68,5.53,5.53,0,0,1,1.27,5.8C.44,4.67.41,2.74,1.53,2a3.48,3.48,0,0,1,1.8-.47L19.75.37"/><path class="cls-2" d="M26.32,14.6a48.2,48.2,0,0,0-4.54,1.79c-.25.11-.62.28-1.08.47-.24.1-.49.21-.77.31-.58.23-1.34.51-2.07.75A37.9,37.9,0,0,1,13,19.17c-.86.17-1.75.28-2.63.38a10.47,10.47,0,0,1-2.56,0,2.86,2.86,0,0,1-1.9-.94,2.34,2.34,0,0,1-.43-1.88,5.34,5.34,0,0,1,2.13-3.18l1.35-1.08a4.77,4.77,0,0,0,1-1.13,2.24,2.24,0,0,0,.35-1.12,1.89,1.89,0,0,0,0-.44,2.23,2.23,0,0,0-.87-1.31A7.44,7.44,0,0,0,6.3,7.3,9.16,9.16,0,0,1,2.44,6,2.58,2.58,0,0,1,1.38,4.36a1.91,1.91,0,0,1,.48-1.81c.4-.38,1.31-.37,2.24-.44l2.71-.18,5.1-.35,3-.21a18,18,0,0,0,4.84-1A18.19,18.19,0,0,0,14.82.05l-3,.2L6.72.59,4,.78c-.46,0-.89,0-1.41.11A3.11,3.11,0,0,0,1,1.51,2.72,2.72,0,0,0,.11,3a3.89,3.89,0,0,0,0,1.59A4,4,0,0,0,1.63,7.1,10.12,10.12,0,0,0,6,8.6a6.3,6.3,0,0,1,2.55.93c.42.35.37.53.39.53s.11.17-.15.61a3.11,3.11,0,0,1-.75.8L6.73,12.55a9.32,9.32,0,0,0-1.55,1.58,5.49,5.49,0,0,0-1,2.42,3.7,3.7,0,0,0,.71,2.92,4.23,4.23,0,0,0,2.74,1.42,12,12,0,0,0,2.88,0c.93-.1,1.86-.22,2.75-.39a42.07,42.07,0,0,0,5.07-1.3c.75-.25,1.54-.54,2.14-.78.29-.1.55-.22.79-.32.49-.2.87-.38,1.12-.49A11.13,11.13,0,0,0,26.32,14.6Z"/><path class="cls-1" d="M173.4,14.6a36.14,36.14,0,0,0,16.89,5.69c1.63.09,3.58-.14,4.38-1.7a4,4,0,0,0-.57-3.95,15.53,15.53,0,0,0-2.95-2.72A2.24,2.24,0,0,1,190.09,10a1.86,1.86,0,0,1,1-1.23A13.27,13.27,0,0,1,195,7.68a5.5,5.5,0,0,0,3.48-1.88c.84-1.13.86-3.06-.25-3.84a3.53,3.53,0,0,0-1.8-.47L180,.37"/><path class="cls-2" d="M173.4,14.6a11.31,11.31,0,0,0,4,3l1.12.49c.24.1.5.22.79.32.6.24,1.39.53,2.14.78a42.07,42.07,0,0,0,5.07,1.3c.9.17,1.82.29,2.75.39a12,12,0,0,0,2.88,0,4.28,4.28,0,0,0,2.75-1.42,3.73,3.73,0,0,0,.7-2.92,5.48,5.48,0,0,0-1-2.42A9.75,9.75,0,0,0,193,12.55l-1.35-1.08a3.3,3.3,0,0,1-.75-.8.79.79,0,0,1-.15-.61s0-.18.39-.53a6.37,6.37,0,0,1,2.55-.93,10.08,10.08,0,0,0,4.41-1.5,4,4,0,0,0,1.57-2.51,4.07,4.07,0,0,0,0-1.59,2.8,2.8,0,0,0-.92-1.49,3.11,3.11,0,0,0-1.58-.62c-.51-.06-1-.08-1.41-.11L193,.59,187.9.25l-3-.2A18.14,18.14,0,0,0,180,.37a17.8,17.8,0,0,0,4.83,1l3,.21,5.1.35,2.71.18c.93.07,1.84.06,2.25.44a1.94,1.94,0,0,1,.48,1.81A2.62,2.62,0,0,1,197.29,6a9.25,9.25,0,0,1-3.86,1.26,7.43,7.43,0,0,0-3.12,1.19,2.12,2.12,0,0,0-.86,1.31,1.38,1.38,0,0,0,0,.44,2.24,2.24,0,0,0,.35,1.12,4.38,4.38,0,0,0,1,1.13l1.34,1.08a5.34,5.34,0,0,1,2.13,3.18,2.37,2.37,0,0,1-.42,1.88,2.91,2.91,0,0,1-1.91.94,10.39,10.39,0,0,1-2.55,0c-.89-.1-1.77-.21-2.64-.38a38.32,38.32,0,0,1-4.89-1.25c-.73-.24-1.49-.52-2.07-.75-.28-.1-.53-.21-.76-.31-.47-.19-.84-.36-1.09-.47A48.2,48.2,0,0,0,173.4,14.6Z"/><path class="cls-1" d="M79.94,96.77c-2.74,5.63-5.68,13.78-6.51,20-.22,1.6-.1,3.66,1.37,4.22s2.86-.9,3.62-2.28,1.62-3,3.15-3.25a3.66,3.66,0,0,1,3.13,1.78,15.46,15.46,0,0,0,2.31,3c1,.79,2.58,1,3.38,0a3.53,3.53,0,0,0,.54-2.16,68.64,68.64,0,0,0-2.78-21"/><path class="cls-2" d="M79.94,96.77A14.83,14.83,0,0,0,77.33,101c-.1.26-.26.64-.45,1.12-.09.24-.2.51-.31.79-.24.64-.55,1.49-.84,2.29a62.59,62.59,0,0,0-2.92,11.21,7.88,7.88,0,0,0,0,3.13,3.25,3.25,0,0,0,.82,1.52,2.56,2.56,0,0,0,1.64.74,2.94,2.94,0,0,0,1.6-.44,5,5,0,0,0,1.09-.92,9,9,0,0,0,1.32-2,4.73,4.73,0,0,1,1.84-2.17,1.56,1.56,0,0,1,.62-.16H82a1,1,0,0,1,.23,0,2.53,2.53,0,0,1,.65.28,6.41,6.41,0,0,1,2,2.23,9.85,9.85,0,0,0,1.49,1.88,3.68,3.68,0,0,0,2.81,1,2.48,2.48,0,0,0,1.63-.76,3,3,0,0,0,.72-1.61,10.13,10.13,0,0,0,.09-1.52c0-.49,0-1,0-1.47a70.79,70.79,0,0,0-1-11.49c-.24-1.33-.46-2.43-.59-3a14.4,14.4,0,0,0-1.86-4.6,25,25,0,0,0,.56,4.88c.12.54.34,1.61.57,2.92a67.12,67.12,0,0,1,1,11.26v1.45a9.05,9.05,0,0,1-.08,1.33c-.12.81-.51,1.19-1.15,1.25-1.4.12-2.35-1.17-3.07-2.31a12.24,12.24,0,0,0-1.15-1.59,5.46,5.46,0,0,0-1.24-1,3.66,3.66,0,0,0-1-.43,1.9,1.9,0,0,0-.4-.06,3.24,3.24,0,0,0-.41,0,3,3,0,0,0-1.14.28,6.11,6.11,0,0,0-2.43,2.73A8.42,8.42,0,0,1,77,119.54a2.34,2.34,0,0,1-1.64.91,1.41,1.41,0,0,1-1.24-1.26,6.47,6.47,0,0,1,0-2.6,61,61,0,0,1,2.86-11c.28-.79.59-1.62.83-2.25l.3-.78.44-1.11A23,23,0,0,0,79.94,96.77Z"/><path class="cls-1" d="M121.11,96.4c2.74,5.63,4.94,14.15,5.77,20.38.21,1.6.1,3.66-1.37,4.22s-2.87-.9-3.63-2.28-1.61-3-3.15-3.25a3.63,3.63,0,0,0-3.12,1.78,15.9,15.9,0,0,1-2.32,3c-1,.79-2.58,1-3.37,0a3.4,3.4,0,0,1-.54-2.16,68.63,68.63,0,0,1,2.77-21"/><path class="cls-2" d="M121.11,96.4a29.06,29.06,0,0,0,1.25,4.74c.09.26.23.65.39,1.13.08.24.17.51.27.79.21.64.47,1.49.71,2.3a82,82,0,0,1,2.43,11.13,7.28,7.28,0,0,1,0,2.63c-.18.79-.63,1.27-1.21,1.33a2.2,2.2,0,0,1-1.65-.86,7.6,7.6,0,0,1-1.15-1.72,6.25,6.25,0,0,0-2.39-2.76,2.78,2.78,0,0,0-1.55-.31,2,2,0,0,0-.4.06,3.2,3.2,0,0,0-1,.41,5.19,5.19,0,0,0-1.26,1,11.57,11.57,0,0,0-1.17,1.6c-.73,1.14-1.66,2.45-3.07,2.35-.65,0-1.05-.42-1.18-1.22a24.63,24.63,0,0,1-.08-2.78A69.56,69.56,0,0,1,111,105c.23-1.31.45-2.38.57-2.92a23.51,23.51,0,0,0,.56-4.88,14.4,14.4,0,0,0-1.86,4.6c-.12.54-.35,1.64-.59,3a71.17,71.17,0,0,0-1,11.52c0,.49,0,1,0,1.47a10.33,10.33,0,0,0,.1,1.53,2.85,2.85,0,0,0,.75,1.61,2.49,2.49,0,0,0,1.64.72,3.72,3.72,0,0,0,2.8-1.06,10.46,10.46,0,0,0,1.48-1.89,6.18,6.18,0,0,1,2-2.22,2.2,2.2,0,0,1,.65-.26,1.31,1.31,0,0,1,.23,0,1.56,1.56,0,0,1,.85.18,5.08,5.08,0,0,1,1.83,2.21,8.91,8.91,0,0,0,1.34,2,4.86,4.86,0,0,0,1.12.9,2.74,2.74,0,0,0,1.63.37,2.48,2.48,0,0,0,1.61-.81,3.43,3.43,0,0,0,.76-1.54,8.19,8.19,0,0,0,0-3.12A83,83,0,0,0,125,105c-.24-.81-.51-1.68-.73-2.33l-.26-.81c-.18-.49-.32-.88-.41-1.15A13.09,13.09,0,0,0,121.11,96.4Z"/></symbol><symbol id="Wisdom_Body_MASTER_1_3" data-name="Wisdom_Body_MASTER_1 3" viewBox="0 0 168.36 135.63"><path class="cls-3" d="M67.62,135l2.69-1.28a6.47,6.47,0,0,0,2-7.39l0-.16a20,20,0,0,0,7.05-9.27c1.59-4,2.43-11.21,3.1-16.12,1,.15,3,.53,4,.59.49,4.82,1.25,11.38,2.88,15.53a20,20,0,0,0,7.2,9.36v0l-.06.26-.08-.08A6.79,6.79,0,0,0,101,135l2,.31c4-1.09,6.3-4.16,5.42-7.23h-.07l0-.17c4-.51,7.61-3.31,9.89-6.79,2.57-3.91,3.73-8.59,4.67-13.2a181.35,181.35,0,0,0,3.53-41.13L136.22,72a142.44,142.44,0,0,1,16,14.09,30,30,0,0,0,3.71,3c0-13.24,6.07-44.94,11-54.87-17.65-2.48-30.19-9.3-30.17-9.71-3-1.86-13.67-6.55-16.55-13.32-.51-.73-4.5-9.57-5-10.29l-.39-.06C98.7,15.9,71.92,14.64,53.22,1.35l-1.35-.29c-.27,1.26-3,8.93-3.38,9.73l0,0-3.8,4.87c-4.63,4.62-11.75,10-29.4,15.48l-13.78,3C2.91,38.33,6.94,46,7,51.84c0,.59,4.14,22.33,6.07,36.67a77.07,77.07,0,0,1,22-17.9l7.32-3.52A174,174,0,0,0,45.82,108c.94,4.61,2.1,9.29,4.66,13.2,2.27,3.46,5.85,6.22,9.83,6.76,0,.06,0,.12,0,.19s0,.12,0,.18c-.76,3,2.42,5.8,4.83,6.91Z"/><path class="cls-2" d="M115.36.65a21,21,0,0,0,1.53,4.69c.11.25.29.62.5,1.09l.36.76c.42.88.86,1.8,1.3,2.74l.35.7,0,.07h0l-.35.22-.73.46a64,64,0,0,1-28.3,9.8c-1.29.08-2.56.2-3.83.23H82.46l-3.67-.26c-1.2-.09-2.43-.23-3.59-.32A47.66,47.66,0,0,1,63,18.15a44.4,44.4,0,0,1-7.84-3.66c-1.78-1.06-2.72-1.75-2.72-1.75s-.13-.07-1-.71c-.42-.31-1-.77-1.85-1.46-.3-.26-.21-.18-.23-.19h0l0-.12c.07-.16.13-.33.19-.5l.86-2.33c.2-.58.72-2,1.44-4.17.18-.54.37-1.12.56-1.75h5.86l25-.08,27.09-.08a18,18,0,0,0,4.89-.68,17.72,17.72,0,0,0-4.9-.65L83.38.08l-25,.07-4.79,0H51.48a9.29,9.29,0,0,0-.27.94c-.18.61-.37,1.18-.55,1.71C50,5,49.43,6.4,49.23,7l-.85,2.32-.18.48c-.05.12-.09.23-.14.34s-.12.3-.19.45-.08.15-.07.21l.18.15.34.3.43.36c.86.72,1.48,1.19,1.92,1.52.88.65,1,.72,1,.72s1,.72,2.8,1.81a46,46,0,0,0,8.07,3.77,48.59,48.59,0,0,0,12.53,2.75l3.58.32,3.75.27h3.85c1.3,0,2.61-.16,3.92-.24a65.39,65.39,0,0,0,28.89-10l.73-.46.36-.23.73-.44a1.42,1.42,0,0,0,.34-.22l-.21-.37-.38-.67-.39-.78L119,6.62l-.36-.76c-.22-.46-.39-.84-.51-1.08A15.77,15.77,0,0,0,115.36.65Z"/><path class="cls-2" d="M49.92,7.84A14,14,0,0,0,53.78,11l1.07.59.75.39c.64.33,1.5.75,2.31,1.13s1.72.78,2.63,1.15l2.87,1,2.94,1.05c1,.32,2,.61,3,.86A54.86,54.86,0,0,0,80.3,18.73c2.93.14,4.82.06,4.82.06s1.89,0,4.81-.29a64.06,64.06,0,0,0,10.84-2.07A60.49,60.49,0,0,0,112,11.94c1.22-.61,2.19-1.14,2.68-1.41a14.6,14.6,0,0,0,3.88-3.09,23.5,23.5,0,0,0-4.52,1.93c-.48.26-1.45.78-2.64,1.38a59.82,59.82,0,0,1-11,4.4,62.51,62.51,0,0,1-10.61,2c-2.85.29-4.7.3-4.7.3s-1.85.07-4.72-.07A53.81,53.81,0,0,1,69.7,15.85c-1-.25-2-.53-3-.84l-2.89-1-2.81-1c-.9-.36-1.76-.74-2.57-1.12s-1.64-.79-2.27-1.11l-.73-.38-1-.57A24.9,24.9,0,0,0,49.92,7.84Z"/><path class="cls-2" d="M48.72,11c-.69.56-1.24,1-1.77,1.54a19.08,19.08,0,0,0-1.83,1.75c-.18.2-.5.46-.86.8l-.61.56-.39.37a6,6,0,0,1-.54.46l-1.13.91c-.75.63-1.57,1.21-2.42,1.8A82.22,82.22,0,0,1,14.36,30.5c-2.25.62-4.51,1.12-6.72,1.53l-3.3.52L.38,33A2,2,0,0,0,0,33l.17.36.35.71.48,1,.62,1.4c.38.92.77,1.83,1.09,2.73.67,1.78,1.22,3.49,1.7,5.07,1,3.16,1.61,5.8,2,7.65s.66,2.89.66,2.89.21,1,.6,2.9.87,4.54,1.4,7.81,1.08,7.13,1.62,11.35c.25,2.11.51,4.31.77,6.57.11,1.12.23,2.27.35,3.42.08.85.17,1.69.25,2.54l.18,1.76L13.21,90l.94-1.23.47-.63.28-.34L16,86.41c.78-.88,1.55-1.78,2.37-2.62A60.77,60.77,0,0,1,23.51,79,67.8,67.8,0,0,1,29,74.87c.93-.62,1.84-1.23,2.76-1.79.47-.27.92-.55,1.37-.82l1.27-.71c1.16-.67,2.14-1.14,2.62-1.41a22.69,22.69,0,0,0,4.14-2.66A14.86,14.86,0,0,0,36.38,69c-.49.26-1.49.74-2.67,1.42l-1.29.72L31,72c-.94.56-1.88,1.18-2.82,1.81C26.33,75,24.48,76.45,22.66,78a62.05,62.05,0,0,0-5.24,4.91c-.84.86-1.62,1.77-2.42,2.67l-1.14,1.39-.28.35-.06.08-.13.17-.13.17h0s0,0,0-.07l-.09-.87c-.11-1.16-.23-2.31-.35-3.44-.26-2.26-.52-4.47-.77-6.58-.54-4.24-1.09-8.12-1.63-11.41s-1.05-6-1.41-7.85-.6-2.92-.6-2.92-.24-1-.66-2.92-1.1-4.52-2.06-7.73c-.48-1.59-1-3.33-1.73-5.15-.32-.91-.71-1.84-1.11-2.79l-.63-1.43L2,34.14H2l2.51-.26,3.35-.53c2.26-.43,4.55-.93,6.84-1.56A84,84,0,0,0,39.94,20.25c.87-.61,1.71-1.21,2.48-1.86.4-.31.78-.62,1.16-.93a6.44,6.44,0,0,0,.56-.48l.4-.38c.23-.2.44-.4.63-.58.38-.36.7-.63.89-.84a15.3,15.3,0,0,0,1.64-2.06A19.72,19.72,0,0,0,48.72,11Z"/><path class="cls-2" d="M44.26,45.1A17.05,17.05,0,0,0,43,49.88c0,.27-.08.69-.14,1.2,0,.25-.06.53-.1.84s0,.48-.08.73l-.09.84c0,.57-.1,1.15-.16,1.75C42,60,41.66,65.67,41.65,71.09s.23,10.58.52,14.38c.15,1.9.28,3.46.41,4.55l.17,1.7s.26,2.45.8,6.22,1.37,8.87,2.68,14.16a33,33,0,0,0,2.93,7.75,18.38,18.38,0,0,0,5.1,6A14.85,14.85,0,0,0,57,127.4a7.18,7.18,0,0,0,5,.41,28.55,28.55,0,0,1-4.47-1.62,13.41,13.41,0,0,1-2.46-1.46,15.79,15.79,0,0,1-2.56-2.4,18.07,18.07,0,0,1-2.16-3.13,32.26,32.26,0,0,1-2.81-7.43c-1.28-5.19-2.09-10.28-2.65-14s-.8-6.18-.8-6.18S44,91,43.9,89.89s-.26-2.63-.4-4.52c-.29-3.78-.54-8.9-.52-14.28s.31-11,.74-15.73c.06-.59.11-1.17.16-1.74,0-.28.06-.56.08-.83l.09-.73c0-.3.06-.58.09-.83.06-.51.11-.92.14-1.19A19.37,19.37,0,0,0,44.26,45.1Z"/><path class="cls-2" d="M69.3,127.59a8.25,8.25,0,0,0,4.65-1.9,16.92,16.92,0,0,0,1.58-1.46,20.88,20.88,0,0,0,3.2-4.39,24.59,24.59,0,0,0,1.46-3.12s.48-1.21.92-2.8a42.13,42.13,0,0,0,1.07-5c.25-1.56.36-2.52.42-3a16.19,16.19,0,0,0-.07-4.38l-.27,0,.28.49c0-.2,0-.39,0-.56l-.27,0a19.26,19.26,0,0,0-1,4.26c-.06.49-.18,1.45-.42,3a42.14,42.14,0,0,1-1,4.81,27.57,27.57,0,0,1-.88,2.69,22.92,22.92,0,0,1-1.38,3,20.35,20.35,0,0,1-3,4.11,17.19,17.19,0,0,1-1.46,1.36C71.58,125.88,70.74,126.59,69.3,127.59Z"/><path class="cls-2" d="M74.49,98.26a12.58,12.58,0,0,0,4.46,2.2c.34.08.89.25,2.06.49.84.17,2.28.43,3.51.55.62.08,1.18.12,1.59.14l.67,0s.86,0,2,.06,2.43-.06,3.37-.15c1.58-.15,2.55-.32,3.06-.4a12.41,12.41,0,0,0,4.64-1.8,32.59,32.59,0,0,0-4.87.5c-.49.06-1.42.23-2.94.37-.92.08-2.2.14-3.26.15l-1.88,0-.65,0c-.39,0-.94-.07-1.53-.14-1.19-.12-2.58-.37-3.39-.54-1.13-.23-1.66-.39-2-.46A32,32,0,0,0,74.49,98.26Z"/><path class="cls-2" d="M60.45,127.9a4.24,4.24,0,0,0,.57,5,8.58,8.58,0,0,0,1.66,1.52,11.19,11.19,0,0,0,1.15.69l.35.17a1.22,1.22,0,0,0,.27.09l.2,0c.27.05.53.12.79.16a7.94,7.94,0,0,0,1.34,0l.56,0,.46-.09.51-.11.61-.22a7.15,7.15,0,0,0,4.15-4.3,5.18,5.18,0,0,0-.54-4.61l-.19,0a2.12,2.12,0,0,1-.11.21s0,.07,0,.11,0,.13,0,.1.06-.1.09-.14l.18-.12-.19,0a9.86,9.86,0,0,1-.49,4.11,5.63,5.63,0,0,1-1.46,2.25,5.49,5.49,0,0,1-1.92,1.24l-.49.18-.41.09-.38.07-.46,0a5.86,5.86,0,0,1-1.08,0l-.64-.14-.17,0-.07,0-.31-.14a9.46,9.46,0,0,1-1-.6A7.76,7.76,0,0,1,62,132a7.51,7.51,0,0,1-1.19-1.95A5,5,0,0,1,60.45,127.9Z"/><path class="cls-2" d="M82.65,22.24A18.07,18.07,0,0,0,82,27.13c0,4.62,0,27.76,0,27.76s0,22.1,0,26.52a17.62,17.62,0,0,0,.67,4.89,17.72,17.72,0,0,0,.65-4.9c0-4.41,0-26.52,0-26.52s0-23.13,0-27.75A18,18,0,0,0,82.65,22.24Z"/><path class="cls-2" d="M87.41,22.24a18,18,0,0,0-.66,4.89V81.41a18.07,18.07,0,0,0,.66,4.89,18.07,18.07,0,0,0,.66-4.89V27.13A18,18,0,0,0,87.41,22.24Z"/><path class="cls-2" d="M124.68,45.1a18.94,18.94,0,0,0,0,4.94c0,.27.07.68.13,1.19,0,.25.06.53.1.83s0,.48.08.73,0,.55.08.83c0,.57.11,1.15.16,1.74.44,4.74.73,10.36.74,15.73s-.23,10.5-.51,14.28c-.15,1.89-.28,3.44-.4,4.52s-.18,1.68-.18,1.68-.25,2.43-.8,6.18-1.37,8.83-2.65,14a31.37,31.37,0,0,1-2.81,7.43,18,18,0,0,1-2.15,3.13,16.26,16.26,0,0,1-2.57,2.4,13.42,13.42,0,0,1-2.45,1.46,28.65,28.65,0,0,1-4.48,1.62,7.18,7.18,0,0,0,5-.41,14.84,14.84,0,0,0,2.71-1.59,18.47,18.47,0,0,0,5.09-6,33,33,0,0,0,2.93-7.75c1.31-5.29,2.12-10.38,2.68-14.16s.8-6.22.8-6.22.06-.61.18-1.7.25-2.65.4-4.55c.29-3.8.55-9,.52-14.38S127,60,126.55,55.24c0-.6-.11-1.18-.16-1.75,0-.28-.06-.56-.08-.84l-.09-.73c0-.31-.07-.59-.1-.84-.06-.51-.1-.93-.14-1.2A16.72,16.72,0,0,0,124.68,45.1Z"/><path class="cls-2" d="M99.65,127.59c-1.44-1-2.29-1.71-3.82-2.92a17.73,17.73,0,0,1-1.45-1.36,20.35,20.35,0,0,1-3-4.11,22.92,22.92,0,0,1-1.38-3,25.91,25.91,0,0,1-.89-2.69,44.4,44.4,0,0,1-1-4.81c-.24-1.52-.35-2.48-.42-3a18.72,18.72,0,0,0-1-4.26l-.27,0c0,.17,0,.36,0,.56l.29-.49-.27,0a15.42,15.42,0,0,0-.07,4.38c.06.51.17,1.47.41,3a44.25,44.25,0,0,0,1.07,5,28.64,28.64,0,0,0,.93,2.8,23.65,23.65,0,0,0,1.45,3.12,21.24,21.24,0,0,0,3.2,4.39A15.34,15.34,0,0,0,95,125.69,8.25,8.25,0,0,0,99.65,127.59Z"/><path class="cls-2" d="M108.5,127.9a5.36,5.36,0,0,1-.4,2.19,7.87,7.87,0,0,1-1.2,1.95,7.06,7.06,0,0,1-1.4,1.27,9.46,9.46,0,0,1-1,.6l-.3.14-.08,0-.16,0-.64.14a6,6,0,0,1-1.09,0l-.45,0a2.1,2.1,0,0,1-.38-.07l-.41-.09-.49-.18a5.44,5.44,0,0,1-1.93-1.24,5.63,5.63,0,0,1-1.46-2.25,10,10,0,0,1-.49-4.11l-.19,0,.18.12s.17.12.1.14.06-.07,0-.1a.54.54,0,0,0-.05-.11l-.11-.21-.19,0a5.21,5.21,0,0,0-.54,4.61,6.9,6.9,0,0,0,1.78,2.78,7,7,0,0,0,2.37,1.52l.61.22.51.11.47.09.56,0a8,8,0,0,0,1.34,0c.25,0,.52-.11.78-.16l.2,0a1.07,1.07,0,0,0,.27-.09l.35-.17a10.19,10.19,0,0,0,1.15-.69,8.26,8.26,0,0,0,1.66-1.52A4.22,4.22,0,0,0,108.5,127.9Z"/><path class="cls-2" d="M51.2,3.7A15.14,15.14,0,0,0,55,6.91L56,7.54l.73.42c.61.32,1.39.79,2.17,1.17,1.55.83,3.31,1.62,5.13,2.39a58.8,58.8,0,0,0,5.7,1.94,49,49,0,0,0,10.45,1.71c1.41.06,2.57.1,3.37.06l1.25,0s1.82,0,4.61-.33a67.4,67.4,0,0,0,10.38-2,53,53,0,0,0,10.85-4.19c1.21-.65,2.17-1.24,2.64-1.56s.8-.57,1.14-.83a12,12,0,0,0,.88-.86,10.83,10.83,0,0,0,1.42-1.93c-.78.43-1.36.83-2,1.18-.33.18-.65.39-1,.61s-.74.44-1.15.72-1.37.86-2.54,1.49a51.35,51.35,0,0,1-10.57,4.08,65.46,65.46,0,0,1-10.18,1.94c-2.73.29-4.5.32-4.5.32l-1.23,0c-.78,0-1.91,0-3.28-.07a48.12,48.12,0,0,1-10.17-1.67,53.94,53.94,0,0,1-5.54-1.89c-1.79-.75-3.5-1.53-5-2.34-.75-.37-1.53-.82-2.12-1.14l-.73-.42-1-.6A22.22,22.22,0,0,0,51.2,3.7Z"/><circle id="SVGID" class="cls-4" cx="56.45" cy="30.03" r="5.23"/><circle id="SVGID-2" data-name="SVGID" class="cls-5" cx="54.57" cy="43.11" r="5.23"/><path class="cls-2" d="M10.19,34a21.71,21.71,0,0,0,1,4.81c.11.33.31.85.65,2,.78,2.39,1.93,6.48,2.79,10s1.47,6.43,1.47,6.43.52,2.45,1.09,5.59,1.16,7,1.51,9.73c.2,1.54.29,2.49.34,3a22.75,22.75,0,0,0,1,4.81,15,15,0,0,0,.28-4.94c0-.51-.14-1.47-.34-3-.34-2.77-.94-6.64-1.52-9.8s-1.1-5.62-1.1-5.62-.6-2.94-1.47-6.48-2-7.66-2.82-10.08c-.35-1.12-.55-1.64-.66-2A15.29,15.29,0,0,0,10.19,34Z"/><path class="cls-2" d="M119.64,11a21.76,21.76,0,0,0,1,2.16,15.3,15.3,0,0,0,1.64,2.06c.19.21.51.48.89.84.19.18.4.38.63.58l.41.38a5.11,5.11,0,0,0,.55.48l1.16.93c.77.65,1.62,1.25,2.48,1.86a84,84,0,0,0,25.23,11.54c2.29.63,4.59,1.13,6.84,1.56l3.36.53,2.5.26h0l-.19.41c-.22.48-.43,1-.64,1.43-.39,1-.78,1.88-1.11,2.79-.69,1.82-1.24,3.56-1.73,5.15-1,3.21-1.62,5.87-2.05,7.73s-.66,2.92-.66,2.92-.22,1-.6,2.92-.89,4.57-1.41,7.85-1.1,7.17-1.64,11.41c-.25,2.11-.51,4.32-.77,6.58-.11,1.13-.23,2.28-.35,3.44l-.09.87c0,.1,0,.07,0,.07h0l-.13-.17-.13-.17-.07-.08-.28-.35-1.14-1.39c-.79-.9-1.58-1.81-2.42-2.67A63.5,63.5,0,0,0,145.71,78c-1.82-1.51-3.68-2.93-5.56-4.2-.94-.63-1.87-1.25-2.81-1.81l-1.4-.85-1.28-.72c-1.18-.68-2.19-1.16-2.68-1.42a14.8,14.8,0,0,0-4.73-1.48,22.6,22.6,0,0,0,4.13,2.66c.48.27,1.47.74,2.63,1.41l1.26.71,1.37.83c.92.55,1.84,1.16,2.76,1.78A64.43,64.43,0,0,1,144.85,79a59.27,59.27,0,0,1,5.12,4.8c.83.84,1.6,1.74,2.38,2.62l1.11,1.36.28.34.47.63.95,1.23.93,1.23.18-1.76c.09-.85.17-1.69.26-2.54.12-1.15.23-2.3.35-3.42.26-2.26.52-4.46.76-6.57.54-4.22,1.09-8.08,1.63-11.35s1-6,1.4-7.81.6-2.9.6-2.9.23-1,.65-2.89,1.08-4.49,2-7.65c.48-1.58,1-3.29,1.71-5.07.32-.9.7-1.81,1.08-2.73.21-.46.42-.93.62-1.4s.33-.67.49-1l.34-.71.17-.36A2,2,0,0,0,168,33l-4-.43L160.73,32c-2.22-.41-4.47-.91-6.73-1.53a82.34,82.34,0,0,1-24.81-11.35c-.84-.59-1.67-1.17-2.42-1.8l-1.13-.91a5.82,5.82,0,0,1-.53-.46l-.4-.37c-.21-.2-.42-.38-.6-.56-.37-.34-.68-.6-.87-.8a18,18,0,0,0-1.83-1.75C120.88,12,120.33,11.52,119.64,11Z"/><path class="cls-2" d="M158.17,34a15.81,15.81,0,0,0-2.3,4.39c-.1.33-.31.85-.65,2-.8,2.42-2,6.54-2.82,10.08s-1.47,6.48-1.47,6.48-.53,2.46-1.11,5.62-1.17,7-1.52,9.8c-.2,1.56-.29,2.52-.34,3a14.71,14.71,0,0,0,.29,4.94,22.76,22.76,0,0,0,1-4.81c.06-.5.15-1.45.35-3,.34-2.75.93-6.59,1.5-9.73s1.09-5.59,1.09-5.59.6-2.92,1.47-6.43,2-7.6,2.8-10c.34-1.11.54-1.63.64-2A21.16,21.16,0,0,0,158.17,34Z"/><path class="cls-6" d="M157.48,123.06"/></symbol><symbol id="Wisdom_Head6_3" data-name="Wisdom_Head6 3" viewBox="0 0 193.53 112.76"><path class="cls-7" d="M60.79,21.91c-6.72,3.83-15.09,4.2-22.46,1.9S24.51,16.72,19.36,11c-1.93-2.16-3.73-4.5-6.12-6.15S7.68,2.29,5,3.44c-3.95,1.71-5,7-4,11.14s3.61,7.79,5,11.85c1.77,5.16,1.6,10.76,2.63,16.12A33.14,33.14,0,0,0,21.41,63.07,27.66,27.66,0,0,0,44.9,67.42"/><path class="cls-2" d="M60.79,21.91c-1.7.45-2.8.71-4.68,1.34-.26.07-.64.22-1.12.34l-.8.2-.19.05a3.59,3.59,0,0,1-.35.08l-.73.15c-.48.11-1,.16-1.49.24a29.11,29.11,0,0,1-3.15.25,31.44,31.44,0,0,1-13.47-2.8,42.72,42.72,0,0,1-12.13-8.33c-1.78-1.69-3.35-3.52-4.95-5.35a19.68,19.68,0,0,0-5.49-4.65,9.15,9.15,0,0,0-6.72-.87A7.25,7.25,0,0,0,1,6.62a11.39,11.39,0,0,0-1,4.91A13.55,13.55,0,0,0,.55,15.3a21.26,21.26,0,0,0,.78,2.26c.2.51.32.77.32.77S2.1,19.4,3,21.2a35.2,35.2,0,0,1,3.06,7.65c.86,3.33,1,7.44,1.66,11.95A35.81,35.81,0,0,0,12.6,54.46a33.8,33.8,0,0,0,4.74,6,30,30,0,0,0,6.06,4.67A29,29,0,0,0,30.26,68a27.33,27.33,0,0,0,3.5.75c.58.1,1.17.13,1.74.2a8.11,8.11,0,0,0,.86,0l.72,0c.69,0,1.32,0,1.84,0L40.15,69a10.89,10.89,0,0,0,4.75-1.55c-1.76,0-2.88,0-4.86.22l-1.17.08c-.5,0-1.1,0-1.76,0l-.68,0c-.27,0-.55,0-.82,0-.54-.07-1.1-.1-1.65-.2a26.52,26.52,0,0,1-3.34-.71A27.77,27.77,0,0,1,24.07,64a29.17,29.17,0,0,1-5.78-4.46,32.28,32.28,0,0,1-4.55-5.77A34.43,34.43,0,0,1,9,40.6C8.41,36.21,8.24,32,7.35,28.53a37.05,37.05,0,0,0-3.16-7.91c-.89-1.8-1.32-2.82-1.32-2.82s-.12-.25-.31-.73a21.21,21.21,0,0,1-.74-2.13,12.14,12.14,0,0,1-.49-3.41,10.2,10.2,0,0,1,.89-4.34A6,6,0,0,1,5.9,3.83a7.85,7.85,0,0,1,5.73.79C15.46,6.57,18,11,21.76,14.4A44,44,0,0,0,34.27,23a32.8,32.8,0,0,0,14,2.92c1.13,0,2.23-.12,3.3-.26.53-.09,1-.14,1.56-.26l.77-.16a2.45,2.45,0,0,0,.37-.08l.2-.05.83-.22c.51-.12.91-.28,1.18-.36A10.61,10.61,0,0,0,60.79,21.91Z"/><path class="cls-2" d="M52.52,38.11c-1.65.62-2.68,1-4.51,1.76-.31.13-.82.31-1.9.65a20.68,20.68,0,0,1-5.12.8,21.1,21.1,0,0,1-6-.66,20.61,20.61,0,0,1-4.68-1.9c-.55-.34-1-.6-1.31-.81l-.45-.33-.39-.29a10.55,10.55,0,0,1-1-.83A30.42,30.42,0,0,1,24,33.3c-2.27-2.7-4.82-6.32-7.2-8.48a19.6,19.6,0,0,0-2.41-2,8.22,8.22,0,0,0-4.75-1.61c1.5.91,2.37,1.57,4,2.69a20.33,20.33,0,0,1,2.25,1.87c2.26,2,4.77,5.58,7.11,8.37a31.09,31.09,0,0,0,3.21,3.34,13.32,13.32,0,0,0,1.08.88l.41.31.49.36c.32.22.82.5,1.41.87a21.92,21.92,0,0,0,5,2,22.72,22.72,0,0,0,11.88-.14c1.14-.37,1.69-.57,2-.71A9.78,9.78,0,0,0,52.52,38.11Z"/><path class="cls-7" d="M132.74,21.91c6.72,3.83,15.08,4.2,22.46,1.9S169,16.72,174.16,11c1.94-2.16,3.74-4.5,6.13-6.15s5.56-2.51,8.22-1.36c3.94,1.71,5,7,4,11.14s-3.61,7.79-5,11.85c-1.77,5.16-1.6,10.76-2.63,16.12a33.14,33.14,0,0,1-12.73,20.52,27.66,27.66,0,0,1-23.49,4.35"/><path class="cls-2" d="M132.74,21.91a10.61,10.61,0,0,0,4.27,2.6c.27.08.67.24,1.18.36l.83.22.2.05a2.45,2.45,0,0,0,.37.08l.77.16c.51.12,1,.17,1.56.26,1.07.14,2.17.22,3.3.26a32.8,32.8,0,0,0,14-2.92,44,44,0,0,0,12.51-8.58c3.72-3.41,6.3-7.83,10.13-9.78a7.85,7.85,0,0,1,5.73-.79,6,6,0,0,1,3.68,3.36,10.2,10.2,0,0,1,.89,4.34,12.14,12.14,0,0,1-.49,3.41,21.21,21.21,0,0,1-.74,2.13c-.19.48-.31.73-.31.73s-.43,1-1.32,2.82a37.05,37.05,0,0,0-3.16,7.91c-.89,3.49-1.06,7.68-1.68,12.07a34.43,34.43,0,0,1-4.71,13.16,32.74,32.74,0,0,1-4.55,5.77A29.17,29.17,0,0,1,169.46,64a27.77,27.77,0,0,1-6.55,2.74,26.52,26.52,0,0,1-3.34.71c-.55.1-1.11.13-1.65.2-.28,0-.55,0-.82,0l-.69,0c-.65,0-1.25,0-1.75,0l-1.17-.08c-2-.18-3.1-.19-4.86-.22A10.89,10.89,0,0,0,153.38,69l1.23.08c.52,0,1.15,0,1.84,0l.72,0a8.27,8.27,0,0,0,.86,0c.57-.07,1.16-.1,1.74-.2a27.7,27.7,0,0,0,3.5-.75,28.75,28.75,0,0,0,6.85-2.88,29.7,29.7,0,0,0,6.06-4.67,33.41,33.41,0,0,0,4.75-6,35.62,35.62,0,0,0,4.88-13.66c.64-4.51.81-8.62,1.66-11.95a35.71,35.71,0,0,1,3.06-7.65c.9-1.8,1.35-2.87,1.35-2.87s.12-.26.32-.77A21.26,21.26,0,0,0,193,15.3a13.55,13.55,0,0,0,.55-3.77,11.69,11.69,0,0,0-1-4.91A7.28,7.28,0,0,0,188,2.56a9.15,9.15,0,0,0-6.72.87,19.54,19.54,0,0,0-5.49,4.65c-1.6,1.83-3.17,3.66-5,5.35a42.72,42.72,0,0,1-12.13,8.33,31.44,31.44,0,0,1-13.47,2.8,29.11,29.11,0,0,1-3.15-.25c-.5-.08-1-.13-1.49-.24l-.73-.15c-.12,0-.24,0-.36-.08l-.19-.05-.79-.2c-.48-.12-.86-.27-1.12-.34C135.54,22.62,134.44,22.36,132.74,21.91Z"/><path class="cls-2" d="M141,38.11a9.78,9.78,0,0,0,4,3c.33.14.88.34,2,.71a22.72,22.72,0,0,0,11.88.14,22.12,22.12,0,0,0,5-2c.59-.37,1.09-.65,1.4-.87l.49-.36.42-.31a13.32,13.32,0,0,0,1.08-.88,32.1,32.1,0,0,0,3.21-3.34c2.34-2.79,4.85-6.33,7.11-8.37a20.33,20.33,0,0,1,2.25-1.87c1.61-1.12,2.49-1.78,4-2.69a8.22,8.22,0,0,0-4.75,1.61,19.6,19.6,0,0,0-2.41,2c-2.38,2.16-4.93,5.78-7.2,8.48a30.42,30.42,0,0,1-3.08,3.2,10.44,10.44,0,0,1-1,.83l-.38.29-.45.33c-.3.21-.76.47-1.31.81a20.61,20.61,0,0,1-4.68,1.9,21.1,21.1,0,0,1-6,.66,20.85,20.85,0,0,1-5.13-.8c-1.07-.34-1.58-.52-1.89-.65C143.69,39.13,142.66,38.73,141,38.11Z"/><path class="cls-8" d="M100.59,105.12a32.58,32.58,0,0,1-8.52,5.58c-2.52,1.14-5.34,2-8,.92a5,5,0,0,1-2.94-2.92c-1-2.86,1.31-5,2.72-7.22,1.8-2.91,1.07-4.4,1.07-4.4-.72-2.69-3.28-4.56-6-5.34s-5.52-.68-8.31-.76c-8.48-.24-17.76-2.79-22.31-10C44.45,75,45,67.18,46.15,60.1,48.52,46.08,53.23,32.19,62,21S83.78,1.45,98,.66l.38,0c13.27.78,25.53,9,33.68,20.14s12.56,24.92,14.78,38.82c1.12,7,1.58,14.75-2,20.76-4.26,7.1-12.93,9.63-20.86,9.87-2.61.08-5.27,0-7.77.75a10.08,10.08,0,0,0-1.48.61,6.68,6.68,0,0,0-3.49,8.24,4.17,4.17,0,0,0,.4.82c1.22,1.87,2.88,3.75,2.75,6a5.07,5.07,0,0,1-4.25,4.4c-6.62,1.16-12.67-1.44-14-2.87"/><path class="cls-2" d="M100.59,105.12a38.85,38.85,0,0,0-4.22,2.45c-.23.15-.57.37-1,.63l-.71.42-1.17.65c-.54.28-1.09.55-1.65.8a16,16,0,0,1-3.47,1.18,7.43,7.43,0,0,1-3.57-.08,4.61,4.61,0,0,1-2.77-2,3.67,3.67,0,0,1-.15-3.37,21.89,21.89,0,0,1,2.18-3.43A8.37,8.37,0,0,0,85.7,98a6.73,6.73,0,0,0-2-4.3,10.38,10.38,0,0,0-4-2.45,17.5,17.5,0,0,0-4.55-.82c-1.53-.11-3-.1-4.54-.14s-3-.17-4.47-.36a32.61,32.61,0,0,1-8.68-2.33,20.55,20.55,0,0,1-3.92-2.18,16.26,16.26,0,0,1-3.3-3,17.09,17.09,0,0,1-3.75-8,31.6,31.6,0,0,1-.33-9,86.49,86.49,0,0,1,1.39-9c.59-2.94,1.27-5.84,2.09-8.67a86.92,86.92,0,0,1,6.21-15.89,65.41,65.41,0,0,1,8.74-13,55.27,55.27,0,0,1,10.3-9.23A49.31,49.31,0,0,1,85,4.2a44,44,0,0,1,8.49-2.36l1.71-.26c.53-.07,1-.1,1.51-.15L98,1.33l1.08.09,1.47.14a2.5,2.5,0,0,1,.5.07L103,2c.64.12,1.41.32,2.33.53s2,.54,3.09,1a46.76,46.76,0,0,1,17.09,10.88c6.18,5.9,11.7,14.62,15.47,24.95a104.72,104.72,0,0,1,4.49,16.5c.54,2.89,1.06,5.83,1.32,8.8a34.3,34.3,0,0,1-.21,8.94,17.79,17.79,0,0,1-3.42,8.13A16.21,16.21,0,0,1,140,84.75,18.71,18.71,0,0,1,136.08,87a29.17,29.17,0,0,1-8.72,2.33,42.89,42.89,0,0,1-4.54.29,38.79,38.79,0,0,0-4.66.27,11.83,11.83,0,0,0-4.54,1.57,7.54,7.54,0,0,0-3.05,3.79,7,7,0,0,0,0,4.83,9,9,0,0,0,.58,1.12l.63.93c.41.6.82,1.19,1.15,1.79a4.46,4.46,0,0,1,.58,3.64,4.52,4.52,0,0,1-2.52,2.59,4.7,4.7,0,0,1-.88.27c-.3.07-.66.1-1,.15a17,17,0,0,1-2,.15,19,19,0,0,1-2-.06c-.33,0-.66-.05-1-.1l-.64-.09a21.07,21.07,0,0,1-2.83-.66l-2.38-.74a9.9,9.9,0,0,1-2.14-.83A5.8,5.8,0,0,0,97.82,110a9.68,9.68,0,0,0,2.41,1.13,22.6,22.6,0,0,0,3,.7l.68.11c.35,0,.7.07,1.06.1a18.81,18.81,0,0,0,2.13.06,17.42,17.42,0,0,0,2.16-.15c.36-.06.7-.09,1.09-.17a6.53,6.53,0,0,0,1.14-.35,5.39,5.39,0,0,0,2.58-8.1c-.38-.68-.8-1.3-1.22-1.91l-.62-.9c-.2-.31-.28-.57-.44-.85a5.74,5.74,0,0,1,0-3.92,6.27,6.27,0,0,1,2.52-3.12,10.37,10.37,0,0,1,4-1.36,34.76,34.76,0,0,1,4.5-.27,43.17,43.17,0,0,0,4.66-.29,31.12,31.12,0,0,0,9.13-2.44,20.37,20.37,0,0,0,4.12-2.43,17.61,17.61,0,0,0,3.43-3.36,19.18,19.18,0,0,0,3.68-8.72,36.14,36.14,0,0,0,.22-9.28c-.27-3.06-.79-6-1.34-8.94A106.3,106.3,0,0,0,142.2,38.8c-3.82-10.49-9.45-19.39-15.79-25.44A48.06,48.06,0,0,0,108.83,2.18c-1.18-.43-2.26-.72-3.2-1s-1.75-.42-2.41-.55l-2-.33a4.05,4.05,0,0,0-.52-.07L99.17.1,98.05,0a3.25,3.25,0,0,0-.39,0l-.33,0-.7.06c-.48.05-1,.08-1.56.15L93.31.53A45.44,45.44,0,0,0,84.56,3,50.53,50.53,0,0,0,74.1,8.56,56.27,56.27,0,0,0,63.54,18a66.71,66.71,0,0,0-8.91,13.27,87.5,87.5,0,0,0-6.31,16.14c-.83,2.86-1.52,5.79-2.12,8.77a84.54,84.54,0,0,0-1.41,9.1,33.38,33.38,0,0,0,.35,9.4,18.47,18.47,0,0,0,4,8.61,17.86,17.86,0,0,0,3.55,3.23,22.23,22.23,0,0,0,4.15,2.32,33.91,33.91,0,0,0,9,2.42c1.54.2,3.07.32,4.61.37s3,0,4.49.14a16.23,16.23,0,0,1,4.21.76,9,9,0,0,1,3.47,2.12,6.18,6.18,0,0,1,1.16,1.59,6.08,6.08,0,0,1,.35.89l.09.27s0,.11,0,.18a2.77,2.77,0,0,1,0,.42A7.19,7.19,0,0,1,83,101.58a22.71,22.71,0,0,0-2.3,3.67,5.11,5.11,0,0,0-.44,2.3,5.17,5.17,0,0,0,.67,2.25,5.92,5.92,0,0,0,3.54,2.65,8.72,8.72,0,0,0,4.21.11,17.33,17.33,0,0,0,3.76-1.27q.87-.41,1.71-.84l.83-.45.4-.22.74-.44c.44-.28.8-.51,1-.67A11.63,11.63,0,0,0,100.59,105.12Z"/><ellipse class="cls-9" cx="89.92" cy="36.59" rx="3.79" ry="3.65"/><ellipse class="cls-9" cx="67.95" cy="65.72" rx="3.79" ry="3.65"/><ellipse class="cls-9" cx="111.42" cy="65.72" rx="3.79" ry="3.65"/><path class="cls-2" d="M86,58.14c.39,1.71.59,2.81,1,4.72a16.47,16.47,0,0,1,.28,2,18.34,18.34,0,0,1,0,1.87,8.21,8.21,0,0,1-.06.84c0,.22,0,.35,0,.35a8.14,8.14,0,0,1-.15,1c-.09.57-.27,1.25-.4,1.74a19.63,19.63,0,0,1-1,2.73c-.86,1.76-1.29,2.81-2,4.41a9.78,9.78,0,0,0,3.22-3.85A19.66,19.66,0,0,0,88,71a15.17,15.17,0,0,0,.43-1.87,8.32,8.32,0,0,0,.16-1.1l0-.38c0-.23.05-.55.06-.9a18.65,18.65,0,0,0,0-2,14.62,14.62,0,0,0-.32-2.14A9,9,0,0,0,86,58.14Z"/><path class="cls-2" d="M105.55,58.14a11.09,11.09,0,0,0-2.22,4.48,18.92,18.92,0,0,0-.38,2.11,15.07,15.07,0,0,0-.13,1.83c0,.32,0,.61,0,.82a2.55,2.55,0,0,0,0,.35l.09,1a15.47,15.47,0,0,0,.33,1.72,15.27,15.27,0,0,0,1.09,3,9.51,9.51,0,0,0,3.32,3.75c-.76-1.58-1.24-2.6-2.13-4.34a14.08,14.08,0,0,1-1-2.71,13,13,0,0,1-.31-1.56l-.09-.92s0-.12,0-.32,0-.46,0-.75c0-.59.06-1.28.12-1.69a19.86,19.86,0,0,1,.35-2C105.08,61,105.28,59.88,105.55,58.14Z"/><circle class="cls-10" cx="74.17" cy="65.19" r="13.68"/><circle cx="74.17" cy="65.19" r="6.66"/><circle class="cls-9" cx="69.93" cy="61.08" r="3.07"/><circle class="cls-10" cx="117.42" cy="65.19" r="13.68"/><circle cx="117.42" cy="65.19" r="6.66"/><circle class="cls-9" cx="113.17" cy="61.08" r="3.07"/><circle class="cls-11" cx="95.46" cy="37.48" r="10.4"/><circle cx="95.46" cy="37.48" r="5.06"/><circle class="cls-9" cx="92.24" cy="34.36" r="2.34"/></symbol></defs><g id="WISDOMS"><use width="199.72" height="121.79" transform="translate(50.39 169.25) scale(0.99)" xlink:href="#Wisdom_Body_1_8"/><use width="168.36" height="135.63" transform="translate(65.4 133.69) scale(0.99)" xlink:href="#Wisdom_Body_MASTER_1_3"/><use width="193.53" height="112.76" transform="translate(53.51 46.27) scale(0.99)" xlink:href="#Wisdom_Head6_3"/></g></svg>