<svg xmlns="http://www.w3.org/2000/svg" xmlns:xlink="http://www.w3.org/1999/xlink" viewBox="0 0 300 300"><defs><style>.cls-1,.cls-9{fill:#9bcfe7;}.cls-2{fill:#202020;}.cls-3{fill:url(#radial-gradient);}.cls-4{fill:url(#radial-gradient-2);}.cls-12,.cls-13,.cls-5,.cls-8{fill:none;}.cls-10,.cls-11,.cls-12,.cls-13,.cls-5,.cls-9{stroke:#000;}.cls-10,.cls-11,.cls-12,.cls-13,.cls-5,.cls-8,.cls-9{stroke-miterlimit:10;}.cls-6{fill:url(#radial-gradient-3);}.cls-7{fill:url(#New_Gradient_Swatch_1);}.cls-8{stroke:#3c3c3c;}.cls-12,.cls-9{stroke-linecap:round;}.cls-9{stroke-width:1.07px;}.cls-10{fill:url(#New_Gradient_Swatch_10);}.cls-11,.cls-15{fill:#fff;}.cls-11,.cls-13{stroke-width:0.98px;}.cls-12{stroke-width:1.04px;}.cls-14{fill:#231f20;}</style><radialGradient id="radial-gradient" cx="86.51" cy="27.04" r="0.4" gradientUnits="userSpaceOnUse"><stop offset="0.1" stop-color="#055c66"/><stop offset="0.33" stop-color="#bdf9ff"/><stop offset="0.61" stop-color="#fff"/></radialGradient><radialGradient id="radial-gradient-2" cx="84.64" cy="115.37" fy="226.85809001489105" r="136.18" gradientUnits="userSpaceOnUse"><stop offset="0.22" stop-color="#055c66"/><stop offset="0.24" stop-color="#22757e"/><stop offset="0.27" stop-color="#59a3ac"/><stop offset="0.3" stop-color="#84c8d0"/><stop offset="0.32" stop-color="#a3e3ea"/><stop offset="0.35" stop-color="#b6f3f9"/><stop offset="0.36" stop-color="#bdf9ff"/><stop offset="0.65" stop-color="#fff"/></radialGradient><radialGradient id="radial-gradient-3" cx="5867.92" cy="16487.53" r="5.25" gradientTransform="matrix(-0.12, 0.99, -0.99, -0.12, 17030.12, -3860.12)" gradientUnits="userSpaceOnUse"><stop offset="0.28" stop-color="#fff"/><stop offset="0.41" stop-color="#fbfbfb"/><stop offset="0.54" stop-color="#efefef"/><stop offset="0.67" stop-color="#dadada"/><stop offset="0.8" stop-color="#bebebe"/><stop offset="0.93" stop-color="#9a9a9a"/><stop offset="0.95" stop-color="#949494"/></radialGradient><radialGradient id="New_Gradient_Swatch_1" cx="5881.19" cy="16487.87" r="5.25" gradientTransform="matrix(-0.12, 0.99, -0.99, -0.12, 17030.12, -3860.12)" gradientUnits="userSpaceOnUse"><stop offset="0.07" stop-color="#919191"/><stop offset="0.21" stop-color="#828283"/><stop offset="0.47" stop-color="#5c5c60"/><stop offset="0.83" stop-color="#1f1f27"/><stop offset="1" stop-color="#00000a"/></radialGradient><radialGradient id="New_Gradient_Swatch_10" cx="104.78" cy="78.13" r="54.2" gradientUnits="userSpaceOnUse"><stop offset="0.41" stop-color="#e7f6fd"/><stop offset="0.52" stop-color="#dff2fb"/><stop offset="0.68" stop-color="#cae7f5"/><stop offset="0.88" stop-color="#a8d6eb"/><stop offset="0.94" stop-color="#9bcfe7"/></radialGradient><symbol id="Wisdom_Body_1_10" data-name="Wisdom_Body_1 10" viewBox="0 0 199.72 121.79"><path class="cls-1" d="M26.32,14.6A36.11,36.11,0,0,1,9.43,20.29c-1.63.09-3.57-.14-4.37-1.7a4,4,0,0,1,.56-3.95,15.59,15.59,0,0,1,3-2.72A2.28,2.28,0,0,0,9.64,10,1.87,1.87,0,0,0,8.59,8.74,13.29,13.29,0,0,0,4.76,7.68,5.53,5.53,0,0,1,1.27,5.8C.44,4.67.41,2.74,1.53,2a3.48,3.48,0,0,1,1.8-.47L19.75.37"/><path class="cls-2" d="M26.32,14.6a48.2,48.2,0,0,0-4.54,1.79c-.25.11-.62.28-1.08.47-.24.1-.49.21-.77.31-.58.23-1.34.51-2.07.75A37.9,37.9,0,0,1,13,19.17c-.86.17-1.75.28-2.63.38a10.47,10.47,0,0,1-2.56,0,2.86,2.86,0,0,1-1.9-.94,2.34,2.34,0,0,1-.43-1.88,5.34,5.34,0,0,1,2.13-3.18l1.35-1.08a4.77,4.77,0,0,0,1-1.13,2.24,2.24,0,0,0,.35-1.12,1.89,1.89,0,0,0,0-.44,2.27,2.27,0,0,0-.87-1.32A7.58,7.58,0,0,0,6.3,7.3,9.16,9.16,0,0,1,2.44,6,2.58,2.58,0,0,1,1.38,4.36a1.91,1.91,0,0,1,.48-1.81c.4-.38,1.31-.37,2.24-.44l2.71-.19,5.1-.34,3-.21a18.36,18.36,0,0,0,4.84-1A17.78,17.78,0,0,0,14.82.05l-3,.2L6.72.59,4,.78c-.46,0-.89,0-1.41.11A3.11,3.11,0,0,0,1,1.51,2.68,2.68,0,0,0,.11,3a3.89,3.89,0,0,0,0,1.59A4,4,0,0,0,1.63,7.1,10.25,10.25,0,0,0,6,8.6a6.3,6.3,0,0,1,2.55.93c.42.35.37.53.39.53s.11.17-.15.61a3.11,3.11,0,0,1-.75.8L6.73,12.55a9.71,9.71,0,0,0-1.55,1.58,5.49,5.49,0,0,0-1,2.42,3.7,3.7,0,0,0,.71,2.92,4.23,4.23,0,0,0,2.74,1.42,12,12,0,0,0,2.88,0c.93-.1,1.86-.22,2.75-.4a40.31,40.31,0,0,0,5.07-1.29c.75-.25,1.54-.54,2.14-.77.29-.11.55-.23.79-.33.49-.2.87-.38,1.12-.49A11.13,11.13,0,0,0,26.32,14.6Z"/><path class="cls-1" d="M173.4,14.6a36.14,36.14,0,0,0,16.89,5.69c1.63.09,3.58-.14,4.38-1.7a4,4,0,0,0-.57-3.95,15.53,15.53,0,0,0-2.95-2.72A2.24,2.24,0,0,1,190.09,10a1.86,1.86,0,0,1,1-1.23A13.36,13.36,0,0,1,195,7.68a5.5,5.5,0,0,0,3.48-1.88c.84-1.13.86-3.06-.25-3.84a3.53,3.53,0,0,0-1.8-.47L180,.37"/><path class="cls-2" d="M173.4,14.6a11.31,11.31,0,0,0,4,3l1.12.49c.24.1.5.22.79.33.6.23,1.39.52,2.14.77a40.31,40.31,0,0,0,5.07,1.29c.9.18,1.82.3,2.75.4a12,12,0,0,0,2.88,0,4.28,4.28,0,0,0,2.75-1.42,3.73,3.73,0,0,0,.7-2.92,5.48,5.48,0,0,0-1-2.42A10.17,10.17,0,0,0,193,12.55l-1.35-1.08a3.3,3.3,0,0,1-.75-.8.79.79,0,0,1-.15-.61s0-.18.39-.53a6.37,6.37,0,0,1,2.55-.93,10.21,10.21,0,0,0,4.41-1.5,4,4,0,0,0,1.57-2.51,3.72,3.72,0,0,0,0-1.59,2.76,2.76,0,0,0-.92-1.49,3.11,3.11,0,0,0-1.58-.62c-.51-.06-1-.08-1.41-.11L193,.59,187.9.25l-3-.2A17.73,17.73,0,0,0,180,.38a18.2,18.2,0,0,0,4.83,1l3,.21,5.1.34,2.71.19c.93.07,1.84.06,2.25.44a1.94,1.94,0,0,1,.48,1.81A2.62,2.62,0,0,1,197.29,6a9.25,9.25,0,0,1-3.86,1.26,7.57,7.57,0,0,0-3.12,1.18,2.16,2.16,0,0,0-.86,1.32,1.38,1.38,0,0,0,0,.44,2.24,2.24,0,0,0,.35,1.12,4.38,4.38,0,0,0,1,1.13l1.34,1.08a5.34,5.34,0,0,1,2.13,3.18,2.37,2.37,0,0,1-.42,1.88,2.91,2.91,0,0,1-1.91.94,10.39,10.39,0,0,1-2.55,0c-.89-.1-1.77-.21-2.64-.38a38.32,38.32,0,0,1-4.89-1.25c-.73-.24-1.49-.52-2.07-.75-.28-.1-.53-.21-.76-.31-.47-.19-.84-.36-1.09-.47A48.2,48.2,0,0,0,173.4,14.6Z"/><path class="cls-1" d="M79.94,96.77c-2.74,5.63-5.68,13.78-6.51,20-.22,1.6-.1,3.66,1.37,4.22s2.86-.9,3.62-2.28,1.62-3,3.15-3.25a3.66,3.66,0,0,1,3.13,1.78,15.46,15.46,0,0,0,2.31,3c1,.79,2.58,1,3.38,0a3.53,3.53,0,0,0,.54-2.16,68.64,68.64,0,0,0-2.78-21"/><path class="cls-2" d="M79.94,96.77A14.83,14.83,0,0,0,77.33,101c-.1.26-.26.64-.45,1.12-.09.24-.2.51-.31.79-.24.64-.55,1.49-.84,2.29a62.59,62.59,0,0,0-2.92,11.21,7.88,7.88,0,0,0,0,3.13,3.25,3.25,0,0,0,.82,1.52,2.56,2.56,0,0,0,1.64.74,2.94,2.94,0,0,0,1.6-.44,5,5,0,0,0,1.09-.92,9,9,0,0,0,1.32-2,4.73,4.73,0,0,1,1.84-2.17,1.56,1.56,0,0,1,.62-.16,1.34,1.34,0,0,1,.23,0,1,1,0,0,1,.23,0,2.39,2.39,0,0,1,.65.28,6.41,6.41,0,0,1,2,2.23,9.85,9.85,0,0,0,1.49,1.88,3.68,3.68,0,0,0,2.81,1,2.48,2.48,0,0,0,1.63-.76,3,3,0,0,0,.72-1.61,10.13,10.13,0,0,0,.09-1.52c0-.49,0-1,0-1.47a70.79,70.79,0,0,0-1-11.49c-.24-1.33-.46-2.43-.59-3a14.4,14.4,0,0,0-1.86-4.6,25,25,0,0,0,.56,4.88c.12.54.34,1.61.57,2.92a67.14,67.14,0,0,1,1,11.27v1.44A10.8,10.8,0,0,1,90.2,119c-.12.81-.52,1.19-1.16,1.25-1.4.12-2.34-1.17-3.07-2.31a12.24,12.24,0,0,0-1.15-1.59,5.46,5.46,0,0,0-1.24-1,3.66,3.66,0,0,0-1-.43,2.67,2.67,0,0,0-.4-.07h-.41a3,3,0,0,0-1.14.28,6.11,6.11,0,0,0-2.43,2.73A8.42,8.42,0,0,1,77,119.54a2.39,2.39,0,0,1-1.64.92,1.44,1.44,0,0,1-1.24-1.27,6.47,6.47,0,0,1,0-2.6,61,61,0,0,1,2.86-11c.28-.79.59-1.62.83-2.25l.3-.78.44-1.11A23,23,0,0,0,79.94,96.77Z"/><path class="cls-1" d="M121.11,96.4c2.74,5.63,4.94,14.15,5.77,20.38.21,1.6.1,3.66-1.37,4.22s-2.87-.9-3.63-2.28-1.61-3-3.15-3.25a3.63,3.63,0,0,0-3.12,1.78,15.9,15.9,0,0,1-2.32,3c-1,.79-2.58,1-3.37,0a3.4,3.4,0,0,1-.54-2.16,68.63,68.63,0,0,1,2.77-21"/><path class="cls-2" d="M121.11,96.4a29.06,29.06,0,0,0,1.25,4.74c.09.26.23.65.39,1.13.08.24.17.51.27.79.21.64.47,1.49.71,2.3a82.2,82.2,0,0,1,2.43,11.12,7.33,7.33,0,0,1,0,2.64c-.18.8-.63,1.27-1.21,1.33a2.2,2.2,0,0,1-1.65-.86,7.6,7.6,0,0,1-1.15-1.72,6.25,6.25,0,0,0-2.39-2.76,2.78,2.78,0,0,0-1.55-.31,2,2,0,0,0-.4.06,3.2,3.2,0,0,0-1,.41,5.19,5.19,0,0,0-1.26,1,11.57,11.57,0,0,0-1.17,1.6c-.73,1.14-1.65,2.45-3.07,2.35-.65,0-1.05-.42-1.18-1.22a24.56,24.56,0,0,1-.08-2.78A69.56,69.56,0,0,1,111,105c.23-1.31.45-2.38.57-2.92a23.51,23.51,0,0,0,.56-4.88,14.4,14.4,0,0,0-1.86,4.6c-.12.54-.35,1.64-.59,3a71.17,71.17,0,0,0-1,11.52c0,.49,0,1,0,1.47a10.33,10.33,0,0,0,.1,1.53,2.91,2.91,0,0,0,.75,1.61,2.49,2.49,0,0,0,1.64.72,3.72,3.72,0,0,0,2.8-1.06,10.46,10.46,0,0,0,1.48-1.89,6.18,6.18,0,0,1,2-2.22,2.2,2.2,0,0,1,.65-.26,1.31,1.31,0,0,1,.23,0,1.56,1.56,0,0,1,.85.18,5.08,5.08,0,0,1,1.83,2.21,8.91,8.91,0,0,0,1.34,2,4.86,4.86,0,0,0,1.12.9,2.74,2.74,0,0,0,1.63.37,2.48,2.48,0,0,0,1.61-.81,3.43,3.43,0,0,0,.76-1.54,8.19,8.19,0,0,0,0-3.12A83,83,0,0,0,125,105c-.24-.81-.51-1.68-.73-2.33l-.26-.81c-.18-.49-.32-.88-.41-1.15A13.09,13.09,0,0,0,121.11,96.4Z"/></symbol><symbol id="Wisdom_Body_MASTER_1" data-name="Wisdom_Body_MASTER_1" viewBox="0 0 168.36 137.67"><path class="cls-3" d="M86.49,26.76c-.89.56-.36.66.51.47A4.66,4.66,0,0,1,86.49,26.76Z"/><path class="cls-4" d="M136.78,24.48c-3-1.86-13.67-6.55-16.55-13.32-.51-.73-4.5-9.57-5-10.29l-.39-.06C98.7,15.9,71.92,14.64,53.22,1.35l-1.35-.29c-.27,1.26-3,8.93-3.38,9.73l0,0-3.8,4.87c-4.63,4.62-11.75,10-29.4,15.48l-13.78,3C2.91,38.33,6.94,46,7,51.84c0,.59,4.14,22.33,6.07,36.67a77.07,77.07,0,0,1,22-17.9l8.09-4.2c-.13,4.34.3,15.61-.21,28-.17,4.12-1,25.28-9.22,29.76,47,22,83.65,11.89,102-.63-7.51-1.66-10.26-16.85-10.85-26.73-.14-2.24.34-22.29.5-24.67s.27-4.27.24-5.45L136.22,72a109.74,109.74,0,0,1,8.71,7.14c3.88,3.24,5.88,8.24,11,10,0-2.21.19-4.93.49-8,1.52-15.23,6.42-38.63,10.56-46.9C149.3,31.71,136.76,24.89,136.78,24.48Z"/><path class="cls-2" d="M115.36.65a21,21,0,0,0,1.53,4.69c.11.25.29.62.5,1.09l.36.76c.42.88.86,1.8,1.3,2.74l.35.7,0,.07h0l-.35.22-.73.46a64,64,0,0,1-28.3,9.8c-1.29.08-2.56.2-3.83.23H82.46l-3.67-.26c-1.2-.09-2.43-.23-3.59-.32A47.66,47.66,0,0,1,63,18.15a44.4,44.4,0,0,1-7.84-3.66c-1.78-1.06-2.72-1.75-2.72-1.75s-.13-.07-1-.71c-.42-.31-1-.77-1.85-1.46-.3-.26-.21-.18-.23-.19h0l0-.12c.07-.16.13-.33.19-.5l.86-2.33c.2-.58.72-2,1.44-4.17.18-.54.37-1.12.56-1.75h5.86l25-.08,27.09-.08a18,18,0,0,0,4.89-.68,17.72,17.72,0,0,0-4.9-.65L83.38.08l-25,.07-4.79,0H51.48a9.29,9.29,0,0,0-.27.94c-.18.61-.37,1.18-.55,1.71C50,5,49.43,6.4,49.23,7l-.85,2.32-.18.48c-.05.12-.09.23-.14.34s-.12.3-.19.45-.08.15-.07.21l.18.15.34.3.43.36c.86.72,1.48,1.19,1.92,1.52.88.65,1,.72,1,.72s1,.72,2.8,1.81a46,46,0,0,0,8.07,3.77,48.59,48.59,0,0,0,12.53,2.75l3.58.32,3.75.27h3.85c1.3,0,2.61-.16,3.92-.24a65.39,65.39,0,0,0,28.89-10l.73-.46.36-.23.73-.44a1.42,1.42,0,0,0,.34-.22l-.21-.37-.38-.67-.39-.78L119,6.62l-.36-.76c-.22-.46-.39-.84-.51-1.08A15.77,15.77,0,0,0,115.36.65Z"/><path class="cls-2" d="M49.92,7.84A14,14,0,0,0,53.78,11l1.07.59.75.39c.64.33,1.5.75,2.31,1.13s1.72.78,2.63,1.15l2.87,1,2.94,1.05c1,.32,2,.61,3,.86A54.86,54.86,0,0,0,80.3,18.73c2.93.14,4.82.06,4.82.06s1.89,0,4.81-.29a64.06,64.06,0,0,0,10.84-2.07A60.49,60.49,0,0,0,112,11.94c1.22-.61,2.19-1.14,2.68-1.41a14.6,14.6,0,0,0,3.88-3.09,23.5,23.5,0,0,0-4.52,1.93c-.48.26-1.45.78-2.64,1.38a59.82,59.82,0,0,1-11,4.4,62.51,62.51,0,0,1-10.61,2c-2.85.29-4.7.3-4.7.3s-1.85.07-4.72-.07A53.81,53.81,0,0,1,69.7,15.85c-1-.25-2-.53-3-.84l-2.89-1-2.81-1c-.9-.36-1.76-.74-2.57-1.12s-1.64-.79-2.27-1.11l-.73-.38-1-.57A24.9,24.9,0,0,0,49.92,7.84Z"/><path class="cls-2" d="M48.72,11c-.69.56-1.24,1-1.77,1.54a19.08,19.08,0,0,0-1.83,1.75c-.18.2-.5.46-.86.8l-.61.56-.39.37a6,6,0,0,1-.54.46l-1.13.91c-.75.63-1.57,1.21-2.42,1.8A82.22,82.22,0,0,1,14.36,30.5c-2.25.62-4.51,1.12-6.72,1.53l-3.3.52L.38,33A2,2,0,0,0,0,33l.17.36.35.71.48,1,.62,1.4c.38.92.77,1.83,1.09,2.73.67,1.78,1.22,3.49,1.7,5.07,1,3.16,1.61,5.8,2,7.65s.66,2.89.66,2.89.21,1,.6,2.9.87,4.54,1.4,7.81,1.08,7.13,1.62,11.35c.25,2.11.51,4.31.77,6.57.11,1.12.23,2.27.35,3.42.08.85.17,1.69.25,2.54l.18,1.76L13.21,90l.94-1.23.47-.63.28-.34L16,86.41c.78-.88,1.55-1.78,2.37-2.62A60.77,60.77,0,0,1,23.51,79,67.8,67.8,0,0,1,29,74.87c.93-.62,1.84-1.23,2.76-1.79.47-.27.92-.55,1.37-.82l1.27-.71c1.16-.67,2.14-1.14,2.62-1.41a22.69,22.69,0,0,0,4.14-2.66A14.86,14.86,0,0,0,36.38,69c-.49.26-1.49.74-2.67,1.42l-1.29.72L31,72c-.94.56-1.88,1.18-2.82,1.81C26.33,75,24.48,76.45,22.66,78a62.05,62.05,0,0,0-5.24,4.91c-.84.86-1.62,1.77-2.42,2.67l-1.14,1.39-.28.35-.06.08-.13.17-.13.17h0s0,0,0-.07l-.09-.87c-.11-1.16-.23-2.31-.35-3.44-.26-2.26-.52-4.47-.77-6.58-.54-4.24-1.09-8.12-1.63-11.41s-1.05-6-1.41-7.85-.6-2.92-.6-2.92-.24-1-.66-2.92-1.1-4.52-2.06-7.73c-.48-1.59-1-3.33-1.73-5.15-.32-.91-.71-1.84-1.11-2.79l-.63-1.43L2,34.14H2l2.51-.26,3.35-.53c2.26-.43,4.55-.93,6.84-1.56A84,84,0,0,0,39.94,20.25c.87-.61,1.71-1.21,2.48-1.86.4-.31.78-.62,1.16-.93a6.44,6.44,0,0,0,.56-.48l.4-.38c.23-.2.44-.4.63-.58.38-.36.7-.63.89-.84a15.3,15.3,0,0,0,1.64-2.06A19.72,19.72,0,0,0,48.72,11Z"/><path class="cls-2" d="M44.26,45.1A15.09,15.09,0,0,0,43,49.91c0,.28-.06.69-.1,1.21,0,.25,0,.54-.06.84-.05.79-.1,1.59-.15,2.41s-.08,1.87-.12,2.83c-.06,1.92-.09,3.89-.08,5.9,0,4,.14,8.22.2,12.52s0,8.74-.14,13.23c-.06,2.24-.21,4.5-.32,6.76s-.32,4.54-.64,6.79a57.4,57.4,0,0,1-2.83,13.18,19.7,19.7,0,0,1-3.14,5.69,26.58,26.58,0,0,1-2.87,2.92s-.13.09-.08.12l.18.1.37.2L34,125l.88.48,1.45.79a92.24,92.24,0,0,0,11.75,5.1,96.43,96.43,0,0,0,11.31,3.3c3.62.85,7.06,1.46,10.24,1.88a118.66,118.66,0,0,0,15.32,1.12c3.67,0,5.74-.09,5.74-.09l.79,0c.53,0,1.33,0,2.42-.13,2.16-.15,5.47-.4,10-1.09,2.24-.37,4.8-.8,7.63-1.48a83.45,83.45,0,0,0,9.32-2.73,64.59,64.59,0,0,0,10.68-4.9c.93-.53,1.83-1.15,2.77-1.75l1.88-1.36.68-.5.34-.24c.11-.09.32-.18.06-.2-.58-.14-1.19-.27-1.72-.44-.25-.07-.6-.16-.77-.23l-.35-.16c-.24-.1-.45-.26-.69-.39a8.12,8.12,0,0,1-1.24-1,12.22,12.22,0,0,1-2-2.79,34.62,34.62,0,0,1-3.13-9.88,99.29,99.29,0,0,1-1.41-13c-.23-4.66-.26-9.6-.13-14.64q.09-3.78.29-7.61l.22-3.83c.09-1.31.07-2.59.09-3.87,0-2.55,0-5.1-.06-7.61,0-1.25-.08-2.5-.15-3.74,0-.42,0-.84-.07-1.25s0-.8-.07-1.16c-.06-.71-.11-1.3-.13-1.66a15.09,15.09,0,0,0-1.22-4.81,22.8,22.8,0,0,0-.11,4.93c0,.35.07.93.13,1.64,0,.35,0,.73.07,1.14s0,.82.07,1.24c.06,1.23.11,2.46.14,3.71.07,2.49.09,5,.06,7.56,0,1.28,0,2.55-.08,3.8L124.74,73c-.13,2.56-.24,5.12-.3,7.65-.13,5.06-.1,10,.14,14.74.49,9.38,1.75,17.84,4.7,23.4a13.81,13.81,0,0,0,2.21,3.09,10,10,0,0,0,1.46,1.22c.28.16.53.34.82.47l.43.2.09,0h0l-.17.12-.66.48c-.91.58-1.79,1.19-2.69,1.7a63.29,63.29,0,0,1-10.46,4.8,80.47,80.47,0,0,1-9.18,2.68c-2.79.67-5.31,1.11-7.52,1.47-4.45.68-7.72.92-9.86,1.08-1.07.09-1.86.09-2.39.12l-.78,0s-2,.11-5.68.08a117.2,117.2,0,0,1-15.15-1.1c-3.14-.42-6.54-1-10.12-1.87a94.07,94.07,0,0,1-11.17-3.26,90.82,90.82,0,0,1-11.57-5l-1.43-.78-.57-.31s0,0,0,0a20.11,20.11,0,0,0,1.74-1.88,20.82,20.82,0,0,0,3.36-6.06A59.46,59.46,0,0,0,43,102.55c.32-2.28.43-4.57.64-6.85s.27-4.55.33-6.81c.15-4.51.16-9,.14-13.28s-.18-8.52-.21-12.51c0-2,0-4,.09-5.86,0-.94.07-1.88.11-2.8s.1-1.61.15-2.39c0-.3,0-.58.06-.83,0-.51.07-.92.09-1.19A22.21,22.21,0,0,0,44.26,45.1Z"/><path class="cls-5" d="M69.3,127.59"/><path class="cls-2" d="M82.65,22.24A18.07,18.07,0,0,0,82,27.13c0,4.62,0,27.76,0,27.76s0,22.1,0,26.52a17.62,17.62,0,0,0,.67,4.89,17.72,17.72,0,0,0,.65-4.9c0-4.41,0-26.52,0-26.52s0-23.13,0-27.75A18,18,0,0,0,82.65,22.24Z"/><path class="cls-2" d="M87.41,22.24a18,18,0,0,0-.66,4.89V81.41a18.07,18.07,0,0,0,.66,4.89,18.07,18.07,0,0,0,.66-4.89V27.13A18,18,0,0,0,87.41,22.24Z"/><path class="cls-2" d="M51.2,3.7A15.14,15.14,0,0,0,55,6.91L56,7.54l.73.42c.61.32,1.39.79,2.17,1.17,1.55.83,3.31,1.62,5.13,2.39a58.8,58.8,0,0,0,5.7,1.94,49,49,0,0,0,10.45,1.71c1.41.06,2.57.1,3.37.06l1.25,0s1.82,0,4.61-.33a67.4,67.4,0,0,0,10.38-2,53,53,0,0,0,10.85-4.19c1.21-.65,2.17-1.24,2.64-1.56s.8-.57,1.14-.83a12,12,0,0,0,.88-.86,10.83,10.83,0,0,0,1.42-1.93c-.78.43-1.36.83-2,1.18-.33.18-.65.39-1,.61s-.74.44-1.15.72-1.37.86-2.54,1.49a51.35,51.35,0,0,1-10.57,4.08,65.46,65.46,0,0,1-10.18,1.94c-2.73.29-4.5.32-4.5.32l-1.23,0c-.78,0-1.91,0-3.28-.07a48.12,48.12,0,0,1-10.17-1.67,53.94,53.94,0,0,1-5.54-1.89c-1.79-.75-3.5-1.53-5-2.34-.75-.37-1.53-.82-2.12-1.14l-.73-.42-1-.6A22.22,22.22,0,0,0,51.2,3.7Z"/><circle id="SVGID" class="cls-6" cx="56.45" cy="30.03" r="5.23"/><circle id="SVGID-2" data-name="SVGID" class="cls-7" cx="54.57" cy="43.11" r="5.23"/><path class="cls-2" d="M10.19,34a21.71,21.71,0,0,0,1,4.81c.11.33.31.85.65,2,.78,2.39,1.93,6.48,2.79,10s1.47,6.43,1.47,6.43.52,2.45,1.09,5.59,1.16,7,1.51,9.73c.2,1.54.29,2.49.34,3a22.75,22.75,0,0,0,1,4.81,15,15,0,0,0,.28-4.94c0-.51-.14-1.47-.34-3-.34-2.77-.94-6.64-1.52-9.8s-1.1-5.62-1.1-5.62-.6-2.94-1.47-6.48-2-7.66-2.82-10.08c-.35-1.12-.55-1.64-.66-2A15.29,15.29,0,0,0,10.19,34Z"/><path class="cls-2" d="M119.64,11a21.76,21.76,0,0,0,1,2.16,15.3,15.3,0,0,0,1.64,2.06c.19.21.51.48.89.84.19.18.4.38.63.58l.41.38a5.11,5.11,0,0,0,.55.48l1.16.93c.77.65,1.62,1.25,2.48,1.86a84,84,0,0,0,25.23,11.54c2.29.63,4.59,1.13,6.84,1.56l3.36.53,2.5.26h0l-.19.41c-.22.48-.43,1-.64,1.43-.39,1-.78,1.88-1.11,2.79-.69,1.82-1.24,3.56-1.73,5.15-1,3.21-1.62,5.87-2.05,7.73s-.66,2.92-.66,2.92-.22,1-.6,2.92-.89,4.57-1.41,7.85-1.1,7.17-1.64,11.41c-.25,2.11-.51,4.32-.77,6.58-.11,1.13-.23,2.28-.35,3.44l-.09.87c0,.1,0,.07,0,.07h0l-.13-.17-.13-.17-.07-.08-.28-.35-1.14-1.39c-.79-.9-1.58-1.81-2.42-2.67A63.5,63.5,0,0,0,145.71,78c-1.82-1.51-3.68-2.93-5.56-4.2-.94-.63-1.87-1.25-2.81-1.81l-1.4-.85-1.28-.72c-1.18-.68-2.19-1.16-2.68-1.42a14.8,14.8,0,0,0-4.73-1.48,22.6,22.6,0,0,0,4.13,2.66c.48.27,1.47.74,2.63,1.41l1.26.71,1.37.83c.92.55,1.84,1.16,2.76,1.78A64.43,64.43,0,0,1,144.85,79a59.27,59.27,0,0,1,5.12,4.8c.83.84,1.6,1.74,2.38,2.62l1.11,1.36.28.34.47.63.95,1.23.93,1.23.18-1.76c.09-.85.17-1.69.26-2.54.12-1.15.23-2.3.35-3.42.26-2.26.52-4.46.76-6.57.54-4.22,1.09-8.08,1.63-11.35s1-6,1.4-7.81.6-2.9.6-2.9.23-1,.65-2.89,1.08-4.49,2-7.65c.48-1.58,1-3.29,1.71-5.07.32-.9.7-1.81,1.08-2.73.21-.46.42-.93.62-1.4s.33-.67.49-1l.34-.71.17-.36A2,2,0,0,0,168,33l-4-.43L160.73,32c-2.22-.41-4.47-.91-6.73-1.53a82.34,82.34,0,0,1-24.81-11.35c-.84-.59-1.67-1.17-2.42-1.8l-1.13-.91a5.82,5.82,0,0,1-.53-.46l-.4-.37c-.21-.2-.42-.38-.6-.56-.37-.34-.68-.6-.87-.8a18,18,0,0,0-1.83-1.75C120.88,12,120.33,11.52,119.64,11Z"/><path class="cls-2" d="M158.17,34a15.81,15.81,0,0,0-2.3,4.39c-.1.33-.31.85-.65,2-.8,2.42-2,6.54-2.82,10.08s-1.47,6.48-1.47,6.48-.53,2.46-1.11,5.62-1.17,7-1.52,9.8c-.2,1.56-.29,2.52-.34,3a14.71,14.71,0,0,0,.29,4.94,22.76,22.76,0,0,0,1-4.81c.06-.5.15-1.45.35-3,.34-2.75.93-6.59,1.5-9.73s1.09-5.59,1.09-5.59.6-2.92,1.47-6.43,2-7.6,2.8-10c.34-1.11.54-1.63.64-2A21.16,21.16,0,0,0,158.17,34Z"/><path class="cls-8" d="M157.48,123.06"/></symbol><symbol id="Wisdom_Head7_5" data-name="Wisdom_Head7 5" viewBox="0 0 208.67 131.19"><path class="cls-1" d="M109.52,30.72c-.13.34-.57-.13-.58-.49,0-9.92,5.62-20,16.51-26l3.18,3.65c-8.63,4.9-14.85,12.43-14.81,22.35,0,.36,1,3,1.15,2.7Z"/><path class="cls-2" d="M109.52,30.72c-.13.18-.25,0-.3-.14a.49.49,0,0,1,0-.37c.17-.65.3-1.27.41-1.92s.23-1.35.39-2.19c.05-.29.13-.71.22-1.24.07-.26.14-.55.21-.85s.18-.78.3-1.17.27-.83.41-1.26a29.39,29.39,0,0,1,2.48-5.27,31.77,31.77,0,0,1,3.73-4.93,35.22,35.22,0,0,1,4.42-3.92c.75-.56,1.5-1,2.2-1.5L125,5.34l.28-.17h0l2.1,2.4.13.16h0l-.65.38c-.73.47-1.77,1.14-3,2.05a29.5,29.5,0,0,0-7.66,8.42,22.8,22.8,0,0,0-2.47,6,25.27,25.27,0,0,0-.53,3.13,13.1,13.1,0,0,0-.11,1.52c0,.25,0,.5,0,.74v.19a1.24,1.24,0,0,0,0,.31,2.14,2.14,0,0,0,.1.37c.34,1,.21.6.23.69h0a0,0,0,0,1,0,0h0l-.28-.08c-.42-.14-.81-.25-1.2-.35-.78-.19-1.55-.31-2.46-.45.74.55,1.38,1,2.07,1.41.34.2.7.4,1.1.6l.35.16.64.28.68.29c.1,0,.26.15.32.11l-.38-.87.11,0,.49.18s.06,0,.06,0,0,0-.06,0a.49.49,0,0,1-.11-.14,3.84,3.84,0,0,1-.18-.35s0-.08.08-.09l.1,0s0,0,.25,0l.23.05.12,0s0,0,0,0l-.12-.23c-.06-.15-.13-.3-.2-.45-.3-.76-.34-.91-.45-1.25l-.06-.24V30l0-.69a9.92,9.92,0,0,1,.1-1.43,20.17,20.17,0,0,1,.5-2.93,21.28,21.28,0,0,1,2.31-5.66,28,28,0,0,1,7.29-8c1.15-.88,2.16-1.53,2.86-2l1.63-1,.15-.09.19-.11.12-.07a.48.48,0,0,0-.1-.12l-1.15-1.32-2.56-2.95-.18-.21c-.06-.06-.11-.2-.21-.1l-.49.29-.73.43-1.1.64c-.73.49-1.51,1-2.29,1.57a36.73,36.73,0,0,0-4.62,4.09,33.27,33.27,0,0,0-3.91,5.17,29.65,29.65,0,0,0-2.6,5.54c-.15.45-.29.89-.43,1.33s-.24.92-.32,1.23l-.22.9c-.1.55-.17,1-.23,1.3a13.35,13.35,0,0,0-.15,2.34,17.31,17.31,0,0,0,.27,2,.91.91,0,0,0,.32.52.59.59,0,0,0,.27.15A.18.18,0,0,0,109.52,30.72Z"/><circle class="cls-9" cx="128.8" cy="6.36" r="5.82"/><path class="cls-1" d="M99.29,30.72c.13.34.58-.13.58-.49,0-9.92-5.62-20-16.51-26L80.18,7.9C88.81,12.8,95,20.33,95,30.25c0,.36-1,3-1.15,2.7Z"/><path class="cls-2" d="M99.29,30.72a.19.19,0,0,0,.23.17.69.69,0,0,0,.28-.15.85.85,0,0,0,.31-.52,15.39,15.39,0,0,0,.27-2,13.35,13.35,0,0,0-.15-2.34c0-.3-.13-.75-.23-1.3-.06-.28-.14-.58-.22-.9s-.18-.82-.31-1.23-.29-.88-.43-1.33a30.37,30.37,0,0,0-2.61-5.54,32.66,32.66,0,0,0-3.91-5.17A36,36,0,0,0,87.9,6.31c-.78-.58-1.56-1.08-2.29-1.57l-1.1-.64-.73-.43-.49-.29c-.09-.1-.14,0-.21.1l-.18.21L80.34,6.64,79.19,8a.74.74,0,0,0-.09.12l.11.07.19.11.15.09,1.63,1c.7.44,1.71,1.09,2.87,2a28,28,0,0,1,7.28,8A21,21,0,0,1,93.65,25a23.31,23.31,0,0,1,.5,2.93,13.94,13.94,0,0,1,.1,1.43c0,.23,0,.46,0,.69v.21l-.07.24c-.11.34-.15.49-.45,1.25-.07.15-.14.3-.2.45l-.12.23s0,0,0,0l.11,0,.24-.05c.2,0,.21,0,.24,0l.11,0c.07,0,.08,0,.08.09l-.18.35a1.71,1.71,0,0,1-.11.14s-.06,0-.07,0,0,0,.06,0l.49-.18.11,0c-.12.3-.25.58-.38.87.06,0,.23-.08.33-.11l.68-.29.63-.28.35-.16c.4-.2.76-.4,1.11-.6.69-.42,1.32-.86,2.06-1.41-.91.14-1.67.26-2.45.45-.4.1-.79.21-1.21.35l-.27.08h0v0h0c0-.09-.11.35.24-.69,0,0,.06-.21.09-.37a.9.9,0,0,0,0-.31V30l0-.74a11.22,11.22,0,0,0-.11-1.52A23.53,23.53,0,0,0,95,24.61a22.47,22.47,0,0,0-2.47-6,29.5,29.5,0,0,0-7.66-8.42c-1.21-.91-2.25-1.58-3-2.05l-.65-.38h0l.14-.16,2.09-2.4h0l.29.17,1,.62c.7.46,1.45.94,2.2,1.5a34.59,34.59,0,0,1,4.43,3.92,33.08,33.08,0,0,1,3.73,4.93,28.66,28.66,0,0,1,2.47,5.27c.14.43.28.85.41,1.26s.22.87.3,1.17.15.59.21.85c.1.53.17.95.22,1.24.17.84.23,1.54.39,2.19s.24,1.27.41,1.92a.48.48,0,0,1,0,.37C99.55,30.7,99.43,30.9,99.29,30.72Z"/><circle class="cls-9" cx="80.02" cy="6.36" r="5.82"/><path class="cls-1" d="M62.75,49.63a125,125,0,0,0-54.6-.83C4.87,49.49.92,51.08.71,54.43c-.22,3.52,3.8,5.5,6.88,7.22C13.74,65.08,18.2,70.82,22.5,76.4s8.81,11.29,15,14.64S52.1,94.73,57.27,90"/><path class="cls-2" d="M62.75,49.63a17,17,0,0,0-5-1.81l-1.28-.26-.89-.16L53.07,47l-2.82-.4a127,127,0,0,0-25.65-.79,122.27,122.27,0,0,0-12.53,1.54c-1,.15-1.93.37-2.86.54s-1.84.35-2.74.61a12,12,0,0,0-4.7,2.39,5.44,5.44,0,0,0-1.44,2A5.06,5.06,0,0,0,0,55.18a5.67,5.67,0,0,0,1.54,3.23A11.16,11.16,0,0,0,3.2,59.84c.39.29.61.42.61.42s.86.59,2.41,1.44a31.31,31.31,0,0,1,5.94,4.07,57.25,57.25,0,0,1,7.13,7.68c2.45,3,4.95,6.52,7.86,9.83A37,37,0,0,0,37.42,91.8a22.42,22.42,0,0,0,6.21,2.13,21.42,21.42,0,0,0,3.16.32c.53,0,1,0,1.55,0l.77,0,.64-.09a18,18,0,0,0,2-.38c.56-.16,1-.31,1.3-.4A8.11,8.11,0,0,0,57.27,90l-1.17.58L55,91c-.36.15-.74.29-1.13.47l-1.32.5a15,15,0,0,1-3,.7l-.59.08-.71,0a13.59,13.59,0,0,1-1.43,0,20,20,0,0,1-8.75-2.29,35.57,35.57,0,0,1-9.85-8.2c-2.86-3.23-5.35-6.69-7.83-9.78a58.43,58.43,0,0,0-7.31-7.86,32.53,32.53,0,0,0-6.18-4.23c-1.53-.84-2.31-1.38-2.31-1.38L4,58.69a9.68,9.68,0,0,1-1.42-1.25A4.15,4.15,0,0,1,1.44,55a3.66,3.66,0,0,1,1.3-3.12,10.48,10.48,0,0,1,4.13-2.06c.82-.24,1.69-.41,2.62-.59s1.86-.38,2.83-.53A122.16,122.16,0,0,1,24.7,47.22,126.35,126.35,0,0,1,50.06,48l2.79.4,2.48.42.88.15,1.26.25A22.38,22.38,0,0,0,62.75,49.63Z"/><path class="cls-1" d="M145.92,49.63a125,125,0,0,1,54.6-.83c3.28.69,7.23,2.28,7.44,5.63.22,3.52-3.8,5.5-6.88,7.22-6.15,3.43-10.61,9.17-14.91,14.75s-8.81,11.29-15,14.64S156.58,94.73,151.4,90"/><path class="cls-2" d="M145.92,49.63a22.34,22.34,0,0,0,5.28-.41l1.26-.25.88-.15,2.49-.42,2.78-.4A126.35,126.35,0,0,1,184,47.22a122.72,122.72,0,0,1,12.39,1.52c1,.15,1.9.36,2.82.53s1.8.35,2.62.59a10.48,10.48,0,0,1,4.13,2.06A3.67,3.67,0,0,1,207.24,55a4.22,4.22,0,0,1-1.19,2.4,9.19,9.19,0,0,1-1.42,1.25l-.56.39s-.78.54-2.31,1.38a32.53,32.53,0,0,0-6.18,4.23,58.43,58.43,0,0,0-7.31,7.86c-2.48,3.09-5,6.55-7.83,9.78a35.57,35.57,0,0,1-9.85,8.2,20,20,0,0,1-8.75,2.29,13.59,13.59,0,0,1-1.43,0l-.71,0-.59-.08a14.72,14.72,0,0,1-3-.7l-1.33-.5c-.39-.18-.77-.32-1.13-.47l-1.1-.47L151.4,90a8.09,8.09,0,0,0,4.25,3.36c.29.09.73.24,1.29.4a18,18,0,0,0,2,.38l.64.09.77,0c.51,0,1,0,1.55,0a21.42,21.42,0,0,0,3.16-.32,22.42,22.42,0,0,0,6.21-2.13,36.89,36.89,0,0,0,10.27-8.52c2.91-3.31,5.41-6.78,7.86-9.83a56.63,56.63,0,0,1,7.14-7.68,31,31,0,0,1,5.93-4.07c1.55-.85,2.41-1.44,2.41-1.44s.22-.13.61-.42a11.16,11.16,0,0,0,1.64-1.43,5.74,5.74,0,0,0,1.55-3.23,5.22,5.22,0,0,0-.32-2.27,5.44,5.44,0,0,0-1.44-2,12,12,0,0,0-4.7-2.39,27.85,27.85,0,0,0-2.74-.61c-.93-.17-1.88-.39-2.86-.54a122.27,122.27,0,0,0-12.53-1.54,127,127,0,0,0-25.65.79l-2.82.4-2.51.42-.89.16-1.28.26A17,17,0,0,0,145.92,49.63Z"/><path class="cls-10" d="M134.85,118.6a44.35,44.35,0,0,1-62.18-1.3c-8.23-8.46-14.87-18-14.87-26.73v-18a47,47,0,0,1,47-47h0a47,47,0,0,1,47,47v18C151.75,99.77,144.07,109.84,134.85,118.6Z"/><path class="cls-1" d="M57.51,72.75c-4.84-1.19-9-4.17-12.93-7.26s-7.74-6.4-12.29-8.44-10-2.65-14.41-.25l1.36-.8"/><path class="cls-2" d="M57.51,72.75c-1.6-.89-2.6-1.49-4.45-2.41-.31-.16-.82-.41-1.85-1a69.81,69.81,0,0,1-7.9-5.74c-1.34-1.07-2.58-2.05-3.5-2.74l-1.51-1.1s-.49-.35-1.32-.89a33.61,33.61,0,0,0-3.39-2,23.06,23.06,0,0,0-4.66-1.76,20.13,20.13,0,0,0-4.65-.59,14.37,14.37,0,0,0-3.27.36,8,8,0,0,0-3.31,1.57l.36.63c.38-.34.76-.7,1.18-1.11-.57.17-1.07.32-1.55.49l.36.63c1-.3,1.93-.56,3.26-.86a13.6,13.6,0,0,1,3-.32,18.31,18.31,0,0,1,4.31.55A21.2,21.2,0,0,1,33,58.14,31.47,31.47,0,0,1,36.22,60c.81.52,1.28.86,1.28.86L39,62c.9.67,2.13,1.64,3.47,2.71a68.65,68.65,0,0,0,8.06,5.85c1.06.63,1.6.89,1.93,1.06A10.55,10.55,0,0,0,57.51,72.75Z"/><path class="cls-1" d="M151.17,72.75c4.83-1.19,9-4.17,12.92-7.26s7.74-6.4,12.29-8.44,10.05-2.65,14.42-.25l-1.36-.8"/><path class="cls-2" d="M151.17,72.75a10.53,10.53,0,0,0,5.06-1.17c.33-.17.87-.43,1.94-1.06a68.62,68.62,0,0,0,8.05-5.85c1.34-1.07,2.57-2,3.47-2.71l1.48-1.08s.47-.34,1.28-.86a31.47,31.47,0,0,1,3.25-1.88,21.2,21.2,0,0,1,4.38-1.65,18.37,18.37,0,0,1,4.31-.55,13.6,13.6,0,0,1,3,.32c1.33.3,2.25.56,3.26.86l.36-.63c-.48-.17-1-.32-1.54-.49.41.41.79.77,1.17,1.11l.36-.63a7.92,7.92,0,0,0-3.31-1.57,14.37,14.37,0,0,0-3.27-.36,20.13,20.13,0,0,0-4.65.59,22.74,22.74,0,0,0-4.65,1.76,32.82,32.82,0,0,0-3.4,2c-.83.54-1.31.89-1.31.89l-1.52,1.1c-.92.69-2.16,1.67-3.5,2.74a69.81,69.81,0,0,1-7.9,5.74c-1,.6-1.54.85-1.85,1C153.76,71.26,152.76,71.86,151.17,72.75Z"/><path class="cls-11" d="M90.16,60.89C86.24,58,80,58.62,75.72,61.17s-6.87,6.86-8.4,11.3c-1.71,5-2.07,10.83,1.27,15C72.67,92.65,81.35,93.4,87.21,90s9-9.88,9.28-16.25c.24-5-1.53-10.65-6.33-13"/><path class="cls-12" d="M80,97.08a3.51,3.51,0,0,0-2.5,3"/><path class="cls-13" d="M82.54,70.92C80,71,78,74.09,79,76.46a4.58,4.58,0,0,0,6.51,1.84,5.11,5.11,0,0,0,1.26-6.85,5.35,5.35,0,0,0-4.29-2.36"/><path class="cls-11" d="M118.39,61.08c3.93-2.93,10.22-2.25,14.44.3s6.87,6.86,8.41,11.3c1.71,5,2.07,10.83-1.27,15-4.08,5.14-12.76,5.89-18.62,2.53s-9-9.88-9.28-16.25c-.24-5,1.53-10.65,6.33-13"/><path class="cls-13" d="M130.05,98.73c-4.89,2-10.29-.72-15-3.21-6.24-3.33-12.48-5-21.64-.21-4.68,2.46-10.06,5.19-15,3.21"/><path class="cls-12" d="M128.53,97.3a3.51,3.51,0,0,1,2.5,3"/><path class="cls-13" d="M126,71.13c2.58,0,4.5,3.17,3.5,5.55A4.6,4.6,0,0,1,123,78.51a5.13,5.13,0,0,1-1.26-6.85A5.41,5.41,0,0,1,126,69.3"/><path class="cls-12" d="M94,100.85c6.08-2.68,13.36-1.84,19.51.68"/><ellipse class="cls-14" cx="82.93" cy="74.07" rx="6.28" ry="6.18" transform="translate(-14.76 20.95) rotate(-13.23)"/><circle class="cls-15" cx="79.57" cy="70.66" r="3.11"/><ellipse class="cls-14" cx="125.55" cy="74.07" rx="6.28" ry="6.18" transform="translate(-13.62 30.71) rotate(-13.23)"/><circle class="cls-15" cx="122.19" cy="70.66" r="3.11"/></symbol></defs><g id="WISDOMS"><use width="199.72" height="121.79" transform="translate(50.39 169.25) scale(0.99)" xlink:href="#Wisdom_Body_1_10"/><use width="168.36" height="137.67" transform="translate(65.4 133.69) scale(0.99)" xlink:href="#Wisdom_Body_MASTER_1"/><use width="208.67" height="131.19" transform="translate(44.89 14.31) scale(0.99)" xlink:href="#Wisdom_Head7_5"/></g></svg>