<svg xmlns="http://www.w3.org/2000/svg" xmlns:xlink="http://www.w3.org/1999/xlink" viewBox="0 0 300 300"><defs><style>.cls-1{fill:url(#New_Gradient_Swatch_19);}.cls-2{fill:#202020;}.cls-3,.cls-4{fill:#fff;}.cls-4{stroke:#000;stroke-miterlimit:10;stroke-width:0.76px;}.cls-5{fill:#231f20;}.cls-6{fill:#f2f2f2;}.cls-7{fill:#cae8ea;}</style><radialGradient id="New_Gradient_Swatch_19" cx="47.14" cy="42.3" r="102.7" gradientTransform="translate(39.92 46.18) scale(0.99 0.98)" gradientUnits="userSpaceOnUse"><stop offset="0.4" stop-color="#f70"/><stop offset="0.64" stop-color="#db6d0d"/><stop offset="0.67" stop-color="#db7317"/><stop offset="0.72" stop-color="#db8232"/><stop offset="0.78" stop-color="#db9b5e"/><stop offset="0.84" stop-color="#dbb388"/><stop offset="0.93" stop-color="#dbcec3"/></radialGradient><symbol id="Fuzzballs_horn_1" data-name="Fuzzballs_horn_1" viewBox="0 0 44.28 75.06"><path class="cls-6" d="M44.28,51.12C11.6,26.26,12.66,5,8,1.35A3.46,3.46,0,0,0,2.62,3C-4,29,6.59,63.28,27.5,75.06"/><path class="cls-2" d="M44.28,51.12a19.86,19.86,0,0,0-3.41-3.56L40,46.8l-.65-.54-.42-.35-.55-.48-1.12-1c-.76-.66-1.51-1.37-2.29-2.09A87.7,87.7,0,0,1,17.61,20.6,87.26,87.26,0,0,1,12.08,8.05,36.13,36.13,0,0,0,9.59,2.22,4.46,4.46,0,0,0,7.08.16,4.3,4.3,0,0,0,4,.43,3.73,3.73,0,0,0,2.08,2.52a3.19,3.19,0,0,0-.17.61c0,.18-.09.36-.13.54-.08.36-.16.71-.24,1C1.24,6.05,1,7.23.87,8.19S.62,9.92.54,10.43s-.08.79-.08.79,0,.28-.09.79S.24,13.29.18,14.27a70.25,70.25,0,0,0-.12,8.17A82,82,0,0,0,1.4,34.15a80.49,80.49,0,0,0,3.78,13.4C6,49.82,7,52.06,8.11,54.26a71.67,71.67,0,0,0,3.64,6.33A55.83,55.83,0,0,0,16,66.28c.75.88,1.53,1.71,2.32,2.52L19.52,70c.19.2.41.38.61.56l.52.45c1,.93,1.93,1.57,2.36,1.93a14.43,14.43,0,0,0,2.24,1.36,21.77,21.77,0,0,0,2.25.8c-.62-.62-1.15-1.12-1.72-1.61a22.32,22.32,0,0,0-2-1.61c-.41-.35-1.31-1-2.28-1.87l-.5-.44c-.2-.18-.41-.35-.59-.54l-1.16-1.13c-.76-.78-1.52-1.6-2.26-2.45a56,56,0,0,1-4.15-5.55,68.8,68.8,0,0,1-3.57-6.2c-1.05-2.16-2-4.35-2.88-6.58A79.73,79.73,0,0,1,2.71,33.9,79.06,79.06,0,0,1,1.39,22.38a70.31,70.31,0,0,1,.11-8c.06-1,.13-1.7.19-2.21s.09-.78.09-.78,0-.26.08-.77S2,9.35,2.18,8.41s.36-2.1.66-3.41c.07-.33.15-.67.23-1,0-.17.08-.35.13-.53A2.93,2.93,0,0,1,3.33,3,2.37,2.37,0,0,1,4.6,1.63a3,3,0,0,1,2.11-.19A3.06,3.06,0,0,1,8.46,2.93a34.16,34.16,0,0,1,2.37,5.58,88.25,88.25,0,0,0,5.61,12.73A88.74,88.74,0,0,0,34,43.34c.78.73,1.54,1.45,2.32,2.11l1.13,1,.55.48.43.36.65.54.94.77A16.54,16.54,0,0,0,44.28,51.12Z"/></symbol><symbol id="Fuzzballs_body_1" data-name="Fuzzballs_body_1" viewBox="0 0 171.59 170.84"><path class="cls-1" d="M162.32,99.66l-.86-.31a5.33,5.33,0,0,0,.9-.41l2.13-1.15L162.83,96a4,4,0,0,0-2.25-1.36l-3.67-.75-.21,0,2.63.34c.61.08,1.15.13,1.64.15a19.05,19.05,0,0,0,3.16-.16l7.46-.86-7-2.74A18,18,0,0,0,160,89.34L157.25,89l2.23.12a3.42,3.42,0,0,0,2.44-1l1.48-1.27-1.34-1.43a3.53,3.53,0,0,0-2-1.19,4.29,4.29,0,0,0,1.94-.87l2.05-1.5-2-1.51a4,4,0,0,0-2.57-.95h-1l2.34-.35a3.94,3.94,0,0,0,2.34-1.33L164.8,76l-2.14-1.18a3.9,3.9,0,0,0-2.66-.59l-1.25.19A4,4,0,0,0,160,73.17l1.24-1.75-1.9-1-.23-.11,1.45-.41A16.84,16.84,0,0,0,165,68l6.45-3.84-7.5.37a18.51,18.51,0,0,0-4.71.72l-3.4,1,.76-.28a4.36,4.36,0,0,0,2.1-1.77l1.55-2.23-2.63-.65a4.33,4.33,0,0,0-2.77.07l-4.09,1.54a1.24,1.24,0,0,0-.23-.12l6-2.86a4.2,4.2,0,0,0,1.92-1.94l1.28-2.28-2.58-.47a4.24,4.24,0,0,0-2.74.27l-6.33,3c.58-.34,1.08-.6,1.08-.6s.65-.35,1.37-.69,1.36-.61,1.67-.73a3.81,3.81,0,0,0,1.62-1.15l1.85-1.91-2-1.21a3.56,3.56,0,0,0-3.11-.34l-.06,0a5.12,5.12,0,0,0,.78-1.22l1.1-2.29-2.51-.37a4.06,4.06,0,0,0-2.71.36l-1.4.18a3,3,0,0,0,1.3-2.26l.23-1.55-1.49-.5c-.12,0-.27-.09-.44-.13l1.91-1a4.57,4.57,0,0,0,1.93-2l1.41-2.53-2.88-.24a4.72,4.72,0,0,0-2.79.48l-.8.43a5.36,5.36,0,0,0,.3-.94l.56-2.35-2.42.05a4,4,0,0,0-2.52.75l-3,2.23-.17.12,2-1.72a18,18,0,0,0,3.2-3.58l4.35-6.11-6.71,3.35a18,18,0,0,0-4,2.62l-2.07,1.77,1.59-1.56a3.43,3.43,0,0,0,.91-2.46l0-2-2,0A3.56,3.56,0,0,0,132,30a4.44,4.44,0,0,0,.62-2l.25-2.53-2.48.51A4.09,4.09,0,0,0,128,27.29l-.69.76,1.31-2a3.93,3.93,0,0,0,.57-2.62L129,21l-2.31.8a3.91,3.91,0,0,0-2.21,1.58l-.12.18a4.41,4.41,0,0,0,.14-2L124.2,19l-2.32,1.06-.16.08a16.5,16.5,0,0,0,1.52-4.37l1.6-7.32L120,14.16a19.7,19.7,0,0,0-2.71,3.89L116,20.39a4.35,4.35,0,0,0,.11-2.65l-.57-2.64-2.27,1.47a4.37,4.37,0,0,0-1.84,2.07l.12-2.23a4.2,4.2,0,0,0-.1-2.73l-.8-2.5-2.1,1.57a4.26,4.26,0,0,0-1.68,2.19l-2.13,6.66c.15-.66.3-1.2.3-1.2s.19-.71.43-1.47c.11-.34.3-.94.6-1.72a3.74,3.74,0,0,0,.27-2l-.13-2.65-2.28.66a3.49,3.49,0,0,0-1.9,1.27,5.14,5.14,0,0,0-.26-2.09l-.86-2.81-2.18,2A4.67,4.67,0,0,0,97.17,14l-1.53,5.5c-.06-.16-.13-.31-.19-.45l-.08-.17,1.09-5.76A4.05,4.05,0,0,0,96,10.41L94.93,8.14l-1.86,1.7a4,4,0,0,0-1.42,2.33L90.73,17c0-.18-.07-.37-.11-.56l.28-4.25a16.59,16.59,0,0,0-.4-4.83L89,0,86.87,7.2A19.29,19.29,0,0,0,86,11.88L85.67,17l-.09-3.19a4.36,4.36,0,0,0-1-2.57L83,9.1l-1.47,2.27A4.3,4.3,0,0,0,80.68,14l.14,5a2.59,2.59,0,0,0-.19-.33l-.75-6.81a4.2,4.2,0,0,0-1.2-2.45l-1.75-2L75.65,9.8A4.18,4.18,0,0,0,75,12.48l.76,7c-.13-.66-.22-1.21-.22-1.21s-.11-.73-.2-1.52-.13-1.57-.15-1.82a3.8,3.8,0,0,0-.55-1.9c-.05-.08-.09-.17-.14-.26L73.45,10.6l-1.81,1.53A3.55,3.55,0,0,0,70.3,15V15a4.79,4.79,0,0,0-.9-1.15L67.6,12.1l-1.17,2.25A4.06,4.06,0,0,0,65.89,17l.64,4.12c-.09.07-.19.13-.28.21l-.65-2.95a3,3,0,0,0-1.71-2l-1.4-.73-1,1.25a5,5,0,0,0-.3.41l-.33-1.88A4.64,4.64,0,0,0,59.58,13l-2-2.12-1.12,2.67a4.58,4.58,0,0,0-.4,2.79l.16.9a6.79,6.79,0,0,0-.81-.58l-2.06-1.26-.7,2.32a4,4,0,0,0-.06,2.63l.71,2.13L53,22.08l-.16-.38a17.68,17.68,0,0,0-2.41-4.15l-4.47-6,1.12,7.42a17.79,17.79,0,0,0,1.24,4.65l1,2.52-1-2a3.36,3.36,0,0,0-2.06-1.63l-1.84-.65-.56,1.87a3.44,3.44,0,0,0,0,2.29,4.39,4.39,0,0,0-1.72-1.21l-2.32-1-.29,2.52A4.07,4.07,0,0,0,40,29l.51.89L39,28a3.93,3.93,0,0,0-2.32-1.36l-2.37-.6,0,2.44a4,4,0,0,0,.82,2.6l.84,1a4.25,4.25,0,0,0-1.5-.4l-2.13-.23.06,2.14c0,.09,0,.19,0,.3a17.58,17.58,0,0,0-3.15-2.32l-6.4-3.92,3.82,6.46A17.92,17.92,0,0,0,29.65,38l.71.72-.54-.46a4.33,4.33,0,0,0-2.56-1L24.56,37l.7,2.62a4.41,4.41,0,0,0,1.4,2.39l3.61,3.07-.33,0-5.36-3.86A4.2,4.2,0,0,0,22,40.5H19.33L20.17,43a4.27,4.27,0,0,0,1.56,2.27l5.57,4c-.53-.32-.94-.59-.94-.59s-.61-.4-1.26-.86-1.19-.9-1.45-1.11a3.78,3.78,0,0,0-1.79-.86l-2.57-.69-.07,2.36a3.55,3.55,0,0,0,1.2,2.89l0,0A4.78,4.78,0,0,0,19,50.35l-2.54.14.89,2.38A4.14,4.14,0,0,0,19,55.07s5.39,3.72,5.14,3.56l-4.3-2.43a3,3,0,0,0-2.61,0l-1.47.55.28,1.54c0,.13.06.31.12.5l-1.62-1a4.68,4.68,0,0,0-2.73-.66l-2.89.05,1.24,2.62A4.56,4.56,0,0,0,12,61.91l.78.49a5.53,5.53,0,0,0-1,.21l-2.32.69,1.25,2.07a4,4,0,0,0,1.92,1.8l1.6.7-.72-.08a17.8,17.8,0,0,0-4.45-.9l-7.47-.71,6.26,4.13a17.69,17.69,0,0,0,4.28,2.19l2.58.91-2.15-.59a3.38,3.38,0,0,0-2.59.44l-1.71.94,1,1.67A3.44,3.44,0,0,0,11,77.44a4.29,4.29,0,0,0-2.08.46l-2.31,1,1.67,1.9a4.14,4.14,0,0,0,2.32,1.47l1,.21-2.36-.14h0a4,4,0,0,0-2.56.81l-2,1.37,1.85,1.6A4,4,0,0,0,9,87.28l1.38.08A4.34,4.34,0,0,0,9,88.21L7.4,89.64,9,91a.1.1,0,0,0,.05,0c-.83,0-1.58.08-1.87.1a4.8,4.8,0,0,0-2.67,1L2,93.93l2.69,1.43A5,5,0,0,0,7,96.05a3.38,3.38,0,0,0,.45,0l4.72-.15-1.5.2a4.29,4.29,0,0,0-2.45,1.25l-2,1.81,2.41,1.23a4.62,4.62,0,0,0,2,.6,4.6,4.6,0,0,0,.73,0l5.06-.68-.19.19L9.36,102a4.19,4.19,0,0,0-2.31,1.45l-1.76,1.94,2.41,1a4.62,4.62,0,0,0,1.71.45,4.15,4.15,0,0,0,1-.09l6.83-1.48-1.18.34s-.71.19-1.49.36-1.54.3-1.79.34a3.83,3.83,0,0,0-1.84.75,2.5,2.5,0,0,1-.24.16l-2,1.28,1.72,1.64a3.49,3.49,0,0,0,2.37,1,5.66,5.66,0,0,0,.58,0h.06a5,5,0,0,0-1,1l-1.6,2,2.37.93a4.47,4.47,0,0,0,1.57.38,4,4,0,0,0,1.15-.12s6.52-1.56,6.09-1.43l-4.69,1.57a3,3,0,0,0-1.77,1.91L15,118.86l1.34.82.45.25-1.84.53A4.65,4.65,0,0,0,12.6,122l-1.9,2.18,2.77.84a5.85,5.85,0,0,0,1.43.27,4.25,4.25,0,0,0,1.39-.17l.88-.25a5.85,5.85,0,0,0-.49.86l-1,2.19,2.38.45a5.65,5.65,0,0,0,.92.12,3.6,3.6,0,0,0,1.7-.34l2.3-1-.34.3-.68.37A17.56,17.56,0,0,0,18,130.66l-5.53,5.07,7.26-1.89a17.6,17.6,0,0,0,4.49-1.71l2.41-1.31L24.79,132a3.41,3.41,0,0,0-1.41,2.21l-.45,1.91,1.92.36a4.54,4.54,0,0,0,.77.1,3.17,3.17,0,0,0,1.53-.32,4.37,4.37,0,0,0-1,1.86l-.77,2.41,2.53,0a4.09,4.09,0,0,0,2.64-.73l.83-.61-1.68,1.66a4,4,0,0,0-1.11,2.46l-.35,2.42,2.42-.31a3.92,3.92,0,0,0,2.5-1.09L35.54,142l-2.14,2.74a4.67,4.67,0,0,0-1,2.52L32.08,150l2.7-.73.57-.18c-.33.59-.62,1.2-1,1.94l-3.06,6.84,5.92-4.61a16.65,16.65,0,0,0,3-2.81,5.91,5.91,0,0,0-.1,1.17v2.7l2.53-1a4.26,4.26,0,0,0,2.23-1.64l-.58,2.16a4.17,4.17,0,0,0-.47,2.69l.26,2.61,2.38-1.1a4.17,4.17,0,0,0,2.1-1.79l3.47-6.07c-.29.61-.54,1.11-.54,1.11s-.34.65-.73,1.35c-.25.45-.58,1-.94,1.55a3.76,3.76,0,0,0-.67,1.87c0,.09,0,.19-.05.29l-.38,2.34,2.36-.17a3.56,3.56,0,0,0,2.75-1.51l0,0a5.31,5.31,0,0,0,.06,1.45l.41,2.51,2.27-1.14a4.12,4.12,0,0,0,2-1.85l1-1a3,3,0,0,0,.23,2.6l.7,1.41,1.51-.45a3.93,3.93,0,0,0,1.19-.56l-.38.89-.07.17a4.06,4.06,0,0,0-.2,2.64l.49,2.45L65.36,165a4,4,0,0,0,2-1.93c.08-.17.21-.46.36-.81l.83,1.41,1.59-.89.06,0a4.41,4.41,0,0,0,.21,2.74l1,2.68,2.08-1.93a4.6,4.6,0,0,0,1.5-2.27l0-.11c.12-.41.39-1.33.67-2.16l1.25-3.67a38.9,38.9,0,0,1,.11,4.48,3.37,3.37,0,0,0,.71,2.53l1.11,1.61,1.55-1.18a3.47,3.47,0,0,0,1.39-1.87,4.39,4.39,0,0,0,.67,2l1.28,2.2L85.39,166a4.07,4.07,0,0,0,1.22-2.45l.11-1,.11,2.37a4,4,0,0,0,1.07,2.46l1.57,1.88,1.4-2a3.9,3.9,0,0,0,.85-2.58l-.06-1.38a4.38,4.38,0,0,0,1,1.25l1.58,1.43,1.21-1.76a3.6,3.6,0,0,0,.76-2.56l0-.25c.2.78.37,1.56.43,1.87A4.79,4.79,0,0,0,98,165.62l2,2.1,1.1-2.67a6,6,0,0,0,.37-1.15l.41.38,2,1.81,1-2.52a4.37,4.37,0,0,0,.28-2.77l-1-4,.19-.13,2,6.05a4.21,4.21,0,0,0,1.69,2.14l2.11,1.55.78-2.5a4.3,4.3,0,0,0,.07-2.76l-2.19-6.64c.26.62.46,1.14.46,1.15s.26.68.52,1.44.45,1.5.52,1.74a3.69,3.69,0,0,0,.94,1.75l.19.22,1.48,1.85,1.45-1.87a3.54,3.54,0,0,0,.72-3l0-.06a5.21,5.21,0,0,0,1.12.92l2.14,1.38.67-2.45a4.08,4.08,0,0,0,0-2.74l-1.71-4.5.23-.15,1.48,3.25a3,3,0,0,0,2.08,1.56l1.51.42.68-1.42a4.73,4.73,0,0,0,.2-.47l.72,1.78a4.62,4.62,0,0,0,1.81,2.12l2.37,1.67.54-2.84a4.69,4.69,0,0,0-.19-2.82l-.34-.85a5.06,5.06,0,0,0,.91.4l2.28.81.2-2.42a3.94,3.94,0,0,0-.49-2.58l-1.9-3.23-.1-.19,1.5,2.19a18,18,0,0,0,3.23,3.56l5.62,5-2.64-7a17.46,17.46,0,0,0-2.17-4.29l-1.55-2.25,1.39,1.74a3.42,3.42,0,0,0,2.35,1.17l1.94.25.17-2a3.59,3.59,0,0,0-.44-2.25,4.25,4.25,0,0,0,1.93.83l2.48.51-.24-2.52a4.15,4.15,0,0,0-1-2.55l-.69-.76,1.83,1.5a4,4,0,0,0,2.51.85h0l2.45.1-.55-2.39a4,4,0,0,0-1.35-2.36l-1.05-.86a3.23,3.23,0,0,0,.74.11,5.6,5.6,0,0,0,.83,0l2.12-.22-.5-2.07A4.73,4.73,0,0,0,148,131a18.84,18.84,0,0,0,4,1.73l7.14,2.35-5.21-5.42a16.6,16.6,0,0,0-3.44-2.88,3.9,3.9,0,0,0,1.06.19,6.27,6.27,0,0,0,1,0l2.69-.29L154,124.2a4.43,4.43,0,0,0-1.87-2.06s-4-2.3-4-2.35l6.17,2.71a3.61,3.61,0,0,0,1.38.32,5.25,5.25,0,0,0,1.34-.14l2.57-.53-1.34-2.25a4.31,4.31,0,0,0-2-1.9l-6.41-2.82,1.17.43s.68.26,1.41.58c.48.2,1.09.49,1.65.78a3.78,3.78,0,0,0,1.93.47h.29l2.37.13-.42-2.33a3.6,3.6,0,0,0-1.78-2.57l-.07,0a5,5,0,0,0,1.44-.21l2.45-.67-1.36-2.14a4.21,4.21,0,0,0-2.06-1.81L152.21,106a2.56,2.56,0,0,0,.11-.24l3.48,1.1a2.82,2.82,0,0,0,2.56-.51l1.33-.84-.6-1.45c-.06-.12-.12-.28-.22-.46l1.8.65a4.31,4.31,0,0,0,1.28.25,5.62,5.62,0,0,0,1.52-.17l2.82-.65-1.75-2.3A4.64,4.64,0,0,0,162.32,99.66Z"/><path class="cls-2" d="M87.6,17a18,18,0,0,0,.83-4.59c0-.32,0-.85.11-1.95,0-.28.06-.94.06-.94s0-.56.06-.87c.08-1.47.14-2.38.16-2.86a15.75,15.75,0,0,0-.42-4.66,18.2,18.2,0,0,0-.83,4.59c0,.48-.08,1.39-.17,2.85,0,.31-.05.87-.05.87s0,.66-.06.94c-.06,1.11-.09,1.64-.11,2A15.68,15.68,0,0,0,87.6,17Z"/><path class="cls-2" d="M82.45,6.19a2.74,2.74,0,0,0-.57,1.69c0,.76.15,4.52.15,4.52s.13,3.76.16,4.52a2.64,2.64,0,0,0,.68,1.64,2.7,2.7,0,0,0,.57-1.69c0-.75-.15-4.51-.15-4.51s-.13-3.77-.16-4.52A2.69,2.69,0,0,0,82.45,6.19Z"/><path class="cls-2" d="M76.22,4.44a2.55,2.55,0,0,0-.43,1.68c.08.72.5,4.35.5,4.35s.42,3.62.51,4.35a2.55,2.55,0,0,0,.8,1.54A2.52,2.52,0,0,0,78,14.68c-.08-.73-.5-4.35-.5-4.35S77.12,6.7,77,6A2.51,2.51,0,0,0,76.22,4.44Z"/><path class="cls-2" d="M71.48,7.52A1.78,1.78,0,0,0,70.77,9c0,.35.07,1.36.19,2.28s.25,1.74.25,1.74.13.83.32,1.73.45,1.89.56,2.22a1.75,1.75,0,0,0,1.16,1.16,3,3,0,0,0,0-1.53c-.08-.31-.34-1.23-.52-2.11s-.31-1.67-.31-1.67-.13-.81-.24-1.69S72,9.27,72,9A2.85,2.85,0,0,0,71.48,7.52Z"/><path class="cls-2" d="M66.4,9.32A2.45,2.45,0,0,0,66,11c.12.7.68,4.18.68,4.18s.57,3.49.68,4.19a2.51,2.51,0,0,0,.87,1.45,2.45,2.45,0,0,0,.37-1.65C68.52,18.44,68,15,68,15s-.57-3.49-.68-4.19A2.41,2.41,0,0,0,66.4,9.32Z"/><path class="cls-2" d="M61,12.45c-.32.42-.48.69-.4,1.08l.59,2.56s.48,2.13.58,2.56.36.56.83.8c.31-.41.47-.68.39-1.08s-.58-2.56-.58-2.56l-.59-2.56C61.73,12.86,61.46,12.69,61,12.45Z"/><path class="cls-2" d="M34,39a17,17,0,0,0-2.82-3.71l-1.39-1.39-.06-.06,0,0c-.84-.83-1.75-1.74-2-2.05A17.33,17.33,0,0,0,24,28.89a17,17,0,0,0,2.82,3.72c.31.3,1.21,1.22,2,2l0,0,.06.07,1.39,1.38A16.7,16.7,0,0,0,34,39Z"/><path class="cls-2" d="M22.63,35.26a2.65,2.65,0,0,0,.87,1.55L27,39.72l3.46,2.91a2.7,2.7,0,0,0,1.68.59,2.7,2.7,0,0,0-.87-1.55l-3.46-2.91-3.46-2.91A2.64,2.64,0,0,0,22.63,35.26Z"/><path class="cls-2" d="M17.16,38.71a2.55,2.55,0,0,0,.95,1.45l3.57,2.53,3.58,2.54a2.56,2.56,0,0,0,1.68.43,2.57,2.57,0,0,0-1-1.45l-3.57-2.54-3.57-2.53A2.52,2.52,0,0,0,17.16,38.71Z"/><path class="cls-2" d="M16.27,44.29a1.82,1.82,0,0,0,.62,1.52c.26.22,1.06.86,1.82,1.38s1.46,1,1.46,1,.71.45,1.5.92,1.71.93,2,1.07a1.74,1.74,0,0,0,1.64-.09c-.42-.48-.58-.81-1.11-1-.28-.13-1.14-.56-1.91-1s-1.46-.89-1.46-.89-.68-.44-1.42-1S18,45.05,17.7,44.85A2.86,2.86,0,0,0,16.27,44.29Z"/><path class="cls-2" d="M30.39,29.26a1.86,1.86,0,0,0,.43,1.39l2.43,2.6s2,2.17,2.43,2.61a1.89,1.89,0,0,0,1.36.53A1.84,1.84,0,0,0,36.6,35L34.17,32.4l-2.43-2.61A1.88,1.88,0,0,0,30.39,29.26Z"/><path class="cls-2" d="M32.4,23.74a2.21,2.21,0,0,0,.46,1.56c.42.54,2.56,3.18,2.56,3.18L38,31.66a2.31,2.31,0,0,0,1.44.78A2.31,2.31,0,0,0,39,30.88L36.4,27.7l-2.56-3.18A2.36,2.36,0,0,0,32.4,23.74Z"/><path class="cls-2" d="M37.89,21.59a2.41,2.41,0,0,0,.25,1.66c.35.62,2.13,3.66,2.13,3.66l2.13,3.66a2.44,2.44,0,0,0,1.33,1,2.44,2.44,0,0,0-.25-1.67l-2.13-3.66-2.13-3.66A2.47,2.47,0,0,0,37.89,21.59Z"/><path class="cls-2" d="M42.48,19.15a1.65,1.65,0,0,0,0,1.36L44,23.42l1.48,2.91a1.67,1.67,0,0,0,1.11.78,1.73,1.73,0,0,0,0-1.36l-1.49-2.91-1.49-2.91A1.65,1.65,0,0,0,42.48,19.15Z"/><path class="cls-2" d="M45.91,13.14a17,17,0,0,0,1.23,4.5c.12.31.33.79.76,1.81l.23.55s.14.32.21.5c.57,1.35.93,2.19,1.12,2.63a16.94,16.94,0,0,0,2.38,4,17.14,17.14,0,0,0-1.23-4.51c-.18-.44-.54-1.28-1.11-2.63-.08-.18-.21-.5-.21-.5L49.06,19l-.77-1.8A16.75,16.75,0,0,0,45.91,13.14Z"/><path class="cls-2" d="M55.48,23.17a2.36,2.36,0,0,0,.07-1.61l-1.3-3.82s-1.06-3.2-1.3-3.84a2.22,2.22,0,0,0-1.11-1.19,2.37,2.37,0,0,0-.08,1.61l1.3,3.82s1.06,3.2,1.31,3.84A2.22,2.22,0,0,0,55.48,23.17Z"/><path class="cls-2" d="M14.21,49.27a2.42,2.42,0,0,0,1,1.38L18.76,53l3.56,2.29a2.44,2.44,0,0,0,1.66.33,2.38,2.38,0,0,0-1-1.38l-3.56-2.3L15.87,49.6A2.43,2.43,0,0,0,14.21,49.27Z"/><path class="cls-2" d="M12.92,55.38c.1.52.2.82.54,1l2.29,1.28L18.05,59c.35.19.66.11,1.15-.08-.1-.51-.2-.81-.54-1l-2.29-1.27-2.3-1.28C13.72,55.12,13.41,55.2,12.92,55.38Z"/><path class="cls-2" d="M58.22,21.45a3,3,0,0,0,.29-1.87c-.15-.79-.88-4.76-.88-4.76s-.73-4-.87-4.76a3.07,3.07,0,0,0-.94-1.64,3,3,0,0,0-.29,1.87c.14.8.87,4.76.87,4.76s.73,4,.88,4.76A2.94,2.94,0,0,0,58.22,21.45Z"/><path class="cls-2" d="M13.91,93.12a3.26,3.26,0,0,0-1.92-.5l-2.84.14-2.22.08-2.23.07c-1.17,0-2.44.12-2.87.15A3.24,3.24,0,0,0,0,93.81a3.3,3.3,0,0,0,1.91.5l2.84-.14L7,94.09,9.2,94c1.17,0,2.45-.12,2.87-.15A3.3,3.3,0,0,0,13.91,93.12Z"/><path class="cls-2" d="M4.2,99.16a2.64,2.64,0,0,0,1.74.39l4.47-.62,4.48-.63a2.7,2.7,0,0,0,1.56-.85,2.64,2.64,0,0,0-1.74-.39l-4.47.62-4.48.63A2.7,2.7,0,0,0,4.2,99.16Z"/><path class="cls-2" d="M3.1,105.54a2.6,2.6,0,0,0,1.72.25l4.27-1,4.28-1a2.59,2.59,0,0,0,1.44-1,2.51,2.51,0,0,0-1.71-.26l-4.28,1-4.28,1A2.56,2.56,0,0,0,3.1,105.54Z"/><path class="cls-2" d="M6.66,109.93a1.79,1.79,0,0,0,1.54.55c.34,0,1.35-.21,2.24-.42s1.71-.44,1.71-.44.81-.21,1.69-.49,1.83-.65,2.15-.79a1.78,1.78,0,0,0,1-1.28,3.08,3.08,0,0,0-1.53.13c-.29.12-1.18.47-2,.74s-1.63.49-1.63.49-.79.21-1.66.41-1.82.36-2.13.41A2.92,2.92,0,0,0,6.66,109.93Z"/><path class="cls-2" d="M4.93,89.38a1.88,1.88,0,0,0,1.33.6l3.56-.06,3.56-.06a1.88,1.88,0,0,0,1.31-.65,1.9,1.9,0,0,0-1.33-.6l-3.56.06-3.57.06A1.88,1.88,0,0,0,4.93,89.38Z"/><path class="cls-2" d="M2.18,84.19a2.25,2.25,0,0,0,1.46.71l4.08.22,4.08.22a2.32,2.32,0,0,0,1.54-.55,2.24,2.24,0,0,0-1.46-.7L7.8,83.87l-4.08-.22A2.31,2.31,0,0,0,2.18,84.19Z"/><path class="cls-2" d="M4.25,78.67a2.42,2.42,0,0,0,1.41.93l4.14.87,4.15.86A2.38,2.38,0,0,0,15.6,81a2.4,2.4,0,0,0-1.4-.93l-4.14-.86-4.15-.86A2.4,2.4,0,0,0,4.25,78.67Z"/><path class="cls-2" d="M5.51,73.63a1.68,1.68,0,0,0,1,.92l3.15.84,3.16.84a1.66,1.66,0,0,0,1.32-.3,1.69,1.69,0,0,0-1-.91L10,74.17l-3.16-.84A1.64,1.64,0,0,0,5.51,73.63Z"/><path class="cls-2" d="M3.34,67.06a17.12,17.12,0,0,0,4.17,2.1l1.85.64.56.2.51.18,2.71.93a17,17,0,0,0,4.58.92,17,17,0,0,0-4.17-2.11L10.85,69l-.52-.17-.56-.2L7.92,68A16.69,16.69,0,0,0,3.34,67.06Z"/><path class="cls-2" d="M17.2,66.66a2.38,2.38,0,0,0-1.15-1.13l-3.71-1.59s-3.09-1.36-3.72-1.6a2.19,2.19,0,0,0-1.63,0A2.34,2.34,0,0,0,8.14,63.5l3.7,1.59s3.09,1.36,3.73,1.6A2.19,2.19,0,0,0,17.2,66.66Z"/><path class="cls-2" d="M9,114.79a2.42,2.42,0,0,0,1.68.2l4.09-1.12,4.1-1.11a2.44,2.44,0,0,0,1.34-1,2.44,2.44,0,0,0-1.67-.19l-4.1,1.11-4.09,1.12A2.41,2.41,0,0,0,9,114.79Z"/><path class="cls-2" d="M12.66,119.84c.45.27.74.4,1.12.28l2.48-.85,2.49-.85c.37-.14.52-.41.71-.9-.45-.27-.73-.4-1.12-.28l-2.48.85-2.49.84C13,119.07,12.85,119.35,12.66,119.84Z"/><path class="cls-2" d="M17.75,63.48A2.94,2.94,0,0,0,16.56,62l-4.12-2.54L8.31,56.94a3,3,0,0,0-1.85-.4A3,3,0,0,0,7.66,58l4.12,2.53,4.12,2.53A3,3,0,0,0,17.75,63.48Z"/><path class="cls-2" d="M41.64,144.29a15.5,15.5,0,0,0-3.3,3.32l-1.15,1.6-.1.14-.05.07-1.7,2.37a18.81,18.81,0,0,0-2.29,4.06,15.28,15.28,0,0,0,3.3-3.32c.25-.36,1-1.41,1.72-2.38l0-.08a1,1,0,0,0,.1-.13c.65-.89.95-1.32,1.14-1.59A18.81,18.81,0,0,0,41.64,144.29Z"/><path class="cls-2" d="M39.35,155.62a2.71,2.71,0,0,0,1.46-1l2.53-3.75,2.53-3.74a2.68,2.68,0,0,0,.41-1.74,2.73,2.73,0,0,0-1.45,1l-2.53,3.75-2.53,3.74A2.75,2.75,0,0,0,39.35,155.62Z"/><path class="cls-2" d="M43.36,160.7a2.59,2.59,0,0,0,1.34-1.11l2.15-3.81L49,152a2.59,2.59,0,0,0,.25-1.72,2.58,2.58,0,0,0-1.34,1.1l-2.15,3.82L43.61,159A2.59,2.59,0,0,0,43.36,160.7Z"/><path class="cls-2" d="M49,161a1.8,1.8,0,0,0,1.45-.77c.19-.29.74-1.15,1.18-1.95s.82-1.56.82-1.56.38-.75.76-1.59.75-1.79.86-2.12a1.76,1.76,0,0,0-.27-1.62c-.43.46-.74.66-.92,1.21-.11.3-.44,1.2-.82,2s-.73,1.55-.73,1.55-.37.72-.8,1.5-1,1.6-1.12,1.86A2.94,2.94,0,0,0,49,161Z"/><path class="cls-2" d="M31.07,151.23a2.71,2.71,0,0,0,1.59-.94c.52-.6,2.87-3.72,2.87-3.72s2.36-3.07,2.84-3.68a3,3,0,0,0,.61-1.73,2.74,2.74,0,0,0-1.59.94c-.51.6-2.86,3.72-2.86,3.72l-2.85,3.69A3,3,0,0,0,31.07,151.23Z"/><path class="cls-2" d="M26.88,147.1a2.25,2.25,0,0,0,1.51-.62l2.89-2.88,2.89-2.88a2.31,2.31,0,0,0,.63-1.52,2.35,2.35,0,0,0-1.51.62c-.48.49-2.89,2.89-2.89,2.89l-2.89,2.88A2.3,2.3,0,0,0,26.88,147.1Z"/><path class="cls-2" d="M24.17,141.87a2.47,2.47,0,0,0,1.63-.42l3.41-2.51,3.42-2.5a2.39,2.39,0,0,0,.89-1.43,2.4,2.4,0,0,0-1.63.42l-3.42,2.5-3.41,2.51A2.39,2.39,0,0,0,24.17,141.87Z"/><path class="cls-2" d="M21.26,137.56a1.67,1.67,0,0,0,1.35-.14l2.74-1.78,2.74-1.78a1.67,1.67,0,0,0,.66-1.18,1.67,1.67,0,0,0-1.35.13l-2.74,1.79-2.74,1.78A1.67,1.67,0,0,0,21.26,137.56Z"/><path class="cls-2" d="M14.92,134.77a17.08,17.08,0,0,0,4.36-1.69l1.71-.94.52-.29.48-.26,2.5-1.39a17.4,17.4,0,0,0,3.75-2.78,16.81,16.81,0,0,0-4.36,1.68l-2.5,1.38-.47.27-.52.28c-1,.54-1.43.8-1.72.95A17.11,17.11,0,0,0,14.92,134.77Z"/><path class="cls-2" d="M23.9,124.21a2.32,2.32,0,0,0-1.61.1L18.63,126s-3.07,1.38-3.68,1.7a2.16,2.16,0,0,0-1.07,1.22,2.38,2.38,0,0,0,1.61-.09l3.66-1.69s3.07-1.39,3.68-1.7A2.21,2.21,0,0,0,23.9,124.21Z"/><path class="cls-2" d="M54.17,162.52a2.42,2.42,0,0,0,1.27-1.12l1.91-3.78,1.91-3.79a2.42,2.42,0,0,0,.15-1.68,2.48,2.48,0,0,0-1.27,1.11c-.31.64-1.91,3.79-1.91,3.79l-1.91,3.79A2.47,2.47,0,0,0,54.17,162.52Z"/><path class="cls-2" d="M60.39,163.16c.5-.15.79-.27,1-.64l1-2.41,1-2.42a1.28,1.28,0,0,0-.2-1.13c-.5.15-.79.28-1,.64s-1,2.41-1,2.41l-1,2.42C60,162.4,60.15,162.7,60.39,163.16Z"/><path class="cls-2" d="M21.91,121.67a3,3,0,0,0-1.89-.1l-4.65,1.37-4.64,1.37a3,3,0,0,0-1.53,1.1,3,3,0,0,0,1.89.1l4.64-1.37,4.64-1.37A3,3,0,0,0,21.91,121.67Z"/><path class="cls-2" d="M97.38,156.1a2.8,2.8,0,0,0-.22,1.89c.1.4.42,1.59.79,2.64l.68,2s.32.94.61,2,.55,2.21.63,2.6a3.12,3.12,0,0,0,1,1.62,2.92,2.92,0,0,0,.27-1.88c-.07-.4-.34-1.6-.65-2.68s-.63-2-.63-2-.32-1-.68-2-.66-2.17-.76-2.55A3.11,3.11,0,0,0,97.38,156.1Z"/><path class="cls-2" d="M104.83,167.27a2.67,2.67,0,0,0,.21-1.77c-.18-.74-1.09-4.39-1.09-4.39s-.91-3.65-1.09-4.39a2.66,2.66,0,0,0-1-1.46,2.66,2.66,0,0,0-.2,1.77l1.08,4.38,1.09,4.39A2.77,2.77,0,0,0,104.83,167.27Z"/><path class="cls-2" d="M111.29,167.69a2.58,2.58,0,0,0,.08-1.73c-.24-.7-1.4-4.16-1.4-4.16l-1.4-4.15a2.53,2.53,0,0,0-1.11-1.33,2.58,2.58,0,0,0-.08,1.73c.24.69,1.4,4.15,1.4,4.15s1.17,3.46,1.4,4.16A2.56,2.56,0,0,0,111.29,167.69Z"/><path class="cls-2" d="M115.28,163.69a1.73,1.73,0,0,0,.39-1.59,21.93,21.93,0,0,0-.65-2.19c-.3-.87-.61-1.65-.61-1.65s-.3-.78-.67-1.62-.84-1.76-1-2.06a1.76,1.76,0,0,0-1.38-.89,3,3,0,0,0,.29,1.5c.15.28.59,1.13,1,1.95s.65,1.58.65,1.58.3.76.59,1.6.55,1.78.63,2.08A2.92,2.92,0,0,0,115.28,163.69Z"/><path class="cls-2" d="M95,167.56a1.87,1.87,0,0,0,.46-1.38c-.07-.6-.43-3.54-.43-3.54s-.36-2.94-.43-3.54a1.9,1.9,0,0,0-.79-1.23,1.89,1.89,0,0,0-.46,1.39c.07.59.44,3.53.44,3.53s.36,3,.43,3.54A1.92,1.92,0,0,0,95,167.56Z"/><path class="cls-2" d="M90.16,170.84a2.31,2.31,0,0,0,.55-1.53c0-.69-.21-4.08-.21-4.08s-.17-3.4-.21-4.08a2.29,2.29,0,0,0-.7-1.48A2.31,2.31,0,0,0,89,161.2c0,.69.21,4.08.21,4.08s.17,3.4.21,4.08A2.29,2.29,0,0,0,90.16,170.84Z"/><path class="cls-2" d="M84.45,169.35a2.4,2.4,0,0,0,.78-1.49l.43-4.21.42-4.22a2.4,2.4,0,0,0-.46-1.61,2.41,2.41,0,0,0-.79,1.49l-.42,4.21L84,167.73A2.48,2.48,0,0,0,84.45,169.35Z"/><path class="cls-2" d="M79.31,168.63a1.66,1.66,0,0,0,.8-1.1c.09-.54.51-3.22.51-3.22s.42-2.69.51-3.23a1.61,1.61,0,0,0-.44-1.28,1.67,1.67,0,0,0-.8,1.09c-.09.54-.51,3.23-.51,3.23s-.42,2.69-.51,3.23A1.62,1.62,0,0,0,79.31,168.63Z"/><path class="cls-2" d="M71.74,169.63a3.06,3.06,0,0,0,1-1.53c.11-.38.42-1.5.76-2.52l.65-2s.32-.94.66-2,.68-2.19.77-2.58a2.72,2.72,0,0,0-.17-1.86,3,3,0,0,0-1,1.53c-.11.38-.43,1.5-.76,2.52l-.66,2s-.31.94-.66,2-.67,2.19-.77,2.58A2.78,2.78,0,0,0,71.74,169.63Z"/><path class="cls-2" d="M71.15,157.74c-.49.27-.76.46-.91.89s-1,2.86-1,2.86-.87,2.4-1,2.91a1.45,1.45,0,0,0,.29,1.26c.49-.27.76-.46.91-.89s1-2.86,1-2.86.87-2.4,1-2.91A1.44,1.44,0,0,0,71.15,157.74Z"/><path class="cls-2" d="M119.88,160.87a2.37,2.37,0,0,0,0-1.68l-1.54-4s-1.28-3.29-1.53-4a2.45,2.45,0,0,0-1.15-1.23,2.4,2.4,0,0,0,0,1.69l1.54,4s1.27,3.3,1.53,4A2.45,2.45,0,0,0,119.88,160.87Z"/><path class="cls-2" d="M124.52,156.69c.22-.48.32-.78.16-1.15l-1.11-2.38s-.91-2-1.1-2.38-.47-.48-1-.61a1.25,1.25,0,0,0-.17,1.14l1.11,2.38s.91,2,1.1,2.38S124,156.55,124.52,156.69Z"/><path class="cls-2" d="M67.93,157.52a2.31,2.31,0,0,0-1.22,1.14c-.14.32-.56,1.29-.91,2.19l-.65,1.71s-.32.8-.66,1.69-.75,1.83-.88,2.14a2.39,2.39,0,0,0-.07,1.65,2.26,2.26,0,0,0,1.21-1.14c.15-.32.57-1.29.91-2.19s.66-1.71.66-1.71l.65-1.69c.35-.88.76-1.83.89-2.14A2.45,2.45,0,0,0,67.93,157.52Z"/><path class="cls-2" d="M143.58,124.22a16,16,0,0,0,3.63,3l1.68,1,1.05.62.95.57,2.46,1.46a18,18,0,0,0,4.27,1.87,16.31,16.31,0,0,0-3.63-2.95l-2.45-1.47-1-.56-1-.62-1.69-1A18.1,18.1,0,0,0,143.58,124.22Z"/><path class="cls-2" d="M157.31,126.4a2.72,2.72,0,0,0-1.18-1.34l-4-2.12-4-2.13a2.69,2.69,0,0,0-1.77-.23,2.72,2.72,0,0,0,1.18,1.34l4,2.12,4,2.13A2.69,2.69,0,0,0,157.31,126.4Z"/><path class="cls-2" d="M161.94,121.89a2.49,2.49,0,0,0-1.24-1.22l-4-1.74-4-1.74a2.56,2.56,0,0,0-1.73-.07,2.56,2.56,0,0,0,1.23,1.22l4,1.74,4,1.74A2.56,2.56,0,0,0,161.94,121.89Z"/><path class="cls-2" d="M161.64,116.24a1.77,1.77,0,0,0-.92-1.35c-.3-.17-1.21-.62-2.06-1s-1.64-.65-1.64-.65-.78-.3-1.65-.59-1.87-.55-2.2-.63a1.77,1.77,0,0,0-1.59.43c.51.38.74.68,1.31.79.3.08,1.23.32,2.08.61s1.61.56,1.61.56.76.29,1.58.64,1.69.78,2,.92A2.88,2.88,0,0,0,161.64,116.24Z"/><path class="cls-2" d="M151,133.88a1.91,1.91,0,0,0-.72-1.27l-2.92-2-2.92-2a1.93,1.93,0,0,0-1.44-.24,1.91,1.91,0,0,0,.72,1.27l2.92,2,2.92,2A1.84,1.84,0,0,0,151,133.88Z"/><path class="cls-2" d="M150.14,139.7a2.27,2.27,0,0,0-.77-1.44l-3.17-2.57L143,133.11a2.34,2.34,0,0,0-1.57-.46,2.25,2.25,0,0,0,.77,1.43l3.17,2.58,3.17,2.57A2.36,2.36,0,0,0,150.14,139.7Z"/><path class="cls-2" d="M145.22,142.94a2.44,2.44,0,0,0-.59-1.58l-2.85-3.13-2.84-3.13a2.39,2.39,0,0,0-1.52-.74,2.44,2.44,0,0,0,.59,1.58l2.85,3.13s2.37,2.61,2.84,3.14A2.46,2.46,0,0,0,145.22,142.94Z"/><path class="cls-2" d="M141.24,146.29A1.71,1.71,0,0,0,141,145l-2.06-2.53-2.05-2.54a1.68,1.68,0,0,0-1.25-.54,1.71,1.71,0,0,0,.28,1.34l2.06,2.53,2.05,2.54A1.73,1.73,0,0,0,141.24,146.29Z"/><path class="cls-2" d="M139.13,152.88a16.81,16.81,0,0,0-2.14-4.16c-.18-.27-.49-.7-1.12-1.61l-.34-.48-.31-.45-1.64-2.34a17.05,17.05,0,0,0-3.16-3.44,16.81,16.81,0,0,0,2.14,4.16l1.63,2.34.31.45.34.49,1.13,1.6A17.05,17.05,0,0,0,139.13,152.88Z"/><path class="cls-2" d="M127.69,145.05a2.37,2.37,0,0,0,.26,1.59l2.06,3.47s1.7,2.91,2.08,3.48a2.13,2.13,0,0,0,1.33.93,2.39,2.39,0,0,0-.26-1.59l-2.07-3.46s-1.7-2.91-2.07-3.48A2.24,2.24,0,0,0,127.69,145.05Z"/><path class="cls-2" d="M162.62,110.94a2.37,2.37,0,0,0-1.24-1.14l-4-1.51-4-1.5a2.4,2.4,0,0,0-1.69,0A2.49,2.49,0,0,0,153,108l4,1.5,4,1.51A2.43,2.43,0,0,0,162.62,110.94Z"/><path class="cls-2" d="M162.61,104.7c-.2-.49-.35-.76-.74-.89l-2.5-.77-2.51-.78c-.39-.11-.67,0-1.11.32.2.48.36.75.74.88l2.51.77,2.5.78C161.89,105.12,162.17,105,162.61,104.7Z"/><path class="cls-2" d="M125.37,147.3a2.91,2.91,0,0,0,.1,1.89l1.84,4.48,1.85,4.47a3,3,0,0,0,1.26,1.41,3,3,0,0,0-.1-1.89l-1.85-4.47-1.84-4.48A3.08,3.08,0,0,0,125.37,147.3Z"/><path class="cls-2" d="M152.58,68.43a17.56,17.56,0,0,0,4.61-.73l1.88-.54,1.79-.51,1.64-.47,2.75-.8a15.91,15.91,0,0,0,4.26-1.93,18,18,0,0,0-4.61.73l-2.74.79-1.64.47-1.8.51-1.88.55A16.23,16.23,0,0,0,152.58,68.43Z"/><path class="cls-2" d="M162.12,60a2.71,2.71,0,0,0-1.78,0l-4.22,1.62L151.9,63.2a2.72,2.72,0,0,0-1.33,1.18,2.65,2.65,0,0,0,1.78,0l4.22-1.62,4.22-1.62A2.59,2.59,0,0,0,162.12,60Z"/><path class="cls-2" d="M161.75,53.49a2.62,2.62,0,0,0-1.73.14l-4,1.9-3.95,1.89a2.53,2.53,0,0,0-1.18,1.27,2.62,2.62,0,0,0,1.73-.14l4-1.89,3.95-1.9A2.53,2.53,0,0,0,161.75,53.49Z"/><path class="cls-2" d="M157.3,50a1.77,1.77,0,0,0-1.63-.19,22.14,22.14,0,0,0-2.09.91c-.83.41-1.57.81-1.57.81s-.73.4-1.53.87a22.19,22.19,0,0,0-1.91,1.25,1.76,1.76,0,0,0-.72,1.48,3.23,3.23,0,0,0,1.46-.47c.26-.18,1.05-.73,1.82-1.18s1.48-.85,1.48-.85.72-.38,1.52-.77,1.69-.76,2-.88C156.67,50.8,156.85,50.48,157.3,50Z"/><path class="cls-2" d="M163.62,69.64a1.88,1.88,0,0,0-1.43-.28l-3.46.86-3.46.86a1.94,1.94,0,0,0-1.12.93,1.88,1.88,0,0,0,1.43.29l3.45-.86,3.46-.87A1.89,1.89,0,0,0,163.62,69.64Z"/><path class="cls-2" d="M167.14,74.28a2.31,2.31,0,0,0-1.59-.38l-4,.63-4,.63a2.33,2.33,0,0,0-1.39.86,2.28,2.28,0,0,0,1.58.38l4-.63,4-.64A2.27,2.27,0,0,0,167.14,74.28Z"/><path class="cls-2" d="M166.25,80.11a2.46,2.46,0,0,0-1.56-.62l-4.24,0-4.23,0a2.42,2.42,0,0,0-1.56.63,2.35,2.35,0,0,0,1.56.62l4.24,0h4.23A2.43,2.43,0,0,0,166.25,80.11Z"/><path class="cls-2" d="M166.07,85.31a1.69,1.69,0,0,0-1.17-.69l-3.26-.17-3.27-.16a1.63,1.63,0,0,0-1.23.56,1.71,1.71,0,0,0,1.18.69l3.26.16,3.26.17A1.62,1.62,0,0,0,166.07,85.31Z"/><path class="cls-2" d="M169.56,91.29a17,17,0,0,0-4.52-1.2l-1.94-.24-.59-.07-.54-.07-2.84-.35a16.77,16.77,0,0,0-4.66,0A16.44,16.44,0,0,0,159,90.6l2.84.36.54.06.58.08,1.95.24A16.85,16.85,0,0,0,169.56,91.29Z"/><path class="cls-2" d="M156.09,94.56a2.33,2.33,0,0,0,1.36.86l4,.79s3.31.68,4,.78a2.19,2.19,0,0,0,1.59-.36,2.36,2.36,0,0,0-1.36-.87l-4-.78s-3.3-.69-4-.79A2.19,2.19,0,0,0,156.09,94.56Z"/><path class="cls-2" d="M153.93,45.8a2.44,2.44,0,0,0-1.67.19l-3.74,2-3.74,2a2.43,2.43,0,0,0-1.08,1.29,2.41,2.41,0,0,0,1.68-.19l3.73-2,3.74-2A2.39,2.39,0,0,0,153.93,45.8Z"/><path class="cls-2" d="M149.21,41.71a1.29,1.29,0,0,0-1.15,0l-2.23,1.39-2.23,1.39c-.33.22-.41.52-.49,1,.5.16.81.23,1.16,0l2.22-1.38,2.23-1.39C149.06,42.54,149.14,42.23,149.21,41.71Z"/><path class="cls-2" d="M156.21,97.78A3,3,0,0,0,157.68,99l4.56,1.62,4.56,1.62a2.91,2.91,0,0,0,1.89,0,3,3,0,0,0-1.47-1.19l-4.56-1.62-4.56-1.62A3,3,0,0,0,156.21,97.78Z"/><path class="cls-2" d="M114.92,25.67a18.93,18.93,0,0,0,2.65-3.84l.91-1.72c.34-.62,1.13-2.1,1.13-2.1l1-1.92c.69-1.3,1.11-2.11,1.34-2.53a15.64,15.64,0,0,0,1.53-4.42A18.51,18.51,0,0,0,120.88,13l-1.35,2.52-1,1.92-1.13,2.09-.91,1.74A15.37,15.37,0,0,0,114.92,25.67Z"/><path class="cls-2" d="M115.92,12.15a2.69,2.69,0,0,0-1.21,1.31L113,17.65l-1.7,4.19a2.71,2.71,0,0,0,0,1.78,2.69,2.69,0,0,0,1.21-1.31c.29-.7,1.7-4.19,1.7-4.19l1.69-4.19A2.65,2.65,0,0,0,115.92,12.15Z"/><path class="cls-2" d="M111,8a2.64,2.64,0,0,0-1.09,1.36c-.21.7-1.3,4.18-1.3,4.18s-1.1,3.48-1.31,4.18a2.52,2.52,0,0,0,.11,1.73,2.51,2.51,0,0,0,1.08-1.35l1.31-4.19,1.31-4.18A2.59,2.59,0,0,0,111,8Z"/><path class="cls-2" d="M105.37,8.9A1.74,1.74,0,0,0,104.11,10c-.13.31-.49,1.27-.75,2.15s-.48,1.69-.48,1.69-.21.81-.41,1.71-.36,1.91-.4,2.26a1.76,1.76,0,0,0,.6,1.53,3.17,3.17,0,0,0,.65-1.38c0-.32.18-1.26.38-2.14s.39-1.66.39-1.66.21-.79.47-1.64.6-1.76.72-2.05A3,3,0,0,0,105.37,8.9Z"/><path class="cls-2" d="M124.89,16a2.45,2.45,0,0,0-1.3,1.08l-2,3.74-2,3.73a2.44,2.44,0,0,0-.21,1.69,2.45,2.45,0,0,0,1.3-1.08c.35-.62,2-3.74,2-3.74s1.7-3.11,2-3.73A2.49,2.49,0,0,0,124.89,16Z"/><path class="cls-2" d="M129.89,17.88a2.27,2.27,0,0,0-1.34.92c-.38.57-2.23,3.42-2.23,3.42l-2.23,3.42a2.33,2.33,0,0,0-.3,1.61,2.24,2.24,0,0,0,1.35-.91l2.22-3.43,2.23-3.42A2.27,2.27,0,0,0,129.89,17.88Z"/><path class="cls-2" d="M133.64,22.44a2.43,2.43,0,0,0-1.51.75l-2.82,3.16-2.82,3.16a2.43,2.43,0,0,0-.58,1.58,2.43,2.43,0,0,0,1.51-.75l2.82-3.16L133.06,24A2.43,2.43,0,0,0,133.64,22.44Z"/><path class="cls-2" d="M137.38,26.05a1.68,1.68,0,0,0-1.3.41l-2.31,2.32-2.31,2.31a1.66,1.66,0,0,0-.4,1.29,1.69,1.69,0,0,0,1.3-.41l2.3-2.32L137,27.34A1.63,1.63,0,0,0,137.38,26.05Z"/><path class="cls-2" d="M144.15,27.46A16.9,16.9,0,0,0,140.24,30l-1.48,1.28-.44.39-.42.35-2.16,1.88a17,17,0,0,0-3.08,3.5,16.64,16.64,0,0,0,3.9-2.56L138.73,33l.41-.35.45-.39L141.07,31A16.75,16.75,0,0,0,144.15,27.46Z"/><path class="cls-2" d="M137.57,39.66a2.32,2.32,0,0,0,1.55-.43l3.23-2.42s2.72-2,3.25-2.43a2.16,2.16,0,0,0,.79-1.42,2.37,2.37,0,0,0-1.56.43l-3.22,2.41s-2.72,2-3.25,2.43A2.2,2.2,0,0,0,137.57,39.66Z"/><path class="cls-2" d="M100.56,6.72a3.12,3.12,0,0,0-1.08,1.59c-.22.79-1.29,4.74-1.29,4.74s-1.08,4-1.29,4.75A3.05,3.05,0,0,0,97,19.71a3.08,3.08,0,0,0,1.09-1.59c.21-.79,1.29-4.75,1.29-4.75s1.08-3.95,1.29-4.74A3.05,3.05,0,0,0,100.56,6.72Z"/><path class="cls-2" d="M94.48,4.87a2.38,2.38,0,0,0-.9,1.4c-.12.69-.76,4.14-.76,4.14s-.64,3.44-.76,4.13a2.44,2.44,0,0,0,.33,1.65,2.4,2.4,0,0,0,.9-1.41c.12-.69.76-4.13.76-4.13s.64-3.44.76-4.14A2.42,2.42,0,0,0,94.48,4.87Z"/><path class="cls-2" d="M140.05,41.73a3.09,3.09,0,0,0,1.87-.3l4.25-2.3,4.26-2.31a3,3,0,0,0,1.27-1.4,3.08,3.08,0,0,0-1.87.3L145.57,38l-4.25,2.31A2.93,2.93,0,0,0,140.05,41.73Z"/></symbol><symbol id="Fuzzballs_face_1" data-name="Fuzzballs_face_1" viewBox="0 0 35.06 21.64"><path class="cls-3" d="M13.78,15.65c.5,2,2.22,5.45,4.15,5.45s3.6-3.47,3.63-5.83a6.24,6.24,0,0,1-3.75.94A23,23,0,0,1,13.78,15.65Z"/><circle class="cls-4" cx="5.99" cy="5.99" r="5.61"/><ellipse class="cls-5" cx="5.99" cy="5.99" rx="3.12" ry="3.17" transform="translate(-1.21 10.46) rotate(-76.77)"/><circle class="cls-3" cx="4.76" cy="4.56" r="1.57"/><circle class="cls-4" cx="29.07" cy="5.99" r="5.61"/><ellipse class="cls-5" cx="29.07" cy="5.99" rx="3.12" ry="3.17" transform="translate(16.58 32.92) rotate(-76.77)"/><circle class="cls-3" cx="27.83" cy="4.56" r="1.57"/><path class="cls-3" d="M13.78,15.7c.5,2,2.22,5.45,4.15,5.45s3.6-3.47,3.63-5.83a6.24,6.24,0,0,1-3.75.94A23,23,0,0,1,13.78,15.7Z"/><path class="cls-2" d="M11.2,14.86a7.35,7.35,0,0,0,3.45,1.58,15.14,15.14,0,0,0,1.61.21l.8.05h.51s.2,0,.44,0l.77,0a15.68,15.68,0,0,0,2.33-.34,7.31,7.31,0,0,0,3.39-1.71c-1.3.26-2.14.4-3.6.73a16.62,16.62,0,0,1-2.2.32l-.71,0h-.9l-.75,0a15.15,15.15,0,0,1-1.51-.19C13.36,15.18,12.52,15.07,11.2,14.86Z"/><path class="cls-2" d="M13.58,15.46a6.73,6.73,0,0,0,1.08,3.64,8.46,8.46,0,0,0,1,1.33,4.89,4.89,0,0,0,1,.83,3,3,0,0,0,.84.34l.24,0a2,2,0,0,0,.58,0,2.87,2.87,0,0,0,1.21-.54,5.65,5.65,0,0,0,1.55-2,5.83,5.83,0,0,0,.59-2,5.41,5.41,0,0,0-.11-1.82A11.07,11.07,0,0,1,21,17c-.22.51-.44,1-.77,1.69a4.94,4.94,0,0,1-1.25,1.61,1.92,1.92,0,0,1-.78.36,1.74,1.74,0,0,1-.44,0,1.82,1.82,0,0,1-.53-.23,3.93,3.93,0,0,1-.77-.65,8.1,8.1,0,0,1-.9-1.18C14.74,17.3,14.25,16.6,13.58,15.46Z"/></symbol></defs><g id="FUZZBALLS_1"><use width="44.28" height="75.06" transform="translate(61.84 58.25) scale(0.97)" xlink:href="#Fuzzballs_horn_1"/><use width="44.28" height="75.06" transform="matrix(-0.97, 0, 0, 0.97, 244.55, 58.25)" xlink:href="#Fuzzballs_horn_1"/><use width="171.59" height="170.84" transform="translate(66.36 65.99)" xlink:href="#Fuzzballs_body_1"/><path class="cls-6" d="M127.16,203.1a21.5,21.5,0,0,0-7.15-2.7c-2.54-.3-5.38.5-6.83,2.62a10.2,10.2,0,0,0-1.37,4.52c-.77,5.9-1.59,9.79-1.59,9.79-6.47,8-21.09,21.13-21.09,21.13-1.9,3-6.81,2.65-10.22,3.5a13.25,13.25,0,0,0-9.73,11.28,2.65,2.65,0,0,0,.55,2.5c.89,1.21,2.49,1.63,4,1.95,2.24.48,4.49.93,6.74,1.32,11.45,2,23.28,3.42,34.85,2.26l30.39-3a1.85,1.85,0,0,0,1.65-2L143.49,217c-.31-3.12-.65-6.37-2.28-9.05a12.16,12.16,0,0,0-6.46-5,9.06,9.06,0,0,0-6.58,0,5.34,5.34,0,0,0-3.26,5.36"/><path class="cls-7" d="M144.15,223.26c-1.25.54-6.36,27.19-6.36,27.19a271.43,271.43,0,0,1-27.91,2.18,238.55,238.55,0,0,1-26.21-1.78l-13-2.49a13.43,13.43,0,0,0-1.53,4.8,3.47,3.47,0,0,0,.15,1.89c.68,1.61,2.32,2.17,3.91,2.54,2.08.48,4.18.88,6.29,1.26,11.73,2.11,23.88,3.61,35.75,2.42l30.39-3a1.85,1.85,0,0,0,1.65-2C146.05,243.12,145.43,236.34,144.15,223.26Z"/><path class="cls-7" d="M131.89,207.47c-1.08-.42-5.95-1.82-6.14-1.54a8.87,8.87,0,0,0-1.31,3.55,6.9,6.9,0,0,0,.26,4,10.75,10.75,0,0,0,5.17,4.92c.61.29,1.67-.58,1.78-1.42a45.32,45.32,0,0,1,1.94-7.92,1.23,1.23,0,0,0-.2-1Q132.64,207.77,131.89,207.47Z"/><path class="cls-7" d="M110.65,245.46c-3.8-3.56-9.72-5.6-15.9-6.88-1.5-.31-4.35-1-5.35.12-2.28,2.64-12.34,3.42-12.4,4-.33.88,2.11,1.05,2.2,1,10.29.9,20.41,1.9,29.55,2.14C110,245.85,111.47,246.23,110.65,245.46Z"/><path class="cls-2" d="M70.3,248.38a13.46,13.46,0,0,0,3.55,1.17l.9.17.63.12,1.74.32,1.95.29c5.33.87,11.67,1.53,17.75,2s11.9.45,16.19.37c2.14,0,3.91-.12,5.14-.16l1.92-.1s2.76-.12,7-.5c2.14-.21,4.65-.47,7.38-.87l2.09-.32,1.07-.18.8-.16c.25,0,.17-.24.23-.4l.06-.44c.2-1.44.46-2.91.74-4.4.57-3,1.24-6,1.89-9s1.25-5.77,1.81-8.38c.2-1,.37-1.82.45-2.23a12.75,12.75,0,0,0,.21-3.74,14.43,14.43,0,0,0-1.19,3.54c-.08.41-.25,1.23-.46,2.22-.56,2.61-1.18,5.45-1.81,8.38s-1.32,6-1.89,9c-.28,1.5-.55,3-.75,4.45,0,.13,0,.1,0,.1h0l-.27,0-1.05.18-2.06.32c-2.71.4-5.21.65-7.33.86-4.25.39-7,.51-7,.51l-1.91.1c-1.22,0-3,.11-5.11.15-4.27.08-10.06,0-16.11-.37s-12.35-1.09-17.65-2l-2-.29-1.73-.32-.62-.11-.9-.17A13.68,13.68,0,0,0,70.3,248.38Z"/><path class="cls-2" d="M76.76,243.31a12,12,0,0,0,3.58,1.1l.91.14,2.15.3c2.19.28,4.77.55,7.24.77,4.94.43,9.44.62,9.44.62s4.51.22,9.45.38l3.14.09h.44l-.35-.29-.72-.58-.71-.57L111,245l-.3-.23a35.32,35.32,0,0,0-2.94-2c-.89-.53-1.64-.93-2-1.12a9.81,9.81,0,0,0-3.6-1.09,21.71,21.71,0,0,0,3.14,2c.37.19,1.09.58,2,1.1a31.81,31.81,0,0,1,2.86,1.92l.07.06H110l-.46,0c-4.95-.16-9.44-.37-9.44-.37s-4.49-.2-9.4-.63c-2.46-.21-5-.48-7.2-.76l-3-.43A14.81,14.81,0,0,0,76.76,243.31Z"/><path class="cls-2" d="M127.16,203.1A10.55,10.55,0,0,0,124,201c-.2-.08-.5-.21-.87-.34l-.62-.22-.39-.12c-.26-.08-.53-.15-.8-.21a10.44,10.44,0,0,0-1.69-.26,9,9,0,0,0-3.49.41,6.75,6.75,0,0,0-3.07,2,7.88,7.88,0,0,0-1.51,3.41c-.25,1.21-.35,2.4-.53,3.59s-.35,2.4-.55,3.62-.42,2.44-.66,3.66l-.09.46c0,.11,0,.06,0,.07l-.1.12-.6.72c-.4.49-.82,1-1.24,1.44-3.37,3.8-7.1,7.49-10.92,11.17C95,232.39,93,234.23,91,236.05l-1.48,1.36-.78.7-.33.43a2.42,2.42,0,0,1-.31.33,7.12,7.12,0,0,1-3.38,1.58c-1.28.29-2.62.44-4,.64a15.14,15.14,0,0,0-4,1.08,13.86,13.86,0,0,0-6.18,5.47,13,13,0,0,0-1.6,3.82,16.23,16.23,0,0,0-.34,2,5.17,5.17,0,0,0,0,1.12,2.62,2.62,0,0,0,.47,1.1,4.4,4.4,0,0,0,1.59,1.5,7.92,7.92,0,0,0,2,.75c1.31.33,2.57.53,3.85.79,5.07,1.06,10.06,1.82,14.87,2.44a129.24,129.24,0,0,0,13.87,1,96.65,96.65,0,0,0,12.29-.63l24.7-2.48,2.49-.25.64-.06.35,0a1.89,1.89,0,0,0,.45-.09,2.34,2.34,0,0,0,1.51-1.34,2.4,2.4,0,0,0,.17-1.14c0-.32-.06-.64-.09-1-.07-.67-.14-1.39-.21-2.15-.6-6.06-1.44-14.72-2.46-25.12-.26-2.6-.52-5.31-.8-8.12a59,59,0,0,0-1.2-8.72,12.77,12.77,0,0,0-2-4.27,12.23,12.23,0,0,0-3.62-3.2,11.6,11.6,0,0,0-9.71-1.18,3.18,3.18,0,0,0-.64.32,3.29,3.29,0,0,0-.56.48,5.45,5.45,0,0,0-.77,1.12,13,13,0,0,0-.93,2.42c-.11.41-.22.82-.31,1.24l-.13.63,0,.32s0,0,0,0l0,.08,0,.16a11.6,11.6,0,0,0-.45,2.59,5.9,5.9,0,0,0,.5,2.7,7.05,7.05,0,0,0,1.66,2.18,19.76,19.76,0,0,0,4.4,2.86,23.83,23.83,0,0,1,4.33,2.64,8.62,8.62,0,0,1,1.68,1.79,4.71,4.71,0,0,1,.3.5h0a45.28,45.28,0,0,1-5-1.48l-.61-.22-.31-.11a2.2,2.2,0,0,0-.5-.17.84.84,0,0,0-.95.48,1,1,0,0,0,0,.58l.1.43a2.45,2.45,0,0,1,0,1.07.52.52,0,0,1-.17.3,2,2,0,0,1-.44.26c-1.22.56-2.83.21-4.29.49a4,4,0,0,0-1.94.85,3,3,0,0,0-.9,1.44,10.94,10.94,0,0,0-.27,1.39,7.26,7.26,0,0,1-.3,1.2,5,5,0,0,1-1.36,2,7.9,7.9,0,0,1-2.11,1.32,10.59,10.59,0,0,1-1.19.43l-.31.08c-.11,0-.41.09-.61.13-.43.1-1,.15-1.44.23l2.77,2.41c.64.59,1.29,1.16,1.9,1.77a40.32,40.32,0,0,1,3.45,3.74,21.35,21.35,0,0,1,1.48,2c.21.33.47.73.61,1l0,.05.12.23a2.91,2.91,0,0,1,.23.42,11.44,11.44,0,0,1,.55,1.28c.25.69.41,1.23.55,1.76a7.78,7.78,0,0,1,.26,1.71,4.61,4.61,0,0,0,.14-3.8,10.8,10.8,0,0,0-.6-1.4,4.08,4.08,0,0,0-.24-.46l-.13-.23,0-.06c-.06-.09-.19-.35-.3-.51l-.35-.54a22.24,22.24,0,0,0-1.53-2.08,42.48,42.48,0,0,0-3.54-3.82c-.62-.62-1.28-1.2-1.93-1.8-.32-.3-.66-.58-1-.87l-.13-.11-.06-.05h0s0,0,.05,0l.33-.09a10.8,10.8,0,0,0,1.31-.47,8.61,8.61,0,0,0,2.39-1.51,5.84,5.84,0,0,0,1.63-2.39,7.17,7.17,0,0,0,.35-1.4,10.29,10.29,0,0,1,.24-1.25,2.06,2.06,0,0,1,.59-1,3.08,3.08,0,0,1,1.46-.62c1.2-.27,2.84.15,4.53-.56a3,3,0,0,0,.68-.42,1.59,1.59,0,0,0,.49-.8,3.45,3.45,0,0,0,0-1.54l0-.17c0-.07,0,0,0,0h0l1,.37a45.13,45.13,0,0,0,5.08,1.52c.42.08.84.14,1.26.21a3.79,3.79,0,0,0,.61.08l-.24-.58c-.16-.39-.34-.77-.52-1.15a6.5,6.5,0,0,0-.38-.61,9.64,9.64,0,0,0-1.86-2,25.21,25.21,0,0,0-4.51-2.75,19.82,19.82,0,0,1-4.19-2.71,6.15,6.15,0,0,1-1.42-1.86,4.86,4.86,0,0,1-.41-2.24,10.16,10.16,0,0,1,.41-2.36l0-.15,0-.07s0-.11,0-.14l0-.3.12-.6c.08-.4.18-.79.29-1.18a11.5,11.5,0,0,1,.85-2.21,4.77,4.77,0,0,1,.62-.92,3.59,3.59,0,0,1,.38-.32,1.71,1.71,0,0,1,.45-.22,9.45,9.45,0,0,1,4.55-.41,11.5,11.5,0,0,1,4.28,1.52,11.35,11.35,0,0,1,3.33,2.94,11.92,11.92,0,0,1,1.85,3.93,58.53,58.53,0,0,1,1.17,8.55q.4,4.22.8,8.12c1,10.4,1.86,19.06,2.46,25.12.07.76.14,1.47.21,2.15,0,.34.06.66.09,1a1.29,1.29,0,0,1-.1.65,1.33,1.33,0,0,1-.86.77,1.17,1.17,0,0,1-.27.05l-.35,0-.64.06-2.49.25-24.7,2.48a93.55,93.55,0,0,1-12.18.62,125,125,0,0,1-13.76-1c-4.78-.62-9.76-1.37-14.8-2.43-1.25-.26-2.56-.46-3.78-.78a4.47,4.47,0,0,1-3-1.83,1.64,1.64,0,0,1-.31-.7,3.63,3.63,0,0,1,0-.86A13.07,13.07,0,0,1,70,251.7a12.2,12.2,0,0,1,1.48-3.54,12.94,12.94,0,0,1,5.72-5.06c2.36-1.09,5.11-1,7.82-1.67a8,8,0,0,0,3.86-1.84,3,3,0,0,0,.38-.41l.28-.37.72-.66,1.5-1.36q3-2.73,5.87-5.51c3.84-3.7,7.58-7.39,11-11.24.43-.47.85-.95,1.25-1.45l.62-.73.2-.25c.09-.11.09-.34.11-.38l.1-.46c.24-1.24.45-2.48.65-3.7s.39-2.44.56-3.64.29-2.41.52-3.52a6.8,6.8,0,0,1,1.3-3,5.66,5.66,0,0,1,2.61-1.7,7.92,7.92,0,0,1,3.09-.37,11.22,11.22,0,0,1,1.54.24l.75.2.36.11.58.2c.36.13.64.25.83.33A19.46,19.46,0,0,0,127.16,203.1Z"/><path class="cls-2" d="M93,235c1.31.2,2.15.36,3.63.55.25,0,.65.09,1.48.29a.58.58,0,0,0,.14,0l.07,0,.07,0a17.76,17.76,0,0,1,2.07.72c1.36.61,2.15.91,3.38,1.43a7.31,7.31,0,0,0-3-2.35,15.55,15.55,0,0,0-2.21-.77l-.08,0-.07,0-.14,0a15.28,15.28,0,0,0-1.6-.3A7.3,7.3,0,0,0,93,235Z"/><path class="cls-2" d="M96.69,231.12a2.65,2.65,0,0,0,1.46.57c.33,0,1.33.09,2.22.24a13.85,13.85,0,0,1,3.29.92,14.92,14.92,0,0,1,2,1,2.87,2.87,0,0,0,1.5.42,2.35,2.35,0,0,0-1-1.27,14.34,14.34,0,0,0-2.09-1.1,15.49,15.49,0,0,0-1.73-.6,15,15,0,0,0-1.79-.39c-.94-.15-2-.22-2.31-.24A2.51,2.51,0,0,0,96.69,231.12Z"/><path class="cls-2" d="M100.55,227.71a2.37,2.37,0,0,0,1.36.54,20.38,20.38,0,0,1,2,.25,14.39,14.39,0,0,1,1.56.36s.72.22,1.49.55,1.59.77,1.86.91a2.37,2.37,0,0,0,1.44.27,2.17,2.17,0,0,0-1-1.14,19.19,19.19,0,0,0-2-1,15.64,15.64,0,0,0-3.27-1,20.29,20.29,0,0,0-2.16-.25A2.23,2.23,0,0,0,100.55,227.71Z"/><path class="cls-2" d="M105.06,223.44a2.57,2.57,0,0,0,1.33.7c.31.07,1.23.24,2.06.5s1.55.54,1.55.54.72.3,1.48.71,1.56.92,1.82,1.09a2.52,2.52,0,0,0,1.45.4,2.21,2.21,0,0,0-.89-1.23A19.57,19.57,0,0,0,112,225c-.8-.43-1.57-.75-1.57-.75s-.77-.32-1.64-.58a18,18,0,0,0-2.17-.51A2.26,2.26,0,0,0,105.06,223.44Z"/><path class="cls-2" d="M108.15,219.54a2.41,2.41,0,0,0,1.35.36,11.19,11.19,0,0,1,1.93.09,8.28,8.28,0,0,1,1.44.35,8.82,8.82,0,0,1,1.35.62,14.08,14.08,0,0,1,1.63,1.08,2.29,2.29,0,0,0,1.33.46,2,2,0,0,0-.72-1.25,13.51,13.51,0,0,0-1.75-1.18,10.38,10.38,0,0,0-1.51-.68,9.55,9.55,0,0,0-1.62-.4,10.71,10.71,0,0,0-2.13-.09A2,2,0,0,0,108.15,219.54Z"/><path class="cls-2" d="M110.59,215.39c1.31.22,2.16.36,3.65.51.25,0,.67.06,1.51.22l.66.13.6.15a17.58,17.58,0,0,1,2.11.7c1.39.57,2.2.83,3.46,1.25a8,8,0,0,0-3.08-2.18,18.08,18.08,0,0,0-2.24-.75c-.22-.07-.63-.15-.63-.15s-.48-.12-.69-.15c-.9-.16-1.33-.19-1.6-.22A8.08,8.08,0,0,0,110.59,215.39Z"/><path class="cls-2" d="M111.53,211.37a23,23,0,0,0,3.7.17c.25,0,.67,0,1.54,0a21.94,21.94,0,0,1,2.38.23c.42.06.79.13,1.06.19l.44.1,1.27.34c.71.22,1.56.52,2.15.77,1.07.45,1.71.78,2.05.94a18.72,18.72,0,0,0,3.46,1.36,10.69,10.69,0,0,0-3-2.26c-.34-.17-1-.51-2.11-1-.62-.26-1.5-.58-2.24-.81s-1.34-.35-1.34-.35l-.46-.1c-.28-.07-.68-.14-1.11-.21a22.1,22.1,0,0,0-2.5-.24c-.91,0-1.34,0-1.61,0A9.62,9.62,0,0,0,111.53,211.37Z"/><path class="cls-2" d="M112.18,207.55a25.6,25.6,0,0,0,3.69.15c.26,0,.67,0,1.53,0a22.35,22.35,0,0,1,2.35.27,9.41,9.41,0,0,1,1,.21l.43.09s.56.15,1.25.36,1.53.54,2.11.79c1.06.46,1.69.8,2,1a20.32,20.32,0,0,0,3.41,1.46,10.35,10.35,0,0,0-2.94-2.35c-.35-.17-1-.53-2.1-1-.61-.26-1.48-.59-2.2-.82s-1.31-.37-1.31-.37l-.45-.1a10.6,10.6,0,0,0-1.1-.22,18.34,18.34,0,0,0-2.46-.28c-.9,0-1.34,0-1.61,0A9.22,9.22,0,0,0,112.18,207.55Z"/><path class="cls-2" d="M125.37,205.41a17.76,17.76,0,0,0,3.4,1.49l1.48.51c.57.2,1.53.55,2.33.88s1.47.62,1.47.62l1.25.57c.69.33,1.53.74,2.12,1.05,1,.55,1.66.91,2,1.09a17.91,17.91,0,0,0,3.4,1.53,11.27,11.27,0,0,0-2.89-2.4c-.34-.19-1-.56-2-1.11-.6-.32-1.45-.74-2.16-1.08l-1.27-.57s-.67-.3-1.5-.63-1.79-.7-2.38-.91c-.84-.3-1.25-.42-1.5-.5A10.9,10.9,0,0,0,125.37,205.41Z"/><path class="cls-2" d="M133.53,208.65a2.34,2.34,0,0,0-.85,1.23c-.17.62-.89,3.7-.89,3.7l-.89,3.69a2.3,2.3,0,0,0,.13,1.48,2.31,2.31,0,0,0,.84-1.24c.18-.61.89-3.7.89-3.7s.75-3.06.89-3.68A2.36,2.36,0,0,0,133.53,208.65Z"/><path class="cls-6" d="M173.18,203.1a21.58,21.58,0,0,1,7.15-2.7c2.55-.3,5.39.5,6.83,2.62a10.35,10.35,0,0,1,1.38,4.52c.77,5.9,1.59,9.79,1.59,9.79,6.46,8,21.08,21.13,21.08,21.13,1.9,3,6.81,2.65,10.22,3.5a13.26,13.26,0,0,1,9.74,11.28,2.65,2.65,0,0,1-.56,2.5c-.89,1.21-2.49,1.63-4,1.95-2.24.48-4.49.93-6.75,1.32-11.45,2-23.28,3.42-34.85,2.26l-30.38-3a1.85,1.85,0,0,1-1.66-2L156.85,217c.31-3.12.66-6.37,2.29-9.05a12.1,12.1,0,0,1,6.45-5,9.06,9.06,0,0,1,6.58,0,5.36,5.36,0,0,1,3.27,5.36"/><path class="cls-7" d="M156.19,223.26c1.25.54,6.37,27.19,6.37,27.19a271,271,0,0,0,27.9,2.18,238.55,238.55,0,0,0,26.21-1.78l13-2.49a13.43,13.43,0,0,1,1.53,4.8,3.29,3.29,0,0,1-.15,1.89c-.67,1.61-2.31,2.17-3.91,2.54-2.08.48-4.18.88-6.28,1.26-11.73,2.11-23.88,3.61-35.76,2.42l-30.38-3a1.85,1.85,0,0,1-1.66-2C154.29,243.12,154.91,236.34,156.19,223.26Z"/><path class="cls-7" d="M168.46,207.47c1.08-.42,5.94-1.82,6.13-1.54a8.87,8.87,0,0,1,1.31,3.55,6.82,6.82,0,0,1-.26,4,10.75,10.75,0,0,1-5.17,4.92c-.61.29-1.66-.58-1.78-1.42a45.29,45.29,0,0,0-1.93-7.92,1.23,1.23,0,0,1,.19-1C167.45,207.86,168,207.67,168.46,207.47Z"/><path class="cls-7" d="M191.6,245.82c9.13-.24,19.25-1.24,29.55-2.14.08,0,2.52-.14,2.2-1-.07-.54-10.13-1.32-12.41-4-1-1.16-3.85-.43-5.34-.12-6.18,1.28-12.11,3.32-15.9,6.88C188.87,246.23,190.35,245.85,191.6,245.82Z"/><path class="cls-2" d="M230.05,248.38a13.73,13.73,0,0,0-3.74.18l-.89.17-.63.11-1.73.32-1.94.29c-5.31.87-11.61,1.52-17.66,2s-11.84.45-16.11.37c-2.13,0-3.89-.12-5.11-.15l-1.91-.1s-2.75-.12-7-.51c-2.13-.21-4.63-.46-7.33-.86l-2.07-.32-1.05-.18-.26,0h0s0,0,0-.1c-.2-1.47-.46-3-.75-4.45-.57-3-1.24-6-1.89-9s-1.24-5.77-1.81-8.38c-.2-1-.37-1.81-.45-2.22a14,14,0,0,0-1.2-3.54,13.47,13.47,0,0,0,.21,3.74c.08.41.25,1.23.45,2.23.57,2.61,1.18,5.45,1.81,8.38s1.32,6,1.89,9c.28,1.49.55,3,.74,4.4l.07.44c.05.16,0,.44.22.4l.81.16,1.07.18,2.08.32c2.73.4,5.25.66,7.38.87,4.28.38,7.05.5,7.05.5l1.92.1c1.22,0,3,.12,5.14.16,4.29.08,10.1,0,16.19-.37s12.41-1.1,17.74-2l2-.29,1.74-.32.62-.12.9-.17A13.66,13.66,0,0,0,230.05,248.38Z"/><path class="cls-2" d="M223.58,243.31a14.82,14.82,0,0,0-3.73.11l-3,.43c-2.17.28-4.73.55-7.19.76-4.92.43-9.41.63-9.41.63s-4.49.21-9.43.37l-.47,0h-.1l.07-.06a33.29,33.29,0,0,1,2.86-1.92c.86-.52,1.59-.91,2-1.1a21.17,21.17,0,0,0,3.14-2,9.87,9.87,0,0,0-3.6,1.09c-.38.19-1.13.59-2,1.12a35.41,35.41,0,0,0-3,2l-.3.23-.35.28-.72.57-.71.58-.36.29h.45l3.13-.09c4.95-.16,9.45-.38,9.45-.38s4.5-.19,9.45-.62c2.47-.22,5-.49,7.23-.77l2.16-.3.9-.14A12,12,0,0,0,223.58,243.31Z"/><path class="cls-2" d="M173.18,203.1a19.3,19.3,0,0,0,3.53-1.15c.19-.08.47-.2.82-.33l.59-.2.35-.11.76-.2a11.32,11.32,0,0,1,1.53-.24,8,8,0,0,1,3.1.37,5.63,5.63,0,0,1,2.6,1.7,6.58,6.58,0,0,1,1.3,3c.24,1.11.34,2.32.53,3.52s.35,2.42.55,3.64.42,2.46.66,3.7l.09.46s0,.27.11.38l.21.25.61.73c.41.5.83,1,1.26,1.45,3.4,3.85,7.14,7.54,11,11.24q2.88,2.78,5.87,5.51l1.49,1.36.72.66.29.37a2.46,2.46,0,0,0,.38.41,7.91,7.91,0,0,0,3.86,1.84c2.7.63,5.46.58,7.81,1.67a13,13,0,0,1,5.73,5.06,12.49,12.49,0,0,1,1.48,3.54,14.6,14.6,0,0,1,.3,1.89,4.35,4.35,0,0,1,0,.86,1.67,1.67,0,0,1-.32.7,4.45,4.45,0,0,1-3,1.83c-1.23.32-2.54.52-3.79.78-5,1.06-10,1.81-14.8,2.43a124.86,124.86,0,0,1-13.76,1,93.3,93.3,0,0,1-12.17-.62l-24.71-2.48-2.49-.25-.64-.06-.35,0a1.17,1.17,0,0,1-.27-.05,1.33,1.33,0,0,1-.86-.77,1.41,1.41,0,0,1-.1-.65c0-.32.06-.64.1-1,.06-.68.13-1.39.21-2.15.59-6.06,1.44-14.72,2.46-25.12.25-2.6.52-5.31.79-8.12a57.23,57.23,0,0,1,1.18-8.55,11.53,11.53,0,0,1,1.85-3.93,11.83,11.83,0,0,1,7.61-4.46,9.47,9.47,0,0,1,4.55.41,1.71,1.71,0,0,1,.45.22,2.73,2.73,0,0,1,.37.32,4.36,4.36,0,0,1,.62.92,11.5,11.5,0,0,1,.85,2.21c.11.39.21.78.3,1.18l.12.6.05.3a.39.39,0,0,0,0,.14l0,.07,0,.15a10.74,10.74,0,0,1,.42,2.36,5,5,0,0,1-.41,2.24,6,6,0,0,1-1.43,1.86,19.33,19.33,0,0,1-4.19,2.71,24.79,24.79,0,0,0-4.5,2.75,9.69,9.69,0,0,0-1.87,2,6.5,6.5,0,0,0-.38.61c-.18.38-.35.76-.51,1.15l-.24.58a3.69,3.69,0,0,0,.6-.08c.42-.07.84-.13,1.26-.21a45.3,45.3,0,0,0,5.09-1.52l1-.37h0s0,0,0,0l0,.17a3.45,3.45,0,0,0,0,1.54,1.59,1.59,0,0,0,.49.8,3,3,0,0,0,.68.42c1.69.71,3.33.29,4.53.56a3,3,0,0,1,1.46.62,2.06,2.06,0,0,1,.59,1,7.49,7.49,0,0,1,.24,1.25,8,8,0,0,0,.35,1.4,6,6,0,0,0,1.64,2.39,8.47,8.47,0,0,0,2.39,1.51,10.09,10.09,0,0,0,1.3.47l.34.09H184l-.07.05-.12.11c-.33.29-.68.57-1,.87-.65.6-1.31,1.18-1.92,1.8a41.18,41.18,0,0,0-3.55,3.82,24.19,24.19,0,0,0-1.53,2.08l-.35.54c-.1.16-.24.42-.29.51l0,.06-.13.23c-.08.16-.17.31-.24.46a12,12,0,0,0-.59,1.4,4.61,4.61,0,0,0,.13,3.8,7.21,7.21,0,0,1,.27-1.71,16.58,16.58,0,0,1,.54-1.76,12,12,0,0,1,.56-1.28,4.23,4.23,0,0,1,.22-.42l.13-.23,0-.05c.13-.27.4-.67.61-1a23.17,23.17,0,0,1,1.47-2,40.44,40.44,0,0,1,3.46-3.74c.61-.61,1.26-1.18,1.9-1.77l2.77-2.41c-.47-.08-1-.13-1.44-.23-.2,0-.51-.09-.62-.13l-.3-.08a9.34,9.34,0,0,1-1.19-.43,7.75,7.75,0,0,1-2.11-1.32,5,5,0,0,1-1.37-2,7.26,7.26,0,0,1-.3-1.2,8.29,8.29,0,0,0-.27-1.39,3,3,0,0,0-.89-1.44,4.07,4.07,0,0,0-2-.85c-1.46-.28-3.07.07-4.29-.49a2.22,2.22,0,0,1-.44-.26.66.66,0,0,1-.17-.3,2.45,2.45,0,0,1,0-1.07l.1-.43a.88.88,0,0,0,0-.58.84.84,0,0,0-.94-.48,2.31,2.31,0,0,0-.51.17l-.31.11-.61.22a45.78,45.78,0,0,1-5,1.48s0,0,0,0h0a4.91,4.91,0,0,1,.31-.5,8.84,8.84,0,0,1,1.67-1.79,24.18,24.18,0,0,1,4.33-2.64,20.05,20.05,0,0,0,4.41-2.86,7,7,0,0,0,1.65-2.18,5.77,5.77,0,0,0,.5-2.7,11.6,11.6,0,0,0-.45-2.59l0-.16,0-.08h0l-.06-.32-.13-.63c-.08-.42-.19-.83-.3-1.24a13,13,0,0,0-.94-2.42,5.45,5.45,0,0,0-.77-1.12,3.64,3.64,0,0,0-.55-.48,3.53,3.53,0,0,0-.65-.32,11.58,11.58,0,0,0-9.7,1.18,12.39,12.39,0,0,0-3.63,3.2,12.55,12.55,0,0,0-2,4.27,57.73,57.73,0,0,0-1.21,8.72c-.27,2.81-.54,5.52-.79,8.12-1,10.4-1.87,19.06-2.46,25.12-.08.76-.15,1.48-.21,2.15,0,.34-.07.66-.1,1a2.29,2.29,0,0,0,.18,1.14,2.33,2.33,0,0,0,1.5,1.34,2,2,0,0,0,.45.09l.35,0,.64.06,2.49.25,24.71,2.48a96.65,96.65,0,0,0,12.29.63,129.06,129.06,0,0,0,13.86-1c4.82-.62,9.81-1.38,14.88-2.44,1.27-.26,2.54-.46,3.85-.79a8.07,8.07,0,0,0,1.95-.75,4.4,4.4,0,0,0,1.59-1.5,2.91,2.91,0,0,0,.47-1.1,4.57,4.57,0,0,0,0-1.12,14.54,14.54,0,0,0-.33-2,13.52,13.52,0,0,0-1.6-3.82,14,14,0,0,0-6.18-5.47,15.24,15.24,0,0,0-4-1.08c-1.35-.2-2.69-.35-4-.64a7.12,7.12,0,0,1-3.38-1.58,2.35,2.35,0,0,1-.3-.33l-.33-.43-.78-.7-1.49-1.36c-2-1.82-3.93-3.66-5.85-5.5-3.83-3.68-7.56-7.37-10.93-11.17-.42-.48-.84-.95-1.23-1.44l-.61-.72-.09-.12s0,0,0-.07l-.09-.46c-.24-1.22-.45-2.45-.65-3.66s-.38-2.42-.55-3.62-.29-2.38-.54-3.59a7.76,7.76,0,0,0-1.51-3.41,6.78,6.78,0,0,0-3.06-2,9.09,9.09,0,0,0-3.49-.41,10.44,10.44,0,0,0-1.69.26c-.28.06-.54.13-.81.21l-.39.12-.61.22c-.38.13-.68.26-.87.34A10.6,10.6,0,0,0,173.18,203.1Z"/><path class="cls-2" d="M207.3,235a7.29,7.29,0,0,0-3.76-.44,14.8,14.8,0,0,0-1.59.3l-.14,0-.08,0-.07,0a16.29,16.29,0,0,0-2.22.77,7.44,7.44,0,0,0-3,2.35c1.23-.52,2-.82,3.38-1.43a18.1,18.1,0,0,1,2.08-.72l.07,0,.07,0a.53.53,0,0,0,.13,0,15.16,15.16,0,0,1,1.49-.29C205.16,235.32,206,235.16,207.3,235Z"/><path class="cls-2" d="M203.65,231.12a2.48,2.48,0,0,0-1.52-.43c-.34,0-1.37.09-2.32.24a14.58,14.58,0,0,0-1.78.39,16,16,0,0,0-1.74.6,15.53,15.53,0,0,0-2.09,1.1,2.38,2.38,0,0,0-1,1.27,2.9,2.9,0,0,0,1.5-.42,15.32,15.32,0,0,1,1.94-1,13.85,13.85,0,0,1,3.29-.92c.89-.15,1.89-.21,2.22-.24A2.65,2.65,0,0,0,203.65,231.12Z"/><path class="cls-2" d="M199.79,227.71a2.2,2.2,0,0,0-1.42-.46,20.41,20.41,0,0,0-2.17.25,16.26,16.26,0,0,0-1.66.4,16.48,16.48,0,0,0-1.6.58,17.22,17.22,0,0,0-1.95,1,2.24,2.24,0,0,0-1,1.14,2.4,2.4,0,0,0,1.45-.27c.27-.14,1.08-.59,1.85-.91s1.5-.55,1.5-.55a14.56,14.56,0,0,1,1.55-.36,20.38,20.38,0,0,1,2.05-.25A2.35,2.35,0,0,0,199.79,227.71Z"/><path class="cls-2" d="M195.28,223.44a2.24,2.24,0,0,0-1.5-.28,17.61,17.61,0,0,0-2.17.51c-.88.26-1.65.58-1.65.58s-.77.32-1.57.75a20.91,20.91,0,0,0-1.91,1.15,2.26,2.26,0,0,0-.89,1.23A2.52,2.52,0,0,0,187,227c.27-.17,1.06-.69,1.82-1.09s1.49-.71,1.49-.71a16.35,16.35,0,0,1,1.55-.54c.82-.26,1.75-.43,2.06-.5A2.51,2.51,0,0,0,195.28,223.44Z"/><path class="cls-2" d="M192.19,219.54a1.91,1.91,0,0,0-1.3-.64,10.6,10.6,0,0,0-2.12.09,9.55,9.55,0,0,0-1.62.4,10.75,10.75,0,0,0-1.52.68,13.51,13.51,0,0,0-1.75,1.18,2,2,0,0,0-.71,1.25,2.34,2.34,0,0,0,1.33-.46,13.74,13.74,0,0,1,1.62-1.08,8.68,8.68,0,0,1,1.36-.62,8,8,0,0,1,1.44-.35,11.08,11.08,0,0,1,1.92-.09A2.41,2.41,0,0,0,192.19,219.54Z"/><path class="cls-2" d="M189.75,215.39a8.06,8.06,0,0,0-3.75-.49c-.26,0-.7.06-1.59.22-.21,0-.7.15-.7.15s-.41.08-.63.15a17.72,17.72,0,0,0-2.23.75,8,8,0,0,0-3.09,2.18c1.26-.42,2.08-.68,3.46-1.25a18,18,0,0,1,2.12-.7l.59-.15.66-.13c.85-.16,1.26-.19,1.51-.22C187.6,215.75,188.44,215.61,189.75,215.39Z"/><path class="cls-2" d="M188.82,211.37a9.71,9.71,0,0,0-3.68-.83c-.27,0-.7,0-1.6,0a22.25,22.25,0,0,0-2.51.24c-.43.07-.82.14-1.11.21l-.46.1s-.59.14-1.33.35-1.63.55-2.24.81c-1.11.46-1.77.8-2.12,1a11,11,0,0,0-3,2.26,18.45,18.45,0,0,0,3.46-1.36c.34-.16,1-.49,2.05-.94.6-.25,1.44-.55,2.15-.77l1.27-.34.44-.1c.27-.06.65-.13,1.06-.19a22.1,22.1,0,0,1,2.39-.23c.86,0,1.28,0,1.54,0A23.1,23.1,0,0,0,188.82,211.37Z"/><path class="cls-2" d="M188.17,207.55a9.27,9.27,0,0,0-3.68-.86c-.27,0-.7,0-1.61,0a18.34,18.34,0,0,0-2.46.28,10.35,10.35,0,0,0-1.09.22l-.45.1s-.58.15-1.31.37-1.6.56-2.2.82c-1.1.48-1.76.84-2.1,1a10.08,10.08,0,0,0-2.94,2.35,20.32,20.32,0,0,0,3.41-1.46c.33-.17,1-.51,2-1,.58-.25,1.41-.57,2.1-.79l1.25-.36.43-.09a9.92,9.92,0,0,1,1-.21,20,20,0,0,1,2.35-.26c.86-.06,1.28,0,1.53,0A25.8,25.8,0,0,0,188.17,207.55Z"/><path class="cls-2" d="M175,205.41a11,11,0,0,0-3.72.54c-.25.08-.66.2-1.5.5-.58.21-1.56.57-2.38.91s-1.49.63-1.49.63l-1.27.57c-.71.34-1.57.76-2.17,1.08-1,.55-1.69.92-2,1.11a11.32,11.32,0,0,0-2.9,2.4,17.37,17.37,0,0,0,3.4-1.53c.33-.18,1-.54,2-1.09.59-.31,1.43-.72,2.13-1.05l1.24-.57s.66-.3,1.47-.62,1.77-.68,2.34-.88l1.47-.51A17.86,17.86,0,0,0,175,205.41Z"/><path class="cls-2" d="M166.82,208.65a2.37,2.37,0,0,0-.13,1.48l.89,3.68s.72,3.09.89,3.7a2.33,2.33,0,0,0,.85,1.24,2.44,2.44,0,0,0,.13-1.48l-.89-3.69s-.72-3.08-.9-3.7A2.27,2.27,0,0,0,166.82,208.65Z"/><use width="35.06" height="21.65" transform="translate(129.56 152.07) scale(1.2)" xlink:href="#Fuzzballs_face_1"/></g></svg>