<svg xmlns="http://www.w3.org/2000/svg" xmlns:xlink="http://www.w3.org/1999/xlink" viewBox="0 0 300 300"><defs><style>.cls-1{fill:url(#radial-gradient);}.cls-2{fill:#202020;}.cls-3{fill:none;}.cls-4{fill:url(#New_Gradient_Swatch_20);}.cls-5,.cls-6{fill:#fff;}.cls-10,.cls-6,.cls-8{stroke:#000;stroke-miterlimit:10;}.cls-6{stroke-width:0.76px;}.cls-7{fill:#231f20;}.cls-8{fill:#cae8ea;stroke-width:0.65px;}.cls-9{fill:url(#radial-gradient-2);}.cls-10{fill:#f2f2f2;}</style><radialGradient id="radial-gradient" cx="41.46" cy="18.89" fx="78.86270523622403" fy="2.5708449996343674" r="43.36" gradientUnits="userSpaceOnUse"><stop offset="0" stop-color="#66aab0"/><stop offset="0.21" stop-color="#96c5c9"/><stop offset="0.42" stop-color="#c4dee0"/><stop offset="0.54" stop-color="#d3e7e8"/><stop offset="0.84" stop-color="#f3f8f9"/><stop offset="1" stop-color="#fff"/></radialGradient><radialGradient id="New_Gradient_Swatch_20" cx="86.59" cy="87.67" r="101.83" gradientTransform="translate(0 1.1) scale(1 0.99)" gradientUnits="userSpaceOnUse"><stop offset="0.28" stop-color="#7ee026"/><stop offset="0.62" stop-color="#61d714"/><stop offset="0.65" stop-color="#6bda1a"/><stop offset="0.71" stop-color="#86e32c"/><stop offset="0.78" stop-color="#b2f148"/><stop offset="0.84" stop-color="#dcff63"/><stop offset="0.93" stop-color="#efffb8"/></radialGradient><radialGradient id="radial-gradient-2" cx="10" cy="25.24" fy="-19.13521054748805" r="49.88" gradientUnits="userSpaceOnUse"><stop offset="0.04" stop-color="#66aab0"/><stop offset="0.14" stop-color="#86bcc0"/><stop offset="0.29" stop-color="#b1d4d7"/><stop offset="0.44" stop-color="#d3e7e8"/><stop offset="0.59" stop-color="#ebf4f5"/><stop offset="0.72" stop-color="#fafcfc"/><stop offset="0.83" stop-color="#fff"/></radialGradient><symbol id="Fuzzballs_arm_3" data-name="Fuzzballs_arm_3" viewBox="0 0 72.64 40.13"><path class="cls-1" d="M62.13,7.6c-2.24,6-4.3,14.88-4.81,16.57-1,3.13-2.88,6.23-6,7.33s-6.7-.17-9.19-2.36S38,24,36.42,21.09,27.08,1.34,20.12,3.68c-4.21,1.42-7.7,5.15-7.41,9.59,0,.12,0,.24,0,.36l-.11-.1a13.29,13.29,0,0,0-9.8,2.76c-1.3,1-2.48,2.54-2.34,4.2.2,2.57,3.51,3.9,6,3.08s7.84-5.87,7.84-5.87c-1.54,1.91-4.95,8.13-5.09,10.58s2,5.15,4.41,4.56c2-.49,2.86-2.74,3.45-4.69.37-1.21.73-2.42,1.1-3.63a18.58,18.58,0,0,1,4.15-1.82,4.88,4.88,0,0,1,2.26.43,7.88,7.88,0,0,0-.68,1.2,4.39,4.39,0,0,0,.72,5c2.05,1.8,5.55.13,6.54-2.41A8.32,8.32,0,0,0,31.57,23,70.49,70.49,0,0,0,38.68,34.2a14.58,14.58,0,0,0,9.42,5.23c5.16.45,10-2.7,12.83-6.74s5-8.51,6.87-18.9L72.64,1C69.07-.69,64.17,2.14,62.13,7.6Z"/><path class="cls-2" d="M27.31,20.24a8,8,0,0,0-2.89,2.27,8.24,8.24,0,0,0-.85,1.36A5.82,5.82,0,0,0,23,26.34a4.4,4.4,0,0,0,.93,2.9,3.61,3.61,0,0,0,3.35,1.25,4.44,4.44,0,0,0,.87-.2,5.72,5.72,0,0,0,3.5-3.24,7.8,7.8,0,0,0,.5-2.44A12.17,12.17,0,0,0,32,22.3a9.2,9.2,0,0,0-1.28-3.42A22.82,22.82,0,0,0,31,22.44a12,12,0,0,1,.11,2.12,7.07,7.07,0,0,1-.43,2.14,4.65,4.65,0,0,1-1.32,1.79,4.7,4.7,0,0,1-1.57.88,3.3,3.3,0,0,1-.7.16,2.63,2.63,0,0,1-.83,0,2.59,2.59,0,0,1-1.64-.91,3.52,3.52,0,0,1-.7-2.26,4.76,4.76,0,0,1,.51-2.06,7.59,7.59,0,0,1,.75-1.21C26.07,22,26.6,21.31,27.31,20.24Z"/><path class="cls-2" d="M12.64,13.53A6.79,6.79,0,0,0,9,13.11c-.21,0-.52.08-.9.16l-.61.16-.23.06-.3.09-.6.2a11.75,11.75,0,0,0-1.22.52,12.46,12.46,0,0,0-2.41,1.47A8,8,0,0,0,.65,18a4,4,0,0,0-.5,3.23,4.11,4.11,0,0,0,2.18,2.45,5.86,5.86,0,0,0,3.09.58,5.94,5.94,0,0,0,2.77-1,37.58,37.58,0,0,0,3.9-2.93c1.07-.91,1.92-1.68,2.52-2.23h0c-1.42-1.32-.4-.37-.72-.66h0l0,0,0,.06-.09.11a1.92,1.92,0,0,1-.16.21l-.23.33-.19.28h0l0,.07a39.06,39.06,0,0,0-2.32,4,26.84,26.84,0,0,0-1.88,4.54,5.25,5.25,0,0,0,1.86,5.6,3.5,3.5,0,0,0,3.28.55A4.59,4.59,0,0,0,16.45,31a14.1,14.1,0,0,0,1.11-2.79l.78-2.57c.28-.95.51-1.72.63-2.11A12.79,12.79,0,0,0,19.54,20,13.32,13.32,0,0,0,18,23.24l-.64,2.11-.78,2.57a13.16,13.16,0,0,1-1,2.59,3.59,3.59,0,0,1-1.86,1.77,2.45,2.45,0,0,1-2.36-.41A4.26,4.26,0,0,1,9.9,29.76a3.88,3.88,0,0,1,0-2.45A25.8,25.8,0,0,1,11.68,23,40.48,40.48,0,0,1,13.94,19L14,19h0l.18-.26.22-.32.14-.19.08-.1,0-.06,0,0h0L14,17.35h0c-.58.54-1.43,1.3-2.49,2.19A37.11,37.11,0,0,1,7.68,22.4a5.15,5.15,0,0,1-2.35.9,4.87,4.87,0,0,1-2.56-.48A3.11,3.11,0,0,1,1.09,21a3.09,3.09,0,0,1,.4-2.46,9.61,9.61,0,0,1,4.06-3.33,11.94,11.94,0,0,1,1.13-.48l.56-.19.28-.08.21-.06c.21,0,.4-.11.58-.14.35-.08.64-.13.83-.16Z"/><path class="cls-2" d="M17.74,25.2a1.78,1.78,0,0,0,1.05-.35,7.07,7.07,0,0,1,1.21-.8,6.53,6.53,0,0,1,1-.44,6.8,6.8,0,0,1,1.1-.25,7.16,7.16,0,0,1,1.45-.06A1.79,1.79,0,0,0,24.64,23a1.29,1.29,0,0,0-1-.64,7.13,7.13,0,0,0-1.66.06,8.54,8.54,0,0,0-1.26.29,8.83,8.83,0,0,0-1.19.5,7.69,7.69,0,0,0-1.39.93A1.3,1.3,0,0,0,17.74,25.2Z"/><path class="cls-2" d="M72.64,1A4.65,4.65,0,0,0,67.82.41,6.75,6.75,0,0,0,66.7,1a7.84,7.84,0,0,0-.73.46l-.14.1a1.08,1.08,0,0,0-.24.18l-.47.38c-.31.27-.6.56-.89.86A12.63,12.63,0,0,0,62.7,5a15,15,0,0,0-1.16,2.38c-.3.82-.59,1.65-.88,2.5-.56,1.71-1.08,3.47-1.59,5.26s-1,3.62-1.46,5.44A33.33,33.33,0,0,1,56,25.84a10.31,10.31,0,0,1-3.1,4.09,6.56,6.56,0,0,1-4.49,1.31,9.54,9.54,0,0,1-4.25-1.42,12.89,12.89,0,0,1-3.06-2.67A31.9,31.9,0,0,1,37.68,22c-.75-1.31-1.13-2-1.13-2L35.47,17.9c-.71-1.34-1.73-3.27-3.14-5.52a33.16,33.16,0,0,0-5.78-7.24,11.81,11.81,0,0,0-2.23-1.56,6.25,6.25,0,0,0-2.84-.76l-.78.06-.76.19a12.09,12.09,0,0,0-1.34.54,13.31,13.31,0,0,0-2.5,1.51,10.81,10.81,0,0,0-3.55,4.75,8.72,8.72,0,0,0-.49,3,7.24,7.24,0,0,0,.61,3A4.17,4.17,0,0,0,18,18.23a6.42,6.42,0,0,0,2.48-1.52,6.35,6.35,0,0,0,.89-1.12c.13-.2.23-.42.34-.63s.08-.21.13-.32l.09-.22a9.45,9.45,0,0,0,.51-3,10.25,10.25,0,0,0-1.16-4.69c-.13,1.69-.11,2.8-.12,4.66A8.4,8.4,0,0,1,20.67,14a4.81,4.81,0,0,1-1.15,1.81A5,5,0,0,1,17.57,17a3.11,3.11,0,0,1-2.19-.06,3,3,0,0,1-1.54-1.63,7.08,7.08,0,0,1-.08-5,9.44,9.44,0,0,1,3.13-4.16,12.08,12.08,0,0,1,2.25-1.37c.39-.19.8-.33,1.2-.48l.56-.14c.2,0,.39,0,.58,0a6.87,6.87,0,0,1,4.23,2,31.89,31.89,0,0,1,5.53,7c1.38,2.21,2.39,4.11,3.1,5.43l1.08,2.09s.4.77,1.15,2.08A32.83,32.83,0,0,0,40.14,28a12.23,12.23,0,0,0,8.19,4.53A7.87,7.87,0,0,0,53.68,31a11.56,11.56,0,0,0,3.5-4.59,16.91,16.91,0,0,0,1-2.75l.71-2.74c.48-1.83,1-3.64,1.46-5.42s1-3.53,1.58-5.2c.27-.84.56-1.66.85-2.46A13.54,13.54,0,0,1,63.8,5.64,11.73,11.73,0,0,1,65.17,3.8c.26-.26.52-.52.79-.76l.41-.33a1.46,1.46,0,0,1,.21-.16l.12-.08a6.14,6.14,0,0,1,.64-.41,7.31,7.31,0,0,1,1-.47A7.88,7.88,0,0,1,72.64,1Z"/><path class="cls-2" d="M31,21.88a13.94,13.94,0,0,0,1.73,4.66l.61,1.05.44.73,1.08,1.73a46.37,46.37,0,0,0,2.69,3.87,18.12,18.12,0,0,0,3.67,3.54,14.74,14.74,0,0,0,4.41,2.18,12.09,12.09,0,0,0,4.16.47,12.91,12.91,0,0,0,2.86-.51,7.51,7.51,0,0,0,.76-.25l.26-.09.27-.1.73-.32a15.09,15.09,0,0,0,2.48-1.44,17.33,17.33,0,0,0,3.07-2.77,27.5,27.5,0,0,0,2.75-4,38.43,38.43,0,0,0,3.69-9c.37-1.32.63-2.4.75-2.95a15.32,15.32,0,0,0,.35-5,21.59,21.59,0,0,0-1.64,4.66c-.13.53-.39,1.6-.75,2.88A37.52,37.52,0,0,1,61.86,30a26.63,26.63,0,0,1-2.6,3.76,16.64,16.64,0,0,1-2.84,2.56,14.89,14.89,0,0,1-2.27,1.33l-.67.29-.24.09L53,38.1a4.75,4.75,0,0,1-.69.22,11.4,11.4,0,0,1-2.56.46A10.68,10.68,0,0,1,46,38.35a13.32,13.32,0,0,1-4-2c-2.59-1.79-4.46-4.62-6-7L35,27.62l-.43-.71-.61-1A25.27,25.27,0,0,0,31,21.88Z"/><path class="cls-3" d="M17.74,25.2A7.17,7.17,0,0,1,24.64,23"/></symbol><symbol id="Fuzzballs_leg_2" data-name="Fuzzballs_leg_2" viewBox="0 0 23.42 56.36"><path class="cls-9" d="M.13,0C2.45,19.75,14.48,24.4,14.48,24.4c2.59,4.24,1.35,9.67,0,14.45S11.81,49,14.28,53.33c.84,1.47,2.49,2.8,4.09,2.24,1.45-.5,2-2.25,2.21-3.77,1.12-8.06-1.4-16.57,1.27-24.26a13.14,13.14,0,0,0,.89-3,3.09,3.09,0,0,0-1.09-2.83c-1.53-1.06-3.62.08-5,1.28,0,0-7.56-7.42-7-18"/><path class="cls-2" d="M.13,0A22.29,22.29,0,0,0,0,2.38c0,.38,0,.78.06,1.21S.21,4.46.32,5c.07.27.16.68.28,1.19.06.25.11.53.2.83l.69,2.2c.22.81.61,1.59.92,2.41A28.79,28.79,0,0,0,8.64,21a20.63,20.63,0,0,0,4.86,3.63l.35.18.17.07h0l.23.42a8.3,8.3,0,0,1,.53,1.27,10.82,10.82,0,0,1,.52,2.72c.24,3.76-.93,7.42-1.86,10.82s-1.49,6.79-1,9.68a10.69,10.69,0,0,0,1.26,3.75,6,6,0,0,0,2.2,2.29,3.39,3.39,0,0,0,2.17.46,2.33,2.33,0,0,0,.79-.23,2.44,2.44,0,0,0,.69-.42,4.24,4.24,0,0,0,1.22-1.76,10.82,10.82,0,0,0,.61-3c.13-1.12.18-2.4.21-3.79,0-2.79-.23-6-.3-9.54A27.3,27.3,0,0,1,22.83,26.8a7,7,0,0,0,.56-3.17A3.74,3.74,0,0,0,22.82,22a3,3,0,0,0-1.48-1.17,4.26,4.26,0,0,0-3.37.45,10.91,10.91,0,0,0-1.31.83h0l-.18-.21a26.38,26.38,0,0,1-3.19-4.56,26.8,26.8,0,0,1-1.18-2.41c-.17-.4-.33-.81-.49-1.21s-.25-.75-.37-1.12a19.38,19.38,0,0,1-.69-2.83c-.36-2-.57-3-1-4.76a10.25,10.25,0,0,0-.33,5A22.81,22.81,0,0,0,10,13c.13.39.27.79.4,1.19l.51,1.27c.37.85.78,1.7,1.24,2.53a28.4,28.4,0,0,0,3.35,4.8l.31.34.5.52c.09.07.17.2.26.23l.28-.22.58-.44a7.39,7.39,0,0,1,1.17-.75A3,3,0,0,1,20.89,22a1.92,1.92,0,0,1,1.18,1.73,6,6,0,0,1-.49,2.57,24.3,24.3,0,0,0-1.43,5.73,37.85,37.85,0,0,0-.23,5.57c.07,3.57.32,6.79.3,9.51a35.71,35.71,0,0,1-.2,3.66,9.24,9.24,0,0,1-.53,2.62,2.93,2.93,0,0,1-.81,1.22,1.59,1.59,0,0,1-.4.24,1.44,1.44,0,0,1-.44.13,2.09,2.09,0,0,1-1.33-.31,4.63,4.63,0,0,1-1.69-1.78,9.57,9.57,0,0,1-1.11-3.3c-.42-2.59.09-5.77,1-9.13s2.15-7.15,1.9-11.26a11.52,11.52,0,0,0-.59-3,8.69,8.69,0,0,0-.6-1.45c-.15-.26-.19-.38-.49-.87l-.35-.15-.17-.08-.31-.16a19.43,19.43,0,0,1-4.53-3.39,27.6,27.6,0,0,1-5.94-9c-.3-.79-.67-1.54-.89-2.32L2.08,6.63C2,6.35,2,6.07,1.89,5.83c-.12-.49-.21-.89-.27-1.16-.12-.48-.24-.91-.35-1.32S1.07,2.58,1,2.22A23.13,23.13,0,0,0,.13,0Z"/></symbol><symbol id="Fuzzballs_wing_1" data-name="Fuzzballs_wing_1" viewBox="0 0 50.98 56.48"><path class="cls-10" d="M50.6,37.23C44.25,29.89,43,12.58,44.94,3.66c.2-.87.61-3.7-3.68-3.07C37.56,1.13,10.56,12.88,3.61,23a.85.85,0,0,0,1.24,1.13c4-3.26,16.58-9.71,21.16-10.54C19.72,18.24,3.8,30.38.57,37.52a.8.8,0,0,0,1.25.94c4.83-4.44,23.29-16.27,25-17.75C18.72,27.44,4.7,44,2.17,54.25a1.38,1.38,0,0,0,2.4,1.23C11.51,47.21,23.7,30,28.25,25.36,24.39,31.08,21.09,36,19.32,43a1.11,1.11,0,0,0,1.93,1c5-6.12,8.83-12.67,12.92-19.43-1.18,1.22-4.9,9.93-5.54,14.12a.72.72,0,0,0,1.28.54c3.63-4.88,6.11-9.71,9.07-15A36.45,36.45,0,0,0,47.7,41.38"/></symbol><symbol id="Fuzzballs_body_1_2" data-name="Fuzzballs_body_1 2" viewBox="0 0 171.73 170.98"><path class="cls-4" d="M162.44,99.83l-.86-.32a6.93,6.93,0,0,0,.91-.4L164.62,98,163,96.18a4.11,4.11,0,0,0-2.26-1.37L157,94.06l-.21,0,2.63.35c.61.07,1.15.12,1.64.14a19.18,19.18,0,0,0,3.17-.16l7.47-.86-7-2.74a17.66,17.66,0,0,0-4.65-1.25l-2.72-.36,2.24.13a3.37,3.37,0,0,0,2.44-1L163.53,87l-1.34-1.43a3.54,3.54,0,0,0-2-1.19,4.24,4.24,0,0,0,1.95-.88l2.05-1.5-2.05-1.51a4,4,0,0,0-2.57-1h-1l2.35-.35a3.94,3.94,0,0,0,2.34-1.33l1.71-1.76-2.14-1.18a4,4,0,0,0-2.67-.58l-1.25.18a4,4,0,0,0,1.27-1.24l1.24-1.75-1.9-1-.23-.11L160.7,70a16.93,16.93,0,0,0,4.42-2l6.46-3.84-7.51.36a18.57,18.57,0,0,0-4.72.73l-3.4,1,.76-.28a4.32,4.32,0,0,0,2.1-1.78L160.36,62l-2.63-.65a4.36,4.36,0,0,0-2.78.07l-4.09,1.54a2.53,2.53,0,0,0-.23-.12l6-2.86A4.22,4.22,0,0,0,158.6,58l1.28-2.29-2.58-.47a4.27,4.27,0,0,0-2.75.27l-6.34,3,1.09-.61s.64-.34,1.37-.69,1.36-.61,1.67-.73A3.81,3.81,0,0,0,154,55.34l1.85-1.92-2-1.21a3.58,3.58,0,0,0-3.12-.34l-.06,0a4.82,4.82,0,0,0,.78-1.22l1.11-2.29L150,48a4.09,4.09,0,0,0-2.72.36l-1.39.18a3,3,0,0,0,1.3-2.26l.23-1.56-1.49-.5c-.12,0-.27-.09-.44-.13l1.91-1a4.57,4.57,0,0,0,1.93-2l1.42-2.54-2.89-.24a4.74,4.74,0,0,0-2.79.49l-.81.43a5.73,5.73,0,0,0,.3-.95l.57-2.35-2.42,0a4,4,0,0,0-2.53.75l-3,2.23-.17.13,2-1.73a17.71,17.71,0,0,0,3.2-3.59l4.36-6.12L139.82,31a17.67,17.67,0,0,0-4,2.62l-2.07,1.77,1.59-1.57a3.39,3.39,0,0,0,.91-2.46l.05-2-2,0a3.54,3.54,0,0,0-2.2.67,4.21,4.21,0,0,0,.62-2l.26-2.52-2.49.5a4.12,4.12,0,0,0-2.43,1.27l-.69.77,1.31-2a4,4,0,0,0,.57-2.63L129.08,21l-2.31.8a4,4,0,0,0-2.22,1.59l-.12.18a4.28,4.28,0,0,0,.14-2L124.26,19l-2.33,1.07-.15.07a16.5,16.5,0,0,0,1.52-4.37l1.61-7.34L120,14.19a19.83,19.83,0,0,0-2.71,3.89l-1.27,2.35a4.39,4.39,0,0,0,.11-2.66l-.57-2.65-2.27,1.48a4.29,4.29,0,0,0-1.85,2.07l.12-2.24a4.2,4.2,0,0,0-.1-2.73l-.8-2.51-2.11,1.58A4.29,4.29,0,0,0,106.92,15l-2.14,6.67c.15-.65.3-1.19.3-1.2s.19-.7.43-1.47c.11-.34.3-.94.61-1.72a3.83,3.83,0,0,0,.26-2l-.13-2.66-2.28.66a3.48,3.48,0,0,0-1.91,1.28,4.86,4.86,0,0,0-.26-2.1l-.86-2.81-2.18,2A4.75,4.75,0,0,0,97.19,14l-1.54,5.51a4.68,4.68,0,0,0-.19-.45l-.08-.17,1.1-5.77A4,4,0,0,0,96,10.43L94.94,8.15l-1.86,1.7a4.1,4.1,0,0,0-1.43,2.34L90.73,17c0-.18-.06-.37-.1-.56l.28-4.26a16.66,16.66,0,0,0-.41-4.84L89,0,86.88,7.21A18.88,18.88,0,0,0,86,11.9l-.34,5.17-.09-3.2a4.36,4.36,0,0,0-1-2.57L83,9.11l-1.47,2.28A4.3,4.3,0,0,0,80.67,14l.14,5.06a2.59,2.59,0,0,0-.19-.33l-.75-6.82a4.27,4.27,0,0,0-1.21-2.46l-1.74-2L75.63,9.81A4.22,4.22,0,0,0,75,12.5l.76,7c-.12-.66-.21-1.21-.21-1.21s-.12-.73-.21-1.52-.13-1.57-.15-1.82A3.74,3.74,0,0,0,74.63,13c0-.08-.09-.17-.14-.26l-1.07-2.12-1.81,1.53A3.59,3.59,0,0,0,70.27,15v.09a4.65,4.65,0,0,0-.9-1.16l-1.8-1.8-1.18,2.26a4.15,4.15,0,0,0-.54,2.69l.65,4.13a2.83,2.83,0,0,0-.28.2l-.65-2.95a3,3,0,0,0-1.72-2l-1.4-.73L61.5,17a3.38,3.38,0,0,0-.3.41l-.33-1.88a4.62,4.62,0,0,0-1.34-2.47l-2-2.13-1.12,2.68a4.54,4.54,0,0,0-.4,2.8l.16.9a5.82,5.82,0,0,0-.81-.58l-2.07-1.27-.7,2.33a4,4,0,0,0-.06,2.63l.71,2.13L53,22.11l-.15-.38a17.68,17.68,0,0,0-2.42-4.15l-4.48-6L47,19a17.85,17.85,0,0,0,1.24,4.66l1.05,2.52-1-2a3.43,3.43,0,0,0-2.06-1.64l-1.85-.65-.56,1.88a3.46,3.46,0,0,0,0,2.3,4.32,4.32,0,0,0-1.72-1.22l-2.33-1-.29,2.52A4.17,4.17,0,0,0,39.92,29l.52.89L39,28.08a4,4,0,0,0-2.33-1.37l-2.37-.6,0,2.45a4,4,0,0,0,.83,2.6L36,32.21a4.53,4.53,0,0,0-1.51-.4l-2.13-.23.06,2.14c0,.1,0,.2,0,.3a17.58,17.58,0,0,0-3.15-2.32l-6.41-3.92,3.82,6.47a18,18,0,0,0,2.9,3.85l.71.72-.54-.46a4.35,4.35,0,0,0-2.57-1l-2.7-.27.7,2.61a4.36,4.36,0,0,0,1.41,2.4l3.61,3.07-.34,0-5.37-3.86a4.18,4.18,0,0,0-2.63-.74l-2.62,0L20.06,43a4.24,4.24,0,0,0,1.57,2.27l5.57,4-.94-.59s-.61-.4-1.26-.86-1.2-.9-1.45-1.11a3.81,3.81,0,0,0-1.8-.86l-2.57-.7-.07,2.37a3.53,3.53,0,0,0,1.21,2.89l0,0a5.17,5.17,0,0,0-1.45-.09l-2.53.14L17.27,53a4.14,4.14,0,0,0,1.63,2.2s5.4,3.72,5.15,3.57l-4.31-2.44a3,3,0,0,0-2.61,0l-1.48.55.29,1.55c0,.13.06.3.11.5l-1.62-1a4.67,4.67,0,0,0-2.73-.65l-2.9,0L10,59.85A4.66,4.66,0,0,0,11.85,62l.78.48a5.53,5.53,0,0,0-1,.21l-2.33.69,1.26,2.07a3.91,3.91,0,0,0,1.92,1.81l1.6.7-.72-.08A17.78,17.78,0,0,0,8.93,67l-7.48-.71,6.27,4.14A17.78,17.78,0,0,0,12,72.62l2.58.91-2.16-.59a3.35,3.35,0,0,0-2.58.44l-1.72.94,1,1.67a3.49,3.49,0,0,0,1.71,1.58A4.29,4.29,0,0,0,8.77,78l-2.32,1L8.14,81a4,4,0,0,0,2.31,1.47l1,.22-2.37-.14h0a4,4,0,0,0-2.56.82l-2,1.36L6.34,86.3a4,4,0,0,0,2.48,1.12l1.39.08a4.29,4.29,0,0,0-1.35.86L7.27,89.78l1.62,1.39,0,0c-.83,0-1.58.07-1.87.1a4.8,4.8,0,0,0-2.67,1L1.9,94.09l2.7,1.43a5,5,0,0,0,2.29.69,3.38,3.38,0,0,0,.45,0l4.73-.16-1.51.2a4.36,4.36,0,0,0-2.45,1.26l-2,1.82,2.42,1.23a4.62,4.62,0,0,0,2,.59,4.64,4.64,0,0,0,.73,0l5.06-.67a1.7,1.7,0,0,0-.19.19l-6.88,1.49a4.25,4.25,0,0,0-2.31,1.46l-1.77,1.94,2.42,1a4.82,4.82,0,0,0,1.72.44,4.18,4.18,0,0,0,1-.08l6.84-1.49c-.65.2-1.19.34-1.19.34s-.71.19-1.49.36-1.54.3-1.79.34a3.73,3.73,0,0,0-1.84.76l-.24.16-2,1.28,1.71,1.64a3.45,3.45,0,0,0,2.38,1.05,3.79,3.79,0,0,0,.58,0h.06a5,5,0,0,0-1,1l-1.59,2,2.37.93a4.7,4.7,0,0,0,1.58.38,4.05,4.05,0,0,0,1.15-.12s6.52-1.57,6.09-1.43l-4.69,1.57a3,3,0,0,0-1.78,1.91l-.58,1.46,1.35.82a3.47,3.47,0,0,0,.45.25l-1.85.53a4.73,4.73,0,0,0-2.31,1.59l-1.91,2.19,2.78.83a5.42,5.42,0,0,0,1.43.28,4.5,4.5,0,0,0,1.39-.17l.89-.26a6,6,0,0,0-.5.87l-1,2.19,2.38.45a5.77,5.77,0,0,0,.93.12,3.6,3.6,0,0,0,1.7-.34l2.31-1.05-.34.31-.69.37a17.26,17.26,0,0,0-3.88,2.85L12.39,136l7.27-1.89a17.35,17.35,0,0,0,4.5-1.72L26.57,131l-1.88,1.21a3.39,3.39,0,0,0-1.41,2.22l-.45,1.91,1.92.37c.2,0,.46.08.77.1a3.17,3.17,0,0,0,1.53-.32,4.4,4.4,0,0,0-1,1.85l-.77,2.42,2.54,0a4.1,4.1,0,0,0,2.64-.73l.83-.61-1.69,1.66a4,4,0,0,0-1.11,2.46L28.1,146l2.43-.3a4,4,0,0,0,2.5-1.09l2.42-2.39L33.31,145a4.67,4.67,0,0,0-1,2.52L32,150.28l2.7-.74.58-.18c-.33.6-.62,1.21-1,1.95l-3.07,6.85,5.92-4.61a16.19,16.19,0,0,0,3-2.83,6,6,0,0,0-.09,1.18v2.71l2.53-1A4.4,4.4,0,0,0,44.83,152l-.59,2.16a4.2,4.2,0,0,0-.47,2.7l.26,2.61,2.39-1.1a4.21,4.21,0,0,0,2.1-1.79L52,150.49c-.28.61-.54,1.11-.54,1.11s-.33.65-.73,1.35c-.25.46-.58,1-.94,1.55a3.92,3.92,0,0,0-.68,1.88c0,.09,0,.18,0,.29L48.68,159l2.37-.17a3.57,3.57,0,0,0,2.74-1.51l0-.05a5.31,5.31,0,0,0,.06,1.45l.4,2.51,2.28-1.14a4.07,4.07,0,0,0,2-1.85l1-.95a3,3,0,0,0,.24,2.6l.7,1.41,1.5-.45a3.64,3.64,0,0,0,1.2-.56l-.38.9-.07.16a4,4,0,0,0-.19,2.65l.48,2.45,2.21-1.15a4,4,0,0,0,2-1.93c.08-.17.21-.47.36-.82l.83,1.42,1.6-.9,0,0a4.45,4.45,0,0,0,.22,2.75l1,2.68,2.08-1.94a4.6,4.6,0,0,0,1.5-2.27l0-.11c.12-.41.39-1.33.67-2.17l1.25-3.67c.16-.47.12,4.49.12,4.49a3.39,3.39,0,0,0,.7,2.53L78.77,167l1.56-1.18a3.47,3.47,0,0,0,1.39-1.87,4.36,4.36,0,0,0,.68,2l1.28,2.19,1.71-1.87a4.13,4.13,0,0,0,1.22-2.46l.11-1,.11,2.37a4,4,0,0,0,1.07,2.46l1.57,1.89,1.4-2a3.9,3.9,0,0,0,.86-2.59l-.06-1.39a4.12,4.12,0,0,0,1,1.25l1.58,1.44,1.22-1.76a3.61,3.61,0,0,0,.75-2.57l0-.25c.2.79.37,1.56.44,1.88A4.82,4.82,0,0,0,98,165.89l2,2.1,1.1-2.67a6.57,6.57,0,0,0,.38-1.16,5,5,0,0,0,.41.39l2,1.81,1-2.53a4.33,4.33,0,0,0,.28-2.76l-1-4,.19-.14,2,6.06A4.24,4.24,0,0,0,108,165.1l2.12,1.56.78-2.51a4.31,4.31,0,0,0,.07-2.76l-2.2-6.65c.26.62.47,1.14.47,1.14s.26.69.51,1.44.46,1.51.53,1.75a3.69,3.69,0,0,0,.94,1.75l.19.23,1.48,1.85,1.45-1.87a3.6,3.6,0,0,0,.73-3.05l0-.06a5.52,5.52,0,0,0,1.12.92l2.14,1.38.68-2.45a4.17,4.17,0,0,0,0-2.75l-1.72-4.51.23-.14,1.48,3.25a3,3,0,0,0,2.09,1.56l1.51.43.68-1.42c.06-.13.13-.29.2-.47l.72,1.77a4.56,4.56,0,0,0,1.82,2.13l2.37,1.67.54-2.85a4.69,4.69,0,0,0-.19-2.82l-.34-.85a5.06,5.06,0,0,0,.91.4l2.29.81.2-2.42a4.05,4.05,0,0,0-.5-2.59l-1.9-3.23-.1-.19,1.5,2.19A17.72,17.72,0,0,0,134,151.3l5.63,5-2.64-7a18.08,18.08,0,0,0-2.18-4.29l-1.56-2.26,1.4,1.75a3.46,3.46,0,0,0,2.36,1.17l1.94.25.16-2a3.54,3.54,0,0,0-.44-2.26,4.28,4.28,0,0,0,1.94.83l2.48.52-.24-2.53a4.09,4.09,0,0,0-1-2.55l-.69-.77,1.83,1.51a4,4,0,0,0,2.52.85h0l2.45.09-.55-2.38a3.94,3.94,0,0,0-1.35-2.37L145,134a3.92,3.92,0,0,0,.73.11,7.58,7.58,0,0,0,.84,0l2.12-.22-.5-2.08a4.73,4.73,0,0,0-.16-.59,18.69,18.69,0,0,0,4,1.74l7.15,2.35L154,129.85a16.59,16.59,0,0,0-3.44-2.89,3.77,3.77,0,0,0,1.06.19,6.27,6.27,0,0,0,1,0l2.69-.3-1.22-2.41a4.48,4.48,0,0,0-1.87-2.06s-4-2.3-4-2.35l6.18,2.71a3.65,3.65,0,0,0,1.38.32,4.87,4.87,0,0,0,1.35-.14l2.57-.53-1.35-2.25a4.12,4.12,0,0,0-2-1.9l-6.41-2.83c.63.22,1.16.42,1.16.43s.69.26,1.42.58c.48.2,1.09.49,1.65.78a3.78,3.78,0,0,0,1.93.47h.3l2.37.14-.43-2.34a3.53,3.53,0,0,0-1.78-2.57l-.06,0a5,5,0,0,0,1.44-.21l2.45-.66L159,109.81A4.11,4.11,0,0,0,157,108l-4.66-1.8.12-.24,3.49,1.1a2.6,2.6,0,0,0,.65.11,3.25,3.25,0,0,0,1.91-.61l1.33-.84-.61-1.46c0-.12-.12-.28-.21-.46l1.8.65a4,4,0,0,0,1.28.25,5.57,5.57,0,0,0,1.52-.17l2.83-.65-1.76-2.31A4.57,4.57,0,0,0,162.44,99.83Z"/><path class="cls-2" d="M87.6,17.17a18,18,0,0,0,.83-4.59c0-.32,0-.85.11-1.95,0-.28.06-1,.06-1s0-.55.06-.86c.08-1.47.14-2.38.16-2.86A15.72,15.72,0,0,0,88.4,1.3a18.2,18.2,0,0,0-.83,4.59c0,.48-.08,1.38-.17,2.85,0,.31-.05.87-.05.87s0,.66-.06.94c-.06,1.11-.09,1.64-.11,2A15.72,15.72,0,0,0,87.6,17.17Z"/><path class="cls-2" d="M82.45,6.33A2.74,2.74,0,0,0,81.88,8c0,.76.15,4.52.15,4.52s.13,3.76.16,4.51a2.67,2.67,0,0,0,.68,1.65A2.7,2.7,0,0,0,83.44,17c0-.75-.15-4.52-.15-4.52S83.16,8.73,83.13,8A2.67,2.67,0,0,0,82.45,6.33Z"/><path class="cls-2" d="M76.22,4.58a2.55,2.55,0,0,0-.43,1.68c.08.72.5,4.35.5,4.35s.42,3.62.51,4.35a2.55,2.55,0,0,0,.8,1.54A2.52,2.52,0,0,0,78,14.82c-.08-.73-.5-4.36-.5-4.36S77.12,6.84,77,6.11A2.51,2.51,0,0,0,76.22,4.58Z"/><path class="cls-2" d="M71.48,7.65a1.8,1.8,0,0,0-.71,1.48c0,.34.07,1.36.19,2.28s.25,1.74.25,1.74.13.82.32,1.73.45,1.89.56,2.22a1.75,1.75,0,0,0,1.16,1.16,3,3,0,0,0,0-1.53c-.08-.31-.34-1.23-.52-2.11s-.31-1.68-.31-1.68-.13-.8-.24-1.69S72,9.41,72,9.09A2.88,2.88,0,0,0,71.48,7.65Z"/><path class="cls-2" d="M66.4,9.46A2.44,2.44,0,0,0,66,11.1c.12.7.68,4.19.68,4.19s.57,3.49.68,4.19a2.51,2.51,0,0,0,.87,1.45,2.47,2.47,0,0,0,.37-1.65c-.11-.7-.68-4.19-.68-4.19s-.57-3.49-.68-4.19A2.41,2.41,0,0,0,66.4,9.46Z"/><path class="cls-2" d="M61,12.59c-.32.42-.48.69-.4,1.08l.59,2.56s.48,2.13.58,2.56.36.56.83.8c.31-.41.47-.69.39-1.08S62.41,16,62.41,16l-.59-2.56C61.73,13,61.46,12.83,61,12.59Z"/><path class="cls-2" d="M34,39.11a16.72,16.72,0,0,0-2.82-3.71c-.23-.24-.61-.61-1.39-1.39L29.77,34l0,0c-.84-.83-1.75-1.74-2-2A17,17,0,0,0,24,29a17,17,0,0,0,2.82,3.72c.31.3,1.21,1.21,2,2l0,0,.06.07,1.39,1.38A16.7,16.7,0,0,0,34,39.11Z"/><path class="cls-2" d="M22.63,35.4A2.68,2.68,0,0,0,23.5,37L27,39.86l3.46,2.9a2.71,2.71,0,0,0,1.68.6,2.7,2.7,0,0,0-.87-1.55L27.77,38.9,24.31,36A2.64,2.64,0,0,0,22.63,35.4Z"/><path class="cls-2" d="M17.16,38.85a2.55,2.55,0,0,0,.95,1.45l3.57,2.53,3.58,2.54a2.56,2.56,0,0,0,1.68.43,2.53,2.53,0,0,0-1-1.45c-.59-.43-3.57-2.54-3.57-2.54s-3-2.11-3.57-2.54A2.57,2.57,0,0,0,17.16,38.85Z"/><path class="cls-2" d="M16.27,44.43A1.82,1.82,0,0,0,16.89,46c.26.22,1.06.86,1.82,1.38s1.46,1,1.46,1,.71.45,1.5.92,1.71.93,2,1.07a1.74,1.74,0,0,0,1.64-.09c-.42-.48-.58-.81-1.11-1.05-.28-.14-1.14-.56-1.91-1s-1.46-.89-1.46-.89-.68-.44-1.42-1S18,45.19,17.7,45A2.86,2.86,0,0,0,16.27,44.43Z"/><path class="cls-2" d="M30.39,29.4a1.88,1.88,0,0,0,.43,1.39l2.43,2.6s2,2.17,2.43,2.61a1.89,1.89,0,0,0,1.36.53,1.88,1.88,0,0,0-.44-1.39l-2.43-2.6-2.43-2.61A1.88,1.88,0,0,0,30.39,29.4Z"/><path class="cls-2" d="M32.4,23.88a2.21,2.21,0,0,0,.46,1.56l2.56,3.18L38,31.8a2.31,2.31,0,0,0,1.44.78A2.31,2.31,0,0,0,39,31L36.4,27.84l-2.56-3.18A2.36,2.36,0,0,0,32.4,23.88Z"/><path class="cls-2" d="M37.89,21.73a2.41,2.41,0,0,0,.25,1.66l2.13,3.66,2.13,3.66a2.38,2.38,0,0,0,1.33,1,2.41,2.41,0,0,0-.25-1.66l-2.13-3.66-2.13-3.66A2.47,2.47,0,0,0,37.89,21.73Z"/><path class="cls-2" d="M42.48,19.29a1.65,1.65,0,0,0,0,1.36L44,23.56l1.48,2.9a1.65,1.65,0,0,0,1.11.79,1.73,1.73,0,0,0,0-1.36L45.07,23l-1.49-2.91A1.62,1.62,0,0,0,42.48,19.29Z"/><path class="cls-2" d="M45.91,13.28a17,17,0,0,0,1.23,4.5c.12.3.33.79.76,1.81l.23.55.21.5c.57,1.35.93,2.19,1.12,2.63a16.94,16.94,0,0,0,2.38,4,17.14,17.14,0,0,0-1.23-4.51c-.18-.44-.54-1.28-1.11-2.63-.08-.18-.21-.5-.21-.5l-.23-.55c-.43-1-.64-1.5-.77-1.8A16.75,16.75,0,0,0,45.91,13.28Z"/><path class="cls-2" d="M55.48,23.31a2.36,2.36,0,0,0,.07-1.61l-1.3-3.82S53.19,14.68,53,14a2.22,2.22,0,0,0-1.11-1.19,2.37,2.37,0,0,0-.08,1.61l1.3,3.82s1.06,3.2,1.31,3.84A2.22,2.22,0,0,0,55.48,23.31Z"/><path class="cls-2" d="M14.21,49.41a2.46,2.46,0,0,0,1,1.38l3.57,2.3,3.56,2.29A2.38,2.38,0,0,0,24,55.7a2.39,2.39,0,0,0-1-1.37L19.44,52l-3.57-2.3A2.48,2.48,0,0,0,14.21,49.41Z"/><path class="cls-2" d="M12.92,55.52c.1.52.2.82.54,1l2.29,1.28,2.3,1.28c.35.19.66.11,1.15-.08-.1-.51-.2-.81-.54-1l-2.29-1.28-2.3-1.27C13.72,55.26,13.41,55.34,12.92,55.52Z"/><path class="cls-2" d="M58.22,21.59a3,3,0,0,0,.29-1.87c-.15-.79-.88-4.76-.88-4.76s-.73-4-.87-4.76a3.07,3.07,0,0,0-.94-1.64,3,3,0,0,0-.29,1.87c.14.79.87,4.76.87,4.76s.73,4,.88,4.76A2.94,2.94,0,0,0,58.22,21.59Z"/><path class="cls-2" d="M13.91,93.26a3.26,3.26,0,0,0-1.92-.5l-2.84.14L6.93,93l-2.23.07c-1.17,0-2.44.11-2.87.15A3.11,3.11,0,0,0,0,94a3.3,3.3,0,0,0,1.91.5l2.84-.14L7,94.23l2.23-.07c1.17,0,2.45-.12,2.87-.15A3.3,3.3,0,0,0,13.91,93.26Z"/><path class="cls-2" d="M4.2,99.3a2.64,2.64,0,0,0,1.74.39l4.47-.63,4.48-.62a2.75,2.75,0,0,0,1.56-.85,2.64,2.64,0,0,0-1.74-.39l-4.47.62-4.48.63A2.64,2.64,0,0,0,4.2,99.3Z"/><path class="cls-2" d="M3.1,105.67a2.55,2.55,0,0,0,1.72.26l4.27-1,4.28-1a2.59,2.59,0,0,0,1.44-1,2.51,2.51,0,0,0-1.71-.26l-4.28,1-4.28,1A2.59,2.59,0,0,0,3.1,105.67Z"/><path class="cls-2" d="M6.66,110.07a1.79,1.79,0,0,0,1.54.55c.34,0,1.35-.21,2.24-.42s1.71-.44,1.71-.44.81-.21,1.69-.49,1.83-.65,2.15-.79a1.78,1.78,0,0,0,1-1.28,3.08,3.08,0,0,0-1.53.13c-.29.12-1.18.47-2,.74s-1.63.48-1.63.48-.79.22-1.66.42-1.82.36-2.13.41A2.92,2.92,0,0,0,6.66,110.07Z"/><path class="cls-2" d="M4.93,89.52a1.88,1.88,0,0,0,1.33.6l3.56-.06L13.38,90a1.88,1.88,0,0,0,1.31-.65,1.9,1.9,0,0,0-1.33-.6l-3.56.06-3.57.06A1.88,1.88,0,0,0,4.93,89.52Z"/><path class="cls-2" d="M2.18,84.33A2.25,2.25,0,0,0,3.64,85l4.08.22,4.08.22a2.32,2.32,0,0,0,1.54-.55,2.3,2.3,0,0,0-1.46-.71L7.8,84l-4.08-.22A2.26,2.26,0,0,0,2.18,84.33Z"/><path class="cls-2" d="M4.25,78.81a2.42,2.42,0,0,0,1.41.93l4.14.87,4.15.86a2.43,2.43,0,0,0,1.65-.3,2.4,2.4,0,0,0-1.4-.93l-4.14-.86-4.15-.86A2.4,2.4,0,0,0,4.25,78.81Z"/><path class="cls-2" d="M5.51,73.77c.3.49.52.78,1,.91l3.15.85,3.16.84a1.66,1.66,0,0,0,1.32-.3,1.66,1.66,0,0,0-1-.91L10,74.31l-3.16-.84A1.64,1.64,0,0,0,5.51,73.77Z"/><path class="cls-2" d="M3.34,67.19A16.79,16.79,0,0,0,7.51,69.3l1.85.64.56.19.51.19,2.71.93a17,17,0,0,0,4.58.92,17,17,0,0,0-4.17-2.11l-2.7-.94L10.33,69l-.56-.2-1.85-.64A17.07,17.07,0,0,0,3.34,67.19Z"/><path class="cls-2" d="M17.2,66.8a2.38,2.38,0,0,0-1.15-1.13l-3.71-1.59s-3.09-1.36-3.72-1.6a2.19,2.19,0,0,0-1.63,0,2.34,2.34,0,0,0,1.15,1.13l3.7,1.59s3.09,1.35,3.73,1.6A2.19,2.19,0,0,0,17.2,66.8Z"/><path class="cls-2" d="M9,114.93a2.42,2.42,0,0,0,1.68.2L14.75,114l4.1-1.11a2.44,2.44,0,0,0,1.34-1,2.44,2.44,0,0,0-1.67-.19l-4.1,1.11-4.09,1.12A2.41,2.41,0,0,0,9,114.93Z"/><path class="cls-2" d="M12.66,120c.45.27.74.4,1.12.28l2.48-.85,2.49-.85c.37-.14.52-.42.71-.9-.45-.27-.73-.4-1.12-.28l-2.48.84-2.49.85C13,119.21,12.85,119.49,12.66,120Z"/><path class="cls-2" d="M17.75,63.62a2.94,2.94,0,0,0-1.19-1.47l-4.12-2.54L8.31,57.08a3,3,0,0,0-1.85-.4,3,3,0,0,0,1.2,1.47l4.12,2.53,4.12,2.53A3,3,0,0,0,17.75,63.62Z"/><path class="cls-2" d="M41.64,144.43a15.5,15.5,0,0,0-3.3,3.32l-1.15,1.6a1.37,1.37,0,0,0-.1.14l-.05.06c-.69,1-1.45,2-1.7,2.38A18.81,18.81,0,0,0,33.05,156a15.28,15.28,0,0,0,3.3-3.32c.25-.36,1-1.41,1.72-2.38l0-.08a1,1,0,0,0,.1-.13c.65-.89.95-1.32,1.14-1.59A18.81,18.81,0,0,0,41.64,144.43Z"/><path class="cls-2" d="M39.35,155.76a2.73,2.73,0,0,0,1.46-1L43.34,151l2.53-3.74a2.69,2.69,0,0,0,.41-1.74,2.73,2.73,0,0,0-1.45,1l-2.53,3.75L39.77,154A2.75,2.75,0,0,0,39.35,155.76Z"/><path class="cls-2" d="M43.36,160.84a2.59,2.59,0,0,0,1.34-1.11l2.15-3.81L49,152.1a2.59,2.59,0,0,0,.25-1.72,2.53,2.53,0,0,0-1.34,1.1l-2.15,3.82-2.15,3.82A2.59,2.59,0,0,0,43.36,160.84Z"/><path class="cls-2" d="M49,161.13a1.78,1.78,0,0,0,1.45-.78c.19-.28.74-1.14,1.18-1.95s.82-1.55.82-1.55.38-.75.76-1.59.75-1.79.86-2.12a1.76,1.76,0,0,0-.27-1.62c-.43.46-.74.66-.92,1.21-.11.3-.44,1.2-.82,2s-.73,1.54-.73,1.54-.37.73-.8,1.51-1,1.6-1.12,1.86A2.94,2.94,0,0,0,49,161.13Z"/><path class="cls-2" d="M31.07,151.37a2.71,2.71,0,0,0,1.59-.94c.52-.6,2.87-3.72,2.87-3.72L38.37,143A3,3,0,0,0,39,141.3a2.74,2.74,0,0,0-1.59.94c-.51.6-2.86,3.72-2.86,3.72l-2.85,3.68A3.1,3.1,0,0,0,31.07,151.37Z"/><path class="cls-2" d="M26.88,147.24a2.25,2.25,0,0,0,1.51-.62l2.89-2.88,2.89-2.89a2.28,2.28,0,0,0,.63-1.51,2.35,2.35,0,0,0-1.51.62l-2.89,2.89-2.89,2.88A2.3,2.3,0,0,0,26.88,147.24Z"/><path class="cls-2" d="M24.17,142a2.37,2.37,0,0,0,1.63-.42l3.41-2.5,3.42-2.5a2.42,2.42,0,0,0,.89-1.43,2.4,2.4,0,0,0-1.63.42l-3.42,2.5-3.41,2.5A2.45,2.45,0,0,0,24.17,142Z"/><path class="cls-2" d="M21.26,137.7a1.67,1.67,0,0,0,1.35-.14l2.74-1.78L28.09,134a1.67,1.67,0,0,0,.66-1.18,1.67,1.67,0,0,0-1.35.13l-2.74,1.78-2.74,1.79A1.65,1.65,0,0,0,21.26,137.7Z"/><path class="cls-2" d="M14.92,134.91a17.08,17.08,0,0,0,4.36-1.69l1.71-.94.52-.29.48-.26,2.5-1.39a17.11,17.11,0,0,0,3.75-2.79,17.23,17.23,0,0,0-4.36,1.69l-2.5,1.38-.47.27-.53.28-1.71,1A17.11,17.11,0,0,0,14.92,134.91Z"/><path class="cls-2" d="M23.9,124.35a2.38,2.38,0,0,0-1.61.09l-3.66,1.69s-3.07,1.39-3.68,1.7a2.21,2.21,0,0,0-1.07,1.23,2.38,2.38,0,0,0,1.61-.09l3.66-1.69s3.07-1.39,3.68-1.71A2.16,2.16,0,0,0,23.9,124.35Z"/><path class="cls-2" d="M54.17,162.66a2.42,2.42,0,0,0,1.27-1.12l1.91-3.78L59.26,154a2.42,2.42,0,0,0,.15-1.68,2.48,2.48,0,0,0-1.27,1.11c-.31.64-1.91,3.79-1.91,3.79L54.32,161A2.47,2.47,0,0,0,54.17,162.66Z"/><path class="cls-2" d="M60.39,163.3c.5-.15.79-.27,1-.64l1-2.41,1-2.42a1.28,1.28,0,0,0-.2-1.13c-.5.15-.79.27-1,.64l-1,2.41s-.86,2-1,2.42S60.15,162.84,60.39,163.3Z"/><path class="cls-2" d="M21.91,121.81a3,3,0,0,0-1.9-.1l-4.64,1.37-4.64,1.37a2.91,2.91,0,0,0-1.53,1.1,3,3,0,0,0,1.89.1l4.64-1.37,4.64-1.37A3.09,3.09,0,0,0,21.91,121.81Z"/><path class="cls-2" d="M97.38,156.24a2.8,2.8,0,0,0-.22,1.89c.1.39.42,1.59.79,2.64l.68,2s.32.94.61,2,.55,2.21.63,2.6a3.12,3.12,0,0,0,1,1.62,2.92,2.92,0,0,0,.27-1.88c-.07-.4-.34-1.6-.65-2.68s-.63-2-.63-2l-.68-2c-.35-1-.66-2.17-.76-2.55A3.11,3.11,0,0,0,97.38,156.24Z"/><path class="cls-2" d="M104.83,167.4a2.66,2.66,0,0,0,.21-1.77L104,161.25s-.91-3.65-1.09-4.39a2.71,2.71,0,0,0-1-1.47,2.66,2.66,0,0,0-.2,1.77l1.08,4.39s.91,3.65,1.09,4.39A2.71,2.71,0,0,0,104.83,167.4Z"/><path class="cls-2" d="M111.29,167.83a2.61,2.61,0,0,0,.08-1.74c-.24-.69-1.4-4.15-1.4-4.15l-1.4-4.15a2.49,2.49,0,0,0-1.11-1.33,2.58,2.58,0,0,0-.08,1.73c.24.69,1.4,4.15,1.4,4.15l1.4,4.15A2.55,2.55,0,0,0,111.29,167.83Z"/><path class="cls-2" d="M115.28,163.83a1.74,1.74,0,0,0,.39-1.59,21.93,21.93,0,0,0-.65-2.19c-.3-.87-.61-1.65-.61-1.65s-.3-.78-.67-1.63-.84-1.75-1-2.05a1.74,1.74,0,0,0-1.38-.89,3,3,0,0,0,.29,1.5c.15.28.59,1.13,1,1.95s.65,1.58.65,1.58.3.76.59,1.6.55,1.77.63,2.08A2.92,2.92,0,0,0,115.28,163.83Z"/><path class="cls-2" d="M95,167.7a1.87,1.87,0,0,0,.46-1.38c-.07-.6-.43-3.54-.43-3.54s-.36-2.95-.43-3.54a1.9,1.9,0,0,0-.79-1.23,1.89,1.89,0,0,0-.46,1.39c.07.59.44,3.53.44,3.53s.36,2.95.43,3.54A1.92,1.92,0,0,0,95,167.7Z"/><path class="cls-2" d="M90.16,171a2.32,2.32,0,0,0,.55-1.54c0-.68-.21-4.07-.21-4.07s-.17-3.4-.21-4.08a2.29,2.29,0,0,0-.7-1.48,2.31,2.31,0,0,0-.55,1.53c0,.69.21,4.08.21,4.08s.17,3.4.21,4.08A2.29,2.29,0,0,0,90.16,171Z"/><path class="cls-2" d="M84.45,169.49a2.42,2.42,0,0,0,.78-1.49l.43-4.21.42-4.22a2.39,2.39,0,0,0-.46-1.61,2.41,2.41,0,0,0-.79,1.49l-.42,4.21s-.35,3.51-.43,4.21A2.48,2.48,0,0,0,84.45,169.49Z"/><path class="cls-2" d="M79.31,168.77a1.66,1.66,0,0,0,.8-1.1c.09-.54.51-3.22.51-3.22s.42-2.69.51-3.23a1.64,1.64,0,0,0-.44-1.29,1.71,1.71,0,0,0-.8,1.1c-.09.54-.51,3.23-.51,3.23s-.42,2.68-.51,3.23A1.62,1.62,0,0,0,79.31,168.77Z"/><path class="cls-2" d="M71.74,169.77a3.06,3.06,0,0,0,1-1.53c.11-.38.42-1.5.76-2.53l.65-2s.32-.94.66-2,.68-2.19.77-2.58a2.71,2.71,0,0,0-.17-1.86,3,3,0,0,0-1,1.53c-.11.38-.43,1.5-.76,2.52l-.66,2s-.31.94-.66,2-.67,2.19-.77,2.58A2.78,2.78,0,0,0,71.74,169.77Z"/><path class="cls-2" d="M71.15,157.88c-.49.27-.76.46-.91.89s-1,2.86-1,2.86-.87,2.39-1,2.91a1.45,1.45,0,0,0,.29,1.26c.49-.28.76-.46.91-.9s1-2.85,1-2.85.87-2.4,1-2.91A1.44,1.44,0,0,0,71.15,157.88Z"/><path class="cls-2" d="M119.88,161a2.4,2.4,0,0,0,0-1.69l-1.54-3.95s-1.28-3.3-1.53-4a2.45,2.45,0,0,0-1.15-1.23,2.4,2.4,0,0,0,0,1.69l1.54,3.95s1.27,3.3,1.53,4A2.45,2.45,0,0,0,119.88,161Z"/><path class="cls-2" d="M124.52,156.83c.22-.48.32-.78.16-1.15l-1.11-2.38s-.91-2-1.1-2.38-.47-.48-1-.61a1.25,1.25,0,0,0-.17,1.14l1.11,2.38s.91,2,1.1,2.38S124,156.69,124.52,156.83Z"/><path class="cls-2" d="M67.93,157.65a2.37,2.37,0,0,0-1.22,1.15c-.14.32-.56,1.29-.91,2.19l-.65,1.71s-.32.8-.66,1.69-.75,1.83-.88,2.14a2.39,2.39,0,0,0-.07,1.65A2.26,2.26,0,0,0,64.75,167c.15-.32.57-1.29.91-2.19s.66-1.71.66-1.71l.65-1.69c.35-.88.76-1.83.89-2.14A2.48,2.48,0,0,0,67.93,157.65Z"/><path class="cls-2" d="M143.58,124.36a16,16,0,0,0,3.63,3l1.68,1,1.05.62.95.57,2.46,1.46a18,18,0,0,0,4.27,1.87,16,16,0,0,0-3.63-3l-2.45-1.47-1-.56-1-.62-1.69-1A17.7,17.7,0,0,0,143.58,124.36Z"/><path class="cls-2" d="M157.31,126.54a2.72,2.72,0,0,0-1.18-1.34l-4-2.12-4-2.13a2.69,2.69,0,0,0-1.77-.23,2.72,2.72,0,0,0,1.18,1.34l4,2.12,4,2.13A2.75,2.75,0,0,0,157.31,126.54Z"/><path class="cls-2" d="M161.94,122a2.51,2.51,0,0,0-1.24-1.21l-4-1.74-4-1.74a2.56,2.56,0,0,0-1.73-.07,2.56,2.56,0,0,0,1.23,1.22l4,1.74,4,1.74A2.5,2.5,0,0,0,161.94,122Z"/><path class="cls-2" d="M161.64,116.38a1.77,1.77,0,0,0-.92-1.35,22.7,22.7,0,0,0-2.06-1c-.85-.36-1.64-.65-1.64-.65s-.78-.3-1.66-.59-1.86-.56-2.19-.63a1.77,1.77,0,0,0-1.59.43c.51.38.74.68,1.31.79.3.08,1.23.32,2.08.6s1.61.57,1.61.57.76.29,1.58.64,1.69.78,2,.92A2.88,2.88,0,0,0,161.64,116.38Z"/><path class="cls-2" d="M151,134a1.91,1.91,0,0,0-.72-1.27l-2.92-2-2.92-2.05a1.93,1.93,0,0,0-1.44-.24,1.91,1.91,0,0,0,.72,1.27l2.92,2,2.92,2.05A1.88,1.88,0,0,0,151,134Z"/><path class="cls-2" d="M150.14,139.83a2.25,2.25,0,0,0-.77-1.43l-3.17-2.57L143,133.25a2.29,2.29,0,0,0-1.57-.46,2.25,2.25,0,0,0,.77,1.43l3.17,2.57,3.17,2.58A2.3,2.3,0,0,0,150.14,139.83Z"/><path class="cls-2" d="M145.22,143.08a2.44,2.44,0,0,0-.59-1.58l-2.85-3.13s-2.37-2.61-2.84-3.14a2.43,2.43,0,0,0-1.52-.73,2.44,2.44,0,0,0,.59,1.58l2.85,3.13s2.37,2.61,2.84,3.14A2.46,2.46,0,0,0,145.22,143.08Z"/><path class="cls-2" d="M141.24,146.42a1.69,1.69,0,0,0-.28-1.33c-.34-.43-2.06-2.54-2.06-2.54L136.85,140a1.64,1.64,0,0,0-1.25-.54,1.68,1.68,0,0,0,.28,1.33c.34.43,2.06,2.54,2.06,2.54l2.05,2.54A1.69,1.69,0,0,0,141.24,146.42Z"/><path class="cls-2" d="M139.13,153a17.29,17.29,0,0,0-2.14-4.15c-.18-.27-.49-.7-1.12-1.61l-.34-.48-.31-.45c-.84-1.21-1.36-1.95-1.64-2.34a16.79,16.79,0,0,0-3.16-3.44,16.81,16.81,0,0,0,2.14,4.16l1.63,2.34.31.45.34.48c.63.91.94,1.34,1.13,1.61A17,17,0,0,0,139.13,153Z"/><path class="cls-2" d="M127.69,145.19a2.37,2.37,0,0,0,.26,1.59l2.06,3.47s1.7,2.91,2.08,3.48a2.13,2.13,0,0,0,1.33.93,2.38,2.38,0,0,0-.26-1.59l-2.07-3.46s-1.7-2.91-2.07-3.48A2.24,2.24,0,0,0,127.69,145.19Z"/><path class="cls-2" d="M162.62,111.08a2.37,2.37,0,0,0-1.24-1.14l-4-1.51-4-1.5a2.35,2.35,0,0,0-1.69,0A2.49,2.49,0,0,0,153,108.1l4,1.5,4,1.51A2.43,2.43,0,0,0,162.62,111.08Z"/><path class="cls-2" d="M162.61,104.83c-.2-.48-.35-.75-.74-.88l-2.5-.77-2.51-.78c-.39-.11-.67,0-1.11.32.2.48.36.75.74.88l2.51.77,2.5.78C161.89,105.26,162.17,105.12,162.61,104.83Z"/><path class="cls-2" d="M125.37,147.44a2.91,2.91,0,0,0,.1,1.89l1.84,4.47,1.85,4.48a3,3,0,0,0,1.26,1.41,3,3,0,0,0-.1-1.89l-1.85-4.47-1.84-4.48A3.08,3.08,0,0,0,125.37,147.44Z"/><path class="cls-2" d="M152.58,68.57a18,18,0,0,0,4.61-.73l1.88-.54,1.79-.51,1.64-.47,2.75-.8a15.91,15.91,0,0,0,4.26-1.93,18,18,0,0,0-4.61.73l-2.74.79-1.64.47-1.8.51-1.88.55A16.23,16.23,0,0,0,152.58,68.57Z"/><path class="cls-2" d="M162.12,60.09a2.65,2.65,0,0,0-1.78,0l-4.22,1.62-4.22,1.62a2.72,2.72,0,0,0-1.33,1.18,2.65,2.65,0,0,0,1.78,0l4.22-1.62,4.22-1.62A2.64,2.64,0,0,0,162.12,60.09Z"/><path class="cls-2" d="M161.75,53.63a2.5,2.5,0,0,0-1.73.14l-4,1.89-3.95,1.9a2.53,2.53,0,0,0-1.18,1.27,2.62,2.62,0,0,0,1.73-.14l4-1.9,3.95-1.89A2.53,2.53,0,0,0,161.75,53.63Z"/><path class="cls-2" d="M157.3,50.16a1.77,1.77,0,0,0-1.63-.19,22.14,22.14,0,0,0-2.09.91c-.83.41-1.57.81-1.57.81s-.73.4-1.53.86-1.64,1.05-1.91,1.26a1.76,1.76,0,0,0-.72,1.48,3.23,3.23,0,0,0,1.46-.47c.26-.18,1.05-.73,1.82-1.18s1.48-.85,1.48-.85.72-.38,1.52-.77,1.69-.76,2-.88C156.67,50.94,156.85,50.62,157.3,50.16Z"/><path class="cls-2" d="M163.62,69.78a1.93,1.93,0,0,0-1.43-.29l-3.46.87-3.46.86a1.9,1.9,0,0,0-1.12.93,1.88,1.88,0,0,0,1.43.29l3.45-.87,3.46-.86A1.89,1.89,0,0,0,163.62,69.78Z"/><path class="cls-2" d="M167.14,74.42a2.32,2.32,0,0,0-1.59-.39l-4,.64-4,.63a2.33,2.33,0,0,0-1.39.86,2.28,2.28,0,0,0,1.58.38l4-.63,4-.64A2.27,2.27,0,0,0,167.14,74.42Z"/><path class="cls-2" d="M166.25,80.25a2.41,2.41,0,0,0-1.56-.62l-4.24,0-4.23,0a2.42,2.42,0,0,0-1.56.63,2.41,2.41,0,0,0,1.56.62l4.24,0h4.23A2.43,2.43,0,0,0,166.25,80.25Z"/><path class="cls-2" d="M166.07,85.45a1.62,1.62,0,0,0-1.17-.69l-3.26-.17-3.27-.17a1.68,1.68,0,0,0-1.23.57,1.71,1.71,0,0,0,1.18.69l3.26.16,3.26.17A1.65,1.65,0,0,0,166.07,85.45Z"/><path class="cls-2" d="M169.56,91.43a17,17,0,0,0-4.52-1.2L163.1,90l-.59-.07-.54-.07-2.84-.35a16.77,16.77,0,0,0-4.66,0A17.19,17.19,0,0,0,159,90.74l2.84.36.54.06.58.08,1.95.24A17.66,17.66,0,0,0,169.56,91.43Z"/><path class="cls-2" d="M156.09,94.69a2.3,2.3,0,0,0,1.36.87l4,.78s3.31.69,4,.79a2.19,2.19,0,0,0,1.59-.36,2.36,2.36,0,0,0-1.36-.87l-4-.78s-3.3-.69-4-.79A2.18,2.18,0,0,0,156.09,94.69Z"/><path class="cls-2" d="M153.93,45.94a2.44,2.44,0,0,0-1.67.19l-3.74,2-3.74,2a2.39,2.39,0,0,0-1.08,1.29,2.41,2.41,0,0,0,1.68-.19l3.73-2,3.74-2A2.39,2.39,0,0,0,153.93,45.94Z"/><path class="cls-2" d="M149.21,41.85a1.29,1.29,0,0,0-1.15,0l-2.23,1.39-2.23,1.39c-.33.22-.41.52-.49,1a1.31,1.31,0,0,0,1.16,0l2.22-1.39,2.23-1.38C149.06,42.68,149.14,42.37,149.21,41.85Z"/><path class="cls-2" d="M156.21,97.92a3,3,0,0,0,1.47,1.19l4.56,1.62,4.56,1.62a3,3,0,0,0,1.89,0,3,3,0,0,0-1.47-1.19l-4.56-1.62-4.56-1.62A3,3,0,0,0,156.21,97.92Z"/><path class="cls-2" d="M114.92,25.81A18.93,18.93,0,0,0,117.57,22l.91-1.72,1.13-2.1,1-1.92c.69-1.3,1.11-2.11,1.34-2.53a15.64,15.64,0,0,0,1.53-4.42,18.51,18.51,0,0,0-2.64,3.84c-.23.42-.65,1.22-1.35,2.51-.36.69-1,1.92-1,1.92s-.79,1.48-1.13,2.1l-.91,1.74A15.37,15.37,0,0,0,114.92,25.81Z"/><path class="cls-2" d="M115.92,12.29a2.65,2.65,0,0,0-1.21,1.31L113,17.79,111.32,22a2.71,2.71,0,0,0,0,1.78,2.69,2.69,0,0,0,1.21-1.31c.29-.7,1.7-4.19,1.7-4.19l1.69-4.19A2.65,2.65,0,0,0,115.92,12.29Z"/><path class="cls-2" d="M111,8.15a2.64,2.64,0,0,0-1.09,1.36c-.21.7-1.3,4.18-1.3,4.18s-1.1,3.48-1.31,4.18a2.53,2.53,0,0,0,.11,1.73,2.57,2.57,0,0,0,1.08-1.36c.22-.69,1.31-4.18,1.31-4.18l1.31-4.18A2.59,2.59,0,0,0,111,8.15Z"/><path class="cls-2" d="M105.37,9a1.79,1.79,0,0,0-1.26,1.06c-.13.32-.49,1.28-.75,2.16s-.48,1.69-.48,1.69-.21.81-.41,1.71-.36,1.91-.4,2.26a1.76,1.76,0,0,0,.6,1.53,3.15,3.15,0,0,0,.65-1.39c0-.31.18-1.26.38-2.13s.39-1.66.39-1.66.21-.79.47-1.64.6-1.76.72-2A3,3,0,0,0,105.37,9Z"/><path class="cls-2" d="M124.89,16.11a2.45,2.45,0,0,0-1.3,1.08l-2,3.74-2,3.73a2.42,2.42,0,0,0-.21,1.68,2.39,2.39,0,0,0,1.3-1.07l2-3.74s1.7-3.11,2-3.73A2.49,2.49,0,0,0,124.89,16.11Z"/><path class="cls-2" d="M129.89,18a2.27,2.27,0,0,0-1.34.92c-.38.57-2.23,3.42-2.23,3.42l-2.23,3.42a2.32,2.32,0,0,0-.3,1.61,2.25,2.25,0,0,0,1.35-.92l2.22-3.42,2.23-3.42A2.27,2.27,0,0,0,129.89,18Z"/><path class="cls-2" d="M133.64,22.58a2.43,2.43,0,0,0-1.51.75l-2.82,3.16-2.82,3.16a2.43,2.43,0,0,0-.58,1.58,2.43,2.43,0,0,0,1.51-.75l2.82-3.16,2.82-3.16A2.43,2.43,0,0,0,133.64,22.58Z"/><path class="cls-2" d="M137.38,26.19a1.64,1.64,0,0,0-1.3.41l-2.31,2.31-2.31,2.32a1.66,1.66,0,0,0-.4,1.29,1.73,1.73,0,0,0,1.3-.41l2.3-2.32L137,27.48A1.63,1.63,0,0,0,137.38,26.19Z"/><path class="cls-2" d="M144.15,27.6a16.9,16.9,0,0,0-3.91,2.56l-1.48,1.28-.45.39-.41.35-2.16,1.88a16.47,16.47,0,0,0-3.08,3.5,16.64,16.64,0,0,0,3.9-2.56l2.17-1.87.41-.36.45-.38,1.48-1.29A17.27,17.27,0,0,0,144.15,27.6Z"/><path class="cls-2" d="M137.57,39.79a2.32,2.32,0,0,0,1.55-.42L142.35,37s2.72-2,3.25-2.43a2.18,2.18,0,0,0,.79-1.42,2.37,2.37,0,0,0-1.56.43l-3.22,2.41s-2.72,2-3.25,2.43A2.2,2.2,0,0,0,137.57,39.79Z"/><path class="cls-2" d="M100.56,6.86a3.08,3.08,0,0,0-1.08,1.59c-.22.79-1.29,4.74-1.29,4.74s-1.08,4-1.29,4.75A3.05,3.05,0,0,0,97,19.85a3.12,3.12,0,0,0,1.09-1.59c.21-.79,1.29-4.75,1.29-4.75s1.08-3.95,1.29-4.74A3.05,3.05,0,0,0,100.56,6.86Z"/><path class="cls-2" d="M94.48,5a2.38,2.38,0,0,0-.9,1.4c-.12.69-.76,4.13-.76,4.13s-.64,3.45-.76,4.14a2.44,2.44,0,0,0,.33,1.65,2.43,2.43,0,0,0,.9-1.41c.12-.69.76-4.13.76-4.13s.64-3.45.76-4.14A2.42,2.42,0,0,0,94.48,5Z"/><path class="cls-2" d="M140.05,41.87a3.09,3.09,0,0,0,1.87-.3l4.25-2.3L150.43,37a3,3,0,0,0,1.27-1.4,2.94,2.94,0,0,0-1.87.3l-4.26,2.3-4.25,2.31A2.93,2.93,0,0,0,140.05,41.87Z"/></symbol><symbol id="Fuzzballs_face_7" data-name="Fuzzballs_face_7" viewBox="0 0 105.17 38.38"><path class="cls-5" d="M48.69,20c.49,2,2.22,5.45,4.14,5.45s3.6-3.47,3.64-5.83a6.26,6.26,0,0,1-3.76.94A23,23,0,0,1,48.69,20Z"/><circle class="cls-6" cx="40.9" cy="10.36" r="5.61"/><ellipse class="cls-7" cx="40.9" cy="10.36" rx="3.12" ry="3.17" transform="translate(21.45 47.8) rotate(-76.77)"/><circle class="cls-5" cx="39.66" cy="8.93" r="1.57"/><circle class="cls-6" cx="63.97" cy="10.36" r="5.61"/><ellipse class="cls-7" cx="63.97" cy="10.36" rx="3.12" ry="3.17" transform="translate(39.24 70.27) rotate(-76.77)"/><circle class="cls-5" cx="62.74" cy="8.93" r="1.57"/><path class="cls-5" d="M48.69,20.06c.49,2,2.22,5.46,4.14,5.46s3.6-3.47,3.64-5.83a6.26,6.26,0,0,1-3.76.94A22.34,22.34,0,0,1,48.69,20.06Z"/><path class="cls-2" d="M46.11,19.23a7.36,7.36,0,0,0,3.44,1.58,15.14,15.14,0,0,0,1.61.21l.8.05h1l.76,0A16.13,16.13,0,0,0,56,20.69,7.37,7.37,0,0,0,59.4,19c-1.3.26-2.14.4-3.6.72a13.51,13.51,0,0,1-2.19.32l-.72,0c-.23,0-.41,0-.41,0H52l-.76,0c-.85-.07-1.26-.15-1.51-.19C48.26,19.55,47.42,19.44,46.11,19.23Z"/><path class="cls-2" d="M48.49,19.83a6.59,6.59,0,0,0,1.08,3.64,8.83,8.83,0,0,0,1,1.33,5,5,0,0,0,1,.83,2.88,2.88,0,0,0,.83.34l.24,0a1.94,1.94,0,0,0,.58,0,2.76,2.76,0,0,0,1.21-.54,5.52,5.52,0,0,0,1.55-2,5.6,5.6,0,0,0,.59-2,5.4,5.4,0,0,0-.1-1.82,13.88,13.88,0,0,1-.61,1.64c-.22.51-.45,1-.77,1.69a5,5,0,0,1-1.26,1.61,2,2,0,0,1-.77.36,2.7,2.7,0,0,1-.45,0,1.72,1.72,0,0,1-.52-.23,3.76,3.76,0,0,1-.78-.66,7.36,7.36,0,0,1-.89-1.17C49.65,21.67,49.15,21,48.49,19.83Z"/><path class="cls-8" d="M101.54.44C93.41.36,74.08.33,53.46.33H53.2C32.58.33,11.77.36,3.63.44a3.35,3.35,0,0,0,0,6.7H8.83C8.65,19.25,11.31,27.42,16.49,33s12.24,6,18.86,3.87c6.95-2.18,9.92-8.39,11.91-16.52,1.25-5.11,2.41-11.22,3.9-12a2.81,2.81,0,0,1,3.14.23c1.28,1.1,2.45,7.06,3.61,11.82,2,8.13,5,14.34,11.92,16.52C76.44,39,83.5,38.6,88.68,33s7.84-13.76,7.66-25.86h5.18a3.35,3.35,0,0,0,0-6.7ZM31.31,34.61C23.21,36.1,11.21,30.79,12,6a2.8,2.8,0,0,1,2.81-2.69h28A2.81,2.81,0,0,1,45.64,6.1C45.69,13.31,44.54,32.16,31.31,34.61Zm42.55,0C60.63,32.16,59.49,13.31,59.54,6.1a2.8,2.8,0,0,1,2.81-2.78h28A2.8,2.8,0,0,1,93.14,6C94,30.79,82,36.1,73.86,34.61Z"/></symbol></defs><g id="FUZZBALLS_1"><use width="72.64" height="40.13" transform="translate(15.4 154.08) scale(0.97)" xlink:href="#Fuzzballs_arm_3"/><use width="72.64" height="40.13" transform="matrix(-0.97, 0, 0, 0.97, 283.27, 154.08)" xlink:href="#Fuzzballs_arm_3"/><use width="23.42" height="56.36" transform="translate(126.31 218.03) scale(0.97)" xlink:href="#Fuzzballs_leg_2"/><use width="23.42" height="56.36" transform="matrix(-0.97, 0, 0, 0.97, 182.86, 218.03)" xlink:href="#Fuzzballs_leg_2"/><use width="50.98" height="56.48" transform="translate(56.17 62.74) scale(0.97)" xlink:href="#Fuzzballs_wing_1"/><use width="50.98" height="56.48" transform="matrix(-0.97, 0, 0, 0.97, 255.47, 62.74)" xlink:href="#Fuzzballs_wing_1"/><use width="171.73" height="170.98" transform="translate(66.12 65.62)" xlink:href="#Fuzzballs_body_1_2"/><use width="105.17" height="38.38" transform="translate(87.07 148.51) scale(1.2)" xlink:href="#Fuzzballs_face_7"/></g></svg>