<svg xmlns="http://www.w3.org/2000/svg" xmlns:xlink="http://www.w3.org/1999/xlink" viewBox="0 0 300 300"><defs><style>.cls-1{fill:url(#New_Gradient_Swatch_19);}.cls-2{fill:#202020;}.cls-3,.cls-5{fill:#fff;}.cls-3{stroke:#000;stroke-miterlimit:10;stroke-width:1.14px;}.cls-4{fill:#231f20;}.cls-6{fill:url(#radial-gradient);}.cls-7{fill:url(#radial-gradient-2);}</style><radialGradient id="New_Gradient_Swatch_19" cx="47.14" cy="42.3" r="102.7" gradientTransform="translate(39.92 46.18) scale(0.99 0.98)" gradientUnits="userSpaceOnUse"><stop offset="0.4" stop-color="#f70"/><stop offset="0.64" stop-color="#db6d0d"/><stop offset="0.67" stop-color="#db7317"/><stop offset="0.72" stop-color="#db8232"/><stop offset="0.78" stop-color="#db9b5e"/><stop offset="0.84" stop-color="#dbb388"/><stop offset="0.93" stop-color="#dbcec3"/></radialGradient><radialGradient id="radial-gradient" cx="36" cy="30.56" fx="-17.276802719182875" r="59.76" gradientUnits="userSpaceOnUse"><stop offset="0.12" stop-color="#66aab0"/><stop offset="0.16" stop-color="#72b1b6"/><stop offset="0.41" stop-color="#bedbdd"/><stop offset="0.58" stop-color="#edf5f6"/><stop offset="0.67" stop-color="#fff"/></radialGradient><radialGradient id="radial-gradient-2" cx="80.03" cy="90.64" fx="97.67467742001301" fy="49.59624466221268" r="44.68" gradientUnits="userSpaceOnUse"><stop offset="0" stop-color="#66aab0"/><stop offset="0.78" stop-color="#fff"/></radialGradient><symbol id="Fuzzballs_meditate_1" data-name="Fuzzballs_meditate_1" viewBox="0 0 120.12 123.22"><path class="cls-6" d="M49.86,51.87,46.38,18.78h0A12.12,12.12,0,0,0,52.19,3.92l-.25-.71-2.13-.89c-.52-.21-1.09-.43-1.78-.68l-.19-.06a12,12,0,0,0-3-.6,9.76,9.76,0,0,0-3.18.28,6.7,6.7,0,0,0-3,1.74c-2,2-2.28,5-2.3,6.69A34.89,34.89,0,0,0,36.71,14c.07.54.13,1,.17,1.49l.26,2.39c0,.06.64,6.17,1.43,12.77.42,3.54.89,7,1.31,9.77l.68,4.25a20.11,20.11,0,0,1,.3,3,16.93,16.93,0,0,1-.71-2.7l0-.19L40,44.65a12.4,12.4,0,0,1-2.11-2L34.7,38.7a83,83,0,0,1-9.18-13.6,17.15,17.15,0,0,1-1.77-7.79c0-1.32.06-2.56.14-3.76s.14-2.12.11-3a6.31,6.31,0,0,0-1.69-4.3,7.11,7.11,0,0,0-1-.89L21,5.11a2.71,2.71,0,0,0-.44-.26,5,5,0,0,0-1.2-.5,5.09,5.09,0,0,0-2-.23c-.42,0-1.83.21-2.31,1a1,1,0,0,0-.19.84c.15.57.79.86,1.61,1.22a5,5,0,0,1,2.94,2.46,4.18,4.18,0,0,1,0,3.79A3.91,3.91,0,0,1,18.07,15a2.83,2.83,0,0,1-2,.45,3.3,3.3,0,0,1-2.73-2.86,6.39,6.39,0,0,1,.33-2.29A5.44,5.44,0,0,0,14,8.43a2.35,2.35,0,0,0-.81-1.82,1.37,1.37,0,0,0-1.81.29,3.91,3.91,0,0,0-.92,1.71,9.21,9.21,0,0,0-.22.94l-.13.85A12,12,0,0,0,10,12.73l.06.62c.08.82.14,1.46.28,2.18l.09.2a6.17,6.17,0,0,1-1-1.23l-.1-.17a12,12,0,0,1-.75-1.45,15,15,0,0,1-.84-2.62c0-.2-.09-.4-.13-.6S7.48,9,7.4,8.7a3.57,3.57,0,0,0-.65-1.41,1.11,1.11,0,0,0-1.23-.35,1.88,1.88,0,0,0-.86.75,2.42,2.42,0,0,0-.29.73,2,2,0,0,0,0,.27,3.61,3.61,0,0,0,0,1c0,.62.16,1.47.31,2.27a14.07,14.07,0,0,0,1.94,5.22A8.34,8.34,0,0,0,8.16,19l.12.11c.46.36.85.64,1.27,1l.17.09a7.35,7.35,0,0,1-1.42-.65,13,13,0,0,1-2.07-1.57l-.62-.64c-.12-.12-.23-.25-.34-.38a13.44,13.44,0,0,1-.92-1.23l-.28-.43c-.19-.3-.37-.58-.57-.85a3.06,3.06,0,0,0-1.15-1,1.11,1.11,0,0,0-1.32.4,2.13,2.13,0,0,0-.36,1.47A7.45,7.45,0,0,0,2,18.16a14.28,14.28,0,0,0,11,6.64,10.82,10.82,0,0,0,1.4,0h.27a5.78,5.78,0,0,1,1.66.06,6,6,0,0,1,2.91,1.44,6.11,6.11,0,0,1,1,1.23c.19.32.35.6.5.89l.28.49c.51.91,1,1.79,1.52,2.66,1.85,3.18,3.78,6.27,5.72,9.19,1.8,2.7,3.33,4.83,4.3,6.13s1.68,2.23,1.68,2.24.61.82,1.73,2.21C37.25,53,39,55,40.77,57c1,1.14,2.18,2.4,3.45,3.73l2,2a3.07,3.07,0,0,0,2.11.89,2.35,2.35,0,0,0,.54-.06,2.3,2.3,0,0,0,1.25-.7,2.84,2.84,0,0,0,.6-1.36,9.94,9.94,0,0,0-.08-3.13C50.34,56.26,50.1,54.08,49.86,51.87Z"/><path class="cls-7" d="M115.81,95.07a1.59,1.59,0,0,1,1.08,2.59c-2.89,3.48-8.15,10.13-10.37,14.86-1.33,2.85-2.5,5.91-4.82,8-3,2.71-8.6,3.2-9.93-1.87a7.17,7.17,0,0,1,.85-5.42c3.85-6.58,16-14.57,16-14.57s-21.56,2.86-32.74,2.17-22.5-4.13-31.57-12c-2.28-2-4.58-4.67-4.56-8a7.78,7.78,0,0,1,4.91-7c2.58-1,5.35-.41,8.07-.16,12,1.07,50.87,4.48,67.36,6.33,0,0-1.65,14.86-19.58,13.18C103.31,93.79,114.13,94.86,115.81,95.07Z"/><path class="cls-2" d="M53.72,84.05a18.19,18.19,0,0,0,4.69,1.54l9.64,1.94c7.6,1.59,15.87,3.45,24.49,5,4.31.8,8.71,1.51,13.14,2.08,2.21.31,4.44.55,6.67.78l3.34.32a.92.92,0,0,1,.74,1.42l-2.05,2.54c-.69.87-1.37,1.74-2,2.62-1.33,1.76-2.62,3.54-3.81,5.37a37.64,37.64,0,0,0-3.13,5.69,27.42,27.42,0,0,1-2.91,5.33,7.67,7.67,0,0,1-4.5,3,4.55,4.55,0,0,1-4.62-1.27,5.71,5.71,0,0,1-1-4.64,7,7,0,0,1,.85-2.23,19.26,19.26,0,0,1,1.4-2,46.85,46.85,0,0,1,6.43-6.36c2.13-1.79,4.07-3.23,5.86-4.52.89-.62,1.73-1.21,2.61-1.79l1.29-.85.61-.41-.67.09-4.79.61-2.92.34c-6.5.72-10,1-11.86,1.11l-2.1.15-1.63.1c-1.06.06-2.62.14-4.62.2s-4.43.09-7.21-.09a64.05,64.05,0,0,1-9.32-1.32,54,54,0,0,1-10.66-3.53,51.61,51.61,0,0,1-5.43-3A48.17,48.17,0,0,1,45,88.52a13.64,13.64,0,0,1-4-5.09,6.58,6.58,0,0,1,.6-6.19A7.62,7.62,0,0,1,43.92,75a7.23,7.23,0,0,1,3.18-1,19.42,19.42,0,0,1,3.55.14c1.23.15,2.49.26,3.72.38l60.81,5.71a18.11,18.11,0,0,0,4.94-.2,17.71,17.71,0,0,0-4.8-1.12L54.49,73.16c-1.25-.12-2.46-.23-3.69-.37A20.05,20.05,0,0,0,47,72.64a8.54,8.54,0,0,0-3.76,1.17,8.78,8.78,0,0,0-2.79,2.7,8.11,8.11,0,0,0-1.3,3.64,8.37,8.37,0,0,0,.56,3.76,14.85,14.85,0,0,0,4.39,5.62,48.31,48.31,0,0,0,5.38,4,51.12,51.12,0,0,0,5.6,3A54.36,54.36,0,0,0,66,100.16a64.53,64.53,0,0,0,9.52,1.34c2.85.19,5.32.14,7.34.1s3.59-.14,4.66-.21l1.63-.1,2.12-.14c1.87-.16,5.38-.4,11.91-1.13l2.88-.33h0c-1.68,1.21-3.74,2.74-5.88,4.53a48.38,48.38,0,0,0-6.61,6.55,22.84,22.84,0,0,0-1.51,2.15,8.66,8.66,0,0,0-1,2.65,7,7,0,0,0,1.31,5.75A5.21,5.21,0,0,0,95.07,123a6.92,6.92,0,0,0,3.2,0,8.63,8.63,0,0,0,3-1.27,10.38,10.38,0,0,0,2.32-2.26,27.68,27.68,0,0,0,3.06-5.59,37.18,37.18,0,0,1,3-5.51c1.17-1.79,2.44-3.55,3.76-5.29.66-.87,1.33-1.74,2-2.6s1.41-1.75,2.12-2.63a2.25,2.25,0,0,0-1.74-3.49l-3.32-.32c-2.21-.23-4.42-.46-6.63-.77-4.4-.57-8.78-1.28-13.07-2.07-8.58-1.57-16.84-3.43-24.45-5l-5.58-1.15-2.3-.45-.73-.14-1.06-.2A17.16,17.16,0,0,0,53.72,84.05Z"/><path class="cls-2" d="M41.31,50a21.16,21.16,0,0,0-.26-5.37c-.12-.78-.37-2.34-.68-4.25-.44-2.94-.91-6.42-1.3-9.75-.8-6.67-1.44-12.76-1.44-12.76l-.26-2.39c-.13-1.49-.49-3.57-.49-5.78S37.43,5,39,3.35a6.42,6.42,0,0,1,2.81-1.61,9.31,9.31,0,0,1,3-.26,12.13,12.13,0,0,1,3,.64c1,.35,1.74.67,2.47,1a12.69,12.69,0,0,1,2.22,1.18,6.83,6.83,0,0,0-1.65-2.07A8.12,8.12,0,0,0,48.37.76,12.93,12.93,0,0,0,45,0a10.57,10.57,0,0,0-3.51.31,7.9,7.9,0,0,0-3.46,2,8.49,8.49,0,0,0-2,3.55,14.12,14.12,0,0,0-.55,3.79A27.79,27.79,0,0,0,35.64,13c.11,1,.21,1.87.29,2.62.17,1.48.27,2.38.27,2.38s.63,6.09,1.42,12.78c.4,3.35.86,6.84,1.31,9.8.18,1.11.34,2.13.48,3,.09.55.17,1,.22,1.3A17.91,17.91,0,0,0,41.31,50Z"/><path class="cls-2" d="M46,14.55a16.45,16.45,0,0,0-.07,4.29c.51,4.85,2,19.42,3.45,32.78.25,2.19.49,4.36.73,6.47a13,13,0,0,1,.19,3A2.06,2.06,0,0,1,49,63a2.37,2.37,0,0,1-2.22-.36,9.81,9.81,0,0,1-1-.91l-.95-1c-1.25-1.28-2.39-2.51-3.42-3.66-2.06-2.3-3.69-4.25-4.79-5.64S35,49.29,35,49.29l-.44-.57c-.29-.37-.7-.92-1.23-1.63-1.06-1.41-2.54-3.48-4.27-6s-3.68-5.63-5.69-9l-1.51-2.63L21.1,28a9.82,9.82,0,0,0-.9-1.42,6.45,6.45,0,0,0-2.86-2,6.88,6.88,0,0,0-1.75-.35,5.41,5.41,0,0,0-.9,0l-.23,0h-.57A13.42,13.42,0,0,1,3,18.75a13.5,13.5,0,0,1-1.58-2.66,2.84,2.84,0,0,1-.24-1.3,1.27,1.27,0,0,1,.45-.93.66.66,0,0,1,.8.09,4,4,0,0,1,.88,1c.27.39.53.83.82,1.26.15.21.3.43.46.63l.24.3.17.2a11.17,11.17,0,0,0,2,1.85,9,9,0,0,0,4.07,1.54c-1.19-.95-2-1.51-3.4-2.47a10.32,10.32,0,0,1-1.81-1.67l-.16-.18-.21-.28c-.15-.18-.28-.38-.42-.57-.26-.39-.52-.82-.83-1.27A4.94,4.94,0,0,0,3.08,13a2,2,0,0,0-1-.39A1.72,1.72,0,0,0,1,12.9a3,3,0,0,0-.64,3.62,15,15,0,0,0,1.73,2.92,14.57,14.57,0,0,0,11.87,6l.43,0,.42,0a3.65,3.65,0,0,1,.74,0A5.12,5.12,0,0,1,17,25.7a5.26,5.26,0,0,1,2.34,1.64A27.68,27.68,0,0,1,20.85,30l1.52,2.64c2,3.44,4,6.53,5.73,9.11s3.23,4.66,4.31,6.08c.53.72,1,1.27,1.24,1.64l.44.58s.6.8,1.73,2.19,2.74,3.36,4.82,5.68c1,1.16,2.19,2.4,3.45,3.7.31.32.64.64,1,1a11.08,11.08,0,0,0,1.09,1,3.5,3.5,0,0,0,3.31.51,2.76,2.76,0,0,0,1.42-1.19,4.27,4.27,0,0,0,.53-1.69,14,14,0,0,0-.19-3.26c-.24-2.1-.48-4.26-.73-6.44C49.07,38.14,47.54,23.56,47,18.71A14.57,14.57,0,0,0,46,14.55Z"/><path class="cls-2" d="M40.28,45.52a13.8,13.8,0,0,0-2-3.25l-3.15-3.9c-3-3.89-6.65-8.55-9.11-13.49a16.57,16.57,0,0,1-1.73-7.57c0-2.49.3-4.78.25-6.83a7,7,0,0,0-.61-2.8A7.64,7.64,0,0,0,22.7,5.85a8.29,8.29,0,0,0-1-.94l-.41-.27a2.56,2.56,0,0,0-.43-.25,5.83,5.83,0,0,0-1.3-.55,6.06,6.06,0,0,0-2.21-.25l-.67.1-.7.2A2.52,2.52,0,0,0,14.56,5,1.62,1.62,0,0,0,14.38,6a1.73,1.73,0,0,0,.54,1,5.25,5.25,0,0,0,1.63.86,4.07,4.07,0,0,1,2.38,2.07,3.6,3.6,0,0,1,0,3.32,2.79,2.79,0,0,1-2.79,1.69,2.81,2.81,0,0,1-2.29-2.4c-.15-1.21.68-2.48.65-4.12a2.9,2.9,0,0,0-1-2.23,1.8,1.8,0,0,0-1.37-.29A2.26,2.26,0,0,0,11,6.52,4.51,4.51,0,0,0,9.91,8.46c-.09.33-.16.65-.22,1l-.09.48,0,.42a11.9,11.9,0,0,0-.05,2.41,5.36,5.36,0,0,0,1.56,3.57,18.53,18.53,0,0,1-.54-3.64,12.48,12.48,0,0,1,.05-2.22l0-.38.08-.45c.06-.3.13-.59.21-.89a3.48,3.48,0,0,1,.8-1.49A.87.87,0,0,1,12.88,7a1.89,1.89,0,0,1,.59,1.43c.09,1.17-.77,2.5-.63,4.17A3.83,3.83,0,0,0,16,15.94a3.43,3.43,0,0,0,2.35-.52,4.48,4.48,0,0,0,1.52-1.72,4.65,4.65,0,0,0,0-4.25c-1.05-2.77-5.29-2.74-4.39-4a2.63,2.63,0,0,1,1.94-.83,4.87,4.87,0,0,1,1.83.2,5,5,0,0,1,1.1.47,2.42,2.42,0,0,1,.37.21l.35.24a6.29,6.29,0,0,1,.89.81,5.78,5.78,0,0,1,1.56,4c.05,1.9-.29,4.24-.25,6.81a17.69,17.69,0,0,0,1.83,8A84,84,0,0,0,34.31,39l2.58,3.19c.25.31.45.56.59.72A13.75,13.75,0,0,0,40.28,45.52Z"/><path class="cls-2" d="M12.6,17.2a6,6,0,0,1-1.43-1.34A19,19,0,0,1,10,14.14a11.29,11.29,0,0,1-.78-1.52,15,15,0,0,1-.81-2.5A7.56,7.56,0,0,0,7.24,6.85a1.78,1.78,0,0,0-2-.52,2.36,2.36,0,0,0-1.17,1,3,3,0,0,0-.38.92,2.75,2.75,0,0,0-.06.34,4.68,4.68,0,0,0,0,1.06A20.57,20.57,0,0,0,4,12,14.77,14.77,0,0,0,6,17.5a9.35,9.35,0,0,0,1.88,2.06A6.55,6.55,0,0,0,12,21a31.35,31.35,0,0,1-3.4-2.34A8.35,8.35,0,0,1,7,16.85a13.57,13.57,0,0,1-1.87-5,22,22,0,0,1-.3-2.21,3.56,3.56,0,0,1,0-.83s0-.09,0-.24A1.79,1.79,0,0,1,5.09,8a1.28,1.28,0,0,1,.6-.55.59.59,0,0,1,.68.21,3.19,3.19,0,0,1,.54,1.2c.13.49.22,1,.34,1.55a16.55,16.55,0,0,0,.87,2.7A15.89,15.89,0,0,0,9,14.75,4.75,4.75,0,0,0,12.6,17.2Z"/></symbol><symbol id="Fuzzballs_body_1" data-name="Fuzzballs_body_1" viewBox="0 0 171.59 170.84"><path class="cls-1" d="M162.32,99.66l-.86-.31a5.33,5.33,0,0,0,.9-.41l2.13-1.15L162.83,96a4,4,0,0,0-2.25-1.36l-3.67-.75-.21,0,2.63.34c.61.08,1.15.13,1.64.15a19.05,19.05,0,0,0,3.16-.16l7.46-.86-7-2.74A18,18,0,0,0,160,89.34L157.25,89l2.23.12a3.42,3.42,0,0,0,2.44-1l1.48-1.27-1.34-1.43a3.53,3.53,0,0,0-2-1.19,4.29,4.29,0,0,0,1.94-.87l2.05-1.5-2-1.51a4,4,0,0,0-2.57-.95h-1l2.34-.35a3.94,3.94,0,0,0,2.34-1.33L164.8,76l-2.14-1.18a3.9,3.9,0,0,0-2.66-.59l-1.25.19A4,4,0,0,0,160,73.17l1.24-1.75-1.9-1-.23-.11,1.45-.41A16.84,16.84,0,0,0,165,68l6.45-3.84-7.5.37a18.51,18.51,0,0,0-4.71.72l-3.4,1,.76-.28a4.36,4.36,0,0,0,2.1-1.77l1.55-2.23-2.63-.65a4.33,4.33,0,0,0-2.77.07l-4.09,1.54a1.24,1.24,0,0,0-.23-.12l6-2.86a4.2,4.2,0,0,0,1.92-1.94l1.28-2.28-2.58-.47a4.24,4.24,0,0,0-2.74.27l-6.33,3c.58-.34,1.08-.6,1.08-.6s.65-.35,1.37-.69,1.36-.61,1.67-.73a3.81,3.81,0,0,0,1.62-1.15l1.85-1.91-2-1.21a3.56,3.56,0,0,0-3.11-.34l-.06,0a5.12,5.12,0,0,0,.78-1.22l1.1-2.29-2.51-.37a4.06,4.06,0,0,0-2.71.36l-1.4.18a3,3,0,0,0,1.3-2.26l.23-1.55-1.49-.5c-.12,0-.27-.09-.44-.13l1.91-1a4.57,4.57,0,0,0,1.93-2l1.41-2.53-2.88-.24a4.72,4.72,0,0,0-2.79.48l-.8.43a5.36,5.36,0,0,0,.3-.94l.56-2.35-2.42.05a4,4,0,0,0-2.52.75l-3,2.23-.17.12,2-1.72a18,18,0,0,0,3.2-3.58l4.35-6.11-6.71,3.35a18,18,0,0,0-4,2.62l-2.07,1.77,1.59-1.56a3.43,3.43,0,0,0,.91-2.46l0-2-2,0A3.56,3.56,0,0,0,132,30a4.44,4.44,0,0,0,.62-2l.25-2.53-2.48.51A4.09,4.09,0,0,0,128,27.29l-.69.76,1.31-2a3.93,3.93,0,0,0,.57-2.62L129,21l-2.31.8a3.91,3.91,0,0,0-2.21,1.58l-.12.18a4.41,4.41,0,0,0,.14-2L124.2,19l-2.32,1.06-.16.08a16.5,16.5,0,0,0,1.52-4.37l1.6-7.32L120,14.16a19.7,19.7,0,0,0-2.71,3.89L116,20.39a4.35,4.35,0,0,0,.11-2.65l-.57-2.64-2.27,1.47a4.37,4.37,0,0,0-1.84,2.07l.12-2.23a4.2,4.2,0,0,0-.1-2.73l-.8-2.5-2.1,1.57a4.26,4.26,0,0,0-1.68,2.19l-2.13,6.66c.15-.66.3-1.2.3-1.2s.19-.71.43-1.47c.11-.34.3-.94.6-1.72a3.74,3.74,0,0,0,.27-2l-.13-2.65-2.28.66a3.49,3.49,0,0,0-1.9,1.27,5.14,5.14,0,0,0-.26-2.09l-.86-2.81-2.18,2A4.67,4.67,0,0,0,97.17,14l-1.53,5.5c-.06-.16-.13-.31-.19-.45l-.08-.17,1.09-5.76A4.05,4.05,0,0,0,96,10.41L94.93,8.14l-1.86,1.7a4,4,0,0,0-1.42,2.33L90.73,17c0-.18-.07-.37-.11-.56l.28-4.25a16.59,16.59,0,0,0-.4-4.83L89,0,86.87,7.2A19.29,19.29,0,0,0,86,11.88L85.67,17l-.09-3.19a4.36,4.36,0,0,0-1-2.57L83,9.1l-1.47,2.27A4.3,4.3,0,0,0,80.68,14l.14,5a2.59,2.59,0,0,0-.19-.33l-.75-6.81a4.2,4.2,0,0,0-1.2-2.45l-1.75-2L75.65,9.8A4.18,4.18,0,0,0,75,12.48l.76,7c-.13-.66-.22-1.21-.22-1.21s-.11-.73-.2-1.52-.13-1.57-.15-1.82a3.8,3.8,0,0,0-.55-1.9c-.05-.08-.09-.17-.14-.26L73.45,10.6l-1.81,1.53A3.55,3.55,0,0,0,70.3,15V15a4.79,4.79,0,0,0-.9-1.15L67.6,12.1l-1.17,2.25A4.06,4.06,0,0,0,65.89,17l.64,4.12c-.09.07-.19.13-.28.21l-.65-2.95a3,3,0,0,0-1.71-2l-1.4-.73-1,1.25a5,5,0,0,0-.3.41l-.33-1.88A4.64,4.64,0,0,0,59.58,13l-2-2.12-1.12,2.67a4.58,4.58,0,0,0-.4,2.79l.16.9a6.79,6.79,0,0,0-.81-.58l-2.06-1.26-.7,2.32a4,4,0,0,0-.06,2.63l.71,2.13L53,22.08l-.16-.38a17.68,17.68,0,0,0-2.41-4.15l-4.47-6,1.12,7.42a17.79,17.79,0,0,0,1.24,4.65l1,2.52-1-2a3.36,3.36,0,0,0-2.06-1.63l-1.84-.65-.56,1.87a3.44,3.44,0,0,0,0,2.29,4.39,4.39,0,0,0-1.72-1.21l-2.32-1-.29,2.52A4.07,4.07,0,0,0,40,29l.51.89L39,28a3.93,3.93,0,0,0-2.32-1.36l-2.37-.6,0,2.44a4,4,0,0,0,.82,2.6l.84,1a4.25,4.25,0,0,0-1.5-.4l-2.13-.23.06,2.14c0,.09,0,.19,0,.3a17.58,17.58,0,0,0-3.15-2.32l-6.4-3.92,3.82,6.46A17.92,17.92,0,0,0,29.65,38l.71.72-.54-.46a4.33,4.33,0,0,0-2.56-1L24.56,37l.7,2.62a4.41,4.41,0,0,0,1.4,2.39l3.61,3.07-.33,0-5.36-3.86A4.2,4.2,0,0,0,22,40.5H19.33L20.17,43a4.27,4.27,0,0,0,1.56,2.27l5.57,4c-.53-.32-.94-.59-.94-.59s-.61-.4-1.26-.86-1.19-.9-1.45-1.11a3.78,3.78,0,0,0-1.79-.86l-2.57-.69-.07,2.36a3.55,3.55,0,0,0,1.2,2.89l0,0A4.78,4.78,0,0,0,19,50.35l-2.54.14.89,2.38A4.14,4.14,0,0,0,19,55.07s5.39,3.72,5.14,3.56l-4.3-2.43a3,3,0,0,0-2.61,0l-1.47.55.28,1.54c0,.13.06.31.12.5l-1.62-1a4.68,4.68,0,0,0-2.73-.66l-2.89.05,1.24,2.62A4.56,4.56,0,0,0,12,61.91l.78.49a5.53,5.53,0,0,0-1,.21l-2.32.69,1.25,2.07a4,4,0,0,0,1.92,1.8l1.6.7-.72-.08a17.8,17.8,0,0,0-4.45-.9l-7.47-.71,6.26,4.13a17.69,17.69,0,0,0,4.28,2.19l2.58.91-2.15-.59a3.38,3.38,0,0,0-2.59.44l-1.71.94,1,1.67A3.44,3.44,0,0,0,11,77.44a4.29,4.29,0,0,0-2.08.46l-2.31,1,1.67,1.9a4.14,4.14,0,0,0,2.32,1.47l1,.21-2.36-.14h0a4,4,0,0,0-2.56.81l-2,1.37,1.85,1.6A4,4,0,0,0,9,87.28l1.38.08A4.34,4.34,0,0,0,9,88.21L7.4,89.64,9,91a.1.1,0,0,0,.05,0c-.83,0-1.58.08-1.87.1a4.8,4.8,0,0,0-2.67,1L2,93.93l2.69,1.43A5,5,0,0,0,7,96.05a3.38,3.38,0,0,0,.45,0l4.72-.15-1.5.2a4.29,4.29,0,0,0-2.45,1.25l-2,1.81,2.41,1.23a4.62,4.62,0,0,0,2,.6,4.6,4.6,0,0,0,.73,0l5.06-.68-.19.19L9.36,102a4.19,4.19,0,0,0-2.31,1.45l-1.76,1.94,2.41,1a4.62,4.62,0,0,0,1.71.45,4.15,4.15,0,0,0,1-.09l6.83-1.48-1.18.34s-.71.19-1.49.36-1.54.3-1.79.34a3.83,3.83,0,0,0-1.84.75,2.5,2.5,0,0,1-.24.16l-2,1.28,1.72,1.64a3.49,3.49,0,0,0,2.37,1,5.66,5.66,0,0,0,.58,0h.06a5,5,0,0,0-1,1l-1.6,2,2.37.93a4.47,4.47,0,0,0,1.57.38,4,4,0,0,0,1.15-.12s6.52-1.56,6.09-1.43l-4.69,1.57a3,3,0,0,0-1.77,1.91L15,118.86l1.34.82.45.25-1.84.53A4.65,4.65,0,0,0,12.6,122l-1.9,2.18,2.77.84a5.85,5.85,0,0,0,1.43.27,4.25,4.25,0,0,0,1.39-.17l.88-.25a5.85,5.85,0,0,0-.49.86l-1,2.19,2.38.45a5.65,5.65,0,0,0,.92.12,3.6,3.6,0,0,0,1.7-.34l2.3-1-.34.3-.68.37A17.56,17.56,0,0,0,18,130.66l-5.53,5.07,7.26-1.89a17.6,17.6,0,0,0,4.49-1.71l2.41-1.31L24.79,132a3.41,3.41,0,0,0-1.41,2.21l-.45,1.91,1.92.36a4.54,4.54,0,0,0,.77.1,3.17,3.17,0,0,0,1.53-.32,4.37,4.37,0,0,0-1,1.86l-.77,2.41,2.53,0a4.09,4.09,0,0,0,2.64-.73l.83-.61-1.68,1.66a4,4,0,0,0-1.11,2.46l-.35,2.42,2.42-.31a3.92,3.92,0,0,0,2.5-1.09L35.54,142l-2.14,2.74a4.67,4.67,0,0,0-1,2.52L32.08,150l2.7-.73.57-.18c-.33.59-.62,1.2-1,1.94l-3.06,6.84,5.92-4.61a16.65,16.65,0,0,0,3-2.81,5.91,5.91,0,0,0-.1,1.17v2.7l2.53-1a4.26,4.26,0,0,0,2.23-1.64l-.58,2.16a4.17,4.17,0,0,0-.47,2.69l.26,2.61,2.38-1.1a4.17,4.17,0,0,0,2.1-1.79l3.47-6.07c-.29.61-.54,1.11-.54,1.11s-.34.65-.73,1.35c-.25.45-.58,1-.94,1.55a3.76,3.76,0,0,0-.67,1.87c0,.09,0,.19-.05.29l-.38,2.34,2.36-.17a3.56,3.56,0,0,0,2.75-1.51l0,0a5.31,5.31,0,0,0,.06,1.45l.41,2.51,2.27-1.14a4.12,4.12,0,0,0,2-1.85l1-1a3,3,0,0,0,.23,2.6l.7,1.41,1.51-.45a3.93,3.93,0,0,0,1.19-.56l-.38.89-.07.17a4.06,4.06,0,0,0-.2,2.64l.49,2.45L65.36,165a4,4,0,0,0,2-1.93c.08-.17.21-.46.36-.81l.83,1.41,1.59-.89.06,0a4.41,4.41,0,0,0,.21,2.74l1,2.68,2.08-1.93a4.6,4.6,0,0,0,1.5-2.27l0-.11c.12-.41.39-1.33.67-2.16l1.25-3.67a38.9,38.9,0,0,1,.11,4.48,3.37,3.37,0,0,0,.71,2.53l1.11,1.61,1.55-1.18a3.47,3.47,0,0,0,1.39-1.87,4.39,4.39,0,0,0,.67,2l1.28,2.2L85.39,166a4.07,4.07,0,0,0,1.22-2.45l.11-1,.11,2.37a4,4,0,0,0,1.07,2.46l1.57,1.88,1.4-2a3.9,3.9,0,0,0,.85-2.58l-.06-1.38a4.38,4.38,0,0,0,1,1.25l1.58,1.43,1.21-1.76a3.6,3.6,0,0,0,.76-2.56l0-.25c.2.78.37,1.56.43,1.87A4.79,4.79,0,0,0,98,165.62l2,2.1,1.1-2.67a6,6,0,0,0,.37-1.15l.41.38,2,1.81,1-2.52a4.37,4.37,0,0,0,.28-2.77l-1-4,.19-.13,2,6.05a4.21,4.21,0,0,0,1.69,2.14l2.11,1.55.78-2.5a4.3,4.3,0,0,0,.07-2.76l-2.19-6.64c.26.62.46,1.14.46,1.15s.26.68.52,1.44.45,1.5.52,1.74a3.69,3.69,0,0,0,.94,1.75l.19.22,1.48,1.85,1.45-1.87a3.54,3.54,0,0,0,.72-3l0-.06a5.21,5.21,0,0,0,1.12.92l2.14,1.38.67-2.45a4.08,4.08,0,0,0,0-2.74l-1.71-4.5.23-.15,1.48,3.25a3,3,0,0,0,2.08,1.56l1.51.42.68-1.42a4.73,4.73,0,0,0,.2-.47l.72,1.78a4.62,4.62,0,0,0,1.81,2.12l2.37,1.67.54-2.84a4.69,4.69,0,0,0-.19-2.82l-.34-.85a5.06,5.06,0,0,0,.91.4l2.28.81.2-2.42a3.94,3.94,0,0,0-.49-2.58l-1.9-3.23-.1-.19,1.5,2.19a18,18,0,0,0,3.23,3.56l5.62,5-2.64-7a17.46,17.46,0,0,0-2.17-4.29l-1.55-2.25,1.39,1.74a3.42,3.42,0,0,0,2.35,1.17l1.94.25.17-2a3.59,3.59,0,0,0-.44-2.25,4.25,4.25,0,0,0,1.93.83l2.48.51-.24-2.52a4.15,4.15,0,0,0-1-2.55l-.69-.76,1.83,1.5a4,4,0,0,0,2.51.85h0l2.45.1-.55-2.39a4,4,0,0,0-1.35-2.36l-1.05-.86a3.23,3.23,0,0,0,.74.11,5.6,5.6,0,0,0,.83,0l2.12-.22-.5-2.07A4.73,4.73,0,0,0,148,131a18.84,18.84,0,0,0,4,1.73l7.14,2.35-5.21-5.42a16.6,16.6,0,0,0-3.44-2.88,3.9,3.9,0,0,0,1.06.19,6.27,6.27,0,0,0,1,0l2.69-.29L154,124.2a4.43,4.43,0,0,0-1.87-2.06s-4-2.3-4-2.35l6.17,2.71a3.61,3.61,0,0,0,1.38.32,5.25,5.25,0,0,0,1.34-.14l2.57-.53-1.34-2.25a4.31,4.31,0,0,0-2-1.9l-6.41-2.82,1.17.43s.68.26,1.41.58c.48.2,1.09.49,1.65.78a3.78,3.78,0,0,0,1.93.47h.29l2.37.13-.42-2.33a3.6,3.6,0,0,0-1.78-2.57l-.07,0a5,5,0,0,0,1.44-.21l2.45-.67-1.36-2.14a4.21,4.21,0,0,0-2.06-1.81L152.21,106a2.56,2.56,0,0,0,.11-.24l3.48,1.1a2.82,2.82,0,0,0,2.56-.51l1.33-.84-.6-1.45c-.06-.12-.12-.28-.22-.46l1.8.65a4.31,4.31,0,0,0,1.28.25,5.62,5.62,0,0,0,1.52-.17l2.82-.65-1.75-2.3A4.64,4.64,0,0,0,162.32,99.66Z"/><path class="cls-2" d="M87.6,17a18,18,0,0,0,.83-4.59c0-.32,0-.85.11-1.95,0-.28.06-.94.06-.94s0-.56.06-.87c.08-1.47.14-2.38.16-2.86a15.75,15.75,0,0,0-.42-4.66,18.2,18.2,0,0,0-.83,4.59c0,.48-.08,1.39-.17,2.85,0,.31-.05.87-.05.87s0,.66-.06.94c-.06,1.11-.09,1.64-.11,2A15.68,15.68,0,0,0,87.6,17Z"/><path class="cls-2" d="M82.45,6.19a2.74,2.74,0,0,0-.57,1.69c0,.76.15,4.52.15,4.52s.13,3.76.16,4.52a2.64,2.64,0,0,0,.68,1.64,2.7,2.7,0,0,0,.57-1.69c0-.75-.15-4.51-.15-4.51s-.13-3.77-.16-4.52A2.69,2.69,0,0,0,82.45,6.19Z"/><path class="cls-2" d="M76.22,4.44a2.55,2.55,0,0,0-.43,1.68c.08.72.5,4.35.5,4.35s.42,3.62.51,4.35a2.55,2.55,0,0,0,.8,1.54A2.52,2.52,0,0,0,78,14.68c-.08-.73-.5-4.35-.5-4.35S77.12,6.7,77,6A2.51,2.51,0,0,0,76.22,4.44Z"/><path class="cls-2" d="M71.48,7.52A1.78,1.78,0,0,0,70.77,9c0,.35.07,1.36.19,2.28s.25,1.74.25,1.74.13.83.32,1.73.45,1.89.56,2.22a1.75,1.75,0,0,0,1.16,1.16,3,3,0,0,0,0-1.53c-.08-.31-.34-1.23-.52-2.11s-.31-1.67-.31-1.67-.13-.81-.24-1.69S72,9.27,72,9A2.85,2.85,0,0,0,71.48,7.52Z"/><path class="cls-2" d="M66.4,9.32A2.45,2.45,0,0,0,66,11c.12.7.68,4.18.68,4.18s.57,3.49.68,4.19a2.51,2.51,0,0,0,.87,1.45,2.45,2.45,0,0,0,.37-1.65C68.52,18.44,68,15,68,15s-.57-3.49-.68-4.19A2.41,2.41,0,0,0,66.4,9.32Z"/><path class="cls-2" d="M61,12.45c-.32.42-.48.69-.4,1.08l.59,2.56s.48,2.13.58,2.56.36.56.83.8c.31-.41.47-.68.39-1.08s-.58-2.56-.58-2.56l-.59-2.56C61.73,12.86,61.46,12.69,61,12.45Z"/><path class="cls-2" d="M34,39a17,17,0,0,0-2.82-3.71l-1.39-1.39-.06-.06,0,0c-.84-.83-1.75-1.74-2-2.05A17.33,17.33,0,0,0,24,28.89a17,17,0,0,0,2.82,3.72c.31.3,1.21,1.22,2,2l0,0,.06.07,1.39,1.38A16.7,16.7,0,0,0,34,39Z"/><path class="cls-2" d="M22.63,35.26a2.65,2.65,0,0,0,.87,1.55L27,39.72l3.46,2.91a2.7,2.7,0,0,0,1.68.59,2.7,2.7,0,0,0-.87-1.55l-3.46-2.91-3.46-2.91A2.64,2.64,0,0,0,22.63,35.26Z"/><path class="cls-2" d="M17.16,38.71a2.55,2.55,0,0,0,.95,1.45l3.57,2.53,3.58,2.54a2.56,2.56,0,0,0,1.68.43,2.57,2.57,0,0,0-1-1.45l-3.57-2.54-3.57-2.53A2.52,2.52,0,0,0,17.16,38.71Z"/><path class="cls-2" d="M16.27,44.29a1.82,1.82,0,0,0,.62,1.52c.26.22,1.06.86,1.82,1.38s1.46,1,1.46,1,.71.45,1.5.92,1.71.93,2,1.07a1.74,1.74,0,0,0,1.64-.09c-.42-.48-.58-.81-1.11-1-.28-.13-1.14-.56-1.91-1s-1.46-.89-1.46-.89-.68-.44-1.42-1S18,45.05,17.7,44.85A2.86,2.86,0,0,0,16.27,44.29Z"/><path class="cls-2" d="M30.39,29.26a1.86,1.86,0,0,0,.43,1.39l2.43,2.6s2,2.17,2.43,2.61a1.89,1.89,0,0,0,1.36.53A1.84,1.84,0,0,0,36.6,35L34.17,32.4l-2.43-2.61A1.88,1.88,0,0,0,30.39,29.26Z"/><path class="cls-2" d="M32.4,23.74a2.21,2.21,0,0,0,.46,1.56c.42.54,2.56,3.18,2.56,3.18L38,31.66a2.31,2.31,0,0,0,1.44.78A2.31,2.31,0,0,0,39,30.88L36.4,27.7l-2.56-3.18A2.36,2.36,0,0,0,32.4,23.74Z"/><path class="cls-2" d="M37.89,21.59a2.41,2.41,0,0,0,.25,1.66c.35.62,2.13,3.66,2.13,3.66l2.13,3.66a2.44,2.44,0,0,0,1.33,1,2.44,2.44,0,0,0-.25-1.67l-2.13-3.66-2.13-3.66A2.47,2.47,0,0,0,37.89,21.59Z"/><path class="cls-2" d="M42.48,19.15a1.65,1.65,0,0,0,0,1.36L44,23.42l1.48,2.91a1.67,1.67,0,0,0,1.11.78,1.73,1.73,0,0,0,0-1.36l-1.49-2.91-1.49-2.91A1.65,1.65,0,0,0,42.48,19.15Z"/><path class="cls-2" d="M45.91,13.14a17,17,0,0,0,1.23,4.5c.12.31.33.79.76,1.81l.23.55s.14.32.21.5c.57,1.35.93,2.19,1.12,2.63a16.94,16.94,0,0,0,2.38,4,17.14,17.14,0,0,0-1.23-4.51c-.18-.44-.54-1.28-1.11-2.63-.08-.18-.21-.5-.21-.5L49.06,19l-.77-1.8A16.75,16.75,0,0,0,45.91,13.14Z"/><path class="cls-2" d="M55.48,23.17a2.36,2.36,0,0,0,.07-1.61l-1.3-3.82s-1.06-3.2-1.3-3.84a2.22,2.22,0,0,0-1.11-1.19,2.37,2.37,0,0,0-.08,1.61l1.3,3.82s1.06,3.2,1.31,3.84A2.22,2.22,0,0,0,55.48,23.17Z"/><path class="cls-2" d="M14.21,49.27a2.42,2.42,0,0,0,1,1.38L18.76,53l3.56,2.29a2.44,2.44,0,0,0,1.66.33,2.38,2.38,0,0,0-1-1.38l-3.56-2.3L15.87,49.6A2.43,2.43,0,0,0,14.21,49.27Z"/><path class="cls-2" d="M12.92,55.38c.1.52.2.82.54,1l2.29,1.28L18.05,59c.35.19.66.11,1.15-.08-.1-.51-.2-.81-.54-1l-2.29-1.27-2.3-1.28C13.72,55.12,13.41,55.2,12.92,55.38Z"/><path class="cls-2" d="M58.22,21.45a3,3,0,0,0,.29-1.87c-.15-.79-.88-4.76-.88-4.76s-.73-4-.87-4.76a3.07,3.07,0,0,0-.94-1.64,3,3,0,0,0-.29,1.87c.14.8.87,4.76.87,4.76s.73,4,.88,4.76A2.94,2.94,0,0,0,58.22,21.45Z"/><path class="cls-2" d="M13.91,93.12a3.26,3.26,0,0,0-1.92-.5l-2.84.14-2.22.08-2.23.07c-1.17,0-2.44.12-2.87.15A3.24,3.24,0,0,0,0,93.81a3.3,3.3,0,0,0,1.91.5l2.84-.14L7,94.09,9.2,94c1.17,0,2.45-.12,2.87-.15A3.3,3.3,0,0,0,13.91,93.12Z"/><path class="cls-2" d="M4.2,99.16a2.64,2.64,0,0,0,1.74.39l4.47-.62,4.48-.63a2.7,2.7,0,0,0,1.56-.85,2.64,2.64,0,0,0-1.74-.39l-4.47.62-4.48.63A2.7,2.7,0,0,0,4.2,99.16Z"/><path class="cls-2" d="M3.1,105.54a2.6,2.6,0,0,0,1.72.25l4.27-1,4.28-1a2.59,2.59,0,0,0,1.44-1,2.51,2.51,0,0,0-1.71-.26l-4.28,1-4.28,1A2.56,2.56,0,0,0,3.1,105.54Z"/><path class="cls-2" d="M6.66,109.93a1.79,1.79,0,0,0,1.54.55c.34,0,1.35-.21,2.24-.42s1.71-.44,1.71-.44.81-.21,1.69-.49,1.83-.65,2.15-.79a1.78,1.78,0,0,0,1-1.28,3.08,3.08,0,0,0-1.53.13c-.29.12-1.18.47-2,.74s-1.63.49-1.63.49-.79.21-1.66.41-1.82.36-2.13.41A2.92,2.92,0,0,0,6.66,109.93Z"/><path class="cls-2" d="M4.93,89.38a1.88,1.88,0,0,0,1.33.6l3.56-.06,3.56-.06a1.88,1.88,0,0,0,1.31-.65,1.9,1.9,0,0,0-1.33-.6l-3.56.06-3.57.06A1.88,1.88,0,0,0,4.93,89.38Z"/><path class="cls-2" d="M2.18,84.19a2.25,2.25,0,0,0,1.46.71l4.08.22,4.08.22a2.32,2.32,0,0,0,1.54-.55,2.24,2.24,0,0,0-1.46-.7L7.8,83.87l-4.08-.22A2.31,2.31,0,0,0,2.18,84.19Z"/><path class="cls-2" d="M4.25,78.67a2.42,2.42,0,0,0,1.41.93l4.14.87,4.15.86A2.38,2.38,0,0,0,15.6,81a2.4,2.4,0,0,0-1.4-.93l-4.14-.86-4.15-.86A2.4,2.4,0,0,0,4.25,78.67Z"/><path class="cls-2" d="M5.51,73.63a1.68,1.68,0,0,0,1,.92l3.15.84,3.16.84a1.66,1.66,0,0,0,1.32-.3,1.69,1.69,0,0,0-1-.91L10,74.17l-3.16-.84A1.64,1.64,0,0,0,5.51,73.63Z"/><path class="cls-2" d="M3.34,67.06a17.12,17.12,0,0,0,4.17,2.1l1.85.64.56.2.51.18,2.71.93a17,17,0,0,0,4.58.92,17,17,0,0,0-4.17-2.11L10.85,69l-.52-.17-.56-.2L7.92,68A16.69,16.69,0,0,0,3.34,67.06Z"/><path class="cls-2" d="M17.2,66.66a2.38,2.38,0,0,0-1.15-1.13l-3.71-1.59s-3.09-1.36-3.72-1.6a2.19,2.19,0,0,0-1.63,0A2.34,2.34,0,0,0,8.14,63.5l3.7,1.59s3.09,1.36,3.73,1.6A2.19,2.19,0,0,0,17.2,66.66Z"/><path class="cls-2" d="M9,114.79a2.42,2.42,0,0,0,1.68.2l4.09-1.12,4.1-1.11a2.44,2.44,0,0,0,1.34-1,2.44,2.44,0,0,0-1.67-.19l-4.1,1.11-4.09,1.12A2.41,2.41,0,0,0,9,114.79Z"/><path class="cls-2" d="M12.66,119.84c.45.27.74.4,1.12.28l2.48-.85,2.49-.85c.37-.14.52-.41.71-.9-.45-.27-.73-.4-1.12-.28l-2.48.85-2.49.84C13,119.07,12.85,119.35,12.66,119.84Z"/><path class="cls-2" d="M17.75,63.48A2.94,2.94,0,0,0,16.56,62l-4.12-2.54L8.31,56.94a3,3,0,0,0-1.85-.4A3,3,0,0,0,7.66,58l4.12,2.53,4.12,2.53A3,3,0,0,0,17.75,63.48Z"/><path class="cls-2" d="M41.64,144.29a15.5,15.5,0,0,0-3.3,3.32l-1.15,1.6-.1.14-.05.07-1.7,2.37a18.81,18.81,0,0,0-2.29,4.06,15.28,15.28,0,0,0,3.3-3.32c.25-.36,1-1.41,1.72-2.38l0-.08a1,1,0,0,0,.1-.13c.65-.89.95-1.32,1.14-1.59A18.81,18.81,0,0,0,41.64,144.29Z"/><path class="cls-2" d="M39.35,155.62a2.71,2.71,0,0,0,1.46-1l2.53-3.75,2.53-3.74a2.68,2.68,0,0,0,.41-1.74,2.73,2.73,0,0,0-1.45,1l-2.53,3.75-2.53,3.74A2.75,2.75,0,0,0,39.35,155.62Z"/><path class="cls-2" d="M43.36,160.7a2.59,2.59,0,0,0,1.34-1.11l2.15-3.81L49,152a2.59,2.59,0,0,0,.25-1.72,2.58,2.58,0,0,0-1.34,1.1l-2.15,3.82L43.61,159A2.59,2.59,0,0,0,43.36,160.7Z"/><path class="cls-2" d="M49,161a1.8,1.8,0,0,0,1.45-.77c.19-.29.74-1.15,1.18-1.95s.82-1.56.82-1.56.38-.75.76-1.59.75-1.79.86-2.12a1.76,1.76,0,0,0-.27-1.62c-.43.46-.74.66-.92,1.21-.11.3-.44,1.2-.82,2s-.73,1.55-.73,1.55-.37.72-.8,1.5-1,1.6-1.12,1.86A2.94,2.94,0,0,0,49,161Z"/><path class="cls-2" d="M31.07,151.23a2.71,2.71,0,0,0,1.59-.94c.52-.6,2.87-3.72,2.87-3.72s2.36-3.07,2.84-3.68a3,3,0,0,0,.61-1.73,2.74,2.74,0,0,0-1.59.94c-.51.6-2.86,3.72-2.86,3.72l-2.85,3.69A3,3,0,0,0,31.07,151.23Z"/><path class="cls-2" d="M26.88,147.1a2.25,2.25,0,0,0,1.51-.62l2.89-2.88,2.89-2.88a2.31,2.31,0,0,0,.63-1.52,2.35,2.35,0,0,0-1.51.62c-.48.49-2.89,2.89-2.89,2.89l-2.89,2.88A2.3,2.3,0,0,0,26.88,147.1Z"/><path class="cls-2" d="M24.17,141.87a2.47,2.47,0,0,0,1.63-.42l3.41-2.51,3.42-2.5a2.39,2.39,0,0,0,.89-1.43,2.4,2.4,0,0,0-1.63.42l-3.42,2.5-3.41,2.51A2.39,2.39,0,0,0,24.17,141.87Z"/><path class="cls-2" d="M21.26,137.56a1.67,1.67,0,0,0,1.35-.14l2.74-1.78,2.74-1.78a1.67,1.67,0,0,0,.66-1.18,1.67,1.67,0,0,0-1.35.13l-2.74,1.79-2.74,1.78A1.67,1.67,0,0,0,21.26,137.56Z"/><path class="cls-2" d="M14.92,134.77a17.08,17.08,0,0,0,4.36-1.69l1.71-.94.52-.29.48-.26,2.5-1.39a17.4,17.4,0,0,0,3.75-2.78,16.81,16.81,0,0,0-4.36,1.68l-2.5,1.38-.47.27-.52.28c-1,.54-1.43.8-1.72.95A17.11,17.11,0,0,0,14.92,134.77Z"/><path class="cls-2" d="M23.9,124.21a2.32,2.32,0,0,0-1.61.1L18.63,126s-3.07,1.38-3.68,1.7a2.16,2.16,0,0,0-1.07,1.22,2.38,2.38,0,0,0,1.61-.09l3.66-1.69s3.07-1.39,3.68-1.7A2.21,2.21,0,0,0,23.9,124.21Z"/><path class="cls-2" d="M54.17,162.52a2.42,2.42,0,0,0,1.27-1.12l1.91-3.78,1.91-3.79a2.42,2.42,0,0,0,.15-1.68,2.48,2.48,0,0,0-1.27,1.11c-.31.64-1.91,3.79-1.91,3.79l-1.91,3.79A2.47,2.47,0,0,0,54.17,162.52Z"/><path class="cls-2" d="M60.39,163.16c.5-.15.79-.27,1-.64l1-2.41,1-2.42a1.28,1.28,0,0,0-.2-1.13c-.5.15-.79.28-1,.64s-1,2.41-1,2.41l-1,2.42C60,162.4,60.15,162.7,60.39,163.16Z"/><path class="cls-2" d="M21.91,121.67a3,3,0,0,0-1.89-.1l-4.65,1.37-4.64,1.37a3,3,0,0,0-1.53,1.1,3,3,0,0,0,1.89.1l4.64-1.37,4.64-1.37A3,3,0,0,0,21.91,121.67Z"/><path class="cls-2" d="M97.38,156.1a2.8,2.8,0,0,0-.22,1.89c.1.4.42,1.59.79,2.64l.68,2s.32.94.61,2,.55,2.21.63,2.6a3.12,3.12,0,0,0,1,1.62,2.92,2.92,0,0,0,.27-1.88c-.07-.4-.34-1.6-.65-2.68s-.63-2-.63-2-.32-1-.68-2-.66-2.17-.76-2.55A3.11,3.11,0,0,0,97.38,156.1Z"/><path class="cls-2" d="M104.83,167.27a2.67,2.67,0,0,0,.21-1.77c-.18-.74-1.09-4.39-1.09-4.39s-.91-3.65-1.09-4.39a2.66,2.66,0,0,0-1-1.46,2.66,2.66,0,0,0-.2,1.77l1.08,4.38,1.09,4.39A2.77,2.77,0,0,0,104.83,167.27Z"/><path class="cls-2" d="M111.29,167.69a2.58,2.58,0,0,0,.08-1.73c-.24-.7-1.4-4.16-1.4-4.16l-1.4-4.15a2.53,2.53,0,0,0-1.11-1.33,2.58,2.58,0,0,0-.08,1.73c.24.69,1.4,4.15,1.4,4.15s1.17,3.46,1.4,4.16A2.56,2.56,0,0,0,111.29,167.69Z"/><path class="cls-2" d="M115.28,163.69a1.73,1.73,0,0,0,.39-1.59,21.93,21.93,0,0,0-.65-2.19c-.3-.87-.61-1.65-.61-1.65s-.3-.78-.67-1.62-.84-1.76-1-2.06a1.76,1.76,0,0,0-1.38-.89,3,3,0,0,0,.29,1.5c.15.28.59,1.13,1,1.95s.65,1.58.65,1.58.3.76.59,1.6.55,1.78.63,2.08A2.92,2.92,0,0,0,115.28,163.69Z"/><path class="cls-2" d="M95,167.56a1.87,1.87,0,0,0,.46-1.38c-.07-.6-.43-3.54-.43-3.54s-.36-2.94-.43-3.54a1.9,1.9,0,0,0-.79-1.23,1.89,1.89,0,0,0-.46,1.39c.07.59.44,3.53.44,3.53s.36,3,.43,3.54A1.92,1.92,0,0,0,95,167.56Z"/><path class="cls-2" d="M90.16,170.84a2.31,2.31,0,0,0,.55-1.53c0-.69-.21-4.08-.21-4.08s-.17-3.4-.21-4.08a2.29,2.29,0,0,0-.7-1.48A2.31,2.31,0,0,0,89,161.2c0,.69.21,4.08.21,4.08s.17,3.4.21,4.08A2.29,2.29,0,0,0,90.16,170.84Z"/><path class="cls-2" d="M84.45,169.35a2.4,2.4,0,0,0,.78-1.49l.43-4.21.42-4.22a2.4,2.4,0,0,0-.46-1.61,2.41,2.41,0,0,0-.79,1.49l-.42,4.21L84,167.73A2.48,2.48,0,0,0,84.45,169.35Z"/><path class="cls-2" d="M79.31,168.63a1.66,1.66,0,0,0,.8-1.1c.09-.54.51-3.22.51-3.22s.42-2.69.51-3.23a1.61,1.61,0,0,0-.44-1.28,1.67,1.67,0,0,0-.8,1.09c-.09.54-.51,3.23-.51,3.23s-.42,2.69-.51,3.23A1.62,1.62,0,0,0,79.31,168.63Z"/><path class="cls-2" d="M71.74,169.63a3.06,3.06,0,0,0,1-1.53c.11-.38.42-1.5.76-2.52l.65-2s.32-.94.66-2,.68-2.19.77-2.58a2.72,2.72,0,0,0-.17-1.86,3,3,0,0,0-1,1.53c-.11.38-.43,1.5-.76,2.52l-.66,2s-.31.94-.66,2-.67,2.19-.77,2.58A2.78,2.78,0,0,0,71.74,169.63Z"/><path class="cls-2" d="M71.15,157.74c-.49.27-.76.46-.91.89s-1,2.86-1,2.86-.87,2.4-1,2.91a1.45,1.45,0,0,0,.29,1.26c.49-.27.76-.46.91-.89s1-2.86,1-2.86.87-2.4,1-2.91A1.44,1.44,0,0,0,71.15,157.74Z"/><path class="cls-2" d="M119.88,160.87a2.37,2.37,0,0,0,0-1.68l-1.54-4s-1.28-3.29-1.53-4a2.45,2.45,0,0,0-1.15-1.23,2.4,2.4,0,0,0,0,1.69l1.54,4s1.27,3.3,1.53,4A2.45,2.45,0,0,0,119.88,160.87Z"/><path class="cls-2" d="M124.52,156.69c.22-.48.32-.78.16-1.15l-1.11-2.38s-.91-2-1.1-2.38-.47-.48-1-.61a1.25,1.25,0,0,0-.17,1.14l1.11,2.38s.91,2,1.1,2.38S124,156.55,124.52,156.69Z"/><path class="cls-2" d="M67.93,157.52a2.31,2.31,0,0,0-1.22,1.14c-.14.32-.56,1.29-.91,2.19l-.65,1.71s-.32.8-.66,1.69-.75,1.83-.88,2.14a2.39,2.39,0,0,0-.07,1.65,2.26,2.26,0,0,0,1.21-1.14c.15-.32.57-1.29.91-2.19s.66-1.71.66-1.71l.65-1.69c.35-.88.76-1.83.89-2.14A2.45,2.45,0,0,0,67.93,157.52Z"/><path class="cls-2" d="M143.58,124.22a16,16,0,0,0,3.63,3l1.68,1,1.05.62.95.57,2.46,1.46a18,18,0,0,0,4.27,1.87,16.31,16.31,0,0,0-3.63-2.95l-2.45-1.47-1-.56-1-.62-1.69-1A18.1,18.1,0,0,0,143.58,124.22Z"/><path class="cls-2" d="M157.31,126.4a2.72,2.72,0,0,0-1.18-1.34l-4-2.12-4-2.13a2.69,2.69,0,0,0-1.77-.23,2.72,2.72,0,0,0,1.18,1.34l4,2.12,4,2.13A2.69,2.69,0,0,0,157.31,126.4Z"/><path class="cls-2" d="M161.94,121.89a2.49,2.49,0,0,0-1.24-1.22l-4-1.74-4-1.74a2.56,2.56,0,0,0-1.73-.07,2.56,2.56,0,0,0,1.23,1.22l4,1.74,4,1.74A2.56,2.56,0,0,0,161.94,121.89Z"/><path class="cls-2" d="M161.64,116.24a1.77,1.77,0,0,0-.92-1.35c-.3-.17-1.21-.62-2.06-1s-1.64-.65-1.64-.65-.78-.3-1.65-.59-1.87-.55-2.2-.63a1.77,1.77,0,0,0-1.59.43c.51.38.74.68,1.31.79.3.08,1.23.32,2.08.61s1.61.56,1.61.56.76.29,1.58.64,1.69.78,2,.92A2.88,2.88,0,0,0,161.64,116.24Z"/><path class="cls-2" d="M151,133.88a1.91,1.91,0,0,0-.72-1.27l-2.92-2-2.92-2a1.93,1.93,0,0,0-1.44-.24,1.91,1.91,0,0,0,.72,1.27l2.92,2,2.92,2A1.84,1.84,0,0,0,151,133.88Z"/><path class="cls-2" d="M150.14,139.7a2.27,2.27,0,0,0-.77-1.44l-3.17-2.57L143,133.11a2.34,2.34,0,0,0-1.57-.46,2.25,2.25,0,0,0,.77,1.43l3.17,2.58,3.17,2.57A2.36,2.36,0,0,0,150.14,139.7Z"/><path class="cls-2" d="M145.22,142.94a2.44,2.44,0,0,0-.59-1.58l-2.85-3.13-2.84-3.13a2.39,2.39,0,0,0-1.52-.74,2.44,2.44,0,0,0,.59,1.58l2.85,3.13s2.37,2.61,2.84,3.14A2.46,2.46,0,0,0,145.22,142.94Z"/><path class="cls-2" d="M141.24,146.29A1.71,1.71,0,0,0,141,145l-2.06-2.53-2.05-2.54a1.68,1.68,0,0,0-1.25-.54,1.71,1.71,0,0,0,.28,1.34l2.06,2.53,2.05,2.54A1.73,1.73,0,0,0,141.24,146.29Z"/><path class="cls-2" d="M139.13,152.88a16.81,16.81,0,0,0-2.14-4.16c-.18-.27-.49-.7-1.12-1.61l-.34-.48-.31-.45-1.64-2.34a17.05,17.05,0,0,0-3.16-3.44,16.81,16.81,0,0,0,2.14,4.16l1.63,2.34.31.45.34.49,1.13,1.6A17.05,17.05,0,0,0,139.13,152.88Z"/><path class="cls-2" d="M127.69,145.05a2.37,2.37,0,0,0,.26,1.59l2.06,3.47s1.7,2.91,2.08,3.48a2.13,2.13,0,0,0,1.33.93,2.39,2.39,0,0,0-.26-1.59l-2.07-3.46s-1.7-2.91-2.07-3.48A2.24,2.24,0,0,0,127.69,145.05Z"/><path class="cls-2" d="M162.62,110.94a2.37,2.37,0,0,0-1.24-1.14l-4-1.51-4-1.5a2.4,2.4,0,0,0-1.69,0A2.49,2.49,0,0,0,153,108l4,1.5,4,1.51A2.43,2.43,0,0,0,162.62,110.94Z"/><path class="cls-2" d="M162.61,104.7c-.2-.49-.35-.76-.74-.89l-2.5-.77-2.51-.78c-.39-.11-.67,0-1.11.32.2.48.36.75.74.88l2.51.77,2.5.78C161.89,105.12,162.17,105,162.61,104.7Z"/><path class="cls-2" d="M125.37,147.3a2.91,2.91,0,0,0,.1,1.89l1.84,4.48,1.85,4.47a3,3,0,0,0,1.26,1.41,3,3,0,0,0-.1-1.89l-1.85-4.47-1.84-4.48A3.08,3.08,0,0,0,125.37,147.3Z"/><path class="cls-2" d="M152.58,68.43a17.56,17.56,0,0,0,4.61-.73l1.88-.54,1.79-.51,1.64-.47,2.75-.8a15.91,15.91,0,0,0,4.26-1.93,18,18,0,0,0-4.61.73l-2.74.79-1.64.47-1.8.51-1.88.55A16.23,16.23,0,0,0,152.58,68.43Z"/><path class="cls-2" d="M162.12,60a2.71,2.71,0,0,0-1.78,0l-4.22,1.62L151.9,63.2a2.72,2.72,0,0,0-1.33,1.18,2.65,2.65,0,0,0,1.78,0l4.22-1.62,4.22-1.62A2.59,2.59,0,0,0,162.12,60Z"/><path class="cls-2" d="M161.75,53.49a2.62,2.62,0,0,0-1.73.14l-4,1.9-3.95,1.89a2.53,2.53,0,0,0-1.18,1.27,2.62,2.62,0,0,0,1.73-.14l4-1.89,3.95-1.9A2.53,2.53,0,0,0,161.75,53.49Z"/><path class="cls-2" d="M157.3,50a1.77,1.77,0,0,0-1.63-.19,22.14,22.14,0,0,0-2.09.91c-.83.41-1.57.81-1.57.81s-.73.4-1.53.87a22.19,22.19,0,0,0-1.91,1.25,1.76,1.76,0,0,0-.72,1.48,3.23,3.23,0,0,0,1.46-.47c.26-.18,1.05-.73,1.82-1.18s1.48-.85,1.48-.85.72-.38,1.52-.77,1.69-.76,2-.88C156.67,50.8,156.85,50.48,157.3,50Z"/><path class="cls-2" d="M163.62,69.64a1.88,1.88,0,0,0-1.43-.28l-3.46.86-3.46.86a1.94,1.94,0,0,0-1.12.93,1.88,1.88,0,0,0,1.43.29l3.45-.86,3.46-.87A1.89,1.89,0,0,0,163.62,69.64Z"/><path class="cls-2" d="M167.14,74.28a2.31,2.31,0,0,0-1.59-.38l-4,.63-4,.63a2.33,2.33,0,0,0-1.39.86,2.28,2.28,0,0,0,1.58.38l4-.63,4-.64A2.27,2.27,0,0,0,167.14,74.28Z"/><path class="cls-2" d="M166.25,80.11a2.46,2.46,0,0,0-1.56-.62l-4.24,0-4.23,0a2.42,2.42,0,0,0-1.56.63,2.35,2.35,0,0,0,1.56.62l4.24,0h4.23A2.43,2.43,0,0,0,166.25,80.11Z"/><path class="cls-2" d="M166.07,85.31a1.69,1.69,0,0,0-1.17-.69l-3.26-.17-3.27-.16a1.63,1.63,0,0,0-1.23.56,1.71,1.71,0,0,0,1.18.69l3.26.16,3.26.17A1.62,1.62,0,0,0,166.07,85.31Z"/><path class="cls-2" d="M169.56,91.29a17,17,0,0,0-4.52-1.2l-1.94-.24-.59-.07-.54-.07-2.84-.35a16.77,16.77,0,0,0-4.66,0A16.44,16.44,0,0,0,159,90.6l2.84.36.54.06.58.08,1.95.24A16.85,16.85,0,0,0,169.56,91.29Z"/><path class="cls-2" d="M156.09,94.56a2.33,2.33,0,0,0,1.36.86l4,.79s3.31.68,4,.78a2.19,2.19,0,0,0,1.59-.36,2.36,2.36,0,0,0-1.36-.87l-4-.78s-3.3-.69-4-.79A2.19,2.19,0,0,0,156.09,94.56Z"/><path class="cls-2" d="M153.93,45.8a2.44,2.44,0,0,0-1.67.19l-3.74,2-3.74,2a2.43,2.43,0,0,0-1.08,1.29,2.41,2.41,0,0,0,1.68-.19l3.73-2,3.74-2A2.39,2.39,0,0,0,153.93,45.8Z"/><path class="cls-2" d="M149.21,41.71a1.29,1.29,0,0,0-1.15,0l-2.23,1.39-2.23,1.39c-.33.22-.41.52-.49,1,.5.16.81.23,1.16,0l2.22-1.38,2.23-1.39C149.06,42.54,149.14,42.23,149.21,41.71Z"/><path class="cls-2" d="M156.21,97.78A3,3,0,0,0,157.68,99l4.56,1.62,4.56,1.62a2.91,2.91,0,0,0,1.89,0,3,3,0,0,0-1.47-1.19l-4.56-1.62-4.56-1.62A3,3,0,0,0,156.21,97.78Z"/><path class="cls-2" d="M114.92,25.67a18.93,18.93,0,0,0,2.65-3.84l.91-1.72c.34-.62,1.13-2.1,1.13-2.1l1-1.92c.69-1.3,1.11-2.11,1.34-2.53a15.64,15.64,0,0,0,1.53-4.42A18.51,18.51,0,0,0,120.88,13l-1.35,2.52-1,1.92-1.13,2.09-.91,1.74A15.37,15.37,0,0,0,114.92,25.67Z"/><path class="cls-2" d="M115.92,12.15a2.69,2.69,0,0,0-1.21,1.31L113,17.65l-1.7,4.19a2.71,2.71,0,0,0,0,1.78,2.69,2.69,0,0,0,1.21-1.31c.29-.7,1.7-4.19,1.7-4.19l1.69-4.19A2.65,2.65,0,0,0,115.92,12.15Z"/><path class="cls-2" d="M111,8a2.64,2.64,0,0,0-1.09,1.36c-.21.7-1.3,4.18-1.3,4.18s-1.1,3.48-1.31,4.18a2.52,2.52,0,0,0,.11,1.73,2.51,2.51,0,0,0,1.08-1.35l1.31-4.19,1.31-4.18A2.59,2.59,0,0,0,111,8Z"/><path class="cls-2" d="M105.37,8.9A1.74,1.74,0,0,0,104.11,10c-.13.31-.49,1.27-.75,2.15s-.48,1.69-.48,1.69-.21.81-.41,1.71-.36,1.91-.4,2.26a1.76,1.76,0,0,0,.6,1.53,3.17,3.17,0,0,0,.65-1.38c0-.32.18-1.26.38-2.14s.39-1.66.39-1.66.21-.79.47-1.64.6-1.76.72-2.05A3,3,0,0,0,105.37,8.9Z"/><path class="cls-2" d="M124.89,16a2.45,2.45,0,0,0-1.3,1.08l-2,3.74-2,3.73a2.44,2.44,0,0,0-.21,1.69,2.45,2.45,0,0,0,1.3-1.08c.35-.62,2-3.74,2-3.74s1.7-3.11,2-3.73A2.49,2.49,0,0,0,124.89,16Z"/><path class="cls-2" d="M129.89,17.88a2.27,2.27,0,0,0-1.34.92c-.38.57-2.23,3.42-2.23,3.42l-2.23,3.42a2.33,2.33,0,0,0-.3,1.61,2.24,2.24,0,0,0,1.35-.91l2.22-3.43,2.23-3.42A2.27,2.27,0,0,0,129.89,17.88Z"/><path class="cls-2" d="M133.64,22.44a2.43,2.43,0,0,0-1.51.75l-2.82,3.16-2.82,3.16a2.43,2.43,0,0,0-.58,1.58,2.43,2.43,0,0,0,1.51-.75l2.82-3.16L133.06,24A2.43,2.43,0,0,0,133.64,22.44Z"/><path class="cls-2" d="M137.38,26.05a1.68,1.68,0,0,0-1.3.41l-2.31,2.32-2.31,2.31a1.66,1.66,0,0,0-.4,1.29,1.69,1.69,0,0,0,1.3-.41l2.3-2.32L137,27.34A1.63,1.63,0,0,0,137.38,26.05Z"/><path class="cls-2" d="M144.15,27.46A16.9,16.9,0,0,0,140.24,30l-1.48,1.28-.44.39-.42.35-2.16,1.88a17,17,0,0,0-3.08,3.5,16.64,16.64,0,0,0,3.9-2.56L138.73,33l.41-.35.45-.39L141.07,31A16.75,16.75,0,0,0,144.15,27.46Z"/><path class="cls-2" d="M137.57,39.66a2.32,2.32,0,0,0,1.55-.43l3.23-2.42s2.72-2,3.25-2.43a2.16,2.16,0,0,0,.79-1.42,2.37,2.37,0,0,0-1.56.43l-3.22,2.41s-2.72,2-3.25,2.43A2.2,2.2,0,0,0,137.57,39.66Z"/><path class="cls-2" d="M100.56,6.72a3.12,3.12,0,0,0-1.08,1.59c-.22.79-1.29,4.74-1.29,4.74s-1.08,4-1.29,4.75A3.05,3.05,0,0,0,97,19.71a3.08,3.08,0,0,0,1.09-1.59c.21-.79,1.29-4.75,1.29-4.75s1.08-3.95,1.29-4.74A3.05,3.05,0,0,0,100.56,6.72Z"/><path class="cls-2" d="M94.48,4.87a2.38,2.38,0,0,0-.9,1.4c-.12.69-.76,4.14-.76,4.14s-.64,3.44-.76,4.13a2.44,2.44,0,0,0,.33,1.65,2.4,2.4,0,0,0,.9-1.41c.12-.69.76-4.13.76-4.13s.64-3.44.76-4.14A2.42,2.42,0,0,0,94.48,4.87Z"/><path class="cls-2" d="M140.05,41.73a3.09,3.09,0,0,0,1.87-.3l4.25-2.3,4.26-2.31a3,3,0,0,0,1.27-1.4,3.08,3.08,0,0,0-1.87.3L145.57,38l-4.25,2.31A2.93,2.93,0,0,0,140.05,41.73Z"/></symbol><symbol id="Fuzzballs_face_8" data-name="Fuzzballs_face_8" viewBox="0 0 82.79 40.17"><path class="cls-2" d="M0,31.93c1.46-.32,2.41-.5,4-1,.28-.08.73-.22,1.67-.42a23.12,23.12,0,0,1,5.13-.48,21.18,21.18,0,0,1,3.26.31,22.72,22.72,0,0,1,2.75.67,22.91,22.91,0,0,1,4.47,2,22.05,22.05,0,0,1,2.11,1.37c1.36,1,2.18,1.5,3.45,2.29a9.26,9.26,0,0,0-2.79-3.2A19.27,19.27,0,0,0,21.87,32,23.9,23.9,0,0,0,17.16,30a21.87,21.87,0,0,0-2.88-.7,23.35,23.35,0,0,0-3.43-.33,24,24,0,0,0-5.39.5c-1,.22-1.46.36-1.75.44A9.26,9.26,0,0,0,0,31.93Z"/><path class="cls-2" d="M56.19,35.06c1.32-.69,2.18-1.12,3.62-2,.25-.14.65-.38,1.52-.81a20.73,20.73,0,0,1,4.76-1.63,22.13,22.13,0,0,1,2.24-.34l.94-.06a18.19,18.19,0,0,1,2.76.08,20.5,20.5,0,0,1,4.67,1,21,21,0,0,1,2.31.95c1.51.75,2.4,1.11,3.78,1.69a9.09,9.09,0,0,0-3.28-2.7,21,21,0,0,0-2.44-1,22,22,0,0,0-4.92-1.08,20.5,20.5,0,0,0-2.93-.08l-1,.07a19.74,19.74,0,0,0-2.37.35,21.94,21.94,0,0,0-5,1.72c-.92.45-1.33.71-1.59.86A8.94,8.94,0,0,0,56.19,35.06Z"/><path class="cls-2" d="M22.78,30.4a2.2,2.2,0,0,0,.52,1.35c.19.22.78.89,1.27,1.55s.88,1.29.88,1.29.4.63.79,1.35.74,1.54.86,1.81a2.2,2.2,0,0,0,1,1,2,2,0,0,0,0-1.48c-.12-.29-.49-1.16-.9-1.91S26.41,34,26.41,34s-.42-.67-.93-1.36S24.35,31.22,24.14,31A1.94,1.94,0,0,0,22.78,30.4Z"/><path class="cls-2" d="M60.17,28.05a9,9,0,0,0-2.75,3.24c-.13.28-.36.71-.74,1.66l-.09.23-.05.12,0,.11a21.09,21.09,0,0,0-.76,2.51,8.93,8.93,0,0,0,0,4.25c.41-1.44.69-2.35,1.06-4a21,21,0,0,1,.72-2.38l0-.1,0-.12.09-.21c.36-.9.58-1.31.7-1.57C59.2,30.31,59.57,29.42,60.17,28.05Z"/><circle class="cls-3" cx="41.81" cy="14.1" r="13.53"/><ellipse class="cls-4" cx="41.81" cy="14.1" rx="7.52" ry="7.64" transform="translate(18.51 51.57) rotate(-76.77)"/><circle class="cls-5" cx="38.83" cy="10.64" r="3.79"/></symbol></defs><g id="FUZZBALLS_1"><use width="120.12" height="123.22" transform="translate(35.6 138.44) scale(0.97)" xlink:href="#Fuzzballs_meditate_1"/><use width="120.12" height="123.22" transform="matrix(-0.97, 0, 0, 0.97, 267.25, 138.44)" xlink:href="#Fuzzballs_meditate_1"/><use width="171.59" height="170.84" transform="translate(66.36 65.99)" xlink:href="#Fuzzballs_body_1"/><use width="82.79" height="40.17" transform="translate(100.67 124.27) scale(1.2)" xlink:href="#Fuzzballs_face_8"/></g></svg>