<svg xmlns="http://www.w3.org/2000/svg" xmlns:xlink="http://www.w3.org/1999/xlink" viewBox="0 0 2756.03 300"><defs><style>.cls-1{fill:url(#New_Gradient_Swatch_9);}.cls-2{fill:#fff;stroke-linejoin:round;stroke-width:1.26px;}.cls-2,.cls-5{stroke:#000;stroke-linecap:round;}.cls-3{fill:url(#New_Gradient_Swatch_10);}.cls-4{fill:#f4f4f4;}.cls-5{fill:none;stroke-miterlimit:10;stroke-width:1.26px;}.cls-6{fill:url(#New_Gradient_Swatch_12);}.cls-7{fill:url(#New_Gradient_Swatch_11);}.cls-8{font-size:25.53px;font-family:ArialMT, Arial;}.cls-9{letter-spacing:-0.02em;}.cls-10{letter-spacing:0em;}.cls-11{letter-spacing:-0.02em;}.cls-12{letter-spacing:-0.11em;}.cls-13{letter-spacing:-0.06em;}.cls-14{font-size:37.93px;font-family:MyriadPro-Regular, Myriad Pro;}.cls-15{letter-spacing:-0.08em;}.cls-16{letter-spacing:0.02em;}.cls-17{letter-spacing:0.04em;}.cls-18{fill:#92f80c;}.cls-19{fill:url(#New_Gradient_Swatch_20);}.cls-20{fill:#61d714;}.cls-21{fill:#407f00;}.cls-22{fill:#f70;}.cls-23{fill:url(#New_Gradient_Swatch_19);}.cls-24{fill:#dd6d0c;}</style><radialGradient id="New_Gradient_Swatch_9" cx="4.92" cy="232.2" r="37.96" gradientTransform="translate(64.58 10.47)" gradientUnits="userSpaceOnUse"><stop offset="0.12" stop-color="#339dd4"/><stop offset="0.32" stop-color="#3199d4"/><stop offset="0.5" stop-color="#2a8ed6"/><stop offset="0.68" stop-color="#1f7cd8"/><stop offset="0.86" stop-color="#1062db"/><stop offset="1" stop-color="#0046de"/></radialGradient><radialGradient id="New_Gradient_Swatch_10" cx="-1266.42" cy="-53.09" r="42.99" gradientTransform="translate(1276.55 293.38) scale(0.88)" gradientUnits="userSpaceOnUse"><stop offset="0.41" stop-color="#e7f6fd"/><stop offset="0.52" stop-color="#dff2fb"/><stop offset="0.68" stop-color="#cae7f5"/><stop offset="0.88" stop-color="#a8d6eb"/><stop offset="0.94" stop-color="#9bcfe7"/></radialGradient><radialGradient id="New_Gradient_Swatch_12" cx="281.41" cy="233.88" r="37.96" gradientTransform="translate(64.58 10.47)" gradientUnits="userSpaceOnUse"><stop offset="0.09" stop-color="#ff54b5"/><stop offset="0.38" stop-color="#fd53b4"/><stop offset="0.54" stop-color="#f54fb2"/><stop offset="0.66" stop-color="#e748ae"/><stop offset="0.77" stop-color="#d33ea8"/><stop offset="0.87" stop-color="#ba31a1"/><stop offset="0.96" stop-color="#9b2298"/><stop offset="0.98" stop-color="#961f96"/></radialGradient><radialGradient id="New_Gradient_Swatch_11" cx="-1158.07" cy="-57.26" r="42.99" gradientTransform="translate(1276.55 293.38) scale(0.88)" gradientUnits="userSpaceOnUse"><stop offset="0.32" stop-color="#fefbdb"/><stop offset="0.46" stop-color="#fbf7d5"/><stop offset="0.65" stop-color="#f4eac4"/><stop offset="0.87" stop-color="#e8d6a7"/><stop offset="1" stop-color="#dfc793"/></radialGradient><radialGradient id="New_Gradient_Swatch_20" cx="700.38" cy="263.3" r="21.21" gradientUnits="userSpaceOnUse"><stop offset="0.28" stop-color="#7ee026"/><stop offset="0.62" stop-color="#61d714"/><stop offset="0.65" stop-color="#6bda1a"/><stop offset="0.71" stop-color="#86e32c"/><stop offset="0.78" stop-color="#b2f148"/><stop offset="0.84" stop-color="#dcff63"/><stop offset="0.93" stop-color="#efffb8"/></radialGradient><radialGradient id="New_Gradient_Swatch_19" cx="477.07" cy="263.3" r="21.21" gradientUnits="userSpaceOnUse"><stop offset="0.4" stop-color="#f70"/><stop offset="0.64" stop-color="#db6d0d"/><stop offset="0.67" stop-color="#db7317"/><stop offset="0.72" stop-color="#db8232"/><stop offset="0.78" stop-color="#db9b5e"/><stop offset="0.84" stop-color="#dbb388"/><stop offset="0.93" stop-color="#dbcec3"/></radialGradient></defs><g id="FUZZBALLS_1"><circle id="SVGID" class="cls-1" cx="69.47" cy="241.52" r="37.77"/><path class="cls-2" d="M40.57,235.69c.71,4.59,6.57,8.17,13.7,8.17s13-3.58,13.7-8.17Z"/><path d="M43.21,236.32a2.44,2.44,0,0,0-.05.48,2.82,2.82,0,1,0,5.63,0,3.58,3.58,0,0,0,0-.48Z"/><path class="cls-2" d="M71,235.69c.71,4.59,6.57,8.17,13.7,8.17s13-3.58,13.7-8.17Z"/><path d="M74,236.32a3.58,3.58,0,0,0,0,.48,2.82,2.82,0,1,0,5.63,0,3.58,3.58,0,0,0,0-.48Z"/><circle class="cls-3" cx="163.93" cy="246.74" r="37.77"/><ellipse cx="150.19" cy="241.02" rx="5.51" ry="9.92"/><ellipse class="cls-4" cx="151.01" cy="237.34" rx="2.65" ry="4.78"/><ellipse cx="177.66" cy="241.02" rx="5.51" ry="9.92"/><ellipse class="cls-4" cx="178.48" cy="237.34" rx="2.65" ry="4.78"/><ellipse cx="163.93" cy="266.19" rx="4.46" ry="5.34"/><ellipse class="cls-4" cx="163.93" cy="268.48" rx="2.86" ry="1.53"/><path class="cls-5" d="M154.39,221.18a24.18,24.18,0,0,0-11.41,5"/><path class="cls-5" d="M173.46,221.18a24.18,24.18,0,0,1,11.41,5"/><circle id="SVGID-2" data-name="SVGID" class="cls-6" cx="344.59" cy="243.19" r="37.77"/><ellipse cx="331.38" cy="240.28" rx="5.3" ry="9.54"/><ellipse class="cls-4" cx="332.17" cy="236.75" rx="2.55" ry="4.59"/><ellipse cx="357.8" cy="240.28" rx="5.3" ry="9.54"/><ellipse class="cls-4" cx="358.59" cy="236.75" rx="2.55" ry="4.59"/><path class="cls-5" d="M335.48,219.54a24.13,24.13,0,0,0-9.36,2.07"/><path class="cls-5" d="M353.7,219.54a24.05,24.05,0,0,1,9.36,2.07"/><path class="cls-5" d="M350.94,265a12.75,12.75,0,0,1-6.35,1.61,13.09,13.09,0,0,1-5.57-1.2"/><circle class="cls-7" cx="259.12" cy="243.08" r="37.77"/><ellipse cx="245.38" cy="237.36" rx="5.51" ry="9.92"/><ellipse class="cls-4" cx="246.2" cy="233.68" rx="2.65" ry="4.78"/><ellipse cx="272.85" cy="237.36" rx="5.51" ry="9.92"/><ellipse class="cls-4" cx="273.67" cy="233.68" rx="2.65" ry="4.78"/><ellipse cx="259.12" cy="262.53" rx="4.46" ry="5.34"/><ellipse class="cls-4" cx="259.12" cy="264.82" rx="2.86" ry="1.53"/><path class="cls-5" d="M249.58,217.52a24.18,24.18,0,0,0-11.41,5"/><path class="cls-5" d="M268.65,217.52a24.18,24.18,0,0,1,11.41,5"/></g><g id="TXT_etc" data-name="TXT, etc"><text class="cls-8" transform="translate(15.58 32.23)">Kid<tspan class="cls-9" x="36.9" y="0">’</tspan><tspan class="cls-10" x="42.11" y="0">s Go Server // Character Designs // 20210529</tspan></text><text class="cls-8" transform="translate(1550.42 32.23)">Milk<tspan class="cls-11" x="45.37" y="0"> </tspan><tspan class="cls-12" x="52" y="0">T</tspan><tspan x="64.77" y="0">eeth LLC // nicksnyde</tspan><tspan class="cls-13" x="310.26" y="0">r</tspan><tspan class="cls-10" x="317.35" y="0">.tv</tspan></text><text class="cls-14" transform="translate(16.42 81.85)">FUZZBALL SPECIES</text><text class="cls-14" transform="translate(16.42 121.59)"><tspan class="cls-15">P</tspan><tspan x="16.99" y="0">AL</tspan><tspan class="cls-16" x="58.11" y="0">E</tspan><tspan class="cls-17" x="77.38" y="0">T</tspan><tspan x="97.67" y="0">TE</tspan></text><rect class="cls-18" x="727.93" y="242.09" width="42.42" height="42.42"/><rect class="cls-19" x="679.17" y="242.09" width="42.42" height="42.42"/><rect class="cls-20" x="774.96" y="242.09" width="42.42" height="42.42"/><rect class="cls-21" x="822.27" y="242.09" width="42.42" height="42.42"/><rect class="cls-22" x="503.23" y="242.09" width="42.42" height="42.42"/><rect class="cls-23" x="455.86" y="242.09" width="42.42" height="42.42"/><rect class="cls-22" x="550.26" y="242.09" width="42.42" height="42.42"/><rect class="cls-24" x="597.57" y="242.09" width="42.42" height="42.42"/></g></svg>