<svg xmlns="http://www.w3.org/2000/svg" xmlns:xlink="http://www.w3.org/1999/xlink" viewBox="0 0 300 300"><defs><style>.cls-1{fill:url(#New_Gradient_Swatch_20);}.cls-2{fill:#202020;}.cls-3{fill:#cae8ea;}.cls-4{fill:#fff;}.cls-5{fill:#231f20;}.cls-6{fill:none;stroke:#000;stroke-miterlimit:10;stroke-width:0.71px;}.cls-7{fill:#f2f2f2;}</style><radialGradient id="New_Gradient_Swatch_20" cx="86.59" cy="87.67" r="101.83" gradientTransform="translate(0 1.1) scale(1 0.99)" gradientUnits="userSpaceOnUse"><stop offset="0.28" stop-color="#7ee026"/><stop offset="0.62" stop-color="#61d714"/><stop offset="0.65" stop-color="#6bda1a"/><stop offset="0.71" stop-color="#86e32c"/><stop offset="0.78" stop-color="#b2f148"/><stop offset="0.84" stop-color="#dcff63"/><stop offset="0.93" stop-color="#efffb8"/></radialGradient><symbol id="Fuzzballs_horn_1" data-name="Fuzzballs_horn_1" viewBox="0 0 44.28 75.06"><path class="cls-7" d="M44.28,51.12C11.6,26.26,12.66,5,8,1.35A3.46,3.46,0,0,0,2.62,3C-4,29,6.59,63.28,27.5,75.06"/><path class="cls-2" d="M44.28,51.12a19.86,19.86,0,0,0-3.41-3.56L40,46.8l-.65-.54-.42-.35-.55-.48-1.12-1c-.76-.66-1.51-1.37-2.29-2.09A87.7,87.7,0,0,1,17.61,20.6,87.26,87.26,0,0,1,12.08,8.05,36.13,36.13,0,0,0,9.59,2.22,4.46,4.46,0,0,0,7.08.16,4.3,4.3,0,0,0,4,.43,3.73,3.73,0,0,0,2.08,2.52a3.19,3.19,0,0,0-.17.61c0,.18-.09.36-.13.54-.08.36-.16.71-.24,1C1.24,6.05,1,7.23.87,8.19S.62,9.92.54,10.43s-.08.79-.08.79,0,.28-.09.79S.24,13.29.18,14.27a70.25,70.25,0,0,0-.12,8.17A82,82,0,0,0,1.4,34.15a80.49,80.49,0,0,0,3.78,13.4C6,49.82,7,52.06,8.11,54.26a71.67,71.67,0,0,0,3.64,6.33A55.83,55.83,0,0,0,16,66.28c.75.88,1.53,1.71,2.32,2.52L19.52,70c.19.2.41.38.61.56l.52.45c1,.93,1.93,1.57,2.36,1.93a14.43,14.43,0,0,0,2.24,1.36,21.77,21.77,0,0,0,2.25.8c-.62-.62-1.15-1.12-1.72-1.61a22.32,22.32,0,0,0-2-1.61c-.41-.35-1.31-1-2.28-1.87l-.5-.44c-.2-.18-.41-.35-.59-.54l-1.16-1.13c-.76-.78-1.52-1.6-2.26-2.45a56,56,0,0,1-4.15-5.55,68.8,68.8,0,0,1-3.57-6.2c-1.05-2.16-2-4.35-2.88-6.58A79.73,79.73,0,0,1,2.71,33.9,79.06,79.06,0,0,1,1.39,22.38a70.31,70.31,0,0,1,.11-8c.06-1,.13-1.7.19-2.21s.09-.78.09-.78,0-.26.08-.77S2,9.35,2.18,8.41s.36-2.1.66-3.41c.07-.33.15-.67.23-1,0-.17.08-.35.13-.53A2.93,2.93,0,0,1,3.33,3,2.37,2.37,0,0,1,4.6,1.63a3,3,0,0,1,2.11-.19A3.06,3.06,0,0,1,8.46,2.93a34.16,34.16,0,0,1,2.37,5.58,88.25,88.25,0,0,0,5.61,12.73A88.74,88.74,0,0,0,34,43.34c.78.73,1.54,1.45,2.32,2.11l1.13,1,.55.48.43.36.65.54.94.77A16.54,16.54,0,0,0,44.28,51.12Z"/></symbol><symbol id="Fuzzballs_body_1_2" data-name="Fuzzballs_body_1 2" viewBox="0 0 171.73 170.98"><path class="cls-1" d="M162.44,99.83l-.86-.32a6.93,6.93,0,0,0,.91-.4L164.62,98,163,96.18a4.11,4.11,0,0,0-2.26-1.37L157,94.06l-.21,0,2.63.35c.61.07,1.15.12,1.64.14a19.18,19.18,0,0,0,3.17-.16l7.47-.86-7-2.74a17.66,17.66,0,0,0-4.65-1.25l-2.72-.36,2.24.13a3.37,3.37,0,0,0,2.44-1L163.53,87l-1.34-1.43a3.54,3.54,0,0,0-2-1.19,4.24,4.24,0,0,0,1.95-.88l2.05-1.5-2.05-1.51a4,4,0,0,0-2.57-1h-1l2.35-.35a3.94,3.94,0,0,0,2.34-1.33l1.71-1.76-2.14-1.18a4,4,0,0,0-2.67-.58l-1.25.18a4,4,0,0,0,1.27-1.24l1.24-1.75-1.9-1-.23-.11L160.7,70a16.93,16.93,0,0,0,4.42-2l6.46-3.84-7.51.36a18.57,18.57,0,0,0-4.72.73l-3.4,1,.76-.28a4.32,4.32,0,0,0,2.1-1.78L160.36,62l-2.63-.65a4.36,4.36,0,0,0-2.78.07l-4.09,1.54a2.53,2.53,0,0,0-.23-.12l6-2.86A4.22,4.22,0,0,0,158.6,58l1.28-2.29-2.58-.47a4.27,4.27,0,0,0-2.75.27l-6.34,3,1.09-.61s.64-.34,1.37-.69,1.36-.61,1.67-.73A3.81,3.81,0,0,0,154,55.34l1.85-1.92-2-1.21a3.58,3.58,0,0,0-3.12-.34l-.06,0a4.82,4.82,0,0,0,.78-1.22l1.11-2.29L150,48a4.09,4.09,0,0,0-2.72.36l-1.39.18a3,3,0,0,0,1.3-2.26l.23-1.56-1.49-.5c-.12,0-.27-.09-.44-.13l1.91-1a4.57,4.57,0,0,0,1.93-2l1.42-2.54-2.89-.24a4.74,4.74,0,0,0-2.79.49l-.81.43a5.73,5.73,0,0,0,.3-.95l.57-2.35-2.42,0a4,4,0,0,0-2.53.75l-3,2.23-.17.13,2-1.73a17.71,17.71,0,0,0,3.2-3.59l4.36-6.12L139.82,31a17.67,17.67,0,0,0-4,2.62l-2.07,1.77,1.59-1.57a3.39,3.39,0,0,0,.91-2.46l.05-2-2,0a3.54,3.54,0,0,0-2.2.67,4.21,4.21,0,0,0,.62-2l.26-2.52-2.49.5a4.12,4.12,0,0,0-2.43,1.27l-.69.77,1.31-2a4,4,0,0,0,.57-2.63L129.08,21l-2.31.8a4,4,0,0,0-2.22,1.59l-.12.18a4.28,4.28,0,0,0,.14-2L124.26,19l-2.33,1.07-.15.07a16.5,16.5,0,0,0,1.52-4.37l1.61-7.34L120,14.19a19.83,19.83,0,0,0-2.71,3.89l-1.27,2.35a4.39,4.39,0,0,0,.11-2.66l-.57-2.65-2.27,1.48a4.29,4.29,0,0,0-1.85,2.07l.12-2.24a4.2,4.2,0,0,0-.1-2.73l-.8-2.51-2.11,1.58A4.29,4.29,0,0,0,106.92,15l-2.14,6.67c.15-.65.3-1.19.3-1.2s.19-.7.43-1.47c.11-.34.3-.94.61-1.72a3.83,3.83,0,0,0,.26-2l-.13-2.66-2.28.66a3.48,3.48,0,0,0-1.91,1.28,4.86,4.86,0,0,0-.26-2.1l-.86-2.81-2.18,2A4.75,4.75,0,0,0,97.19,14l-1.54,5.51a4.68,4.68,0,0,0-.19-.45l-.08-.17,1.1-5.77A4,4,0,0,0,96,10.43L94.94,8.15l-1.86,1.7a4.1,4.1,0,0,0-1.43,2.34L90.73,17c0-.18-.06-.37-.1-.56l.28-4.26a16.66,16.66,0,0,0-.41-4.84L89,0,86.88,7.21A18.88,18.88,0,0,0,86,11.9l-.34,5.17-.09-3.2a4.36,4.36,0,0,0-1-2.57L83,9.11l-1.47,2.28A4.3,4.3,0,0,0,80.67,14l.14,5.06a2.59,2.59,0,0,0-.19-.33l-.75-6.82a4.27,4.27,0,0,0-1.21-2.46l-1.74-2L75.63,9.81A4.22,4.22,0,0,0,75,12.5l.76,7c-.12-.66-.21-1.21-.21-1.21s-.12-.73-.21-1.52-.13-1.57-.15-1.82A3.74,3.74,0,0,0,74.63,13c0-.08-.09-.17-.14-.26l-1.07-2.12-1.81,1.53A3.59,3.59,0,0,0,70.27,15v.09a4.65,4.65,0,0,0-.9-1.16l-1.8-1.8-1.18,2.26a4.15,4.15,0,0,0-.54,2.69l.65,4.13a2.83,2.83,0,0,0-.28.2l-.65-2.95a3,3,0,0,0-1.72-2l-1.4-.73L61.5,17a3.38,3.38,0,0,0-.3.41l-.33-1.88a4.62,4.62,0,0,0-1.34-2.47l-2-2.13-1.12,2.68a4.54,4.54,0,0,0-.4,2.8l.16.9a5.82,5.82,0,0,0-.81-.58l-2.07-1.27-.7,2.33a4,4,0,0,0-.06,2.63l.71,2.13L53,22.11l-.15-.38a17.68,17.68,0,0,0-2.42-4.15l-4.48-6L47,19a17.85,17.85,0,0,0,1.24,4.66l1.05,2.52-1-2a3.43,3.43,0,0,0-2.06-1.64l-1.85-.65-.56,1.88a3.46,3.46,0,0,0,0,2.3,4.32,4.32,0,0,0-1.72-1.22l-2.33-1-.29,2.52A4.17,4.17,0,0,0,39.92,29l.52.89L39,28.08a4,4,0,0,0-2.33-1.37l-2.37-.6,0,2.45a4,4,0,0,0,.83,2.6L36,32.21a4.53,4.53,0,0,0-1.51-.4l-2.13-.23.06,2.14c0,.1,0,.2,0,.3a17.58,17.58,0,0,0-3.15-2.32l-6.41-3.92,3.82,6.47a18,18,0,0,0,2.9,3.85l.71.72-.54-.46a4.35,4.35,0,0,0-2.57-1l-2.7-.27.7,2.61a4.36,4.36,0,0,0,1.41,2.4l3.61,3.07-.34,0-5.37-3.86a4.18,4.18,0,0,0-2.63-.74l-2.62,0L20.06,43a4.24,4.24,0,0,0,1.57,2.27l5.57,4-.94-.59s-.61-.4-1.26-.86-1.2-.9-1.45-1.11a3.81,3.81,0,0,0-1.8-.86l-2.57-.7-.07,2.37a3.53,3.53,0,0,0,1.21,2.89l0,0a5.17,5.17,0,0,0-1.45-.09l-2.53.14L17.27,53a4.14,4.14,0,0,0,1.63,2.2s5.4,3.72,5.15,3.57l-4.31-2.44a3,3,0,0,0-2.61,0l-1.48.55.29,1.55c0,.13.06.3.11.5l-1.62-1a4.67,4.67,0,0,0-2.73-.65l-2.9,0L10,59.85A4.66,4.66,0,0,0,11.85,62l.78.48a5.53,5.53,0,0,0-1,.21l-2.33.69,1.26,2.07a3.91,3.91,0,0,0,1.92,1.81l1.6.7-.72-.08A17.78,17.78,0,0,0,8.93,67l-7.48-.71,6.27,4.14A17.78,17.78,0,0,0,12,72.62l2.58.91-2.16-.59a3.35,3.35,0,0,0-2.58.44l-1.72.94,1,1.67a3.49,3.49,0,0,0,1.71,1.58A4.29,4.29,0,0,0,8.77,78l-2.32,1L8.14,81a4,4,0,0,0,2.31,1.47l1,.22-2.37-.14h0a4,4,0,0,0-2.56.82l-2,1.36L6.34,86.3a4,4,0,0,0,2.48,1.12l1.39.08a4.29,4.29,0,0,0-1.35.86L7.27,89.78l1.62,1.39,0,0c-.83,0-1.58.07-1.87.1a4.8,4.8,0,0,0-2.67,1L1.9,94.09l2.7,1.43a5,5,0,0,0,2.29.69,3.38,3.38,0,0,0,.45,0l4.73-.16-1.51.2a4.36,4.36,0,0,0-2.45,1.26l-2,1.82,2.42,1.23a4.62,4.62,0,0,0,2,.59,4.64,4.64,0,0,0,.73,0l5.06-.67a1.7,1.7,0,0,0-.19.19l-6.88,1.49a4.25,4.25,0,0,0-2.31,1.46l-1.77,1.94,2.42,1a4.82,4.82,0,0,0,1.72.44,4.18,4.18,0,0,0,1-.08l6.84-1.49c-.65.2-1.19.34-1.19.34s-.71.19-1.49.36-1.54.3-1.79.34a3.73,3.73,0,0,0-1.84.76l-.24.16-2,1.28,1.71,1.64a3.45,3.45,0,0,0,2.38,1.05,3.79,3.79,0,0,0,.58,0h.06a5,5,0,0,0-1,1l-1.59,2,2.37.93a4.7,4.7,0,0,0,1.58.38,4.05,4.05,0,0,0,1.15-.12s6.52-1.57,6.09-1.43l-4.69,1.57a3,3,0,0,0-1.78,1.91l-.58,1.46,1.35.82a3.47,3.47,0,0,0,.45.25l-1.85.53a4.73,4.73,0,0,0-2.31,1.59l-1.91,2.19,2.78.83a5.42,5.42,0,0,0,1.43.28,4.5,4.5,0,0,0,1.39-.17l.89-.26a6,6,0,0,0-.5.87l-1,2.19,2.38.45a5.77,5.77,0,0,0,.93.12,3.6,3.6,0,0,0,1.7-.34l2.31-1.05-.34.31-.69.37a17.26,17.26,0,0,0-3.88,2.85L12.39,136l7.27-1.89a17.35,17.35,0,0,0,4.5-1.72L26.57,131l-1.88,1.21a3.39,3.39,0,0,0-1.41,2.22l-.45,1.91,1.92.37c.2,0,.46.08.77.1a3.17,3.17,0,0,0,1.53-.32,4.4,4.4,0,0,0-1,1.85l-.77,2.42,2.54,0a4.1,4.1,0,0,0,2.64-.73l.83-.61-1.69,1.66a4,4,0,0,0-1.11,2.46L28.1,146l2.43-.3a4,4,0,0,0,2.5-1.09l2.42-2.39L33.31,145a4.67,4.67,0,0,0-1,2.52L32,150.28l2.7-.74.58-.18c-.33.6-.62,1.21-1,1.95l-3.07,6.85,5.92-4.61a16.19,16.19,0,0,0,3-2.83,6,6,0,0,0-.09,1.18v2.71l2.53-1A4.4,4.4,0,0,0,44.83,152l-.59,2.16a4.2,4.2,0,0,0-.47,2.7l.26,2.61,2.39-1.1a4.21,4.21,0,0,0,2.1-1.79L52,150.49c-.28.61-.54,1.11-.54,1.11s-.33.65-.73,1.35c-.25.46-.58,1-.94,1.55a3.92,3.92,0,0,0-.68,1.88c0,.09,0,.18,0,.29L48.68,159l2.37-.17a3.57,3.57,0,0,0,2.74-1.51l0-.05a5.31,5.31,0,0,0,.06,1.45l.4,2.51,2.28-1.14a4.07,4.07,0,0,0,2-1.85l1-.95a3,3,0,0,0,.24,2.6l.7,1.41,1.5-.45a3.64,3.64,0,0,0,1.2-.56l-.38.9-.07.16a4,4,0,0,0-.19,2.65l.48,2.45,2.21-1.15a4,4,0,0,0,2-1.93c.08-.17.21-.47.36-.82l.83,1.42,1.6-.9,0,0a4.45,4.45,0,0,0,.22,2.75l1,2.68,2.08-1.94a4.6,4.6,0,0,0,1.5-2.27l0-.11c.12-.41.39-1.33.67-2.17l1.25-3.67c.16-.47.12,4.49.12,4.49a3.39,3.39,0,0,0,.7,2.53L78.77,167l1.56-1.18a3.47,3.47,0,0,0,1.39-1.87,4.36,4.36,0,0,0,.68,2l1.28,2.19,1.71-1.87a4.13,4.13,0,0,0,1.22-2.46l.11-1,.11,2.37a4,4,0,0,0,1.07,2.46l1.57,1.89,1.4-2a3.9,3.9,0,0,0,.86-2.59l-.06-1.39a4.12,4.12,0,0,0,1,1.25l1.58,1.44,1.22-1.76a3.61,3.61,0,0,0,.75-2.57l0-.25c.2.79.37,1.56.44,1.88A4.82,4.82,0,0,0,98,165.89l2,2.1,1.1-2.67a6.57,6.57,0,0,0,.38-1.16,5,5,0,0,0,.41.39l2,1.81,1-2.53a4.33,4.33,0,0,0,.28-2.76l-1-4,.19-.14,2,6.06A4.24,4.24,0,0,0,108,165.1l2.12,1.56.78-2.51a4.31,4.31,0,0,0,.07-2.76l-2.2-6.65c.26.62.47,1.14.47,1.14s.26.69.51,1.44.46,1.51.53,1.75a3.69,3.69,0,0,0,.94,1.75l.19.23,1.48,1.85,1.45-1.87a3.6,3.6,0,0,0,.73-3.05l0-.06a5.52,5.52,0,0,0,1.12.92l2.14,1.38.68-2.45a4.17,4.17,0,0,0,0-2.75l-1.72-4.51.23-.14,1.48,3.25a3,3,0,0,0,2.09,1.56l1.51.43.68-1.42c.06-.13.13-.29.2-.47l.72,1.77a4.56,4.56,0,0,0,1.82,2.13l2.37,1.67.54-2.85a4.69,4.69,0,0,0-.19-2.82l-.34-.85a5.06,5.06,0,0,0,.91.4l2.29.81.2-2.42a4.05,4.05,0,0,0-.5-2.59l-1.9-3.23-.1-.19,1.5,2.19A17.72,17.72,0,0,0,134,151.3l5.63,5-2.64-7a18.08,18.08,0,0,0-2.18-4.29l-1.56-2.26,1.4,1.75a3.46,3.46,0,0,0,2.36,1.17l1.94.25.16-2a3.54,3.54,0,0,0-.44-2.26,4.28,4.28,0,0,0,1.94.83l2.48.52-.24-2.53a4.09,4.09,0,0,0-1-2.55l-.69-.77,1.83,1.51a4,4,0,0,0,2.52.85h0l2.45.09-.55-2.38a3.94,3.94,0,0,0-1.35-2.37L145,134a3.92,3.92,0,0,0,.73.11,7.58,7.58,0,0,0,.84,0l2.12-.22-.5-2.08a4.73,4.73,0,0,0-.16-.59,18.69,18.69,0,0,0,4,1.74l7.15,2.35L154,129.85a16.59,16.59,0,0,0-3.44-2.89,3.77,3.77,0,0,0,1.06.19,6.27,6.27,0,0,0,1,0l2.69-.3-1.22-2.41a4.48,4.48,0,0,0-1.87-2.06s-4-2.3-4-2.35l6.18,2.71a3.65,3.65,0,0,0,1.38.32,4.87,4.87,0,0,0,1.35-.14l2.57-.53-1.35-2.25a4.12,4.12,0,0,0-2-1.9l-6.41-2.83c.63.22,1.16.42,1.16.43s.69.26,1.42.58c.48.2,1.09.49,1.65.78a3.78,3.78,0,0,0,1.93.47h.3l2.37.14-.43-2.34a3.53,3.53,0,0,0-1.78-2.57l-.06,0a5,5,0,0,0,1.44-.21l2.45-.66L159,109.81A4.11,4.11,0,0,0,157,108l-4.66-1.8.12-.24,3.49,1.1a2.6,2.6,0,0,0,.65.11,3.25,3.25,0,0,0,1.91-.61l1.33-.84-.61-1.46c0-.12-.12-.28-.21-.46l1.8.65a4,4,0,0,0,1.28.25,5.57,5.57,0,0,0,1.52-.17l2.83-.65-1.76-2.31A4.57,4.57,0,0,0,162.44,99.83Z"/><path class="cls-2" d="M87.6,17.17a18,18,0,0,0,.83-4.59c0-.32,0-.85.11-1.95,0-.28.06-1,.06-1s0-.55.06-.86c.08-1.47.14-2.38.16-2.86A15.72,15.72,0,0,0,88.4,1.3a18.2,18.2,0,0,0-.83,4.59c0,.48-.08,1.38-.17,2.85,0,.31-.05.87-.05.87s0,.66-.06.94c-.06,1.11-.09,1.64-.11,2A15.72,15.72,0,0,0,87.6,17.17Z"/><path class="cls-2" d="M82.45,6.33A2.74,2.74,0,0,0,81.88,8c0,.76.15,4.52.15,4.52s.13,3.76.16,4.51a2.67,2.67,0,0,0,.68,1.65A2.7,2.7,0,0,0,83.44,17c0-.75-.15-4.52-.15-4.52S83.16,8.73,83.13,8A2.67,2.67,0,0,0,82.45,6.33Z"/><path class="cls-2" d="M76.22,4.58a2.55,2.55,0,0,0-.43,1.68c.08.72.5,4.35.5,4.35s.42,3.62.51,4.35a2.55,2.55,0,0,0,.8,1.54A2.52,2.52,0,0,0,78,14.82c-.08-.73-.5-4.36-.5-4.36S77.12,6.84,77,6.11A2.51,2.51,0,0,0,76.22,4.58Z"/><path class="cls-2" d="M71.48,7.65a1.8,1.8,0,0,0-.71,1.48c0,.34.07,1.36.19,2.28s.25,1.74.25,1.74.13.82.32,1.73.45,1.89.56,2.22a1.75,1.75,0,0,0,1.16,1.16,3,3,0,0,0,0-1.53c-.08-.31-.34-1.23-.52-2.11s-.31-1.68-.31-1.68-.13-.8-.24-1.69S72,9.41,72,9.09A2.88,2.88,0,0,0,71.48,7.65Z"/><path class="cls-2" d="M66.4,9.46A2.44,2.44,0,0,0,66,11.1c.12.7.68,4.19.68,4.19s.57,3.49.68,4.19a2.51,2.51,0,0,0,.87,1.45,2.47,2.47,0,0,0,.37-1.65c-.11-.7-.68-4.19-.68-4.19s-.57-3.49-.68-4.19A2.41,2.41,0,0,0,66.4,9.46Z"/><path class="cls-2" d="M61,12.59c-.32.42-.48.69-.4,1.08l.59,2.56s.48,2.13.58,2.56.36.56.83.8c.31-.41.47-.69.39-1.08S62.41,16,62.41,16l-.59-2.56C61.73,13,61.46,12.83,61,12.59Z"/><path class="cls-2" d="M34,39.11a16.72,16.72,0,0,0-2.82-3.71c-.23-.24-.61-.61-1.39-1.39L29.77,34l0,0c-.84-.83-1.75-1.74-2-2A17,17,0,0,0,24,29a17,17,0,0,0,2.82,3.72c.31.3,1.21,1.21,2,2l0,0,.06.07,1.39,1.38A16.7,16.7,0,0,0,34,39.11Z"/><path class="cls-2" d="M22.63,35.4A2.68,2.68,0,0,0,23.5,37L27,39.86l3.46,2.9a2.71,2.71,0,0,0,1.68.6,2.7,2.7,0,0,0-.87-1.55L27.77,38.9,24.31,36A2.64,2.64,0,0,0,22.63,35.4Z"/><path class="cls-2" d="M17.16,38.85a2.55,2.55,0,0,0,.95,1.45l3.57,2.53,3.58,2.54a2.56,2.56,0,0,0,1.68.43,2.53,2.53,0,0,0-1-1.45c-.59-.43-3.57-2.54-3.57-2.54s-3-2.11-3.57-2.54A2.57,2.57,0,0,0,17.16,38.85Z"/><path class="cls-2" d="M16.27,44.43A1.82,1.82,0,0,0,16.89,46c.26.22,1.06.86,1.82,1.38s1.46,1,1.46,1,.71.45,1.5.92,1.71.93,2,1.07a1.74,1.74,0,0,0,1.64-.09c-.42-.48-.58-.81-1.11-1.05-.28-.14-1.14-.56-1.91-1s-1.46-.89-1.46-.89-.68-.44-1.42-1S18,45.19,17.7,45A2.86,2.86,0,0,0,16.27,44.43Z"/><path class="cls-2" d="M30.39,29.4a1.88,1.88,0,0,0,.43,1.39l2.43,2.6s2,2.17,2.43,2.61a1.89,1.89,0,0,0,1.36.53,1.88,1.88,0,0,0-.44-1.39l-2.43-2.6-2.43-2.61A1.88,1.88,0,0,0,30.39,29.4Z"/><path class="cls-2" d="M32.4,23.88a2.21,2.21,0,0,0,.46,1.56l2.56,3.18L38,31.8a2.31,2.31,0,0,0,1.44.78A2.31,2.31,0,0,0,39,31L36.4,27.84l-2.56-3.18A2.36,2.36,0,0,0,32.4,23.88Z"/><path class="cls-2" d="M37.89,21.73a2.41,2.41,0,0,0,.25,1.66l2.13,3.66,2.13,3.66a2.38,2.38,0,0,0,1.33,1,2.41,2.41,0,0,0-.25-1.66l-2.13-3.66-2.13-3.66A2.47,2.47,0,0,0,37.89,21.73Z"/><path class="cls-2" d="M42.48,19.29a1.65,1.65,0,0,0,0,1.36L44,23.56l1.48,2.9a1.65,1.65,0,0,0,1.11.79,1.73,1.73,0,0,0,0-1.36L45.07,23l-1.49-2.91A1.62,1.62,0,0,0,42.48,19.29Z"/><path class="cls-2" d="M45.91,13.28a17,17,0,0,0,1.23,4.5c.12.3.33.79.76,1.81l.23.55.21.5c.57,1.35.93,2.19,1.12,2.63a16.94,16.94,0,0,0,2.38,4,17.14,17.14,0,0,0-1.23-4.51c-.18-.44-.54-1.28-1.11-2.63-.08-.18-.21-.5-.21-.5l-.23-.55c-.43-1-.64-1.5-.77-1.8A16.75,16.75,0,0,0,45.91,13.28Z"/><path class="cls-2" d="M55.48,23.31a2.36,2.36,0,0,0,.07-1.61l-1.3-3.82S53.19,14.68,53,14a2.22,2.22,0,0,0-1.11-1.19,2.37,2.37,0,0,0-.08,1.61l1.3,3.82s1.06,3.2,1.31,3.84A2.22,2.22,0,0,0,55.48,23.31Z"/><path class="cls-2" d="M14.21,49.41a2.46,2.46,0,0,0,1,1.38l3.57,2.3,3.56,2.29A2.38,2.38,0,0,0,24,55.7a2.39,2.39,0,0,0-1-1.37L19.44,52l-3.57-2.3A2.48,2.48,0,0,0,14.21,49.41Z"/><path class="cls-2" d="M12.92,55.52c.1.52.2.82.54,1l2.29,1.28,2.3,1.28c.35.19.66.11,1.15-.08-.1-.51-.2-.81-.54-1l-2.29-1.28-2.3-1.27C13.72,55.26,13.41,55.34,12.92,55.52Z"/><path class="cls-2" d="M58.22,21.59a3,3,0,0,0,.29-1.87c-.15-.79-.88-4.76-.88-4.76s-.73-4-.87-4.76a3.07,3.07,0,0,0-.94-1.64,3,3,0,0,0-.29,1.87c.14.79.87,4.76.87,4.76s.73,4,.88,4.76A2.94,2.94,0,0,0,58.22,21.59Z"/><path class="cls-2" d="M13.91,93.26a3.26,3.26,0,0,0-1.92-.5l-2.84.14L6.93,93l-2.23.07c-1.17,0-2.44.11-2.87.15A3.11,3.11,0,0,0,0,94a3.3,3.3,0,0,0,1.91.5l2.84-.14L7,94.23l2.23-.07c1.17,0,2.45-.12,2.87-.15A3.3,3.3,0,0,0,13.91,93.26Z"/><path class="cls-2" d="M4.2,99.3a2.64,2.64,0,0,0,1.74.39l4.47-.63,4.48-.62a2.75,2.75,0,0,0,1.56-.85,2.64,2.64,0,0,0-1.74-.39l-4.47.62-4.48.63A2.64,2.64,0,0,0,4.2,99.3Z"/><path class="cls-2" d="M3.1,105.67a2.55,2.55,0,0,0,1.72.26l4.27-1,4.28-1a2.59,2.59,0,0,0,1.44-1,2.51,2.51,0,0,0-1.71-.26l-4.28,1-4.28,1A2.59,2.59,0,0,0,3.1,105.67Z"/><path class="cls-2" d="M6.66,110.07a1.79,1.79,0,0,0,1.54.55c.34,0,1.35-.21,2.24-.42s1.71-.44,1.71-.44.81-.21,1.69-.49,1.83-.65,2.15-.79a1.78,1.78,0,0,0,1-1.28,3.08,3.08,0,0,0-1.53.13c-.29.12-1.18.47-2,.74s-1.63.48-1.63.48-.79.22-1.66.42-1.82.36-2.13.41A2.92,2.92,0,0,0,6.66,110.07Z"/><path class="cls-2" d="M4.93,89.52a1.88,1.88,0,0,0,1.33.6l3.56-.06L13.38,90a1.88,1.88,0,0,0,1.31-.65,1.9,1.9,0,0,0-1.33-.6l-3.56.06-3.57.06A1.88,1.88,0,0,0,4.93,89.52Z"/><path class="cls-2" d="M2.18,84.33A2.25,2.25,0,0,0,3.64,85l4.08.22,4.08.22a2.32,2.32,0,0,0,1.54-.55,2.3,2.3,0,0,0-1.46-.71L7.8,84l-4.08-.22A2.26,2.26,0,0,0,2.18,84.33Z"/><path class="cls-2" d="M4.25,78.81a2.42,2.42,0,0,0,1.41.93l4.14.87,4.15.86a2.43,2.43,0,0,0,1.65-.3,2.4,2.4,0,0,0-1.4-.93l-4.14-.86-4.15-.86A2.4,2.4,0,0,0,4.25,78.81Z"/><path class="cls-2" d="M5.51,73.77c.3.49.52.78,1,.91l3.15.85,3.16.84a1.66,1.66,0,0,0,1.32-.3,1.66,1.66,0,0,0-1-.91L10,74.31l-3.16-.84A1.64,1.64,0,0,0,5.51,73.77Z"/><path class="cls-2" d="M3.34,67.19A16.79,16.79,0,0,0,7.51,69.3l1.85.64.56.19.51.19,2.71.93a17,17,0,0,0,4.58.92,17,17,0,0,0-4.17-2.11l-2.7-.94L10.33,69l-.56-.2-1.85-.64A17.07,17.07,0,0,0,3.34,67.19Z"/><path class="cls-2" d="M17.2,66.8a2.38,2.38,0,0,0-1.15-1.13l-3.71-1.59s-3.09-1.36-3.72-1.6a2.19,2.19,0,0,0-1.63,0,2.34,2.34,0,0,0,1.15,1.13l3.7,1.59s3.09,1.35,3.73,1.6A2.19,2.19,0,0,0,17.2,66.8Z"/><path class="cls-2" d="M9,114.93a2.42,2.42,0,0,0,1.68.2L14.75,114l4.1-1.11a2.44,2.44,0,0,0,1.34-1,2.44,2.44,0,0,0-1.67-.19l-4.1,1.11-4.09,1.12A2.41,2.41,0,0,0,9,114.93Z"/><path class="cls-2" d="M12.66,120c.45.27.74.4,1.12.28l2.48-.85,2.49-.85c.37-.14.52-.42.71-.9-.45-.27-.73-.4-1.12-.28l-2.48.84-2.49.85C13,119.21,12.85,119.49,12.66,120Z"/><path class="cls-2" d="M17.75,63.62a2.94,2.94,0,0,0-1.19-1.47l-4.12-2.54L8.31,57.08a3,3,0,0,0-1.85-.4,3,3,0,0,0,1.2,1.47l4.12,2.53,4.12,2.53A3,3,0,0,0,17.75,63.62Z"/><path class="cls-2" d="M41.64,144.43a15.5,15.5,0,0,0-3.3,3.32l-1.15,1.6a1.37,1.37,0,0,0-.1.14l-.05.06c-.69,1-1.45,2-1.7,2.38A18.81,18.81,0,0,0,33.05,156a15.28,15.28,0,0,0,3.3-3.32c.25-.36,1-1.41,1.72-2.38l0-.08a1,1,0,0,0,.1-.13c.65-.89.95-1.32,1.14-1.59A18.81,18.81,0,0,0,41.64,144.43Z"/><path class="cls-2" d="M39.35,155.76a2.73,2.73,0,0,0,1.46-1L43.34,151l2.53-3.74a2.69,2.69,0,0,0,.41-1.74,2.73,2.73,0,0,0-1.45,1l-2.53,3.75L39.77,154A2.75,2.75,0,0,0,39.35,155.76Z"/><path class="cls-2" d="M43.36,160.84a2.59,2.59,0,0,0,1.34-1.11l2.15-3.81L49,152.1a2.59,2.59,0,0,0,.25-1.72,2.53,2.53,0,0,0-1.34,1.1l-2.15,3.82-2.15,3.82A2.59,2.59,0,0,0,43.36,160.84Z"/><path class="cls-2" d="M49,161.13a1.78,1.78,0,0,0,1.45-.78c.19-.28.74-1.14,1.18-1.95s.82-1.55.82-1.55.38-.75.76-1.59.75-1.79.86-2.12a1.76,1.76,0,0,0-.27-1.62c-.43.46-.74.66-.92,1.21-.11.3-.44,1.2-.82,2s-.73,1.54-.73,1.54-.37.73-.8,1.51-1,1.6-1.12,1.86A2.94,2.94,0,0,0,49,161.13Z"/><path class="cls-2" d="M31.07,151.37a2.71,2.71,0,0,0,1.59-.94c.52-.6,2.87-3.72,2.87-3.72L38.37,143A3,3,0,0,0,39,141.3a2.74,2.74,0,0,0-1.59.94c-.51.6-2.86,3.72-2.86,3.72l-2.85,3.68A3.1,3.1,0,0,0,31.07,151.37Z"/><path class="cls-2" d="M26.88,147.24a2.25,2.25,0,0,0,1.51-.62l2.89-2.88,2.89-2.89a2.28,2.28,0,0,0,.63-1.51,2.35,2.35,0,0,0-1.51.62l-2.89,2.89-2.89,2.88A2.3,2.3,0,0,0,26.88,147.24Z"/><path class="cls-2" d="M24.17,142a2.37,2.37,0,0,0,1.63-.42l3.41-2.5,3.42-2.5a2.42,2.42,0,0,0,.89-1.43,2.4,2.4,0,0,0-1.63.42l-3.42,2.5-3.41,2.5A2.45,2.45,0,0,0,24.17,142Z"/><path class="cls-2" d="M21.26,137.7a1.67,1.67,0,0,0,1.35-.14l2.74-1.78L28.09,134a1.67,1.67,0,0,0,.66-1.18,1.67,1.67,0,0,0-1.35.13l-2.74,1.78-2.74,1.79A1.65,1.65,0,0,0,21.26,137.7Z"/><path class="cls-2" d="M14.92,134.91a17.08,17.08,0,0,0,4.36-1.69l1.71-.94.52-.29.48-.26,2.5-1.39a17.11,17.11,0,0,0,3.75-2.79,17.23,17.23,0,0,0-4.36,1.69l-2.5,1.38-.47.27-.53.28-1.71,1A17.11,17.11,0,0,0,14.92,134.91Z"/><path class="cls-2" d="M23.9,124.35a2.38,2.38,0,0,0-1.61.09l-3.66,1.69s-3.07,1.39-3.68,1.7a2.21,2.21,0,0,0-1.07,1.23,2.38,2.38,0,0,0,1.61-.09l3.66-1.69s3.07-1.39,3.68-1.71A2.16,2.16,0,0,0,23.9,124.35Z"/><path class="cls-2" d="M54.17,162.66a2.42,2.42,0,0,0,1.27-1.12l1.91-3.78L59.26,154a2.42,2.42,0,0,0,.15-1.68,2.48,2.48,0,0,0-1.27,1.11c-.31.64-1.91,3.79-1.91,3.79L54.32,161A2.47,2.47,0,0,0,54.17,162.66Z"/><path class="cls-2" d="M60.39,163.3c.5-.15.79-.27,1-.64l1-2.41,1-2.42a1.28,1.28,0,0,0-.2-1.13c-.5.15-.79.27-1,.64l-1,2.41s-.86,2-1,2.42S60.15,162.84,60.39,163.3Z"/><path class="cls-2" d="M21.91,121.81a3,3,0,0,0-1.9-.1l-4.64,1.37-4.64,1.37a2.91,2.91,0,0,0-1.53,1.1,3,3,0,0,0,1.89.1l4.64-1.37,4.64-1.37A3.09,3.09,0,0,0,21.91,121.81Z"/><path class="cls-2" d="M97.38,156.24a2.8,2.8,0,0,0-.22,1.89c.1.39.42,1.59.79,2.64l.68,2s.32.94.61,2,.55,2.21.63,2.6a3.12,3.12,0,0,0,1,1.62,2.92,2.92,0,0,0,.27-1.88c-.07-.4-.34-1.6-.65-2.68s-.63-2-.63-2l-.68-2c-.35-1-.66-2.17-.76-2.55A3.11,3.11,0,0,0,97.38,156.24Z"/><path class="cls-2" d="M104.83,167.4a2.66,2.66,0,0,0,.21-1.77L104,161.25s-.91-3.65-1.09-4.39a2.71,2.71,0,0,0-1-1.47,2.66,2.66,0,0,0-.2,1.77l1.08,4.39s.91,3.65,1.09,4.39A2.71,2.71,0,0,0,104.83,167.4Z"/><path class="cls-2" d="M111.29,167.83a2.61,2.61,0,0,0,.08-1.74c-.24-.69-1.4-4.15-1.4-4.15l-1.4-4.15a2.49,2.49,0,0,0-1.11-1.33,2.58,2.58,0,0,0-.08,1.73c.24.69,1.4,4.15,1.4,4.15l1.4,4.15A2.55,2.55,0,0,0,111.29,167.83Z"/><path class="cls-2" d="M115.28,163.83a1.74,1.74,0,0,0,.39-1.59,21.93,21.93,0,0,0-.65-2.19c-.3-.87-.61-1.65-.61-1.65s-.3-.78-.67-1.63-.84-1.75-1-2.05a1.74,1.74,0,0,0-1.38-.89,3,3,0,0,0,.29,1.5c.15.28.59,1.13,1,1.95s.65,1.58.65,1.58.3.76.59,1.6.55,1.77.63,2.08A2.92,2.92,0,0,0,115.28,163.83Z"/><path class="cls-2" d="M95,167.7a1.87,1.87,0,0,0,.46-1.38c-.07-.6-.43-3.54-.43-3.54s-.36-2.95-.43-3.54a1.9,1.9,0,0,0-.79-1.23,1.89,1.89,0,0,0-.46,1.39c.07.59.44,3.53.44,3.53s.36,2.95.43,3.54A1.92,1.92,0,0,0,95,167.7Z"/><path class="cls-2" d="M90.16,171a2.32,2.32,0,0,0,.55-1.54c0-.68-.21-4.07-.21-4.07s-.17-3.4-.21-4.08a2.29,2.29,0,0,0-.7-1.48,2.31,2.31,0,0,0-.55,1.53c0,.69.21,4.08.21,4.08s.17,3.4.21,4.08A2.29,2.29,0,0,0,90.16,171Z"/><path class="cls-2" d="M84.45,169.49a2.42,2.42,0,0,0,.78-1.49l.43-4.21.42-4.22a2.39,2.39,0,0,0-.46-1.61,2.41,2.41,0,0,0-.79,1.49l-.42,4.21s-.35,3.51-.43,4.21A2.48,2.48,0,0,0,84.45,169.49Z"/><path class="cls-2" d="M79.31,168.77a1.66,1.66,0,0,0,.8-1.1c.09-.54.51-3.22.51-3.22s.42-2.69.51-3.23a1.64,1.64,0,0,0-.44-1.29,1.71,1.71,0,0,0-.8,1.1c-.09.54-.51,3.23-.51,3.23s-.42,2.68-.51,3.23A1.62,1.62,0,0,0,79.31,168.77Z"/><path class="cls-2" d="M71.74,169.77a3.06,3.06,0,0,0,1-1.53c.11-.38.42-1.5.76-2.53l.65-2s.32-.94.66-2,.68-2.19.77-2.58a2.71,2.71,0,0,0-.17-1.86,3,3,0,0,0-1,1.53c-.11.38-.43,1.5-.76,2.52l-.66,2s-.31.94-.66,2-.67,2.19-.77,2.58A2.78,2.78,0,0,0,71.74,169.77Z"/><path class="cls-2" d="M71.15,157.88c-.49.27-.76.46-.91.89s-1,2.86-1,2.86-.87,2.39-1,2.91a1.45,1.45,0,0,0,.29,1.26c.49-.28.76-.46.91-.9s1-2.85,1-2.85.87-2.4,1-2.91A1.44,1.44,0,0,0,71.15,157.88Z"/><path class="cls-2" d="M119.88,161a2.4,2.4,0,0,0,0-1.69l-1.54-3.95s-1.28-3.3-1.53-4a2.45,2.45,0,0,0-1.15-1.23,2.4,2.4,0,0,0,0,1.69l1.54,3.95s1.27,3.3,1.53,4A2.45,2.45,0,0,0,119.88,161Z"/><path class="cls-2" d="M124.52,156.83c.22-.48.32-.78.16-1.15l-1.11-2.38s-.91-2-1.1-2.38-.47-.48-1-.61a1.25,1.25,0,0,0-.17,1.14l1.11,2.38s.91,2,1.1,2.38S124,156.69,124.52,156.83Z"/><path class="cls-2" d="M67.93,157.65a2.37,2.37,0,0,0-1.22,1.15c-.14.32-.56,1.29-.91,2.19l-.65,1.71s-.32.8-.66,1.69-.75,1.83-.88,2.14a2.39,2.39,0,0,0-.07,1.65A2.26,2.26,0,0,0,64.75,167c.15-.32.57-1.29.91-2.19s.66-1.71.66-1.71l.65-1.69c.35-.88.76-1.83.89-2.14A2.48,2.48,0,0,0,67.93,157.65Z"/><path class="cls-2" d="M143.58,124.36a16,16,0,0,0,3.63,3l1.68,1,1.05.62.95.57,2.46,1.46a18,18,0,0,0,4.27,1.87,16,16,0,0,0-3.63-3l-2.45-1.47-1-.56-1-.62-1.69-1A17.7,17.7,0,0,0,143.58,124.36Z"/><path class="cls-2" d="M157.31,126.54a2.72,2.72,0,0,0-1.18-1.34l-4-2.12-4-2.13a2.69,2.69,0,0,0-1.77-.23,2.72,2.72,0,0,0,1.18,1.34l4,2.12,4,2.13A2.75,2.75,0,0,0,157.31,126.54Z"/><path class="cls-2" d="M161.94,122a2.51,2.51,0,0,0-1.24-1.21l-4-1.74-4-1.74a2.56,2.56,0,0,0-1.73-.07,2.56,2.56,0,0,0,1.23,1.22l4,1.74,4,1.74A2.5,2.5,0,0,0,161.94,122Z"/><path class="cls-2" d="M161.64,116.38a1.77,1.77,0,0,0-.92-1.35,22.7,22.7,0,0,0-2.06-1c-.85-.36-1.64-.65-1.64-.65s-.78-.3-1.66-.59-1.86-.56-2.19-.63a1.77,1.77,0,0,0-1.59.43c.51.38.74.68,1.31.79.3.08,1.23.32,2.08.6s1.61.57,1.61.57.76.29,1.58.64,1.69.78,2,.92A2.88,2.88,0,0,0,161.64,116.38Z"/><path class="cls-2" d="M151,134a1.91,1.91,0,0,0-.72-1.27l-2.92-2-2.92-2.05a1.93,1.93,0,0,0-1.44-.24,1.91,1.91,0,0,0,.72,1.27l2.92,2,2.92,2.05A1.88,1.88,0,0,0,151,134Z"/><path class="cls-2" d="M150.14,139.83a2.25,2.25,0,0,0-.77-1.43l-3.17-2.57L143,133.25a2.29,2.29,0,0,0-1.57-.46,2.25,2.25,0,0,0,.77,1.43l3.17,2.57,3.17,2.58A2.3,2.3,0,0,0,150.14,139.83Z"/><path class="cls-2" d="M145.22,143.08a2.44,2.44,0,0,0-.59-1.58l-2.85-3.13s-2.37-2.61-2.84-3.14a2.43,2.43,0,0,0-1.52-.73,2.44,2.44,0,0,0,.59,1.58l2.85,3.13s2.37,2.61,2.84,3.14A2.46,2.46,0,0,0,145.22,143.08Z"/><path class="cls-2" d="M141.24,146.42a1.69,1.69,0,0,0-.28-1.33c-.34-.43-2.06-2.54-2.06-2.54L136.85,140a1.64,1.64,0,0,0-1.25-.54,1.68,1.68,0,0,0,.28,1.33c.34.43,2.06,2.54,2.06,2.54l2.05,2.54A1.69,1.69,0,0,0,141.24,146.42Z"/><path class="cls-2" d="M139.13,153a17.29,17.29,0,0,0-2.14-4.15c-.18-.27-.49-.7-1.12-1.61l-.34-.48-.31-.45c-.84-1.21-1.36-1.95-1.64-2.34a16.79,16.79,0,0,0-3.16-3.44,16.81,16.81,0,0,0,2.14,4.16l1.63,2.34.31.45.34.48c.63.91.94,1.34,1.13,1.61A17,17,0,0,0,139.13,153Z"/><path class="cls-2" d="M127.69,145.19a2.37,2.37,0,0,0,.26,1.59l2.06,3.47s1.7,2.91,2.08,3.48a2.13,2.13,0,0,0,1.33.93,2.38,2.38,0,0,0-.26-1.59l-2.07-3.46s-1.7-2.91-2.07-3.48A2.24,2.24,0,0,0,127.69,145.19Z"/><path class="cls-2" d="M162.62,111.08a2.37,2.37,0,0,0-1.24-1.14l-4-1.51-4-1.5a2.35,2.35,0,0,0-1.69,0A2.49,2.49,0,0,0,153,108.1l4,1.5,4,1.51A2.43,2.43,0,0,0,162.62,111.08Z"/><path class="cls-2" d="M162.61,104.83c-.2-.48-.35-.75-.74-.88l-2.5-.77-2.51-.78c-.39-.11-.67,0-1.11.32.2.48.36.75.74.88l2.51.77,2.5.78C161.89,105.26,162.17,105.12,162.61,104.83Z"/><path class="cls-2" d="M125.37,147.44a2.91,2.91,0,0,0,.1,1.89l1.84,4.47,1.85,4.48a3,3,0,0,0,1.26,1.41,3,3,0,0,0-.1-1.89l-1.85-4.47-1.84-4.48A3.08,3.08,0,0,0,125.37,147.44Z"/><path class="cls-2" d="M152.58,68.57a18,18,0,0,0,4.61-.73l1.88-.54,1.79-.51,1.64-.47,2.75-.8a15.91,15.91,0,0,0,4.26-1.93,18,18,0,0,0-4.61.73l-2.74.79-1.64.47-1.8.51-1.88.55A16.23,16.23,0,0,0,152.58,68.57Z"/><path class="cls-2" d="M162.12,60.09a2.65,2.65,0,0,0-1.78,0l-4.22,1.62-4.22,1.62a2.72,2.72,0,0,0-1.33,1.18,2.65,2.65,0,0,0,1.78,0l4.22-1.62,4.22-1.62A2.64,2.64,0,0,0,162.12,60.09Z"/><path class="cls-2" d="M161.75,53.63a2.5,2.5,0,0,0-1.73.14l-4,1.89-3.95,1.9a2.53,2.53,0,0,0-1.18,1.27,2.62,2.62,0,0,0,1.73-.14l4-1.9,3.95-1.89A2.53,2.53,0,0,0,161.75,53.63Z"/><path class="cls-2" d="M157.3,50.16a1.77,1.77,0,0,0-1.63-.19,22.14,22.14,0,0,0-2.09.91c-.83.41-1.57.81-1.57.81s-.73.4-1.53.86-1.64,1.05-1.91,1.26a1.76,1.76,0,0,0-.72,1.48,3.23,3.23,0,0,0,1.46-.47c.26-.18,1.05-.73,1.82-1.18s1.48-.85,1.48-.85.72-.38,1.52-.77,1.69-.76,2-.88C156.67,50.94,156.85,50.62,157.3,50.16Z"/><path class="cls-2" d="M163.62,69.78a1.93,1.93,0,0,0-1.43-.29l-3.46.87-3.46.86a1.9,1.9,0,0,0-1.12.93,1.88,1.88,0,0,0,1.43.29l3.45-.87,3.46-.86A1.89,1.89,0,0,0,163.62,69.78Z"/><path class="cls-2" d="M167.14,74.42a2.32,2.32,0,0,0-1.59-.39l-4,.64-4,.63a2.33,2.33,0,0,0-1.39.86,2.28,2.28,0,0,0,1.58.38l4-.63,4-.64A2.27,2.27,0,0,0,167.14,74.42Z"/><path class="cls-2" d="M166.25,80.25a2.41,2.41,0,0,0-1.56-.62l-4.24,0-4.23,0a2.42,2.42,0,0,0-1.56.63,2.41,2.41,0,0,0,1.56.62l4.24,0h4.23A2.43,2.43,0,0,0,166.25,80.25Z"/><path class="cls-2" d="M166.07,85.45a1.62,1.62,0,0,0-1.17-.69l-3.26-.17-3.27-.17a1.68,1.68,0,0,0-1.23.57,1.71,1.71,0,0,0,1.18.69l3.26.16,3.26.17A1.65,1.65,0,0,0,166.07,85.45Z"/><path class="cls-2" d="M169.56,91.43a17,17,0,0,0-4.52-1.2L163.1,90l-.59-.07-.54-.07-2.84-.35a16.77,16.77,0,0,0-4.66,0A17.19,17.19,0,0,0,159,90.74l2.84.36.54.06.58.08,1.95.24A17.66,17.66,0,0,0,169.56,91.43Z"/><path class="cls-2" d="M156.09,94.69a2.3,2.3,0,0,0,1.36.87l4,.78s3.31.69,4,.79a2.19,2.19,0,0,0,1.59-.36,2.36,2.36,0,0,0-1.36-.87l-4-.78s-3.3-.69-4-.79A2.18,2.18,0,0,0,156.09,94.69Z"/><path class="cls-2" d="M153.93,45.94a2.44,2.44,0,0,0-1.67.19l-3.74,2-3.74,2a2.39,2.39,0,0,0-1.08,1.29,2.41,2.41,0,0,0,1.68-.19l3.73-2,3.74-2A2.39,2.39,0,0,0,153.93,45.94Z"/><path class="cls-2" d="M149.21,41.85a1.29,1.29,0,0,0-1.15,0l-2.23,1.39-2.23,1.39c-.33.22-.41.52-.49,1a1.31,1.31,0,0,0,1.16,0l2.22-1.39,2.23-1.38C149.06,42.68,149.14,42.37,149.21,41.85Z"/><path class="cls-2" d="M156.21,97.92a3,3,0,0,0,1.47,1.19l4.56,1.62,4.56,1.62a3,3,0,0,0,1.89,0,3,3,0,0,0-1.47-1.19l-4.56-1.62-4.56-1.62A3,3,0,0,0,156.21,97.92Z"/><path class="cls-2" d="M114.92,25.81A18.93,18.93,0,0,0,117.57,22l.91-1.72,1.13-2.1,1-1.92c.69-1.3,1.11-2.11,1.34-2.53a15.64,15.64,0,0,0,1.53-4.42,18.51,18.51,0,0,0-2.64,3.84c-.23.42-.65,1.22-1.35,2.51-.36.69-1,1.92-1,1.92s-.79,1.48-1.13,2.1l-.91,1.74A15.37,15.37,0,0,0,114.92,25.81Z"/><path class="cls-2" d="M115.92,12.29a2.65,2.65,0,0,0-1.21,1.31L113,17.79,111.32,22a2.71,2.71,0,0,0,0,1.78,2.69,2.69,0,0,0,1.21-1.31c.29-.7,1.7-4.19,1.7-4.19l1.69-4.19A2.65,2.65,0,0,0,115.92,12.29Z"/><path class="cls-2" d="M111,8.15a2.64,2.64,0,0,0-1.09,1.36c-.21.7-1.3,4.18-1.3,4.18s-1.1,3.48-1.31,4.18a2.53,2.53,0,0,0,.11,1.73,2.57,2.57,0,0,0,1.08-1.36c.22-.69,1.31-4.18,1.31-4.18l1.31-4.18A2.59,2.59,0,0,0,111,8.15Z"/><path class="cls-2" d="M105.37,9a1.79,1.79,0,0,0-1.26,1.06c-.13.32-.49,1.28-.75,2.16s-.48,1.69-.48,1.69-.21.81-.41,1.71-.36,1.91-.4,2.26a1.76,1.76,0,0,0,.6,1.53,3.15,3.15,0,0,0,.65-1.39c0-.31.18-1.26.38-2.13s.39-1.66.39-1.66.21-.79.47-1.64.6-1.76.72-2A3,3,0,0,0,105.37,9Z"/><path class="cls-2" d="M124.89,16.11a2.45,2.45,0,0,0-1.3,1.08l-2,3.74-2,3.73a2.42,2.42,0,0,0-.21,1.68,2.39,2.39,0,0,0,1.3-1.07l2-3.74s1.7-3.11,2-3.73A2.49,2.49,0,0,0,124.89,16.11Z"/><path class="cls-2" d="M129.89,18a2.27,2.27,0,0,0-1.34.92c-.38.57-2.23,3.42-2.23,3.42l-2.23,3.42a2.32,2.32,0,0,0-.3,1.61,2.25,2.25,0,0,0,1.35-.92l2.22-3.42,2.23-3.42A2.27,2.27,0,0,0,129.89,18Z"/><path class="cls-2" d="M133.64,22.58a2.43,2.43,0,0,0-1.51.75l-2.82,3.16-2.82,3.16a2.43,2.43,0,0,0-.58,1.58,2.43,2.43,0,0,0,1.51-.75l2.82-3.16,2.82-3.16A2.43,2.43,0,0,0,133.64,22.58Z"/><path class="cls-2" d="M137.38,26.19a1.64,1.64,0,0,0-1.3.41l-2.31,2.31-2.31,2.32a1.66,1.66,0,0,0-.4,1.29,1.73,1.73,0,0,0,1.3-.41l2.3-2.32L137,27.48A1.63,1.63,0,0,0,137.38,26.19Z"/><path class="cls-2" d="M144.15,27.6a16.9,16.9,0,0,0-3.91,2.56l-1.48,1.28-.45.39-.41.35-2.16,1.88a16.47,16.47,0,0,0-3.08,3.5,16.64,16.64,0,0,0,3.9-2.56l2.17-1.87.41-.36.45-.38,1.48-1.29A17.27,17.27,0,0,0,144.15,27.6Z"/><path class="cls-2" d="M137.57,39.79a2.32,2.32,0,0,0,1.55-.42L142.35,37s2.72-2,3.25-2.43a2.18,2.18,0,0,0,.79-1.42,2.37,2.37,0,0,0-1.56.43l-3.22,2.41s-2.72,2-3.25,2.43A2.2,2.2,0,0,0,137.57,39.79Z"/><path class="cls-2" d="M100.56,6.86a3.08,3.08,0,0,0-1.08,1.59c-.22.79-1.29,4.74-1.29,4.74s-1.08,4-1.29,4.75A3.05,3.05,0,0,0,97,19.85a3.12,3.12,0,0,0,1.09-1.59c.21-.79,1.29-4.75,1.29-4.75s1.08-3.95,1.29-4.74A3.05,3.05,0,0,0,100.56,6.86Z"/><path class="cls-2" d="M94.48,5a2.38,2.38,0,0,0-.9,1.4c-.12.69-.76,4.13-.76,4.13s-.64,3.45-.76,4.14a2.44,2.44,0,0,0,.33,1.65,2.43,2.43,0,0,0,.9-1.41c.12-.69.76-4.13.76-4.13s.64-3.45.76-4.14A2.42,2.42,0,0,0,94.48,5Z"/><path class="cls-2" d="M140.05,41.87a3.09,3.09,0,0,0,1.87-.3l4.25-2.3L150.43,37a3,3,0,0,0,1.27-1.4,2.94,2.94,0,0,0-1.87.3l-4.26,2.3-4.25,2.31A2.93,2.93,0,0,0,140.05,41.87Z"/></symbol><symbol id="Fuzzballs_face_3" data-name="Fuzzballs_face_3" viewBox="0 0 69.73 38.16"><path class="cls-3" d="M16.28,28.63c3.65,1.63,4.21,2.79,5.95,4.61s3.63,3.68,5.93,4.2a9.72,9.72,0,0,0,4.82,0,7.52,7.52,0,0,1,4.43,0,9,9,0,0,0,3.68,0c2.32-.38,4.19-2.37,5.93-4.2a16.54,16.54,0,0,1,5.82-4.46s-4.48.24-6.21-.58c-1.48-.7-2.33-1.78-3.91-2.41a8.67,8.67,0,0,0-5.08-.27,5.94,5.94,0,0,0-2.85,1.63,7,7,0,0,0-3.18-1.63,8.37,8.37,0,0,0-5.08.27,28.56,28.56,0,0,0-3.9,2.41C20,29.73,16.28,28.63,16.28,28.63Z"/><path class="cls-2" d="M16.28,28.63c.89.71,1.49,1.16,2.54,1.88l.6.46c.12.1.26.21.39.34l.21.2.27.27.54.57c.36.4.73.83,1.13,1.24a26.21,26.21,0,0,0,2.63,2.48,8.74,8.74,0,0,0,3.48,1.79,11.22,11.22,0,0,0,4,.2,7.53,7.53,0,0,0,1-.24,5.31,5.31,0,0,1,.87-.23,6.47,6.47,0,0,1,1.81-.06,12.26,12.26,0,0,1,1.83.35,8.35,8.35,0,0,0,2,.15,10.85,10.85,0,0,0,1.89-.23,6.54,6.54,0,0,0,1.77-.7A23.74,23.74,0,0,0,48,32.86a17.17,17.17,0,0,1,3.2-2.74,7.94,7.94,0,0,1,1-.56c.43-.2.74-.36,1.08-.5l1-.43.63-.28.25-.1s0,0,0,0h-.23l-.86,0c-.67,0-1.6.09-2.56.09h-.82c-.3,0-.7,0-1.19-.05a12.62,12.62,0,0,1-1.72-.23,4.11,4.11,0,0,1-1-.3,7.86,7.86,0,0,1-1-.6,17.49,17.49,0,0,0-2.44-1.61,8.24,8.24,0,0,0-3.41-.75,7.87,7.87,0,0,0-3.85.84,7.07,7.07,0,0,0-.9.56,4,4,0,0,0-.39.32h0l0,0-.23-.17-.47-.3a8.62,8.62,0,0,0-1-.5l-.25-.1-.25-.1a8.78,8.78,0,0,0-6.28.08,14.51,14.51,0,0,0-2.82,1.74,10.14,10.14,0,0,1-1.3.8,5.11,5.11,0,0,1-.68.28l-.28.08a8.08,8.08,0,0,1-1.74.25l-3.14.05a6,6,0,0,0,3.17.81,9.2,9.2,0,0,0,1.94-.27l.32-.09a6.91,6.91,0,0,0,.79-.33,10,10,0,0,0,1.42-.87,13.66,13.66,0,0,1,2.66-1.64,7.85,7.85,0,0,1,5.64-.07l.24.09.22.09a9.64,9.64,0,0,1,.91.45c.14.09.28.17.42.27l.19.14.16.14.1.09h.11l.32,0c.08,0,.29,0,.39-.14a4.32,4.32,0,0,1,.39-.33,6.59,6.59,0,0,1,.8-.49,7.08,7.08,0,0,1,3.42-.74,7.16,7.16,0,0,1,3,.66,17.41,17.41,0,0,1,2.33,1.54,8.28,8.28,0,0,0,1.12.67,5.52,5.52,0,0,0,1.16.37,13.71,13.71,0,0,0,1.84.24c.51,0,.92.05,1.23.06H51l-.24.15a17.62,17.62,0,0,0-3.36,2.87,23.44,23.44,0,0,1-4.55,4.09,5.6,5.6,0,0,1-1.53.6,9.63,9.63,0,0,1-1.73.21A7.47,7.47,0,0,1,37.79,37a12.12,12.12,0,0,0-1.92-.36,7.42,7.42,0,0,0-2,.06,8.14,8.14,0,0,0-1,.26,5.13,5.13,0,0,1-.88.21A10.38,10.38,0,0,1,28.26,37a7.94,7.94,0,0,1-3.13-1.62A25.28,25.28,0,0,1,22.59,33c-.39-.4-.75-.81-1.12-1.22l-.55-.6-.29-.28-.23-.22c-.15-.14-.3-.26-.43-.37s-.5-.39-.65-.49A7,7,0,0,0,16.28,28.63Z"/><path class="cls-2" d="M26,29.65a20.51,20.51,0,0,0,3.14.54,11.41,11.41,0,0,1,1.28.22,12.11,12.11,0,0,0,2.35.47,15,15,0,0,0,1.52.05s.58,0,1.32-.07,1.6-.22,2.21-.31l1.94-.28a13.09,13.09,0,0,0,3.11-.8,10.41,10.41,0,0,0-3.22-.06l-2,.28c-.62.09-1.48.23-2.17.3a12.14,12.14,0,0,1-1.24.08s-.66,0-1.44-.05a13.78,13.78,0,0,1-2.22-.45,8.62,8.62,0,0,0-1.38-.23A8.06,8.06,0,0,0,26,29.65Z"/><path class="cls-2" d="M8.45,15.19A12.48,12.48,0,0,1,5.38,15a5.78,5.78,0,0,1-1.19-.38c-.14-.05-.34-.17-.53-.26l-.32-.2a8.4,8.4,0,0,1-.69-.55,5.19,5.19,0,0,1-1.1-1.43c-.28-.53-.48-1-.72-1.46S.32,9.85,0,9.37c.06.57.13,1,.23,1.53a6.42,6.42,0,0,0,.55,1.64,6.18,6.18,0,0,0,1.28,1.67,7.16,7.16,0,0,0,.81.63l.36.23c.21.11.45.25.61.31a6.79,6.79,0,0,0,1.37.43A4.3,4.3,0,0,0,8.45,15.19Z"/><path class="cls-2" d="M8.8,12.21a10.82,10.82,0,0,1-2.94-.83,5.33,5.33,0,0,1-1.07-.65,5,5,0,0,1-.4-.35A4.7,4.7,0,0,1,4.05,10a4.57,4.57,0,0,1-.9-1.55c-.21-.56-.3-1.06-.46-1.55a14,14,0,0,0-.56-1.43A13.74,13.74,0,0,0,2.07,7a5.21,5.21,0,0,0,.26,1.73,5.81,5.81,0,0,0,1.06,1.83c.13.16.4.42.4.42a5.51,5.51,0,0,0,.47.41,6.52,6.52,0,0,0,1.25.75A4.09,4.09,0,0,0,8.8,12.21Z"/><path class="cls-2" d="M10.16,9.94A8.53,8.53,0,0,1,7.43,8.61a4.24,4.24,0,0,1-.88-.85l0,0h0l0,0a4.3,4.3,0,0,1-.78-1.59,14.64,14.64,0,0,1-.27-1.56,15.08,15.08,0,0,0-.34-1.51c-.13.56-.22,1-.29,1.52a4.71,4.71,0,0,0,.06,1.77,5.21,5.21,0,0,0,.93,1.9l0,0h0s0,0,0,0a4.87,4.87,0,0,0,1.06,1A3.77,3.77,0,0,0,10.16,9.94Z"/><path class="cls-2" d="M11.89,8.46A3,3,0,0,0,11,7.65,4.51,4.51,0,0,1,9.73,6.59a4.07,4.07,0,0,1-.62-1.11,3.8,3.8,0,0,1-.23-1.25,4.36,4.36,0,0,1,.09-1c.08-.31.14-.57.17-.71A2,2,0,0,0,9,1.28a1.94,1.94,0,0,0-.7,1.06c0,.14-.1.4-.18.72A5.07,5.07,0,0,0,8,4.25,4.74,4.74,0,0,0,8.3,5.77a4.69,4.69,0,0,0,.75,1.36A4.9,4.9,0,0,0,10.57,8.4,1.5,1.5,0,0,0,11.89,8.46Z"/><path class="cls-2" d="M14,6.92a2.41,2.41,0,0,0-.54-1,3.79,3.79,0,0,1-.79-1.22,3.5,3.5,0,0,1-.23-1.1,3.21,3.21,0,0,1,.13-1.12,3.92,3.92,0,0,1,.33-.81l.33-.56A1.67,1.67,0,0,0,13.42,0a1.67,1.67,0,0,0-.91.71l-.34.57a4.76,4.76,0,0,0-.41,1,4.44,4.44,0,0,0-.16,1.4,4.6,4.6,0,0,0,.29,1.37,4.39,4.39,0,0,0,1,1.51A1.31,1.31,0,0,0,14,6.92Z"/><circle class="cls-4" cx="15.61" cy="14.3" r="8.43"/><ellipse class="cls-5" cx="16.6" cy="14.3" rx="4.69" ry="4.76" transform="translate(-1.13 27.19) rotate(-76.77)"/><circle class="cls-4" cx="14.74" cy="12.15" r="2.36"/><path class="cls-3" d="M7.21,11.72C12.07,7,20.59,6.82,24.08,13.23c0,0-.23-6.38-7.68-7.06C9.66,5.56,7.21,11.72,7.21,11.72Z"/><path class="cls-2" d="M7.21,11.72c1-.53,1.65-.89,2.77-1.5a8.72,8.72,0,0,1,1.18-.57,11.94,11.94,0,0,1,2.92-.81,9.23,9.23,0,0,1,1.36-.1H16a4,4,0,0,1,.48,0A6.89,6.89,0,0,1,17.65,9a9.3,9.3,0,0,1,2.67,1c.41.25.72.49,1,.66s.41.36.53.46c.94.84,1.42,1.37,2.25,2.17a5.58,5.58,0,0,0-1.67-2.81c-.13-.11-.31-.3-.57-.51s-.63-.45-1.09-.72A9.94,9.94,0,0,0,17.83,8.1a8.52,8.52,0,0,0-1.27-.19,4.65,4.65,0,0,0-.52,0h-.61A11,11,0,0,0,14,8a12.48,12.48,0,0,0-3.14.87,10.74,10.74,0,0,0-1.26.61A6.25,6.25,0,0,0,7.21,11.72Z"/><circle class="cls-6" cx="15.61" cy="14.3" r="8.43"/><path class="cls-2" d="M61.28,15.19a4.28,4.28,0,0,0,3.23.62,6.62,6.62,0,0,0,1.38-.43c.16-.06.4-.2.61-.31l.36-.23a6.5,6.5,0,0,0,.8-.63A6.08,6.08,0,0,0,69,12.54a6.84,6.84,0,0,0,.55-1.64c.1-.49.16-1,.23-1.53-.32.48-.59.87-.83,1.31s-.44.93-.72,1.46a5.09,5.09,0,0,1-1.11,1.43,6.93,6.93,0,0,1-.69.55l-.31.2c-.19.09-.39.21-.53.26a5.78,5.78,0,0,1-1.19.38A12.51,12.51,0,0,1,61.28,15.19Z"/><path class="cls-2" d="M60.93,12.21a4.09,4.09,0,0,0,3.29,0,6.52,6.52,0,0,0,1.25-.75c.15-.11.47-.41.47-.41s.27-.26.4-.42A5.81,5.81,0,0,0,67.4,8.76,5.21,5.21,0,0,0,67.66,7c0-.5,0-1-.06-1.54A14,14,0,0,0,67,6.92c-.16.49-.25,1-.46,1.55a4.76,4.76,0,0,1-.9,1.55,4.7,4.7,0,0,1-.34.36,4.09,4.09,0,0,1-.41.35,5.37,5.37,0,0,1-1.06.65A10.82,10.82,0,0,1,60.93,12.21Z"/><path class="cls-2" d="M59.57,9.94a3.77,3.77,0,0,0,3.23-.63,4.87,4.87,0,0,0,1.06-1s0,0,0,0h0l0,0a5,5,0,0,0,.92-1.9,4.53,4.53,0,0,0,.07-1.77c-.07-.49-.17-1-.3-1.52-.14.56-.26,1-.34,1.51A14.48,14.48,0,0,1,64,6.12a4.3,4.3,0,0,1-.78,1.59l0,0h0l0,0a4.24,4.24,0,0,1-.88.85A8.53,8.53,0,0,1,59.57,9.94Z"/><path class="cls-2" d="M57.84,8.46a1.5,1.5,0,0,0,1.32-.06,4.9,4.9,0,0,0,1.52-1.27,4.69,4.69,0,0,0,.75-1.36,4.74,4.74,0,0,0,.29-1.52,4.58,4.58,0,0,0-.12-1.19c-.07-.32-.14-.58-.17-.72a1.94,1.94,0,0,0-.7-1.06,2,2,0,0,0-.14,1.26l.16.71a3.83,3.83,0,0,1,.1,1,3.8,3.8,0,0,1-.23,1.25A4,4,0,0,1,60,6.59a4.37,4.37,0,0,1-1.24,1.06A3,3,0,0,0,57.84,8.46Z"/><path class="cls-2" d="M55.7,6.92a1.31,1.31,0,0,0,1.15-.36,4.26,4.26,0,0,0,1-1.51,4.25,4.25,0,0,0,.29-1.37,4.3,4.3,0,0,0-.57-2.4L57.22.71A1.66,1.66,0,0,0,56.3,0a1.68,1.68,0,0,0,.17,1.15l.33.56a3.92,3.92,0,0,1,.33.81,3.21,3.21,0,0,1,.13,1.12A3.36,3.36,0,0,1,57,4.74,4,4,0,0,1,56.24,6,2.41,2.41,0,0,0,55.7,6.92Z"/><circle class="cls-4" cx="54.12" cy="14.3" r="8.43"/><circle class="cls-4" cx="55.97" cy="12.15" r="2.36"/><path class="cls-3" d="M62.52,11.72C57.66,7,49.14,6.82,45.65,13.23c0,0,.22-6.38,7.68-7.06C60.06,5.56,62.52,11.72,62.52,11.72Z"/><path class="cls-2" d="M62.52,11.72a6.28,6.28,0,0,0-2.36-2.26,9.52,9.52,0,0,0-1.25-.61A12.48,12.48,0,0,0,55.77,8a11,11,0,0,0-1.47-.11h-.61a4.65,4.65,0,0,0-.52,0,8.34,8.34,0,0,0-1.27.19A9.94,9.94,0,0,0,49,9.19c-.46.27-.8.54-1.09.72s-.44.4-.57.51a5.51,5.51,0,0,0-1.67,2.81c.82-.8,1.31-1.33,2.25-2.17.12-.1.28-.27.52-.46s.57-.41,1-.66a9.19,9.19,0,0,1,2.67-1,6.75,6.75,0,0,1,1.16-.17,4,4,0,0,1,.48,0h.57a9.23,9.23,0,0,1,1.36.1,11.94,11.94,0,0,1,2.92.81,7.77,7.77,0,0,1,1.17.57C60.87,10.83,61.5,11.19,62.52,11.72Z"/><circle class="cls-6" cx="54.12" cy="14.3" r="8.43"/><ellipse class="cls-5" cx="52.91" cy="14.3" rx="4.69" ry="4.76" transform="translate(26.87 62.53) rotate(-76.77)"/><circle class="cls-4" cx="51.05" cy="12.15" r="2.36"/></symbol></defs><g id="FUZZBALLS_1"><use width="44.28" height="75.06" transform="translate(61.84 58.25) scale(0.97)" xlink:href="#Fuzzballs_horn_1"/><use width="44.28" height="75.06" transform="matrix(-0.97, 0, 0, 0.97, 244.55, 58.25)" xlink:href="#Fuzzballs_horn_1"/><use width="171.73" height="170.98" transform="translate(66.12 65.62)" xlink:href="#Fuzzballs_body_1_2"/><path class="cls-7" d="M127.16,203.1a21.5,21.5,0,0,0-7.15-2.7c-2.54-.3-5.38.5-6.83,2.62a10.2,10.2,0,0,0-1.37,4.52c-.77,5.9-1.59,9.79-1.59,9.79-6.47,8-21.09,21.13-21.09,21.13-1.9,3-6.81,2.65-10.22,3.5a13.25,13.25,0,0,0-9.73,11.28,2.65,2.65,0,0,0,.55,2.5c.89,1.21,2.49,1.63,4,1.95,2.24.48,4.49.93,6.74,1.32,11.45,2,23.28,3.42,34.85,2.26l30.39-3a1.85,1.85,0,0,0,1.65-2L143.49,217c-.31-3.12-.65-6.37-2.28-9.05a12.16,12.16,0,0,0-6.46-5,9.06,9.06,0,0,0-6.58,0,5.34,5.34,0,0,0-3.26,5.36"/><path class="cls-3" d="M144.15,223.26c-1.25.54-6.36,27.19-6.36,27.19a271.43,271.43,0,0,1-27.91,2.18,238.55,238.55,0,0,1-26.21-1.78l-13-2.49a13.43,13.43,0,0,0-1.53,4.8,3.47,3.47,0,0,0,.15,1.89c.68,1.61,2.32,2.17,3.91,2.54,2.08.48,4.18.88,6.29,1.26,11.73,2.11,23.88,3.61,35.75,2.42l30.39-3a1.85,1.85,0,0,0,1.65-2C146.05,243.12,145.43,236.34,144.15,223.26Z"/><path class="cls-3" d="M131.89,207.47c-1.08-.42-5.95-1.82-6.14-1.54a8.87,8.87,0,0,0-1.31,3.55,6.9,6.9,0,0,0,.26,4,10.75,10.75,0,0,0,5.17,4.92c.61.29,1.67-.58,1.78-1.42a45.32,45.32,0,0,1,1.94-7.92,1.23,1.23,0,0,0-.2-1Q132.64,207.77,131.89,207.47Z"/><path class="cls-3" d="M110.65,245.46c-3.8-3.56-9.72-5.6-15.9-6.88-1.5-.31-4.35-1-5.35.12-2.28,2.64-12.34,3.42-12.4,4-.33.88,2.11,1.05,2.2,1,10.29.9,20.41,1.9,29.55,2.14C110,245.85,111.47,246.23,110.65,245.46Z"/><path class="cls-2" d="M70.3,248.38a13.46,13.46,0,0,0,3.55,1.17l.9.17.63.12,1.74.32,1.95.29c5.33.87,11.67,1.53,17.75,2s11.9.45,16.19.37c2.15,0,3.91-.12,5.14-.16l1.92-.1s2.76-.12,7-.5c2.14-.21,4.65-.47,7.38-.87l2.09-.32,1.07-.18.8-.16c.25,0,.17-.24.23-.4l.06-.44c.2-1.44.46-2.91.74-4.4.57-3,1.24-6,1.89-9s1.25-5.77,1.81-8.38c.2-1,.37-1.82.45-2.23a12.75,12.75,0,0,0,.21-3.74,14.43,14.43,0,0,0-1.19,3.54c-.09.41-.25,1.23-.46,2.22-.56,2.61-1.17,5.45-1.81,8.38s-1.32,6-1.89,9c-.28,1.5-.55,3-.75,4.45,0,.13,0,.1,0,.1h0l-.27,0-1.05.18-2.06.32c-2.71.4-5.21.65-7.33.86-4.25.39-7,.51-7,.51l-1.91.1c-1.22,0-3,.11-5.11.15-4.27.08-10.06,0-16.11-.37s-12.35-1.09-17.65-2l-2-.29-1.73-.32-.62-.11-.9-.17A13.68,13.68,0,0,0,70.3,248.38Z"/><path class="cls-2" d="M76.76,243.31a12,12,0,0,0,3.58,1.1l.91.14,2.15.3c2.19.28,4.77.55,7.24.77,4.94.43,9.44.62,9.44.62s4.51.22,9.45.38l3.14.09h.44l-.35-.29-.72-.58-.71-.57L111,245l-.3-.23a35.32,35.32,0,0,0-2.94-2c-.89-.53-1.64-.93-2-1.12a9.81,9.81,0,0,0-3.6-1.09,21.71,21.71,0,0,0,3.14,2c.37.19,1.09.58,2,1.1a31.81,31.81,0,0,1,2.86,1.92l.07.06H110l-.46,0c-4.95-.16-9.44-.37-9.44-.37s-4.49-.2-9.4-.63c-2.46-.21-5-.48-7.2-.76l-3-.43A14.81,14.81,0,0,0,76.76,243.31Z"/><path class="cls-2" d="M127.16,203.1A10.55,10.55,0,0,0,124,201c-.2-.08-.5-.21-.87-.34l-.62-.22-.38-.12q-.41-.12-.81-.21a10.44,10.44,0,0,0-1.69-.26,9,9,0,0,0-3.49.41,6.75,6.75,0,0,0-3.07,2,7.88,7.88,0,0,0-1.51,3.41c-.25,1.21-.35,2.4-.53,3.59s-.35,2.4-.55,3.62-.42,2.44-.66,3.66l-.09.46c0,.11,0,.06,0,.07l-.1.12-.6.72c-.4.49-.82,1-1.24,1.44-3.37,3.8-7.1,7.49-10.92,11.17C95,232.39,93,234.23,91,236.05l-1.49,1.36-.77.7-.33.43a2.42,2.42,0,0,1-.31.33,7.12,7.12,0,0,1-3.38,1.58c-1.28.29-2.62.44-4,.64a15.14,15.14,0,0,0-4,1.08,13.86,13.86,0,0,0-6.18,5.47,13,13,0,0,0-1.6,3.82,14.58,14.58,0,0,0-.34,2,5.17,5.17,0,0,0,0,1.12,2.62,2.62,0,0,0,.47,1.1,4.32,4.32,0,0,0,1.59,1.5,7.92,7.92,0,0,0,2,.75c1.31.33,2.57.53,3.85.79,5.07,1.06,10.06,1.82,14.87,2.44a129.24,129.24,0,0,0,13.87,1,96.65,96.65,0,0,0,12.29-.63l24.7-2.48,2.49-.25.64-.06.35,0a1.89,1.89,0,0,0,.45-.09,2.34,2.34,0,0,0,1.51-1.34,2.4,2.4,0,0,0,.17-1.14c0-.32-.06-.64-.09-1-.07-.67-.14-1.39-.21-2.15-.6-6.06-1.44-14.72-2.46-25.12-.26-2.6-.52-5.31-.8-8.12a59,59,0,0,0-1.2-8.72,12.77,12.77,0,0,0-2-4.27,12.35,12.35,0,0,0-3.62-3.2,11.6,11.6,0,0,0-9.71-1.18,3.18,3.18,0,0,0-.64.32,3.29,3.29,0,0,0-.56.48,5.45,5.45,0,0,0-.77,1.12,13,13,0,0,0-.93,2.42c-.11.41-.22.82-.31,1.24l-.13.63,0,.32s0,0,0,0l0,.08,0,.16a11.6,11.6,0,0,0-.45,2.59,5.9,5.9,0,0,0,.5,2.7,7.05,7.05,0,0,0,1.66,2.18,19.76,19.76,0,0,0,4.4,2.86,23.83,23.83,0,0,1,4.33,2.64,8.62,8.62,0,0,1,1.68,1.79,4.71,4.71,0,0,1,.3.5h0a45.28,45.28,0,0,1-5-1.48l-.61-.22-.31-.11a2.2,2.2,0,0,0-.5-.17.84.84,0,0,0-.95.48,1,1,0,0,0,0,.58l.1.43a2.45,2.45,0,0,1,0,1.07.52.52,0,0,1-.17.3,2,2,0,0,1-.44.26c-1.22.56-2.82.21-4.29.49a4,4,0,0,0-1.94.85,3,3,0,0,0-.9,1.44,10.94,10.94,0,0,0-.27,1.39,7.26,7.26,0,0,1-.3,1.2,5,5,0,0,1-1.36,2,7.9,7.9,0,0,1-2.11,1.32,10.59,10.59,0,0,1-1.19.43l-.31.08c-.11,0-.41.09-.61.13-.43.1-1,.15-1.44.22l2.77,2.42c.64.59,1.29,1.16,1.9,1.77a40.32,40.32,0,0,1,3.45,3.74,21.35,21.35,0,0,1,1.48,2c.21.33.47.73.61,1l0,.05.12.23a2.91,2.91,0,0,1,.23.42,11.44,11.44,0,0,1,.55,1.28c.25.69.41,1.23.55,1.76a8.39,8.39,0,0,1,.27,1.71,4.65,4.65,0,0,0,.13-3.8,10.8,10.8,0,0,0-.6-1.4,4.08,4.08,0,0,0-.24-.46l-.13-.23,0-.06c-.06-.09-.19-.35-.3-.51l-.35-.54a22.24,22.24,0,0,0-1.53-2.08,42.48,42.48,0,0,0-3.54-3.82c-.62-.62-1.28-1.2-1.93-1.8-.32-.3-.66-.58-1-.87l-.13-.11-.06-.05h0s0,0,.05,0l.33-.09a10.8,10.8,0,0,0,1.31-.47,8.61,8.61,0,0,0,2.39-1.51,5.84,5.84,0,0,0,1.63-2.39,8,8,0,0,0,.35-1.4,10.29,10.29,0,0,1,.24-1.25,2.06,2.06,0,0,1,.59-1,3.08,3.08,0,0,1,1.46-.62c1.2-.27,2.84.15,4.53-.56a2.79,2.79,0,0,0,.68-.42,1.59,1.59,0,0,0,.49-.8,3.45,3.45,0,0,0,0-1.54l0-.17c0-.07,0,0,0,0h0l1,.37a45.13,45.13,0,0,0,5.08,1.52c.42.08.84.14,1.26.21a3.79,3.79,0,0,0,.61.08l-.24-.58c-.16-.39-.34-.77-.52-1.15a6.5,6.5,0,0,0-.38-.61,9.64,9.64,0,0,0-1.86-2,25.21,25.21,0,0,0-4.51-2.75,19.82,19.82,0,0,1-4.19-2.71,6.15,6.15,0,0,1-1.42-1.86,4.86,4.86,0,0,1-.41-2.24,10.71,10.71,0,0,1,.41-2.36l0-.15,0-.07s0-.11,0-.14l0-.3.12-.6c.08-.4.18-.79.29-1.18a11.5,11.5,0,0,1,.85-2.21,4.77,4.77,0,0,1,.62-.92,3.59,3.59,0,0,1,.38-.32,1.71,1.71,0,0,1,.45-.22,9.45,9.45,0,0,1,4.55-.41,11.5,11.5,0,0,1,4.28,1.52,11.35,11.35,0,0,1,3.33,2.94,11.92,11.92,0,0,1,1.85,3.93,58.53,58.53,0,0,1,1.17,8.55c.27,2.81.54,5.52.79,8.12,1,10.4,1.87,19.06,2.47,25.12.07.76.14,1.47.21,2.15,0,.34.06.66.09,1a1.29,1.29,0,0,1-.1.65,1.33,1.33,0,0,1-.86.77,1.17,1.17,0,0,1-.27.05l-.35,0-.64.06-2.49.25-24.7,2.48a93.55,93.55,0,0,1-12.18.62,125,125,0,0,1-13.76-1c-4.78-.62-9.76-1.37-14.8-2.43-1.25-.26-2.56-.46-3.78-.78a4.47,4.47,0,0,1-3-1.83,1.64,1.64,0,0,1-.31-.7,3.63,3.63,0,0,1,0-.86A13.07,13.07,0,0,1,70,251.7a12.2,12.2,0,0,1,1.48-3.54,12.94,12.94,0,0,1,5.72-5.06c2.36-1.09,5.11-1,7.82-1.67a8,8,0,0,0,3.86-1.84,3,3,0,0,0,.38-.41l.28-.37.72-.66,1.5-1.36q3-2.73,5.87-5.51c3.84-3.7,7.58-7.39,11-11.24.43-.47.85-.95,1.25-1.45l.62-.73.2-.25c.09-.11.09-.34.11-.38l.1-.46c.24-1.24.45-2.48.65-3.7s.39-2.44.56-3.64.29-2.41.52-3.52a6.8,6.8,0,0,1,1.3-3,5.68,5.68,0,0,1,2.6-1.7,8,8,0,0,1,3.1-.37,11.22,11.22,0,0,1,1.54.24l.75.2.36.11.58.2c.36.13.64.25.83.33A19.46,19.46,0,0,0,127.16,203.1Z"/><path class="cls-2" d="M93,235c1.31.2,2.15.36,3.63.55.24,0,.65.09,1.48.29a.58.58,0,0,0,.14,0l.07,0,.07,0a17.76,17.76,0,0,1,2.07.72c1.36.61,2.15.91,3.38,1.43a7.31,7.31,0,0,0-3-2.35,15.55,15.55,0,0,0-2.21-.77l-.08,0-.07,0-.14,0a15.8,15.8,0,0,0-1.59-.3A7.33,7.33,0,0,0,93,235Z"/><path class="cls-2" d="M96.69,231.12a2.65,2.65,0,0,0,1.46.57c.33,0,1.33.09,2.22.24a13.85,13.85,0,0,1,3.29.92,14.92,14.92,0,0,1,2,1,2.87,2.87,0,0,0,1.5.42,2.35,2.35,0,0,0-1-1.27,14.34,14.34,0,0,0-2.09-1.1,15.49,15.49,0,0,0-1.73-.6,14.48,14.48,0,0,0-1.79-.39c-.94-.15-2-.22-2.31-.24A2.51,2.51,0,0,0,96.69,231.12Z"/><path class="cls-2" d="M100.55,227.71a2.37,2.37,0,0,0,1.36.54,20.38,20.38,0,0,1,2,.25,14.39,14.39,0,0,1,1.56.36s.72.22,1.49.55,1.59.77,1.86.91a2.37,2.37,0,0,0,1.44.27,2.17,2.17,0,0,0-1-1.14,19.19,19.19,0,0,0-2-1,15.64,15.64,0,0,0-3.27-1,20.29,20.29,0,0,0-2.16-.25A2.23,2.23,0,0,0,100.55,227.71Z"/><path class="cls-2" d="M105.06,223.44a2.57,2.57,0,0,0,1.33.7c.31.07,1.23.24,2.06.5s1.55.54,1.55.54.72.3,1.48.71,1.56.92,1.82,1.09a2.52,2.52,0,0,0,1.45.4,2.21,2.21,0,0,0-.89-1.23A19.57,19.57,0,0,0,112,225c-.8-.43-1.57-.75-1.57-.75s-.77-.32-1.64-.58a18,18,0,0,0-2.17-.51A2.26,2.26,0,0,0,105.06,223.44Z"/><path class="cls-2" d="M108.15,219.54a2.41,2.41,0,0,0,1.35.36,11.19,11.19,0,0,1,1.93.09,8.28,8.28,0,0,1,1.44.35,8.82,8.82,0,0,1,1.35.62,14.08,14.08,0,0,1,1.63,1.08,2.29,2.29,0,0,0,1.33.46,2,2,0,0,0-.72-1.25,13.51,13.51,0,0,0-1.75-1.18,10.38,10.38,0,0,0-1.51-.68,9.55,9.55,0,0,0-1.62-.4,10.71,10.71,0,0,0-2.13-.09A2,2,0,0,0,108.15,219.54Z"/><path class="cls-2" d="M110.59,215.39c1.31.22,2.16.36,3.65.51.25,0,.67.06,1.51.22l.66.13.6.15a17.58,17.58,0,0,1,2.11.7c1.39.57,2.2.83,3.46,1.25a8,8,0,0,0-3.08-2.18,18.08,18.08,0,0,0-2.24-.75c-.22-.07-.63-.15-.63-.15s-.48-.12-.69-.15c-.9-.16-1.33-.19-1.6-.22A8.08,8.08,0,0,0,110.59,215.39Z"/><path class="cls-2" d="M111.53,211.37a23,23,0,0,0,3.7.17c.25,0,.67,0,1.54,0a22.33,22.33,0,0,1,2.39.23c.41.06.78.13,1,.19l.44.1,1.28.34c.7.22,1.55.52,2.14.77,1.07.45,1.71.78,2.05.94a18.72,18.72,0,0,0,3.46,1.36,10.69,10.69,0,0,0-3-2.26c-.34-.17-1-.51-2.11-1-.62-.26-1.5-.58-2.24-.81s-1.34-.35-1.34-.35l-.46-.1c-.28-.07-.68-.14-1.11-.21a22.31,22.31,0,0,0-2.5-.24c-.91,0-1.34,0-1.61,0A9.62,9.62,0,0,0,111.53,211.37Z"/><path class="cls-2" d="M112.18,207.55a25.6,25.6,0,0,0,3.69.15c.26,0,.67,0,1.53,0a19.73,19.73,0,0,1,2.35.26,9.41,9.41,0,0,1,1,.21l.44.09,1.24.36c.7.22,1.53.54,2.11.79,1.06.46,1.69.8,2,1a20.32,20.32,0,0,0,3.41,1.46,10.35,10.35,0,0,0-2.94-2.35c-.35-.17-1-.53-2.1-1-.61-.26-1.48-.59-2.2-.82s-1.31-.37-1.31-.37l-.45-.1a10.6,10.6,0,0,0-1.1-.22,18.34,18.34,0,0,0-2.46-.28c-.9,0-1.34,0-1.61,0A9.22,9.22,0,0,0,112.18,207.55Z"/><path class="cls-2" d="M125.37,205.41a17.76,17.76,0,0,0,3.4,1.49l1.48.51c.57.2,1.53.55,2.33.88s1.47.62,1.47.62l1.25.57c.69.33,1.53.74,2.12,1.05,1,.55,1.66.91,2,1.09a17.91,17.91,0,0,0,3.4,1.53,11.16,11.16,0,0,0-2.9-2.4c-.33-.19-1-.56-2-1.11-.6-.32-1.45-.74-2.16-1.08l-1.27-.57s-.67-.3-1.5-.63-1.79-.7-2.38-.91c-.84-.3-1.25-.42-1.5-.5A10.9,10.9,0,0,0,125.37,205.41Z"/><path class="cls-2" d="M133.53,208.65a2.29,2.29,0,0,0-.85,1.23c-.17.62-.89,3.7-.89,3.7l-.89,3.69a2.3,2.3,0,0,0,.13,1.48,2.31,2.31,0,0,0,.84-1.24c.18-.61.89-3.7.89-3.7s.75-3.06.89-3.68A2.36,2.36,0,0,0,133.53,208.65Z"/><path class="cls-7" d="M173.18,203.1a21.58,21.58,0,0,1,7.15-2.7c2.55-.3,5.39.5,6.83,2.62a10.35,10.35,0,0,1,1.38,4.52c.77,5.9,1.59,9.79,1.59,9.79,6.46,8,21.08,21.13,21.08,21.13,1.9,3,6.81,2.65,10.22,3.5a13.26,13.26,0,0,1,9.74,11.28,2.65,2.65,0,0,1-.56,2.5c-.89,1.21-2.49,1.63-4,1.95-2.24.48-4.49.93-6.75,1.32-11.45,2-23.28,3.42-34.85,2.26l-30.38-3a1.85,1.85,0,0,1-1.66-2L156.85,217c.31-3.12.66-6.37,2.29-9.05a12.1,12.1,0,0,1,6.45-5,9.06,9.06,0,0,1,6.58,0,5.36,5.36,0,0,1,3.27,5.36"/><path class="cls-3" d="M156.19,223.26c1.25.54,6.37,27.19,6.37,27.19a271,271,0,0,0,27.9,2.18,238.55,238.55,0,0,0,26.21-1.78l13-2.49a13.43,13.43,0,0,1,1.53,4.8,3.29,3.29,0,0,1-.15,1.89c-.67,1.61-2.31,2.17-3.91,2.54-2.08.48-4.18.88-6.28,1.26-11.73,2.11-23.88,3.61-35.76,2.42l-30.38-3a1.85,1.85,0,0,1-1.66-2C154.29,243.12,154.91,236.34,156.19,223.26Z"/><path class="cls-3" d="M168.46,207.47c1.08-.42,5.94-1.82,6.13-1.54a8.87,8.87,0,0,1,1.31,3.55,6.82,6.82,0,0,1-.26,4,10.75,10.75,0,0,1-5.17,4.92c-.61.29-1.66-.58-1.78-1.42a45.29,45.29,0,0,0-1.93-7.92,1.23,1.23,0,0,1,.19-1C167.45,207.86,168,207.67,168.46,207.47Z"/><path class="cls-3" d="M191.6,245.82c9.13-.24,19.25-1.24,29.55-2.14.08,0,2.52-.14,2.2-1-.07-.54-10.13-1.32-12.41-4-1-1.16-3.85-.43-5.34-.12-6.18,1.28-12.11,3.32-15.9,6.88C188.87,246.23,190.35,245.85,191.6,245.82Z"/><path class="cls-2" d="M230,248.38a13.68,13.68,0,0,0-3.73.18l-.89.17-.63.11-1.73.32-1.94.29c-5.31.87-11.61,1.52-17.66,2s-11.84.45-16.11.37c-2.13,0-3.89-.12-5.11-.15l-1.91-.1s-2.75-.12-7-.51c-2.13-.21-4.63-.46-7.33-.86l-2.07-.32-1.05-.18-.26,0h0s0,0,0-.1c-.2-1.47-.46-3-.75-4.45-.57-3-1.24-6-1.89-9s-1.24-5.77-1.81-8.38c-.2-1-.37-1.81-.45-2.22a14,14,0,0,0-1.2-3.54,13.47,13.47,0,0,0,.21,3.74c.08.41.25,1.23.45,2.23.57,2.61,1.18,5.45,1.81,8.38s1.32,6,1.89,9c.28,1.49.55,3,.74,4.4l.07.44c.05.16,0,.44.22.4l.81.16,1.07.18,2.08.32c2.73.4,5.25.66,7.38.87,4.28.38,7.05.5,7.05.5l1.92.1c1.22,0,3,.12,5.13.16,4.3.08,10.11,0,16.2-.37s12.41-1.1,17.74-2l2-.29,1.74-.32.63-.12.89-.17A13.46,13.46,0,0,0,230,248.38Z"/><path class="cls-2" d="M223.58,243.31a14.82,14.82,0,0,0-3.73.11l-3,.43c-2.17.28-4.73.55-7.19.76-4.92.43-9.41.63-9.41.63s-4.49.21-9.43.37l-.47,0h-.1l.07-.06a33.29,33.29,0,0,1,2.86-1.92c.86-.52,1.59-.91,2-1.1a21.17,21.17,0,0,0,3.14-2,9.87,9.87,0,0,0-3.6,1.09c-.38.19-1.13.59-2,1.12a35.41,35.41,0,0,0-3,2l-.3.23-.35.28-.72.57-.71.58-.36.29h.45l3.13-.09c4.95-.16,9.45-.38,9.45-.38s4.5-.19,9.45-.62c2.47-.22,5-.49,7.23-.77l2.16-.3.9-.14A12,12,0,0,0,223.58,243.31Z"/><path class="cls-2" d="M173.18,203.1a19.3,19.3,0,0,0,3.53-1.15c.19-.08.47-.2.82-.33l.59-.2.36-.11.75-.2a11.32,11.32,0,0,1,1.53-.24,8,8,0,0,1,3.1.37,5.63,5.63,0,0,1,2.6,1.7,6.58,6.58,0,0,1,1.3,3c.24,1.11.34,2.32.53,3.52s.35,2.42.55,3.64.42,2.46.66,3.7l.09.46s0,.27.11.38l.21.25.61.73c.41.5.83,1,1.25,1.45,3.41,3.85,7.15,7.54,11,11.24q2.88,2.78,5.87,5.51l1.49,1.36.72.66.29.37a2.46,2.46,0,0,0,.38.41,7.91,7.91,0,0,0,3.86,1.84c2.7.63,5.46.58,7.81,1.67a13,13,0,0,1,5.73,5.06,12.49,12.49,0,0,1,1.48,3.54,14.6,14.6,0,0,1,.3,1.89,4.35,4.35,0,0,1,0,.86,1.67,1.67,0,0,1-.32.7,4.45,4.45,0,0,1-3,1.83c-1.23.32-2.54.52-3.79.78-5,1.06-10,1.81-14.8,2.43a124.86,124.86,0,0,1-13.76,1,93.3,93.3,0,0,1-12.17-.62l-24.71-2.48-2.49-.25-.64-.06-.35,0a1.17,1.17,0,0,1-.27-.05,1.33,1.33,0,0,1-.86-.77,1.41,1.41,0,0,1-.1-.65c0-.32.06-.64.1-1,.06-.68.13-1.39.21-2.15.59-6.06,1.44-14.72,2.46-25.12.25-2.6.52-5.31.79-8.12a57.23,57.23,0,0,1,1.18-8.55,11.53,11.53,0,0,1,1.85-3.93,11.83,11.83,0,0,1,7.61-4.46,9.47,9.47,0,0,1,4.55.41,1.71,1.71,0,0,1,.45.22,2.73,2.73,0,0,1,.37.32,4.36,4.36,0,0,1,.62.92,11.5,11.5,0,0,1,.85,2.21c.11.39.21.78.3,1.18l.12.6.05.3a.39.39,0,0,0,0,.14l0,.07,0,.15a10.74,10.74,0,0,1,.42,2.36,5,5,0,0,1-.41,2.24,6,6,0,0,1-1.43,1.86,19.33,19.33,0,0,1-4.19,2.71,24.79,24.79,0,0,0-4.5,2.75,9.69,9.69,0,0,0-1.87,2,6.5,6.5,0,0,0-.38.61c-.18.38-.35.76-.51,1.15l-.24.58a3.69,3.69,0,0,0,.6-.08c.42-.07.84-.13,1.26-.21a45.3,45.3,0,0,0,5.09-1.52l1-.37h0s0,0,0,0l0,.17a3.45,3.45,0,0,0,0,1.54,1.59,1.59,0,0,0,.49.8,3,3,0,0,0,.68.42c1.69.71,3.33.29,4.53.56a3,3,0,0,1,1.46.62,2,2,0,0,1,.59,1,7.49,7.49,0,0,1,.24,1.25,8,8,0,0,0,.35,1.4,6,6,0,0,0,1.64,2.39,8.56,8.56,0,0,0,2.38,1.51,10.8,10.8,0,0,0,1.31.47l.34.09h0l-.06.05-.12.11c-.33.29-.68.57-1,.87-.65.6-1.31,1.18-1.93,1.8a42.48,42.48,0,0,0-3.54,3.82c-.54.67-1.06,1.36-1.53,2.08l-.35.54c-.1.16-.24.42-.29.51l0,.06-.13.23c-.08.16-.17.31-.24.46a12,12,0,0,0-.59,1.4,4.61,4.61,0,0,0,.13,3.8,7.21,7.21,0,0,1,.27-1.71,16.58,16.58,0,0,1,.54-1.76,12,12,0,0,1,.56-1.28,4.23,4.23,0,0,1,.22-.42l.13-.23,0-.05c.13-.27.4-.67.61-1a23.17,23.17,0,0,1,1.47-2,41.87,41.87,0,0,1,3.46-3.74c.61-.61,1.26-1.18,1.9-1.77l2.77-2.42c-.47-.07-1-.12-1.44-.22-.2,0-.51-.09-.62-.13l-.3-.08a9.34,9.34,0,0,1-1.19-.43,7.75,7.75,0,0,1-2.11-1.32,5,5,0,0,1-1.37-2,7.26,7.26,0,0,1-.3-1.2,8.29,8.29,0,0,0-.27-1.39,3,3,0,0,0-.89-1.44,4.07,4.07,0,0,0-2-.85c-1.46-.28-3.07.07-4.29-.49a2.84,2.84,0,0,1-.44-.26.66.66,0,0,1-.17-.3,2.45,2.45,0,0,1,0-1.07l.1-.43a.88.88,0,0,0,0-.58.83.83,0,0,0-.94-.48,2.31,2.31,0,0,0-.51.17l-.31.11-.61.22a45.78,45.78,0,0,1-5,1.48s0,0,0,0h0a4.91,4.91,0,0,1,.31-.5,8.56,8.56,0,0,1,1.67-1.79,24.18,24.18,0,0,1,4.33-2.64,20.05,20.05,0,0,0,4.41-2.86,7,7,0,0,0,1.65-2.18,5.77,5.77,0,0,0,.5-2.7,11.6,11.6,0,0,0-.45-2.59l0-.16,0-.08h0l-.06-.32-.13-.63c-.08-.42-.19-.83-.3-1.24a13,13,0,0,0-.94-2.42,5.45,5.45,0,0,0-.77-1.12,3.64,3.64,0,0,0-.55-.48,3.53,3.53,0,0,0-.65-.32,11.58,11.58,0,0,0-9.7,1.18,12.39,12.39,0,0,0-3.63,3.2,12.55,12.55,0,0,0-2,4.27,57.73,57.73,0,0,0-1.21,8.72c-.27,2.81-.54,5.52-.79,8.12-1,10.4-1.87,19.06-2.46,25.12-.08.76-.15,1.48-.21,2.15,0,.34-.07.66-.1,1a2.41,2.41,0,0,0,.18,1.14,2.33,2.33,0,0,0,1.5,1.34,2,2,0,0,0,.45.09l.35,0,.64.06,2.49.25,24.71,2.48a96.65,96.65,0,0,0,12.29.63,129.06,129.06,0,0,0,13.86-1c4.82-.62,9.81-1.38,14.88-2.44,1.27-.26,2.54-.46,3.85-.79a8.07,8.07,0,0,0,1.95-.75,4.4,4.4,0,0,0,1.59-1.5,2.91,2.91,0,0,0,.47-1.1,4.57,4.57,0,0,0,0-1.12,14.54,14.54,0,0,0-.33-2,13.52,13.52,0,0,0-1.6-3.82,14,14,0,0,0-6.18-5.47,15.24,15.24,0,0,0-4-1.08c-1.35-.21-2.69-.35-4-.64a7.16,7.16,0,0,1-3.38-1.58,2.35,2.35,0,0,1-.3-.33l-.33-.43-.78-.7L209.31,236c-2-1.81-3.93-3.65-5.85-5.49-3.83-3.68-7.56-7.37-10.93-11.17-.42-.48-.84-.95-1.23-1.44l-.61-.72-.09-.12s0,0,0-.07l-.09-.46c-.24-1.22-.45-2.45-.65-3.66s-.38-2.42-.55-3.62-.29-2.38-.54-3.59a7.76,7.76,0,0,0-1.51-3.41,6.78,6.78,0,0,0-3.06-2,9.09,9.09,0,0,0-3.49-.41,10.44,10.44,0,0,0-1.69.26c-.28.06-.54.13-.81.21l-.38.12-.62.22c-.38.13-.67.26-.87.34A10.6,10.6,0,0,0,173.18,203.1Z"/><path class="cls-2" d="M207.3,235a7.29,7.29,0,0,0-3.76-.44,14.8,14.8,0,0,0-1.59.3l-.14,0-.08,0-.07,0a16.29,16.29,0,0,0-2.22.77,7.44,7.44,0,0,0-3,2.35c1.23-.52,2-.82,3.38-1.43a18.1,18.1,0,0,1,2.08-.72l.07,0,.07,0a.53.53,0,0,0,.13,0,15.16,15.16,0,0,1,1.49-.29C205.16,235.32,206,235.16,207.3,235Z"/><path class="cls-2" d="M203.65,231.12a2.48,2.48,0,0,0-1.52-.43c-.34,0-1.37.09-2.32.24a14.58,14.58,0,0,0-1.78.39,16,16,0,0,0-1.74.6,15.53,15.53,0,0,0-2.09,1.1,2.38,2.38,0,0,0-1,1.27,2.9,2.9,0,0,0,1.5-.42,15.32,15.32,0,0,1,1.94-1,13.85,13.85,0,0,1,3.29-.92c.89-.15,1.89-.21,2.22-.24A2.65,2.65,0,0,0,203.65,231.12Z"/><path class="cls-2" d="M199.79,227.71a2.2,2.2,0,0,0-1.42-.46,20.41,20.41,0,0,0-2.17.25,16.26,16.26,0,0,0-1.66.4,16.48,16.48,0,0,0-1.6.58,18.15,18.15,0,0,0-1.95,1,2.24,2.24,0,0,0-1,1.14,2.4,2.4,0,0,0,1.45-.27c.27-.14,1.08-.59,1.85-.91s1.5-.55,1.5-.55a14.56,14.56,0,0,1,1.55-.36,20.38,20.38,0,0,1,2.05-.25A2.35,2.35,0,0,0,199.79,227.71Z"/><path class="cls-2" d="M195.28,223.44a2.24,2.24,0,0,0-1.5-.28,17.61,17.61,0,0,0-2.17.51c-.88.26-1.65.58-1.65.58s-.77.32-1.57.75a20.91,20.91,0,0,0-1.91,1.15,2.26,2.26,0,0,0-.89,1.23A2.52,2.52,0,0,0,187,227c.27-.17,1.06-.69,1.82-1.09s1.49-.71,1.49-.71a16.35,16.35,0,0,1,1.55-.54c.82-.26,1.75-.43,2.06-.5A2.51,2.51,0,0,0,195.28,223.44Z"/><path class="cls-2" d="M192.19,219.54a1.91,1.91,0,0,0-1.3-.64,10.6,10.6,0,0,0-2.12.09,9.55,9.55,0,0,0-1.62.4,10.75,10.75,0,0,0-1.52.68,13.51,13.51,0,0,0-1.75,1.18,2,2,0,0,0-.71,1.25,2.34,2.34,0,0,0,1.33-.46,13.74,13.74,0,0,1,1.62-1.08,9.16,9.16,0,0,1,1.36-.62,8,8,0,0,1,1.44-.35,11.08,11.08,0,0,1,1.92-.09A2.41,2.41,0,0,0,192.19,219.54Z"/><path class="cls-2" d="M189.75,215.39a8.06,8.06,0,0,0-3.75-.49c-.26,0-.7.06-1.59.22-.21,0-.7.15-.7.15s-.41.08-.63.15a17.72,17.72,0,0,0-2.23.75,8,8,0,0,0-3.09,2.18c1.26-.42,2.08-.68,3.46-1.25a18,18,0,0,1,2.12-.7l.59-.15.66-.13c.85-.16,1.26-.19,1.51-.22C187.6,215.75,188.44,215.61,189.75,215.39Z"/><path class="cls-2" d="M188.82,211.37a9.71,9.71,0,0,0-3.68-.83c-.27,0-.7,0-1.6,0a22.25,22.25,0,0,0-2.51.24c-.43.07-.82.14-1.11.21l-.46.1s-.59.14-1.33.35-1.63.55-2.24.81c-1.11.46-1.77.8-2.12,1a11,11,0,0,0-3,2.26,18.45,18.45,0,0,0,3.46-1.36c.34-.16,1-.49,2.05-.94.6-.25,1.44-.55,2.15-.77l1.27-.34.44-.1c.27-.06.65-.13,1.06-.19a22.1,22.1,0,0,1,2.39-.23c.86,0,1.28,0,1.54,0A23.1,23.1,0,0,0,188.82,211.37Z"/><path class="cls-2" d="M188.17,207.55a9.27,9.27,0,0,0-3.68-.86c-.27,0-.7,0-1.61,0a18.34,18.34,0,0,0-2.46.28,10.35,10.35,0,0,0-1.09.22l-.45.1s-.58.15-1.31.37-1.6.56-2.2.82c-1.1.48-1.76.84-2.1,1a10.08,10.08,0,0,0-2.94,2.35,20.32,20.32,0,0,0,3.41-1.46c.33-.17,1-.51,2-1,.58-.25,1.41-.57,2.1-.79l1.25-.36.43-.09a9.92,9.92,0,0,1,1-.21,20,20,0,0,1,2.35-.26c.86-.06,1.28,0,1.53,0A25.8,25.8,0,0,0,188.17,207.55Z"/><path class="cls-2" d="M175,205.41a11,11,0,0,0-3.72.54c-.25.08-.66.2-1.5.5-.58.21-1.56.57-2.38.91s-1.49.63-1.49.63l-1.27.57c-.71.34-1.57.76-2.17,1.08-1,.55-1.69.92-2,1.11a11.1,11.1,0,0,0-2.89,2.4,17.56,17.56,0,0,0,3.39-1.53c.33-.18,1-.54,2-1.09.59-.31,1.43-.72,2.13-1.05l1.24-.57s.66-.3,1.47-.62,1.77-.68,2.34-.88l1.47-.51A17.86,17.86,0,0,0,175,205.41Z"/><path class="cls-2" d="M166.82,208.65a2.37,2.37,0,0,0-.13,1.48l.89,3.68s.72,3.09.89,3.7a2.33,2.33,0,0,0,.85,1.24,2.44,2.44,0,0,0,.13-1.48l-.89-3.69s-.72-3.08-.9-3.7A2.27,2.27,0,0,0,166.82,208.65Z"/><use width="69.73" height="38.16" transform="translate(108.92 140.68) scale(1.2)" xlink:href="#Fuzzballs_face_3"/></g></svg>