<?xml version="1.0" encoding="UTF-8"?><svg id="Layer_2" xmlns="http://www.w3.org/2000/svg" xmlns:xlink="http://www.w3.org/1999/xlink" viewBox="0 0 1919.2 1919.2"><defs><style>.cls-1{fill:url(#radial-gradient-7);}.cls-2{fill:url(#radial-gradient-10);}.cls-3{stroke-width:1.82px;}.cls-3,.cls-4,.cls-5,.cls-6,.cls-7,.cls-8,.cls-9{fill:#fff;}.cls-3,.cls-10,.cls-11,.cls-12,.cls-13,.cls-14,.cls-6,.cls-15,.cls-16,.cls-17,.cls-18,.cls-19,.cls-7,.cls-8,.cls-20,.cls-9,.cls-21{stroke-miterlimit:10;}.cls-3,.cls-12,.cls-6,.cls-16,.cls-7,.cls-8,.cls-21{stroke-linecap:round;}.cls-3,.cls-12,.cls-6,.cls-9{stroke:#231f20;}.cls-22{fill:#6dceef;}.cls-10,.cls-12,.cls-13,.cls-16,.cls-17,.cls-19,.cls-21{fill:none;}.cls-10,.cls-17,.cls-18{stroke:#76b2e1;}.cls-11{fill:url(#radial-gradient-2);stroke-width:3.6px;}.cls-11,.cls-14,.cls-15,.cls-16,.cls-7,.cls-8,.cls-20,.cls-21{stroke:#010101;}.cls-12{stroke-width:1.6px;}.cls-13{stroke-width:2.5px;}.cls-13,.cls-19{stroke:#fff;}.cls-23{fill:url(#radial-gradient-16);}.cls-24{fill:url(#radial-gradient-8);}.cls-25{fill:url(#New_Gradient_Swatch_1-3);}.cls-5{font-family: Fredoka, 'sans-serif';font-size:29.57px;letter-spacing:.5em;}.cls-14{fill:url(#radial-gradient-5);}.cls-14,.cls-15,.cls-20{stroke-width:3.36px;}.cls-26{fill:url(#radial-gradient-6);}.cls-27{fill:url(#radial-gradient-12);}.cls-6{stroke-width:2.26px;}.cls-15{fill:url(#radial-gradient-4);}.cls-28{fill:url(#radial-gradient-13);}.cls-16{stroke-width:.6px;}.cls-29{fill:url(#radial-gradient-15);}.cls-30{clip-path:url(#clippath);}.cls-17,.cls-18{stroke-width:3px;}.cls-31{fill:url(#radial-gradient-3);}.cls-18{fill:#33539b;}.cls-32{fill:url(#New_Gradient_Swatch_1);}.cls-19{stroke-width:3.59px;}.cls-33{fill:url(#New_Gradient_Swatch_1-2);}.cls-7,.cls-21{stroke-width:3.06px;}.cls-8{stroke-width:2.91px;}.cls-20{fill:url(#radial-gradient);}.cls-34{fill:url(#radial-gradient-17);}.cls-9{stroke-width:3.68px;}.cls-35{fill:url(#radial-gradient-14);}.cls-36{fill:#231f20;}.cls-37{fill:url(#radial-gradient-11);}.cls-38{fill:url(#radial-gradient-9);}.cls-39{fill:#010101;}</style><radialGradient id="radial-gradient" cx="252.51" cy="508.54" fx="176.84" fy="600.05" r="201.54" gradientTransform="matrix(1, 0, 0, 1, 0, 0)" gradientUnits="userSpaceOnUse"><stop offset=".36" stop-color="#c9eaf6"/><stop offset=".79" stop-color="#bd5ba3"/></radialGradient><radialGradient id="radial-gradient-2" cx="1236.61" cy="868.27" fx="1337.51" fy="919.08" r="191.56" gradientTransform="translate(-649.97 -447.48) scale(1.07)" gradientUnits="userSpaceOnUse"><stop offset=".41" stop-color="#c9eaf6"/><stop offset=".88" stop-color="#bd5ba3"/></radialGradient><radialGradient id="radial-gradient-3" cx="574.86" cy="856.39" fx="558.82" fy="971.45" r="260.02" gradientTransform="translate(0 29.73)" gradientUnits="userSpaceOnUse"><stop offset=".28" stop-color="#a3ddf2"/><stop offset=".44" stop-color="#a3d9f0"/><stop offset=".56" stop-color="#a5d0ea"/><stop offset=".66" stop-color="#a8c0e0"/><stop offset=".76" stop-color="#ada9d2"/><stop offset=".86" stop-color="#b38bc0"/><stop offset=".94" stop-color="#ba67aa"/><stop offset=".97" stop-color="#bd5ba3"/></radialGradient><radialGradient id="radial-gradient-4" cx="406.62" cy="694.33" fx="349.29" fy="809.68" r="188.12" gradientTransform="matrix(1, 0, 0, 1, 0, 0)" gradientUnits="userSpaceOnUse"><stop offset=".27" stop-color="#c9eaf6"/><stop offset=".65" stop-color="#bd5ba3"/></radialGradient><radialGradient id="radial-gradient-5" cx="650.23" cy="648" fx="714.66" fy="722.81" r="137.34" gradientTransform="matrix(1, 0, 0, 1, 0, 0)" xlink:href="#radial-gradient-2"/><radialGradient id="radial-gradient-6" cx="276.98" cy="100.46" fx="276.98" fy="59.42" r="97.6" gradientTransform="matrix(1, 0, 0, 1, 0, 0)" gradientUnits="userSpaceOnUse"><stop offset=".54" stop-color="#c9eaf6"/><stop offset=".96" stop-color="#bd5ba3"/></radialGradient><radialGradient id="radial-gradient-7" cx="170.45" cy="158.42" fx="139.39" fy="74.84" r="118.63" gradientTransform="matrix(1, 0, 0, 1, 0, 0)" gradientUnits="userSpaceOnUse"><stop offset=".62" stop-color="#c9eaf6"/><stop offset=".88" stop-color="#bd5ba3"/></radialGradient><radialGradient id="radial-gradient-8" cx="123.02" cy="308.57" fx="37.17" fy="315.76" r="99.39" gradientTransform="matrix(1, 0, 0, 1, 0, 0)" gradientUnits="userSpaceOnUse"><stop offset=".51" stop-color="#c9eaf6"/><stop offset=".88" stop-color="#bd5ba3"/></radialGradient><radialGradient id="radial-gradient-9" cx="616.26" cy="120.16" fx="639.16" fy="54.51" r="99.75" gradientTransform="matrix(1, 0, 0, 1, 0, 0)" gradientUnits="userSpaceOnUse"><stop offset=".53" stop-color="#c9eaf6"/><stop offset="1" stop-color="#bd5ba3"/></radialGradient><radialGradient id="radial-gradient-10" cx="725.91" cy="201.19" fx="785.49" fy="146.46" r="134.33" gradientTransform="matrix(1, 0, 0, 1, 0, 0)" gradientUnits="userSpaceOnUse"><stop offset=".51" stop-color="#c9eaf6"/><stop offset="1" stop-color="#bd5ba3"/></radialGradient><radialGradient id="radial-gradient-11" cx="758.14" cy="316.83" fx="839.61" fy="402.31" r="118.09" gradientTransform="matrix(1, 0, 0, 1, 0, 0)" gradientUnits="userSpaceOnUse"><stop offset=".55" stop-color="#c9eaf6"/><stop offset=".88" stop-color="#bd5ba3"/></radialGradient><radialGradient id="radial-gradient-12" cx="433.44" cy="487.43" fx="312.96" fy="523.27" r="249.13" gradientTransform="translate(324.64 1069.24) rotate(-122.33) scale(1 .83)" gradientUnits="userSpaceOnUse"><stop offset=".37" stop-color="#c9eaf6"/><stop offset=".6" stop-color="#97d9ea"/><stop offset=".92" stop-color="#bd5ba3"/></radialGradient><radialGradient id="radial-gradient-13" cx="419.62" cy="294.31" fx="513.53" fy="332.11" r="280.65" gradientTransform="translate(2.22 106.95) rotate(.69) scale(1 .62)" gradientUnits="userSpaceOnUse"><stop offset=".18" stop-color="#c9eaf6"/><stop offset=".3" stop-color="#c4e8f5"/><stop offset=".42" stop-color="#b8e4f2"/><stop offset=".55" stop-color="#a4dded"/><stop offset=".61" stop-color="#97d9ea"/><stop offset=".67" stop-color="#9bd5e8"/><stop offset=".73" stop-color="#a7cbe2"/><stop offset=".79" stop-color="#bbbbd8"/><stop offset=".85" stop-color="#d7a5cb"/><stop offset=".86" stop-color="#dca1c9"/><stop offset="1" stop-color="#bd5ba3"/></radialGradient><radialGradient id="radial-gradient-14" cx="-25079.76" cy="-19510.22" fx="-25088.3" fy="-19518.42" r="60.44" gradientTransform="translate(5036.14 5150.32) rotate(7.28) scale(.2)" gradientUnits="userSpaceOnUse"><stop offset=".28" stop-color="#fff"/><stop offset=".41" stop-color="#fafafa"/><stop offset=".54" stop-color="#eee"/><stop offset=".67" stop-color="#dadada"/><stop offset=".8" stop-color="#bebebe"/><stop offset=".93" stop-color="#9a9999"/><stop offset=".95" stop-color="#959494"/></radialGradient><radialGradient id="radial-gradient-15" cx="-24802.27" cy="-19655.24" fx="-24810.81" fy="-19663.44" r="60.44" xlink:href="#radial-gradient-14"/><radialGradient id="radial-gradient-16" cx="-24583.46" cy="-19823.66" fx="-24592" fy="-19831.85" r="60.44" xlink:href="#radial-gradient-14"/><radialGradient id="New_Gradient_Swatch_1" cx="-343.13" cy="1209.63" fx="-343.13" fy="1209.63" r="12.32" gradientTransform="translate(951.04 -565.33) rotate(7.28)" gradientUnits="userSpaceOnUse"><stop offset=".07" stop-color="#919191"/><stop offset=".21" stop-color="#828283"/><stop offset=".49" stop-color="#5c5c5e"/><stop offset=".87" stop-color="#1e1e23"/><stop offset="1" stop-color="#08080e"/></radialGradient><radialGradient id="New_Gradient_Swatch_1-2" cx="-284.94" cy="1187.24" fx="-284.94" fy="1187.24" r="12.32" xlink:href="#New_Gradient_Swatch_1"/><radialGradient id="New_Gradient_Swatch_1-3" cx="-233.15" cy="1153.69" fx="-233.15" fy="1153.69" r="12.32" xlink:href="#New_Gradient_Swatch_1"/><symbol id="Character_Deafault_1_2" viewBox="0 0 893.57 903.07"><g><path class="cls-20" d="M305.37,433.89c-50.42,24.57-94.27,71.08-115.89,123.83-23.36,6.92-64.59,33.29-51.09,38.36,9.06-2.69,18.5-4.51,27.63-7.05-6.86,8.92-11.73,19.45-14.08,30.55-.98,4.63-.27,11.18,4.32,11.75,2.59,.32,4.85-1.66,6.74-3.51,8.01-7.85,16.01-15.71,24.02-23.56,3.39-3.32,6.97-6.56,11.28-8.45,13.69-6.01,12.16,29.32,27.41,21.17,3.62-1.94,3.19-7.32,2.28-11.4-3.15-14.02-6.71-26.89-9.86-40.92l-1.08,.46,.06-.62c22.46-34.09,57.62-59.19,96.65-68.91l45.92-34.06-54.3-27.65Z"/><path class="cls-11" d="M806.68,539.18c-1.75-2.87-4.8-4.6-7.76-6.13-20.3-10.53-42.38-17.47-64.97-20.43l-.85-.41,.91-.9c-14.21-31.59-41.15-52.82-71.46-68.7-30.31-15.88-65.69-24.42-100.35-23.92l-32.18,41.71,53.53,12.07c47.09-4.21,97.48,24.36,127.03,61.98l.17-.16,.93,2.3c-1.94,9.81-3.87,19.63-5.81,29.44-.56,2.86-1.07,6.04,.46,8.5,3.02,4.83,10.8,2.31,14.11-2.32,3.31-4.63,4.65-10.71,8.82-14.57,3.99-3.7,9.38-4.32,14.73-3.15l-.13,.38c-2.1,3.85-2.63,6.95-1.54,11.22,1.09,4.27,4.62,8.01,8.92,8.49,4.3,.48,8.94-2.07,9.05-6.48l-3.18-4.75c6.92,5.59,14.18,10.92,22.52,13.74,3.94,1.33,9.36,.99,10.88-2.94,.98-2.53-.17-5.34-1.35-7.78-3.59-7.42-7.65-14.6-12.15-21.48,7.03,1.33,14.05,2.66,21.08,4,2.54,.48,5.38,.9,7.5-.59,2.73-1.91,2.83-6.24,1.07-9.11Z"/><path class="cls-31" d="M612.97,553.53c35.68,68.88,51.68,163.23,16.78,233.4-34.9,70.17-111.39,116.34-188.23,113.63-3.8-.13-8.33-.86-9.93-4.39-2.52-5.58,4.52-10.33,9.98-12.87,30-13.95,48.58-47.45,50.93-81.11,2.36-33.66-4.42-65.65-22.26-94.02-17.84-28.37-43.92-59.11-67.24-82.94l113.46,24.07c27.51,.95,45.53-24.66,96.51-95.77h0Z"/><path class="cls-39" d="M610.91,554.74c12.2,23.61,21.46,48.74,27.64,74.59,6.28,26.28,9.35,53.44,7.95,80.47s-7.01,52.02-18.57,75.44-26.4,42.4-44.8,59.17-39.42,30.06-62.27,39.31c-22.73,9.2-47.1,14.39-71.66,14.55-3.02,.02-6.07,.05-9.07-.19-2.22-.18-5.4-.66-6.4-2.99s1.13-4.57,2.79-5.97c2.27-1.91,5-3.13,7.64-4.43,10.95-5.37,20.5-13.46,28.06-22.99s13.63-20.99,17.5-32.87c4.1-12.57,5.58-25.65,5.63-38.83,.1-28.63-7.09-57.02-22.08-81.51-7.59-12.41-16.25-24.19-25.22-35.64s-19-23.22-29.12-34.29c-4.66-5.1-9.41-10.11-14.24-15.05-2.16-2.21-5.54,1.18-3.38,3.38,20.9,21.37,40.58,44.18,57.72,68.69,8.37,11.97,16.09,24.34,21.4,38s8.38,27.47,9.56,41.75,.96,27.9-1.96,41.39c-2.66,12.34-7.45,24.2-14.34,34.79s-15.58,19.45-26.18,25.87c-5.11,3.1-11.17,5.01-15.45,9.32-1.98,2-3.56,4.63-3.37,7.54s2.09,5.65,4.78,7,5.65,1.6,8.56,1.7c3.07,.1,6.14,.12,9.22,.07,6.3-.11,12.6-.55,18.86-1.29,12.41-1.48,24.66-4.1,36.58-7.85,23.97-7.54,46.49-19.45,66.36-34.8,19.97-15.43,37.23-34.38,50.43-55.91s22.33-47.43,25.91-73.49c3.72-27.11,2.51-54.7-2.12-81.62s-12.82-53.42-23.94-78.48c-2.59-5.84-5.36-11.59-8.29-17.26-1.42-2.74-5.55-.32-4.13,2.42h0Z"/><path class="cls-22" d="M653.33,233.77c-3.88,6.47-11.79,7.86-13.6,15.22-1.8,7.37-1.17,15.76,3.45,21.7,4.69,6.05,12.58,8.52,20.1,9.1,13.06,1,26.42-2.87,37.02-10.74,4.72-3.5,8.95-7.79,14.2-10.37,12.23-6.02,38.41-11.92,38.41-11.92l-13.71-8.39,33.05-37.37-17.99,6.94,26.3-44.13-17.05,9.5,20.96-55.12-22.39,15.8,9.11-49.69-16.84,17.82s-6.94-33.6-9.54-54.5l-7.23,37.3-6.87-14.05,1.19,58.75-10.12-25.12-4.48,77.55-7.3-23.57-10.18,43.95s-6.85-9.89-6.72-12.62c-2.2,8.33-13.24,28.33-15.79,28.18-2.26-.14-8.29-11.79-8.29-11.79l-15.71,27.6Z"/><path class="cls-15" d="M482.17,662.96l-7.75-48.89-53.55,25.87c-17.38,30.37-37.59,63.65-47.49,102.54l-3.68,10.48,.11-1.15c-12.16,15.34-24.43,26.15-39.53,36.77-2.26,1.59-4.63,3.19-5.66,5.94-.5,1.33-.52,2.85,.13,4.11,1.45,2.82,4.94,2.75,7.78,2.23,4.82-.88,15.63-6.06,24.13-10.55-3.46,9.26-6.06,13.92-10.3,27.28-.58,1.83-1.16,3.83-.49,5.63,.86,2.31,3.59,3.42,5.98,3.13,2.4-.28,4.53-1.64,6.54-3.01,9.91-6.76,16.83-16.6,24.85-25.61l.54-1.65c3.64,3.93,8.25,8.16,12.44,11.79,5.54,4.81,14.42,.73,14-6.59-.02-.38-.07-.71-.15-.95-4.59-14.09-9.19-28.18-13.78-42.27l2.03-6.18c21.6-35.1,50.32-65.6,83.82-88.92Z"/><path class="cls-14" d="M747.76,719.21c-11.19-11.74-23.97-21.96-37.88-30.31-.32-.19-.7-.36-1.06-.4-8.39-44.83-52.24-87.07-100.77-101.56l-65.36,18.42,32.4,34.53c22.58-4.28,46.55-.43,66.77,10.72,20.14,11.11,33.72,25.45,41.6,52.23l-1.02,.54c-1.55,11.29-3.09,22.58-4.64,33.87-.27,1.94-.48,4.13,1.76,5.31,1.86,.98,4.18,.46,5.67-1.03,4.61-4.59,9.21-9.19,13.82-13.78,5.75,8.15,13.32,15,21.97,19.96,4.18,2.4,9.23-1.3,8.21-6.01l-.02-.1c-1.81-8.27-4.66-16.32-8.45-23.89,7.23,2.31,15.39,6.29,23.26,8.05,3.79,.85,6.47-3.68,3.79-6.5l-.06-.06Z"/><path class="cls-22" d="M224.51,227.16c3.04,6.21,10,8.02,11.12,14.92,1.12,6.9,0,14.57-4.51,19.73-4.59,5.25-11.79,6.99-18.54,7.02-11.72,.04-62.89-17.46-62.89-17.46l16.07-8.23-35.06-17.21,22.64-.75-32.76-36.19,15.59,7.59-20.54-42.37,14.58,9.89-15.05-52.13,17,12.21-2.91-42.5,12.4,14.07s5.06-34.81,8.76-53.87c1.33,11.6,6.57,47.13,6.57,47.13l9.26-16.97-4.95,53.97,10.69-22.43-1.14,71.65,8.07-21.19,6.17,41.12s6.77-8.64,6.83-11.15c1.41,7.82,9.94,26.96,12.22,26.99,2.02,.02,8.18-10.29,8.18-10.29l12.19,26.45Z"/><path class="cls-22" d="M315.48,176.56c2.1,5.5-36.12,13.75-42.36,12.72-10.84-1.79-34.78-14.54-34.78-14.54l15.79-4.16-30.46-19.38,29.73,2.92-22.64-38.16,18.99,9.73-18.99-43.39,20.45,19.45-8.03-52.37,14.61,15.71,4.38-38.9,12.02,23.31s14.53-34.65,20.12-49.49c-.09,9.6-5.11,42.64-5.11,42.64l13.35-13.75-13.62,48.15,12.43-16.49-10.69,56.91,12.11-20.22-4.8,44.91s12.35-11.37,12.69-13.4c.42,6.55-6.76,24.24-4.65,24.62,1.87,.33,13.15-6.73,13.15-6.73l-3.65,29.93Z"/><path class="cls-22" d="M577.69,215.47c-2.54,5.12,27.85,1.34,33.61,1.26,10.01-.15,33.15-9.18,33.15-9.18l-13.81-6.47,29.81-14.61-27.24-1.55,24.91-34.34-18.31,6.78,22.21-40.06-20.76,16.17,13.34-50.57-15.04,13.35,.54-39.12-11.29,14.7s-8.35-36.86-11.69-52.37c-1.03,9.5-4.38,44.89-4.38,44.89l-9.49-14.21,4.38,48.63-10.96-19.45,7.08,63.79-8.61-21.8-.86,45.12s-9.86-13.09-9.93-15.14c-1.14,6.41,2.58,31.22,.63,31.28-1.73,.05-21.91,0-21.91,0l14.61,32.92Z"/><path class="cls-22" d="M249.46,381.25c-24.4-14.37-49.15-41.38-60.78-57.37-10-13.75-17.3-30.72-13.48-47.44-8.84-4.17-18.04-7.54-27.46-10.02l15.46,17.51c-12.9-7.39-26.83-12.88-41.23-16.26,3.95,5.57,8.96,10.36,14.67,14-9.59-4.51-19.94-7.33-30.45-8.28,3.76,3.68,7.51,7.37,11.27,11.05-19.48-8.11-40.87-11.33-61.81-9.32,11.05,4.09,22.1,8.17,33.15,12.26-17.16,.22-34.27,3.92-50.06,10.81,9.56,.98,19.12,1.96,28.68,2.94-18.65,3.43-41.18,8.89-60.7,20.76,9.72-4.11,35.99-4.37,35.99-4.37-20.13,13.12-35.32,33.28-42.69,43.11,7.42-4.67,28.97-18.86,36.38-23.53-7,10.59-11.99,22.57-14.62,35.08,9.13-11.13,23.76-26.63,32.89-37.77l-7.07,27.31c7.95-14.75,18.77-27.87,31.64-38.37-3.86,10.25-7.71,20.49-11.57,30.74,11.93-13.8,26.91-24.81,43.5-31.97-5.06,8.93-10.11,17.85-15.17,26.78,14.59-9.69,30.82-16.79,47.75-20.88l-17.76,20.7c17.39-7.39,36.15-11.4,54.97-11.73-6.24,7.25-12.48,14.5-18.72,21.74,11.59-3.86,23.19-7.72,34.78-11.58-3.53,6.63-7.06,13.27-10.58,19.9,7.35-2.13,14.71-4.25,22.06-6.38-1.64,4.95-3.28,9.91-4.92,14.87,3.73-2.3,7.61-5.07,11.96-5.02,11.36,.13,11.36,10.13,11.36,10.13,0,0,4.27-6.25,22.57,.62Z"/><path class="cls-22" d="M612.6,392.12c39.49-18.88,53.8-37.58,64.95-54.84,9.59-14.85,18.18-34.16,12.29-50.34,9.28-5.18,21.88-10.01,31.98-13.58l-15.2,19.23c13.42-8.86,32.83-20.99,48.31-26.04-3.77,6.01-13.47,16.39-19.37,20.68,10.07-5.61,27-14.48,38.45-16.65-3.75,4.11-10.84,10.27-14.59,14.37,20.57-10.35,41.23-13.27,64.42-13.72-11.72,5.36-23.44,10.72-35.16,16.08,18.87-1.79,45.87-2.19,63.91,2.82-10.4,2.1-22.72,5.38-33.11,7.47,20.83,1.22,40.19,4.9,62.83,14.42-11.09-2.95-39.96-.13-39.96-.13,23.43,10.69,42.15,28.96,51.24,37.87-8.62-3.77-33.72-15.37-42.33-19.14,8.76,9.72,15.45,21.05,19.6,33.18-11.16-10-28.78-23.71-39.94-33.71l10.52,26.33c-10.23-13.74-21.43-20.07-36.62-29.01,5.27,9.74,8.54,14.03,13.81,23.77-14.5-12.33-25.6-18.59-44.53-23.77,6.46,8.28,6.44,13.63,12.9,21.92-17-7.93-35.54-13.08-54.54-15.17l21.59,18.51c-19.84-5.31-36.12-4.57-53.67-8.17,7.59,6.48,7.29,15.89,14.88,22.37-13.12-2.48-26.24-4.96-39.36-7.44,4.54,6.18,9.09,12.37,13.63,18.55-8.29-1.25-16.58-2.5-24.87-3.76,2.3,4.74,4.6,9.47,6.9,14.21-4.33-1.85-12.45-3.35-17.09-4.59-16.34-4.38-11.79,12.07-11.79,12.07,0,0-10.67-12.75-30.06-3.77Z"/><g><path class="cls-26" d="M292.9,167.6c-18.35-29.95-17.65-83.62-9.93-114.13-26.48,19.21-28.04,92.65-16.55,124.3"/><path class="cls-4" d="M292.9,167.6c-1.21-4.02-1.94-6.64-3.8-11.05-.23-.6-.64-1.49-1.04-2.63-.21-.57-.44-1.19-.68-1.85l-.11-.3c-.07-.17-.13-.35-.19-.53-.12-.35-.24-.71-.35-1.07-.24-.72-.48-1.45-.72-2.2-.43-1.51-.93-3.03-1.32-4.63-3.45-12.72-5.19-28.36-5.22-43.3-.08-14.95,1.49-29.21,3.57-39.5,.12-.65,.26-1.27,.39-1.88,.22-1.06,.52-2.4,.81-3.57,.22-1.08,.43-2.12,.64-3.14,.1-.5,.2-1,.3-1.49,.05-.24,.1-.49,.15-.73l.04-.18c.02-.05-.01-.02-.04,0l-.07,.06-.3,.24c-1.57,1.27-3.03,2.46-4.38,3.55-.32,.26-.63,.51-.94,.76-.31,.26-.62,.6-.92,.89-.42,.42-.81,.81-1.19,1.19-1.09,1.15-1.83,2.14-2.38,2.78-.28,.32-.44,.59-.57,.76-.12,.18-.19,.27-.19,.27,0,0-.26,.36-.74,1.04-.24,.34-.55,.76-.88,1.27-.31,.52-.67,1.11-1.08,1.78-1.6,2.68-3.67,6.67-5.51,11.75-3.8,10.13-6.64,24.49-7.66,39.63-.5,7.57-.58,15.34-.27,22.88,.18,3.77,.42,7.48,.79,11.08,.09,.9,.18,1.79,.28,2.68,.11,.88,.22,1.76,.33,2.63,.11,.87,.21,1.73,.35,2.58,.12,.79,.24,1.58,.36,2.35,.53,3.21,1.07,5.83,1.37,7.13,1.11,4.81,2.41,7.42,4.71,10.92-.39-4.18-.58-6.91-1.62-11.6-.28-1.27-.8-3.83-1.31-6.97-.12-.76-.24-1.53-.35-2.3-.14-.83-.24-1.68-.35-2.53-.11-.85-.22-1.71-.33-2.58-.09-.87-.18-1.75-.27-2.63-.37-3.54-.6-7.19-.78-10.9-.3-7.42-.22-15.07,.27-22.53,.99-14.9,3.79-28.98,7.46-38.75,1.78-4.9,3.75-8.7,5.26-11.23,.38-.63,.72-1.19,1.02-1.68,.3-.48,.6-.86,.82-1.18,.45-.64,.69-.97,.69-.97,0,0,.06-.08,.18-.25,.12-.16,.27-.42,.53-.71,.51-.58,1.2-1.5,2.19-2.55,.77-.76,.43-.43,.5-.5h0l-.02,.08c-.14,.63-.28,1.27-.4,1.92-2.12,10.51-3.72,24.96-3.64,40.13,.03,15.16,1.79,31.05,5.33,44.11,.4,1.64,.92,3.21,1.36,4.76,.25,.77,.5,1.52,.75,2.26,.12,.37,.25,.74,.37,1.11,.06,.18,.12,.36,.19,.54l.12,.31c.26,.69,.49,1.33,.71,1.91,.42,1.18,.85,2.09,1.09,2.71,1.97,4.55,3.78,6.86,6.73,9.83Z"/></g><g><path class="cls-1" d="M199.13,221.84c-18.11-11.99-31.36-32.77-37.98-53.79-6.62-21.02-8.46-43.26-10.26-65.27-11.61,12.98-12.87,32.44-11.01,49.95,3.76,35.5,17.92,69.77,40.17,97.25"/><path class="cls-4" d="M199.13,221.84c-1.37-1.62-2.57-2.83-3.78-4.18-.61-.66-1.28-1.29-1.99-1.98-.7-.71-1.47-1.44-2.37-2.23-.5-.41-1.17-1.12-2.04-1.95-.43-.42-.9-.88-1.41-1.38-.54-.58-1.09-1.17-1.65-1.76-.63-.66-1.27-1.35-1.87-2.07-.61-.72-1.24-1.45-1.87-2.18-.6-.76-1.2-1.54-1.82-2.32-4.86-6.29-9.35-13.79-13-21.95-1.81-4.09-3.42-8.33-4.78-12.66-1.36-4.35-2.5-8.77-3.49-13.18-1.98-8.82-3.24-17.6-4.2-25.74-.47-4.07-.87-7.99-1.2-11.69-.34-3.9-.66-7.56-.95-10.93-.14-1.54-.28-3.05-.41-4.53-.07-.74-.13-1.46-.2-2.18,0-.03,0-.12-.02-.1l-.09,.11-.17,.21-.35,.42c-.23,.28-.46,.56-.68,.83-.91,1.1-1.79,2.18-2.64,3.22-.21,.26-.42,.51-.62,.77-.18,.25-.35,.51-.52,.76-.2,.29-.39,.57-.58,.84-1.52,2.21-2.6,4.29-3.4,6.01-.44,.85-.74,1.64-1.01,2.32-.27,.68-.5,1.26-.69,1.73-.31,.96-.48,1.47-.48,1.47,0,0-.17,.51-.48,1.47-.27,.97-.68,2.39-1.08,4.23-.83,3.68-1.58,9.06-1.69,15.59-.03,3.26,.06,6.81,.36,10.57,.17,1.88,.34,3.81,.6,5.78,.27,1.97,.44,4,.81,6.04,1.23,8.21,3.15,17.01,5.8,25.82,2.64,8.81,6,17.61,9.88,25.89,1.93,4.14,3.99,8.15,6.13,11.97,1.1,1.89,2.1,3.81,3.25,5.6,.56,.9,1.11,1.8,1.65,2.68,.27,.44,.54,.88,.81,1.32,.13,.22,.28,.43,.42,.65l.3,.45c1.81,2.7,3.26,4.93,4.08,5.98,1.46,1.98,2.66,3.49,4,4.75,1.33,1.27,2.69,2.39,4.34,3.67-.86-1.92-1.59-3.5-2.49-5.08-.9-1.57-1.85-3.22-3.27-5.18-.79-1.04-2.21-3.24-3.99-5.89l-.3-.44c-.14-.21-.28-.42-.41-.63-.27-.43-.53-.86-.8-1.3-.54-.87-1.08-1.75-1.63-2.64-1.13-1.76-2.11-3.64-3.19-5.5-2.1-3.76-4.13-7.7-6.03-11.77-3.81-8.14-7.12-16.79-9.72-25.45-2.6-8.66-4.49-17.31-5.71-25.38-.36-2.01-.53-4-.8-5.94-.26-1.94-.43-3.82-.59-5.65-.29-3.67-.38-7.11-.36-10.27,.1-6.32,.82-11.46,1.61-14.95,.38-1.75,.77-3.09,1.02-4.01,.29-.9,.45-1.38,.45-1.38,0,0,.16-.48,.45-1.38,.17-.44,.39-.98,.65-1.62,.25-.64,.53-1.38,.94-2.17,.75-1.61,1.75-3.53,3.15-5.57,.19-.28,.39-.56,.59-.85h0s0,.08,0,.11c.26,3.03,.55,6.32,.85,9.83,.33,3.72,.74,7.66,1.21,11.77,.96,8.21,2.23,17.1,4.25,26.07,1.01,4.48,2.16,9,3.55,13.44,1.4,4.45,3.05,8.81,4.92,13.01,3.75,8.39,8.37,16.1,13.38,22.59,.63,.81,1.26,1.61,1.88,2.4,.65,.76,1.3,1.51,1.93,2.26,.62,.75,1.28,1.46,1.93,2.15,.58,.62,1.15,1.23,1.71,1.83,.53,.51,1.02,.99,1.47,1.43,.91,.86,1.61,1.59,2.13,2.01,.94,.81,1.8,1.52,2.61,2.14,.84,.6,1.65,1.09,2.45,1.56,1.58,.96,3.28,1.57,5.21,2.34Z"/></g><g><path class="cls-24" d="M177.16,296.13c-47.09-14.5-101.5-.15-135.91,35.83,13.85-1.29,26.11-9.27,39.02-14.57,41.68-17.13,86.88-.63,117.76,20.84"/><path class="cls-4" d="M177.16,296.13c-1.82-1.01-3.38-1.83-5.07-2.56-1.7-.72-3.52-1.43-5.96-1.84-.66-.13-1.64-.32-2.86-.55-.61-.12-1.28-.24-2-.38-.38-.07-.76-.14-1.15-.22-.49-.11-1-.17-1.51-.23-1.02-.12-2.05-.24-3.1-.36-1.05-.12-2.11-.25-3.18-.37-1.08-.12-2.16-.28-3.27-.3-2.21-.1-4.48-.2-6.78-.31-1.15-.08-2.32-.04-3.49-.01-1.17,.03-2.36,.06-3.55,.08-1.19,.03-2.39,.06-3.6,.09-1.2,.11-2.41,.22-3.63,.33-1.22,.11-2.44,.22-3.67,.34l-1.84,.17c-.61,.07-1.22,.19-1.84,.28-2.45,.39-4.92,.79-7.41,1.18-2.45,.56-4.91,1.12-7.37,1.68l-1.85,.42-1.81,.54-3.62,1.08c-1.21,.36-2.41,.73-3.61,1.09-1.18,.44-2.35,.88-3.52,1.31-1.17,.44-2.34,.87-3.5,1.31-.58,.22-1.17,.43-1.74,.66l-1.69,.76c-2.25,1.01-4.47,2.02-6.67,3.01-4.24,2.29-8.46,4.37-12.23,6.89-3.9,2.29-7.33,4.94-10.65,7.33-.84,.58-1.6,1.24-2.36,1.88-.76,.64-1.5,1.26-2.23,1.88-.73,.62-1.45,1.22-2.15,1.81-.7,.6-1.41,1.15-2.03,1.79-1.63,1.58-3.18,3.09-4.66,4.53-.56,.55-1.11,1.09-1.66,1.62-.5,.51-.98,1.01-1.46,1.5-.48,.49-.95,.98-1.42,1.46-.03,.03-.07,.06-.08,.09l.13-.02,.26-.03,.51-.06c.34-.04,.68-.08,1.01-.12,2.71-.3,5.1-.69,7.33-1.04l.42-.06c.15-.02,.17-.04,.26-.05l.44-.1c.29-.07,.57-.13,.85-.2,.55-.13,1.08-.24,1.57-.39,1.98-.53,3.49-1.05,4.52-1.39,1.02-.37,1.55-.57,1.55-.57,0,0,2.17-.76,5.86-2.38,3.7-1.6,8.86-4.18,15.13-7.05,6.27-2.85,13.87-5.6,22.53-7.16,8.63-1.58,18.21-2.05,27.92-1.1,9.71,.92,19.5,3.15,28.71,6.26,4.6,1.55,9.07,3.31,13.33,5.21,2.13,.94,4.21,1.93,6.23,2.93,1.01,.51,2,1.02,2.99,1.52,.9,.48,1.8,.96,2.68,1.44,2.8,1.53,5.06,2.85,6.18,3.52,4.14,2.48,6.71,3.52,10.65,4.99-2.78-3.13-4.82-5.14-9.02-7.71-1.14-.69-3.43-2.05-6.28-3.61-.9-.48-1.81-.97-2.73-1.47-1.01-.51-2.02-1.03-3.05-1.55-2.07-1.01-4.18-2.02-6.36-2.99-4.35-1.93-8.9-3.73-13.61-5.32-9.41-3.18-19.44-5.47-29.43-6.41-9.98-.97-19.87-.49-28.79,1.15-8.94,1.6-16.87,4.48-23.26,7.39-6.39,2.92-11.48,5.48-15.1,7.04-3.61,1.59-5.69,2.31-5.69,2.31,0,0-.52,.19-1.49,.54-.98,.32-2.43,.82-4.3,1.32-.46,.14-.96,.24-1.48,.37-.45,.1-.91,.21-1.4,.33-.08,.01-.17,.03-.14,.02h0c.23-.21,.45-.43,.69-.66,.59-.57,1.19-1.16,1.81-1.76,.6-.62,1.3-1.16,1.98-1.74,.69-.58,1.39-1.17,2.1-1.77s1.44-1.21,2.18-1.83c.74-.62,1.48-1.27,2.3-1.83,3.24-2.33,6.59-4.92,10.4-7.16,3.67-2.46,7.8-4.49,11.94-6.73,2.15-.97,4.32-1.95,6.52-2.94l1.65-.74c.56-.23,1.13-.43,1.7-.64,1.14-.42,2.28-.85,3.42-1.28,1.14-.43,2.29-.86,3.44-1.28,1.17-.35,2.35-.71,3.53-1.06l3.54-1.06,1.77-.53,1.8-.41c2.4-.55,4.81-1.09,7.2-1.64,2.42-.39,4.84-.77,7.24-1.15,.6-.09,1.2-.2,1.8-.28l1.8-.16c1.2-.11,2.39-.22,3.58-.33s2.37-.22,3.54-.32c1.18-.03,2.35-.05,3.51-.08,1.16-.03,2.32-.05,3.46-.08,1.15-.03,2.28-.07,3.41,.01,2.25,.1,4.46,.2,6.62,.3,1.08,.02,2.14,.18,3.19,.29,1.05,.12,2.08,.24,3.11,.36s2.03,.24,3.02,.35c.5,.05,.99,.11,1.47,.22,.38,.07,.75,.14,1.12,.21,.7,.13,1.35,.26,1.95,.37,1.19,.22,2.15,.4,2.79,.52,2.38,.37,4.22,.79,6.02,.98,1.8,.21,3.54,.27,5.66,.31Z"/></g><g><path class="cls-38" d="M593.93,179.26c15.14-11.31,22.56-30.33,25.22-49.32,3.58-25.55-.77-52.54-1.22-57.2,5.09,1.55,8.91,8.66,11.68,16.79,1.39,4.07,2.5,8.38,3.37,12.35,.87,3.97,1.49,7.62,1.9,10.35,4.9,33.01-.09,54.93-12.15,85.95"/><path class="cls-4" d="M593.93,179.26c1.89-.87,3.52-1.64,5.03-2.73,.38-.27,.77-.54,1.16-.83,.38-.31,.74-.64,1.13-.99,.76-.71,1.59-1.47,2.37-2.45,.4-.49,1.02-1.19,1.72-2.09,.34-.46,.71-.97,1.11-1.5,.1-.13,.2-.27,.3-.41,.41-.53,.82-1.16,1.21-1.77,.4-.61,.8-1.24,1.21-1.86,.38-.65,.75-1.31,1.14-1.97,3.07-5.32,5.54-11.55,7.44-18.13,.9-3.31,1.7-6.69,2.3-10.12,.6-3.43,1.05-6.89,1.38-10.33,1.28-13.77,.61-27.09-.31-37.21-.23-2.53-.48-4.87-.72-6.97-.2-1.63-.38-3.08-.53-4.31h0s-.03-.02,.03,.02c.23,.19,.4,.33,.51,.42,1.31,1.21,2.16,2.4,2.77,3.31,.61,.93,.99,1.6,1.25,2.08,.52,.94,.56,1.05,.56,1.05,0,0,.78,1.44,1.87,4.17,1.1,2.73,2.46,6.78,3.71,11.84,.31,1.27,.63,2.59,.92,3.98,.25,1.39,.52,2.84,.79,4.32,.27,1.49,.55,3.02,.84,4.6,.32,1.57,.46,3.21,.7,4.87,.85,6.65,1.41,13.89,1.31,21.28-.09,7.4-.86,14.94-2.24,22.17-.31,1.81-.76,3.59-1.12,5.36-.4,1.76-.87,3.49-1.29,5.21-.46,1.71-.96,3.38-1.42,5.03-.23,.83-.5,1.63-.75,2.43-.24,.75-.47,1.49-.7,2.22-.98,3.04-1.85,5.52-2.27,6.76-1.61,4.57-2.08,7.33-2.59,11.5,2.4-3.43,3.9-5.84,5.58-10.44,.43-1.25,1.32-3.76,2.32-6.84,.23-.74,.47-1.49,.71-2.25,.25-.82,.53-1.63,.76-2.47,.47-1.68,.98-3.38,1.44-5.11,.43-1.75,.91-3.51,1.32-5.31,.38-1.81,.83-3.62,1.15-5.48,1.41-7.4,2.2-15.14,2.29-22.72,.1-7.58-.47-14.97-1.34-21.73-.25-1.69-.39-3.35-.71-4.95-.29-1.61-.58-3.17-.86-4.69-.28-1.52-.55-2.99-.81-4.41-.29-1.41-.62-2.77-.94-4.07-1.28-5.18-2.69-9.38-3.84-12.25-1.15-2.88-1.99-4.44-1.99-4.44,0,0-.04-.11-.6-1.14-.28-.51-.7-1.26-1.38-2.3-.69-1.03-1.64-2.4-3.3-3.93-.15-.12-.37-.31-.67-.55-.47-.41-1.23-.77-2.03-1.28-.81-.36-1.7-.69-2.83-1.12-.27-.1-.55-.21-.83-.31-.03,0-.07-.04-.09-.03v.13l.04,.26c.02,.17,.04,.35,.06,.53,.08,.72,.17,1.47,.26,2.26,.23,1.92,.51,4.18,.81,6.72,.23,2.08,.49,4.39,.71,6.89,.9,10,1.56,23.15,.3,36.62-.32,3.36-.75,6.74-1.34,10.07-.58,3.34-1.37,6.61-2.23,9.81-1.84,6.36-4.22,12.35-7.15,17.42-.37,.63-.73,1.26-1.08,1.88-.39,.6-.77,1.19-1.15,1.77-.37,.58-.76,1.18-1.15,1.68-.1,.13-.19,.26-.29,.39-.37,.51-.72,.99-1.04,1.43-.66,.86-1.24,1.52-1.62,1.99-.73,.94-1.46,1.7-2.07,2.46-.31,.39-.6,.76-.89,1.12-.3,.35-.59,.69-.87,1.04-1.11,1.43-2.17,2.8-3.44,4.43Z"/></g><g><path class="cls-2" d="M659.76,233.57c60.89-1.65,79.24-97.45,80.09-111.81,2.2-37.12,17.93,26.3,13.05,47.4-1.12,5.61-2.57,11.15-4.26,16.59-1.69,5.43-3.62,10.75-5.7,15.89-1.89,4.63-3.93,9.06-6.1,13.22-2.58,4.47-5.45,8.83-8.58,13.05-12.48,16.88-28.87,31.57-45.93,41.4"/><path class="cls-4" d="M659.76,233.57c2.04,.35,3.81,.61,5.68,.73,.93-.02,1.88-.09,2.91-.2,.52-.06,1.05-.12,1.61-.2,.56-.08,1.15-.16,1.75-.35,.65-.18,1.64-.45,2.85-.79,.6-.18,1.28-.33,1.98-.58l2.86-1.11c.54-.21,1.09-.43,1.65-.64,.55-.22,1.07-.52,1.61-.78,1.08-.54,2.17-1.08,3.27-1.63,1.06-.62,2.12-1.29,3.2-1.94,4.24-2.71,8.41-5.97,12.18-9.83,3.81-3.81,7.4-8.04,10.59-12.65,6.48-9.14,11.69-19.43,15.92-29.78,4.19-10.38,7.44-20.83,9.8-30.65,1.19-4.91,2.17-9.65,2.91-14.18,.37-2.27,.69-4.46,.85-6.67,.15-2.13,.29-4.1,.56-5.97,.14-.92,.29-1.83,.51-2.64,.1-.41,.22-.8,.36-1.13l.1-.25,.04-.09c.04-.07,.03-.05,.03-.05h0c.08,.12,.16,.2,.25,.33,.09,.14,.19,.27,.28,.42,.18,.3,.35,.61,.52,.94,1.28,2.63,2.06,5.24,2.69,7.33,.62,2.11,1.03,3.79,1.3,4.93,.27,1.15,.41,1.75,.41,1.75,0,0,.58,2.43,1.37,6.79,.78,4.36,1.79,10.68,2.25,18.39,.21,3.84,.32,8.06-.17,12.41-.13,1.09-.29,2.15-.54,3.25-.23,1.16-.47,2.3-.73,3.45-.52,2.31-1.11,4.67-1.76,7.07-1.31,4.79-2.88,9.72-4.7,14.72-1.82,5-3.84,10.04-6.2,15-.59,1.24-1.19,2.48-1.81,3.71-.6,1.24-1.26,2.34-1.99,3.55-1.43,2.37-2.94,4.69-4.51,6.97-3.15,4.56-6.57,8.93-10.15,13.05-3.58,4.12-7.33,8-11.15,11.58-1.91,1.79-3.84,3.51-5.77,5.15-.98,.81-1.93,1.63-2.9,2.4-.9,.71-1.79,1.42-2.67,2.12-2.53,1.94-4.66,3.45-5.72,4.21-3.96,2.75-5.97,4.64-8.96,7.59,4.01-1.19,6.71-2.21,10.78-4.98,1.1-.76,3.27-2.3,5.86-4.28,.9-.71,1.81-1.43,2.73-2.16,.99-.79,1.96-1.63,2.96-2.45,1.97-1.68,3.93-3.43,5.88-5.26,3.9-3.65,7.72-7.61,11.38-11.81,3.66-4.2,7.14-8.67,10.37-13.33,1.61-2.33,3.15-4.71,4.62-7.14,.72-1.18,1.49-2.49,2.1-3.76,.64-1.26,1.25-2.52,1.85-3.79,2.41-5.06,4.47-10.21,6.31-15.28,1.84-5.07,3.44-10.09,4.77-14.97,.66-2.44,1.26-4.85,1.79-7.21,.26-1.18,.51-2.36,.74-3.48,.27-1.17,.45-2.39,.59-3.55,.52-4.67,.39-9,.18-12.96-.48-7.91-1.51-14.32-2.3-18.77-.81-4.45-1.4-6.93-1.4-6.93,0,0-.15-.62-.42-1.79-.28-1.17-.7-2.89-1.34-5.08-.66-2.19-1.43-4.84-2.9-7.88-.19-.38-.4-.77-.64-1.16-.12-.2-.26-.4-.4-.6-.14-.21-.34-.44-.51-.65-.58-.58-1.26-1.12-2.05-1.24-.8-.16-1.61,.18-2.22,.73-.27,.33-.59,.65-.75,.99-.09,.17-.2,.35-.27,.51l-.16,.38c-.21,.51-.36,1.01-.48,1.5-.26,.99-.43,1.98-.58,2.99-.29,2-.44,4.11-.59,6.2-.15,2.02-.46,4.18-.82,6.39-.72,4.42-1.69,9.1-2.86,13.94-2.33,9.68-5.54,19.99-9.66,30.2-4.17,10.17-9.28,20.27-15.57,29.14-3.1,4.47-6.58,8.56-10.24,12.23-3.63,3.71-7.61,6.82-11.64,9.4-1.02,.62-2.03,1.24-3.03,1.85-1.04,.52-2.08,1.03-3.09,1.54-.51,.24-1,.53-1.52,.74-.52,.2-1.04,.4-1.56,.6-.91,.35-1.81,.7-2.7,1.05-.66,.24-1.3,.38-1.87,.55-1.15,.33-2.07,.59-2.69,.76-.56,.19-1.11,.28-1.64,.39-.52,.11-1.02,.23-1.49,.35-.95,.24-1.83,.5-2.68,.78-1.73,.4-3.38,.91-5.39,1.58Z"/></g><g><path class="cls-37" d="M663.75,357.1c57.18-45.98,118.95-52.76,180.73-27.9,4.12-12.98-40.22-33.68-69-36.23-28.78-2.56-57.56,3.43-85.86,9.38"/><path class="cls-4" d="M663.75,357.1c3.84-1.71,6.3-2.99,10.24-5.81,.53-.38,1.31-.98,2.32-1.66,.5-.35,1.05-.72,1.64-1.13,.83-.57,1.68-1.16,2.54-1.75,.97-.66,1.99-1.29,3-1.95,1.02-.65,2.04-1.33,3.1-1.98,1.06-.64,2.14-1.29,3.23-1.94,8.71-5.24,18.69-10.13,29.35-14.16,5.35-1.95,10.86-3.71,16.45-5.17,5.61-1.41,11.29-2.55,16.96-3.39,5.67-.78,11.31-1.27,16.83-1.5,5.52-.14,10.91-.1,16.07,.25,10.33,.65,19.74,2.27,27.61,4.05,7.88,1.8,14.24,3.78,18.64,5.23,2.2,.74,3.89,1.37,5.06,1.77,1.16,.4,1.77,.64,1.77,.64,0,0,.61,.24,1.76,.68,.7,.27,1.57,.61,2.59,1,.21,.08,.43,.17,.65,.25l.33,.13,.3,.07c.41,.1,.83,.2,1.26,.31l.16,.04s.03-.11,.05-.16l.09-.36c.06-.24,.12-.48,.19-.73,.11-.48,.28-.94,.3-1.52,.02-.28,.07-.55,.07-.85,0-.14,0-.3-.01-.46l-.03-.41c-.05-.37-.1-.76-.2-1.14-.17-.77-.48-1.49-.82-2.22-.72-1.44-1.7-2.8-2.86-4.1-2.33-2.6-5.34-5-8.79-7.31-6.93-4.61-15.7-8.89-25.58-12.57-4.95-1.83-10.18-3.51-15.65-4.9-5.47-1.38-11.17-2.51-17.05-3.01-11.65-.98-23.64-.65-35.14,.59-5.76,.59-11.4,1.37-16.86,2.26-2.74,.42-5.42,.92-8.05,1.38-1.32,.24-2.62,.49-3.91,.73-1.19,.23-2.37,.46-3.53,.68-3.16,.64-5.76,1.16-7.05,1.42-4.77,1-7.37,2.11-11.14,3.94,4.19,.15,7.01,.12,11.78-.83,1.29-.26,3.88-.77,7.03-1.39,1.16-.22,2.33-.45,3.52-.68,1.28-.24,2.58-.48,3.89-.72,2.62-.46,5.28-.95,7.99-1.37,5.42-.89,11-1.65,16.68-2.24,11.36-1.22,23.13-1.54,34.53-.58,5.65,.48,11.2,1.58,16.54,2.93,5.34,1.36,10.48,3,15.33,4.79,9.69,3.6,18.28,7.81,24.93,12.23,3.31,2.21,6.14,4.49,8.19,6.78,1.03,1.14,1.83,2.29,2.38,3.38,.25,.55,.48,1.08,.58,1.57,.07,.25,.1,.49,.13,.72,0,.09,0,.06,0,.05v-.02h0s0,0,0,0c-.66-.26-1.23-.47-1.68-.65-1.17-.45-1.78-.69-1.78-.69,0,0-.62-.24-1.8-.65-1.18-.41-2.9-1.05-5.13-1.8-4.46-1.47-10.92-3.49-18.94-5.32-8.01-1.81-17.58-3.47-28.11-4.13-5.26-.36-10.76-.4-16.39-.26-5.63,.23-11.39,.73-17.17,1.52-5.78,.86-11.58,2.02-17.3,3.45-5.71,1.49-11.32,3.28-16.77,5.27-10.86,4.1-21.02,9.08-29.87,14.41-1.11,.67-2.2,1.32-3.28,1.97-1.07,.66-2.11,1.35-3.14,2.01-1.03,.67-2.06,1.31-3.05,1.98-.87,.6-1.73,1.19-2.57,1.77-.6,.41-1.16,.8-1.66,1.15-1.03,.69-1.81,1.31-2.35,1.7-3.96,2.89-5.81,5.08-8.38,8.37Z"/></g><path class="cls-27" d="M302.54,408.43c-.38,56.48,18.66,114.67,50.76,160.6,32.1,45.93,101.86,116.64,189.69,89.93h0c26.43-8.12,48.41-27.53,59.26-53.52,24.63-58.98,1.57-148.4-34.66-193.76"/><path class="cls-28" d="M529.26,425.61c54.08-19.25,147.03-48.3,159.46-114.07,6.21-31.82-12.43-59.41-32.74-80.28-7.31-8.31-15.3-16.05-23.84-23.24-16.26-13.69-34.48-25.47-53.83-35.29-76.92-39.03-155.22-52.5-264.46-13.04-65.86,23.79-137.7,59.66-138.7,119.2-1.31,77.45,119.44,127.03,182.56,152.33,0,0,94.42,27.72,171.54-5.62Z"/><g><path class="cls-4" d="M432.03,360.13c42.73-5.1,68.68-19.68,77.9-25.75,.74-.48,.22-1.62-.63-1.38-50.4,14.17-119.45,8.46-158.23,.06-1.44-.31-2.14,1.68-.83,2.34,16.1,8.04,49.48,23.55,69.21,24.62"/><path class="cls-39" d="M432.03,360.13c1.04,.11,1.74,.16,2.95,0,.16-.02,.41-.05,.71-.1,.15-.02,.32-.04,.5-.07,.95-.13,1.92-.26,2.9-.4,1.13-.14,2.27-.37,3.42-.55,2.31-.4,4.69-.76,7.1-1.28,9.66-1.92,20.1-4.61,30.49-8.42,5.21-1.87,10.38-4.05,15.45-6.48,5.08-2.44,9.98-5.1,14.72-8.23,.42-.33,.51-1,.25-1.44-.23-.47-.87-.72-1.34-.55l-2,.5c-1.33,.34-2.66,.67-3.99,1-1.33,.33-2.64,.68-3.96,.98-1.33,.26-2.65,.52-3.96,.78s-2.61,.52-3.91,.77c-.65,.13-1.29,.25-1.93,.38-.65,.1-1.29,.2-1.93,.29-2.57,.39-5.09,.78-7.57,1.15-9.94,1.23-19.11,2.05-26.92,2.32-1.95,.09-3.82,.17-5.59,.25-1.77,.03-3.45,.05-5.02,.08-3.14,.04-5.87,.12-8.11,.06-4.47-.05-7-.08-7-.08,0,0-.63-.01-1.82-.03-1.19-.04-2.94-.11-5.17-.19-2.24-.09-4.96-.15-8.1-.37-3.14-.21-6.7-.35-10.59-.72-1.95-.16-3.98-.33-6.09-.51-2.11-.19-4.29-.45-6.54-.68-2.25-.23-4.57-.48-6.95-.81-2.37-.32-4.81-.6-7.29-.96-2.48-.38-5-.76-7.57-1.15-2.56-.45-5.16-.9-7.79-1.37-2.63-.5-5.28-1.06-7.95-1.59-.28-.07-.81-.18-1.23,0-.44,.17-.77,.53-.93,.94-.17,.41-.17,.9,.03,1.32,.17,.43,.64,.73,.94,.86,1.24,.61,2.48,1.22,3.73,1.84,9.99,4.87,20.36,9.53,30.68,13.51,5.15,2,10.3,3.79,15.38,5.32,2.53,.79,5.07,1.43,7.56,2.04,1.26,.27,2.5,.54,3.73,.81,1.14,.19,2.27,.37,3.38,.55,.8,.15,1.46,.19,1.79,.22,1.22,.11,1.93,.04,2.96-.12-1-.35-1.67-.55-2.87-.67-.33-.03-.98-.08-1.77-.23-1.1-.18-2.22-.36-3.34-.55-1.22-.27-2.46-.53-3.7-.8-2.48-.61-5-1.25-7.52-2.03-5.05-1.52-10.19-3.3-15.32-5.3-10.28-3.97-20.64-8.62-30.61-13.48-1.24-.61-2.48-1.22-3.72-1.83-.32-.15-.46-.26-.57-.48-.1-.2-.11-.46,0-.68,.09-.22,.27-.41,.47-.49,.23-.08,.41-.05,.79,.03,2.69,.54,5.34,1.1,7.98,1.59,2.64,.46,5.25,.92,7.81,1.37,2.57,.39,5.11,.77,7.59,1.15,2.48,.37,4.93,.65,7.3,.96,2.38,.33,4.7,.58,6.96,.81,2.26,.23,4.44,.49,6.56,.68,2.11,.18,4.15,.35,6.1,.51,3.9,.37,7.46,.51,10.61,.72,3.14,.22,5.87,.28,8.11,.37,2.24,.08,3.99,.15,5.18,.19,1.19,.02,1.82,.03,1.82,.03,0,0,2.53,.03,7.01,.08,2.24,.06,4.97-.02,8.12-.06,1.57-.02,3.25-.05,5.03-.08,1.77-.08,3.64-.16,5.6-.25,7.83-.28,17.02-1.09,26.99-2.33,2.48-.38,5.02-.76,7.59-1.16,.64-.1,1.29-.2,1.94-.3,.64-.13,1.29-.25,1.94-.38,1.3-.26,2.6-.52,3.92-.78s2.64-.52,3.97-.79c1.32-.3,2.64-.65,3.97-.98,1.33-.33,2.66-.67,4-1.01l2.01-.51c.37-.15,.65,.41,.36,.62-2.21,1.47-4.68,2.92-7.09,4.28-2.45,1.34-4.93,2.63-7.45,3.84-5.04,2.41-10.2,4.59-15.38,6.45-10.35,3.79-20.74,6.47-30.37,8.38-2.4,.52-4.78,.87-7.08,1.28-1.15,.18-2.28,.41-3.41,.55-.98,.13-1.94,.26-2.89,.39-.18,.02-.34,.05-.5,.07-.3,.04-.55,.08-.71,.1-1.2,.17-1.87,.4-2.85,.79Z"/></g><path class="cls-39" d="M432.03,360.13c4.15,.42,7.01,.71,11.84-.14,.65-.11,1.64-.27,2.86-.48,.61-.09,1.28-.23,1.99-.37,1.88-.38,3.82-.78,5.82-1.18,2.1-.5,4.25-1,6.46-1.53,8.8-2.19,18.23-5.25,27.64-9.16,4.69-1.99,9.37-4.2,13.93-6.67,1.15-.6,2.27-1.26,3.4-1.91l.61-.35,.79-.5,1.56-.99,1.56-.99,.39-.25,.19-.12,.1-.06s.02-.03,.02-.04l.15-.33c.17-.43,.45-.9,.54-1.29,0-.21-.05-.64-.22-1.01-.16-.37-.44-.67-.56-.77-.21-.18-.48-.4-1.06-.55-.52-.24-2.06,.28-3.23,.55-1.72,.43-3.44,.87-5.16,1.3-1.21,.3-2.42,.63-3.64,.85-2.44,.48-4.85,.96-7.23,1.44-1.19,.26-2.38,.43-3.57,.61-1.19,.18-2.36,.36-3.53,.54-2.34,.35-4.63,.74-6.9,.96-2.27,.25-4.49,.5-6.65,.75-2.16,.27-4.29,.36-6.35,.54-2.06,.16-4.05,.31-5.98,.45-1.93,.09-3.79,.17-5.57,.25-1.78,.08-3.48,.15-5.09,.22-1.62,.02-3.14,.05-4.58,.07-2.87,.03-5.35,.12-7.39,.08-4.08-.05-6.38-.08-6.38-.08l-1.62-.02c-1.07,0-2.66-.07-4.72-.14-2.06-.08-4.6-.18-7.58-.29-2.98-.18-6.39-.4-10.2-.63-7.61-.63-16.83-1.4-27.26-2.86-5.21-.73-10.74-1.57-16.51-2.62-1.45-.24-2.9-.53-4.37-.83-.74-.15-1.47-.3-2.22-.45-.61-.12-1.23-.25-1.85-.37-.74-.14-1.58-.37-2.1-.25-.24,.05-.48,.11-.66,.18-.17,.08-.34,.17-.52,.29-.37,.26-.75,.69-.96,1.19-.22,.5-.3,1.08-.22,1.58,.03,.25,.11,.48,.18,.66,.08,.18,.15,.34,.31,.54,.1,.18,.33,.38,.55,.59,.28,.2,.61,.38,.98,.55l1.99,.99c.72,.35,1.44,.7,2.16,1.06,6.66,3.24,14.31,6.77,22.35,10.12,4.02,1.68,8.14,3.3,12.28,4.81,2.08,.74,4.14,1.49,6.23,2.16,1.04,.33,2.06,.7,3.11,1,.83,.25,1.65,.49,2.46,.74,1.46,.46,2.88,.81,4.08,1.12,1.2,.31,2.19,.58,2.86,.71,1.21,.26,2.3,.45,3.31,.6,1.02,.13,1.98,.16,2.9,.18,1.84,.08,3.64-.22,5.69-.51-2-.72-3.62-1.18-5.33-1.78-.86-.28-1.74-.5-2.7-.77-.96-.28-1.99-.54-3.16-.8-.65-.13-1.61-.4-2.78-.7-1.17-.31-2.55-.65-3.98-1.1-.8-.24-1.61-.48-2.42-.72-1.02-.29-2.03-.66-3.05-.99-2.05-.65-4.09-1.39-6.14-2.13-4.09-1.49-8.17-3.09-12.15-4.76-7.97-3.32-15.57-6.82-22.19-10.04-.72-.35-1.44-.7-2.15-1.05l-.13-.07s0,0-.01,0h.01s0,.03,0,.02h-.02l.13,.02,.28,.06c.75,.15,1.5,.3,2.24,.45,1.49,.31,2.96,.6,4.42,.84,5.83,1.07,11.39,1.91,16.65,2.64,10.51,1.47,19.79,2.24,27.45,2.87,3.84,.24,7.28,.45,10.27,.63,3,.12,5.56,.21,7.64,.29,2.08,.08,3.67,.15,4.75,.14,1.08,.01,1.64,.02,1.64,.02,0,0,2.32,.03,6.43,.08,2.06,.04,4.56-.05,7.45-.07,1.44-.02,2.99-.04,4.61-.07,1.63-.07,3.34-.14,5.14-.22,1.8-.08,3.67-.16,5.62-.25,1.94-.15,3.96-.3,6.04-.45,2.08-.18,4.22-.27,6.41-.54,2.19-.25,4.44-.5,6.73-.75,2.3-.22,4.62-.62,6.99-.97,1.18-.18,2.38-.36,3.58-.54,1.2-.18,2.41-.36,3.62-.62,2.42-.48,4.87-.96,7.34-1.46,1.24-.22,2.47-.55,3.7-.86l1.85-.47,.36-.09h0s-.05,0-.02,0h.02l-.23,.12c-1.1,.63-2.19,1.27-3.31,1.86-4.45,2.42-9.04,4.58-13.65,6.53-9.24,3.83-18.52,6.84-27.18,9-2.17,.51-4.3,1.02-6.37,1.5-1.97,.4-3.88,.79-5.74,1.17-.7,.15-1.36,.28-1.96,.37-1.2,.21-2.17,.37-2.82,.49-4.76,.89-7.41,1.68-11.31,3.26Z"/><path class="cls-39" d="M565.89,413.38c12.62,15.85,21.91,34.41,28.91,53.35,7.76,21.02,12.88,43.15,14.64,65.5,1.68,21.29,.43,43.15-6.17,63.57s-20.35,39.2-39.19,50.94-42.43,16.45-64.63,15.59c-20.97-.81-41.39-7.07-59.89-16.8s-33.73-21.6-48.13-35.45c-12.71-12.22-24.26-25.68-34.5-40.04-14.63-20.52-26.4-43.07-35.03-66.73s-14.61-50.06-16.38-76.01c-.43-6.28-.62-12.58-.58-18.87,.02-3.08-4.77-3.08-4.79,0-.15,26.6,3.88,53.21,11.39,78.71s18.36,49.75,32.42,72.12c10.13,16.12,21.95,31.25,35.04,45.07,13.88,14.66,29.38,27.95,46.53,38.65,18.06,11.26,38.19,19.61,59.32,22.74,22.46,3.33,46.5,1.16,67.56-7.63s39.23-25.32,49.48-46.09c9.65-19.54,13.01-41.87,13-63.49-.01-22.99-3.85-46.03-10.45-68.02-6.2-20.69-14.89-40.95-26.81-59.01-2.61-3.95-5.4-7.79-8.35-11.49-.81-1.01-2.54-.84-3.38,0-1,1-.81,2.37,0,3.38h0Z"/><path class="cls-16" d="M453.96,685.14"/><ellipse class="cls-9" cx="303.36" cy="272.6" rx="27.12" ry="25.92" transform="translate(-88.11 387.01) rotate(-58.23)"/><ellipse class="cls-36" cx="303.3" cy="274.47" rx="19.19" ry="18.88" transform="translate(-54.78 76.72) rotate(-13.23)"/><circle class="cls-4" cx="293.03" cy="264.03" r="9.5"/><ellipse class="cls-9" cx="557" cy="272.6" rx="27.12" ry="25.92" transform="translate(32 602.66) rotate(-58.23)"/><ellipse class="cls-36" cx="556.94" cy="274.47" rx="19.19" ry="18.88" transform="translate(-48.04 134.79) rotate(-13.23)"/><circle class="cls-4" cx="546.67" cy="264.03" r="9.5"/><g><path class="cls-8" d="M617.76,535.23c1.07-.89,1.71-2.2,1.77-3.59l-1.48-29.66c.18-4.21-4.65-6.68-7.97-4.09-73.87,57.69-179.65,95.3-275.31,54.52-2.11-.9,12.62,24.77,19.51,36.91,2.26,3.98,5.95,6.97,10.32,8.34,90.6,28.22,179.36-1.05,253.16-62.43Z"/><circle id="SVGID" class="cls-35" cx="490.57" cy="578.54" r="12.26"/><circle id="SVGID-2" class="cls-29" cx="550.15" cy="556.49" r="12.26"/><circle id="SVGID-3" class="cls-23" cx="598.52" cy="528.22" r="12.26"/><circle id="SVGID-4" class="cls-32" cx="459.75" cy="585.3" r="12.26"/><circle id="SVGID-5" class="cls-33" cx="520.01" cy="570.53" r="12.26"/><circle id="SVGID-6" class="cls-25" cx="575.36" cy="543.95" r="12.26"/></g><g><g><ellipse class="cls-4" cx="372.45" cy="600.06" rx="49.81" ry="25.89"/><ellipse class="cls-6" cx="372.45" cy="600.06" rx="49.81" ry="25.89"/><ellipse class="cls-21" cx="372.45" cy="600.06" rx="49.81" ry="25.89"/></g><path class="cls-7" d="M317.22,591.5c-.18,1.69-.27,3.4-.27,5.13,0,28.66,24.85,51.89,55.5,51.89s55.5-23.23,55.5-51.89c0-1.73-.09-3.44-.27-5.13h-110.46Z"/><g><circle class="cls-12" cx="352.14" cy="616.93" r="6.84"/><circle class="cls-12" cx="372.45" cy="616.93" r="6.84"/><circle class="cls-12" cx="392.76" cy="616.93" r="6.84"/></g><line class="cls-3" x1="427.77" y1="600.35" x2="317.14" y2="600.35"/><line class="cls-3" x1="427.77" y1="604.11" x2="317.14" y2="604.11"/></g><path class="cls-39" d="M529.26,425.61c6.74-.66,11.23-1.29,18.67-3.88,1.01-.35,2.51-.89,4.39-1.55,.93-.33,1.96-.7,3.06-1.1,3.06-1.12,6.17-2.25,9.33-3.41,3.6-1.34,7.24-2.72,10.93-4.16,7.37-2.88,14.89-5.97,22.5-9.38,15.19-6.82,30.8-14.79,45.62-25.12,7.39-5.18,14.56-10.97,21.12-17.59,6.55-6.61,12.49-14.08,17.18-22.42,.63-1.02,1.16-2.09,1.68-3.17l1.59-3.23c.52-1.08,.92-2.22,1.39-3.33,.44-1.12,.93-2.22,1.32-3.37l1.09-3.46c.36-1.15,.76-2.3,.99-3.49,.51-2.37,1.19-4.69,1.47-7.12,1.53-9.61,1.09-19.66-1.56-29.06-2.55-9.43-6.76-18.31-12-26.37-5.2-8.09-11.27-15.56-17.75-22.39l-2.41-2.54-2.32-2.59c-1.59-1.74-3.2-3.46-4.83-5.14-3.28-3.37-6.64-6.62-10.09-9.75-6.89-6.26-14.08-12.05-21.44-17.4-14.72-10.69-30.12-19.67-45.45-26.97-1.91-.93-3.81-1.85-5.7-2.77-.94-.46-1.89-.92-2.83-1.37-.95-.44-1.91-.84-2.86-1.27-3.81-1.67-7.57-3.32-11.29-4.95-3.76-1.53-7.52-2.94-11.2-4.39-1.85-.69-3.65-1.49-5.52-2.08-1.85-.62-3.69-1.24-5.51-1.85-1.82-.61-3.63-1.22-5.43-1.82-.9-.3-1.79-.6-2.68-.9-.9-.26-1.81-.51-2.7-.76-3.59-1.01-7.12-2-10.58-2.97-1.72-.52-3.47-.88-5.19-1.27-1.72-.39-3.43-.77-5.12-1.15-3.39-.72-6.67-1.6-9.97-2.06-6.56-1.05-12.8-2.27-18.81-2.76-3-.32-5.91-.63-8.74-.93-1.41-.19-2.82-.18-4.19-.27-1.38-.07-2.74-.13-4.07-.19-2.67-.13-5.25-.25-7.74-.37-.62-.02-1.24-.07-1.85-.07-.61,0-1.22,.01-1.82,.02-1.2,.01-2.37,.03-3.52,.04-2.3,.03-4.51,.05-6.61,.07-1.05,.01-2.08,.02-3.08,.03-.5,0-1,.01-1.48,.02-.49,.03-.97,.06-1.44,.1-3.79,.26-7.17,.5-10.11,.7-1.47,.1-2.82,.2-4.07,.28-.62,.04-1.21,.08-1.78,.12-.56,.07-1.09,.14-1.59,.2-4.01,.5-6.13,.77-6.13,.77,0,0-2.12,.27-6.13,.77-1,.13-2.12,.27-3.36,.42-1.23,.16-2.56,.45-4.01,.7-2.89,.52-6.22,1.13-9.96,1.81-14.87,2.98-36.2,7.88-61.09,16.92-12.48,4.35-25.9,9.56-39.97,15.69-14.03,6.2-28.71,13.4-43.19,22.43-7.23,4.52-14.4,9.52-21.27,15.17-6.85,5.66-13.48,11.92-19.25,19.13-1.41,1.83-2.89,3.61-4.17,5.56-.66,.96-1.34,1.91-1.98,2.88l-1.83,3-.92,1.5-.83,1.56-1.65,3.13c-.51,1.06-.97,2.16-1.46,3.24-.48,1.08-.99,2.16-1.36,3.29l-1.23,3.36c-.4,1.12-.68,2.29-1.02,3.44-.73,2.28-1.14,4.65-1.64,7-.27,1.17-.35,2.38-.53,3.57-.13,1.2-.37,2.38-.41,3.59-.11,2.41-.33,4.82-.25,7.23,.11,9.67,2.17,19.35,5.81,28.35,3.62,9.01,8.74,17.34,14.64,24.94,5.91,7.61,12.61,14.5,19.71,20.83,7.1,6.34,14.59,12.13,22.27,17.5,15.37,10.74,31.43,19.86,47.36,27.99,7.97,4.06,15.92,7.87,23.79,11.46,3.93,1.8,7.85,3.55,11.73,5.25,1.95,.84,3.88,1.68,5.81,2.52,1.61,.68,3.2,1.36,4.79,2.04,4.8,2.03,8.75,3.65,10.72,4.45,7.3,2.96,11.78,3.8,18.48,4.73-5.49-3.97-9.29-6.44-16.53-9.46-1.96-.82-5.88-2.46-10.66-4.47-1.58-.67-3.17-1.35-4.77-2.03-1.91-.83-3.84-1.67-5.77-2.51-3.86-1.69-7.75-3.42-11.66-5.21-7.81-3.57-15.7-7.35-23.6-11.37-15.78-8.05-31.65-17.07-46.75-27.62-7.54-5.27-14.88-10.94-21.79-17.12-6.92-6.16-13.41-12.85-19.08-20.15-5.67-7.29-10.52-15.22-13.93-23.7-3.42-8.46-5.33-17.48-5.44-26.49-.08-2.26,.13-4.5,.23-6.75,.03-1.12,.26-2.23,.38-3.34,.17-1.11,.23-2.23,.49-3.32,.47-2.19,.84-4.39,1.53-6.52,.32-1.07,.57-2.15,.95-3.2l1.15-3.14c.35-1.06,.82-2.06,1.28-3.08,.46-1.01,.89-2.03,1.37-3.03l1.55-2.94,.78-1.47,.87-1.42,1.73-2.83c.61-.92,1.26-1.82,1.88-2.73,1.21-1.84,2.63-3.54,3.97-5.28,5.5-6.87,11.88-12.9,18.51-18.39,6.66-5.47,13.65-10.35,20.73-14.78,14.18-8.85,28.65-15.96,42.53-22.09,13.91-6.06,27.24-11.24,39.62-15.56,24.65-8.95,45.69-13.78,60.35-16.72,3.68-.67,6.96-1.26,9.81-1.78,1.43-.25,2.74-.53,3.95-.69,1.21-.15,2.32-.29,3.3-.42,3.95-.5,6.04-.76,6.04-.76,0,0,2.09-.26,6.04-.76,.49-.06,1.02-.13,1.57-.2,.55-.04,1.14-.08,1.75-.12,1.22-.08,2.55-.18,4-.27,2.89-.2,6.21-.43,9.94-.69,.47-.03,.94-.06,1.42-.09,.48,0,.97-.01,1.46-.02,.98-.01,1.99-.02,3.03-.03,2.07-.02,4.23-.05,6.5-.07,1.13-.01,2.28-.03,3.46-.04,.59,0,1.18-.01,1.78-.02,.6,0,1.2,.05,1.81,.07,2.44,.12,4.98,.24,7.6,.36,1.31,.06,2.64,.13,4,.19,1.35,.08,2.73,.08,4.12,.27,2.78,.3,5.64,.6,8.58,.92,5.9,.47,12.02,1.68,18.46,2.71,3.23,.45,6.46,1.31,9.79,2.02,1.66,.37,3.34,.75,5.03,1.13,1.69,.38,3.41,.73,5.1,1.25,3.41,.96,6.88,1.93,10.4,2.92,.88,.25,1.77,.5,2.66,.75,.88,.29,1.76,.59,2.64,.89,1.77,.59,3.55,1.19,5.34,1.8,1.79,.6,3.6,1.21,5.42,1.82,1.83,.58,3.61,1.37,5.43,2.05,3.63,1.43,7.33,2.82,11.04,4.33,3.67,1.61,7.38,3.24,11.14,4.89,.94,.42,1.89,.82,2.82,1.25,.93,.45,1.86,.9,2.79,1.36,1.87,.91,3.75,1.82,5.63,2.73,30.2,14.46,60.62,35.17,85.01,63.27,6.37,6.73,12.2,13.92,17.19,21.67,5.03,7.72,8.98,16.12,11.36,24.92,2.48,8.78,2.86,18.01,1.45,26.92-.24,2.24-.9,4.44-1.37,6.66-.22,1.12-.59,2.19-.93,3.27l-1.02,3.24c-.37,1.07-.83,2.1-1.24,3.15-.44,1.04-.81,2.11-1.3,3.13l-1.5,3.04c-.49,1.02-.98,2.03-1.58,2.99-4.42,7.86-10.06,14.96-16.34,21.3-6.29,6.35-13.22,11.96-20.41,17-14.42,10.06-29.77,17.91-44.77,24.64-7.51,3.36-14.96,6.43-22.27,9.28-3.66,1.42-7.27,2.8-10.85,4.13-3.14,1.15-6.24,2.28-9.28,3.39-1.09,.39-2.11,.76-3.04,1.1-1.86,.67-3.36,1.21-4.36,1.56-7.39,2.66-11.31,4.96-16.96,8.7Z"/></g></symbol><radialGradient id="radial-gradient-17" cx="959.6" cy="959.6" fx="959.6" fy="959.6" r="1556.74" gradientTransform="matrix(1, 0, 0, 1, 0, 0)" gradientUnits="userSpaceOnUse"><stop offset=".13" stop-color="#e8f6fe"/><stop offset=".18" stop-color="#bccfe9"/><stop offset=".23" stop-color="#92aad5"/><stop offset=".29" stop-color="#728ec6"/><stop offset=".34" stop-color="#5a79ba"/><stop offset=".38" stop-color="#4c6db4"/><stop offset=".43" stop-color="#4869b2"/><stop offset=".82" stop-color="#0f3557"/></radialGradient><clipPath id="clippath"><path id="SVGID-7" class="cls-10" d="M1812.58,45.71H106.61c-29.42,0-53.26,23.85-53.26,53.26V1820.22c0,29.42,23.85,53.26,53.26,53.26H1812.58c29.42,0,53.26-23.85,53.26-53.26V98.97c0-29.42-23.85-53.26-53.26-53.26ZM956.6,1308.06c-192.45,0-348.46-156.01-348.46-348.46s156.01-348.46,348.46-348.46,348.46,156.01,348.46,348.46-156.01,348.46-348.46,348.46Z"/></clipPath></defs><g id="Layer_1-2"><path class="cls-34" d="M1919.2,1919.2H0V0H1919.2V1919.2Zm-613.16-959.04c0-193.22-156.63-349.85-349.85-349.85s-349.85,156.63-349.85,349.85,156.63,349.85,349.85,349.85,349.85-156.63,349.85-349.85Z"/><g><g><g><circle class="cls-17" cx="956.6" cy="959.6" r="449.75"/><circle class="cls-17" cx="956.6" cy="959.6" r="508.2"/><circle class="cls-17" cx="956.6" cy="959.6" r="370.35"/><circle class="cls-17" cx="956.6" cy="959.6" r="407.11"/><circle class="cls-17" cx="956.6" cy="959.6" r="582.82"/><circle class="cls-17" cx="956.6" cy="959.6" r="692.42"/><circle class="cls-17" cx="956.6" cy="959.6" r="847.07"/></g><g><g class="cls-30"><g><line class="cls-17" x1="956.6" y1="1032.64" x2="956.6" y2="2575.52"/><line class="cls-17" x1="975.72" y1="1030.57" x2="1375.05" y2="2520.87"/><line class="cls-17" x1="993.66" y1="1023.61" x2="1765.1" y2="2359.78"/><line class="cls-17" x1="1009.19" y1="1012.25" x2="2100.17" y2="2103.23"/><line class="cls-17" x1="1021.24" y1="997.26" x2="2357.41" y2="1768.7"/><line class="cls-17" x1="1029.01" y1="979.66" x2="2519.31" y2="1378.99"/><line class="cls-18" x1="1031.96" y1="960.65" x2="2574.83" y2="960.65"/><line class="cls-17" x1="1029.88" y1="941.53" x2="2520.19" y2="542.2"/><line class="cls-17" x1="1022.93" y1="923.59" x2="2359.1" y2="152.15"/><line class="cls-17" x1="1011.57" y1="908.07" x2="2102.55" y2="-182.91"/><line class="cls-17" x1="996.58" y1="896.01" x2="1768.02" y2="-440.16"/><line class="cls-17" x1="978.98" y1="888.24" x2="1378.31" y2="-602.06"/><line class="cls-17" x1="959.97" y1="885.3" x2="959.97" y2="-657.58"/><line class="cls-17" x1="940.84" y1="887.37" x2="541.52" y2="-602.94"/><line class="cls-17" x1="922.91" y1="894.32" x2="151.47" y2="-441.85"/><line class="cls-17" x1="907.38" y1="905.68" x2="-183.6" y2="-185.3"/><line class="cls-17" x1="895.32" y1="920.67" x2="-440.85" y2="149.23"/><line class="cls-17" x1="887.56" y1="938.27" x2="-602.75" y2="538.95"/><line class="cls-17" x1="884.61" y1="957.28" x2="-658.27" y2="957.28"/><line class="cls-17" x1="886.69" y1="976.41" x2="-603.62" y2="1375.73"/><line class="cls-17" x1="893.64" y1="994.34" x2="-442.53" y2="1765.78"/><line class="cls-17" x1="905" y1="1009.87" x2="-185.98" y2="2100.85"/><line class="cls-17" x1="919.99" y1="1021.93" x2="148.55" y2="2358.1"/><line class="cls-17" x1="937.59" y1="1029.69" x2="538.26" y2="2520"/></g></g><path id="SVGID-8" class="cls-10" d="M1812.58,45.71H106.61c-29.42,0-53.26,23.85-53.26,53.26V1820.22c0,29.42,23.85,53.26,53.26,53.26H1812.58c29.42,0,53.26-23.85,53.26-53.26V98.97c0-29.42-23.85-53.26-53.26-53.26ZM956.6,1308.06c-192.45,0-348.46-156.01-348.46-348.46s156.01-348.46,348.46-348.46,348.46,156.01,348.46,348.46-156.01,348.46-348.46,348.46Z"/></g></g><circle class="cls-17" cx="956.6" cy="959.6" r="348.46"/></g><rect class="cls-19" x="774.47" y="103.04" width="370.26" height="54.68" rx="8.48" ry="8.48"/><g><g><g><line class="cls-13" x1="749.64" y1="130.16" x2="732.39" y2="130.16"/><line class="cls-13" x1="741.02" y1="138.78" x2="741.02" y2="121.53"/></g><g><line class="cls-13" x1="716.73" y1="130.16" x2="699.48" y2="130.16"/><line class="cls-13" x1="708.1" y1="138.78" x2="708.1" y2="121.53"/></g><g><line class="cls-13" x1="683.82" y1="130.16" x2="666.57" y2="130.16"/><line class="cls-13" x1="675.19" y1="138.78" x2="675.19" y2="121.53"/></g></g><g><g><line class="cls-13" x1="1170.44" y1="130.16" x2="1187.69" y2="130.16"/><line class="cls-13" x1="1179.07" y1="138.78" x2="1179.07" y2="121.53"/></g><g><line class="cls-13" x1="1203.35" y1="130.16" x2="1220.6" y2="130.16"/><line class="cls-13" x1="1211.98" y1="138.78" x2="1211.98" y2="121.53"/></g><g><line class="cls-13" x1="1236.27" y1="130.16" x2="1253.51" y2="130.16"/><line class="cls-13" x1="1244.89" y1="138.78" x2="1244.89" y2="121.53"/></g></g><text class="cls-5" transform="translate(865.96 140.24)"><tspan x="0" y="0">LESSON</tspan></text></g><g><g><line class="cls-17" x1="39.93" y1="1800.59" x2="39.93" y2="959.41"/><line class="cls-17" x1="29.6" y1="1800.59" x2="29.6" y2="959.41"/><line class="cls-17" x1="59.88" y1="959.41" x2="59.88" y2="1800.59"/></g><g><path class="cls-17" d="M171.58,1887.23H84.94c-24.86,0-45.01-20.15-45.01-45.01v-38.68"/><path class="cls-17" d="M171.58,1897.43H84.26c-30.19,0-54.66-24.47-54.66-54.66v-39.24"/><path class="cls-17" d="M59.88,1803.54v34.47c0,18.71,15.17,33.88,33.88,33.88h77.81"/><g><path class="cls-17" d="M169.85,1859.77h-45.23c-1.66,0-3.14-1.24-3.23-2.89-.09-1.76,1.31-3.22,3.05-3.22h45.4v6.12Z"/><rect class="cls-17" x="108.3" y="1853.65" width="6.3" height="6.12" rx="3.06" ry="3.06"/><path class="cls-17" d="M169.85,1845.01H104.49c-1.69,0-3.06,1.37-3.06,3.06v8.65c0,1.69-1.37,3.06-3.06,3.06h-6.97c-.84,0-1.64-.34-2.22-.95l-14.04-14.76c-1.85-1.95-.47-5.17,2.22-5.17h92.49v6.12Z"/></g></g><g><line class="cls-17" x1="39.93" y1="122.91" x2="39.93" y2="955.19"/><line class="cls-17" x1="29.6" y1="122.91" x2="29.6" y2="955.19"/><line class="cls-17" x1="59.88" y1="955.19" x2="59.88" y2="122.91"/></g><g><path class="cls-17" d="M171.58,36.27H84.94c-24.86,0-45.01,20.15-45.01,45.01v38.68"/><path class="cls-17" d="M171.58,26.06H84.26c-30.19,0-54.66,24.47-54.66,54.66v39.24"/><path class="cls-17" d="M59.88,119.95v-34.47c0-18.71,15.17-33.88,33.88-33.88h77.81"/><path class="cls-17" d="M169.85,63.72h-45.23c-1.66,0-3.14,1.24-3.23,2.89-.09,1.76,1.31,3.22,3.05,3.22h45.4v-6.12Z"/><rect class="cls-17" x="108.3" y="63.72" width="6.3" height="6.12" rx="3.06" ry="3.06"/><path class="cls-17" d="M169.85,78.49H104.49c-1.69,0-3.06-1.37-3.06-3.06v-8.65c0-1.69-1.37-3.06-3.06-3.06h-6.97c-.84,0-1.64,.34-2.22,.95l-14.04,14.76c-1.85,1.95-.47,5.17,2.22,5.17h92.49v-6.12Z"/></g><g><line class="cls-17" x1="178.29" y1="36.35" x2="958.77" y2="36.35"/><line class="cls-17" x1="178.29" y1="26.14" x2="958.77" y2="26.14"/><rect class="cls-17" x="178.29" y="78.49" width="105.76" height="6.12"/><path class="cls-17" d="M178.29,70.73H894.78c1.66,0,3.14-1.24,3.23-2.89,.09-1.76-1.31-3.22-3.05-3.22H178.29v6.12Z"/><rect class="cls-17" x="904.81" y="65.21" width="6.3" height="6.12" rx="3.06" ry="3.06"/><path class="cls-17" d="M178.29,56.56H914.92c1.69,0,3.06,1.37,3.06,3.06v8.65c0,1.69,1.37,3.06,3.06,3.06h6.97c.84,0,1.64-.34,2.22-.95l14.04-14.76c1.85-1.95,.47-5.17-2.22-5.17H178.29v6.12Z"/></g><g><line class="cls-17" x1="720.7" y1="1887.23" x2="178.29" y2="1887.23"/><line class="cls-17" x1="720.7" y1="1897.43" x2="178.29" y2="1897.43"/><polyline class="cls-17" points="720.7 1846.37 178.29 1846.37 178.29 1838.63 720.7 1838.63"/><polyline class="cls-17" points="720.7 1873.09 178.29 1873.09 178.29 1852.72 720.7 1852.72"/></g><g><line class="cls-17" x1="955.83" y1="1887.23" x2="726.7" y2="1887.23"/><polyline class="cls-17" points="955.83 1897.43 836.94 1897.43 726.7 1897.43"/><path class="cls-17" d="M726.7,1852.72h57.06c1.75,0,3.17,1.42,3.17,3.17v8.97c0,1.75,1.42,3.17,3.17,3.17h7.23c.87,0,1.7-.36,2.3-.99l14.56-15.32c1.92-2.02,.49-5.36-2.3-5.36h-85.2"/><polyline class="cls-17" points="726.7 1838.63 836.94 1838.63 804.29 1873.09 726.7 1873.09"/><g><path class="cls-17" d="M935.31,1873.63h-122.98l33.51-35h71c14.15,0,21.66,4.86,21.66,19.8v11.84c0,1.86-1.43,3.36-3.19,3.36Z"/><g><path class="cls-17" d="M927.4,1868.04h-92.78c-2.79,0-4.22-3.34-2.3-5.36l14.56-15.32c.6-.63,1.43-.99,2.3-.99h7.23c1.75,0,3.17,1.42,3.17,3.17v8.97c0,1.75,1.42,3.17,3.17,3.17h64.64c1.75,0,3.17,1.42,3.17,3.17h0c0,1.75-1.42,3.17-3.17,3.17Z"/><g><circle class="cls-17" cx="869.51" cy="1849.36" r="3.32"/><circle class="cls-17" cx="883.31" cy="1849.36" r="3.32"/><circle class="cls-17" cx="897.1" cy="1849.36" r="3.32"/><circle class="cls-17" cx="910.9" cy="1849.36" r="3.32"/></g></g></g></g><g><line class="cls-17" x1="1885.08" y1="1800.59" x2="1885.08" y2="959.41"/><line class="cls-17" x1="1895.41" y1="1800.59" x2="1895.41" y2="959.41"/><line class="cls-17" x1="1865.12" y1="959.41" x2="1865.12" y2="1800.59"/></g><g><path class="cls-17" d="M1753.42,1887.23h86.64c24.86,0,45.01-20.15,45.01-45.01v-38.68"/><path class="cls-17" d="M1753.42,1897.43h87.32c30.19,0,54.66-24.47,54.66-54.66v-39.24"/><path class="cls-17" d="M1865.12,1803.54v34.47c0,18.71-15.17,33.88-33.88,33.88h-77.81"/><g><path class="cls-17" d="M1755.15,1859.77h45.23c1.66,0,3.14-1.24,3.23-2.89,.09-1.76-1.31-3.22-3.05-3.22h-45.4v6.12Z"/><rect class="cls-17" x="1810.41" y="1853.65" width="6.3" height="6.12" rx="3.06" ry="3.06"/><path class="cls-17" d="M1755.15,1845.01h65.37c1.69,0,3.06,1.37,3.06,3.06v8.65c0,1.69,1.37,3.06,3.06,3.06h6.97c.84,0,1.64-.34,2.22-.95l14.04-14.76c1.85-1.95,.47-5.17-2.22-5.17h-92.49v6.12Z"/></g></g><g><line class="cls-17" x1="1885.08" y1="122.91" x2="1885.08" y2="955.19"/><line class="cls-17" x1="1895.41" y1="122.91" x2="1895.41" y2="955.19"/><line class="cls-17" x1="1865.12" y1="955.19" x2="1865.12" y2="122.91"/></g><g><path class="cls-17" d="M1753.42,36.27h86.64c24.86,0,45.01,20.15,45.01,45.01v38.68"/><path class="cls-17" d="M1753.42,26.06h87.32c30.19,0,54.66,24.47,54.66,54.66v39.24"/><path class="cls-17" d="M1865.12,119.95v-34.47c0-18.71-15.17-33.88-33.88-33.88h-77.81"/><path class="cls-17" d="M1755.15,63.72h45.23c1.66,0,3.14,1.24,3.23,2.89,.09,1.76-1.31,3.22-3.05,3.22h-45.4v-6.12Z"/><rect class="cls-17" x="1810.41" y="63.72" width="6.3" height="6.12" rx="3.06" ry="3.06"/><path class="cls-17" d="M1755.15,78.49h65.37c1.69,0,3.06-1.37,3.06-3.06v-8.65c0-1.69,1.37-3.06,3.06-3.06h6.97c.84,0,1.64,.34,2.22,.95l14.04,14.76c1.85,1.95,.47,5.17-2.22,5.17h-92.49v-6.12Z"/></g><g><line class="cls-17" x1="1746.72" y1="36.35" x2="966.23" y2="36.35"/><line class="cls-17" x1="1746.72" y1="26.14" x2="966.23" y2="26.14"/><rect class="cls-17" x="1640.95" y="78.49" width="105.76" height="6.12"/><path class="cls-17" d="M1746.72,70.73h-716.49c-1.66,0-3.14-1.24-3.23-2.89-.09-1.76,1.31-3.22,3.05-3.22h716.66v6.12Z"/><rect class="cls-17" x="1013.9" y="65.21" width="6.3" height="6.12" rx="3.06" ry="3.06"/><path class="cls-17" d="M1746.72,56.56H1010.09c-1.69,0-3.06,1.37-3.06,3.06v8.65c0,1.69-1.37,3.06-3.06,3.06h-6.97c-.84,0-1.64-.34-2.22-.95l-14.04-14.76c-1.85-1.95-.47-5.17,2.22-5.17h763.75v6.12Z"/></g><g><line class="cls-17" x1="1204.3" y1="1887.23" x2="1746.72" y2="1887.23"/><line class="cls-17" x1="1204.3" y1="1897.43" x2="1746.72" y2="1897.43"/><polyline class="cls-17" points="1204.3 1846.37 1746.72 1846.37 1746.72 1838.63 1204.3 1838.63"/><polyline class="cls-17" points="1204.3 1873.09 1746.72 1873.09 1746.72 1852.72 1204.3 1852.72"/></g><g><line class="cls-17" x1="969.18" y1="1887.23" x2="1198.3" y2="1887.23"/><polyline class="cls-17" points="969.18 1897.43 1088.06 1897.43 1198.3 1897.43"/><path class="cls-17" d="M1198.3,1852.72h-57.06c-1.75,0-3.17,1.42-3.17,3.17v8.97c0,1.75-1.42,3.17-3.17,3.17h-7.23c-.87,0-1.7-.36-2.3-.99l-14.56-15.32c-1.92-2.02-.49-5.36,2.3-5.36h85.2"/><polyline class="cls-17" points="1198.3 1838.63 1088.06 1838.63 1120.71 1873.09 1198.3 1873.09"/><g><path class="cls-17" d="M989.7,1873.63h122.98l-33.51-35h-71c-14.15,0-21.66,4.86-21.66,19.8v11.84c0,1.86,1.43,3.36,3.19,3.36Z"/><g><path class="cls-17" d="M997.6,1868.04h92.78c2.79,0,4.22-3.34,2.3-5.36l-14.56-15.32c-.6-.63-1.43-.99-2.3-.99h-7.23c-1.75,0-3.17,1.42-3.17,3.17v8.97c0,1.75-1.42,3.17-3.17,3.17h-64.64c-1.75,0-3.17,1.42-3.17,3.17h0c0,1.75,1.42,3.17,3.17,3.17Z"/><g><path class="cls-17" d="M1052.17,1849.36c0-1.83,1.49-3.32,3.32-3.32s3.32,1.49,3.32,3.32-1.49,3.32-3.32,3.32-3.32-1.49-3.32-3.32Z"/><path class="cls-17" d="M1038.38,1849.36c0-1.83,1.49-3.32,3.32-3.32s3.32,1.49,3.32,3.32c0,1.83-1.49,3.32-3.32,3.32-1.83,0-3.32-1.49-3.32-3.32Z"/><circle class="cls-17" cx="1027.9" cy="1849.36" r="3.32"/><circle class="cls-17" cx="1014.1" cy="1849.36" r="3.32"/></g></g></g></g><circle class="cls-17" cx="962.5" cy="1859.77" r="6.7"/><circle class="cls-17" cx="962.5" cy="61.45" r="6.7"/></g><use width="893.57" height="903.07" transform="translate(702.5 707.48) scale(.55)" xlink:href="#Character_Deafault_1_2"/></g></svg>
