<?xml version="1.0" encoding="UTF-8"?><svg xmlns="http://www.w3.org/2000/svg" xmlns:xlink="http://www.w3.org/1999/xlink" viewBox="0 0 110 110"><defs><style>.f{fill:#f4f4f4;}.g{fill:url(#d);}.h{fill:#fff;stroke-linejoin:round;}.h,.i{stroke:#000;stroke-linecap:round;stroke-width:1.83px;}.i{fill:none;stroke-miterlimit:10;}</style><radialGradient id="d" cx="54.28" cy="65.02" fx="54.28" fy="65.02" r="55.27" gradientTransform="translate(.99 -9.7)" gradientUnits="userSpaceOnUse"><stop offset=".12" stop-color="#339dd4"/><stop offset=".32" stop-color="#3099d4"/><stop offset=".5" stop-color="#2a8ed5"/><stop offset=".68" stop-color="#1f7bd7"/><stop offset=".86" stop-color="#1061da"/><stop offset="1" stop-color="#0046de"/></radialGradient></defs><g id="a"/><g id="b"><g id="c"><g><circle id="e" class="g" cx="55" cy="55" r="55"/><g><g><g><ellipse cx="35.25" cy="44.57" rx="8.02" ry="14.44"/><ellipse class="f" cx="36.44" cy="39.22" rx="3.86" ry="6.95"/></g><g><ellipse cx="75.26" cy="44.57" rx="8.02" ry="14.44"/><ellipse class="f" cx="76.45" cy="39.22" rx="3.86" ry="6.95"/></g></g><path class="i" d="M41.11,12.02c-6.34,1-11.94,3.51-16.61,7.22"/><path class="i" d="M68.89,12.02c6.34,1,11.94,3.51,16.61,7.22"/><path class="h" d="M53.89,101.23c-9.44,0-17.91-12.72-23.89-33.33,5.98,4.66,14.45,7.78,23.89,7.78,9.44,0,17.91-3.12,23.89-7.78-5.98,20.61-14.45,33.33-23.89,33.33Z"/></g></g></g></g></svg>