<?xml version="1.0" encoding="UTF-8"?><svg xmlns="http://www.w3.org/2000/svg" xmlns:xlink="http://www.w3.org/1999/xlink" viewBox="0 0 110 110"><defs><style>.f,.g{fill:#fff;}.h,.i{fill:none;}.h,.i,.g{stroke:#000;stroke-linecap:round;stroke-width:1.83px;}.h,.g{stroke-linejoin:round;}.i{stroke-miterlimit:10;}.j{fill:url(#d);}</style><radialGradient id="d" cx="54.28" cy="65.59" fx="54.28" fy="65.59" r="55.27" gradientTransform="translate(.99 -10.26)" gradientUnits="userSpaceOnUse"><stop offset=".12" stop-color="#339dd4"/><stop offset=".32" stop-color="#3099d4"/><stop offset=".5" stop-color="#2a8ed5"/><stop offset=".68" stop-color="#1f7bd7"/><stop offset=".86" stop-color="#1061da"/><stop offset="1" stop-color="#0046de"/></radialGradient></defs><g id="a"/><g id="b"><g id="c"><g><circle id="e" class="j" cx="55" cy="55" r="55"/><g><path class="f" d="M63.33,90c-3.33-1.11-11.12-1.82-18.89,4.44-6.95,5.6-12.22,3.9-9.04-3.14,1.9-4.22,7.25-10.68,14.59-13.53,4.4-1.71,10-2.22,15.56-1.11l-2.22,13.33Z"/><ellipse class="g" cx="36.97" cy="45.51" rx="20.81" ry="11.91" transform="translate(-19.13 62.54) rotate(-67.79)"/><path class="i" d="M44.48,19.25c-4.78,5.99-10.67,10.17-17.26,12.55"/><path class="i" d="M72.76,19.61c4.03,6.52,9.38,11.38,15.63,14.53"/><ellipse class="g" cx="75.75" cy="46.62" rx="11.91" ry="20.81" transform="translate(-6.39 12.5) rotate(-9.06)"/><path class="h" d="M68.89,77.78c-17.78-5.56-30.44,6.78-33.48,13.53-3.18,7.04,2.09,8.74,9.04,3.14,7.76-6.26,15.53-5.28,21.04-4.39"/><path class="h" d="M35.92,90.27c10.94-7.61,25.09-7.02,28.1-7.14"/><line class="h" x1="65.56" y1="77.78" x2="63.33" y2="88.89"/><circle cx="40.56" cy="45" r="3.89"/><circle cx="73.89" cy="46.11" r="3.89"/></g></g></g></g></svg>