<?xml version="1.0" encoding="UTF-8"?><svg xmlns="http://www.w3.org/2000/svg" xmlns:xlink="http://www.w3.org/1999/xlink" viewBox="0 0 110 110"><defs><style>.f{fill:url(#d);}.g{fill:#fff;stroke:#000;stroke-linecap:round;stroke-linejoin:round;stroke-width:1.83px;}</style><radialGradient id="d" cx="54.28" cy="66.16" fx="54.28" fy="66.16" r="55.27" gradientTransform="translate(.99 -10.83)" gradientUnits="userSpaceOnUse"><stop offset=".12" stop-color="#339dd4"/><stop offset=".32" stop-color="#3099d4"/><stop offset=".5" stop-color="#2a8ed5"/><stop offset=".68" stop-color="#1f7bd7"/><stop offset=".86" stop-color="#1061da"/><stop offset="1" stop-color="#0046de"/></radialGradient></defs><g id="a"/><g id="b"><g id="c"><g><circle id="e" class="f" cx="55" cy="55" r="55"/><g><path class="g" d="M12.91,46.51c1.03,6.69,9.57,11.9,19.95,11.9s18.92-5.22,19.95-11.9H12.91Z"/><path d="M16.75,47.43c-.04,.23-.06,.46-.06,.7,0,2.34,1.83,4.24,4.1,4.24s4.1-1.9,4.1-4.24c0-.24-.02-.47-.06-.7h-8.07Z"/><path class="g" d="M57.19,46.51c1.03,6.69,9.57,11.9,19.95,11.9s18.92-5.22,19.95-11.9H57.19Z"/><path d="M61.61,47.43c-.04,.23-.06,.46-.06,.7,0,2.34,1.83,4.24,4.1,4.24s4.1-1.9,4.1-4.24c0-.24-.02-.47-.06-.7h-8.07Z"/></g></g></g></g></svg>