<?xml version="1.0" encoding="UTF-8"?><svg xmlns="http://www.w3.org/2000/svg" xmlns:xlink="http://www.w3.org/1999/xlink" viewBox="0 0 110 110"><defs><style>.f,.g{fill:#fff;}.h{fill:url(#d);}.g,.i{stroke-linejoin:round;}.g,.i,.j{stroke:#000;stroke-linecap:round;stroke-width:1.83px;}.i,.j{fill:none;}.j{stroke-miterlimit:10;}</style><radialGradient id="d" cx="53.71" cy="65.59" fx="53.71" fy="65.59" r="55.27" gradientTransform="translate(1.56 -10.26)" gradientUnits="userSpaceOnUse"><stop offset=".12" stop-color="#339dd4"/><stop offset=".32" stop-color="#3099d4"/><stop offset=".5" stop-color="#2a8ed5"/><stop offset=".68" stop-color="#1f7bd7"/><stop offset=".86" stop-color="#1061da"/><stop offset="1" stop-color="#0046de"/></radialGradient></defs><g id="a"/><g id="b"><g id="c"><g><circle id="e" class="h" cx="55" cy="55" r="55"/><g><path class="g" d="M55.71,81.92c-9.44,0-17.91-4.35-23.89-11.39,5.98,1.59,14.45,2.66,23.89,2.66,15.98,0,21.91-3.81,27.89-5.4-5.98,7.04-14.65,14.14-27.89,14.14Z"/><g><g><path class="f" d="M47.2,47.85c0,.06,0,.13,0,.19,.15,3.5-1.69,8.36-6.65,12.07-7.06,5.3-31.13,4.58-18.31-27.47,0,0,1.26-.65,5.02,1.4,3.76,2.05,7.38,8.13,11.25,10.13,3.86,2.01,5.26,3.82,6.45,3.54l1.2-.27"/><path class="i" d="M47.2,47.85c.2,3.56-2.06,15.01-16.52,14.32-8.4-.4-18.76-10.95-9.01-29.37"/><ellipse cx="40.68" cy="50.63" rx="4.03" ry="4.12"/><path class="j" d="M13,32.39s9.22-2.59,14.27,1.66c5.96,5.01,8.71,8.67,12.28,10.92,2.53,1.59,5.3,2.82,7.62,2.75,3.1-.09,5.17-2.15,3.57-6.94"/></g><g><path class="f" d="M62.8,47.85c0,.06,0,.13,0,.19-.15,3.5,1.69,8.36,6.65,12.07,7.06,5.3,31.13,4.58,18.31-27.47,0,0-1.26-.65-5.02,1.4s-7.38,8.13-11.25,10.13c-3.86,2.01-5.26,3.82-6.45,3.54l-1.2-.27"/><path class="i" d="M62.8,47.85c-.2,3.56,2.06,15.01,16.52,14.32,8.4-.4,18.76-10.95,9.01-29.37"/><ellipse cx="69.32" cy="50.63" rx="4.03" ry="4.12"/><path class="j" d="M97,32.39s-9.22-2.59-14.27,1.66c-5.96,5.01-8.71,8.67-12.28,10.92-2.53,1.59-5.3,2.82-7.62,2.75-3.1-.09-5.17-2.15-3.57-6.94"/></g></g></g></g></g></g></svg>