<svg
   viewBox="0 0 325.29105 703.76001"
   version="1.1"
   id="svg771"
   sodipodi:docname="racoon.svg"
   inkscape:version="1.1 (c4e8f9ed74, 2021-05-24)"
   width="325.29105"
   height="703.76001"
   xmlns:inkscape="http://www.inkscape.org/namespaces/inkscape"
   xmlns:sodipodi="http://sodipodi.sourceforge.net/DTD/sodipodi-0.dtd"
   xmlns:xlink="http://www.w3.org/1999/xlink"
   xmlns="http://www.w3.org/2000/svg"
   xmlns:svg="http://www.w3.org/2000/svg">
  <sodipodi:namedview
     id="namedview773"
     pagecolor="#ffffff"
     bordercolor="#666666"
     borderopacity="1.0"
     inkscape:pageshadow="2"
     inkscape:pageopacity="0.0"
     inkscape:pagecheckerboard="0"
     showgrid="false"
     inkscape:zoom="0.6578125"
     inkscape:cx="627.07838"
     inkscape:cy="408.17102"
     inkscape:window-width="1458"
     inkscape:window-height="1088"
     inkscape:window-x="2028"
     inkscape:window-y="140"
     inkscape:window-maximized="1"
     inkscape:current-layer="svg771" />
  <defs
     id="defs600">
    <style
       id="style2">.cls-1,.cls-22,.cls-27,.cls-28,.cls-32,.cls-33,.cls-37,.cls-42,.cls-43,.cls-62,.cls-65,.cls-67{fill:none;}.cls-12,.cls-13,.cls-14,.cls-2,.cls-21,.cls-23,.cls-44,.cls-57{fill:#fff;}.cls-3{fill:#b3b3b3;}.cls-4{clip-path:url(#clip-path);}.cls-5{fill:#404040;}.cls-6{fill:url(#radial-gradient);}.cls-7{fill:url(#radial-gradient-2);}.cls-10,.cls-8{fill:#4d4d4d;}.cls-12,.cls-13,.cls-14,.cls-22,.cls-23,.cls-27,.cls-29,.cls-32,.cls-33,.cls-62,.cls-65,.cls-67,.cls-9{stroke:#000;}.cls-10,.cls-14,.cls-21,.cls-22,.cls-23,.cls-25,.cls-26,.cls-27,.cls-28,.cls-32,.cls-65,.cls-67,.cls-9{stroke-linecap:round;}.cls-10,.cls-12,.cls-13,.cls-14,.cls-21,.cls-22,.cls-23,.cls-25,.cls-26,.cls-27,.cls-28,.cls-29,.cls-32,.cls-33,.cls-34,.cls-35,.cls-36,.cls-37,.cls-39,.cls-42,.cls-43,.cls-62,.cls-65,.cls-67,.cls-9{stroke-miterlimit:10;}.cls-9{stroke-width:4.84px;}.cls-10,.cls-25,.cls-26{stroke:#4d4d4d;stroke-width:1.2px;}.cls-11{fill:#202020;}.cls-12{stroke-width:1.98px;}.cls-13{stroke-width:2.13px;}.cls-14{stroke-width:2px;}.cls-15{fill:url(#radial-gradient-3);}.cls-16{fill:url(#radial-gradient-4);}.cls-17{fill:url(#radial-gradient-5);}.cls-18{fill:url(#New_Gradient_Swatch_1);}.cls-19{fill:url(#New_Gradient_Swatch_1-2);}.cls-20{fill:url(#New_Gradient_Swatch_1-3);}.cls-21{stroke:#231f20;stroke-width:1.66px;}.cls-22,.cls-23{stroke-width:2.1px;}.cls-24,.cls-29{fill:gray;}.cls-25{fill:#999;}.cls-26,.cls-31{fill:#58ff58;}.cls-27{stroke-width:1.06px;}.cls-28{stroke:#58ff58;stroke-width:2.9px;}.cls-29{stroke-width:2.34px;}.cls-30{fill:url(#radial-gradient-6);}.cls-32{stroke-width:0.97px;}.cls-34,.cls-35,.cls-36,.cls-37,.cls-42,.cls-43{stroke:#fff;}.cls-34,.cls-35,.cls-36,.cls-37{stroke-width:2px;}.cls-34{fill:url(#New_Gradient_Swatch_10);}.cls-35{fill:url(#New_Gradient_Swatch_10-2);}.cls-36{fill:url(#New_Gradient_Swatch_10-3);}.cls-38{fill:url(#New_Gradient_Swatch_10-4);}.cls-39{fill:#f2f2f2;stroke:gray;}.cls-40{opacity:0.55;}.cls-41{fill:#ccc;}.cls-41,.cls-56{opacity:0.36;}.cls-42{stroke-width:2.03px;}.cls-44{font-size:43.55px;}.cls-44,.cls-57{font-family:BalooTammudu2-Bold, &quot;Baloo Tammudu 2&quot;;font-weight:700;}.cls-44,.cls-49{letter-spacing:0.02em;}.cls-45{letter-spacing:0.01em;}.cls-46{letter-spacing:0.02em;}.cls-47{letter-spacing:0.02em;}.cls-48{letter-spacing:0.02em;}.cls-50{letter-spacing:0em;}.cls-51{letter-spacing:0.01em;}.cls-52{letter-spacing:0em;}.cls-53{letter-spacing:0em;}.cls-54{letter-spacing:0.02em;}.cls-55{fill:url(#New_Gradient_Swatch_10-5);}.cls-56{fill:#f9fdff;}.cls-57{font-size:55.57px;letter-spacing:0.05em;}.cls-58{letter-spacing:0.05em;}.cls-59{letter-spacing:0.05em;}.cls-60{letter-spacing:0.05em;}.cls-61{fill:#73b2e5;opacity:0.8;}.cls-62{stroke-width:2.8px;}.cls-63{fill:url(#New_Gradient_Swatch_3);}.cls-64{fill:#f4f4f4;}.cls-65{stroke-width:1.83px;}.cls-66{fill:url(#New_Gradient_Swatch_5);}.cls-67{stroke-width:1.83px;}</style>
    <clipPath
       id="clip-path">
      <path
         id="SVGID"
         class="cls-1"
         d="m 200,326.45 c 9,18.33 69.89,53.47 98.68,34.31 a 20.71,20.71 0 0 0 5.59,-5.8 c 7.09,-10.44 3.63,-24.35 -1.45,-35.5 16.4,14.89 22.21,35.51 21.13,56.19 -0.15,3 -0.45,5.92 -0.87,8.86 -5.07,35.51 -29.35,64.71 -58.6,79.71 -2.92,1.65 -5.87,3.2 -8.82,4.67 a 84.88,84.88 0 0 1 -11.45,4.28 q -5.44,1.79 -11,3.27 c -3.73,1 -7.5,1.91 -11.28,2.75 -24.94,5.54 -52.4,4.37 -75.32,-5.81 -22.92,-10.18 -40.57,-30 -43.08,-52.06 0,0 -9.68,-47.74 19.07,-74.39 46.77,-43.43 67.62,-40.36 77.4,-20.48 z" />
    </clipPath>
    <radialGradient id="radial-gradient" cx="145.27" cy="304.60999" fy="125.08993" r="179.52" gradientUnits="userSpaceOnUse">
      <stop offset="0.21" stop-color="#d6d6d6" id="stop6" />
      <stop offset="0.37" stop-color="#b2b2b2" id="stop8" />
      <stop offset="0.59" stop-color="#878787" id="stop10" />
      <stop offset="0.76" stop-color="#6d6d6d" id="stop12" />
      <stop offset="0.86" stop-color="#636363" id="stop14" />
    </radialGradient>
    <radialGradient id="radial-gradient-2" cx="145.24001" cy="129.06" fy="245.56143" r="372" gradientUnits="userSpaceOnUse">
      <stop offset="0.08" stop-color="#d6d6d6" id="stop17" />
      <stop offset="0.38" stop-color="#a3a3a3" id="stop19" />
      <stop offset="0.68" stop-color="#757575" id="stop21" />
      <stop offset="0.83" stop-color="#636363" id="stop23" />
    </radialGradient>
    <radialGradient id="radial-gradient-3" cx="-22066.43" cy="-23186.051" r="41.52" gradientTransform="matrix(0.2,0,0,0.2,4625.71,5105.74)" gradientUnits="userSpaceOnUse">
      <stop offset="0.28" stop-color="#fff" id="stop26" />
      <stop offset="0.41" stop-color="#fbfbfb" id="stop28" />
      <stop offset="0.54" stop-color="#efefef" id="stop30" />
      <stop offset="0.67" stop-color="#dadada" id="stop32" />
      <stop offset="0.8" stop-color="#bebebe" id="stop34" />
      <stop offset="0.93" stop-color="#9a9a9a" id="stop36" />
      <stop offset="0.95" stop-color="#949494" id="stop38" />
    </radialGradient>
    <radialGradient id="radial-gradient-4" cx="-21875.801" cy="-23285.67" r="41.52" xlink:href="#radial-gradient-3" />
    <radialGradient id="radial-gradient-5" cx="-21725.49" cy="-23401.369" r="41.52" xlink:href="#radial-gradient-3" />
    <radialGradient id="New_Gradient_Swatch_1" cx="56.16" cy="377.72" r="8.4700003" gradientTransform="translate(78.13,27.59)" gradientUnits="userSpaceOnUse">
      <stop offset="0.07" stop-color="#919191" id="stop43" />
      <stop offset="0.21" stop-color="#828283" id="stop45" />
      <stop offset="0.47" stop-color="#5c5c60" id="stop47" />
      <stop offset="0.83" stop-color="#1f1f27" id="stop49" />
      <stop offset="1" stop-color="#00000a" id="stop51" />
    </radialGradient>
    <radialGradient id="New_Gradient_Swatch_1-2" cx="96.129997" cy="362.32999" r="8.4700003" xlink:href="#New_Gradient_Swatch_1" />
    <radialGradient id="New_Gradient_Swatch_1-3" cx="131.71001" cy="339.29001" r="8.4700003" xlink:href="#New_Gradient_Swatch_1" />
    <radialGradient id="radial-gradient-6" cx="153.08" cy="569.32001" r="138.89" gradientUnits="userSpaceOnUse">
      <stop offset="0.23" stop-color="gray" id="stop56" />
      <stop offset="0.32" stop-color="#888" id="stop58" />
      <stop offset="0.47" stop-color="#9f9f9f" id="stop60" />
      <stop offset="0.65" stop-color="#c4c4c4" id="stop62" />
      <stop offset="0.86" stop-color="#f7f7f7" id="stop64" />
      <stop offset="0.89" stop-color="#fff" id="stop66" />
    </radialGradient>
    <symbol id="Teacher_1" data-name="Teacher_1" viewBox="0 0 329.56 703.76">
      <path class="cls-2" d="m 200,326.45 c 9,18.33 69.89,53.47 98.68,34.31 a 20.71,20.71 0 0 0 5.59,-5.8 c 7.09,-10.44 3.63,-24.35 -1.45,-35.5 16.4,14.89 22.21,35.51 21.13,56.19 -0.15,3 -0.45,5.92 -0.87,8.86 -5.07,35.51 -29.35,64.71 -58.6,79.71 -2.92,1.65 -5.87,3.2 -8.82,4.67 a 84.88,84.88 0 0 1 -11.45,4.28 q -5.44,1.79 -11,3.27 c -3.73,1 -7.5,1.91 -11.28,2.75 -24.94,5.54 -52.4,4.37 -75.32,-5.81 -22.92,-10.18 -40.57,-30 -43.08,-52.06 0,0 -9.68,-47.74 19.07,-74.39 46.77,-43.43 67.62,-40.36 77.4,-20.48 z" id="path106" />
      <path class="cls-3" d="m 200,326.45 c 9,18.33 69.89,53.47 98.68,34.31 a 20.71,20.71 0 0 0 5.59,-5.8 c 7.09,-10.44 3.63,-24.35 -1.45,-35.5 16.4,14.89 22.21,35.51 21.13,56.19 -0.15,3 -0.45,5.92 -0.87,8.86 -5.07,35.51 -29.35,64.71 -58.6,79.71 -2.92,1.65 -5.87,3.2 -8.82,4.67 a 84.88,84.88 0 0 1 -11.45,4.28 q -5.44,1.79 -11,3.27 c -3.73,1 -7.5,1.91 -11.28,2.75 -24.94,5.54 -52.4,4.37 -75.32,-5.81 -22.92,-10.18 -40.57,-30 -43.08,-52.06 0,0 -9.68,-47.74 19.07,-74.39 46.77,-43.43 67.62,-40.36 77.4,-20.48 z" id="path108" />
      <g class="cls-4" clip-path="url(#clip-path)" id="g124">
        <polygon class="cls-5" points="229.87,333.19 230.41,333.85 229.88,333.19 " id="polygon110" />
        <path class="cls-5" d="m 214.88,332 h -0.1 c -0.62,0 -0.5,0 0.1,0 z" id="path112" />
        <path class="cls-5" d="m 229.58,332.83 -14.7,-0.84 a 15.36,15.36 0 0 1 5,2 l 10,-0.82 z" id="path114" />
        <path class="cls-5" d="m 219.83,334 -119.65,9.81 -48.62,85 38.05,54.55 47.39,16.07 c 0,0 101.88,0.57 122.63,-58.35 20.75,-58.92 -23.4,-97.98 -39.8,-107.08 z" id="path116" />
        <path class="cls-5" d="m 283.29,365 c -29.12,-20.38 -20.3,-4.65 -20.3,-4.65 0,0 63,46.52 -9.73,120.52 l 27.49,-17.76 c 0,0 -0.2,-1.67 9.72,-11.42 24.95,-24.57 26.64,-63.05 -7.18,-86.69 z" id="path118" />
        <path class="cls-5" d="m 304.61,357.9 c -16.92,-3.88 -10,1.65 -10,1.65 0,0 40.09,12 20.38,57.43 l 7,-13.85 c 0,0 0.88,-0.31 2.21,-7 2.8,-13.81 0.08,-33.72 -19.59,-38.23 z" id="path120" />
        <path class="cls-5" d="m 296.49,352.44 c 0,0 26.12,-9.47 33.07,22.84 L 329,364.54 c 0,0 0.35,-0.53 -1.68,-4.65 -4.18,-8.5 -13.76,-18 -26.11,-12.41 -10.69,4.84 -4.72,4.96 -4.72,4.96 z" id="path122" />
      </g>
      <path d="m 198.83,327.11 a 31.71,31.71 0 0 0 5.79,7.74 81,81 0 0 0 9.7,8.42 133,133 0 0 0 27,15.58 c 9.83,4.27 20.23,7.55 30.95,8.52 9.14,0.83 19,-0.2 26.84,-5.36 5.95,-3.9 9.46,-10.74 10.25,-17.69 0.79,-6.95 -0.94,-14.19 -3.43,-20.7 -0.63,-1.63 -1.31,-3.23 -2,-4.82 l -2.06,1.59 a 62.4,62.4 0 0 1 17,26 78.8,78.8 0 0 1 3.69,30.12 101.33,101.33 0 0 1 -21.87,56.18 113.62,113.62 0 0 1 -20.52,20.12 116.9,116.9 0 0 1 -12,7.89 155.62,155.62 0 0 1 -14.75,7.74 137,137 0 0 1 -17.79,5.95 c -6,1.7 -12.15,3.22 -18.31,4.4 a 133.8,133.8 0 0 1 -34.31,2.06 c -21.48,-1.53 -43,-8.83 -58.91,-23.76 a 64.55,64.55 0 0 1 -16.22,-23.3 69.75,69.75 0 0 1 -3.5,-14.79 109.47,109.47 0 0 1 -1.13,-13 104.24,104.24 0 0 1 1.36,-20.8 74.24,74.24 0 0 1 7.69,-23 57.3,57.3 0 0 1 7.51,-10.71 131.07,131.07 0 0 1 12.06,-11.26 177.31,177.31 0 0 1 24,-17.91 c 5.61,-3.37 11.59,-6.39 18,-7.84 a 23,23 0 0 1 12.89,0.36 19.74,19.74 0 0 1 8.84,6.83 35.57,35.57 0 0 1 3.23,5.37 c 0.74,1.51 3,0.19 2.26,-1.33 a 29.14,29.14 0 0 0 -7.91,-10.26 20.92,20.92 0 0 0 -12.07,-4.32 c -5.64,-0.23 -11.22,1.44 -16.35,3.63 a 105.36,105.36 0 0 0 -21.18,12.7 c -4.45,3.29 -8.76,6.79 -13,10.4 A 133,133 0 0 0 118,349.7 64.24,64.24 0 0 0 105,372.57 c -4.38,13.25 -5.28,27.65 -3.9,41.48 0.24,2.48 0.68,5.26 1,7.57 a 60.21,60.21 0 0 0 3.55,13.72 62.44,62.44 0 0 0 7,12.68 c 12.48,17.49 32.16,28.38 52.87,32.94 a 125.67,125.67 0 0 0 35.25,2.54 173,173 0 0 0 36.34,-6.82 138.42,138.42 0 0 0 18,-6.15 c 2.9,-1.28 5.7,-2.83 8.48,-4.36 2.24,-1.23 4.51,-2.4 6.71,-3.69 a 115.74,115.74 0 0 0 23.08,-17.76 c 14.36,-14.25 25,-32.37 29.46,-52.16 4.69,-20.78 3.13,-43.92 -8.89,-62 a 64.65,64.65 0 0 0 -10.29,-12 1.31,1.31 0 0 0 -2.06,1.58 c 5.4,11.86 9.11,27.78 -1.6,37.86 -3.29,3.1 -7.85,4.89 -12.19,5.9 a 46.81,46.81 0 0 1 -13.41,1 c -10.15,-0.59 -20.14,-3.54 -29.51,-7.38 A 134.37,134.37 0 0 1 218.31,343 a 89.18,89.18 0 0 1 -9.93,-8.06 38.45,38.45 0 0 1 -6.33,-7.4 17.84,17.84 0 0 1 -1,-1.71 c -0.71,-1.56 -2.97,-0.23 -2.22,1.28 z" id="path126" />
      <path class="cls-6" d="m 54.13,406.67 c -16,-29.42 -27.57,-54.21 -16.94,-95.85 8.73,-34.24 31.5,-70.58 61.37,-108.27 h 91.76 c 29.87,37.69 54.63,70.61 63.37,104.85 10.62,41.64 -2.91,69.85 -18.94,99.27 z" id="path128" />
      <path d="m 55.32,406 c -6.09,-11.18 -12,-22.54 -16,-34.69 A 99.09,99.09 0 0 1 34.79,332.77 C 36,318.16 40,303.87 45.41,290.34 A 261.48,261.48 0 0 1 66.24,250.2 489.41,489.41 0 0 1 95.42,208.76 c 1.36,-1.75 2.74,-3.5 4.11,-5.24 l -1,0.41 h 88 a 25.3,25.3 0 0 0 3.59,0 0.86,0.86 0 0 1 0.16,0 l -1,-0.41 c 10.56,13.34 21.06,26.73 30.81,40.67 8.55,12.22 16.56,24.89 23,38.38 a 132.13,132.13 0 0 1 12.3,41.43 104.55,104.55 0 0 1 -3.69,41.54 c -3.73,12.62 -9.56,24.47 -15.76,36 l -2.38,4.4 1.19,-0.68 H 61.47 c -2.34,0 -4.69,-0.06 -7,0 h -0.3 a 1.38,1.38 0 0 0 0,2.76 h 173.24 c 2.34,0 4.69,0.06 7,0 h 0.3 a 1.4,1.4 0 0 0 1.2,-0.68 c 9.62,-17.68 18.78,-36 21.76,-56.11 3.24,-22 -1,-44.19 -9.67,-64.44 -9.12,-21.27 -22.5,-40.51 -36.33,-58.94 q -5.78,-7.71 -11.72,-15.27 -3.12,-4 -6.29,-8 c -0.44,-0.57 -0.88,-1.13 -1.33,-1.69 -0.45,-0.56 -0.93,-1.5 -1.68,-1.71 a 1.35,1.35 0 0 0 -0.45,-0.05 c -2.22,-0.12 -4.49,0 -6.71,0 h -82.9 c -0.66,0 -1.36,-0.06 -2,0 a 1.77,1.77 0 0 0 -0.75,0.19 7.5,7.5 0 0 0 -1.62,1.91 l -1.59,2 q -3.12,4 -6.18,8 c -14.78,19.5 -28.64,40 -39.37,62 -9.65,19.84 -16.93,41.5 -17.38,63.74 a 99.17,99.17 0 0 0 3.74,29 150.57,150.57 0 0 0 10.7,26.47 c 2.17,4.34 4.46,8.61 6.77,12.87 0.88,1.62 3.26,0.23 2.41,-1.31 z" id="path130" />
      <path class="cls-7" d="M 256.7,136.3 278,114.8 c -9.42,9.41 -25,4.71 -34.92,-2.6 -9.92,-7.31 -16.34,-17.93 -21.71,-28.63 -2.19,-4.35 -3.75,-7.53 -5.52,-10.8 l 0.89,1.11 c 5.56,-3.1 14.79,-11.66 17.93,-25.11 2.71,-11.62 3.59,-30 -0.45,-42.59 l -4,9 1.62,-13.93 c -10.65,18 -28.17,30.43 -46.9,33.18 l 2.25,2.79 C 171.5,25.91 157.19,21.28 176.24,12.6 l -14.66,4.88 20.14,-14.42 -22.49,9.23 8.69,-8.9 a 171,171 0 0 0 -60,24.27 l 0.17,-0.16 A 32.22,32.22 0 0 1 81.09,26.32 34.08,34.08 0 0 1 64.17,4.55 L 60,12.29 V 0 a 59,59 0 0 0 -8.78,34 c 0.61,11.91 7.46,28.76 11.49,33.69 l 4.69,-4.16 q -5.36,6.5 -10.08,13.49 c -6.45,9.59 -12.1,20 -20.53,27.77 -8.43,7.77 -17.36,16.21 -30.65,7.48 l 10,18.26 -13.84,-4.18 c 22.24,30.78 59.69,53.38 98.41,67.32 -22.56,65.5 -38.4,106.15 -44.4,154.33 -6,48.18 1.23,102.27 30.81,140.79 L 96.7,495 a 28.46,28.46 0 0 0 40.42,-10.08 142.59,142.59 0 0 1 -0.73,-32.12 l 20.6,0.06 c 0.24,11.65 2.67,21.2 2.91,32.85 v 0 a 32.66,32.66 0 0 0 45.71,5.77 l 1.37,-1.06 c 23.54,-36.31 31.59,-94.24 25.59,-142.44 -6,-48.2 -21.85,-88.85 -44.43,-154.4 h -1.36 c 34.72,-15.52 58.85,-36.84 73,-49 a 4.69,4.69 0 0 0 -3.08,-8.28 z" id="path132" />
      <path class="cls-8" d="m 117.94,155.39 c -20.29,20.67 -61.75,8.27 -76.09,-4.41 -2.06,-1.44 8.82,-7.17 8.82,-7.17 L 27.51,130 l 21,5.51 -11,-10.48 C 54.1,136 63.81,120.13 71.62,110.59 82.53,97.25 91.24,87.46 106.31,78.13 a 62.48,62.48 0 0 1 9.69,-4.64 66.45,66.45 0 0 1 10.82,-3.07 83.29,83.29 0 0 1 10.72,-2.12 77.79,77.79 0 0 1 22.51,0.36 86.54,86.54 0 0 1 12,2.36 84.33,84.33 0 0 1 8.74,2.89 77.13,77.13 0 0 1 8.35,3.88 50.1,50.1 0 0 1 7.87,5.52 73.69,73.69 0 0 1 6.74,6.6 c 2.28,2.26 4.58,4.92 7,7.76 11.15,13.44 23.1,34.66 43.89,27.39 l -17.09,9.38 10.48,3.31 -17.65,9.37 c 0,0 15,0.25 12.68,1.65 -31.42,19.3 -64.62,27.19 -86.56,5" id="path134" />
      <path d="m 186.87,193.94 c 8.63,25 17.64,49.95 25.74,75.16 6.61,20.59 12.47,41.46 16.22,62.78 a 273.89,273.89 0 0 1 3.33,71.12 c -2.08,24.07 -7.21,48.43 -17.37,70.46 a 132.19,132.19 0 0 1 -7.72,14.42 c -0.33,0.53 -0.64,1.08 -1,1.59 0.2,-0.29 0.11,-0.05 0,0.08 a 5.43,5.43 0 0 1 -0.53,0.42 c -0.88,0.67 -1.76,1.33 -2.68,1.94 a 31.35,31.35 0 0 1 -36.65,-1.63 32,32 0 0 1 -5.36,-5.43 l 0.38,0.92 c -0.26,-11 -2.65,-21.84 -2.91,-32.85 a 1.33,1.33 0 0 0 -1.31,-1.31 l -20.6,-0.06 a 1.33,1.33 0 0 0 -1.31,1.31 140.44,140.44 0 0 0 0.77,32.46 l 0.13,-1 a 27.4,27.4 0 0 1 -26.11,13.95 c -8.22,-0.67 -14.65,-5.73 -21.31,-10.06 -1.36,-0.88 -2.22,-2.56 -3.4,-4.23 Q 82.42,480.05 80,476 A 147.55,147.55 0 0 1 71.24,459.17 174.79,174.79 0 0 1 59.82,422.39 c -5,-25.26 -5.21,-51.4 -1.83,-76.89 2.91,-22 8.27,-43.58 14.76,-64.78 7.73,-25.23 16.74,-50.06 25.4,-75 1.28,-3.7 2.57,-7.41 3.84,-11.11 0.55,-1.6 -2,-2.29 -2.53,-0.7 -9.7,28.16 -20,56.16 -28.79,84.63 -7.24,23.47 -13.1,47.37 -15.91,71.8 -3.24,28.12 -2,57.09 5.25,84.51 a 164.27,164.27 0 0 0 15.57,38.78 q 2.56,4.53 5.47,8.87 c 1,1.44 2,2.87 3,4.27 a 16,16 0 0 0 2.49,3.15 c 2.65,2.1 5.78,3.76 8.61,5.6 a 31.5,31.5 0 0 0 13.21,5.13 30.06,30.06 0 0 0 16.56,-2.56 29.68,29.68 0 0 0 12.75,-11.43 4.2,4.2 0 0 0 0.81,-1.74 14.06,14.06 0 0 0 -0.35,-2.57 q -0.35,-2.91 -0.57,-5.83 -0.44,-6 -0.38,-12 c 0,-3.91 0.22,-7.81 0.57,-11.7 l -1.31,1.31 20.6,0.06 -1.32,-1.31 c 0.19,7.75 1.44,15.39 2.26,23.09 0.2,1.92 0.37,3.84 0.49,5.77 0.09,1.43 -0.27,3.7 0.55,4.92 a 27.56,27.56 0 0 0 6.28,6.15 33.9,33.9 0 0 0 40,0.59 c 0.75,-0.53 1.53,-1.09 2.24,-1.69 a 12.34,12.34 0 0 0 2.2,-3.08 135,135 0 0 0 8.48,-16.32 A 194.43,194.43 0 0 0 230,435 a 262.64,262.64 0 0 0 4.45,-81.86 c -2.41,-23.52 -7.8,-46.63 -14.53,-69.26 -7.91,-26.61 -17.39,-52.74 -26.49,-79 q -2,-5.83 -4,-11.67 c -0.54,-1.59 -3.08,-0.9 -2.53,0.7 z" id="path136" />
      <path d="m 121.25,450.4 a 102.2,102.2 0 0 0 23.91,4.18 91.18,91.18 0 0 0 23.3,-2 114.15,114.15 0 0 0 13.47,-3.81 c 1.59,-0.54 0.91,-3.08 -0.69,-2.52 a 104.59,104.59 0 0 1 -23.24,5.34 87.14,87.14 0 0 1 -22.64,-0.64 110.5,110.5 0 0 1 -13.45,-3.08 1.3112017,1.3112017 0 0 0 -0.69,2.53 z" id="path138" />
      <path class="cls-9" d="m 204.68,204.58 a 8.36,8.36 0 0 0 -3.08,-6.2 c -2,-1.62 -6.21,-3.22 -10.92,-3.54 a 13.92,13.92 0 0 1 -1.84,0.75 l -0.28,0.08 a 12.66,12.66 0 0 1 3.22,8.06 c 0,9.93 -13.77,17 -32.78,19.88 a 11.75,11.75 0 0 1 0.3,2.67 c 0,7 -6,12.62 -13.36,12.62 -7.36,0 -13.36,-5.65 -13.36,-12.62 a 11.78,11.78 0 0 1 0.23,-2.32 c -20.3,-2.48 -35.3,-9.87 -35.3,-20.23 a 12.85,12.85 0 0 1 3.49,-8.4 l 0.18,-0.21 a 6.21,6.21 0 0 0 -0.74,-0.2 c -4.4,0.43 -8.3,1.93 -10.16,3.46 a 8.4,8.4 0 0 0 -3.08,6.2 l -0.7,23.24 a 12.54,12.54 0 0 0 4,9.46 l 0.49,0.47 c 31.05,30 79,30 110.06,-0.05 l 0.43,-0.42 a 12.54,12.54 0 0 0 3.95,-9.46 z" id="path140" />
      <path class="cls-2" d="M 145.92,260.82 A 79.45,79.45 0 0 1 90.54,238.16 l -0.49,-0.46 a 13.17,13.17 0 0 1 -4.12,-9.9 l 0.7,-23.24 a 9,9 0 0 1 3.29,-6.62 c 2,-1.62 6.27,-3.39 11.49,-3.69 l 1.42,-0.08 -1,1 -0.27,0.32 -0.32,0.37 h -0.89 C 94.61,199 94,203.41 94,205.18 c 0,10 13.76,17.9 35.92,20.49 l 0.62,0.07 -0.12,0.61 a 10.91,10.91 0 0 0 -0.25,2.29 c 0,6.66 7.86,13.2 15.86,13.2 7.49,0 15.86,-5.36 15.86,-12.54 a 11.33,11.33 0 0 0 -0.32,-2.63 L 161.43,226.06 162,226 c 20.48,-2.95 33.2,-10.92 33.2,-20.79 0,-3.63 -2.29,-6.94 -6.45,-9.32 H 188 l -0.32,-0.37 -0.27,-0.32 -0.9,-1 H 189 c 5.53,0 10.69,1.88 12.93,3.73 a 8.94,8.94 0 0 1 3.29,6.62 L 206,227.8 a 13.21,13.21 0 0 1 -4.13,9.9 l -0.43,0.41 a 79.55,79.55 0 0 1 -55.47,22.71 z" id="path142" />
      <path d="m 189,194.78 c 5.34,0 10.38,1.79 12.57,3.6 a 8.36,8.36 0 0 1 3.08,6.2 l 0.7,23.24 a 12.54,12.54 0 0 1 -3.95,9.46 l -0.43,0.42 a 78.51,78.51 0 0 1 -110.06,0.05 l -0.49,-0.47 a 12.54,12.54 0 0 1 -4,-9.46 l 0.7,-23.24 a 8.4,8.4 0 0 1 3.08,-6.2 c 2,-1.65 6.36,-3.28 11.16,-3.56 l -0.44,0.51 h -0.76 c -5,2.63 -6.83,6.56 -6.83,9.85 0,10.76 14.38,18.48 36.44,21.06 a 11.24,11.24 0 0 0 -0.26,2.4 c 0,7.24 8.41,13.77 16.43,13.77 8.02,0 16.43,-5.87 16.43,-13.11 a 12,12 0 0 0 -0.33,-2.76 c 20.65,-3 33.69,-11 33.69,-21.36 0,-3.31 -1.81,-7.05 -6.87,-9.89 h -0.69 l -0.44,-0.51 H 189 m -84.82,-1.26 -2.83,0.16 c -5.35,0.31 -9.8,2.14 -11.83,3.82 a 9.54,9.54 0 0 0 -3.49,7.05 l -0.71,23.23 a 13.8,13.8 0 0 0 4.31,10.33 l 0.48,0.47 a 79.66,79.66 0 0 0 111.66,-0.06 l 0.42,-0.41 a 13.76,13.76 0 0 0 4.31,-10.33 l -0.7,-23.23 a 9.58,9.58 0 0 0 -3.5,-7.05 c -2.25,-1.86 -7.38,-3.87 -13.3,-3.87 h -3.86 l 1.8,1.93 0.25,0.29 0.16,0.19 0.34,0.39 h 0.92 c 3.89,2.27 6,5.37 6,8.75 0,9.57 -12.54,17.32 -32.71,20.23 l -1.24,0.17 0.29,1.22 a 11.36,11.36 0 0 1 0.29,2.5 c 0,6.74 -8.21,12 -15.28,12 -7.71,0 -15.28,-6.25 -15.28,-12.62 a 10.41,10.41 0 0 1 0.23,-2.17 l 0.25,-1.22 -1.16,-0.19 c -21.85,-2.55 -35.42,-10.18 -35.42,-19.92 0,-1.65 0.59,-5.76 6,-8.7 h 1 l 0.34,-0.4 0.16,-0.18 0.25,-0.3 1.93,-2.08 z" id="path144" />
      <path class="cls-10" d="m 93.41,205.18 c 0,10.76 14.38,18.48 36.44,21.06 a 11.24,11.24 0 0 0 -0.26,2.4 c 0,7.24 8.41,13.77 16.43,13.77 8.02,0 16.43,-5.87 16.43,-13.11 a 12,12 0 0 0 -0.33,-2.76 c 20.65,-3 33.69,-11 33.69,-21.36 0,-3.31 -1.81,-7.05 -6.87,-9.89 h -0.69 a 12.88,12.88 0 0 1 3.53,8.44 c 0,9.93 -13.77,17 -32.78,19.88 a 11.75,11.75 0 0 1 0.3,2.67 c 0,7 -6,12.62 -13.36,12.62 -7.36,0 -13.36,-5.65 -13.36,-12.62 a 11.78,11.78 0 0 1 0.23,-2.32 c -20.3,-2.48 -35.3,-9.87 -35.3,-20.23 a 12.85,12.85 0 0 1 3.49,-8.4 h -0.76 c -4.99,2.67 -6.83,6.56 -6.83,9.85 z" id="path146" />
      <path class="cls-11" d="m 6.14,112.27 c 0.65,0.64 1.27,1.24 1.9,1.8 a 19.68,19.68 0 0 0 2,1.44 14.75,14.75 0 0 0 2.43,1.12 8.77,8.77 0 0 0 1.53,0.37 9.21,9.21 0 0 0 1.64,0.27 l 1.18,0.06 c 0.23,0 0.48,0 0.75,0 l 0.84,-0.07 a 12.54,12.54 0 0 0 1.91,-0.25 l 0.79,-0.16 a 8.44,8.44 0 0 0 1,-0.25 c 0.64,-0.23 1.31,-0.42 2,-0.69 0.69,-0.27 1.28,-0.56 1.91,-0.88 0.63,-0.32 1.24,-0.69 1.86,-1.06 a 50.77,50.77 0 0 0 7,-5.38 c 1.11,-1 2.21,-2 3.32,-3 1.11,-1 2.23,-2.18 3.28,-3.34 a 114.94,114.94 0 0 0 11.2,-15.19 l 5,-7.66 c 1.62,-2.48 3.36,-4.78 4.94,-7.06 0.78,-1.14 1.62,-2.21 2.45,-3.24 0.83,-1.03 1.61,-2.06 2.39,-3 1.51,-2 3.12,-3.72 4.52,-5.36 2.78,-3.32 5.35,-5.78 7,-7.59 0.86,-0.9 1.53,-1.6 2,-2 l 0.73,-0.69 2.82,-2.65 c 1.75,-1.75 4.51,-4 7.78,-6.83 a 181.74,181.74 0 0 1 27,-18.25 c 0.67,-0.38 1.33,-0.78 2,-1.13 l 2.07,-1 4.15,-2.09 c 2.78,-1.35 5.64,-2.54 8.42,-3.8 2.78,-1.26 5.64,-2.2 8.37,-3.23 l 7.93,-2.6 6.07,-1.68 c 2,-0.62 3.67,-1 5.16,-1.62 a 50.06,50.06 0 0 0 4.57,-2.06 48.69,48.69 0 0 0 -5,0.06 26,26 0 0 0 -5.42,0.9 L 151.31,6 143.25,8.65 c -2.78,1.05 -5.63,2.15 -8.52,3.28 -2.89,1.13 -5.73,2.49 -8.56,3.87 L 122,18 l -2.14,1 c -0.7,0.36 -1.37,0.76 -2,1.14 A 183.38,183.38 0 0 0 90.4,38.72 c -3.33,2.87 -6.13,5.16 -7.91,6.94 l -2.86,2.7 -0.74,0.7 c -0.5,0.45 -1.18,1.16 -2,2.06 -1.72,1.84 -4.33,4.35 -7.16,7.71 -1.43,1.67 -3.06,3.42 -4.6,5.45 l -2.43,3.09 c -0.85,1 -1.7,2.14 -2.49,3.3 -1.61,2.31 -3.38,4.66 -5,7.17 l -5,7.68 a 112.39,112.39 0 0 1 -10.92,14.82 c -1,1.11 -2,2.17 -3.12,3.18 -1.12,1.01 -2.2,2 -3.27,3 a 48.63,48.63 0 0 1 -6.56,5.09 c -0.56,0.34 -1.12,0.63 -1.67,1 -0.55,0.37 -1.13,0.52 -1.68,0.78 -0.55,0.26 -1.13,0.39 -1.68,0.59 a 6.87,6.87 0 0 1 -0.84,0.21 l -0.67,0.14 a 9.64,9.64 0 0 1 -1.6,0.21 l -0.7,0.06 h -0.62 -1 a 11.7,11.7 0 0 1 -1.39,-0.18 10.07,10.07 0 0 1 -1.28,-0.2 c -0.8,-0.21 -1.58,-0.28 -2.32,-0.5 -0.74,-0.22 -1.49,-0.36 -2.26,-0.59 z" id="path148" />
      <path class="cls-11" d="m 176.19,12.6 a 22.31,22.31 0 0 0 -4.89,1.4 14,14 0 0 0 -2.3,1.25 8.71,8.71 0 0 0 -2.39,2.39 5.27,5.27 0 0 0 -0.87,3.28 5.9,5.9 0 0 0 0.69,2.23 l 0.15,0.24 c 0.07,0.13 0.15,0.27 0.23,0.39 0.08,0.12 0.34,0.49 0.53,0.71 a 14,14 0 0 0 1.15,1.27 A 27.34,27.34 0 0 0 171,28 c 3.63,2.73 7.74,5.2 11.8,8 a 97.35,97.35 0 0 1 11.73,9 54,54 0 0 1 9,10.65 c 2.48,3.73 4.72,7.19 6.55,10.15 1.83,2.96 3.25,5.45 4.2,7.19 l 1.47,2.75 1.42,2.78 c 0.91,1.79 2.21,4.37 3.79,7.51 3.25,6.24 8,14.8 15.19,22.08 a 53.25,53.25 0 0 0 5.82,5.07 47.8,47.8 0 0 0 6.57,4.08 46.61,46.61 0 0 0 7,2.81 c 1.2,0.3 2.36,0.66 3.55,0.84 0.59,0.1 1.17,0.25 1.76,0.29 l 1.64,0.17 a 25.27,25.27 0 0 0 4,0 c 0.57,-0.06 1.1,-0.07 1.54,-0.16 l 1.14,-0.23 a 14.38,14.38 0 0 0 3,-1 16.09,16.09 0 0 0 2.32,-1.36 c 0.67,-0.53 1.26,-1.13 1.86,-1.71 0.6,-0.58 1,-1.39 1.56,-2.13 -0.82,0.42 -1.56,0.8 -2.27,1.18 -0.71,0.38 -1.44,0.58 -2.14,0.86 -0.7,0.28 -1.45,0.51 -2.25,0.73 -0.8,0.22 -1.64,0.5 -2.64,0.64 l -1,0.2 c -0.39,0.07 -0.85,0.08 -1.36,0.13 a 21,21 0 0 1 -3.57,0 l -1.49,-0.15 a 15.27,15.27 0 0 1 -1.6,-0.27 c -1.09,-0.16 -2.16,-0.5 -3.27,-0.77 a 44.07,44.07 0 0 1 -6.51,-2.62 46.33,46.33 0 0 1 -6.16,-3.82 50.48,50.48 0 0 1 -5.51,-4.81 c -6.87,-6.9 -11.49,-15.22 -14.69,-21.37 l -3.78,-7.49 -1.44,-2.81 -1.49,-2.79 c -1,-1.78 -2.41,-4.32 -4.27,-7.32 -1.86,-3 -4.11,-6.49 -6.6,-10.24 a 57.19,57.19 0 0 0 -9.47,-11.16 100.9,100.9 0 0 0 -12,-9.34 c -4.12,-2.8 -8.26,-5.3 -11.68,-7.88 a 24.6,24.6 0 0 1 -2.33,-2 12.28,12.28 0 0 1 -0.93,-1 c -0.14,-0.17 -0.25,-0.34 -0.37,-0.51 l -0.25,-0.41 a 3,3 0 0 1 -0.37,-1.13 2.47,2.47 0 0 1 0.43,-1.54 17.85,17.85 0 0 1 3.43,-3.41 c 1.23,-0.94 2.41,-1.93 3.86,-3.08 z" id="path150" />
      <path class="cls-11" d="m 130.5,21.15 a 19.39,19.39 0 0 0 5,-1.42 l 3.65,-1.54 c 2.37,-1 5.16,-2.16 7.85,-3.24 5.37,-2.17 10.3,-4 10.3,-4 0,0 2.94,-1.11 6.71,-2.44 3.77,-1.33 8.41,-2.85 11.74,-3.79 l 3.07,-0.84 A 19.5,19.5 0 0 0 181.43,3 c 0.75,-0.28 1.45,-0.6 2.29,-1 a 23.51,23.51 0 0 0 -2.52,0 18.49,18.49 0 0 0 -2.71,0.46 l -3.1,0.84 c -3.37,1 -8,2.47 -11.82,3.82 -3.82,1.35 -6.74,2.45 -6.74,2.45 0,0 -5,1.86 -10.34,4 -2.69,1.08 -5.5,2.25 -7.87,3.25 L 135,18.44 a 18.45,18.45 0 0 0 -4.5,2.71 z" id="path152" />
      <path class="cls-11" d="m 147,22 c 0.85,-0.38 1.54,-0.71 2.24,-1.1 a 23.67,23.67 0 0 0 2.32,-1.38 c 0.3,-0.19 0.79,-0.52 1.83,-1.15 1.36,-0.83 3.7,-2.12 5.77,-3.1 2.07,-0.98 3.84,-1.69 3.84,-1.69 0,0 1.47,-0.61 3.36,-1.3 1.89,-0.69 4.25,-1.44 5.93,-1.95 1.68,-0.51 2.55,-0.72 3.06,-0.85 a 22.6,22.6 0 0 0 4.85,-1.91 16.4,16.4 0 0 0 -5.21,0.55 c -0.52,0.13 -1.51,0.4 -3.1,0.86 -1.59,0.46 -4.09,1.26 -6,2 -1.91,0.74 -3.41,1.32 -3.41,1.32 0,0 -1.78,0.72 -3.89,1.71 -2.11,0.99 -4.5,2.31 -5.89,3.16 -1.07,0.65 -1.56,1 -1.88,1.19 A 15.51,15.51 0 0 0 148.67,20.09 23.33,23.33 0 0 0 147,22 Z" id="path154" />
      <path class="cls-11" d="M 62.74,67.72 C 62,66 61.59,64.57 61,63.09 c -0.59,-1.48 -1.15,-3 -2,-5 -0.28,-0.66 -0.75,-1.73 -1.61,-4 A 89.74,89.74 0 0 1 53.83,42 C 53.34,39.86 53.06,37.89 52.88,36.47 52.7,35.05 52.67,34.16 52.67,34.16 a 56.63,56.63 0 0 1 0,-6.85 c 0.14,-1.92 0.37,-4 0.73,-6.08 0.36,-2.08 0.8,-4 1.26,-5.6 a 55,55 0 0 1 2,-5.92 C 58.25,5.85 58.92,3.54 60,0 a 23.37,23.37 0 0 0 -6,8.71 57.73,57.73 0 0 0 -2,6.21 58.44,58.44 0 0 0 -1.32,5.87 61.42,61.42 0 0 0 -0.76,6.38 58.4,58.4 0 0 0 0,7.19 c 0,0 0.06,1 0.22,2.47 a 58.51,58.51 0 0 0 1,5.81 89.81,89.81 0 0 0 3.67,12.46 c 0.89,2.34 1.38,3.45 1.68,4.13 a 24.8,24.8 0 0 0 2.72,4.83 19,19 0 0 0 3.53,3.66 z" id="path156" />
      <path class="cls-11" d="m 216.69,73.88 a 18.69,18.69 0 0 0 4.68,-2 19.58,19.58 0 0 0 4.34,-3.57 c 0.26,-0.28 0.61,-0.63 1.07,-1.19 0.46,-0.56 1.08,-1.27 1.84,-2.29 a 41,41 0 0 0 3.52,-5.53 42.25,42.25 0 0 0 3,-7.09 c 0.38,-1.18 0.66,-2.34 0.92,-3.38 0.26,-1.04 0.45,-2 0.58,-2.79 0.3,-1.59 0.44,-2.59 0.44,-2.59 0,0 0.58,-3.32 0.91,-7.61 a 104.55,104.55 0 0 0 0.26,-13.24 c -0.16,-3.34 -0.42,-5.41 -0.54,-6.49 a 23.06,23.06 0 0 0 -3.52,-9.94 c 0.21,3.7 0.19,6.1 0.74,10.29 0.1,1 0.35,3 0.5,6.27 a 108.68,108.68 0 0 1 -0.24,12.89 c -0.33,4.17 -0.88,7.4 -0.88,7.4 0,0 -0.14,1 -0.43,2.5 -0.13,0.77 -0.35,1.67 -0.56,2.68 -0.21,1.01 -0.51,2.06 -0.87,3.16 a 40.08,40.08 0 0 1 -6.07,11.78 c -0.71,1 -1.28,1.64 -1.72,2.15 -0.44,0.51 -0.75,0.85 -1,1.11 l -3.58,3.88 c -1.08,1.17 -2.08,2.32 -3.39,3.6 z" id="path158" />
      <path class="cls-11" d="m 64.17,4.55 a 20.81,20.81 0 0 0 0.59,5.05 18.65,18.65 0 0 0 2.24,5.19 36.72,36.72 0 0 0 2.61,3.74 35.93,35.93 0 0 0 5.84,5.79 32.16,32.16 0 0 0 4.39,2.89 31.75,31.75 0 0 0 4.11,1.91 34.25,34.25 0 0 0 7.55,1.88 34.82,34.82 0 0 0 6.66,0.21 18,18 0 0 0 10,-3.74 c -3.68,0.47 -6,0.61 -10.13,0.94 a 32.58,32.58 0 0 1 -6.11,-0.21 32.14,32.14 0 0 1 -7,-1.74 27.53,27.53 0 0 1 -3.76,-1.74 28.53,28.53 0 0 1 -4,-2.65 33.49,33.49 0 0 1 -5.38,-5.33 34.68,34.68 0 0 1 -2.42,-3.44 C 68.27,11.54 67.48,10.13 66.66,8.79 65.84,7.45 65.07,6.18 64.17,4.55 Z" id="path160" />
      <path class="cls-11" d="M 72.55,57.61 71.7,59.07 A 12.89,12.89 0 0 1 67.43,54.42 30.37,30.37 0 0 1 65,48.81 45.69,45.69 0 0 1 63.56,42.94 c -0.17,-1 -0.34,-2 -0.45,-3 -0.07,-0.48 -0.14,-1 -0.17,-1.46 l -0.09,-1 a 57.16,57.16 0 0 1 0.79,-6.82 54.24,54.24 0 0 0 0.91,6.9 l 0.09,1 c 0,0.48 0.12,1 0.18,1.43 0.1,1 0.28,1.9 0.44,2.85 a 45.68,45.68 0 0 0 1.4,5.56 28.56,28.56 0 0 0 2.25,5.19 11.18,11.18 0 0 0 3.64,4.02 z" id="path162" />
      <path class="cls-11" d="m 84.65,43.93 -0.22,1.68 a 24.88,24.88 0 0 1 -6.6,-2.13 32,32 0 0 1 -5.89,-3.54 29.12,29.12 0 0 1 -5,-4.77 14.23,14.23 0 0 1 -1,-1.38 13.86,13.86 0 0 1 -1,-1.44 L 64.11,30.88 A 7.7,7.7 0 0 1 63.68,29.96 L 63.2,28.27 62.9,26.55 c 0,-0.28 -0.1,-0.56 -0.13,-0.85 v -0.86 l -0.08,-1.7 a 22.92,22.92 0 0 0 2.65,6.31 l 0.19,0.43 c 0.07,0.16 0.12,0.21 0.27,0.49 l 0.79,1.38 c 0.28,0.45 0.61,0.87 0.91,1.31 l 0.46,0.65 0.52,0.61 a 26.47,26.47 0 0 0 4.65,4.38 29.6,29.6 0 0 0 5.5,3.3 23.25,23.25 0 0 0 6.02,1.93 z" id="path164" />
      <path class="cls-11" d="m 210,59.37 -0.52,-1.61 a 16.74,16.74 0 0 0 9.2,-8 23.13,23.13 0 0 0 2.2,-5.93 c 0.1,-0.52 0.24,-1 0.31,-1.55 l 0.2,-1.58 c 0.06,-0.51 0.06,-1.11 0.08,-1.55 0.02,-0.44 0,-0.63 0,-1 a 30.65,30.65 0 0 0 0.09,-6.71 31.29,31.29 0 0 1 1.59,6.94 v 1.09 a 15.65,15.65 0 0 1 -0.13,1.67 l -0.21,1.66 -0.34,1.64 a 26,26 0 0 1 -2.47,6.25 18.49,18.49 0 0 1 -10,8.68 z" id="path166" />
      <path class="cls-11" d="m 199.81,47.58 -0.22,-1.68 a 28.34,28.34 0 0 0 13.41,-6.08 30.5,30.5 0 0 0 5.26,-5.27 c 0.41,-0.46 0.73,-1 1.1,-1.5 a 18.08,18.08 0 0 0 1,-1.56 l 0.47,-0.81 0.23,-0.4 c 0.07,-0.11 0.18,-0.31 0.2,-0.35 l 0.41,-0.86 a 31.26,31.26 0 0 0 3.11,-6 31.7,31.7 0 0 1 -1.72,6.93 l -0.22,0.45 a 4.4,4.4 0 0 1 -0.29,0.56 l -1,1.68 c -0.32,0.56 -0.73,1.07 -1.08,1.61 l -0.56,0.79 -0.61,0.75 a 31.76,31.76 0 0 1 -5.5,5.43 29.86,29.86 0 0 1 -13.99,6.31 z" id="path168" />
      <path class="cls-11" d="m 184.89,34.43 a 28.68,28.68 0 0 0 5.06,0 22.73,22.73 0 0 0 2.55,-0.37 c 0.89,-0.21 1.84,-0.47 2.89,-0.79 0.71,-0.23 1.85,-0.65 4.2,-1.59 a 64.53,64.53 0 0 0 8.09,-4.11 c 1.38,-0.78 2.56,-1.61 3.43,-2.19 l 1,-0.69 0.36,-0.27 1.16,-0.86 c 0.72,-0.54 1.72,-1.27 2.77,-2.19 l 1.72,-1.37 1.65,-1.54 c 1.12,-1 2.11,-2.06 3,-2.93 1.19,-1.18 2,-2.26 2.75,-3.06 0.75,-0.8 1.19,-1.44 1.52,-1.86 a 25.87,25.87 0 0 0 4.79,-9.39 73.31,73.31 0 0 0 -7,7.64 c -0.33,0.41 -0.79,1 -1.48,1.79 -0.69,0.79 -1.5,1.8 -2.65,2.93 -0.81,0.84 -1.76,1.86 -2.84,2.82 l -1.59,1.48 -1.6,1.34 c -1,0.89 -2,1.59 -2.66,2.11 l -1.11,0.83 -0.35,0.26 -1,0.66 c -0.84,0.55 -2,1.35 -3.29,2.09 a 63.74,63.74 0 0 1 -7.75,3.93 c -2.23,0.9 -3.32,1.3 -4,1.53 -1,0.32 -1.89,0.63 -2.7,0.95 -0.81,0.32 -1.59,0.56 -2.32,0.87 -1.49,0.68 -2.9,1.2 -4.6,1.98 z" id="path170" />
      <path class="cls-11" d="m 0.51,118.92 a 17.19,17.19 0 0 0 3,4.26 l 1.54,1.58 c 0.6,0.61 1.61,1.63 2.49,2.49 l 1.62,1.55 c 0,0 2.45,2.34 3.87,3.58 1.24,1.1 2,1.76 2.44,2.11 a 15,15 0 0 0 4.53,2.65 26.23,26.23 0 0 0 -3.62,-3.73 c -0.41,-0.34 -1.18,-1 -2.4,-2.08 -1.4,-1.23 -3.85,-3.55 -3.85,-3.55 l -1.59,-1.54 -2.48,-2.47 -1.53,-1.56 a 20.56,20.56 0 0 0 -4.02,-3.29 z" id="path172" />
      <path class="cls-11" d="m 0,113.29 a 19,19 0 0 0 3.54,3.84 l 1.69,1.4 0.9,0.72 0.81,0.67 c 1.3,1 2.14,1.64 2.58,2 a 12.19,12.19 0 0 0 4.8,2.16 45.61,45.61 0 0 0 -4,-3.3 c -0.43,-0.3 -1.24,-0.9 -2.52,-1.92 L 7,118.16 6.12,117.44 4.42,116.05 A 19,19 0 0 0 0,113.29 Z" id="path174" />
      <path class="cls-11" d="m 2.3,126.35 a 49.18,49.18 0 0 0 2.19,4.53 23.71,23.71 0 0 0 3.17,4.49 l 1.68,1.95 c 0.36,0.41 0.75,0.87 1.18,1.35 l 0.68,0.79 c 0.24,0.29 0.52,0.56 0.79,0.84 l 1.68,1.7 3.58,3.67 c 1.29,1.21 2.63,2.44 4,3.7 l 2,1.89 2.15,1.8 4.28,3.61 c 5.84,4.57 11.58,8.7 16,11.5 2.2,1.41 4,2.59 5.26,3.37 l 2,1.19 2,1.18 c 1.29,0.76 3.12,1.88 5.42,3.1 2.3,1.22 5,2.77 8,4.22 l 4.64,2.35 c 1.61,0.78 3.28,1.52 5,2.3 3.34,1.6 6.85,3 10.23,4.46 1.68,0.74 3.39,1.34 5,2 l 2.43,0.94 1.18,0.46 0.58,0.23 0.52,0.19 6,2.12 a 35.07,35.07 0 0 0 10.3,1.9 41.32,41.32 0 0 0 -9.38,-4.55 l -6,-2.12 -0.51,-0.19 -0.58,-0.22 -1.17,-0.46 -2.4,-0.93 c -1.62,-0.65 -3.31,-1.24 -5,-2 -3.35,-1.43 -6.82,-2.83 -10.12,-4.41 -1.66,-0.77 -3.31,-1.51 -4.9,-2.27 l -4.6,-2.3 c -3,-1.44 -5.6,-3 -7.88,-4.17 -2.28,-1.17 -4.08,-2.31 -5.36,-3.06 l -2,-1.17 -2,-1.17 c -1.25,-0.77 -3,-1.94 -5.19,-3.33 -4.34,-2.77 -10,-6.85 -15.75,-11.35 l -4.15,-3.48 -2.11,-1.78 -2,-1.86 -3.91,-3.63 -3.51,-3.61 -1.65,-1.69 c -0.27,-0.28 -0.54,-0.54 -0.78,-0.83 l -0.67,-0.77 -1.15,-1.32 -1.66,-1.9 C 8.37,132.03 7.27,130.78 6.12,129.66 4.97,128.54 3.76,127.52 2.3,126.35 Z" id="path176" />
      <path class="cls-11" d="M 176.92,197.73 A 37.42,37.42 0 0 0 187,195 l 7.19,-3.37 1.76,-0.83 1.8,-0.94 3.73,-2 c 2.56,-1.29 5.09,-2.79 7.59,-4.21 10,-5.76 18.53,-11.79 18.53,-11.79 l 3.35,-2.39 c 2.1,-1.45 4.91,-3.61 8.09,-6 6.31,-4.84 13.72,-11.07 18.91,-15.57 l 4.84,-4.18 a 48.82,48.82 0 0 0 3.92,-3.74 c 0.55,-0.58 1.05,-1.2 1.58,-1.8 0.53,-0.6 1.1,-1.23 1.71,-1.94 -0.85,0.34 -1.65,0.66 -2.42,1 -0.77,0.34 -1.44,0.74 -2.16,1.14 a 31.22,31.22 0 0 0 -4.45,3.22 l -4.86,4.17 c -5.19,4.49 -12.54,10.67 -18.79,15.48 -3.15,2.37 -5.93,4.52 -8,5.95 l -3.32,2.42 c 0,0 -8.48,6 -18.34,11.64 -2.47,1.41 -5,2.89 -7.5,4.16 l -3.69,1.93 -1.78,0.93 -1.74,0.82 -7.09,3.35 a 38.38,38.38 0 0 0 -8.94,5.28 z" id="path178" />
      <path class="cls-11" d="m 261.29,129.2 a 19.83,19.83 0 0 0 5.06,-1.29 c 0.34,-0.14 0.89,-0.35 2,-0.84 0.58,-0.23 1.91,-0.9 1.91,-0.9 0,0 1.12,-0.58 1.69,-1 a 29.07,29.07 0 0 0 2.66,-1.92 15.72,15.72 0 0 0 3.48,-3.92 23.53,23.53 0 0 0 -4.36,2.83 28.89,28.89 0 0 1 -2.53,1.82 c -0.54,0.36 -1.58,0.91 -1.58,0.91 0,0 -1.27,0.62 -1.83,0.85 l -2,0.84 a 18.22,18.22 0 0 0 -4.5,2.62 z" id="path180" />
      <path class="cls-11" d="m 258.09,137.54 a 12.33,12.33 0 0 0 5.15,-1.13 c 0.34,-0.14 0.89,-0.39 2,-1 0.45,-0.21 1.46,-0.8 1.46,-0.8 0,0 0.22,-0.11 0.48,-0.27 l 0.83,-0.51 a 28.39,28.39 0 0 0 2.67,-1.9 9.12,9.12 0 0 0 3.09,-4.3 c -1.39,1.23 -2.36,1.88 -4,3.21 a 29,29 0 0 1 -2.55,1.8 l -0.78,0.48 -0.47,0.28 -1.4,0.76 c -1.08,0.55 -1.61,0.79 -1.94,0.93 a 43.16,43.16 0 0 0 -4.54,2.45 z" id="path182" />
      <path class="cls-11" d="m 83.06,170 a 18.44,18.44 0 0 0 -5.22,-0.26 l -4.88,0.47 c -3.91,0.4 -8.53,0.9 -12.92,1.48 -8.81,1.1 -16.77,2.43 -16.77,2.43 0,0 -8,1.26 -16.67,3 -4.33,0.85 -8.93,1.83 -12.68,2.68 l -3.1,0.72 a 18.38,18.38 0 0 0 -4.88,1.88 19.28,19.28 0 0 0 5.2,-0.52 l 3.09,-0.7 c 3.74,-0.85 8.32,-1.83 12.65,-2.68 8.67,-1.73 16.62,-3 16.62,-3 0,0 7.93,-1.32 16.71,-2.41 4.39,-0.58 9,-1.07 12.89,-1.48 l 4.87,-0.47 A 19.13,19.13 0 0 0 83.06,170 Z" id="path184" />
      <path class="cls-11" d="m 90.21,176.53 a 19,19 0 0 0 -5.19,0.6 l -4.66,1.23 c -3.66,1 -8,2.18 -12.08,3.39 -8.23,2.39 -15.63,4.81 -15.63,4.81 0,0 -7.42,2.37 -15.48,5.25 -4,1.42 -8.28,3 -11.75,4.31 l -3,1.14 a 19.12,19.12 0 0 0 -4.57,2.54 19.13,19.13 0 0 0 5.15,-1.23 l 3,-1.13 c 3.46,-1.31 7.71,-2.88 11.72,-4.3 8,-2.87 15.44,-5.24 15.44,-5.24 0,0 7.39,-2.42 15.59,-4.79 4.1,-1.21 8.41,-2.4 12.06,-3.39 l 4.64,-1.23 a 19.2,19.2 0 0 0 4.76,-1.96 z" id="path186" />
      <path class="cls-11" d="m 93.44,184 a 19.08,19.08 0 0 0 -4.93,1.71 L 65.36,197.42 46,207.2 l -2.85,1.44 a 19.11,19.11 0 0 0 -4.31,3 18.65,18.65 0 0 0 4.94,-1.71 L 46.64,208.5 66,198.67 89.14,187 a 18.81,18.81 0 0 0 4.3,-3 z" id="path188" />
      <path class="cls-11" d="m 197.62,170 a 19.13,19.13 0 0 0 5.09,1.14 l 4.87,0.47 c 3.9,0.41 8.5,0.9 12.88,1.48 8.78,1.09 16.72,2.41 16.72,2.41 0,0 7.95,1.27 16.62,3 4.32,0.85 8.91,1.83 12.65,2.68 l 3.09,0.7 a 19.21,19.21 0 0 0 5.19,0.52 18.31,18.31 0 0 0 -4.87,-1.88 l -3.1,-0.72 c -3.75,-0.85 -8.35,-1.83 -12.68,-2.68 -8.71,-1.74 -16.67,-3 -16.67,-3 0,0 -8,-1.33 -16.77,-2.43 -4.4,-0.58 -9,-1.08 -12.92,-1.48 l -4.88,-0.47 a 18.42,18.42 0 0 0 -5.22,0.26 z" id="path190" />
      <path class="cls-11" d="m 190.47,176.53 a 19.2,19.2 0 0 0 4.84,2 l 4.64,1.23 c 3.65,1 8,2.18 12.05,3.39 8.21,2.37 15.6,4.79 15.6,4.79 0,0 7.39,2.37 15.44,5.24 4,1.42 8.25,3 11.72,4.3 l 3,1.13 a 19.16,19.16 0 0 0 5.07,1.23 18.86,18.86 0 0 0 -4.56,-2.54 l -3,-1.14 c -3.47,-1.32 -7.73,-2.89 -11.75,-4.31 -8.07,-2.88 -15.48,-5.25 -15.48,-5.25 0,0 -7.41,-2.42 -15.63,-4.81 -4.11,-1.21 -8.42,-2.4 -12.09,-3.39 l -4.65,-1.23 a 19,19 0 0 0 -5.2,-0.64 z" id="path192" />
      <path class="cls-11" d="m 187.23,184 a 19.11,19.11 0 0 0 4.31,3 l 23.14,11.68 19.39,9.79 c 1.47,0.74 2.38,1.2 2.86,1.43 a 18.47,18.47 0 0 0 4.93,1.71 18.81,18.81 0 0 0 -4.3,-3 l -2.86,-1.44 -19.38,-9.78 -23.15,-11.68 A 19,19 0 0 0 187.23,184 Z" id="path194" />
      <path class="cls-11" d="m 220.58,155 a 15.37,15.37 0 0 0 5.24,-0.33 c 0.35,-0.1 0.94,-0.22 2.14,-0.55 0.8,-0.22 2.13,-0.61 3.25,-1 l 1.44,-0.51 0.6,-0.22 1.73,-0.68 c 1,-0.4 2.13,-0.92 2.94,-1.32 1.5,-0.74 2.4,-1.25 2.87,-1.52 a 14.19,14.19 0 0 0 4,-3.39 28.72,28.72 0 0 0 -4.71,2.17 c -0.46,0.25 -1.34,0.75 -2.8,1.47 -0.79,0.39 -1.92,0.9 -2.86,1.29 l -1.69,0.67 -0.58,0.21 c -0.36,0.14 -0.86,0.31 -1.41,0.49 -1.09,0.38 -2.39,0.75 -3.17,1 -1.18,0.33 -1.75,0.45 -2.1,0.54 a 25.22,25.22 0 0 0 -4.89,1.68 z" id="path196" />
      <path class="cls-11" d="m 230.17,145.47 a 15.09,15.09 0 0 0 5.21,-0.57 c 0.36,-0.09 0.93,-0.26 2.12,-0.62 0.7,-0.22 1.87,-0.58 2.85,-0.93 l 1.8,-0.63 1.54,-0.57 c 0.86,-0.33 1.9,-0.75 2.63,-1.07 1.53,-0.66 2.46,-1.12 2.94,-1.36 a 11.69,11.69 0 0 0 4.13,-3.28 c -1.71,0.71 -2.86,1.06 -4.75,2 -0.47,0.24 -1.37,0.68 -2.87,1.32 -0.72,0.32 -1.75,0.72 -2.59,1.05 l -1.51,0.57 -1.77,0.62 c -1,0.33 -2.13,0.7 -2.81,0.91 l -2.09,0.62 a 25.2,25.2 0 0 0 -4.83,1.94 z" id="path198" />
      <path class="cls-11" d="m 235.22,136.91 a 17.57,17.57 0 0 0 5.21,-0.38 l 2.15,-0.49 c 1,-0.23 3.46,-0.91 3.46,-0.91 0,0 2,-0.59 3.13,-1 1.58,-0.55 2.54,-1 3,-1.18 a 10.6,10.6 0 0 0 4.21,-3.19 c -1.72,0.71 -2.85,1 -4.78,1.9 -0.48,0.2 -1.4,0.6 -2.93,1.14 -1.08,0.37 -3.06,1 -3.06,1 0,0 -2.38,0.65 -3.4,0.89 l -2.12,0.49 a 20.52,20.52 0 0 0 -4.87,1.73 z" id="path200" />
      <path class="cls-11" d="m 60.57,154.51 a 24.35,24.35 0 0 0 -4.91,-1.7 c -0.35,-0.1 -0.92,-0.22 -2.1,-0.55 -0.78,-0.21 -2.08,-0.59 -3.17,-1 -0.55,-0.18 -1,-0.36 -1.41,-0.49 l -0.58,-0.21 -1.69,-0.67 c -0.94,-0.4 -2.07,-0.91 -2.86,-1.3 -1.46,-0.71 -2.33,-1.21 -2.79,-1.46 a 28.35,28.35 0 0 0 -4.72,-2.13 14.34,14.34 0 0 0 4,3.39 c 0.47,0.26 1.37,0.77 2.87,1.51 0.82,0.4 2,0.93 2.94,1.33 0.94,0.4 1.74,0.68 1.74,0.68 l 0.59,0.22 c 0.37,0.14 0.88,0.32 1.44,0.5 1.12,0.39 2.45,0.78 3.25,1 1.2,0.34 1.79,0.46 2.15,0.55 a 15.58,15.58 0 0 0 5.25,0.33 z" id="path202" />
      <path class="cls-11" d="m 51,145 a 25.86,25.86 0 0 0 -4.83,-1.93 l -2.09,-0.61 c -0.68,-0.22 -1.83,-0.58 -2.81,-0.92 L 39.5,140.93 38,140.36 c -0.84,-0.33 -1.87,-0.74 -2.59,-1.06 -1.5,-0.64 -2.4,-1.08 -2.87,-1.31 -1.89,-1 -3,-1.32 -4.75,-2 a 11.56,11.56 0 0 0 4.13,3.28 c 0.48,0.25 1.41,0.71 2.94,1.36 0.73,0.33 1.77,0.74 2.63,1.07 l 1.54,0.57 1.8,0.64 c 1,0.34 2.15,0.71 2.85,0.92 1.19,0.36 1.76,0.53 2.12,0.62 A 15.36,15.36 0 0 0 51,145 Z" id="path204" />
      <path class="cls-11" d="M 45.94,136.44 A 20.33,20.33 0 0 0 41,134.69 l -2.12,-0.5 c -1,-0.23 -3.4,-0.89 -3.4,-0.89 0,0 -2,-0.58 -3.06,-1 -1.53,-0.53 -2.45,-0.93 -2.93,-1.13 -1.92,-0.86 -3.06,-1.2 -4.77,-1.91 a 10.37,10.37 0 0 0 4.28,3.23 c 0.5,0.22 1.45,0.63 3,1.18 1.11,0.4 3.13,1 3.13,1 0,0 2.42,0.69 3.46,0.91 l 2.15,0.5 a 18.31,18.31 0 0 0 5.2,0.36 z" id="path206" />
      <path class="cls-12" d="m 118.72,121.75 c -4.17,13.21 -15,21.7 -24.23,19 -9.23,-2.7 -13.31,-15.67 -9.14,-28.89 4.17,-13.22 17.85,-25.52 27.06,-22.78 9.21,2.74 10.48,19.45 6.31,32.67 z" id="path208" />
      <path d="m 115.2,116.94 c -0.54,7 -6,12.33 -12.15,11.89 -6.15,-0.44 -10.73,-6.5 -10.19,-13.51 0.54,-7.01 7.15,-14.52 13.32,-14.08 6.17,0.44 9.57,8.68 9.02,15.7 z" id="path210" />
      <path class="cls-12" d="m 163.54,119.8 c 2.38,13.6 12,23.31 21.52,21.69 9.52,-1.62 15.29,-14 12.91,-27.58 -2.38,-13.58 -14.3,-27.43 -23.8,-25.81 -9.5,1.62 -13,18.09 -10.63,31.7 z" id="path212" />
      <path class="cls-11" d="m 114.87,156 1.21,1.18 a 33.8,33.8 0 0 1 -16.22,9.1 50,50 0 0 1 -18.57,0.61 95.18,95.18 0 0 1 -18,-4.4 c -2.92,-1 -5.8,-2.09 -8.64,-3.25 l -2.13,-0.89 -1.9,-0.81 -0.9,-0.39 c -1.94,-1.19 -3.86,-2.41 -5.79,-3.63 2.23,0.74 4.45,1.48 6.67,2.17 l 1.36,0.59 c 1.38,0.6 2.77,1.18 4.16,1.74 2.79,1.12 5.6,2.17 8.45,3.12 a 90.77,90.77 0 0 0 17.43,4.1 48.22,48.22 0 0 0 17.69,-0.71 32.05,32.05 0 0 0 15.18,-8.53 z" id="path214" />
      <path class="cls-11" d="m 159.85,155.06 1.21,-1.18 a 42.51,42.51 0 0 0 15.16,10 43.15,43.15 0 0 0 18.05,2.4 76,76 0 0 0 18.07,-3.69 c 2.94,-0.94 5.86,-2 8.74,-3.14 l 2.16,-0.86 1.92,-0.8 0.9,-0.37 6.57,-1.83 c -2,1.17 -4.06,2.33 -6.12,3.47 l -1.38,0.57 q -2.15,0.89 -4.3,1.73 c -2.88,1.11 -5.79,2.15 -8.74,3.07 a 76.42,76.42 0 0 1 -18.25,3.57 42.18,42.18 0 0 1 -34,-13 z" id="path216" />
      <path class="cls-11" d="m 257.13,125 c -1.86,0.12 -3,0.25 -5.12,0.56 a 11.9,11.9 0 0 1 -1.23,0.16 l -0.86,0.08 H 249.6 249 c -0.42,0 -0.85,0 -1.29,0 a 26.3,26.3 0 0 1 -2.63,-0.2 25.9,25.9 0 0 1 -5.35,-1.25 38.07,38.07 0 0 1 -10.33,-5.67 74.13,74.13 0 0 1 -9.33,-8.5 c -2.95,-3.13 -5.77,-6.48 -8.58,-9.87 -2.81,-3.39 -5.71,-6.79 -8.77,-9.87 a 64.68,64.68 0 0 0 -9.63,-8.7 45,45 0 0 0 -5.35,-3.35 c -1.82,-1 -3.66,-1.83 -5.49,-2.61 A 85.36,85.36 0 0 0 161.67,70 l -4.36,-0.63 c -1.4,-0.19 -2.72,-0.33 -4,-0.45 -2.48,-0.21 -4.64,-0.28 -6.42,-0.29 -1.78,-0.01 -3.16,0 -4.1,0.08 l -1.44,0.08 -1.44,0.11 c -0.94,0.07 -2.32,0.21 -4.08,0.44 -1.76,0.23 -3.89,0.59 -6.32,1.12 -1.21,0.26 -2.53,0.57 -3.85,0.92 -1.32,0.35 -2.81,0.59 -4.3,1 a 63.59,63.59 0 0 0 -19.51,8.73 109.36,109.36 0 0 0 -19.3,16.2 c -3,3.17 -6,6.5 -8.78,9.88 l -4.2,5.09 c -1.38,1.72 -2.7,3.46 -4,5.15 -2.67,3.35 -5.45,6.61 -8.86,8.74 a 14.21,14.21 0 0 1 -5.42,2.06 14.47,14.47 0 0 1 -4.22,-0.07 c -0.23,0 -0.46,-0.09 -0.69,-0.14 l -0.45,-0.1 c -0.67,-0.16 -1.26,-0.37 -1.75,-0.53 L 43,126.91 a 46.49,46.49 0 0 0 -4.82,-1.82 12,12 0 0 0 4.27,3.11 l 1.22,0.48 c 0.54,0.17 1.17,0.4 1.89,0.57 l 0.49,0.11 a 6.63,6.63 0 0 0 0.75,0.15 13,13 0 0 0 1.53,0.18 14.3,14.3 0 0 0 3.13,-0.1 15.64,15.64 0 0 0 6,-2.26 c 3.68,-2.3 6.52,-5.68 9.23,-9.06 1.35,-1.71 2.67,-3.45 4,-5.14 l 4.19,-5.07 c 2.82,-3.37 5.71,-6.68 8.7,-9.81 a 107.85,107.85 0 0 1 19.07,-16 61.91,61.91 0 0 1 19.09,-8.55 c 1.48,-0.38 2.86,-0.68 4.26,-1 1.4,-0.32 2.62,-0.66 3.83,-0.92 2.39,-0.52 4.49,-0.86 6.21,-1.1 1.72,-0.24 3.09,-0.36 4,-0.43 l 1.41,-0.11 1.42,-0.08 c 0.92,0 2.28,-0.09 4,-0.08 1.72,0.01 3.86,0.08 6.3,0.29 1.22,0.12 2.52,0.25 3.88,0.44 l 4.34,0.63 a 84.16,84.16 0 0 1 20.21,5.74 53.5,53.5 0 0 1 10.57,5.81 64.32,64.32 0 0 1 9.42,8.52 c 6.21,6.18 11.41,13.46 17.41,19.78 a 74.93,74.93 0 0 0 9.5,8.66 39.43,39.43 0 0 0 10.72,5.87 28,28 0 0 0 5.63,1.32 26.58,26.58 0 0 0 2.79,0.21 c 0.45,0 0.91,0 1.36,0 h 0.67 0.34 l 0.91,-0.08 a 12.2,12.2 0 0 0 1.29,-0.17 11.81,11.81 0 0 0 4.92,-2 z" id="path218" />
      <ellipse class="cls-2" cx="97.720001" cy="108.56" rx="7.4099998" ry="6.98" id="ellipse220" />
      <path d="m 190.87,116.94 c -0.54,7 -6,12.33 -12.15,11.89 -6.15,-0.44 -10.73,-6.5 -10.19,-13.51 0.54,-7.01 7.15,-14.52 13.32,-14.08 6.17,0.44 9.57,8.68 9.02,15.7 z" id="path222" />
      <ellipse class="cls-2" cx="173.39" cy="108.56" rx="7.4099998" ry="6.98" id="ellipse224" />
      <path class="cls-13" d="m 164.7,138.91 c -10.77,-11.47 -34.34,-15.59 -49,0.5 -9.21,10.09 -2,26.7 -0.09,30.26 5.82,10.34 12.2,22.36 25,22.36 14.58,0 22.78,-12.88 26,-25.18 2.13,-5.7 4.15,-21.48 -1.91,-27.94 z" id="path226" />
      <path class="cls-11" d="m 125.92,162.84 a 10.23,10.23 0 0 0 3.46,4 19.07,19.07 0 0 0 1.92,1.16 22.11,22.11 0 0 0 6,2.24 21.71,21.71 0 0 0 2.88,0.41 l 1.21,0.05 h 1 a 21.82,21.82 0 0 0 2.51,-0.24 22.43,22.43 0 0 0 5.86,-1.77 20.79,20.79 0 0 0 2.88,-1.6 10.19,10.19 0 0 0 3.56,-3.92 c -1.57,1 -2.59,1.59 -4.33,2.75 a 21,21 0 0 1 -8.19,3.15 c -0.92,0.14 -1.75,0.2 -2.34,0.23 h -1 l -1.13,-0.05 a 22,22 0 0 1 -2.69,-0.39 21.11,21.11 0 0 1 -5.66,-2.1 17.37,17.37 0 0 1 -1.81,-1.1 c -1.58,-1.16 -2.59,-1.78 -4.13,-2.82 z" id="path228" />
      <path d="m 151,148.46 c 0,3.15 -4.62,4.86 -10.32,4.86 -5.7,0 -10.32,-1.71 -10.32,-4.86 0,-3.15 4.62,-4.58 10.32,-4.58 5.7,0 10.32,1.42 10.32,4.58 z" id="path230" />
      <path class="cls-14" d="M 50.36,421.86 C 115.8,434.12 191,406.91 236.48,358.22 a 3.41,3.41 0 0 0 0.89,-2.6 l -2.49,-22.14 a 3.39,3.39 0 0 0 -5.78,-2.1 c -45.36,45.7 -113.52,75.11 -176.68,63.56 a 3.39,3.39 0 0 0 -4,3.19 l -0.86,20.25 a 3.39,3.39 0 0 0 2.8,3.48 z" id="path232" />
      <circle id="SVGID-2" data-name="SVGID" class="cls-15" cx="153.99001" cy="396.23001" r="8.4200001" />
      <circle id="SVGID-3" data-name="SVGID" class="cls-16" cx="192.69" cy="376.06" r="8.4200001" />
      <circle id="SVGID-4" data-name="SVGID" class="cls-17" cx="223.22" cy="352.62" r="8.4200001" />
      <circle id="SVGID-5" data-name="SVGID" class="cls-18" cx="133.57001" cy="403.5" r="8.4200001" />
      <circle id="SVGID-6" data-name="SVGID" class="cls-19" cx="173.36" cy="388.23999" r="8.4200001" />
      <circle id="SVGID-7" data-name="SVGID" class="cls-20" cx="208.78999" cy="365.34" r="8.4200001" />
      <path class="cls-2" d="m 29.62,420.37 c 0,-10.51 16.4,-19 36.62,-19 20.22,0 37.27,8.52 37.27,19 0,10.48 -17.05,19 -37.27,19 -20.22,0 -36.62,-8.5 -36.62,-19 z" id="path240" />
      <path class="cls-21" d="m 29.62,420.37 c 0,-10.51 16.4,-19 36.62,-19 20.22,0 37.27,8.52 37.27,19 0,10.48 -17.05,19 -37.27,19 -20.22,0 -36.62,-8.5 -36.62,-19 z" id="path242" />
      <path class="cls-22" d="m 29.62,420.37 c 0,-10.51 16.4,-19 36.62,-19 20.22,0 37.27,8.52 37.27,19 0,10.48 -17.05,19 -37.27,19 -20.22,0 -36.62,-8.5 -36.62,-19 z" id="path244" />
      <path class="cls-23" d="m 28.69,419.28 a 34.13,34.13 0 0 0 -0.19,3.52 c 0,19.69 17.07,35.65 38.13,35.65 21.06,0 38.13,-16 38.13,-35.65 a 31.54,31.54 0 0 0 -0.19,-3.52 z" id="path246" />
      <line class="cls-22" x1="104.63" y1="424.69" x2="28.629999" y2="424.69" id="line248" />
      <path class="cls-2" d="m 81.8,544.5 c 21.13,-0.08 41.19,-1.21 62.31,-1.29 0,0 -1.41,-44.1 -2.13,-54.85 a 2.87,2.87 0 0 0 -4,-2.45 c -15.9,7 -33.61,8.86 -50.18,4.14 a 2.63,2.63 0 0 0 -3.06,3.78 c 3.37,6.19 9,16.69 15.24,28.78 l 0.18,0.85 c -5,3.81 -12.85,6.94 -15.85,9.63 -3,2.69 -4.64,7.44 -2.46,10.83" id="path250" />
      <path d="m 81.8,544.92 c 16.16,-0.06 32.31,-0.76 48.47,-1.1 q 6.91,-0.15 13.84,-0.18 a 0.42,0.42 0 0 0 0.42,-0.43 q -0.22,-7.34 -0.49,-14.67 c -0.31,-9.09 -0.63,-18.18 -1,-27.27 -0.15,-3.56 -0.3,-7.13 -0.49,-10.7 -0.09,-1.64 0,-3.51 -1.41,-4.63 a 3.4,3.4 0 0 0 -3.59,-0.31 c -1.77,0.77 -3.56,1.49 -5.39,2.13 a 73.52,73.52 0 0 1 -44,1.94 3.19,3.19 0 0 0 -3.43,0.93 3.08,3.08 0 0 0 -0.33,3.41 c 1.17,2.29 2.45,4.53 3.67,6.79 q 5.06,9.44 10,18.93 c 0.46,0.87 0.9,1.75 1.36,2.62 a 4.43,4.43 0 0 1 0.36,1.19 l 0.19,-0.48 c -3.51,2.69 -7.55,4.59 -11.4,6.73 a 26.54,26.54 0 0 0 -4.35,2.82 11.08,11.08 0 0 0 -3.31,5 7.73,7.73 0 0 0 0.61,6.52 c 0.29,0.46 1,0 0.73,-0.43 -2.17,-3.49 -0.28,-8.07 2.61,-10.51 A 26.71,26.71 0 0 1 89,530.55 c 1.81,-1 3.66,-2 5.47,-3 a 48.58,48.58 0 0 0 5.93,-3.75 0.47,0.47 0 0 0 0.2,-0.48 7.85,7.85 0 0 0 -0.22,-1 26.34,26.34 0 0 0 -1.47,-2.84 l -2.64,-5.06 q -2.46,-4.73 -5,-9.41 c -1.36,-2.55 -2.72,-5.1 -4.1,-7.65 -0.58,-1.08 -1.16,-2.16 -1.75,-3.24 a 3.34,3.34 0 0 1 -0.58,-1.61 2.2,2.2 0 0 1 0.92,-1.79 2.24,2.24 0 0 1 1.76,-0.37 c 0.93,0.18 1.85,0.51 2.78,0.73 q 2.61,0.63 5.27,1.06 a 70.71,70.71 0 0 0 10.78,0.88 76.14,76.14 0 0 0 21.32,-3 86.45,86.45 0 0 0 10.33,-3.65 2.49,2.49 0 0 1 3.43,1.3 7,7 0 0 1 0.24,2.05 c 0.19,3.28 0.33,6.57 0.47,9.86 0.38,8.88 0.69,17.76 1,26.64 q 0.3,8.37 0.56,16.73 v 0.26 l 0.43,-0.42 c -16.16,0.06 -32.31,0.76 -48.47,1.1 q -6.92,0.15 -13.84,0.18 a 0.43,0.43 0 0 0 0,0.85 z" id="path252" />
      <path d="m 97.94,526 a 19.22,19.22 0 0 1 10.17,4.79 17.46,17.46 0 0 1 4.74,8.14 20.09,20.09 0 0 1 0.68,5 0.33,0.33 0 0 0 0.66,0 18.56,18.56 0 0 0 -9.46,-16.37 21.73,21.73 0 0 0 -6.61,-2.2 c -0.42,-0.07 -0.59,0.57 -0.18,0.64 z" id="path254" />
      <path d="m 88.25,501.39 a 67.11,67.11 0 0 0 21.35,3 68.76,68.76 0 0 0 21.12,-3.79 66.18,66.18 0 0 0 11.08,-5 0.33,0.33 0 0 0 -0.33,-0.57 66.55,66.55 0 0 1 -20,7.43 68.39,68.39 0 0 1 -21.27,0.86 65.58,65.58 0 0 1 -11.83,-2.52 0.33,0.33 0 0 0 -0.17,0.63 z" id="path256" />
      <path d="m 100.53,523.59 a 37.48,37.48 0 0 1 18,3.78 21.61,21.61 0 0 1 9.6,9.24 12.84,12.84 0 0 1 1.37,5.86 0.33,0.33 0 0 0 0.66,0 c 0.07,-4 -1.89,-7.73 -4.55,-10.6 a 28.1,28.1 0 0 0 -13.66,-7.69 43,43 0 0 0 -11.41,-1.24 0.33,0.33 0 0 0 0,0.65 z" id="path258" />
      <path d="m 81.8,545.55 c 16.16,-0.06 32.31,-0.76 48.47,-1.1 q 6.91,-0.15 13.84,-0.18 a 1.06,1.06 0 0 0 1,-1.06 c -0.15,-4.89 -0.32,-9.78 -0.48,-14.67 -0.32,-9.09 -0.64,-18.18 -1,-27.27 -0.14,-3.56 -0.29,-7.13 -0.49,-10.7 0,-0.61 -0.07,-1.22 -0.11,-1.83 a 4.24,4.24 0 0 0 -1.61,-3.35 4.06,4.06 0 0 0 -4.23,-0.3 c -1.72,0.74 -3.46,1.44 -5.23,2.06 a 76.4,76.4 0 0 1 -21.65,4.37 70.14,70.14 0 0 1 -22.06,-2.43 3.8,3.8 0 0 0 -4,1.09 3.73,3.73 0 0 0 -0.43,4.18 c 1.17,2.29 2.45,4.53 3.66,6.79 q 5.07,9.44 10,18.93 c 0.45,0.87 0.87,1.77 1.35,2.62 a 3.48,3.48 0 0 1 0.3,1 l 0.48,-1.19 c -3.51,2.68 -7.55,4.58 -11.4,6.73 a 26.45,26.45 0 0 0 -4.48,2.91 11.8,11.8 0 0 0 -3.47,5.26 8.34,8.34 0 0 0 0.67,7 c 0.72,1.16 2.55,0.1 1.83,-1.06 -2,-3.25 -0.17,-7.48 2.51,-9.74 a 25.55,25.55 0 0 1 4,-2.55 c 1.81,-1 3.66,-2 5.47,-3 a 47.4,47.4 0 0 0 5.93,-3.75 1.12,1.12 0 0 0 0.49,-1.19 5.31,5.31 0 0 0 -0.28,-1.11 c -0.45,-1 -1,-1.9 -1.47,-2.84 l -2.64,-5.06 q -2.47,-4.71 -5,-9.41 -2,-3.83 -4.1,-7.65 L 86,493.87 c -0.47,-0.85 -0.81,-1.81 0.11,-2.54 a 1.6,1.6 0 0 1 1.27,-0.3 c 0.93,0.15 1.86,0.51 2.78,0.73 q 2.61,0.63 5.27,1.06 a 73,73 0 0 0 11,0.9 76.61,76.61 0 0 0 21.49,-3 108.11,108.11 0 0 0 10.47,-3.8 1.86,1.86 0 0 1 2.5,0.93 5.91,5.91 0 0 1 0.22,1.88 c 0.19,3.28 0.33,6.57 0.47,9.86 0.38,8.88 0.69,17.76 1,26.64 q 0.28,8.37 0.56,16.73 v 0.26 l 1.06,-1.05 c -16.16,0.06 -32.31,0.76 -48.47,1.1 -4.61,0.09 -9.22,0.16 -13.84,0.18 a 1.06,1.06 0 0 0 0,2.11 z" id="path260" />
      <path d="m 81.8,546 c 15,-0.06 30.08,-0.67 45.11,-1 3.76,-0.09 7.51,-0.16 11.27,-0.21 h 5.43 c 0.88,0 1.74,-0.23 1.94,-1.2 a 6.52,6.52 0 0 0 0,-1.53 c 0,-0.5 0,-1 -0.05,-1.49 q -0.36,-11.31 -0.77,-22.6 c -0.27,-7.45 -0.55,-14.89 -0.89,-22.33 -0.08,-1.83 -0.2,-3.66 -0.27,-5.49 a 7.67,7.67 0 0 0 -0.81,-3.87 4.27,4.27 0 0 0 -4,-1.95 8.33,8.33 0 0 0 -2.37,0.77 c -0.88,0.37 -1.76,0.72 -2.65,1.06 a 73.64,73.64 0 0 1 -41,3.64 c -0.83,-0.17 -1.66,-0.36 -2.49,-0.56 -0.83,-0.2 -1.57,-0.46 -2.37,-0.58 a 4.19,4.19 0 0 0 -4.17,1.68 4.3,4.3 0 0 0 -0.1,4.54 c 0.8,1.58 1.67,3.12 2.52,4.67 3.58,6.53 7,13.14 10.46,19.74 l 1.25,2.41 a 8.63,8.63 0 0 1 0.93,2.24 1.07,1.07 0 0 0 1,0.78 1.11,1.11 0 0 0 1,-0.78 l 0.19,-0.48 a 1.06,1.06 0 0 0 -1.55,-1.19 65.5,65.5 0 0 1 -8.84,5.34 c -2.92,1.56 -6.24,3.06 -8.4,5.66 a 10.89,10.89 0 0 0 -2.6,9 c 0.25,1.24 1,3.72 2.73,3.17 a 1.47,1.47 0 0 0 1,-1.76 c -0.17,-0.62 -0.6,-1.14 -0.77,-1.77 -0.68,-2.53 0.56,-5.3 2.3,-7.11 a 16.25,16.25 0 0 1 3.9,-2.77 c 1.59,-0.89 3.19,-1.74 4.79,-2.6 1.6,-0.86 3.17,-1.74 4.7,-2.7 q 1.09,-0.69 2.13,-1.44 c 0.77,-0.56 1.42,-1 1.25,-2.09 -0.28,-1.72 -1.35,-3.2 -2.14,-4.72 l -2.58,-5 c -3.5,-6.66 -7.07,-13.28 -10.63,-19.91 -0.29,-0.54 -0.53,-1.08 -0.1,-1.62 0.43,-0.54 1.33,-0.4 2,-0.21 1.8,0.48 3.6,0.93 5.43,1.27 a 70.79,70.79 0 0 0 11.15,1.19 76.1,76.1 0 0 0 21.81,-2.62 81.08,81.08 0 0 0 10.39,-3.56 c 0.95,-0.39 2.46,-1.35 3.31,-0.24 a 3.12,3.12 0 0 1 0.33,1.81 c 0,0.93 0.11,1.86 0.15,2.79 0.78,15.17 1.23,30.36 1.73,45.53 0.06,1.8 0.12,3.59 0.17,5.38 a 1.07,1.07 0 0 0 1.81,0.75 l 0.42,-0.42 a 1.07,1.07 0 0 0 -0.74,-1.81 c -8.91,0 -17.82,0.26 -26.72,0.52 -8.9,0.26 -17.79,0.53 -26.69,0.67 q -3.77,0.06 -7.54,0.09 c -1,0 -2.28,-0.2 -2.71,0.93 a 1.5,1.5 0 0 0 1.35,2 1.07,1.07 0 0 0 1.06,-1.06 1.09,1.09 0 0 0 -1.06,-1.06 h 0.07 l 0.47,0.27 a 1.37,1.37 0 0 1 0,0.75 l -0.47,0.27 h 2.65 3.21 c 2,0 4,-0.06 6.06,-0.1 4.1,-0.07 8.19,-0.18 12.29,-0.29 8.12,-0.23 16.24,-0.49 24.35,-0.66 4.56,-0.1 9.12,-0.17 13.68,-0.18 l -0.75,-1.81 -0.43,0.43 1.81,0.74 c -0.41,-12.8 -0.84,-25.6 -1.36,-38.4 -0.13,-3.22 -0.26,-6.45 -0.4,-9.67 -0.08,-1.56 -0.15,-3.12 -0.24,-4.68 -0.07,-1.31 0,-2.79 -0.74,-3.91 a 3.5,3.5 0 0 0 -3.09,-1.47 13.63,13.63 0 0 0 -3.87,1.36 81,81 0 0 1 -8.83,3 A 74.69,74.69 0 0 1 108,492 64.25,64.25 0 0 1 89.28,489.76 c -1.48,-0.42 -3,-0.8 -4.3,0.26 a 3.24,3.24 0 0 0 -1,3.58 14.8,14.8 0 0 0 1,1.86 l 1.17,2.16 2.28,4.26 q 4.52,8.4 8.91,16.86 c 0.35,0.68 0.69,1.36 1.07,2 a 10.64,10.64 0 0 1 1,2 3.59,3.59 0 0 0 0.12,0.47 v 0.2 l 0.14,-0.38 -0.95,0.68 c -0.64,0.45 -1.29,0.87 -2,1.28 -2.6,1.6 -5.32,3 -8,4.45 -2.38,1.31 -4.75,2.65 -6.4,4.87 a 9.87,9.87 0 0 0 -2.08,6.69 7.77,7.77 0 0 0 0.32,1.65 c 0.2,0.6 0.53,1.12 0.78,1.69 L 81.2,543.8 c 0,-0.38 1.1,0 1,-0.5 A 2.16,2.16 0 0 0 82,543 a 3.07,3.07 0 0 1 -0.2,-0.5 5.86,5.86 0 0 1 -0.31,-1.3 7.22,7.22 0 0 1 0.19,-2.66 10,10 0 0 1 2.61,-4.57 21.57,21.57 0 0 1 4.93,-3.3 c 1.77,-1 3.57,-1.91 5.33,-2.89 a 49.88,49.88 0 0 0 5.88,-3.73 l -1.56,-1.2 -0.19,0.48 h 2 a 13.59,13.59 0 0 0 -1.49,-3.41 l -1.75,-3.38 c -1.18,-2.25 -2.36,-4.51 -3.55,-6.75 q -3.57,-6.76 -7.22,-13.47 c -0.31,-0.57 -0.62,-1.13 -0.92,-1.7 A 7,7 0 0 1 85.1,493 a 2,2 0 0 1 0.92,-2.17 3.54,3.54 0 0 1 2.71,0.1 c 1.19,0.31 2.4,0.59 3.61,0.84 a 73.37,73.37 0 0 0 14.25,1.45 77.34,77.34 0 0 0 28.41,-5.41 c 1.12,-0.44 2.22,-1 3.37,-1.37 a 2.23,2.23 0 0 1 2.41,0.65 3.84,3.84 0 0 1 0.62,2.27 c 0.06,1.15 0.11,2.3 0.17,3.45 0.26,5.18 0.46,10.35 0.66,15.53 q 0.6,15.51 1.09,31 l 0.06,1.86 v 1 a 4.31,4.31 0 0 1 0.05,0.76 l 0.38,-0.38 a 4.09,4.09 0 0 0 -0.5,0 h -2.23 -3.21 l -5.93,0.1 q -6.09,0.12 -12.17,0.29 c -8.12,0.23 -16.23,0.49 -24.35,0.66 -4.56,0.1 -9.12,0.17 -13.68,0.18 A 1.0954109,1.0954109 0 0 0 81.8,546 Z" id="path262" />
      <path d="m 97.75,526.68 a 18.51,18.51 0 0 1 9.84,4.61 16.75,16.75 0 0 1 4.56,7.81 19.09,19.09 0 0 1 0.65,4.81 1.06,1.06 0 0 0 2.12,0 19.29,19.29 0 0 0 -9.82,-17 22.11,22.11 0 0 0 -6.79,-2.27 1.08,1.08 0 0 0 -1.3,0.74 1.06,1.06 0 0 0 0.74,1.3 z" id="path264" />
      <path d="m 97.66,527 a 18.05,18.05 0 0 1 10.55,5.39 16,16 0 0 1 3.06,5.06 19.15,19.15 0 0 1 0.89,3.15 17.12,17.12 0 0 1 0.24,1.75 14,14 0 0 0 0.11,1.84 1.41,1.41 0 0 0 2.29,0.74 c 0.69,-0.64 0.44,-1.84 0.36,-2.68 a 21,21 0 0 0 -1.2,-5.42 19.3,19.3 0 0 0 -6.51,-8.81 19.84,19.84 0 0 0 -6.41,-3.1 c -0.58,-0.16 -1.16,-0.31 -1.75,-0.43 a 2.92,2.92 0 0 0 -1.8,-0.08 1.39,1.39 0 0 0 0.17,2.59 c 1.29,0.44 1.85,-1.6 0.56,-2 h -0.1 l 0.46,0.27 0.15,0.23 v 0.5 c 0,-0.12 0,-0.12 0,0 l -0.38,0.38 c -0.11,0.08 -0.41,-0.05 -0.18,0.07 a 1.21,1.21 0 0 0 0.33,0.07 l 0.78,0.16 c 0.47,0.11 1,0.24 1.41,0.38 a 18.53,18.53 0 0 1 2.8,1.06 16.51,16.51 0 0 1 4,2.7 17.36,17.36 0 0 1 4.82,7.8 22.41,22.41 0 0 1 0.61,2.67 c 0.06,0.39 0.1,0.78 0.13,1.18 0,0.24 0,0.49 0,0.73 0,0.24 0,0.19 0,0.28 0,0.51 -0.1,0 0.31,-0.15 l 0.53,-0.14 a 0.31,0.31 0 0 1 -0.19,0 l 0.53,0.14 0.14,0.19 c 0.13,0.23 0.17,0.25 0.14,0.06 -0.03,-0.19 0,-0.28 0,-0.36 0,-0.24 0,-0.48 0,-0.72 0,-0.54 -0.11,-1.07 -0.18,-1.6 a 19.3,19.3 0 0 0 -0.63,-2.83 19,19 0 0 0 -2.13,-4.67 17.9,17.9 0 0 0 -7.75,-6.71 23.77,23.77 0 0 0 -5.61,-1.7 1.08,1.08 0 0 0 -1.3,0.74 1.07,1.07 0 0 0 0.75,1.27 z" id="path266" />
      <path d="m 88.05,502.1 a 68.07,68.07 0 0 0 21.55,3 69.74,69.74 0 0 0 21.32,-3.81 68.62,68.62 0 0 0 11.25,-5.11 1.06,1.06 0 0 0 -1.07,-1.83 65.7,65.7 0 0 1 -19.77,7.35 67.49,67.49 0 0 1 -21.08,0.84 64.54,64.54 0 0 1 -11.64,-2.49 c -1.3,-0.41 -1.86,1.63 -0.56,2 z" id="path268" />
      <path d="m 88,502.41 a 69.4,69.4 0 0 0 46.55,-2.13 q 2.73,-1.12 5.35,-2.47 a 22.61,22.61 0 0 0 2.47,-1.34 1.4,1.4 0 0 0 0.22,-2.22 c -0.73,-0.66 -1.49,-0.24 -2.21,0.16 -0.72,0.4 -1.71,0.93 -2.58,1.37 -1.67,0.83 -3.36,1.59 -5.09,2.27 a 67,67 0 0 1 -22.59,4.6 66,66 0 0 1 -13.31,-0.94 q -3.27,-0.58 -6.48,-1.49 c -0.89,-0.26 -2.11,-0.92 -2.91,-0.15 a 1.41,1.41 0 0 0 0.33,2.24 c 1.22,0.6 2.29,-1.22 1.07,-1.83 l 0.16,0.17 0.15,0.53 v 0 l -0.27,0.46 -0.23,0.13 H 88 a 22.38,22.38 0 0 1 2.63,0.74 c 0.92,0.24 1.84,0.47 2.77,0.68 1.77,0.39 3.57,0.71 5.37,1 a 68.73,68.73 0 0 0 32.33,-3.28 q 2.79,-1 5.47,-2.2 c 0.92,-0.42 1.83,-0.86 2.74,-1.32 l 1.29,-0.68 0.6,-0.32 0.39,-0.22 q 0.36,-0.13 0.09,-0.12 l -0.53,-0.14 -0.28,-0.49 0.14,-0.54 c 0.13,-0.24 -0.35,0.14 -0.38,0.15 l -0.61,0.34 -1,0.55 c -0.83,0.43 -1.67,0.84 -2.52,1.24 -1.54,0.72 -3.12,1.38 -4.71,2 a 69.77,69.77 0 0 1 -10.25,2.84 68.32,68.32 0 0 1 -21.21,0.88 66.8,66.8 0 0 1 -11.8,-2.51 C 87.22,500 86.67,502 88,502.41 Z" id="path270" />
      <path d="m 100.53,524.32 a 36.87,36.87 0 0 1 17.63,3.68 21,21 0 0 1 9.33,9 12,12 0 0 1 1.27,5.49 1.06,1.06 0 0 0 2.12,0 c 0.08,-4.18 -2,-8.11 -4.76,-11.12 a 28.77,28.77 0 0 0 -14,-7.87 43.6,43.6 0 0 0 -11.6,-1.27 1.06,1.06 0 0 0 0,2.11 z" id="path272" />
      <path d="m 100.53,524.65 a 36.72,36.72 0 0 1 17,3.39 c 4.57,2.27 9,6 10.46,11.05 a 10.76,10.76 0 0 1 0.42,2 c 0.07,0.66 -0.1,1.51 0.26,2.09 a 1.42,1.42 0 0 0 1.81,0.48 1.59,1.59 0 0 0 0.76,-1.63 15.38,15.38 0 0 0 -2.46,-7.82 c -2.94,-4.7 -7.7,-7.93 -12.8,-9.89 a 38.28,38.28 0 0 0 -9.67,-2.23 46.48,46.48 0 0 0 -5.27,-0.25 c -0.84,0 -1.67,0.2 -1.83,1.16 a 1.36,1.36 0 0 0 1.06,1.58 1.1,1.1 0 0 0 1.31,-0.74 1.08,1.08 0 0 0 -0.74,-1.3 l 0.32,0.26 0.15,0.54 a 0.34,0.34 0 0 1 0,-0.2 l -0.15,0.54 c -0.21,0.51 -0.56,0.21 -0.12,0.28 a 3.68,3.68 0 0 0 0.47,0 h 1.08 c 0.72,0 1.44,0 2.16,0.1 a 36.24,36.24 0 0 1 4,0.48 34.86,34.86 0 0 1 7.23,2 23.11,23.11 0 0 1 10.86,8.51 15,15 0 0 1 1.65,3.42 13.38,13.38 0 0 1 0.49,2 c 0,0.31 0.09,0.62 0.11,0.94 0,0.13 0,0.27 0,0.41 v 0.2 c 0,0.36 0.06,0.29 0.29,-0.2 l 0.53,-0.14 a 0.31,0.31 0 0 1 -0.19,0 l 0.53,0.14 0.3,0.39 v -0.34 -0.45 c 0,-0.36 -0.07,-0.71 -0.12,-1.07 a 13.59,13.59 0 0 0 -0.43,-2 16.35,16.35 0 0 0 -1.65,-3.64 20.94,20.94 0 0 0 -4.7,-5.32 31.17,31.17 0 0 0 -14,-6.2 46.21,46.21 0 0 0 -9.09,-0.72 1.0901032,1.0901032 0 0 0 -0.03,2.18 z" id="path274" />
      <path class="cls-2" d="m 215.1,544.5 c -21.12,-0.08 -41.18,-1.21 -62.31,-1.29 0,0 1.41,-44.1 2.13,-54.85 a 2.87,2.87 0 0 1 4,-2.45 c 15.9,7 33.61,8.86 50.18,4.14 a 2.63,2.63 0 0 1 3.06,3.78 c -3.37,6.19 -9,16.69 -15.24,28.78 l -0.48,0.66 c 4.95,3.81 13.15,7.13 16.15,9.82 3,2.69 4.64,7.44 2.46,10.83" id="path276" />
      <path d="m 215.1,544.07 c -16.16,-0.06 -32.31,-0.76 -48.47,-1.1 q -6.91,-0.15 -13.84,-0.18 l 0.43,0.42 q 0.22,-7 0.46,-13.92 c 0.31,-8.87 0.62,-17.73 1,-26.6 0.15,-3.64 0.3,-7.28 0.49,-10.92 0,-0.68 0.07,-1.37 0.11,-2 a 7,7 0 0 1 0.24,-2.05 2.49,2.49 0 0 1 3.43,-1.3 c 1.63,0.7 3.28,1.37 4.95,2 a 74.35,74.35 0 0 0 42.52,2.85 c 0.88,-0.21 1.75,-0.44 2.62,-0.68 a 2.39,2.39 0 0 1 2.14,0.27 2.27,2.27 0 0 1 0.9,1.45 3,3 0 0 1 -0.56,1.95 q -1.81,3.35 -3.61,6.69 -4.92,9.19 -9.74,18.45 a 26.91,26.91 0 0 1 -2.06,3.72 0.43,0.43 0 0 0 0.15,0.58 c 3.35,2.56 7.18,4.42 10.86,6.44 a 41.27,41.27 0 0 1 4.45,2.71 10.33,10.33 0 0 1 3.42,4.39 7.15,7.15 0 0 1 -0.27,6.54 c -0.29,0.46 0.44,0.89 0.73,0.43 2.27,-3.64 0.58,-8.41 -2.32,-11.17 a 21.25,21.25 0 0 0 -4.21,-2.86 C 207,529 205,528 203.1,526.94 a 52.94,52.94 0 0 1 -6.43,-4 l 0.15,0.58 a 29.54,29.54 0 0 0 2.18,-3.93 q 1.37,-2.62 2.74,-5.25 2.49,-4.75 5,-9.49 2.07,-3.9 4.17,-7.78 c 0.56,-1 1.19,-2.07 1.69,-3.14 a 3.05,3.05 0 0 0 -0.5,-3.38 3.31,3.31 0 0 0 -3.54,-0.75 q -2.72,0.75 -5.47,1.28 a 69.09,69.09 0 0 1 -11.2,1.18 74.73,74.73 0 0 1 -22,-2.82 89.53,89.53 0 0 1 -10.76,-3.86 3.34,3.34 0 0 0 -3.47,0.47 3.64,3.64 0 0 0 -1.21,2.79 c -0.2,3.17 -0.34,6.34 -0.48,9.51 -0.39,9 -0.71,18.08 -1,27.12 q -0.32,8.76 -0.59,17.52 v 0.26 a 0.43,0.43 0 0 0 0.42,0.43 c 16.16,0.06 32.31,0.76 48.47,1.1 q 6.92,0.15 13.84,0.18 a 0.43,0.43 0 0 0 0,-0.85 z" id="path278" />
      <path d="m 198.78,525.34 a 19.77,19.77 0 0 0 -10.45,5 18.19,18.19 0 0 0 -4.92,8.42 21.12,21.12 0 0 0 -0.7,5.18 0.33,0.33 0 0 0 0.66,0 17.89,17.89 0 0 1 9.13,-15.81 21.23,21.23 0 0 1 6.5,-2.13 c 0.41,-0.07 0.24,-0.71 -0.18,-0.64 z" id="path280" />
      <path d="m 207.79,500.76 a 66.55,66.55 0 0 1 -21.07,3 68.1,68.1 0 0 1 -21,-3.74 65.36,65.36 0 0 1 -11,-5 0.33,0.33 0 0 0 -0.33,0.57 67,67 0 0 0 20.2,7.51 68.64,68.64 0 0 0 21.45,0.85 66.34,66.34 0 0 0 11.9,-2.53 0.33,0.33 0 0 0 -0.18,-0.63 z" id="path282" />
      <path d="m 195.88,523.33 c -6.26,-0.12 -12.68,0.87 -18.27,3.79 a 21,21 0 0 0 -9.51,9.32 13.66,13.66 0 0 0 -1.35,6 0.33,0.33 0 0 0 0.66,0 14.76,14.76 0 0 1 4.34,-10.18 26.55,26.55 0 0 1 13.05,-7.16 42.56,42.56 0 0 1 11.08,-1.1 0.33,0.33 0 0 0 0,-0.65 z" id="path284" />
      <path d="m 215.1,543.44 c -16.16,-0.06 -32.31,-0.76 -48.47,-1.1 -4.61,-0.1 -9.22,-0.17 -13.84,-0.18 l 1.06,1.05 q 0.22,-7 0.46,-13.92 c 0.31,-8.87 0.62,-17.73 1,-26.6 0.15,-3.64 0.3,-7.28 0.49,-10.92 0,-0.68 0.07,-1.37 0.11,-2 a 5.91,5.91 0 0 1 0.22,-1.88 1.86,1.86 0 0 1 2.5,-0.93 c 1.7,0.69 3.38,1.42 5.1,2 a 75.08,75.08 0 0 0 42.86,2.85 c 0.88,-0.21 1.75,-0.44 2.62,-0.68 a 1.73,1.73 0 0 1 1.65,0.2 c 0.92,0.73 0.58,1.69 0.11,2.54 q -1.81,3.35 -3.6,6.69 -4.93,9.19 -9.74,18.45 a 28.06,28.06 0 0 1 -2.07,3.72 1.1,1.1 0 0 0 0.38,1.45 c 3.35,2.56 7.18,4.42 10.86,6.44 3.07,1.69 6.16,3.32 7.58,6.72 a 6.53,6.53 0 0 1 -0.21,6 c -0.72,1.16 1.11,2.22 1.83,1.06 2.42,-3.87 0.68,-9 -2.43,-11.92 a 22.16,22.16 0 0 0 -4.33,-3 c -1.91,-1.09 -3.87,-2.1 -5.8,-3.17 a 51.74,51.74 0 0 1 -6.43,-4 l 0.38,1.45 a 30.71,30.71 0 0 0 2.18,-3.93 c 0.9,-1.75 1.82,-3.5 2.73,-5.25 q 2.49,-4.75 5,-9.49 c 1.38,-2.6 2.78,-5.19 4.17,-7.78 0.57,-1 1.19,-2.07 1.7,-3.14 a 3.7,3.7 0 0 0 -0.6,-4.14 3.93,3.93 0 0 0 -4.16,-0.92 q -2.72,0.75 -5.47,1.28 a 68.11,68.11 0 0 1 -11,1.16 74.25,74.25 0 0 1 -21.83,-2.8 83.24,83.24 0 0 1 -10.61,-3.8 4,4 0 0 0 -4.24,0.57 4.31,4.31 0 0 0 -1.4,3.24 c -0.2,3.17 -0.33,6.34 -0.47,9.51 -0.39,9 -0.71,18.08 -1,27.12 q -0.3,8.76 -0.59,17.52 v 0.26 a 1.07,1.07 0 0 0 1,1.06 c 16.16,0.06 32.31,0.76 48.47,1.1 4.61,0.1 9.22,0.17 13.84,0.18 a 1.06,1.06 0 0 0 0,-2.11 z" id="path286" />
      <path d="m 215.1,543 c -16.25,-0.06 -32.48,-0.76 -48.72,-1.1 q -6.8,-0.15 -13.59,-0.18 a 1.07,1.07 0 0 0 -0.74,1.81 l 0.42,0.42 a 1.07,1.07 0 0 0 1.81,-0.75 c 0.49,-15.32 1,-30.66 1.67,-46 0.08,-1.93 0.17,-3.87 0.27,-5.8 0.05,-0.85 0.08,-1.69 0.13,-2.54 a 1.71,1.71 0 0 1 0.69,-1.52 1.64,1.64 0 0 1 1.3,-0.1 c 0.87,0.27 1.7,0.71 2.55,1.05 q 2.51,1 5.09,1.88 a 79,79 0 0 0 20.67,3.85 70.94,70.94 0 0 0 21.23,-2.13 5.75,5.75 0 0 1 2.26,-0.46 1.13,1.13 0 0 1 0.79,1.52 19.91,19.91 0 0 1 -1.16,2.19 l -1.4,2.58 c -1.8,3.35 -3.59,6.69 -5.36,10.05 -1.77,3.36 -3.63,6.88 -5.43,10.34 -0.39,0.75 -0.76,1.51 -1.15,2.26 -0.17,0.33 -0.34,0.66 -0.53,1 a 9.71,9.71 0 0 0 -0.83,1.38 c -0.33,0.92 0.31,1.54 1,2.05 0.69,0.51 1.47,1 2.23,1.53 2.92,1.86 6,3.4 9.06,5.07 2.79,1.55 5.61,3.25 6.74,6.42 a 6.4,6.4 0 0 1 0.13,4.46 c -0.29,0.77 -0.94,1.44 -0.48,2.29 a 1.52,1.52 0 0 0 2,0.63 3.32,3.32 0 0 0 1.19,-1.79 7.8,7.8 0 0 0 0.53,-2.19 9.7,9.7 0 0 0 -0.52,-4.17 13.3,13.3 0 0 0 -5.81,-6.86 c -3.09,-1.92 -6.39,-3.49 -9.53,-5.32 a 44.83,44.83 0 0 1 -4.42,-2.9 c -0.78,-0.59 -1.77,0.37 -1.56,1.19 l 0.15,0.58 a 1.07,1.07 0 0 0 1.94,0.25 38.83,38.83 0 0 0 2.57,-4.7 q 1.33,-2.56 2.68,-5.12 2.61,-5 5.26,-9.93 c 0.88,-1.66 1.77,-3.31 2.66,-5 0.89,-1.69 1.86,-3.2 2.63,-4.87 a 4.1,4.1 0 0 0 -4.69,-5.8 c -1.78,0.32 -3.53,0.9 -5.31,1.26 -1.78,0.36 -3.67,0.66 -5.52,0.87 a 71.42,71.42 0 0 1 -11.14,0.36 75.1,75.1 0 0 1 -21.68,-4.32 c -1.72,-0.62 -3.42,-1.29 -5.11,-2 a 4.42,4.42 0 0 0 -6.68,4 c -0.14,1.87 -0.22,3.74 -0.3,5.61 -0.35,7.6 -0.64,15.2 -0.91,22.81 -0.27,7.61 -0.54,15.26 -0.79,22.89 l -0.09,2.84 a 1.56,1.56 0 0 0 1.47,1.75 c 0.9,0.07 1.83,0 2.74,0 h 3 q 5.72,0.07 11.44,0.22 c 7.62,0.18 15.24,0.43 22.86,0.63 3.8,0.1 7.61,0.2 11.41,0.27 l 5.69,0.08 h 2.72 1.48 a 5.31,5.31 0 0 0 1.38,0 1.47,1.47 0 0 0 1.07,-1.48 1.51,1.51 0 0 0 -1.46,-1.36 1.07,1.07 0 0 0 -1.06,1.06 1.09,1.09 0 0 0 1.06,1.06 H 215 l -0.47,-0.27 a 1.37,1.37 0 0 1 0,-0.75 l 0.47,-0.27 h -2.65 -3.21 l -6.06,-0.1 q -6.15,-0.12 -12.29,-0.3 c -8.12,-0.22 -16.23,-0.49 -24.35,-0.66 l -6.72,-0.12 h -3.48 -2.48 a 3.9,3.9 0 0 1 -0.76,0 l 0.38,0.38 c 0.11,0.16 0,0.08 0,0 a 1.64,1.64 0 0 0 0,-0.49 v -0.87 l 0.06,-2 c 0,-1.28 0.09,-2.55 0.13,-3.83 q 0.12,-3.82 0.26,-7.65 0.25,-7.64 0.54,-15.28 0.29,-7.64 0.61,-15.28 c 0.11,-2.52 0.22,-5 0.37,-7.56 a 5.35,5.35 0 0 1 0.54,-2.82 2.25,2.25 0 0 1 2.32,-0.83 24.39,24.39 0 0 1 3.21,1.28 q 1.71,0.68 3.45,1.29 c 2.33,0.82 4.7,1.53 7.09,2.12 a 76.46,76.46 0 0 0 14.59,2.15 71.54,71.54 0 0 0 15,-0.85 c 2.45,-0.4 4.84,-1 7.25,-1.6 a 2.33,2.33 0 0 1 2.28,0.36 2,2 0 0 1 0.43,2.34 c -0.48,1.13 -1.18,2.18 -1.76,3.25 l -1.6,3.24 -3.57,6.69 c -2.36,4.45 -4.76,8.88 -7,13.38 a 20.69,20.69 0 0 1 -1.67,2.93 l 1.93,0.25 -0.15,-0.58 -1.55,1.19 c 3.55,2.7 7.6,4.63 11.48,6.79 a 21.33,21.33 0 0 1 5,3.43 10,10 0 0 1 2.47,4.3 7.65,7.65 0 0 1 0.26,2.65 5.68,5.68 0 0 1 -0.26,1.29 4.19,4.19 0 0 1 -0.22,0.59 l -0.12,0.25 a 2,2 0 0 1 -0.14,0.25 c -0.25,0.38 0.1,0.53 1,0.47 l -0.14,0.54 a 10.74,10.74 0 0 0 1,-2.79 8.89,8.89 0 0 0 -0.08,-3 11,11 0 0 0 -2.71,-5.2 19.83,19.83 0 0 0 -5.17,-3.67 c -1.87,-1.05 -3.78,-2 -5.65,-3.07 -1.06,-0.58 -2.1,-1.18 -3.13,-1.82 -0.51,-0.32 -1,-0.64 -1.51,-1 l -0.74,-0.52 c -0.19,-0.13 -0.53,-0.3 -0.63,-0.48 l 0.15,0.53 a 4.31,4.31 0 0 0 0.39,-0.53 c 0.16,-0.25 0.3,-0.51 0.45,-0.78 0.28,-0.52 0.54,-1.06 0.81,-1.59 0.59,-1.17 1.2,-2.31 1.8,-3.47 1.22,-2.35 2.46,-4.69 3.69,-7 q 3.67,-6.93 7.4,-13.83 a 9.56,9.56 0 0 0 1.46,-3.26 3.24,3.24 0 0 0 -1.42,-3 3.93,3.93 0 0 0 -3.43,-0.25 c -1.23,0.33 -2.46,0.64 -3.7,0.91 a 69.34,69.34 0 0 1 -14.26,1.4 76.86,76.86 0 0 1 -28.52,-5.64 c -1.88,-0.76 -3.95,-2 -5.89,-0.71 a 3.64,3.64 0 0 0 -1.5,2.7 c -0.13,1.16 -0.14,2.36 -0.2,3.53 -0.27,5.25 -0.47,10.51 -0.67,15.76 q -0.61,15.8 -1.12,31.57 c 0,1.33 -0.09,2.66 -0.13,4 l 1.81,-0.74 -0.43,-0.43 -0.75,1.81 c 16.22,0.06 32.42,0.75 48.63,1.1 4.56,0.09 9.12,0.16 13.68,0.18 a 1.065,1.065 0 0 0 0,-2.13 z" id="path288" />
      <path d="m 198.59,524.64 a 20.49,20.49 0 0 0 -10.77,5.15 18.88,18.88 0 0 0 -5.11,8.75 21.65,21.65 0 0 0 -0.73,5.37 1.06,1.06 0 0 0 2.12,0 17.17,17.17 0 0 1 8.77,-15.18 20.49,20.49 0 0 1 6.28,-2.05 1.06,1.06 0 1 0 -0.56,-2 z" id="path290" />
      <path d="m 198.5,524.32 a 21,21 0 0 0 -11,5.31 19.56,19.56 0 0 0 -5.6,11.15 c -0.08,0.57 -0.15,1.14 -0.19,1.71 a 5.56,5.56 0 0 0 0,1.82 1.41,1.41 0 0 0 2.34,0.55 c 0.61,-0.63 0.39,-1.88 0.47,-2.7 a 17.85,17.85 0 0 1 0.47,-2.61 16.09,16.09 0 0 1 11.37,-11.89 c 0.62,-0.18 1.24,-0.34 1.87,-0.47 a 3,3 0 0 0 1.66,-0.57 1.41,1.41 0 0 0 -1.11,-2.33 1.06,1.06 0 0 0 0,2.11 h -0.23 l -0.38,-0.38 c 0,-0.11 0,-0.11 0,0 v -0.56 l 0.14,-0.23 0.46,-0.27 c -0.42,0.14 -0.9,0.18 -1.33,0.28 -0.43,0.1 -1.11,0.26 -1.65,0.42 a 22.66,22.66 0 0 0 -2.91,1.11 17.53,17.53 0 0 0 -4.45,3 18.88,18.88 0 0 0 -5.27,8.51 20.21,20.21 0 0 0 -0.6,2.67 c -0.08,0.52 -0.14,1 -0.19,1.56 0,0.22 0,0.43 0,0.65 0,0.22 0,0.25 0,0.37 v 0.18 c 0,0.26 0.07,0.15 0.28,-0.33 l 0.53,-0.14 a 0.31,0.31 0 0 1 -0.19,0 l 0.53,0.14 c 0.25,0.47 0.35,0.52 0.31,0.14 0,-0.16 0,-0.32 0,-0.48 0,-0.32 0,-0.63 0.07,-1 0.07,-0.62 0.16,-1.23 0.29,-1.84 a 19.79,19.79 0 0 1 0.91,-3.11 16.7,16.7 0 0 1 3.15,-5.12 18.7,18.7 0 0 1 10.84,-5.58 1.06,1.06 0 0 0 0.74,-1.3 1.09,1.09 0 0 0 -1.33,-0.77 z" id="path292" />
      <path d="M 207.6,500.06 A 65.92,65.92 0 0 1 186.72,503 67.65,67.65 0 0 1 166,499.29 a 64.63,64.63 0 0 1 -10.85,-4.93 1.06,1.06 0 0 0 -1.06,1.83 67.57,67.57 0 0 0 20.38,7.58 69.25,69.25 0 0 0 21.64,0.88 66.5,66.5 0 0 0 12.09,-2.55 c 1.3,-0.4 0.75,-2.45 -0.56,-2 z" id="path294" />
      <path d="m 207.51,499.74 a 66.68,66.68 0 0 1 -46.2,-2.62 c -1.78,-0.78 -3.52,-1.65 -5.22,-2.59 -0.76,-0.42 -1.62,-1 -2.42,-0.28 a 1.4,1.4 0 0 0 0.21,2.22 34.76,34.76 0 0 0 4.81,2.49 q 2.58,1.2 5.24,2.19 a 69.47,69.47 0 0 0 22.95,4.29 68.57,68.57 0 0 0 13.49,-1.1 66.69,66.69 0 0 0 6.51,-1.51 c 0.92,-0.27 2.3,-0.44 2.36,-1.65 a 1.39,1.39 0 0 0 -1.73,-1.44 1.08,1.08 0 0 0 -0.74,1.3 1.1,1.1 0 0 0 1.31,0.74 h -0.45 l -0.23,-0.13 -0.27,-0.46 v 0 l 0.14,-0.53 0.19,-0.2 -0.46,0.13 -0.69,0.21 -1.15,0.32 c -0.92,0.24 -1.85,0.47 -2.78,0.68 -1.79,0.39 -3.59,0.72 -5.41,1 a 67.88,67.88 0 0 1 -31.63,-3.33 c -1.75,-0.63 -3.48,-1.32 -5.17,-2.1 -0.89,-0.41 -1.77,-0.83 -2.64,-1.28 l -1.2,-0.63 -0.59,-0.32 -0.4,-0.22 c -0.18,-0.16 -0.24,-0.17 -0.16,0 l 0.14,0.54 -0.27,0.49 -0.54,0.14 c -0.29,0 0.27,0.22 0.31,0.24 l 0.62,0.33 1,0.55 c 0.83,0.43 1.67,0.84 2.51,1.24 q 2.44,1.14 5,2.09 a 67.61,67.61 0 0 0 10.47,3 69,69 0 0 0 21.55,0.89 67.94,67.94 0 0 0 12.11,-2.55 c 1.29,-0.5 0.74,-2.54 -0.57,-2.14 z" id="path296" />
      <path d="m 195.88,522.6 a 38.68,38.68 0 0 0 -18.64,3.89 21.72,21.72 0 0 0 -9.77,9.58 14.48,14.48 0 0 0 -1.45,6.4 1.06,1.06 0 0 0 2.12,0 14,14 0 0 1 4.12,-9.66 25.74,25.74 0 0 1 12.73,-7 42,42 0 0 1 10.89,-1.13 1.06,1.06 0 0 0 0,-2.11 z" id="path298" />
      <path d="m 195.88,522.27 a 40.5,40.5 0 0 0 -17.2,3.16 c -4.71,2.11 -9.12,5.58 -11.4,10.3 a 15.08,15.08 0 0 0 -1.37,4.13 c -0.19,1.11 -0.71,3.19 0.54,3.83 a 1.4,1.4 0 0 0 1.72,-0.37 c 0.44,-0.57 0.28,-1.4 0.34,-2.07 a 11.88,11.88 0 0 1 0.9,-3.56 c 2.06,-4.91 6.76,-8.35 11.59,-10.25 a 35,35 0 0 1 9.42,-2.2 48.21,48.21 0 0 1 5.1,-0.21 c 0.8,0 1.55,-0.25 1.7,-1.13 a 1.37,1.37 0 0 0 -1.06,-1.59 1.09,1.09 0 0 0 -1.3,0.73 1.08,1.08 0 0 0 0.73,1.31 l -0.32,-0.25 -0.15,-0.54 a 0.34,0.34 0 0 1 0,0.2 l 0.15,-0.54 c 0.27,-0.63 0.55,-0.19 0.13,-0.3 a 2.33,2.33 0 0 0 -0.59,0 h -1.07 c -0.72,0 -1.43,0.05 -2.14,0.1 -1.44,0.1 -2.87,0.27 -4.29,0.5 a 34.2,34.2 0 0 0 -7.31,2.08 23.55,23.55 0 0 0 -11.29,9 16,16 0 0 0 -1.71,3.7 13.24,13.24 0 0 0 -0.45,2 c 0,0.36 -0.1,0.73 -0.13,1.09 v 0.51 0.2 c 0,0.36 0.06,0.3 0.3,-0.2 l 0.53,-0.14 a 0.31,0.31 0 0 1 -0.19,0 l 0.53,0.14 c 0.53,0.23 0.21,0.59 0.29,0.17 a 3.38,3.38 0 0 0 0,-0.45 c 0,-0.32 0.05,-0.65 0.1,-1 a 12.47,12.47 0 0 1 0.41,-1.81 14.34,14.34 0 0 1 1.47,-3.3 18.64,18.64 0 0 1 4.45,-5 29.12,29.12 0 0 1 13.01,-5.51 45.38,45.38 0 0 1 8.56,-0.62 1.06,1.06 0 0 0 0,-2.11 z" id="path300" />
      <path class="cls-2" d="m 192.58,149.87 c -21.51,0 -39,-16.5 -39,-36.79 0,-20.29 17.5,-36.78 39,-36.78 h 56.68 v 73.57 z m -0.5,-70.33 c -19.65,0 -35.63,15 -35.63,33.54 0,18.54 16,33.55 35.63,33.55 h 32.23 V 79.54 Z" id="path302" />
      <path class="cls-24" d="m 248.69,76.87 v 72.43 h -56.11 c -21.19,0 -38.43,-16.25 -38.43,-36.22 0,-19.97 17.24,-36.21 38.43,-36.21 h 56.11 m -56.61,70.33 h 32.81 V 79 h -32.81 c -20,0 -36.2,15.3 -36.2,34.11 0,18.81 16.24,34.12 36.2,34.12 m 57.75,-71.47 h -57.25 c -21.82,0 -39.58,16.75 -39.58,37.35 0,20.6 17.76,37.36 39.58,37.36 h 57.25 V 75.73 Z m -57.75,70.32 c -19.33,0 -35.06,-14.79 -35.06,-33 0,-18.21 15.73,-33 35.06,-33 h 31.66 v 65.94 z" id="path304" />
      <rect class="cls-25" x="227.78" y="87.599998" width="17.719999" height="50.970001" rx="8.6000004" id="rect306" />
      <ellipse class="cls-26" cx="236.64" cy="98.269997" rx="5.29" ry="4.9899998" id="ellipse308" />
      <ellipse class="cls-26" cx="236.64" cy="113.08" rx="5.29" ry="4.9899998" id="ellipse310" />
      <ellipse class="cls-26" cx="236.64" cy="127.9" rx="5.29" ry="4.9899998" id="ellipse312" />
      <path class="cls-27" d="M 287.52,165.74" id="path314" />
      <ellipse class="cls-28" cx="153.75" cy="659.66998" rx="52.049999" ry="6.6399999" id="ellipse316" />
      <ellipse class="cls-28" cx="153.75" cy="679.17999" rx="44.48" ry="6.1700001" id="ellipse318" />
      <ellipse class="cls-28" cx="153.75" cy="697.66998" rx="33.5" ry="4.6399999" id="ellipse320" />
      <rect class="cls-29" x="151.98" y="590.59003" width="5.0500002" height="51.959999" id="rect322" />
      <circle class="cls-29" cx="154.5" cy="607.71997" r="9.0799999" id="circle324" />
      <circle class="cls-29" cx="154.5" cy="642.54999" r="5.3699999" id="circle326" />
      <path class="cls-29" d="M 172.54,604.73 H 136.47 A 13.75,13.75 0 0 1 122.72,591 h 63.57 a 13.75,13.75 0 0 1 -13.75,13.73 z" id="path328" />
      <path class="cls-30" d="m 258.32,551.76 v 0 -8.63 H 47.83 v 8.63 0 0.24 0 a 45.53,45.53 0 0 0 45.49,43.5 h 119.54 c 24.3,0 44.14,-19.5 45.44,-43.5 v 0 z" id="path330" />
      <path d="m 259.49,551.76 v -8.63 a 1.18,1.18 0 0 0 -1.17,-1.17 H 56.37 c -2.72,0 -5.46,-0.05 -8.18,0 h -0.36 a 1.18,1.18 0 0 0 -1.17,1.17 v 8.63 l 1.17,-1.17 v 0 a 1.17,1.17 0 0 0 -1.17,1.17 2.61,2.61 0 0 1 0,0.28 1.18,1.18 0 0 0 1.17,1.17 v 0 L 46.67,552 A 46.71,46.71 0 0 0 93.4,596.67 H 211.83 A 47.13,47.13 0 0 0 259.47,552 l -1.17,1.17 v 0 a 1.18,1.18 0 0 0 1.17,-1.17 v -0.28 a 1.17,1.17 0 0 0 -2.34,0 V 552 l 1.17,-1.17 v 0 a 1.2,1.2 0 0 0 -1.17,1.17 45.5,45.5 0 0 1 -16,32 44.25,44.25 0 0 1 -28.47,10.34 H 94.55 A 46.15,46.15 0 0 1 71.86,588.81 44.76,44.76 0 0 1 50.36,561 43.88,43.88 0 0 1 49,552 1.2,1.2 0 0 0 47.83,550.83 v 0 L 49,552 a 2.61,2.61 0 0 0 0,-0.28 l -1.17,1.18 v 0 A 1.19,1.19 0 0 0 49,551.76 v -8.63 l -1.17,1.17 h 202 c 2.71,0 5.48,0.18 8.18,0 h 0.36 l -1.17,-1.17 v 8.63 a 1.17,1.17 0 0 0 2.29,0 z" id="path332" />
      <circle class="cls-31" cx="89.599998" cy="575.21002" r="4.75" id="circle334" />
      <circle class="cls-31" cx="111.21" cy="575.21002" r="4.75" id="circle336" />
      <circle class="cls-31" cx="132.82001" cy="575.21002" r="4.75" id="circle338" />
      <circle class="cls-31" cx="154.42999" cy="575.21002" r="4.75" id="circle340" />
      <circle class="cls-31" cx="176.03999" cy="575.21002" r="4.75" id="circle342" />
      <circle class="cls-31" cx="197.39" cy="575.21002" r="4.75" id="circle344" />
      <circle class="cls-31" cx="219" cy="575.21002" r="4.75" id="circle346" />
      <circle class="cls-32" cx="89.599998" cy="575.21002" r="4.75" id="circle348" />
      <circle class="cls-32" cx="111.21" cy="575.21002" r="4.75" id="circle350" />
      <circle class="cls-32" cx="132.82001" cy="575.21002" r="4.75" id="circle352" />
      <circle class="cls-32" cx="154.42999" cy="575.21002" r="4.75" id="circle354" />
      <circle class="cls-32" cx="176.03999" cy="575.21002" r="4.75" id="circle356" />
      <circle class="cls-32" cx="197.39" cy="575.21002" r="4.75" id="circle358" />
      <circle class="cls-32" cx="219" cy="575.21002" r="4.75" id="circle360" />
      <path d="m 93.52,575.21 a 3.91,3.91 0 1 1 -7.27,-2 3.91,3.91 0 0 1 7.27,2 0.83,0.83 0 0 0 1.66,0 5.58,5.58 0 1 0 -4.51,5.47 5.65,5.65 0 0 0 4.51,-5.47 0.83,0.83 0 0 0 -1.66,0 z" id="path362" />
      <path d="m 115.13,575.21 a 3.91,3.91 0 1 1 -3.23,-3.85 4,4 0 0 1 3.23,3.85 0.83,0.83 0 0 0 1.66,0 5.58,5.58 0 1 0 -4.51,5.47 5.65,5.65 0 0 0 4.51,-5.47 0.83,0.83 0 0 0 -1.66,0 z" id="path364" />
      <path d="m 136.73,575.21 a 3.91,3.91 0 1 1 -3.22,-3.85 3.94,3.94 0 0 1 3.22,3.85 0.84,0.84 0 0 0 1.67,0 5.65,5.65 0 0 0 -3.66,-5.23 5.57,5.57 0 1 0 3.66,5.23 0.84,0.84 0 0 0 -1.67,0 z" id="path366" />
      <path d="m 158.34,575.21 a 3.91,3.91 0 1 1 -3.22,-3.85 3.94,3.94 0 0 1 3.22,3.85 0.84,0.84 0 0 0 1.67,0 5.65,5.65 0 0 0 -3.66,-5.23 5.58,5.58 0 0 0 -6.72,8.08 5.58,5.58 0 0 0 10.37,-2.85 0.84,0.84 0 0 0 -1.66,0 z" id="path368" />
      <path d="m 180,575.21 a 3.91,3.91 0 1 1 -3.22,-3.85 3.94,3.94 0 0 1 3.22,3.85 0.84,0.84 0 0 0 1.67,0 5.66,5.66 0 0 0 -3.67,-5.21 5.57,5.57 0 1 0 3.66,5.23 0.84,0.84 0 0 0 -1.66,-0.02 z" id="path370" />
      <path d="m 201.3,575.21 a 3.91,3.91 0 1 1 -3.22,-3.85 3.94,3.94 0 0 1 3.22,3.85 0.84,0.84 0 0 0 1.67,0 5.65,5.65 0 0 0 -3.66,-5.23 5.57,5.57 0 1 0 3.66,5.23 0.84,0.84 0 0 0 -1.67,0 z" id="path372" />
      <path d="m 222.91,575.21 a 3.91,3.91 0 1 1 -3.22,-3.85 3.94,3.94 0 0 1 3.22,3.85 0.84,0.84 0 0 0 1.67,0 5.65,5.65 0 0 0 -3.66,-5.23 5.57,5.57 0 1 0 3.66,5.23 0.84,0.84 0 0 0 -1.67,0 z" id="path374" />
      <path class="cls-33" d="M 117,557.23 H 48.33 l 0.93,3.38 h 67.61 a 1.76,1.76 0 0 0 1.79,-1.6 1.69,1.69 0 0 0 -1.66,-1.78 z" id="path376" />
      <rect class="cls-33" x="122.42" y="557.22998" width="3.48" height="3.3800001" rx="1.6900001" id="rect378" />
      <path class="cls-33" d="M 143,549.07 H 48.33 v 3.38 H 128 a 1.69,1.69 0 0 1 1.69,1.69 v 4.78 a 1.7,1.7 0 0 0 1.7,1.69 h 3.85 a 1.67,1.67 0 0 0 1.22,-0.53 l 7.76,-8.16 A 1.69,1.69 0 0 0 143,549.07 Z" id="path380" />
      <path class="cls-33" d="m 258.07,557.23 h -66.13 a 1.68,1.68 0 0 0 -1.69,1.78 1.76,1.76 0 0 0 1.78,1.6 h 65.43 z" id="path382" />
      <rect class="cls-33" x="183.00999" y="557.22998" width="3.48" height="3.3800001" rx="1.6900001" id="rect384" />
      <path class="cls-33" d="m 258.67,549.07 h -92.76 a 1.69,1.69 0 0 0 -1.22,2.85 l 7.76,8.16 a 1.66,1.66 0 0 0 1.22,0.53 h 3.85 a 1.69,1.69 0 0 0 1.69,-1.69 v -4.78 a 1.69,1.69 0 0 1 1.69,-1.69 h 77.77 z" id="path386" />
      <circle class="cls-33" cx="154.45" cy="554.51001" r="3.71" id="circle388" />
    </symbol>
  </defs>
  <g id="CHARACTERS" transform="translate(-1472.87,-129.17)">
    <use width="329.56" height="703.76001" transform="translate(1472.87,129.17)" xlink:href="#Teacher_1" id="use605" x="0" y="0" />
  </g>
</svg>
